<?xml version="1.0" encoding="utf-8"?>
<!-- Generator: Adobe Illustrator 21.0.2, SVG Export Plug-In . SVG Version: 6.00 Build 0)  -->
<svg version="1.1" xmlns="http://www.w3.org/2000/svg" xmlns:xlink="http://www.w3.org/1999/xlink" x="0px" y="0px"
	 viewBox="0 0 318.7 331.7" style="enable-background:new 0 0 318.7 331.7;" xml:space="preserve">
<style type="text/css">
	.st0{fill:none;stroke:#000000;stroke-linecap:round;stroke-linejoin:round;stroke-miterlimit:10;}
	.st1{fill:none;stroke:#000000;stroke-width:2;stroke-linecap:round;stroke-linejoin:round;stroke-miterlimit:10;}
	.st2{font-family:'ArialMT';}
	.st3{font-size:8px;}
</style>
<g id="图层_2">
	<g>
		<line class="st0" x1="66.5" y1="153.9" x2="66.5" y2="154.7"/>
		<line class="st0" x1="66.5" y1="184.4" x2="66.5" y2="185.4"/>
		<line class="st0" x1="63.5" y1="185.4" x2="63.5" y2="166.1"/>
		<line class="st0" x1="38.4" y1="199.7" x2="38.4" y2="151.6"/>
		<polyline class="st0" points="44.7,129.7 44.7,129.5 44.7,129.3 44.7,129.1 44.7,128.9 44.9,128.7 44.9,128.5 45.1,128.5 		"/>
		<path class="st0" d="M44.5,199.7c0,0,0,1.8,0,2.1c0,3.9,3.8,8,9.4,8h132.2"/>
		<line class="st1" x1="284.2" y1="164.7" x2="284.2" y2="153.9"/>
		<polyline class="st0" points="282.4,153.9 279.7,153.9 279.7,164.7 284.2,164.7 		"/>
		<path class="st0" d="M252.8,142.9h-182c0,0-4.3-0.4-4.3,4.3v6.7"/>
		<line class="st1" x1="262.4" y1="142.9" x2="252.8" y2="142.9"/>
		<path class="st1" d="M284.2,153.9v-6.7c0,0,0-4.3-4.3-4.3H271"/>
		<line class="st0" x1="282.4" y1="153.9" x2="284.2" y2="153.9"/>
		<line class="st1" x1="284.2" y1="164.7" x2="284.2" y2="180.1"/>
		<path class="st1" d="M252.9,141.5c1.3,0,1.4-1.2,1.4-1.2v-10.6c0,0,0.1-1.2-1.4-1.2h-66.9"/>
		<line class="st0" x1="186.1" y1="141.5" x2="252.9" y2="141.5"/>
		<line class="st1" x1="284.2" y1="195.4" x2="284.2" y2="180.1"/>
		<polyline class="st0" points="283.3,180.1 279.7,180.1 279.7,195.4 284.2,195.4 		"/>
		<path class="st1" d="M262.4,142.4V131c0,0-0.3-1.8,1.8-1.8h5.1c0,0,1.8,0,1.8,1.8v11.9"/>
		<polyline class="st1" points="165,128.5 167.4,126 183.1,126 185.7,128.5 		"/>
		<path class="st1" d="M252.9,209.8c1.5,0,1.4,1.4,1.4,1.4v10.4c0,0,0.2,1.4-1.4,1.4h-66.9"/>
		<line class="st0" x1="186.1" y1="209.8" x2="252.9" y2="209.8"/>
		<line class="st0" x1="165" y1="128.5" x2="186.1" y2="128.5"/>
		<line class="st1" x1="136.3" y1="128.5" x2="165" y2="128.5"/>
		<path class="st0" d="M186.1,140.3"/>
		<line class="st0" x1="136.3" y1="141.5" x2="186.1" y2="141.5"/>
		<polyline class="st1" points="165,222.9 167.4,225.3 183.1,225.3 185.7,222.9 		"/>
		<path class="st0" d="M136.3,141.5H53.9c0,0-9,0.3-9.2,6.4"/>
		<line class="st0" x1="165" y1="222.9" x2="186.1" y2="222.9"/>
		<line class="st1" x1="136.3" y1="222.9" x2="165" y2="222.9"/>
		<path class="st1" d="M136.3,128.5h-105c0,0-8.5-0.7-8.9,8.7v76.9c0,0-0.9,8.9,8.9,8.9"/>
		<line class="st0" x1="66.5" y1="166.1" x2="66.5" y2="166.9"/>
		<polyline class="st0" points="63,154.7 63,166.1 68.9,166.1 68.9,154.7 63,154.7 		"/>
		<line class="st0" x1="44.7" y1="151.2" x2="44.7" y2="129.7"/>
		<line class="st0" x1="66.5" y1="184.4" x2="66.5" y2="166.9"/>
		<polyline class="st0" points="68.9,196.6 63,196.6 63,185.4 68.9,185.4 68.9,196.6 		"/>
		<polyline class="st0" points="62.6,199.7 63.5,199.7 63.5,196.6 		"/>
		<path class="st0" d="M252.4,208.4l-181.6,0c0,0-4,0.2-4.3-4.3v-7.5"/>
		<path class="st1" d="M284.2,195.4v8.7c0,0,0,4.3-4.3,4.3h-27.5"/>
		<polyline class="st0" points="62.6,199.7 53.9,199.7 53.9,151.6 		"/>
		<line class="st0" x1="53.9" y1="199.7" x2="38.4" y2="199.7"/>
		<polyline class="st0" points="38.6,199.7 34.2,199.7 34.2,151.6 63.5,151.6 63.5,154.7 		"/>
		<line class="st0" x1="42.7" y1="199.7" x2="42.7" y2="222.6"/>
		<polyline class="st1" points="42.7,222.9 31.3,222.9 42.7,222.9 		"/>
		<line class="st1" x1="136.3" y1="222.9" x2="42.7" y2="222.9"/>
		<g id="TEXT_109_">
			<g>
				<g>
					<text transform="matrix(1 0 0 1 78.7331 178.6082)" class="st2 st3">29</text>
				</g>
			</g>
		</g>
		<g id="TEXT_101_">
			<g>
				<g>
					<text transform="matrix(1 0 0 1 78.7321 199.2588)" class="st2 st3">43</text>
				</g>
			</g>
		</g>
		<g id="TEXT_111_">
			<g>
				<g>
					<text transform="matrix(1 0 0 1 81.0827 157.6587)" class="st2 st3">1</text>
				</g>
			</g>
		</g>
		<path class="st0" d="M201.2,190.5c-1.3,0-2.4-1-2.4-2.3v-24.5c0-1.3,1.1-2.3,2.4-2.3h3.7c1.3,0,2.4,1,2.4,2.3v24.5
			c0,1.3-1.1,2.3-2.4,2.3H201.2z"/>
		<path class="st0" d="M145.7,190.5c-1.3,0-2.4-1-2.4-2.3v-24.5c0-1.3,1.1-2.3,2.4-2.3h3.7c1.3,0,2.4,1,2.4,2.3v24.5
			c0,1.3-1.1,2.3-2.4,2.3H145.7z"/>
		<rect x="77.7" y="151.4" class="st0" width="11.4" height="6.7"/>
		<rect x="77.7" y="172.4" class="st0" width="11.4" height="6.7"/>
		<rect x="77.7" y="193.3" class="st0" width="11.4" height="6.7"/>
		<g>
			<g id="TEXT_12_">
				<g>
					<g>
						<text transform="matrix(1 0 0 1 98.4899 200.8315)" class="st2 st3">44</text>
					</g>
				</g>
			</g>
			<rect x="98.8" y="193.7" class="st0" width="8.1" height="8.6"/>
		</g>
		<g>
			<g id="TEXT_10_">
				<g>
					<g>
						<text transform="matrix(1 0 0 1 98.4899 185.0981)" class="st2 st3">30</text>
					</g>
				</g>
			</g>
			<rect x="98.8" y="178" class="st0" width="8.1" height="8.6"/>
		</g>
		<g>
			<g id="TEXT_13_">
				<g>
					<g>
						<text transform="matrix(1 0 0 1 98.4899 170.1499)" class="st2 st3">17</text>
					</g>
				</g>
			</g>
			<rect x="98.8" y="163" class="st0" width="8.1" height="8.6"/>
		</g>
		<g>
			<g id="TEXT_1_">
				<g>
					<g>
						<text transform="matrix(1 0 0 1 100.6344 155.0063)" class="st2 st3">2</text>
					</g>
				</g>
			</g>
			<rect x="98.8" y="147.9" class="st0" width="8.1" height="8.6"/>
		</g>
		<g>
			<g id="TEXT_26_">
				<g>
					<g>
						<text transform="matrix(1 0 0 1 110.0446 200.8315)" class="st2 st3">45</text>
					</g>
				</g>
			</g>
			<rect x="110.4" y="193.7" class="st0" width="8.1" height="8.6"/>
		</g>
		<g>
			<g id="TEXT_24_">
				<g>
					<g>
						<text transform="matrix(1 0 0 1 110.0446 185.0981)" class="st2 st3">31</text>
					</g>
				</g>
			</g>
			<rect x="110.4" y="178" class="st0" width="8.1" height="8.6"/>
		</g>
		<g>
			<g id="TEXT_22_">
				<g>
					<g>
						<text transform="matrix(1 0 0 1 109.7692 170.1499)" class="st2 st3">18</text>
					</g>
				</g>
			</g>
			<rect x="110.4" y="163" class="st0" width="8.1" height="8.6"/>
		</g>
		<g>
			<g id="TEXT_8_">
				<g>
					<g>
						<text transform="matrix(1 0 0 1 112.1891 155.0063)" class="st2 st3">3</text>
					</g>
				</g>
			</g>
			<rect x="110.4" y="147.9" class="st0" width="8.1" height="8.6"/>
		</g>
		<g>
			<g id="TEXT_131_">
				<g>
					<g>
						<text transform="matrix(1 0 0 1 242.2438 200.8315)" class="st2 st3">57</text>
					</g>
				</g>
			</g>
			<rect x="242.6" y="193.7" class="st0" width="8.1" height="8.6"/>
		</g>
		<g>
			<g id="TEXT_129_">
				<g>
					<g>
						<text transform="matrix(1 0 0 1 242.2438 185.0981)" class="st2 st3">41</text>
					</g>
				</g>
			</g>
			<rect x="242.6" y="178" class="st0" width="8.1" height="8.6"/>
		</g>
		<g>
			<g id="TEXT_127_">
				<g>
					<g>
						<text transform="matrix(1 0 0 1 242.2438 170.1499)" class="st2 st3">28</text>
					</g>
				</g>
			</g>
			<rect x="242.6" y="163" class="st0" width="8.1" height="8.6"/>
		</g>
		<g>
			<g id="TEXT_118_">
				<g>
					<g>
						<text transform="matrix(1 0 0 1 242.1637 155.0063)" class="st2 st3">15</text>
					</g>
				</g>
			</g>
			<rect x="242.6" y="147.9" class="st0" width="8.1" height="8.6"/>
		</g>
		<g>
			<g id="TEXT_123_">
				<g>
					<g>
						<text transform="matrix(1 0 0 1 231.2282 200.8315)" class="st2 st3">56</text>
					</g>
				</g>
			</g>
			<rect x="231.5" y="193.7" class="st0" width="8.1" height="8.6"/>
		</g>
		<g>
			<g id="TEXT_121_">
				<g>
					<g>
						<text transform="matrix(1 0 0 1 231.2282 185.0981)" class="st2 st3">40</text>
					</g>
				</g>
			</g>
			<rect x="231.5" y="178" class="st0" width="8.1" height="8.6"/>
		</g>
		<g>
			<g id="TEXT_119_">
				<g>
					<g>
						<text transform="matrix(1 0 0 1 231.2282 170.1499)" class="st2 st3">27</text>
					</g>
				</g>
			</g>
			<rect x="231.5" y="163" class="st0" width="8.1" height="8.6"/>
		</g>
		<g>
			<g id="TEXT_108_">
				<g>
					<g>
						<text transform="matrix(1 0 0 1 231.1481 155.0063)" class="st2 st3">14</text>
					</g>
				</g>
			</g>
			<rect x="231.5" y="147.9" class="st0" width="8.1" height="8.6"/>
		</g>
		<g>
			<g id="TEXT_115_">
				<g>
					<g>
						<text transform="matrix(1 0 0 1 220.2106 200.8315)" class="st2 st3">55</text>
					</g>
				</g>
			</g>
			<rect x="220.5" y="193.7" class="st0" width="8.1" height="8.6"/>
		</g>
		<g>
			<g id="TEXT_113_">
				<g>
					<g>
						<text transform="matrix(1 0 0 1 220.2106 185.0981)" class="st2 st3">39</text>
					</g>
				</g>
			</g>
			<rect x="220.5" y="178" class="st0" width="8.1" height="8.6"/>
		</g>
		<g>
			<g id="TEXT_110_">
				<g>
					<g>
						<text transform="matrix(1 0 0 1 220.2106 170.1499)" class="st2 st3">26</text>
					</g>
				</g>
			</g>
			<rect x="220.5" y="163" class="st0" width="8.1" height="8.6"/>
		</g>
		<g>
			<g id="TEXT_99_">
				<g>
					<g>
						<text transform="matrix(1 0 0 1 220.1305 155.0063)" class="st2 st3">13</text>
					</g>
				</g>
			</g>
			<rect x="220.5" y="147.9" class="st0" width="8.1" height="8.6"/>
		</g>
		<g>
			<g id="TEXT_105_">
				<g>
					<g>
						<text transform="matrix(1 0 0 1 209.195 200.8315)" class="st2 st3">54</text>
					</g>
				</g>
			</g>
			<rect x="209.5" y="193.7" class="st0" width="8.1" height="8.6"/>
		</g>
		<g>
			<g id="TEXT_103_">
				<g>
					<g>
						<text transform="matrix(1 0 0 1 209.195 185.0981)" class="st2 st3">38</text>
					</g>
				</g>
			</g>
			<rect x="209.5" y="178" class="st0" width="8.1" height="8.6"/>
		</g>
		<g>
			<g id="TEXT_100_">
				<g>
					<g>
						<text transform="matrix(1 0 0 1 209.195 170.1499)" class="st2 st3">25</text>
					</g>
				</g>
			</g>
			<rect x="209.5" y="163" class="st0" width="8.1" height="8.6"/>
		</g>
		<g>
			<g id="TEXT_88_">
				<g>
					<g>
						<text transform="matrix(1 0 0 1 209.1149 155.0063)" class="st2 st3">12</text>
					</g>
				</g>
			</g>
			<rect x="209.5" y="147.9" class="st0" width="8.1" height="8.6"/>
		</g>
		<g>
			<g id="TEXT_95_">
				<g>
					<g>
						<text transform="matrix(1 0 0 1 198.1774 200.8315)" class="st2 st3">53</text>
					</g>
				</g>
			</g>
			<rect x="198.5" y="193.7" class="st0" width="8.1" height="8.6"/>
		</g>
		<g>
			<g id="TEXT_77_">
				<g>
					<g>
						<text transform="matrix(1 0 0 1 198.0973 155.0063)" class="st2 st3">11</text>
					</g>
				</g>
			</g>
			<rect x="198.5" y="147.9" class="st0" width="8.1" height="8.6"/>
		</g>
		<g>
			<g id="TEXT_85_">
				<g>
					<g>
						<text transform="matrix(1 0 0 1 187.1618 200.8315)" class="st2 st3">52</text>
					</g>
				</g>
			</g>
			<rect x="187.5" y="193.7" class="st0" width="8.1" height="8.6"/>
		</g>
		<g>
			<g id="TEXT_82_">
				<g>
					<g>
						<text transform="matrix(1 0 0 1 187.1618 185.0981)" class="st2 st3">37</text>
					</g>
				</g>
			</g>
			<rect x="187.5" y="178" class="st0" width="8.1" height="8.6"/>
		</g>
		<g>
			<g id="TEXT_78_">
				<g>
					<g>
						<text transform="matrix(1 0 0 1 187.1618 170.1499)" class="st2 st3">24</text>
					</g>
				</g>
			</g>
			<rect x="187.5" y="163" class="st0" width="8.1" height="8.6"/>
		</g>
		<g>
			<g id="TEXT_69_">
				<g>
					<g>
						<text transform="matrix(1 0 0 1 186.4723 155.0063)" class="st2 st3">10</text>
					</g>
				</g>
			</g>
			<rect x="187.5" y="147.9" class="st0" width="8.1" height="8.6"/>
		</g>
		<g>
			<g id="TEXT_74_">
				<g>
					<g>
						<text transform="matrix(1 0 0 1 176.1442 200.8315)" class="st2 st3">51</text>
					</g>
				</g>
			</g>
			<rect x="176.5" y="193.7" class="st0" width="8.1" height="8.6"/>
		</g>
		<g>
			<g id="TEXT_72_">
				<g>
					<g>
						<text transform="matrix(1 0 0 1 176.1442 185.0981)" class="st2 st3">36</text>
					</g>
				</g>
			</g>
			<rect x="176.5" y="178" class="st0" width="8.1" height="8.6"/>
		</g>
		<g>
			<g id="TEXT_70_">
				<g>
					<g>
						<text transform="matrix(1 0 0 1 176.1442 170.1499)" class="st2 st3">23</text>
					</g>
				</g>
			</g>
			<rect x="176.5" y="163" class="st0" width="8.1" height="8.6"/>
		</g>
		<g>
			<g id="TEXT_61_">
				<g>
					<g>
						<text transform="matrix(1 0 0 1 178.2887 155.0063)" class="st2 st3">9</text>
					</g>
				</g>
			</g>
			<rect x="176.5" y="147.9" class="st0" width="8.1" height="8.6"/>
		</g>
		<g>
			<g id="TEXT_66_">
				<g>
					<g>
						<text transform="matrix(1 0 0 1 165.1286 200.8315)" class="st2 st3">50</text>
					</g>
				</g>
			</g>
			<rect x="165.5" y="193.7" class="st0" width="8.1" height="8.6"/>
		</g>
		<g>
			<g id="TEXT_64_">
				<g>
					<g>
						<text transform="matrix(1 0 0 1 165.1286 185.0981)" class="st2 st3">35</text>
					</g>
				</g>
			</g>
			<rect x="165.5" y="178" class="st0" width="8.1" height="8.6"/>
		</g>
		<g>
			<g id="TEXT_62_">
				<g>
					<g>
						<text transform="matrix(1 0 0 1 165.1286 170.1499)" class="st2 st3">22</text>
					</g>
				</g>
			</g>
			<rect x="165.5" y="163" class="st0" width="8.1" height="8.6"/>
		</g>
		<g>
			<g id="TEXT_53_">
				<g>
					<g>
						<text transform="matrix(1 0 0 1 167.2731 155.0063)" class="st2 st3">8</text>
					</g>
				</g>
			</g>
			<rect x="165.5" y="147.9" class="st0" width="8.1" height="8.6"/>
		</g>
		<g>
			<g id="TEXT_50_">
				<g>
					<g>
						<text transform="matrix(1 0 0 1 143.0954 200.8315)" class="st2 st3">48</text>
					</g>
				</g>
			</g>
			<rect x="143.4" y="193.7" class="st0" width="8.1" height="8.6"/>
		</g>
		<g>
			<g id="TEXT_37_">
				<g>
					<g>
						<text transform="matrix(1 0 0 1 145.2399 155.0063)" class="st2 st3">6</text>
					</g>
				</g>
			</g>
			<rect x="143.4" y="147.9" class="st0" width="8.1" height="8.6"/>
		</g>
		<g>
			<g id="TEXT_58_">
				<g>
					<g>
						<text transform="matrix(1 0 0 1 154.111 200.8315)" class="st2 st3">49</text>
					</g>
				</g>
			</g>
			<rect x="154.4" y="193.7" class="st0" width="8.1" height="8.6"/>
		</g>
		<g>
			<g id="TEXT_56_">
				<g>
					<g>
						<text transform="matrix(1 0 0 1 154.111 185.0981)" class="st2 st3">34</text>
					</g>
				</g>
			</g>
			<rect x="154.4" y="178" class="st0" width="8.1" height="8.6"/>
		</g>
		<g>
			<g id="TEXT_54_">
				<g>
					<g>
						<text transform="matrix(1 0 0 1 154.111 170.1499)" class="st2 st3">21</text>
					</g>
				</g>
			</g>
			<rect x="154.4" y="163" class="st0" width="8.1" height="8.6"/>
		</g>
		<g>
			<g id="TEXT_45_">
				<g>
					<g>
						<text transform="matrix(1 0 0 1 156.2555 155.0063)" class="st2 st3">7</text>
					</g>
				</g>
			</g>
			<rect x="154.4" y="147.9" class="st0" width="8.1" height="8.6"/>
		</g>
		<g>
			<g id="TEXT_42_">
				<g>
					<g>
						<text transform="matrix(1 0 0 1 132.0778 200.8315)" class="st2 st3">47</text>
					</g>
				</g>
			</g>
			<rect x="132.4" y="193.7" class="st0" width="8.1" height="8.6"/>
		</g>
		<g>
			<g id="TEXT_40_">
				<g>
					<g>
						<text transform="matrix(1 0 0 1 132.0778 185.0981)" class="st2 st3">33</text>
					</g>
				</g>
			</g>
			<rect x="132.4" y="178" class="st0" width="8.1" height="8.6"/>
		</g>
		<g>
			<g id="TEXT_38_">
				<g>
					<g>
						<text transform="matrix(1 0 0 1 132.0778 170.1499)" class="st2 st3">20</text>
					</g>
				</g>
			</g>
			<rect x="132.4" y="163" class="st0" width="8.1" height="8.6"/>
		</g>
		<g>
			<g id="TEXT_29_">
				<g>
					<g>
						<text transform="matrix(1 0 0 1 134.2223 155.0063)" class="st2 st3">5</text>
					</g>
				</g>
			</g>
			<rect x="132.4" y="147.9" class="st0" width="8.1" height="8.6"/>
		</g>
		<g>
			<g id="TEXT_34_">
				<g>
					<g>
						<text transform="matrix(1 0 0 1 121.0622 200.8315)" class="st2 st3">46</text>
					</g>
				</g>
			</g>
			<rect x="121.4" y="193.7" class="st0" width="8.1" height="8.6"/>
		</g>
		<g>
			<g id="TEXT_32_">
				<g>
					<g>
						<text transform="matrix(1 0 0 1 121.0622 185.0981)" class="st2 st3">32</text>
					</g>
				</g>
			</g>
			<rect x="121.4" y="178" class="st0" width="8.1" height="8.6"/>
		</g>
		<g>
			<g id="TEXT_30_">
				<g>
					<g>
						<text transform="matrix(1 0 0 1 120.7848 170.1499)" class="st2 st3">19</text>
					</g>
				</g>
			</g>
			<rect x="121.4" y="163" class="st0" width="8.1" height="8.6"/>
		</g>
		<g>
			<g id="TEXT_20_">
				<g>
					<g>
						<text transform="matrix(1 0 0 1 123.2067 155.0063)" class="st2 st3">4</text>
					</g>
				</g>
			</g>
			<rect x="121.4" y="147.9" class="st0" width="8.1" height="8.6"/>
		</g>
		<g id="TEXT_83_">
			<g>
				<g>
					<text transform="matrix(1 0 0 1 262.4284 178.3088)" class="st2 st3">42</text>
				</g>
			</g>
		</g>
		<g id="TEXT_71_">
			<g>
				<g>
					<text transform="matrix(1 0 0 1 262.4274 199.6778)" class="st2 st3">58</text>
				</g>
			</g>
		</g>
		<g id="TEXT_4_">
			<g>
				<g>
					<text transform="matrix(1 0 0 1 262.4284 157.6587)" class="st2 st3">16</text>
				</g>
			</g>
		</g>
		<rect x="261.4" y="151.4" class="st0" width="11.4" height="6.7"/>
		<rect x="261.4" y="172.4" class="st0" width="11.4" height="6.7"/>
		<rect x="261.4" y="193.3" class="st0" width="11.4" height="6.7"/>
	</g>
</g>
<g id="S1">
</g>
</svg>
