<?xml version="1.0" encoding="utf-8"?>
<!-- Generator: Adobe Illustrator 21.0.2, SVG Export Plug-In . SVG Version: 6.00 Build 0)  -->
<svg version="1.1" xmlns="http://www.w3.org/2000/svg" xmlns:xlink="http://www.w3.org/1999/xlink" x="0px" y="0px"
	 viewBox="0 0 217 107.8" style="enable-background:new 0 0 217 107.8;" xml:space="preserve">
<style type="text/css">
	.st0{fill:none;stroke:#000000;stroke-width:0.5;stroke-linecap:round;stroke-linejoin:round;stroke-miterlimit:10;}
	.st1{font-family:'ArialMT';}
	.st2{font-size:8px;}
	.st3{fill:none;stroke:#000000;stroke-linecap:round;stroke-linejoin:round;}
</style>
<g id="图层_4">
	<g>
		<path class="st0" d="M158.7,73c0,6.1-4.8,11-10.8,11H61.4c-6,0-10.8-4.9-10.8-11V57c0-6.1,4.8-11,10.8-11h86.6
			c6,0,10.8,4.9,10.8,11V73z"/>
		<g>
			<g>
				<g>
					<g>
						<g>
							<text transform="matrix(1 0 0 1 59.0829 64.3096)" class="st1 st2">1</text>
						</g>
					</g>
				</g>
			</g>
			<rect x="57.3" y="57.9" class="st0" width="8.1" height="7"/>
		</g>
		<g>
			<g>
				<g>
					<g>
						<g>
							<text transform="matrix(1 0 0 1 71.4237 64.3096)" class="st1 st2">2</text>
						</g>
					</g>
				</g>
			</g>
			<rect x="69.6" y="57.9" class="st0" width="8.1" height="7"/>
		</g>
		<g>
			<g>
				<g>
					<g>
						<g>
							<text transform="matrix(1 0 0 1 83.7645 64.3096)" class="st1 st2">3</text>
						</g>
					</g>
				</g>
			</g>
			<rect x="82" y="57.9" class="st0" width="8.1" height="7"/>
		</g>
		<g>
			<g>
				<g>
					<g>
						<g>
							<text transform="matrix(1 0 0 1 96.1053 64.3096)" class="st1 st2">4</text>
						</g>
					</g>
				</g>
			</g>
			<rect x="94.3" y="57.9" class="st0" width="8.1" height="7"/>
		</g>
		<g>
			<g>
				<g>
					<g>
						<g>
							<text transform="matrix(1 0 0 1 108.078 64.3096)" class="st1 st2">5</text>
						</g>
					</g>
				</g>
			</g>
			<rect x="106.3" y="57.9" class="st0" width="8.1" height="7"/>
		</g>
		<g>
			<g>
				<g>
					<g>
						<g>
							<text transform="matrix(1 0 0 1 120.4188 64.3096)" class="st1 st2">6</text>
						</g>
					</g>
				</g>
			</g>
			<rect x="118.6" y="57.9" class="st0" width="8.1" height="7"/>
		</g>
		<g>
			<g>
				<g>
					<g>
						<g>
							<text transform="matrix(1 0 0 1 132.7596 64.3096)" class="st1 st2">7</text>
						</g>
					</g>
				</g>
			</g>
			<rect x="131" y="57.9" class="st0" width="8.1" height="7"/>
		</g>
		<g>
			<g>
				<g>
					<g>
						<g>
							<text transform="matrix(1 0 0 1 145.1005 64.3096)" class="st1 st2">8</text>
						</g>
					</g>
				</g>
			</g>
			<rect x="143.3" y="57.9" class="st0" width="8.1" height="7"/>
		</g>
		<polyline class="st0" points="79.4,19.9 83.7,19.9 83.7,30.8 89.6,30.8 89.6,15.8 		"/>
		<polyline class="st0" points="56.7,37.3 56.7,39.6 66.2,39.6 66.2,37.4 		"/>
		<polyline class="st0" points="68.8,92 68.8,90.2 61.7,90.2 61.7,91.7 		"/>
		<polyline class="st0" points="98.5,28.1 97.2,28.1 97.2,24.8 92.1,24.8 		"/>
		<line class="st0" x1="89.8" y1="28.1" x2="91.7" y2="28.1"/>
		<line class="st0" x1="89.8" y1="26" x2="91.7" y2="26"/>
		<path class="st0" d="M37.4,47v11.3h-2.4c0,0-3.2-0.2-3.2,3.2"/>
		<path class="st3" d="M172,47l-5.8-10.1c-2.5-5-8.1-4.9-8.1-4.9s-13.3,0-17.9,0c-4.6,0-3.7-4.1-3.7-4.1v-9.3c0-8.5-9.3-8.5-9.3-8.5
			H82.2c0,0-9.3,0-9.3,8.5v9.3c0,0,0.9,4.1-3.7,4.1c-4.6,0-17.9,0-17.9,0s-5.6,0-8.1,4.9L37.4,47"/>
		<path class="st3" d="M171.6,75c0,0-4.1,21.6-25.9,21.6h-82C41.9,96.6,37.8,75,37.8,75h-1.6c-4.7-0.3-4.5-4.7-4.5-4.7
			s0-17.1,0-18.7c0-1.6,0.5-1.9,1.2-3.3c0.7-1.4,4.3-1.2,4.3-1.2"/>
		<path class="st0" d="M171.6,75l0.1-10.5c0,0,3.9,0.6,5.8-4.1"/>
		<path class="st3" d="M172.2,47c0,0,3.2,0,4.2,1.2c0.8,0.9,1.3,2.1,1.3,3.7c0,1.6,0,18.3,0,18.3s0.2,4.4-4.5,4.7h-1.6"/>
		<path class="st0" d="M107.8,21.5c3.9,0,7.3,0,8,0c1.7,0,1.7,2.1,1.7,2.1v12.1h-5.8v1.7H97.7v-1.7h-5.8V23.6c0,0-0.1-2.1,1.7-2.1
			c0.7,0,4,0,7.8,0"/>
		<polyline class="st0" points="101.7,23.2 98.9,23.2 98.9,37.2 		"/>
		<polyline class="st0" points="110.5,37.2 110.5,23.2 107.5,23.2 		"/>
		<path class="st0" d="M127.4,27.7c-0.2-0.4-0.2-0.8-0.2-0.8s0-1.6,0-2.7c0-1.1,1-1.2,1-1.2s1.2,0,1.6,0c0.4,0,0.6-0.6,0.6-0.6
			s0,0,0-3.5s-4.1-3.4-4.1-3.4H83.1c0,0-4.1-0.1-4.1,3.4s0,3.5,0,3.5s0.2,0.6,0.6,0.6c0.4,0,1.6,0,1.6,0s1,0.1,1,1.2
			c0,1.1,0,2.7,0,2.7s0,0.4-0.2,0.8"/>
		<polyline class="st0" points="130.1,19.9 125.7,19.9 125.7,30.8 119.8,30.8 119.8,15.8 		"/>
		<path class="st0" d="M125.7,27.9h5.1V31c0,0,0.7,6,7.2,6c6.5,0,19.1,0,19.1,0s2.7-0.1,4.7,2.7l4.9,8.6v3h5.6c0,0,1.6-0.1,1.6,1.4
			c0,1.6,0,6.8,0,6.8s0.2,1.6-1.6,1.6c-1.9,0-4.3,0-4.3,0s-1.1,0.1-1.1,0.8v10c0,0.8-0.5,18.5-18.3,20.4H60.6
			c-17.8-1.9-18.3-19.6-18.3-20.4c0-0.8-1.1-0.8-1.1-0.8s-2.4,0-4.3,0c-1.9,0-1.6-1.6-1.6-1.6s0-5.2,0-6.8c0-1.6,1.6-1.4,1.6-1.4
			h5.6v-13l4.9-8.6c2.1-2.7,4.7-2.7,4.7-2.7s12.6,0,19.1,0c6.5,0,7.2-6,7.2-6v-3.1h5.1"/>
		<polyline class="st0" points="152.7,37.3 152.7,39.6 143.2,39.6 143.2,37.4 		"/>
		<polyline class="st0" points="140.6,92 140.6,90.2 147.7,90.2 147.7,91.7 		"/>
		<path class="st0" d="M119.6,20.9c-2.2-3.1-5.6-2.9-5.6-2.9H95.4c0,0-3.3-0.2-5.6,2.9"/>
		<polyline class="st0" points="110.9,28.1 112.2,28.1 112.2,24.8 117.3,24.8 		"/>
		<line class="st0" x1="119.6" y1="28.1" x2="117.7" y2="28.1"/>
		<line class="st0" x1="119.6" y1="26" x2="117.7" y2="26"/>
		<rect x="101.8" y="21.1" class="st0" width="5.6" height="2.4"/>
	</g>
</g>
<g id="S1">
</g>
</svg>
