<?xml version="1.0" encoding="utf-8"?>
<!-- Generator: Adobe Illustrator 21.0.2, SVG Export Plug-In . SVG Version: 6.00 Build 0)  -->
<svg version="1.1" xmlns="http://www.w3.org/2000/svg" xmlns:xlink="http://www.w3.org/1999/xlink" x="0px" y="0px"
	 viewBox="0 0 240.9 205.9" style="enable-background:new 0 0 240.9 205.9;" xml:space="preserve">
<style type="text/css">
	.st0{fill:none;stroke:#000000;stroke-width:0.5;stroke-linecap:round;stroke-linejoin:round;stroke-miterlimit:10;}
	.st1{fill:none;stroke:#000000;stroke-linecap:round;stroke-linejoin:round;stroke-miterlimit:10;}
	.st2{font-family:'FZLTHJW--GB1-0';}
	.st3{font-size:8px;}
	.st4{fill:none;}
	.st5{fill:#FFFFFF;}
	.st6{fill:none;stroke:#FFFFFF;stroke-width:1.1339;}
</style>
<g id="图层_2">
	<g id="LWPOLYLINE_46484_">
		<line class="st0" x1="144.6" y1="117.2" x2="144.6" y2="114.1"/>
	</g>
	<g id="LWPOLYLINE_46485_">
		<line class="st0" x1="146.8" y1="117.2" x2="146.8" y2="114.1"/>
	</g>
	<g id="LWPOLYLINE_46486_">
		<line class="st0" x1="106.1" y1="117.2" x2="106.1" y2="114.1"/>
	</g>
	<g id="LWPOLYLINE_46488_">
		<line class="st1" x1="86.5" y1="55.3" x2="93" y2="55.3"/>
	</g>
	<g id="LWPOLYLINE_46489_">
		<line class="st0" x1="107.5" y1="55.3" x2="137.2" y2="55.3"/>
	</g>
	<g id="LWPOLYLINE_46490_">
		<line class="st1" x1="151.6" y1="55.3" x2="158.2" y2="55.3"/>
	</g>
	<g id="LWPOLYLINE_46491_">
		<line class="st0" x1="108.3" y1="117.2" x2="108.3" y2="114.1"/>
	</g>
	<g id="LWPOLYLINE_46496_">
		<line class="st0" x1="125.4" y1="117.2" x2="125.4" y2="114.1"/>
	</g>
	<g id="LWPOLYLINE_46497_">
		<line class="st0" x1="127.6" y1="117.2" x2="127.6" y2="114.1"/>
	</g>
	<g id="LWPOLYLINE_46499_">
		<line class="st0" x1="93" y1="64" x2="91.3" y2="64"/>
	</g>
	<g id="LWPOLYLINE_46500_">
		<line class="st0" x1="86.9" y1="117.2" x2="86.9" y2="114.1"/>
	</g>
	<g id="LWPOLYLINE_46501_">
		<line class="st0" x1="151.6" y1="64" x2="153.4" y2="64"/>
	</g>
	<g id="LWPOLYLINE_46502_">
		<line class="st0" x1="89.1" y1="117.2" x2="89.1" y2="114.1"/>
	</g>
	<g id="LWPOLYLINE_46505_">
		<line class="st0" x1="107.5" y1="57.4" x2="137.2" y2="57.4"/>
	</g>
	<g id="LWPOLYLINE_46506_">
		<line class="st0" x1="110.2" y1="33.8" x2="134.4" y2="33.8"/>
	</g>
	<g id="LWPOLYLINE_46507_">
		<line class="st0" x1="79.9" y1="127.2" x2="79.9" y2="118.5"/>
	</g>
	<g id="LWPOLYLINE_46508_">
		<line class="st0" x1="79.9" y1="113.5" x2="79.9" y2="107.5"/>
	</g>
	<g id="LWPOLYLINE_46509_">
		<line class="st0" x1="109.6" y1="117.2" x2="109.6" y2="114.1"/>
	</g>
	<g id="LWPOLYLINE_46510_">
		<line class="st0" x1="148.1" y1="117.2" x2="148.1" y2="114.1"/>
	</g>
	<g id="LWPOLYLINE_46511_">
		<line class="st0" x1="164.7" y1="107.5" x2="164.7" y2="113.5"/>
	</g>
	<g id="LWPOLYLINE_46512_">
		<line class="st0" x1="164.7" y1="118.5" x2="164.7" y2="127.2"/>
	</g>
	<g id="LWPOLYLINE_46513_">
		<line class="st0" x1="90.4" y1="117.2" x2="90.4" y2="114.1"/>
	</g>
	<g id="LWPOLYLINE_46514_">
		<line class="st0" x1="128.9" y1="117.2" x2="128.9" y2="114.1"/>
	</g>
	<g id="LWPOLYLINE_46515_">
		<line class="st1" x1="94.2" y1="38.6" x2="104.1" y2="34.9"/>
	</g>
	<g id="LWPOLYLINE_46516_">
		<line class="st1" x1="140.6" y1="34.9" x2="150.5" y2="38.6"/>
	</g>
	<g id="LWPOLYLINE_46521_">
		<line class="st0" x1="100" y1="133.3" x2="100.9" y2="133.3"/>
	</g>
	<g id="LWPOLYLINE_46524_">
		<line class="st0" x1="138.5" y1="110.7" x2="139.4" y2="110.7"/>
	</g>
	<g id="LWPOLYLINE_46525_">
		<line class="st0" x1="97.4" y1="113.8" x2="86" y2="113.8"/>
	</g>
	<g id="LWPOLYLINE_46526_">
		<line class="st0" x1="116.6" y1="113.8" x2="105.3" y2="113.8"/>
	</g>
	<g id="LWPOLYLINE_46528_">
		<line class="st0" x1="86" y1="110.6" x2="86.9" y2="110.6"/>
	</g>
	<g id="LWPOLYLINE_46529_">
		<line class="st0" x1="157.7" y1="107.1" x2="158.6" y2="107.1"/>
	</g>
	<g id="LWPOLYLINE_46531_">
		<line class="st0" x1="154.2" y1="113.8" x2="143.7" y2="113.8"/>
	</g>
	<g id="LWPOLYLINE_46532_">
		<line class="st0" x1="119.3" y1="107.1" x2="120.1" y2="107.1"/>
	</g>
	<g id="LWPOLYLINE_46533_">
		<line class="st0" x1="100" y1="110.7" x2="100.9" y2="110.7"/>
	</g>
	<g id="LWPOLYLINE_46534_">
		<line class="st0" x1="119.3" y1="133.3" x2="120.1" y2="133.3"/>
	</g>
	<g id="LWPOLYLINE_46536_">
		<line class="st0" x1="135.9" y1="113.8" x2="124.5" y2="113.8"/>
	</g>
	<g id="LWPOLYLINE_46537_">
		<line class="st0" x1="138.5" y1="107.1" x2="139.4" y2="107.1"/>
	</g>
	<g id="LWPOLYLINE_46538_">
		<line class="st0" x1="144.6" y1="136.8" x2="143.7" y2="136.8"/>
	</g>
	<g id="LWPOLYLINE_46540_">
		<line class="st0" x1="157.7" y1="110.7" x2="158.6" y2="110.7"/>
	</g>
	<g id="LWPOLYLINE_46541_">
		<line class="st0" x1="143.7" y1="110.6" x2="144.6" y2="110.6"/>
	</g>
	<g id="LWPOLYLINE_46542_">
		<line class="st0" x1="158.6" y1="136.8" x2="157.7" y2="136.8"/>
	</g>
	<g id="LWPOLYLINE_46543_">
		<line class="st0" x1="155.1" y1="142.1" x2="154.2" y2="142.1"/>
	</g>
	<g id="LWPOLYLINE_46544_">
		<line class="st0" x1="124.5" y1="110.6" x2="125.4" y2="110.6"/>
	</g>
	<g id="LWPOLYLINE_46545_">
		<line class="st0" x1="97.4" y1="142.1" x2="96.5" y2="142.1"/>
	</g>
	<g id="LWPOLYLINE_46546_">
		<line class="st0" x1="120.1" y1="136.8" x2="119.3" y2="136.8"/>
	</g>
	<g id="LWPOLYLINE_46547_">
		<line class="st0" x1="106.1" y1="136.8" x2="105.3" y2="136.8"/>
	</g>
	<g id="LWPOLYLINE_46550_">
		<line class="st0" x1="100" y1="107.1" x2="100.9" y2="107.1"/>
	</g>
	<g id="LWPOLYLINE_46551_">
		<line class="st0" x1="138.5" y1="133.3" x2="139.4" y2="133.3"/>
	</g>
	<g id="LWPOLYLINE_46552_">
		<line class="st0" x1="145.5" y1="142.1" x2="144.1" y2="142.1"/>
	</g>
	<g id="LWPOLYLINE_46553_">
		<line class="st0" x1="157.7" y1="133.3" x2="158.6" y2="133.3"/>
	</g>
	<g id="LWPOLYLINE_46554_">
		<line class="st0" x1="87.8" y1="142.1" x2="86.3" y2="142.1"/>
	</g>
	<g id="LWPOLYLINE_46557_">
		<line class="st0" x1="100.9" y1="136.8" x2="100" y2="136.8"/>
	</g>
	<g id="LWPOLYLINE_46558_">
		<line class="st0" x1="86.9" y1="136.8" x2="86" y2="136.8"/>
	</g>
	<g id="LWPOLYLINE_46559_">
		<line class="st0" x1="139.4" y1="136.8" x2="138.5" y2="136.8"/>
	</g>
	<g id="LWPOLYLINE_46560_">
		<line class="st0" x1="125.4" y1="136.8" x2="124.5" y2="136.8"/>
	</g>
	<g id="LWPOLYLINE_46561_">
		<line class="st0" x1="97.8" y1="171.4" x2="77.2" y2="164.5"/>
	</g>
	<g id="LWPOLYLINE_46562_">
		<line class="st0" x1="74.2" y1="160.4" x2="74.2" y2="127.2"/>
	</g>
	<g id="LWPOLYLINE_46563_">
		<line class="st0" x1="167.4" y1="164.5" x2="146.9" y2="171.4"/>
	</g>
	<g id="LWPOLYLINE_46564_">
		<line class="st0" x1="141.3" y1="172.3" x2="103.3" y2="172.3"/>
	</g>
	<g id="LWPOLYLINE_46565_">
		<line class="st0" x1="170.4" y1="127.2" x2="170.4" y2="160.4"/>
	</g>
	<g id="LWPOLYLINE_46566_">
		<line class="st0" x1="145.5" y1="143.4" x2="145.5" y2="143"/>
	</g>
	<g id="LWPOLYLINE_46567_">
		<line class="st0" x1="105.3" y1="110.6" x2="106.1" y2="110.6"/>
	</g>
	<g id="LWPOLYLINE_46568_">
		<line class="st0" x1="87.8" y1="143.4" x2="87.8" y2="143"/>
	</g>
	<g id="LWPOLYLINE_46569_">
		<line class="st0" x1="119.3" y1="110.7" x2="120.1" y2="110.7"/>
	</g>
	<g id="LWPOLYLINE_46570_">
		<line class="st1" x1="103.3" y1="172.3" x2="141.3" y2="172.3"/>
	</g>
	<g id="LWPOLYLINE_46571_">
		<line class="st1" x1="110.2" y1="33.8" x2="134.4" y2="33.8"/>
	</g>
	<g id="LWPOLYLINE_46572_">
		<line class="st1" x1="97.8" y1="171.4" x2="77.2" y2="164.5"/>
	</g>
	<g id="LWPOLYLINE_46573_">
		<line class="st0" x1="129.3" y1="142.1" x2="124.8" y2="142.1"/>
	</g>
	<g id="LWPOLYLINE_46574_">
		<line class="st0" x1="116.6" y1="142.1" x2="115.3" y2="142.1"/>
	</g>
	<line class="st0" x1="74.2" y1="158.5" x2="74.2" y2="127.2"/>
	<line class="st1" x1="74.2" y1="160.4" x2="74.2" y2="158.5"/>
	<g id="LWPOLYLINE_46576_">
		<line class="st0" x1="139.1" y1="79" x2="105.7" y2="79"/>
	</g>
	<g id="LWPOLYLINE_46577_">
		<line class="st1" x1="167.4" y1="164.5" x2="146.9" y2="171.4"/>
	</g>
	<g id="LWPOLYLINE_46578_">
		<line class="st1" x1="170.4" y1="158.5" x2="170.4" y2="160.4"/>
		<line class="st1" x1="170.4" y1="127.2" x2="170.4" y2="158.5"/>
	</g>
	<g id="ARC_1927_">
		<path class="st0" d="M151.2,109.5c0,1.8,1.5,3.3,3.3,3.3s3.3-1.5,3.3-3.3"/>
	</g>
	<g id="CIRCLE_648_">
		<path class="st0" d="M145.5,101.9c0-3.1,2.5-5.7,5.7-5.7c3.1,0,5.7,2.5,5.7,5.7s-2.5,5.7-5.7,5.7C148,107.6,145.5,105,145.5,101.9
			L145.5,101.9z"/>
	</g>
	<g id="ARC_1928_">
		<path class="st0" d="M144.6,109.5c0,1.8,1.5,3.3,3.3,3.3c1.8,0,3.3-1.5,3.3-3.3"/>
	</g>
	<g id="ARC_1929_">
		<path class="st0" d="M167.5,164.5c1.8-0.6,3-2.3,2.9-4.2"/>
	</g>
	<g id="ARC_1930_">
		<path class="st0" d="M74.2,160.4c0,1.9,1.2,3.6,3,4.2"/>
	</g>
	<g id="ARC_1931_">
		<path class="st0" d="M156.4,89.2c1,0,1.7-0.8,1.7-1.7"/>
	</g>
	<g id="ARC_1932_">
		<path class="st0" d="M131.9,135.7c0,1.8,1.5,3.3,3.3,3.3c1.8,0,3.3-1.5,3.3-3.3"/>
	</g>
	<g id="CIRCLE_649_">
		<path class="st0" d="M126.3,128.1c0-3.1,2.5-5.7,5.7-5.7c3.1,0,5.7,2.5,5.7,5.7c0,3.1-2.5,5.7-5.7,5.7
			C128.8,133.8,126.3,131.2,126.3,128.1L126.3,128.1z"/>
	</g>
	<g id="ARC_1933_">
		<path class="st0" d="M151.2,135.7c0,1.8,1.5,3.3,3.3,3.3s3.3-1.5,3.3-3.3"/>
	</g>
	<g id="CIRCLE_650_">
		<path class="st0" d="M145.5,128.1c0-3.1,2.5-5.7,5.7-5.7c3.1,0,5.7,2.5,5.7,5.7c0,3.1-2.5,5.7-5.7,5.7
			C148,133.8,145.5,131.2,145.5,128.1L145.5,128.1z"/>
	</g>
	<g id="ARC_1934_">
		<path class="st0" d="M112.7,109.5c0,1.8,1.5,3.3,3.3,3.3c1.8,0,3.3-1.5,3.3-3.3"/>
	</g>
	<g id="CIRCLE_651_">
		<path class="st0" d="M107,128.1c0-3.1,2.5-5.7,5.7-5.7s5.7,2.5,5.7,5.7c0,3.1-2.5,5.7-5.7,5.7S107,131.2,107,128.1L107,128.1z"/>
	</g>
	<g id="ARC_1935_">
		<path class="st0" d="M125.4,135.7c0,1.8,1.5,3.3,3.3,3.3s3.3-1.5,3.3-3.3"/>
	</g>
	<g id="ARC_1936_">
		<path class="st0" d="M106.1,109.5c0,1.8,1.5,3.3,3.3,3.3c1.8,0,3.3-1.5,3.3-3.3"/>
	</g>
	<g id="ARC_1937_">
		<path class="st0" d="M106.1,135.7c0,1.8,1.5,3.3,3.3,3.3c1.8,0,3.3-1.5,3.3-3.3"/>
	</g>
	<g id="ARC_1938_">
		<path class="st0" d="M144.6,135.7c0,1.8,1.5,3.3,3.3,3.3c1.8,0,3.3-1.5,3.3-3.3"/>
	</g>
	<g id="CIRCLE_652_">
		<path class="st0" d="M107,101.9c0-3.1,2.5-5.7,5.7-5.7s5.7,2.5,5.7,5.7s-2.5,5.7-5.7,5.7S107,105,107,101.9L107,101.9z"/>
	</g>
	<g id="ARC_1939_">
		<path class="st0" d="M112.7,135.7c0,1.8,1.5,3.3,3.3,3.3c1.8,0,3.3-1.5,3.3-3.3"/>
	</g>
	<g id="CIRCLE_653_">
		<path class="st0" d="M87.8,101.9c0-3.1,2.5-5.7,5.7-5.7s5.7,2.5,5.7,5.7s-2.5,5.7-5.7,5.7S87.8,105,87.8,101.9L87.8,101.9z"/>
	</g>
	<g id="ARC_1940_">
		<path class="st0" d="M86.9,135.7c0,1.8,1.5,3.3,3.3,3.3c1.8,0,3.3-1.5,3.3-3.3"/>
	</g>
	<g id="ARC_1941_">
		<path class="st0" d="M93.5,109.5c0,1.8,1.5,3.3,3.3,3.3c1.8,0,3.3-1.5,3.3-3.3"/>
	</g>
	<g id="ARC_1942_">
		<path class="st0" d="M86.9,109.5c0,1.8,1.5,3.3,3.3,3.3c1.8,0,3.3-1.5,3.3-3.3"/>
	</g>
	<g id="CIRCLE_654_">
		<path class="st0" d="M87.8,128.1c0-3.1,2.5-5.7,5.7-5.7s5.7,2.5,5.7,5.7c0,3.1-2.5,5.7-5.7,5.7S87.8,131.2,87.8,128.1L87.8,128.1z
			"/>
	</g>
	<g id="ARC_1943_">
		<path class="st0" d="M93.5,135.7c0,1.8,1.5,3.3,3.3,3.3c1.8,0,3.3-1.5,3.3-3.3"/>
	</g>
	<g id="ARC_1944_">
		<path class="st1" d="M94.2,38.6c-0.7,0.3-1.1,0.9-1.1,1.6"/>
	</g>
	<g id="CIRCLE_655_">
		<path class="st0" d="M126.3,101.9c0-3.1,2.5-5.7,5.7-5.7c3.1,0,5.7,2.5,5.7,5.7s-2.5,5.7-5.7,5.7
			C128.8,107.6,126.3,105,126.3,101.9L126.3,101.9z"/>
	</g>
	<g id="ARC_1945_">
		<path class="st0" d="M131.9,109.5c0,1.8,1.5,3.3,3.3,3.3c1.8,0,3.3-1.5,3.3-3.3"/>
	</g>
	<g id="ARC_1946_">
		<path class="st0" d="M125.4,109.5c0,1.8,1.5,3.3,3.3,3.3s3.3-1.5,3.3-3.3"/>
	</g>
	<g id="ARC_1947_">
		<path class="st0" d="M86.5,87.4c0,1,0.8,1.7,1.7,1.7"/>
	</g>
	<g id="ARC_1948_">
		<path class="st0" d="M141.3,172.3c1.8,0,3.7-0.3,5.4-0.9"/>
	</g>
	<g id="ARC_1949_">
		<path class="st1" d="M76.8,33.7c-1.4,0-2.6,1.2-2.6,2.6"/>
	</g>
	<g id="ARC_1950_">
		<path class="st1" d="M170.4,36.3c0-1.4-1.2-2.6-2.6-2.6"/>
	</g>
	<g id="ARC_1951_">
		<path class="st0" d="M97.9,171.4c1.7,0.6,3.6,0.9,5.4,0.9"/>
	</g>
	<g id="ARC_1952_">
		<path class="st0" d="M104.8,87.4c0,1,0.8,1.7,1.7,1.7"/>
	</g>
	<g id="ARC_1953_">
		<path class="st0" d="M138.1,89.2c1,0,1.7-0.8,1.7-1.8"/>
	</g>
	<g id="ARC_1954_">
		<path class="st1" d="M98.2,171.5c1.8,0.5,3.6,0.8,5.4,0.8"/>
	</g>
	<g id="ARC_1955_">
		<path class="st1" d="M167.5,164.5c1.8-0.6,3-2.3,2.9-4.2"/>
	</g>
	<g id="ARC_1956_">
		<path class="st1" d="M141.6,172.3c1.8,0,3.7-0.4,5.4-1"/>
	</g>
	<g id="ARC_1957_">
		<path class="st1" d="M74.2,160.4c0,1.9,1.2,3.6,3,4.2"/>
	</g>
	<g id="LWPOLYLINE_46579_">
		<polyline class="st0" points="151.6,54.3 151.6,54.3 151.6,54.2 151.5,54.2 151.5,54.2 151.4,54.1 151.4,54.1 151.3,54.1 
			151.2,54 151,54 150.9,54 150.8,53.9 150.6,53.9 150.5,53.9 150.3,53.9 150.2,53.9 150,53.9 149.9,53.9 		"/>
	</g>
	<g id="LWPOLYLINE_46580_">
		<polyline class="st0" points="93.1,54.2 93,54.3 93,54.3 		"/>
		<polyline class="st0" points="94.8,53.9 94.6,53.9 94.4,53.9 94.3,53.9 94.1,53.9 94,53.9 93.8,54 93.7,54 93.5,54 93.4,54 
			93.3,54.1 93.2,54.1 93.2,54.2 93.1,54.2 93.1,54.2 		"/>
	</g>
	<g id="LWPOLYLINE_46581_">
		<polyline class="st1" points="151.6,40.2 151.6,40.1 151.6,39.9 151.5,39.8 151.5,39.6 151.4,39.4 151.3,39.3 151.3,39.2 
			151.1,39 151,38.9 150.9,38.8 150.8,38.7 150.6,38.7 150.5,38.6 		"/>
	</g>
	<g id="LWPOLYLINE_46582_">
		<polyline class="st0" points="140.6,34.9 139.1,34.4 137.6,34.1 136,33.8 134.4,33.8 		"/>
	</g>
	<g id="LWPOLYLINE_46583_">
		<polyline class="st1" points="110.2,33.8 108.6,33.8 107.1,34.1 105.5,34.4 104.1,34.9 		"/>
	</g>
	<g id="LWPOLYLINE_46588_">
		<polyline class="st1" points="140.6,34.9 139.1,34.4 137.6,34 136,33.8 134.4,33.8 		"/>
	</g>
	<g id="LWPOLYLINE_46594_">
		<polyline class="st0" points="156.4,83.5 156.5,83.5 156.5,83.5 156.6,83.5 156.6,83.5 156.7,83.5 156.8,83.5 156.8,83.5 
			156.9,83.5 156.9,83.5 157,83.5 157,83.5 157.1,83.5 157.1,83.5 157.2,83.5 157.2,83.5 157.3,83.5 157.3,83.5 157.4,83.5 
			157.4,83.5 157.4,83.5 157.5,83.5 157.5,83.5 157.6,83.5 157.6,83.5 157.7,83.5 157.7,83.5 157.7,83.5 157.8,83.5 157.8,83.5 
			157.8,83.5 157.9,83.5 157.9,83.5 157.9,83.5 158,83.5 158,83.5 158,83.5 158,83.5 158,83.5 158.1,83.5 158.1,83.5 158.1,83.5 
			158.1,83.5 158.1,83.5 158.1,83.5 158.2,83.5 158.2,83.5 158.2,83.5 		"/>
	</g>
	<g id="LWPOLYLINE_46595_">
		<polyline class="st0" points="86.5,83.5 86.5,83.5 86.5,83.5 86.5,83.5 86.5,83.5 86.5,83.5 86.5,83.5 86.6,83.5 86.6,83.5 
			86.6,83.5 86.6,83.5 86.6,83.5 86.7,83.5 86.7,83.5 86.7,83.5 86.7,83.5 86.8,83.5 86.8,83.5 86.8,83.5 86.9,83.5 86.9,83.5 
			86.9,83.5 87,83.5 87,83.5 87.1,83.5 87.1,83.5 87.1,83.5 87.2,83.5 87.2,83.5 87.3,83.5 87.3,83.5 87.4,83.5 87.4,83.5 
			87.5,83.5 87.5,83.5 87.6,83.5 87.6,83.5 87.7,83.5 87.7,83.5 87.8,83.5 87.8,83.5 87.9,83.5 87.9,83.5 88,83.5 88.1,83.5 
			88.1,83.5 88.2,83.5 88.2,83.5 		"/>
	</g>
	<polyline class="st1" points="158.2,55.3 158.2,40.7 165.2,33.7 167.8,33.7 	"/>
	<line class="st0" x1="158.2" y1="87.4" x2="158.2" y2="55.3"/>
	<g id="LWPOLYLINE_46598_">
		<polyline class="st0" points="151.6,59.7 153.4,59.7 153.4,82 158.2,82 		"/>
	</g>
	<line class="st1" x1="151.6" y1="55.3" x2="151.6" y2="40.2"/>
	<line class="st0" x1="151.6" y1="78.6" x2="151.6" y2="55.3"/>
	<g id="LWPOLYLINE_46600_">
		<polyline class="st0" points="151.6,78.6 151.6,83.5 156.4,83.5 		"/>
	</g>
	<g id="LWPOLYLINE_46601_">
		<line class="st0" x1="139.8" y1="87.4" x2="139.8" y2="80.5"/>
	</g>
	<g id="LWPOLYLINE_46602_">
		<polyline class="st0" points="135.4,55.3 135.4,51.3 109.2,51.3 109.2,55.3 		"/>
	</g>
	<g id="LWPOLYLINE_46603_">
		<polyline class="st0" points="149.9,53.9 137.2,53.9 137.2,49.5 107.5,49.5 107.5,53.9 94.8,53.9 		"/>
	</g>
	<g id="LWPOLYLINE_46604_">
		<polyline class="st0" points="107.5,53.9 107.5,67.3 137.2,67.3 137.2,53.9 		"/>
	</g>
	<g id="LWPOLYLINE_46605_">
		<polyline class="st0" points="155.1,113.8 154.2,113.8 154.2,112.8 		"/>
	</g>
	<line class="st1" x1="170.4" y1="73.2" x2="170.4" y2="36.3"/>
	<polyline class="st0" points="170.4,107.5 163.4,107.5 163.4,127.2 170.4,127.2 170.4,73.2 	"/>
	<polyline class="st0" points="163.4,111.8 166.5,115.8 166.5,118.5 163.5,118.5 	"/>
	<polyline class="st0" points="157.7,109.5 157.7,95.3 144.6,95.3 144.6,109.5 	"/>
	<g id="LWPOLYLINE_46609_">
		<polyline class="st0" points="143.7,114.5 144.4,117.2 155.1,117.2 155.1,113.7 158,113.7 158.6,111 158.6,97.1 158,94.4 
			144.4,94.4 143.7,97.1 143.7,114.5 		"/>
	</g>
	<g id="LWPOLYLINE_46610_">
		<polyline class="st0" points="170.4,82 172.2,82 172.2,149.7 170.4,149.7 		"/>
	</g>
	<line class="st1" x1="93" y1="54.3" x2="93" y2="40.2"/>
	<line class="st1" x1="93" y1="55.3" x2="93" y2="54.3"/>
	<polyline class="st0" points="151.6,78.1 93,78.1 93,55.3 	"/>
	<g id="LWPOLYLINE_46612_">
		<line class="st0" x1="104.8" y1="80.5" x2="104.8" y2="87.4"/>
	</g>
	<polyline class="st0" points="138.5,109.5 138.5,95.3 125.4,95.3 125.4,109.5 	"/>
	<polyline class="st1" points="170.4,73.2 180.9,73.2 180.9,158.5 170.4,158.5 	"/>
	<g id="LWPOLYLINE_46616_">
		<line class="st0" x1="154.2" y1="139.9" x2="154.2" y2="143.4"/>
	</g>
	<g id="LWPOLYLINE_46617_">
		<polyline class="st0" points="88.2,83.5 93,83.5 93,78.1 		"/>
	</g>
	<g id="LWPOLYLINE_46618_">
		<polyline class="st0" points="86.5,82 91.3,82 91.3,59.7 93,59.7 		"/>
	</g>
	<g id="LWPOLYLINE_46619_">
		<polyline class="st0" points="124.5,114.5 125.1,117.2 135.9,117.2 135.9,113.7 138.8,113.7 139.4,111 139.4,97.1 138.8,94.4 
			125.1,94.4 124.5,97.1 124.5,114.5 		"/>
	</g>
	<polyline class="st0" points="157.7,135.7 157.7,121.5 144.6,121.5 144.6,135.7 	"/>
	<g id="LWPOLYLINE_46621_">
		<polyline class="st0" points="154.2,141.2 145.5,141.2 145.5,139.9 154.2,139.9 154.2,139 		"/>
	</g>
	<line class="st0" x1="145.5" y1="143" x2="145.5" y2="141.2"/>
	<line class="st0" x1="86.5" y1="55.3" x2="86.5" y2="87.4"/>
	<polyline class="st1" points="76.8,33.7 79.5,33.7 86.5,40.7 86.5,55.3 	"/>
	<g id="LWPOLYLINE_46624_">
		<polyline class="st0" points="143.7,140.8 144.4,143.4 155.1,143.4 155.1,139.9 158,139.9 158.6,137.3 158.6,123.3 158,120.7 
			144.4,120.7 143.7,123.3 143.7,140.8 		"/>
	</g>
	<g id="LWPOLYLINE_46625_">
		<polyline class="st0" points="165.2,33.7 165.2,89.2 79.5,89.2 79.5,33.7 		"/>
	</g>
	<polyline class="st0" points="119.3,109.5 119.3,95.3 106.1,95.3 106.1,109.5 	"/>
	<g id="LWPOLYLINE_46627_">
		<polyline class="st0" points="105.3,114.5 105.9,117.2 116.6,117.2 116.6,113.7 119.5,113.7 120.1,111 120.1,97.1 119.5,94.4 
			105.9,94.4 105.3,97.1 105.3,114.5 		"/>
	</g>
	<polyline class="st0" points="138.5,135.7 138.5,121.5 125.4,121.5 125.4,135.7 	"/>
	<g id="LWPOLYLINE_46629_">
		<polyline class="st0" points="124.6,141.2 129.3,141.2 129.3,143.4 		"/>
	</g>
	<g id="LWPOLYLINE_46630_">
		<polyline class="st0" points="124.5,140.8 125.1,143.4 135.9,143.4 135.9,139.9 138.8,139.9 139.4,137.3 139.4,123.3 138.8,120.7 
			125.1,120.7 124.5,123.3 124.5,140.8 		"/>
	</g>
	<polyline class="st0" points="100,109.5 100,95.3 86.9,95.3 86.9,109.5 	"/>
	<g id="LWPOLYLINE_46632_">
		<polyline class="st0" points="115.3,143.4 115.3,141.2 116.6,141.2 		"/>
	</g>
	<g id="LWPOLYLINE_46633_">
		<polyline class="st0" points="86,114.5 86.7,117.2 97.4,117.2 97.4,113.7 100.3,113.7 100.9,111 100.9,97.1 100.3,94.4 86.7,94.4 
			86,97.1 86,114.5 		"/>
	</g>
	<polyline class="st0" points="119.3,135.7 119.3,121.5 106.1,121.5 106.1,135.7 	"/>
	<g id="LWPOLYLINE_46635_">
		<polyline class="st0" points="105.3,140.8 105.9,143.4 116.6,143.4 116.6,139.9 119.5,139.9 120.1,137.3 120.1,123.3 119.5,120.7 
			105.9,120.7 105.3,123.3 105.3,140.8 		"/>
	</g>
	<g id="LWPOLYLINE_46636_">
		<polyline class="st0" points="81.2,118.5 78.2,118.5 78.2,115.8 81.2,111.9 		"/>
	</g>
	<polyline class="st0" points="100,135.7 100,121.5 86.9,121.5 86.9,135.7 	"/>
	<line class="st1" x1="74.2" y1="73.2" x2="74.2" y2="36.3"/>
	<polyline class="st0" points="74.2,107.5 74.2,127.2 81.2,127.2 81.2,107.5 74.2,107.5 74.2,73.2 	"/>
	<g id="LWPOLYLINE_46639_">
		<polyline class="st0" points="96.5,141.2 87.8,141.2 87.8,139.9 96.5,139.9 96.5,143.4 		"/>
	</g>
	<line class="st0" x1="87.8" y1="143" x2="87.8" y2="141.2"/>
	<g id="LWPOLYLINE_46641_">
		<polyline class="st0" points="86,140.8 86.7,143.4 97.4,143.4 97.4,139.9 100.3,139.9 100.9,137.3 100.9,123.3 100.3,120.7 
			86.7,120.7 86,123.3 86,140.8 		"/>
	</g>
	<g id="LWPOLYLINE_46642_">
		<polyline class="st0" points="74.2,149.7 72.5,149.7 72.5,82 74.2,82 		"/>
	</g>
	<g id="LWPOLYLINE_46643_">
		<polyline class="st1" points="74.2,158.5 63.7,158.5 63.7,73.2 74.2,73.2 		"/>
	</g>
	<path class="st0" d="M139.8,80.5c0,0,0.1-2.4,1.5-2.4"/>
	<path class="st0" d="M139.8,80.7c0,0-0.6-2.5-1.7-2.6"/>
	<path class="st0" d="M104.8,80.7c0,0,0.8-2.5,2.3-2.5"/>
	<path class="st0" d="M104.8,80.9c0,0,0.1-2.8-2-2.7"/>
	<text transform="matrix(1 0 0 1 90.6254 104.4016)" class="st2 st3">1</text>
	<text transform="matrix(1 0 0 1 109.917 104.4016)" class="st2 st3">2</text>
	<text transform="matrix(1 0 0 1 129.1254 104.4016)" class="st2 st3">3</text>
	<text transform="matrix(1 0 0 1 148.3337 104.4016)" class="st2 st3">4</text>
	<text transform="matrix(1 0 0 1 90.6254 130.485)" class="st2 st3">5</text>
	<text transform="matrix(1 0 0 1 109.917 130.485)" class="st2 st3">6</text>
	<text transform="matrix(1 0 0 1 129.1254 130.485)" class="st2 st3">7</text>
	<text transform="matrix(1 0 0 1 148.3337 130.485)" class="st2 st3">8</text>
</g>
<g id="S1">
	<rect x="5.7" y="5.7" class="st4" width="229.6" height="36.9"/>
	<g>
		<path class="st5" d="M0,0v205.9h240.9V0H0z M5.7,5.7h229.6v194.6H41.1v-7.1H5.7V5.7z"/>
		<rect x="4.8" y="191.7" class="st5" width="70.9" height="8.5"/>
		<rect class="st6" width="240.9" height="205.9"/>
	</g>
	<polyline class="st4" points="5.7,42.5 5.7,5.7 235.3,5.7 235.3,42.5 	"/>
</g>
</svg>
