<?xml version="1.0" encoding="utf-8"?>
<!-- Generator: Adobe Illustrator 21.0.2, SVG Export Plug-In . SVG Version: 6.00 Build 0)  -->
<svg version="1.1" xmlns="http://www.w3.org/2000/svg" xmlns:xlink="http://www.w3.org/1999/xlink" x="0px" y="0px"
	 viewBox="0 0 330 345.9" style="enable-background:new 0 0 330 345.9;" xml:space="preserve">
<style type="text/css">
	.st0{fill:none;stroke:#000000;stroke-width:0.5;stroke-linecap:round;stroke-linejoin:round;stroke-miterlimit:10;}
	.st1{fill:none;stroke:#000000;stroke-linecap:round;stroke-linejoin:round;stroke-miterlimit:10;}
	.st2{font-family:'FZLTHJW--GB1-0';}
	.st3{font-size:7px;}
	.st4{fill:none;}
	.st5{fill:#FFFFFF;}
	.st6{fill:none;stroke:#FFFFFF;stroke-width:1.1339;}
</style>
<g id="图层_2">
	<line class="st0" x1="274.9" y1="144.8" x2="285.5" y2="144.8"/>
	<line class="st0" x1="274.9" y1="136" x2="274.9" y2="144.8"/>
	<polyline class="st0" points="150.2,137.9 150.2,126.2 168,126.2 168,137.9 	"/>
	<polyline class="st0" points="127.7,137.9 127.7,129.1 114.3,129.1 114.3,137.9 202.1,137.9 	"/>
	<polyline class="st0" points="62.1,164.4 62.1,173.2 70.9,173.2 70.9,164.4 62.1,164.4 	"/>
	<polyline class="st0" points="30.9,144.8 30.9,144.8 41.2,144.8 	"/>
	<polyline class="st0" points="188.6,137.9 188.6,129.1 202.1,129.1 202.1,137.9 	"/>
	<polyline class="st0" points="41.7,164.4 41.7,173.2 50.5,173.2 50.5,164.4 41.7,164.4 	"/>
	<polygon class="st1" points="202.1,137.9 215.2,137.9 215.2,124.7 101.1,124.7 101.1,137.9 114.3,137.9 114.3,153.6 91.3,153.6 
		91.3,137.9 80.7,137.9 80.7,153.6 41.2,153.6 41.2,136 30.9,136 30.9,144.8 30.9,144.8 30.9,223.8 285.5,223.8 285.5,144.8 
		285.5,136 274.9,136 274.9,144.8 274.9,153.6 235.4,153.6 235.4,137.9 224.8,137.9 224.8,153.6 202.1,153.6 	"/>
	<g>
		<text transform="matrix(1 0 0 1 43.9138 171.746)" class="st2 st3">1</text>
	</g>
	<g>
		<text transform="matrix(1 0 0 1 64.3083 171.746)" class="st2 st3">2</text>
	</g>
	<polyline class="st0" points="245.7,164.4 245.7,173.2 254.5,173.2 254.5,164.4 245.7,164.4 	"/>
	<g>
		<text transform="matrix(1 0 0 1 246.0808 171.746)" class="st2 st3">11</text>
	</g>
	<polyline class="st0" points="225.3,164.4 225.3,173.2 234.1,173.2 234.1,164.4 225.3,164.4 	"/>
	<g>
		<text transform="matrix(1 0 0 1 224.8728 171.746)" class="st2 st3">10</text>
	</g>
	<g>
		<polyline class="st0" points="204.9,164.4 204.9,173.2 213.7,173.2 213.7,164.4 204.9,164.4 		"/>
		<g>
			<text transform="matrix(1 0 0 1 207.072 171.746)" class="st2 st3">9</text>
		</g>
	</g>
	<g>
		<polyline class="st0" points="184.5,164.4 184.5,173.2 193.3,173.2 193.3,164.4 184.5,164.4 		"/>
		<g>
			<text transform="matrix(1 0 0 1 186.6775 171.746)" class="st2 st3">8</text>
		</g>
	</g>
	<g>
		<polyline class="st0" points="164.1,164.4 164.1,173.2 172.9,173.2 172.9,164.4 164.1,164.4 		"/>
		<g>
			<text transform="matrix(1 0 0 1 166.2829 171.746)" class="st2 st3">7</text>
		</g>
	</g>
	<g>
		<polyline class="st0" points="143.7,164.4 143.7,173.2 152.5,173.2 152.5,164.4 143.7,164.4 		"/>
		<g>
			<text transform="matrix(1 0 0 1 145.8874 171.746)" class="st2 st3">6</text>
		</g>
	</g>
	<g>
		<polyline class="st0" points="123.3,164.4 123.3,173.2 132.1,173.2 132.1,164.4 123.3,164.4 		"/>
		<g>
			<text transform="matrix(1 0 0 1 125.4929 171.746)" class="st2 st3">5</text>
		</g>
	</g>
	<g>
		<polyline class="st0" points="102.9,164.4 102.9,173.2 111.7,173.2 111.7,164.4 102.9,164.4 		"/>
		<g>
			<text transform="matrix(1 0 0 1 105.0984 171.746)" class="st2 st3">4</text>
		</g>
	</g>
	<g>
		<polyline class="st0" points="82.5,164.4 82.5,173.2 91.3,173.2 91.3,164.4 82.5,164.4 		"/>
		<g>
			<text transform="matrix(1 0 0 1 84.7028 171.746)" class="st2 st3">3</text>
		</g>
	</g>
	<polyline class="st0" points="266.1,164.4 266.1,173.2 274.9,173.2 274.9,164.4 266.1,164.4 	"/>
	<g>
		<text transform="matrix(1 0 0 1 265.6628 171.746)" class="st2 st3">12</text>
	</g>
	<polyline class="st0" points="62.1,193.1 62.1,201.9 70.9,201.9 70.9,193.1 62.1,193.1 	"/>
	<polyline class="st0" points="41.7,193.1 41.7,201.9 50.5,201.9 50.5,193.1 41.7,193.1 	"/>
	<g>
		<text transform="matrix(1 0 0 1 41.57 200.402)" class="st2 st3">13</text>
	</g>
	<g>
		<text transform="matrix(1 0 0 1 61.9646 200.402)" class="st2 st3">14</text>
	</g>
	<polyline class="st0" points="243.4,193.1 243.4,201.9 252.1,201.9 252.1,193.1 243.4,193.1 	"/>
	<g>
		<text transform="matrix(1 0 0 1 243.3542 200.402)" class="st2 st3">23</text>
	</g>
	<polyline class="st0" points="223,193.1 223,201.9 231.7,201.9 231.7,193.1 223,193.1 	"/>
	<g>
		<text transform="matrix(1 0 0 1 222.9597 200.402)" class="st2 st3">22</text>
	</g>
	<polyline class="st0" points="202.6,193.1 202.6,201.9 211.3,201.9 211.3,193.1 202.6,193.1 	"/>
	<g>
		<text transform="matrix(1 0 0 1 202.5652 200.402)" class="st2 st3">21</text>
	</g>
	<polyline class="st0" points="182.2,193.1 182.2,201.9 190.9,201.9 190.9,193.1 182.2,193.1 	"/>
	<g>
		<text transform="matrix(1 0 0 1 182.1696 200.402)" class="st2 st3">20</text>
	</g>
	<polyline class="st0" points="161.8,193.1 161.8,201.9 170.6,201.9 170.6,193.1 161.8,193.1 	"/>
	<g>
		<text transform="matrix(1 0 0 1 161.7751 200.402)" class="st2 st3">19</text>
	</g>
	<polyline class="st0" points="141.4,193.1 141.4,201.9 150.2,201.9 150.2,193.1 141.4,193.1 	"/>
	<g>
		<text transform="matrix(1 0 0 1 141.3806 200.402)" class="st2 st3">18</text>
	</g>
	<polyline class="st0" points="121,193.1 121,201.9 129.8,201.9 129.8,193.1 121,193.1 	"/>
	<g>
		<text transform="matrix(1 0 0 1 120.986 200.402)" class="st2 st3">17</text>
	</g>
	<polyline class="st0" points="100.6,193.1 100.6,201.9 109.4,201.9 109.4,193.1 100.6,193.1 	"/>
	<g>
		<text transform="matrix(1 0 0 1 100.5905 200.402)" class="st2 st3">16</text>
	</g>
	<polyline class="st0" points="80.2,193.1 80.2,201.9 89,201.9 89,193.1 80.2,193.1 	"/>
	<g>
		<text transform="matrix(1 0 0 1 80.196 200.402)" class="st2 st3">15</text>
	</g>
	<g>
		<polyline class="st0" points="266.1,193.1 266.1,201.9 274.9,201.9 274.9,193.1 266.1,193.1 		"/>
		<g>
			<text transform="matrix(1 0 0 1 265.9128 200.402)" class="st2 st3">24</text>
		</g>
	</g>
</g>
<g id="S1">
	<rect x="6.8" y="5.7" class="st4" width="316.6" height="36.9"/>
	<g>
		<path class="st5" d="M1.2,0v345.9h327.9V0H1.2z M6.8,5.7h316.6v334.6H42.3v-7.1H6.8V5.7z"/>
		<rect x="6" y="331.7" class="st5" width="70.9" height="8.5"/>
		<rect x="1.2" class="st6" width="327.9" height="345.9"/>
	</g>
	<polyline class="st4" points="6.8,42.5 6.8,5.7 286.4,5.7 286.4,42.5 	"/>
</g>
</svg>
