<?xml version="1.0" encoding="utf-8"?>
<!-- Generator: Adobe Illustrator 21.0.2, SVG Export Plug-In . SVG Version: 6.00 Build 0)  -->
<svg version="1.1" xmlns="http://www.w3.org/2000/svg" xmlns:xlink="http://www.w3.org/1999/xlink" x="0px" y="0px"
	 viewBox="0 0 240.9 331.7" style="enable-background:new 0 0 240.9 331.7;" xml:space="preserve">
<style type="text/css">
	.st0{fill:none;stroke:#000000;stroke-linecap:round;stroke-linejoin:round;stroke-miterlimit:10;}
	.st1{fill:none;stroke:#000000;stroke-width:2;stroke-linecap:round;stroke-linejoin:round;stroke-miterlimit:10;}
	.st2{font-family:'ArialMT';}
	.st3{font-size:8px;}
	.st4{fill:#FFFFFF;}
	.st5{fill:none;stroke:#FFFFFF;stroke-width:1.1339;}
	.st6{fill:none;}
</style>
<g id="图层_3">
	<g>
		<line class="st0" x1="191.8" y1="204.3" x2="191.8" y2="173"/>
		<path class="st0" d="M191.8,230.4"/>
		<line class="st0" x1="196.1" y1="212.5" x2="196.1" y2="241.2"/>
		<path class="st0" d="M163.4,254.7"/>
		<line class="st0" x1="191.8" y1="200" x2="198.8" y2="200"/>
		<line class="st0" x1="198.8" y1="173" x2="191.8" y2="173"/>
		<path class="st0" d="M192.3,109.6h17.6c0,0,4.4,0.3,4.8-5.3"/>
		<path class="st0" d="M51.5,84.8"/>
		<path class="st0" d="M199,209.1h11.3c0,0,4.6-0.2,4.6-4.1"/>
		<line class="st0" x1="153.2" y1="115.6" x2="145" y2="115.6"/>
		<polyline class="st0" points="191.8,173 191.8,172.7 191.8,172.3 191.8,171.8 191.8,171.5 191.8,171.1 191.8,170.6 191.8,170.3 
			191.8,170.1 191.8,169.9 191.8,169.4 191.8,169.1 191.8,168.9 191.8,168.7 		"/>
		<path class="st0" d="M199,109.6v45.1h11.3c0,0,4-0.1,4.6,5.8"/>
		<line class="st0" x1="145" y1="109.6" x2="145" y2="122.4"/>
		<line class="st0" x1="199" y1="168.7" x2="192" y2="168.7"/>
		<path class="st0" d="M198.5,142.9"/>
		<path class="st0" d="M216.4,175.9"/>
		<path class="st1" d="M214.9,197.3h1.4c2.7,0.2,2.9-2.7,2.9-2.7v-16.1c0,0,0-2.7-2.9-2.7h-1.4"/>
		<line class="st0" x1="198.8" y1="204.6" x2="191.8" y2="204.6"/>
		<line class="st0" x1="196.1" y1="212.5" x2="199" y2="207.1"/>
		<line class="st0" x1="196.4" y1="218.1" x2="199" y2="218.1"/>
		<line class="st0" x1="199" y1="225.3" x2="196.4" y2="225.3"/>
		<line class="st0" x1="199" y1="225.3" x2="199" y2="154.7"/>
		<path class="st1" d="M214.9,257.6h7.7v5.5c0,0,0,4.3-4.6,4.3h-19v-42.2"/>
		<path class="st0" d="M214.9,257.6v5.5c0,0,0.1,4.3-5.3,4.3"/>
		<line class="st1" x1="214.9" y1="197.3" x2="214.9" y2="257.6"/>
		<line class="st0" x1="214.9" y1="175.9" x2="214.9" y2="197.3"/>
		<path class="st1" d="M121.7,84.8h68.4c26.3-0.8,24.8,24.4,24.8,24.4v66.7"/>
		<line class="st0" x1="51.5" y1="84.8" x2="121.7" y2="84.8"/>
		<path class="st0" d="M65,223.1v-73c-0.1-11.6,11.3-11.3,11.3-11.3h88.9c11.3,0,11.3,11.3,11.3,11.3v73c0,0,0.6,11.1-11.3,11.1
			H76.3C76.3,234.2,65.2,234.9,65,223.1z"/>
		<path class="st0" d="M192.3,105c0,0,14.6,0,17.6,0c3.5,0,4.6-1.4,4.6-1.4"/>
		<path class="st0" d="M214.9,159"/>
		<path class="st0" d="M145,118.3l26.8-0.2c24.1-0.2,24.3,24.8,24.3,24.8v25.8"/>
		<path class="st0" d="M214.9,196.1"/>
		<path class="st0" d="M51.5,84.8"/>
		<path class="st0" d="M169.1,264.8"/>
		<rect x="159.7" y="144.2" class="st0" width="12.3" height="12.1"/>
		<rect x="159.7" y="162.5" class="st0" width="12.3" height="12.1"/>
		<rect x="159.7" y="180.6" class="st0" width="12.3" height="12.1"/>
		<rect x="159.7" y="198.6" class="st0" width="12.3" height="12.1"/>
		<rect x="159.7" y="216.7" class="st0" width="12.3" height="12.1"/>
		<rect x="141.6" y="144.2" class="st0" width="12.3" height="12.1"/>
		<rect x="141.6" y="162.5" class="st0" width="12.3" height="12.1"/>
		<rect x="141.6" y="180.6" class="st0" width="12.3" height="12.1"/>
		<rect x="141.6" y="198.6" class="st0" width="12.3" height="12.1"/>
		<rect x="141.6" y="216.7" class="st0" width="12.3" height="12.1"/>
		<rect x="123.7" y="144.2" class="st0" width="12.3" height="12.1"/>
		<rect x="123.7" y="162.5" class="st0" width="12.3" height="12.1"/>
		<rect x="123.7" y="180.6" class="st0" width="12.3" height="12.1"/>
		<rect x="123.7" y="198.6" class="st0" width="12.3" height="12.1"/>
		<rect x="123.7" y="216.7" class="st0" width="12.3" height="12.1"/>
		<rect x="105.6" y="144.2" class="st0" width="12.3" height="12.1"/>
		<rect x="105.6" y="162.5" class="st0" width="12.3" height="12.1"/>
		<rect x="105.6" y="180.6" class="st0" width="12.3" height="12.1"/>
		<rect x="105.6" y="198.6" class="st0" width="12.3" height="12.1"/>
		<rect x="105.6" y="216.7" class="st0" width="12.3" height="12.1"/>
		<rect x="87.5" y="144.2" class="st0" width="12.3" height="12.1"/>
		<rect x="87.5" y="162.5" class="st0" width="12.3" height="12.1"/>
		<rect x="87.5" y="180.6" class="st0" width="12.3" height="12.1"/>
		<rect x="87.5" y="198.6" class="st0" width="12.3" height="12.1"/>
		<rect x="87.5" y="216.7" class="st0" width="12.3" height="12.1"/>
		<rect x="69.6" y="144.2" class="st0" width="12.3" height="12.1"/>
		<rect x="69.6" y="162.5" class="st0" width="12.3" height="12.1"/>
		<rect x="69.6" y="180.6" class="st0" width="12.3" height="12.1"/>
		<rect x="69.6" y="198.6" class="st0" width="12.3" height="12.1"/>
		<rect x="69.6" y="216.7" class="st0" width="12.3" height="12.1"/>
		<path class="st0" d="M76.3,238.8c0,0-16.2,0-15.9-15.7v-73c-0.5-15.8,15.9-15.7,15.9-15.7h88.9c15.1,0,15.9,15.7,15.9,15.7v73
			c0,0,0.7,15.1-15.9,15.7H76.3"/>
		<path class="st0" d="M76.3,241c0,0-18.7,0.2-18.1-17.8v-73C58,130.6,76.3,132,76.3,132h88.9c18.1,0.5,18.1,18.1,18.1,18.1v73
			c0,0,0.2,17.8-18.1,17.8H76.3"/>
		<line class="st0" x1="49.9" y1="204.3" x2="49.9" y2="173"/>
		<path class="st0" d="M49.9,168.7v-25.8c0,0-0.1-19.3,20-20.2h101.9c20.1,1,20,20.2,20,20.2v25.8"/>
		<path class="st0" d="M49.9,230.4"/>
		<line class="st0" x1="45.5" y1="212.5" x2="45.5" y2="241.2"/>
		<path class="st0" d="M49.9,204.3v26c0,5.8,1.9,10,4.4,12.9c1.2,1.6,0.4,2.7,0.4,2.7s-2.7,4-3.9,6.3c-1.1,2.1,0,3.6,0,3.6
			s0.5,1,3.4,2.4c3.3,1.7,4.7-1,4.7-1s2.7-5,3.5-6.5c0.8-1.5,2.4-1,2.4-1c2.1,0.6,3.6,0.8,3.6,0.8l11.3,0.2h82.2
			c1.2,0.1,1.1,1,1.1,1v2.9c0,3.4,3.4,3.4,3.4,3.4h2.5c0,0,3.4,0,3.4-3.4v-2.9c0.1-1.3,1-1.2,1-1.2s18.6-1.9,18.6-20.2v-26"/>
		<line class="st0" x1="49.9" y1="200" x2="42.8" y2="200"/>
		<line class="st0" x1="42.9" y1="173" x2="49.9" y2="173"/>
		<path class="st1" d="M43.1,225.3v5.1c0,0-0.5,7.2,4.3,14.5l-2.1,3.8c0,0-1.3,1.7-0.6,5.7c0.7,4.1,4.4,6.4,4.4,6.4l2.7,1.7
			c1.8,1,3.1,1,3.1,1c6.7,0.9,9.9-3.9,9.9-3.9l1.4-2.4l0.7,0.1c4.1,0.6,18.1,0.4,18.1,0.4h71.6c2.1,7.2,9.6,7,9.6,7h2.9
			c8-0.2,9.9-8.4,9.9-8.4c20.3-6.4,19.5-25.8,19.5-25.8v-5.1"/>
		<path class="st0" d="M49.4,109.6H31.8c0,0-4.4,0.3-4.8-5.3"/>
		<line class="st1" x1="188.3" y1="84.8" x2="49.7" y2="84.8"/>
		<path class="st0" d="M42.6,209.1H31.3c0,0-4.6-0.2-4.6-4.1"/>
		<polyline class="st0" points="49.9,173 49.9,172.7 49.9,172.3 49.9,171.8 49.9,171.5 49.9,171.1 49.9,170.6 49.9,170.3 
			49.9,170.1 49.9,169.9 49.9,169.4 49.9,169.1 49.9,168.9 49.9,168.7 		"/>
		<path class="st0" d="M42.6,109.6v45.1H31.3c0,0-4-0.1-4.6,5.8"/>
		<path class="st0" d="M49.4,105v10.6h39v-3.9c0,0,0-2.2,2.2-2.2h13.5v6.7h33.5v-6.7h13.5c2.2,0,2.2,2.2,2.2,2.2v3.9h39V105"/>
		<line class="st0" x1="96.6" y1="115.6" x2="88.4" y2="115.6"/>
		<line class="st0" x1="96.6" y1="109.6" x2="96.6" y2="122.4"/>
		<line class="st0" x1="42.6" y1="168.7" x2="49.6" y2="168.7"/>
		<path class="st0" d="M43.1,142.9"/>
		<path class="st0" d="M25.3,175.9"/>
		<path class="st1" d="M26.7,197.3h-1.4c-2.7,0.2-2.9-2.7-2.9-2.7v-16.1c0,0,0-2.7,2.9-2.7h1.4"/>
		<line class="st0" x1="42.8" y1="204.6" x2="49.9" y2="204.6"/>
		<line class="st0" x1="45.5" y1="212.5" x2="42.6" y2="207.1"/>
		<line class="st0" x1="45.3" y1="218.1" x2="42.6" y2="218.1"/>
		<line class="st0" x1="42.6" y1="225.3" x2="45.3" y2="225.3"/>
		<line class="st0" x1="42.6" y1="224.6" x2="42.6" y2="154.7"/>
		<path class="st1" d="M26.7,257.6H19v5.5c0,0,0,4.3,4.6,4.3h19v-42.8"/>
		<path class="st0" d="M26.7,257.6v5.5c0,0-0.1,4.3,5.3,4.3"/>
		<line class="st1" x1="26.7" y1="197.3" x2="26.7" y2="257.6"/>
		<line class="st0" x1="26.7" y1="175.9" x2="26.7" y2="197.3"/>
		<path class="st1" d="M51.5,84.8c-26.3-0.8-24.8,24.4-24.8,24.4v66.7"/>
		<path class="st0" d="M49.4,105c0,0-14.6,0-17.6,0c-3.5,0-4.6-1.4-4.6-1.4"/>
		<path class="st0" d="M26.7,159"/>
		<path class="st0" d="M96.6,117.8L69.9,118c-24.1-0.2-24.3,24.8-24.3,24.8v25.8"/>
		<path class="st0" d="M26.7,196.1"/>
		<text transform="matrix(1 0 0 1 73.5118 153.2213)" class="st2 st3">1</text>
		<text transform="matrix(1 0 0 1 91.0948 153.2213)" class="st2 st3">2</text>
		<text transform="matrix(1 0 0 1 109.0948 153.2213)" class="st2 st3">3</text>
		<text transform="matrix(1 0 0 1 127.2032 153.2213)" class="st2 st3">4</text>
		<text transform="matrix(1 0 0 1 144.5586 153.2213)" class="st2 st3">5</text>
		<text transform="matrix(1 0 0 1 163.2022 153.2213)" class="st2 st3">6</text>
		<text transform="matrix(1 0 0 1 73.5118 171.9346)" class="st2 st3">7</text>
		<text transform="matrix(1 0 0 1 91.4161 171.9346)" class="st2 st3">8</text>
		<text transform="matrix(1 0 0 1 109.5479 171.9346)" class="st2 st3">9</text>
		<text transform="matrix(1 0 0 1 124.9776 171.9346)" class="st2 st3">10</text>
		<text transform="matrix(1 0 0 1 143.3028 171.9346)" class="st2 st3">11</text>
		<text transform="matrix(1 0 0 1 160.9776 171.9346)" class="st2 st3">12</text>
		<text transform="matrix(1 0 0 1 71.2871 189.6221)" class="st2 st3">13</text>
		<text transform="matrix(1 0 0 1 89.1914 189.6221)" class="st2 st3">14</text>
		<text transform="matrix(1 0 0 1 107.3233 189.6221)" class="st2 st3">15</text>
		<text transform="matrix(1 0 0 1 124.9776 189.6221)" class="st2 st3">16</text>
		<text transform="matrix(1 0 0 1 143.3028 189.6221)" class="st2 st3">17</text>
		<text transform="matrix(1 0 0 1 160.9776 189.6221)" class="st2 st3">18</text>
		<text transform="matrix(1 0 0 1 71.2871 207.4571)" class="st2 st3">19</text>
		<text transform="matrix(1 0 0 1 89.1914 207.4571)" class="st2 st3">20</text>
		<text transform="matrix(1 0 0 1 107.3233 207.4571)" class="st2 st3">21</text>
		<text transform="matrix(1 0 0 1 124.9776 207.4571)" class="st2 st3">22</text>
		<text transform="matrix(1 0 0 1 143.3028 207.4571)" class="st2 st3">23</text>
		<text transform="matrix(1 0 0 1 160.9776 207.4571)" class="st2 st3">24</text>
		<text transform="matrix(1 0 0 1 71.2871 225.8399)" class="st2 st3">25</text>
		<text transform="matrix(1 0 0 1 89.1914 225.8399)" class="st2 st3">26</text>
		<text transform="matrix(1 0 0 1 107.3233 225.8399)" class="st2 st3">27</text>
		<text transform="matrix(1 0 0 1 124.9776 225.8399)" class="st2 st3">28</text>
		<text transform="matrix(1 0 0 1 143.3028 225.8399)" class="st2 st3">29</text>
		<text transform="matrix(1 0 0 1 160.9776 225.8399)" class="st2 st3">30</text>
	</g>
</g>
<g id="S1">
	<g>
		<g>
			<path class="st4" d="M1,0.7v331.7h240.9V0.7H1z M6.7,6.3h229.6v320.3H42.1v-7.1H6.7V6.3z"/>
			<rect x="5.8" y="318.1" class="st4" width="70.9" height="8.5"/>
			<rect x="1" y="0.7" class="st5" width="240.9" height="331.7"/>
		</g>
		<rect x="6.7" y="6.3" class="st6" width="229.6" height="36.9"/>
	</g>
</g>
</svg>
