<?xml version="1.0" encoding="utf-8"?>
<!-- Generator: Adobe Illustrator 21.0.2, SVG Export Plug-In . SVG Version: 6.00 Build 0)  -->
<svg version="1.1" xmlns="http://www.w3.org/2000/svg" xmlns:xlink="http://www.w3.org/1999/xlink" x="0px" y="0px"
	 viewBox="0 0 240.9 331.7" style="enable-background:new 0 0 240.9 331.7;" xml:space="preserve">
<style type="text/css">
	.st0{font-family:'ArialMT';}
	.st1{font-size:8px;}
	.st2{fill:none;stroke:#000000;stroke-linecap:round;stroke-linejoin:round;stroke-miterlimit:10;}
	.st3{fill:none;stroke:#000000;stroke-width:2;stroke-linecap:round;stroke-linejoin:round;stroke-miterlimit:10;}
	.st4{fill:#FFFFFF;}
	.st5{fill:none;stroke:#FFFFFF;stroke-width:1.1339;}
	.st6{fill:none;}
</style>
<g id="图层_2">
	<g>
		<g id="TEXT_111_">
			<g>
				<g>
					<text transform="matrix(1 0 0 1 75.2315 151.9549)" class="st0 st1">1</text>
				</g>
			</g>
		</g>
		<g id="TEXT_106_">
			<g>
				<g>
					<text transform="matrix(1 0 0 1 101.7998 148.2161)" class="st0 st1">4</text>
				</g>
			</g>
		</g>
		<g id="TEXT_114_">
			<g>
				<g>
					<text transform="matrix(1 0 0 1 123.6377 148.2161)" class="st0 st1">5</text>
				</g>
			</g>
		</g>
		<g id="TEXT_117_">
			<g>
				<g>
					<text transform="matrix(1 0 0 1 145.4776 148.2161)" class="st0 st1">6</text>
				</g>
			</g>
		</g>
		<g id="TEXT_120_">
			<g>
				<g>
					<text transform="matrix(1 0 0 1 167.8995 148.2161)" class="st0 st1">7</text>
				</g>
			</g>
		</g>
		<g id="TEXT_135_">
			<g>
				<g>
					<text transform="matrix(1 0 0 1 101.7998 170.5794)" class="st0 st1">8</text>
				</g>
			</g>
		</g>
		<g id="TEXT_133_">
			<g>
				<g>
					<text transform="matrix(1 0 0 1 123.6377 170.5794)" class="st0 st1">9</text>
				</g>
			</g>
		</g>
		<g id="TEXT_130_">
			<g>
				<g>
					<text transform="matrix(1 0 0 1 143.253 170.5794)" class="st0 st1">10</text>
				</g>
			</g>
		</g>
		<g id="TEXT_125_">
			<g>
				<g>
					<text transform="matrix(1 0 0 1 165.6749 170.5794)" class="st0 st1">11</text>
				</g>
			</g>
		</g>
		<g id="TEXT_143_">
			<g>
				<g>
					<text transform="matrix(1 0 0 1 99.5752 192.2689)" class="st0 st1">12</text>
				</g>
			</g>
		</g>
		<g id="TEXT_141_">
			<g>
				<g>
					<text transform="matrix(1 0 0 1 121.4131 192.2689)" class="st0 st1">13</text>
				</g>
			</g>
		</g>
		<g id="TEXT_139_">
			<g>
				<g>
					<text transform="matrix(1 0 0 1 143.253 192.2689)" class="st0 st1">14</text>
				</g>
			</g>
		</g>
		<g id="TEXT_128_">
			<g>
				<g>
					<text transform="matrix(1 0 0 1 165.6749 192.2689)" class="st0 st1">15</text>
				</g>
			</g>
		</g>
		<g id="TEXT_151_">
			<g>
				<g>
					<text transform="matrix(1 0 0 1 99.5752 214.2845)" class="st0 st1">16</text>
				</g>
			</g>
		</g>
		<g id="TEXT_149_">
			<g>
				<g>
					<text transform="matrix(1 0 0 1 121.4131 214.2845)" class="st0 st1">17</text>
				</g>
			</g>
		</g>
		<g id="TEXT_147_">
			<g>
				<g>
					<text transform="matrix(1 0 0 1 143.253 214.2845)" class="st0 st1">18</text>
				</g>
			</g>
		</g>
		<g id="TEXT_138_">
			<g>
				<g>
					<text transform="matrix(1 0 0 1 165.6749 214.2845)" class="st0 st1">19</text>
				</g>
			</g>
		</g>
		<g id="TEXT_2_">
			<g>
				<g>
					<text transform="matrix(1 0 0 1 75.2315 181.0916)" class="st0 st1">2</text>
				</g>
			</g>
		</g>
		<g id="TEXT_104_">
			<g>
				<g>
					<text transform="matrix(1 0 0 1 75.2315 209.8592)" class="st0 st1">3</text>
				</g>
			</g>
		</g>
		<g>
			<line class="st2" x1="201.1" y1="159.1" x2="201.3" y2="159.1"/>
			<path class="st2" d="M168.6,133.5l-93.9,0c0,0-12.2-1.1-12.2,12v65.6c0.4,12.9,12.2,12,12.2,12h93.9c13.2,0,12.2-12,12.2-12
				v-65.6C180.8,145.5,181.1,133.5,168.6,133.5z"/>
			<line class="st2" x1="151.3" y1="107.7" x2="92.3" y2="107.7"/>
			<line class="st2" x1="125.9" y1="107.7" x2="125.9" y2="99.2"/>
			<line class="st2" x1="117.6" y1="99.2" x2="117.6" y2="107.7"/>
			<path class="st2" d="M58.9,136.1v84.3c0,6.9,6.5,6.5,6.5,6.5H178c6.3,0,6.5-6.5,6.5-6.5v-84.3c0,0,0.1-5.9-6.5-6.5H65.4
				C65.4,129.6,59.4,128.9,58.9,136.1z"/>
			<line class="st2" x1="232.6" y1="191.4" x2="229.9" y2="191.4"/>
			<path class="st2" d="M50.6,220.4l0-84.3c-0.8-15.9,14.8-14.8,14.8-14.8H178c14.1,0.5,14.8,14.8,14.8,14.8v84.3
				c0,0,0,14.8-14.8,14.8H65.4C65.4,235.1,51.5,236.3,50.6,220.4z"/>
			<path class="st2" d="M89,257.6h-5.5c0,0-2.8,0.1-2.8-2.8v-7.6c0,0,0.1-3.4-2.4-3.5H64.8c0,0-22.5,0-22.3-22.9v-85.2
				c-0.2-23.1,22.3-23.1,22.3-23.1h113.8c0,0,22.3,0,22.3,23.1v85.2c0,0,0.2,22.3-22.3,22.9l-84.5,0.7c0,0-2.4,0.1-2.4,3v7.4
				c0,0,0.1,2.8-2.6,2.8"/>
			<line class="st2" x1="209.8" y1="191.4" x2="210.9" y2="191.4"/>
			<line class="st2" x1="32.6" y1="191.4" x2="33.7" y2="191.4"/>
			<line class="st3" x1="209.8" y1="191.4" x2="232.6" y2="191.4"/>
			<path class="st2" d="M92.3,111.8"/>
			<path class="st3" d="M151.3,103.8V92.2c0,0,0-1.3-1.3-1.5h-4.8v-6.4h7c5.5,0,5.5,5.5,5.5,5.5V104"/>
			<line class="st2" x1="157.8" y1="104" x2="151.3" y2="103.8"/>
			<path class="st3" d="M209.8,159.1v-23.1c0,0,0.6-29.3-30.8-31.5l-21.2-0.6"/>
			<line class="st2" x1="201.3" y1="159.1" x2="209.8" y2="159.1"/>
			<polyline class="st3" points="142.5,96.8 146.9,96.8 146.9,91.3 142.5,91.3 			"/>
			<path class="st3" d="M232.6,191.4c2,0,2.2-2,2.2-2v-22.1c0,0-0.1-2.2-2.2-2.2h-22.9"/>
			<path class="st2" d="M232.6,191.4"/>
			<path class="st2" d="M232.6,165.2"/>
			<line class="st2" x1="151.3" y1="103.8" x2="151.3" y2="111.8"/>
			<polyline class="st3" points="142.5,96.8 142.5,103.8 151.3,103.8 			"/>
			<polyline class="st3" points="142.5,90.9 142.5,83.7 101,83.7 101,87.4 			"/>
			<line class="st3" x1="101" y1="91.3" x2="101" y2="87.4"/>
			<line class="st2" x1="209.8" y1="197.3" x2="201.1" y2="197.3"/>
			<path class="st3" d="M85.7,104V89.8c0.4-6.1,5.5-5.5,5.5-5.5h7v6.4h-4.4c0,0-1.6,0-1.5,1.5v11.7h8.7v-7h-4.4v-5.5h4.4"/>
			<polyline class="st2" points="101.5,90.9 101.5,99.2 141.9,99.2 141.9,90.9 101.5,90.9 			"/>
			<line class="st2" x1="33.7" y1="159.1" x2="42.1" y2="159.1"/>
			<path class="st3" d="M85.7,104l-21.2,0.6c0,0-31.9-0.7-30.8,31.5v23.1"/>
			<polyline class="st2" points="92.3,111.8 92.3,103.8 85.7,104 			"/>
			<path class="st2" d="M151.3,111.8"/>
			<line class="st3" x1="33.7" y1="164.7" x2="33.7" y2="159.1"/>
			<line class="st2" x1="33.7" y1="192" x2="33.7" y2="164.7"/>
			<line class="st3" x1="33.7" y1="197.3" x2="33.7" y2="192"/>
			<line class="st2" x1="42.3" y1="197.3" x2="33.7" y2="197.3"/>
			<line class="st3" x1="209.8" y1="164.7" x2="209.8" y2="159.1"/>
			<line class="st2" x1="209.8" y1="191.4" x2="209.8" y2="164.7"/>
			<path class="st3" d="M33.7,197.3V222c0,0,0,29,30.8,30.1h5.2c2.7,0,2.6,2.8,2.6,2.8v8.5c0,2.7,2.8,2.6,2.8,2.6h22.5
				c2.7,0,2.6-2.6,2.6-2.6v-7.7c0-3,2.8-2.8,2.8-2.8l76.2-0.7c30.8-1.3,30.8-30.1,30.8-30.1v-30.6"/>
			<path class="st3" d="M33.7,191.4H10.8c0,0-1.9,0.2-2.2-2v-22.1c0-2.4,2.2-2.2,2.2-2.2h22.9"/>
		</g>
		<rect x="160.7" y="139.4" class="st2" width="18.1" height="12"/>
		<rect x="160.7" y="161.4" class="st2" width="18.1" height="12"/>
		<rect x="160.7" y="183.2" class="st2" width="18.1" height="12"/>
		<rect x="160.7" y="205.1" class="st2" width="18.1" height="12"/>
		<rect x="139" y="139.4" class="st2" width="18.1" height="12"/>
		<rect x="139" y="161.4" class="st2" width="18.1" height="12"/>
		<rect x="139" y="183.2" class="st2" width="18.1" height="12"/>
		<rect x="139" y="205.1" class="st2" width="18.1" height="12"/>
		<rect x="116.8" y="139.4" class="st2" width="18.1" height="12"/>
		<rect x="116.8" y="161.4" class="st2" width="18.1" height="12"/>
		<rect x="116.8" y="183.2" class="st2" width="18.1" height="12"/>
		<rect x="116.8" y="205.1" class="st2" width="18.1" height="12"/>
		<rect x="95.3" y="139.4" class="st2" width="18.1" height="12"/>
		<rect x="95.3" y="161.4" class="st2" width="18.1" height="12"/>
		<rect x="95.3" y="183.2" class="st2" width="18.1" height="12"/>
		<rect x="95.3" y="205.1" class="st2" width="18.1" height="12"/>
		<rect x="68.3" y="172.3" class="st2" width="18.1" height="12"/>
		<rect x="66.5" y="142.2" class="st2" width="21.9" height="14.2"/>
		<rect x="66.5" y="200.1" class="st2" width="21.9" height="14.2"/>
	</g>
</g>
<g id="S1">
	<g>
		<g>
			<path class="st4" d="M1,0.7v331.7h240.9V0.7H1z M6.7,6.3h229.6v320.3H42.1v-7.1H6.7V6.3z"/>
			<rect x="5.8" y="318.1" class="st4" width="70.9" height="8.5"/>
			<rect x="1" y="0.7" class="st5" width="240.9" height="331.7"/>
		</g>
		<rect x="6.7" y="6.3" class="st6" width="229.6" height="36.9"/>
	</g>
</g>
</svg>
