<?xml version="1.0" encoding="utf-8"?>
<!-- Generator: Adobe Illustrator 21.0.2, SVG Export Plug-In . SVG Version: 6.00 Build 0)  -->
<svg version="1.1" xmlns="http://www.w3.org/2000/svg" xmlns:xlink="http://www.w3.org/1999/xlink" x="0px" y="0px"
	 viewBox="0 0 209.5 113.3" style="enable-background:new 0 0 209.5 113.3;" xml:space="preserve">
<style type="text/css">
	.st0{fill:none;stroke:#000000;stroke-linecap:round;stroke-linejoin:round;stroke-miterlimit:10;}
	.st1{fill:none;stroke:#000000;stroke-width:2;stroke-linecap:round;stroke-linejoin:round;}
	.st2{font-family:'ArialMT';}
	.st3{font-size:8px;}
</style>
<g id="图层_2">
	<g>
		<g>
			<line class="st0" x1="109.9" y1="33.9" x2="97.1" y2="33.9"/>
			<line class="st0" x1="109.9" y1="43.9" x2="97.1" y2="43.9"/>
			<polyline class="st0" points="125.2,34.3 109.9,34.3 109.9,30.7 125.2,30.7 			"/>
			<polyline class="st0" points="132.2,62 138.6,62 138.6,55.7 132.2,55.7 132.2,62 			"/>
			<polyline class="st0" points="125.2,40.8 109.9,40.8 109.9,34.3 			"/>
			<polyline class="st0" points="88.1,26.6 119.4,26.6 119.4,30.7 			"/>
			<polyline class="st0" points="116.2,62 116.2,55.7 122.7,55.7 122.7,62 116.2,62 			"/>
			<polyline class="st0" points="129,81.5 129,68.7 141.8,68.7 141.8,81.5 129,81.5 			"/>
			<polyline class="st0" points="146.6,50.4 146.6,88.8 156.2,88.8 			"/>
			<polyline class="st1" points="81.8,24 125.2,24 125.2,50.4 135.9,50.4 135.9,24.7 146.6,24.7 146.6,50.4 			"/>
			<polyline class="st0" points="88.1,26.6 87.5,26.6 87.5,30.7 			"/>
			<line class="st0" x1="146.6" y1="88.8" x2="146.6" y2="98.2"/>
			<path class="st0" d="M81.8,30.7"/>
			<line class="st0" x1="97.1" y1="34.3" x2="81.8" y2="34.3"/>
			<polyline class="st1" points="146.6,98.2 156.2,98.2 156.2,18 150.4,18 150.4,50.4 146.6,50.4 			"/>
			<polyline class="st0" points="97.1,40.8 97.1,50.4 109.9,50.4 109.9,40.8 			"/>
			<line class="st1" x1="81.8" y1="40.8" x2="81.8" y2="34.3"/>
			<polyline class="st0" points="81.8,30.7 97.1,30.7 97.1,40.8 81.8,40.8 			"/>
			<line class="st1" x1="81.8" y1="24" x2="81.8" y2="34.3"/>
			<polyline class="st0" points="100.3,62 100.3,55.7 106.6,55.7 106.6,62 100.3,62 			"/>
			<polyline class="st0" points="112.9,81.5 112.9,68.7 125.7,68.7 125.7,81.5 112.9,81.5 			"/>
			<polyline class="st0" points="84.2,62 90.7,62 90.7,55.7 84.2,55.7 84.2,62 			"/>
			<polyline class="st0" points="97.1,81.5 97.1,68.7 109.9,68.7 109.9,81.5 97.1,81.5 			"/>
			<polyline class="st1" points="60.3,50.4 60.3,38.9 77.9,38.9 77.9,50.4 81.8,50.4 81.8,40.8 			"/>
			<polyline class="st0" points="146.6,85.4 60.3,85.4 60.3,50.4 			"/>
			<polyline class="st0" points="68.4,62 68.4,55.7 74.7,55.7 74.7,62 68.4,62 			"/>
			<polyline class="st0" points="81.2,81.5 81.2,68.7 93.8,68.7 93.8,81.5 81.2,81.5 			"/>
			<polyline class="st0" points="65.1,81.5 65.1,68.7 77.9,68.7 77.9,81.5 65.1,81.5 			"/>
			<polyline class="st0" points="50.8,88.8 60.3,88.8 60.3,85.4 			"/>
			<polyline class="st1" points="60.3,50.4 56.5,50.4 56.5,18 50.8,18 50.8,88.8 			"/>
			<line class="st1" x1="60.3" y1="98.2" x2="146.6" y2="98.2"/>
			<line class="st0" x1="60.3" y1="95.1" x2="60.3" y2="98.2"/>
			<line class="st0" x1="60.3" y1="95.1" x2="60.3" y2="88.8"/>
			<polyline class="st1" points="50.8,88.8 50.8,98.2 60.3,98.2 			"/>
		</g>
		<g>
			<text transform="matrix(1 0 0 1 68.9662 78.1025)" class="st2 st3">1</text>
		</g>
		<g>
			<text transform="matrix(1 0 0 1 84.6362 78.1025)" class="st2 st3">2</text>
		</g>
		<g>
			<text transform="matrix(1 0 0 1 101.1308 78.1025)" class="st2 st3">3</text>
		</g>
		<g>
			<text transform="matrix(1 0 0 1 116.9511 78.1025)" class="st2 st3">4</text>
		</g>
		<g>
			<text transform="matrix(1 0 0 1 132.9208 78.1025)" class="st2 st3">5</text>
		</g>
	</g>
</g>
<g id="S1">
</g>
</svg>
