<?xml version="1.0" encoding="utf-8"?>
<!-- Generator: Adobe Illustrator 21.0.2, SVG Export Plug-In . SVG Version: 6.00 Build 0)  -->
<svg version="1.1" xmlns="http://www.w3.org/2000/svg" xmlns:xlink="http://www.w3.org/1999/xlink" x="0px" y="0px"
	 viewBox="0 0 333.3 331.7" style="enable-background:new 0 0 333.3 331.7;" xml:space="preserve">
<style type="text/css">
	.st0{fill:none;stroke:#000000;stroke-linecap:round;stroke-linejoin:round;stroke-miterlimit:10;}
	.st1{fill:none;stroke:#000000;stroke-width:2;stroke-linecap:round;stroke-linejoin:round;stroke-miterlimit:10;}
	.st2{font-family:'ArialMT';}
	.st3{font-size:8px;}
</style>
<g id="图层_2">
	<line class="st0" x1="70.2" y1="153.9" x2="70.2" y2="154.7"/>
	<line class="st0" x1="70.2" y1="184.4" x2="70.2" y2="185.4"/>
	<line class="st0" x1="67.2" y1="185.4" x2="67.2" y2="166.1"/>
	<line class="st0" x1="42" y1="199.7" x2="42" y2="151.6"/>
	<polyline class="st0" points="48.3,129.7 48.3,129.5 48.3,129.3 48.3,129.1 48.3,128.9 48.5,128.7 48.5,128.5 48.7,128.5 	"/>
	<path class="st0" d="M48.2,199.7c0,0,0,1.8,0,2.1c0,3.9,3.8,8,9.4,8h132.2"/>
	<polyline class="st0" points="287.1,153.9 283.4,153.9 283.4,164.7 287.9,164.7 	"/>
	<path class="st0" d="M256.5,142.9h-182c0,0-4.3-0.4-4.3,4.3v6.7"/>
	<path class="st1" d="M256.6,141.5c1.3,0,1.4-1.2,1.4-1.2v-10.6c0,0,0.1-1.2-1.4-1.2h-66.9"/>
	<line class="st0" x1="189.7" y1="141.5" x2="256.6" y2="141.5"/>
	<polyline class="st0" points="287,180.1 283.4,180.1 283.4,195.4 287.9,195.4 	"/>
	<polyline class="st1" points="168.7,128.5 171.1,126 186.8,126 189.3,128.5 	"/>
	<path class="st1" d="M256.6,209.8c1.5,0,1.4,1.4,1.4,1.4v10.4c0,0,0.2,1.4-1.4,1.4h-66.9"/>
	<line class="st0" x1="189.7" y1="209.8" x2="256.6" y2="209.8"/>
	<line class="st0" x1="168.7" y1="128.5" x2="189.7" y2="128.5"/>
	<line class="st1" x1="140" y1="128.5" x2="168.7" y2="128.5"/>
	<path class="st0" d="M189.7,140.3"/>
	<line class="st0" x1="140" y1="141.5" x2="189.7" y2="141.5"/>
	<polyline class="st1" points="168.7,222.9 171.1,225.3 186.8,225.3 189.3,222.9 	"/>
	<path class="st0" d="M140,141.5H57.6c0,0-9,0.3-9.2,6.4"/>
	<line class="st0" x1="168.7" y1="222.9" x2="189.7" y2="222.9"/>
	<line class="st1" x1="140" y1="222.9" x2="168.7" y2="222.9"/>
	<path class="st1" d="M140,128.5H35c0,0-8.5-0.7-8.9,8.7v76.9c0,0-0.9,8.9,8.9,8.9"/>
	<line class="st0" x1="70.2" y1="166.1" x2="70.2" y2="166.9"/>
	<polyline class="st0" points="66.6,154.7 66.6,166.1 72.5,166.1 72.5,154.7 66.6,154.7 	"/>
	<line class="st0" x1="48.3" y1="151.2" x2="48.3" y2="129.7"/>
	<line class="st0" x1="70.2" y1="184.4" x2="70.2" y2="166.9"/>
	<polyline class="st0" points="72.5,196.6 66.6,196.6 66.6,185.4 72.5,185.4 72.5,196.6 	"/>
	<polyline class="st0" points="66.2,199.7 67.2,199.7 67.2,196.6 	"/>
	<path class="st0" d="M256.1,208.4l-181.6,0c0,0-4,0.2-4.3-4.3v-7.5"/>
	<path class="st1" d="M256.1,208.4l23.1,0v11.9c0,0,0,1.8,1.8,1.8h5.1c0,0,1.8,0,1.8-1.8l0-73c0,0,0-4.3-4.3-4.3h-27.1"/>
	<polyline class="st0" points="66.2,199.7 57.6,199.7 57.6,151.6 	"/>
	<line class="st0" x1="57.6" y1="199.7" x2="42" y2="199.7"/>
	<polyline class="st0" points="42.2,199.7 37.9,199.7 37.9,151.6 67.2,151.6 67.2,154.7 	"/>
	<line class="st0" x1="46.4" y1="199.7" x2="46.4" y2="222.6"/>
	<polyline class="st1" points="46.4,222.9 35,222.9 46.4,222.9 	"/>
	<line class="st1" x1="140" y1="222.9" x2="46.4" y2="222.9"/>
	<g id="TEXT_109_">
		<g>
			<g>
				<text transform="matrix(1 0 0 1 82.3997 178.6082)" class="st2 st3">29</text>
			</g>
		</g>
	</g>
	<g id="TEXT_101_">
		<g>
			<g>
				<text transform="matrix(1 0 0 1 82.3988 199.2588)" class="st2 st3">43</text>
			</g>
		</g>
	</g>
	<g id="TEXT_111_">
		<g>
			<g>
				<text transform="matrix(1 0 0 1 84.7494 157.6587)" class="st2 st3">1</text>
			</g>
		</g>
	</g>
	<path class="st0" d="M204.8,190.5c-1.3,0-2.4-1-2.4-2.3v-24.5c0-1.3,1.1-2.3,2.4-2.3h3.7c1.3,0,2.4,1,2.4,2.3v24.5
		c0,1.3-1.1,2.3-2.4,2.3H204.8z"/>
	<path class="st0" d="M149.4,190.5c-1.3,0-2.4-1-2.4-2.3v-24.5c0-1.3,1.1-2.3,2.4-2.3h3.7c1.3,0,2.4,1,2.4,2.3v24.5
		c0,1.3-1.1,2.3-2.4,2.3H149.4z"/>
	<rect x="81.4" y="151.4" class="st0" width="11.4" height="6.7"/>
	<rect x="81.4" y="172.4" class="st0" width="11.4" height="6.7"/>
	<rect x="81.4" y="193.3" class="st0" width="11.4" height="6.7"/>
	<g>
		<g id="TEXT_12_">
			<g>
				<g>
					<text transform="matrix(1 0 0 1 102.1566 200.8315)" class="st2 st3">44</text>
				</g>
			</g>
		</g>
		<rect x="102.5" y="193.7" class="st0" width="8.1" height="8.6"/>
	</g>
	<g>
		<g id="TEXT_10_">
			<g>
				<g>
					<text transform="matrix(1 0 0 1 102.1566 185.0981)" class="st2 st3">30</text>
				</g>
			</g>
		</g>
		<rect x="102.5" y="178" class="st0" width="8.1" height="8.6"/>
	</g>
	<g>
		<g id="TEXT_13_">
			<g>
				<g>
					<text transform="matrix(1 0 0 1 102.1566 170.1499)" class="st2 st3">17</text>
				</g>
			</g>
		</g>
		<rect x="102.5" y="163" class="st0" width="8.1" height="8.6"/>
	</g>
	<g>
		<g id="TEXT_1_">
			<g>
				<g>
					<text transform="matrix(1 0 0 1 104.3011 155.0063)" class="st2 st3">2</text>
				</g>
			</g>
		</g>
		<rect x="102.5" y="147.9" class="st0" width="8.1" height="8.6"/>
	</g>
	<g>
		<g id="TEXT_26_">
			<g>
				<g>
					<text transform="matrix(1 0 0 1 113.7113 200.8315)" class="st2 st3">45</text>
				</g>
			</g>
		</g>
		<rect x="114" y="193.7" class="st0" width="8.1" height="8.6"/>
	</g>
	<g>
		<g id="TEXT_24_">
			<g>
				<g>
					<text transform="matrix(1 0 0 1 113.7113 185.0981)" class="st2 st3">31</text>
				</g>
			</g>
		</g>
		<rect x="114" y="178" class="st0" width="8.1" height="8.6"/>
	</g>
	<g>
		<g id="TEXT_22_">
			<g>
				<g>
					<text transform="matrix(1 0 0 1 113.4359 170.1499)" class="st2 st3">18</text>
				</g>
			</g>
		</g>
		<rect x="114" y="163" class="st0" width="8.1" height="8.6"/>
	</g>
	<g>
		<g id="TEXT_8_">
			<g>
				<g>
					<text transform="matrix(1 0 0 1 115.8558 155.0063)" class="st2 st3">3</text>
				</g>
			</g>
		</g>
		<rect x="114" y="147.9" class="st0" width="8.1" height="8.6"/>
	</g>
	<g>
		<g id="TEXT_131_">
			<g>
				<g>
					<text transform="matrix(1 0 0 1 245.9105 200.8315)" class="st2 st3">57</text>
				</g>
			</g>
		</g>
		<rect x="246.2" y="193.7" class="st0" width="8.1" height="8.6"/>
	</g>
	<g>
		<g id="TEXT_129_">
			<g>
				<g>
					<text transform="matrix(1 0 0 1 245.9105 185.0981)" class="st2 st3">41</text>
				</g>
			</g>
		</g>
		<rect x="246.2" y="178" class="st0" width="8.1" height="8.6"/>
	</g>
	<g>
		<g id="TEXT_127_">
			<g>
				<g>
					<text transform="matrix(1 0 0 1 245.9105 170.1499)" class="st2 st3">28</text>
				</g>
			</g>
		</g>
		<rect x="246.2" y="163" class="st0" width="8.1" height="8.6"/>
	</g>
	<g>
		<g id="TEXT_118_">
			<g>
				<g>
					<text transform="matrix(1 0 0 1 245.8304 155.0063)" class="st2 st3">15</text>
				</g>
			</g>
		</g>
		<rect x="246.2" y="147.9" class="st0" width="8.1" height="8.6"/>
	</g>
	<g>
		<g id="TEXT_123_">
			<g>
				<g>
					<text transform="matrix(1 0 0 1 234.8949 200.8315)" class="st2 st3">56</text>
				</g>
			</g>
		</g>
		<rect x="235.2" y="193.7" class="st0" width="8.1" height="8.6"/>
	</g>
	<g>
		<g id="TEXT_121_">
			<g>
				<g>
					<text transform="matrix(1 0 0 1 234.8949 185.0981)" class="st2 st3">40</text>
				</g>
			</g>
		</g>
		<rect x="235.2" y="178" class="st0" width="8.1" height="8.6"/>
	</g>
	<g>
		<g id="TEXT_119_">
			<g>
				<g>
					<text transform="matrix(1 0 0 1 234.8949 170.1499)" class="st2 st3">27</text>
				</g>
			</g>
		</g>
		<rect x="235.2" y="163" class="st0" width="8.1" height="8.6"/>
	</g>
	<g>
		<g id="TEXT_108_">
			<g>
				<g>
					<text transform="matrix(1 0 0 1 234.8148 155.0063)" class="st2 st3">14</text>
				</g>
			</g>
		</g>
		<rect x="235.2" y="147.9" class="st0" width="8.1" height="8.6"/>
	</g>
	<g>
		<g id="TEXT_115_">
			<g>
				<g>
					<text transform="matrix(1 0 0 1 223.8773 200.8315)" class="st2 st3">55</text>
				</g>
			</g>
		</g>
		<rect x="224.2" y="193.7" class="st0" width="8.1" height="8.6"/>
	</g>
	<g>
		<g id="TEXT_113_">
			<g>
				<g>
					<text transform="matrix(1 0 0 1 223.8773 185.0981)" class="st2 st3">39</text>
				</g>
			</g>
		</g>
		<rect x="224.2" y="178" class="st0" width="8.1" height="8.6"/>
	</g>
	<g>
		<g id="TEXT_110_">
			<g>
				<g>
					<text transform="matrix(1 0 0 1 223.8773 170.1499)" class="st2 st3">26</text>
				</g>
			</g>
		</g>
		<rect x="224.2" y="163" class="st0" width="8.1" height="8.6"/>
	</g>
	<g>
		<g id="TEXT_99_">
			<g>
				<g>
					<text transform="matrix(1 0 0 1 223.7972 155.0063)" class="st2 st3">13</text>
				</g>
			</g>
		</g>
		<rect x="224.2" y="147.9" class="st0" width="8.1" height="8.6"/>
	</g>
	<g>
		<g id="TEXT_105_">
			<g>
				<g>
					<text transform="matrix(1 0 0 1 212.8616 200.8315)" class="st2 st3">54</text>
				</g>
			</g>
		</g>
		<rect x="213.2" y="193.7" class="st0" width="8.1" height="8.6"/>
	</g>
	<g>
		<g id="TEXT_103_">
			<g>
				<g>
					<text transform="matrix(1 0 0 1 212.8616 185.0981)" class="st2 st3">38</text>
				</g>
			</g>
		</g>
		<rect x="213.2" y="178" class="st0" width="8.1" height="8.6"/>
	</g>
	<g>
		<g id="TEXT_100_">
			<g>
				<g>
					<text transform="matrix(1 0 0 1 212.8616 170.1499)" class="st2 st3">25</text>
				</g>
			</g>
		</g>
		<rect x="213.2" y="163" class="st0" width="8.1" height="8.6"/>
	</g>
	<g>
		<g id="TEXT_88_">
			<g>
				<g>
					<text transform="matrix(1 0 0 1 212.7816 155.0063)" class="st2 st3">12</text>
				</g>
			</g>
		</g>
		<rect x="213.2" y="147.9" class="st0" width="8.1" height="8.6"/>
	</g>
	<g>
		<g id="TEXT_95_">
			<g>
				<g>
					<text transform="matrix(1 0 0 1 201.8441 200.8315)" class="st2 st3">53</text>
				</g>
			</g>
		</g>
		<rect x="202.2" y="193.7" class="st0" width="8.1" height="8.6"/>
	</g>
	<g>
		<g id="TEXT_77_">
			<g>
				<g>
					<text transform="matrix(1 0 0 1 201.764 155.0063)" class="st2 st3">11</text>
				</g>
			</g>
		</g>
		<rect x="202.2" y="147.9" class="st0" width="8.1" height="8.6"/>
	</g>
	<g>
		<g id="TEXT_85_">
			<g>
				<g>
					<text transform="matrix(1 0 0 1 190.8284 200.8315)" class="st2 st3">52</text>
				</g>
			</g>
		</g>
		<rect x="191.1" y="193.7" class="st0" width="8.1" height="8.6"/>
	</g>
	<g>
		<g id="TEXT_82_">
			<g>
				<g>
					<text transform="matrix(1 0 0 1 190.8284 185.0981)" class="st2 st3">37</text>
				</g>
			</g>
		</g>
		<rect x="191.1" y="178" class="st0" width="8.1" height="8.6"/>
	</g>
	<g>
		<g id="TEXT_78_">
			<g>
				<g>
					<text transform="matrix(1 0 0 1 190.8284 170.1499)" class="st2 st3">24</text>
				</g>
			</g>
		</g>
		<rect x="191.1" y="163" class="st0" width="8.1" height="8.6"/>
	</g>
	<g>
		<g id="TEXT_69_">
			<g>
				<g>
					<text transform="matrix(1 0 0 1 190.139 155.0063)" class="st2 st3">10</text>
				</g>
			</g>
		</g>
		<rect x="191.1" y="147.9" class="st0" width="8.1" height="8.6"/>
	</g>
	<g>
		<g id="TEXT_74_">
			<g>
				<g>
					<text transform="matrix(1 0 0 1 179.8109 200.8315)" class="st2 st3">51</text>
				</g>
			</g>
		</g>
		<rect x="180.1" y="193.7" class="st0" width="8.1" height="8.6"/>
	</g>
	<g>
		<g id="TEXT_72_">
			<g>
				<g>
					<text transform="matrix(1 0 0 1 179.8109 185.0981)" class="st2 st3">36</text>
				</g>
			</g>
		</g>
		<rect x="180.1" y="178" class="st0" width="8.1" height="8.6"/>
	</g>
	<g>
		<g id="TEXT_70_">
			<g>
				<g>
					<text transform="matrix(1 0 0 1 179.8109 170.1499)" class="st2 st3">23</text>
				</g>
			</g>
		</g>
		<rect x="180.1" y="163" class="st0" width="8.1" height="8.6"/>
	</g>
	<g>
		<g id="TEXT_61_">
			<g>
				<g>
					<text transform="matrix(1 0 0 1 181.9554 155.0063)" class="st2 st3">9</text>
				</g>
			</g>
		</g>
		<rect x="180.1" y="147.9" class="st0" width="8.1" height="8.6"/>
	</g>
	<g>
		<g id="TEXT_66_">
			<g>
				<g>
					<text transform="matrix(1 0 0 1 168.7952 200.8315)" class="st2 st3">50</text>
				</g>
			</g>
		</g>
		<rect x="169.1" y="193.7" class="st0" width="8.1" height="8.6"/>
	</g>
	<g>
		<g id="TEXT_64_">
			<g>
				<g>
					<text transform="matrix(1 0 0 1 168.7952 185.0981)" class="st2 st3">35</text>
				</g>
			</g>
		</g>
		<rect x="169.1" y="178" class="st0" width="8.1" height="8.6"/>
	</g>
	<g>
		<g id="TEXT_62_">
			<g>
				<g>
					<text transform="matrix(1 0 0 1 168.7952 170.1499)" class="st2 st3">22</text>
				</g>
			</g>
		</g>
		<rect x="169.1" y="163" class="st0" width="8.1" height="8.6"/>
	</g>
	<g>
		<g id="TEXT_53_">
			<g>
				<g>
					<text transform="matrix(1 0 0 1 170.9398 155.0063)" class="st2 st3">8</text>
				</g>
			</g>
		</g>
		<rect x="169.1" y="147.9" class="st0" width="8.1" height="8.6"/>
	</g>
	<g>
		<g id="TEXT_50_">
			<g>
				<g>
					<text transform="matrix(1 0 0 1 146.762 200.8315)" class="st2 st3">48</text>
				</g>
			</g>
		</g>
		<rect x="147.1" y="193.7" class="st0" width="8.1" height="8.6"/>
	</g>
	<g>
		<g id="TEXT_37_">
			<g>
				<g>
					<text transform="matrix(1 0 0 1 148.9066 155.0063)" class="st2 st3">6</text>
				</g>
			</g>
		</g>
		<rect x="147.1" y="147.9" class="st0" width="8.1" height="8.6"/>
	</g>
	<g>
		<g id="TEXT_58_">
			<g>
				<g>
					<text transform="matrix(1 0 0 1 157.7777 200.8315)" class="st2 st3">49</text>
				</g>
			</g>
		</g>
		<rect x="158.1" y="193.7" class="st0" width="8.1" height="8.6"/>
	</g>
	<g>
		<g id="TEXT_56_">
			<g>
				<g>
					<text transform="matrix(1 0 0 1 157.7777 185.0981)" class="st2 st3">34</text>
				</g>
			</g>
		</g>
		<rect x="158.1" y="178" class="st0" width="8.1" height="8.6"/>
	</g>
	<g>
		<g id="TEXT_54_">
			<g>
				<g>
					<text transform="matrix(1 0 0 1 157.7777 170.1499)" class="st2 st3">21</text>
				</g>
			</g>
		</g>
		<rect x="158.1" y="163" class="st0" width="8.1" height="8.6"/>
	</g>
	<g>
		<g id="TEXT_45_">
			<g>
				<g>
					<text transform="matrix(1 0 0 1 159.9222 155.0063)" class="st2 st3">7</text>
				</g>
			</g>
		</g>
		<rect x="158.1" y="147.9" class="st0" width="8.1" height="8.6"/>
	</g>
	<g>
		<g id="TEXT_42_">
			<g>
				<g>
					<text transform="matrix(1 0 0 1 135.7445 200.8315)" class="st2 st3">47</text>
				</g>
			</g>
		</g>
		<rect x="136.1" y="193.7" class="st0" width="8.1" height="8.6"/>
	</g>
	<g>
		<g id="TEXT_40_">
			<g>
				<g>
					<text transform="matrix(1 0 0 1 135.7445 185.0981)" class="st2 st3">33</text>
				</g>
			</g>
		</g>
		<rect x="136.1" y="178" class="st0" width="8.1" height="8.6"/>
	</g>
	<g>
		<g id="TEXT_38_">
			<g>
				<g>
					<text transform="matrix(1 0 0 1 135.7445 170.1499)" class="st2 st3">20</text>
				</g>
			</g>
		</g>
		<rect x="136.1" y="163" class="st0" width="8.1" height="8.6"/>
	</g>
	<g>
		<g id="TEXT_29_">
			<g>
				<g>
					<text transform="matrix(1 0 0 1 137.889 155.0063)" class="st2 st3">5</text>
				</g>
			</g>
		</g>
		<rect x="136.1" y="147.9" class="st0" width="8.1" height="8.6"/>
	</g>
	<g>
		<g id="TEXT_34_">
			<g>
				<g>
					<text transform="matrix(1 0 0 1 124.7288 200.8315)" class="st2 st3">46</text>
				</g>
			</g>
		</g>
		<rect x="125.1" y="193.7" class="st0" width="8.1" height="8.6"/>
	</g>
	<g>
		<g id="TEXT_32_">
			<g>
				<g>
					<text transform="matrix(1 0 0 1 124.7288 185.0981)" class="st2 st3">32</text>
				</g>
			</g>
		</g>
		<rect x="125.1" y="178" class="st0" width="8.1" height="8.6"/>
	</g>
	<g>
		<g id="TEXT_30_">
			<g>
				<g>
					<text transform="matrix(1 0 0 1 124.4515 170.1499)" class="st2 st3">19</text>
				</g>
			</g>
		</g>
		<rect x="125.1" y="163" class="st0" width="8.1" height="8.6"/>
	</g>
	<g>
		<g id="TEXT_20_">
			<g>
				<g>
					<text transform="matrix(1 0 0 1 126.8734 155.0063)" class="st2 st3">4</text>
				</g>
			</g>
		</g>
		<rect x="125.1" y="147.9" class="st0" width="8.1" height="8.6"/>
	</g>
	<g id="TEXT_83_">
		<g>
			<g>
				<text transform="matrix(1 0 0 1 266.0951 178.3088)" class="st2 st3">42</text>
			</g>
		</g>
	</g>
	<g id="TEXT_71_">
		<g>
			<g>
				<text transform="matrix(1 0 0 1 266.0941 199.6778)" class="st2 st3">58</text>
			</g>
		</g>
	</g>
	<g id="TEXT_4_">
		<g>
			<g>
				<text transform="matrix(1 0 0 1 266.0951 157.6587)" class="st2 st3">16</text>
			</g>
		</g>
	</g>
	<rect x="265.1" y="151.4" class="st0" width="11.4" height="6.7"/>
	<rect x="265.1" y="172.4" class="st0" width="11.4" height="6.7"/>
	<rect x="265.1" y="193.3" class="st0" width="11.4" height="6.7"/>
</g>
<g id="S1">
</g>
</svg>
