<?xml version="1.0" encoding="utf-8"?>
<!-- Generator: Adobe Illustrator 24.0.1, SVG Export Plug-In . SVG Version: 6.00 Build 0)  -->
<svg version="1.1" id="图层_1" xmlns="http://www.w3.org/2000/svg" xmlns:xlink="http://www.w3.org/1999/xlink" x="0px" y="0px"
	 viewBox="0 0 240.9 198.4" style="enable-background:new 0 0 240.9 198.4;" xml:space="preserve">
<style type="text/css">
	.st0{fill:#231815;}
	.st1{clip-path:url(#SVGID_2_);fill:none;stroke:#231815;stroke-width:1.083;stroke-linecap:square;}
	.st2{clip-path:url(#SVGID_4_);fill:none;stroke:#231815;stroke-width:1.083;stroke-linecap:square;}
	.st3{clip-path:url(#SVGID_6_);fill:none;stroke:#231815;stroke-width:1.083;stroke-linecap:square;}
	.st4{clip-path:url(#SVGID_8_);fill:none;stroke:#231815;stroke-width:1.083;stroke-linecap:square;}
	.st5{fill:none;stroke:#231815;stroke-width:0.542;stroke-linecap:round;stroke-linejoin:round;}
	.st6{clip-path:url(#SVGID_10_);fill:#FFFFFF;}
	.st7{clip-path:url(#SVGID_12_);fill:none;stroke:#231815;stroke-width:0.65;}
	.st8{clip-path:url(#SVGID_14_);fill:#FFFFFF;}
	.st9{clip-path:url(#SVGID_16_);fill:none;stroke:#231815;stroke-width:0.65;}
	.st10{clip-path:url(#SVGID_18_);fill:none;stroke:#231815;stroke-width:0.542;stroke-linecap:round;stroke-linejoin:round;}
	.st11{clip-path:url(#SVGID_20_);fill:#231815;}
	.st12{clip-path:url(#SVGID_22_);fill:#231815;}
	.st13{clip-path:url(#SVGID_24_);fill:#231815;}
	.st14{clip-path:url(#SVGID_26_);fill:#231815;}
	.st15{clip-path:url(#SVGID_28_);fill:#231815;}
	.st16{clip-path:url(#SVGID_30_);fill:#231815;}
	.st17{clip-path:url(#SVGID_32_);fill:#231815;}
	.st18{clip-path:url(#SVGID_34_);fill:#231815;}
	.st19{clip-path:url(#SVGID_36_);fill:#231815;}
	.st20{clip-path:url(#SVGID_38_);fill:#FFFFFF;}
	.st21{clip-path:url(#SVGID_40_);fill:#FFFFFF;}
	.st22{fill:#FFFFFF;}
	.st23{font-family:'AdobeSongStd-Light-GBpc-EUC-H';}
	.st24{font-size:12px;}
	.st25{fill:none;}
</style>
<polygon class="st0" points="29.6,20.1 30.6,21.1 214.9,21.1 215.9,20.1 "/>
<polygon class="st0" points="30.6,174.7 29.6,175.7 215.9,175.7 214.9,174.7 "/>
<polygon class="st0" points="29.6,175.7 30.6,174.7 30.6,21.1 29.6,20.1 "/>
<polygon class="st0" points="214.9,21.1 214.9,174.7 215.9,175.7 215.9,20.1 "/>
<g>
	<g>
		<g>
			<defs>
				<rect id="SVGID_1_" x="30.6" y="21.2" width="184.2" height="153.5"/>
			</defs>
			<clipPath id="SVGID_2_">
				<use xlink:href="#SVGID_1_"  style="overflow:visible;"/>
			</clipPath>
			<line class="st1" x1="30.6" y1="21.2" x2="214.8" y2="21.2"/>
		</g>
	</g>
	<g>
		<g>
			<defs>
				<rect id="SVGID_3_" x="30.6" y="21.2" width="184.2" height="153.5"/>
			</defs>
			<clipPath id="SVGID_4_">
				<use xlink:href="#SVGID_3_"  style="overflow:visible;"/>
			</clipPath>
			<line class="st2" x1="30.6" y1="21.2" x2="30.6" y2="174.7"/>
		</g>
	</g>
	<g>
		<g>
			<defs>
				<rect id="SVGID_5_" x="30.6" y="21.2" width="184.2" height="153.5"/>
			</defs>
			<clipPath id="SVGID_6_">
				<use xlink:href="#SVGID_5_"  style="overflow:visible;"/>
			</clipPath>
			<line class="st3" x1="214.8" y1="174.7" x2="30.6" y2="174.7"/>
		</g>
	</g>
	<g>
		<g>
			<defs>
				<rect id="SVGID_7_" x="30.6" y="21.2" width="184.2" height="153.5"/>
			</defs>
			<clipPath id="SVGID_8_">
				<use xlink:href="#SVGID_7_"  style="overflow:visible;"/>
			</clipPath>
			<line class="st4" x1="214.8" y1="174.7" x2="214.8" y2="21.2"/>
		</g>
	</g>
</g>
<line class="st5" x1="81.8" y1="63.8" x2="106.8" y2="63.8"/>
<line class="st5" x1="81.8" y1="125" x2="81.8" y2="63.8"/>
<line class="st5" x1="113.5" y1="124.5" x2="81.6" y2="124.5"/>
<line class="st5" x1="166.6" y1="124.5" x2="133.1" y2="124.5"/>
<line class="st5" x1="166.3" y1="63.8" x2="166.3" y2="125"/>
<line class="st5" x1="140.5" y1="63.8" x2="166.3" y2="63.8"/>
<rect x="107" y="58.8" class="st5" width="32.7" height="9.2"/>
<polygon class="st0" points="107.5,131.1 107.5,129.4 105.7,129.4 105.7,128.7 107.5,128.7 107.5,127 108.2,127 108.2,128.7 
	110,128.7 110,129.4 108.2,129.4 108.2,131.1 "/>
<rect x="137.6" y="128.1" class="st0" width="2.5" height="0.8"/>
<g>
	<g>
		<g>
			<defs>
				<rect id="SVGID_9_" x="30.6" y="21.2" width="184.2" height="153.5"/>
			</defs>
			<clipPath id="SVGID_10_">
				<use xlink:href="#SVGID_9_"  style="overflow:visible;"/>
			</clipPath>
			<path class="st6" d="M163,124.5c0-1.8,1.5-3.1,3.2-3.1c1.9,0,3.3,1.4,3.3,3.1c0,1.6-1.5,3-3.3,3C164.5,127.5,163,126.2,163,124.5
				"/>
		</g>
	</g>
	<g>
		<g>
			<defs>
				<rect id="SVGID_11_" x="30.6" y="21.2" width="184.2" height="153.5"/>
			</defs>
			<clipPath id="SVGID_12_">
				<use xlink:href="#SVGID_11_"  style="overflow:visible;"/>
			</clipPath>
			<path class="st7" d="M163,124.5c0-1.8,1.5-3.1,3.2-3.1c1.9,0,3.3,1.4,3.3,3.1c0,1.6-1.5,3-3.3,3C164.5,127.5,163,126.2,163,124.5
				"/>
		</g>
	</g>
	<g>
		<g>
			<defs>
				<rect id="SVGID_13_" x="30.6" y="21.2" width="184.2" height="153.5"/>
			</defs>
			<clipPath id="SVGID_14_">
				<use xlink:href="#SVGID_13_"  style="overflow:visible;"/>
			</clipPath>
			<path class="st8" d="M78.5,124.5c0-1.8,1.5-3.1,3.2-3.1c1.9,0,3.3,1.4,3.3,3.1c0,1.6-1.5,3-3.3,3C80,127.5,78.5,126.2,78.5,124.5
				"/>
		</g>
	</g>
	<g>
		<g>
			<defs>
				<rect id="SVGID_15_" x="30.6" y="21.2" width="184.2" height="153.5"/>
			</defs>
			<clipPath id="SVGID_16_">
				<use xlink:href="#SVGID_15_"  style="overflow:visible;"/>
			</clipPath>
			<path class="st9" d="M78.5,124.5c0-1.8,1.5-3.1,3.2-3.1c1.9,0,3.3,1.4,3.3,3.1c0,1.6-1.5,3-3.3,3C80,127.5,78.5,126.2,78.5,124.5
				"/>
		</g>
	</g>
	<g>
		<g>
			<defs>
				<rect id="SVGID_17_" x="30.6" y="21.2" width="184.2" height="153.5"/>
			</defs>
			<clipPath id="SVGID_18_">
				<use xlink:href="#SVGID_17_"  style="overflow:visible;"/>
			</clipPath>
			<ellipse class="st10" cx="123.3" cy="123.9" rx="9.8" ry="9.2"/>
		</g>
	</g>
	<g>
		<g>
			<defs>
				<rect id="SVGID_19_" x="30.6" y="21.2" width="184.2" height="153.5"/>
			</defs>
			<clipPath id="SVGID_20_">
				<use xlink:href="#SVGID_19_"  style="overflow:visible;"/>
			</clipPath>
			<path class="st11" d="M122,77.8c0.2,0.2,0.5,0.3,0.8,0.4c-0.1,0.5-0.3,0.8-0.4,0.9s-0.4,0.2-0.8,0.2H119c-0.5,0-0.8-0.2-0.8-0.7
				v-1.1h-1.9v0.9h-0.7c0-0.4,0-1.2,0-2.5s0-2.1,0-2.5h2.6c0-0.6,0-1,0-1.3h0.7c0,0.3,0,0.7,0,1.3h2.7c0,0.3,0,1,0,2s0,1.7,0,2.1
				h-2.7v0.9c0,0.3,0.2,0.4,0.5,0.4h1.8c0.4,0,0.6-0.1,0.6-0.2C121.9,78.3,122,78.1,122,77.8 M116.3,75h1.9v-1.2h-1.9V75z
				 M116.3,76.8h1.9v-1.3h-1.9V76.8z M118.9,75h2v-1.2h-2V75z M118.9,76.8h2v-1.3h-2V76.8z"/>
		</g>
	</g>
	<g>
		<g>
			<defs>
				<rect id="SVGID_21_" x="30.6" y="21.2" width="184.2" height="153.5"/>
			</defs>
			<clipPath id="SVGID_22_">
				<use xlink:href="#SVGID_21_"  style="overflow:visible;"/>
			</clipPath>
			<path class="st12" d="M125.4,74.8c0.1-0.3,0.2-0.6,0.3-1c0.1-0.3,0.2-0.7,0.3-1h-1v6.6h-0.8c0-0.7,0-1.3,0-2v-3.8
				c0-0.5,0-0.9,0-1.3h2.7c-0.3,0.9-0.6,1.7-0.8,2.4c0.3,0.5,0.6,0.9,0.7,1.1c0.1,0.3,0.2,0.6,0.1,0.9c0,0.3-0.2,0.5-0.4,0.7
				c-0.3,0.1-0.6,0.2-1,0.3c0-0.2-0.1-0.5-0.2-0.7c0.4,0,0.7,0,0.8-0.2c0.1-0.1,0.1-0.3,0.1-0.6c0-0.2-0.1-0.5-0.3-0.7
				C125.8,75.3,125.6,75,125.4,74.8 M127.3,72.3h3.8c0,0.3,0,0.8,0,1.3v4.8c0.3,0,0.6,0,1,0V79c-0.4,0-0.8,0-1.2,0h-3
				c-0.5,0-1,0-1.4,0v-0.6c0.3,0,0.6,0,0.9,0v-4.8C127.4,73.1,127.4,72.7,127.3,72.3 M128.1,74.3h2.3v-1.5h-2.3V74.3z M128.1,76.2
				h2.3v-1.3h-2.3V76.2z M128.1,78.4h2.3v-1.7h-2.3V78.4z"/>
		</g>
	</g>
	<g>
		<g>
			<defs>
				<rect id="SVGID_23_" x="30.6" y="21.2" width="184.2" height="153.5"/>
			</defs>
			<clipPath id="SVGID_24_">
				<use xlink:href="#SVGID_23_"  style="overflow:visible;"/>
			</clipPath>
			<path class="st13" d="M111.7,143.6c-0.2-0.2-0.4-0.3-0.6-0.3v0.7h1.5c0.3,0,0.7,0,1.2,0v0.6c-0.4,0-0.8,0-1.2,0h-2.2
				c0-0.5,0-0.9,0-1.2v-3.6c0-0.5,0-0.9,0-1.4h2.3c0.4,0,0.8,0,1.2,0v0.6c-0.4,0-0.8,0-1.2,0h-1.5v1c0.2-0.1,0.4-0.2,0.5-0.4
				c0.3,0.4,0.6,0.8,1,1.4c0.3-0.7,0.5-1.2,0.6-1.6c0.2,0.1,0.5,0.2,0.8,0.3c-0.1,0.2-0.3,0.5-0.5,0.8s-0.3,0.7-0.5,1
				c0.4,0.6,0.8,1.1,1,1.5c-0.3,0.1-0.5,0.3-0.6,0.4c-0.1-0.4-0.4-0.8-0.8-1.4C112.3,142.6,112,143.1,111.7,143.6 M111.1,139.8v3.3
				c0.2-0.2,0.5-0.5,0.7-0.8s0.4-0.6,0.5-0.9C111.8,140.7,111.4,140.2,111.1,139.8 M115.5,140.5c0.3,0,0.6,0,0.9,0.1
				c-0.1,0.2-0.2,0.5-0.2,0.7s0,0.4,0.1,0.7c0,0.2,0.2,0.7,0.6,1.3c0.3,0.6,0.9,1.1,1.6,1.5c-0.3,0.2-0.5,0.4-0.6,0.6
				c-0.4-0.3-0.7-0.6-1.1-1.1s-0.6-1-0.8-1.7c-0.2,0.8-0.5,1.4-0.8,1.8c-0.3,0.4-0.7,0.8-1,1c-0.3-0.2-0.5-0.3-0.8-0.4
				c0.5-0.3,0.9-0.6,1.1-0.9c0.3-0.3,0.5-0.6,0.6-1c0.2-0.3,0.3-0.8,0.3-1.3C115.5,141.3,115.5,140.8,115.5,140.5 M117.5,140.8
				c-0.2-0.1-0.5-0.1-0.7-0.1c0.2-0.4,0.3-0.8,0.3-1.1h-2c-0.2,0.5-0.4,1-0.6,1.5c-0.2-0.2-0.4-0.3-0.7-0.3c0.4-0.5,0.6-1.1,0.8-1.7
				c0.1-0.6,0.2-1.1,0.2-1.5c0.3,0.1,0.6,0.1,0.9,0.2c-0.1,0.2-0.2,0.3-0.3,0.5c0,0.2-0.1,0.4-0.2,0.7h2.7c-0.1,0.4-0.3,0.7-0.3,0.9
				C117.7,140.1,117.6,140.4,117.5,140.8"/>
		</g>
	</g>
	<g>
		<g>
			<defs>
				<rect id="SVGID_25_" x="30.6" y="21.2" width="184.2" height="153.5"/>
			</defs>
			<clipPath id="SVGID_26_">
				<use xlink:href="#SVGID_25_"  style="overflow:visible;"/>
			</clipPath>
			<path class="st14" d="M122.5,143.9c-0.1,0.1-0.3,0.3-0.5,0.4c-0.2-0.2-0.4-0.4-0.8-0.7c-0.2,0.2-0.4,0.5-0.7,0.8
				c-0.3,0.3-0.6,0.6-0.8,0.8c-0.1-0.1-0.3-0.2-0.6-0.4c0.3-0.2,0.6-0.4,0.9-0.7c0.3-0.2,0.5-0.6,0.8-1c-0.1-0.1-0.3-0.3-0.5-0.4
				c-0.2-0.1-0.5-0.3-0.8-0.5c0.2-0.4,0.3-0.8,0.4-1.2c0.1-0.3,0.2-0.7,0.3-1c-0.3,0-0.6,0-0.9,0v-0.6c0.3,0,0.7,0,1,0
				c0.1-0.3,0.2-0.6,0.3-1c0.1-0.3,0.1-0.7,0.1-1c0.3,0.1,0.5,0.2,0.8,0.2c-0.1,0.2-0.2,0.5-0.3,0.9c-0.1,0.4-0.2,0.7-0.3,0.9h1.3
				c-0.1,0.8-0.2,1.5-0.3,2.1c-0.1,0.6-0.3,1.1-0.4,1.4C122,143.4,122.3,143.7,122.5,143.9 M120.9,140.1c-0.1,0.3-0.2,0.6-0.3,1
				c-0.1,0.4-0.2,0.7-0.3,1c0.2,0.2,0.5,0.4,0.9,0.6c0.2-0.5,0.3-0.9,0.4-1.3c0.1-0.4,0.1-0.9,0.2-1.3H120.9z M125.2,145.4
				c-0.1-0.2-0.2-0.5-0.4-0.7c0.5,0,0.8,0,1-0.1s0.2-0.3,0.2-0.7h-3.3c0-0.5,0.1-1,0.1-1.5l0.1-1c-0.1,0-0.3,0-0.6,0v-0.6
				c0.3,0,0.5,0,0.6,0l0.1-1.3c0-0.7,0.1-1.2,0.1-1.4h3.9c0,0.2-0.1,0.7-0.1,1.4l-0.1,1.4c0.2,0,0.5,0,0.8,0v0.6c-0.3,0-0.6,0-0.8,0
				l-0.1,2c0.4,0,0.6,0,0.8,0v0.6c-0.2,0-0.5,0-0.8,0c0,0.7-0.1,1.1-0.3,1.2C126.2,145.3,125.8,145.4,125.2,145.4 M123.4,143.4h1.2
				h1.4l0.1-2h-2.6L123.4,143.4z M123.8,138.6l-0.1,2.3h2.6l0.1-2.3H123.8z M124.2,142c0.2-0.1,0.3-0.2,0.5-0.3
				c0.1,0.1,0.2,0.3,0.3,0.5c0.1,0.2,0.2,0.4,0.3,0.5c-0.1,0.1-0.3,0.2-0.5,0.3c-0.1-0.2-0.2-0.4-0.3-0.5
				C124.4,142.3,124.3,142.2,124.2,142 M125.4,140.1c-0.1,0.1-0.3,0.2-0.5,0.3c-0.1-0.3-0.3-0.5-0.3-0.6c-0.1-0.1-0.2-0.3-0.3-0.4
				c0.2-0.1,0.3-0.2,0.5-0.3c0.1,0.2,0.2,0.3,0.3,0.5C125.2,139.7,125.3,139.9,125.4,140.1"/>
		</g>
	</g>
	<g>
		<g>
			<defs>
				<rect id="SVGID_27_" x="30.6" y="21.2" width="184.2" height="153.5"/>
			</defs>
			<clipPath id="SVGID_28_">
				<use xlink:href="#SVGID_27_"  style="overflow:visible;"/>
			</clipPath>
			<path class="st15" d="M129.3,138.5c0.3,0,0.8,0,1.4,0h1.5c0-0.3,0-0.6,0-0.9h0.8c-0.1,0.3-0.1,0.6-0.1,0.9h2.1c0.3,0,0.7,0,1,0
				v0.7c-0.4,0-0.7-0.1-1-0.1h-2v0.7h1.7c0.4,0,0.7,0,1.1,0v0.7c-0.3,0-0.7-0.1-1.1-0.1H133v0.7h2.7c0.3,0,0.7,0,1.1-0.1v0.7
				c-0.4,0-0.7,0-1.1,0h-3.1c-0.2,0.3-0.4,0.6-0.8,0.9v1.7c0.4-0.2,0.8-0.5,1.1-0.7c0,0.3,0.1,0.5,0.2,0.7c-0.2,0.1-0.5,0.3-0.9,0.5
				c-0.3,0.2-0.6,0.4-0.8,0.7c-0.1-0.2-0.3-0.4-0.5-0.6c0.2-0.2,0.3-0.4,0.3-0.8v-0.9c-0.4,0.3-0.8,0.6-1.1,0.8s-0.7,0.4-0.9,0.5
				c-0.2-0.2-0.4-0.5-0.6-0.6c0.7-0.2,1.3-0.5,1.9-0.9c0.6-0.4,1-0.8,1.3-1.2H130c-0.4,0-0.9,0-1.3,0V141c0.3,0,0.7,0.1,1.4,0.1h2.2
				v-0.7h-1.5c-0.4,0-0.7,0-1,0v-0.6c0.4,0,0.7,0,1,0h1.5v-0.7h-1.7c-0.4,0-0.8,0-1.2,0.1L129.3,138.5L129.3,138.5z M132.6,142.2
				c0.2-0.1,0.5-0.1,0.6-0.2c0.1,0.4,0.3,0.8,0.6,1.2c0.5-0.3,0.9-0.8,1.2-1.2c0.2,0.2,0.5,0.4,0.7,0.6c-0.2,0.1-0.4,0.2-0.7,0.4
				s-0.5,0.5-0.8,0.7c0.2,0.2,0.6,0.4,1,0.5c0.5,0.1,0.9,0.2,1.3,0.2c-0.2,0.2-0.4,0.5-0.4,0.8c-1.2-0.3-2.1-0.7-2.6-1.2
				C133.2,143.4,132.9,142.8,132.6,142.2"/>
		</g>
	</g>
	<g>
		<g>
			<defs>
				<rect id="SVGID_29_" x="30.6" y="21.2" width="184.2" height="153.5"/>
			</defs>
			<clipPath id="SVGID_30_">
				<use xlink:href="#SVGID_29_"  style="overflow:visible;"/>
			</clipPath>
			<path class="st16" d="M125.2,128.5c2.3-0.8,3.9-2.8,3.9-5.2c0-3-2.6-5.4-5.8-5.4c-3.2,0-5.8,2.4-5.8,5.4c0,2.4,1.6,4.4,3.9,5.2
				H125.2z"/>
		</g>
	</g>
	<g>
		<g>
			<defs>
				<rect id="SVGID_31_" x="30.6" y="21.2" width="184.2" height="153.5"/>
			</defs>
			<clipPath id="SVGID_32_">
				<use xlink:href="#SVGID_31_"  style="overflow:visible;"/>
			</clipPath>
			<path class="st17" d="M124.5,127.3c1.8-0.5,3.2-2.1,3.2-4c0-2.3-2-4.2-4.5-4.2s-4.5,1.9-4.5,4.2c0,1.9,1.4,3.4,3.2,4H124.5z"/>
		</g>
	</g>
	<g>
		<g>
			<defs>
				<rect id="SVGID_33_" x="30.6" y="21.2" width="184.2" height="153.5"/>
			</defs>
			<clipPath id="SVGID_34_">
				<use xlink:href="#SVGID_33_"  style="overflow:visible;"/>
			</clipPath>
			<path class="st18" d="M122,127.3v2.6h-4.5v-2.7h0.8c0,1.1,0.5,1.3,1,1.3s2,0,2,0L122,127.3z"/>
		</g>
	</g>
	<g>
		<g>
			<defs>
				<rect id="SVGID_35_" x="30.6" y="21.2" width="184.2" height="153.5"/>
			</defs>
			<clipPath id="SVGID_36_">
				<use xlink:href="#SVGID_35_"  style="overflow:visible;"/>
			</clipPath>
			<path class="st19" d="M124.5,127.3v2.5h4.5v-2.6h-0.8c0,1.1-0.5,1.3-1,1.3s-2,0-2,0L124.5,127.3z"/>
		</g>
	</g>
	<g>
		<g>
			<defs>
				<rect id="SVGID_37_" x="30.6" y="21.2" width="184.2" height="153.5"/>
			</defs>
			<clipPath id="SVGID_38_">
				<use xlink:href="#SVGID_37_"  style="overflow:visible;"/>
			</clipPath>
			<path class="st20" d="M123.3,127.5c2.5,0,4.5-1.9,4.5-4.2c0-2.3-2-4.2-4.5-4.2s-4.5,1.9-4.5,4.2S120.8,127.5,123.3,127.5"/>
		</g>
	</g>
	<g>
		<g>
			<defs>
				<rect id="SVGID_39_" x="30.6" y="21.2" width="184.2" height="153.5"/>
			</defs>
			<clipPath id="SVGID_40_">
				<use xlink:href="#SVGID_39_"  style="overflow:visible;"/>
			</clipPath>
			<rect x="122" y="127.3" class="st21" width="2.5" height="2.6"/>
		</g>
	</g>
</g>
<rect x="105.7" y="70.5" class="st22" width="36.1" height="10.8"/>
<rect x="101.4" y="135.5" class="st22" width="42.6" height="12.2"/>
<text transform="matrix(1 0 0 1 101.3871 78.6453)" class="st23 st24">Resistance</text>
<rect x="97.6" y="139.2" class="st25" width="71" height="14.1"/>
<text transform="matrix(1 0 0 1 97.584 149.785)" class="st23 st24">Ohm gauge</text>
</svg>
