<?xml version="1.0" encoding="utf-8"?>
<!-- Generator: Adobe Illustrator 24.0.1, SVG Export Plug-In . SVG Version: 6.00 Build 0)  -->
<svg version="1.1" id="图层_1" xmlns="http://www.w3.org/2000/svg" xmlns:xlink="http://www.w3.org/1999/xlink" x="0px" y="0px"
	 viewBox="0 0 240.9 198.4" style="enable-background:new 0 0 240.9 198.4;" xml:space="preserve">
<style type="text/css">
	.st0{clip-path:url(#SVGID_2_);fill:none;stroke:#000000;stroke-width:1.083;stroke-linecap:square;}
	.st1{clip-path:url(#SVGID_4_);fill:none;stroke:#000000;stroke-width:1.083;stroke-linecap:square;}
	.st2{clip-path:url(#SVGID_6_);fill:none;stroke:#000000;stroke-width:1.083;stroke-linecap:square;}
	.st3{clip-path:url(#SVGID_8_);fill:none;stroke:#000000;stroke-width:1.083;stroke-linecap:square;}
	.st4{fill:none;stroke:#000000;stroke-width:0.542;}
	.st5{fill:none;stroke:#000000;stroke-width:0.271;stroke-linecap:round;stroke-linejoin:round;stroke-miterlimit:10;}
	.st6{fill:none;stroke:#000000;stroke-width:0.542;stroke-linecap:round;stroke-miterlimit:10;}
	.st7{fill:none;stroke:#000000;stroke-width:0.271;}
	.st8{clip-path:url(#SVGID_10_);fill:#FFFFFF;}
	.st9{clip-path:url(#SVGID_12_);fill:none;stroke:#000000;stroke-width:0.271;}
	.st10{clip-path:url(#SVGID_14_);fill:#FFFFFF;}
	.st11{clip-path:url(#SVGID_16_);fill:none;stroke:#000000;stroke-width:0.271;}
	.st12{clip-path:url(#SVGID_18_);fill:none;stroke:#000000;stroke-width:0.542;}
	.st13{clip-path:url(#SVGID_20_);fill:none;stroke:#000000;stroke-width:0.271;}
	.st14{clip-path:url(#SVGID_22_);fill:none;stroke:#000000;stroke-width:0.271;}
	.st15{clip-path:url(#SVGID_24_);fill:none;stroke:#000000;stroke-width:0.542;stroke-linecap:round;stroke-linejoin:round;}
	.st16{clip-path:url(#SVGID_26_);fill:none;stroke:#000000;stroke-width:0.542;stroke-linecap:round;stroke-linejoin:round;}
	.st17{clip-path:url(#SVGID_28_);fill:none;stroke:#000000;stroke-width:0.542;stroke-linecap:round;stroke-linejoin:round;}
	.st18{clip-path:url(#SVGID_30_);fill:none;stroke:#000000;stroke-width:0.542;stroke-linecap:round;stroke-linejoin:round;}
	.st19{clip-path:url(#SVGID_32_);fill:none;stroke:#000000;stroke-width:0.542;stroke-linecap:round;stroke-linejoin:round;}
	.st20{clip-path:url(#SVGID_34_);fill:none;stroke:#000000;stroke-width:0.542;stroke-linecap:round;stroke-linejoin:round;}
	.st21{clip-path:url(#SVGID_36_);}
	.st22{clip-path:url(#SVGID_38_);}
	.st23{clip-path:url(#SVGID_40_);}
	.st24{clip-path:url(#SVGID_42_);}
	.st25{clip-path:url(#SVGID_44_);fill:none;stroke:#000000;stroke-width:0.542;}
	.st26{clip-path:url(#SVGID_46_);fill:none;stroke:#000000;stroke-width:0.542;}
	.st27{clip-path:url(#SVGID_48_);fill:none;stroke:#000000;stroke-width:0.542;}
	.st28{clip-path:url(#SVGID_50_);fill:none;stroke:#000000;stroke-width:0.542;}
	.st29{clip-path:url(#SVGID_52_);fill:#FFFFFF;}
	.st30{clip-path:url(#SVGID_54_);fill:none;stroke:#000000;stroke-width:0.542;}
	.st31{clip-path:url(#SVGID_56_);fill:#FFFFFF;}
	.st32{clip-path:url(#SVGID_58_);fill:none;stroke:#000000;stroke-width:0.542;}
	.st33{clip-path:url(#SVGID_60_);}
	.st34{clip-path:url(#SVGID_62_);}
	.st35{clip-path:url(#SVGID_64_);}
	.st36{clip-path:url(#SVGID_66_);}
	.st37{clip-path:url(#SVGID_68_);}
	.st38{clip-path:url(#SVGID_70_);}
	.st39{clip-path:url(#SVGID_72_);}
	.st40{clip-path:url(#SVGID_74_);}
	.st41{clip-path:url(#SVGID_76_);}
	.st42{clip-path:url(#SVGID_78_);}
	.st43{clip-path:url(#SVGID_80_);}
	.st44{clip-path:url(#SVGID_82_);fill:none;stroke:#000000;stroke-width:0.542;}
	.st45{clip-path:url(#SVGID_84_);}
	.st46{clip-path:url(#SVGID_86_);}
	.st47{clip-path:url(#SVGID_88_);}
	.st48{clip-path:url(#SVGID_90_);}
	.st49{fill:#FFFFFF;}
	.st50{fill:none;}
	.st51{font-family:'AdobeSongStd-Light-GBpc-EUC-H';}
	.st52{font-size:6px;glyph-orientation-vertical:1;writing-mode:tb;}
	.st53{font-size:6px;}
</style>
<polygon points="28.8,22.8 29.8,23.8 214.1,23.8 215.1,22.8 "/>
<polygon points="29.8,177.3 28.8,178.3 215.1,178.3 214.1,177.3 "/>
<polygon points="28.8,178.3 29.8,177.3 29.8,23.8 28.8,22.8 "/>
<polygon points="214.1,23.8 214.1,177.3 215.1,178.3 215.1,22.8 "/>
<g>
	<g>
		<g>
			<defs>
				<rect id="SVGID_1_" x="29.8" y="23.8" width="184.2" height="153.5"/>
			</defs>
			<clipPath id="SVGID_2_">
				<use xlink:href="#SVGID_1_"  style="overflow:visible;"/>
			</clipPath>
			<line class="st0" x1="29.8" y1="23.8" x2="214" y2="23.8"/>
		</g>
	</g>
	<g>
		<g>
			<defs>
				<rect id="SVGID_3_" x="29.8" y="23.8" width="184.2" height="153.5"/>
			</defs>
			<clipPath id="SVGID_4_">
				<use xlink:href="#SVGID_3_"  style="overflow:visible;"/>
			</clipPath>
			<line class="st1" x1="29.8" y1="23.8" x2="29.8" y2="177.3"/>
		</g>
	</g>
	<g>
		<g>
			<defs>
				<rect id="SVGID_5_" x="29.8" y="23.8" width="184.2" height="153.5"/>
			</defs>
			<clipPath id="SVGID_6_">
				<use xlink:href="#SVGID_5_"  style="overflow:visible;"/>
			</clipPath>
			<line class="st2" x1="214" y1="177.3" x2="29.8" y2="177.3"/>
		</g>
	</g>
	<g>
		<g>
			<defs>
				<rect id="SVGID_7_" x="29.8" y="23.8" width="184.2" height="153.5"/>
			</defs>
			<clipPath id="SVGID_8_">
				<use xlink:href="#SVGID_7_"  style="overflow:visible;"/>
			</clipPath>
			<line class="st3" x1="214" y1="177.3" x2="214" y2="23.8"/>
		</g>
	</g>
</g>
<line class="st4" x1="76.6" y1="129.5" x2="76.6" y2="142"/>
<line class="st4" x1="69.4" y1="142" x2="83.7" y2="142"/>
<line class="st4" x1="72.3" y1="144.1" x2="80.8" y2="144.1"/>
<line class="st4" x1="79" y1="146.2" x2="74.1" y2="146.2"/>
<line class="st4" x1="172.8" y1="118.2" x2="172.8" y2="141.9"/>
<line class="st4" x1="165.6" y1="141.9" x2="180" y2="141.9"/>
<line class="st4" x1="168.6" y1="144" x2="177.1" y2="144"/>
<line class="st4" x1="175.3" y1="146.1" x2="170.3" y2="146.1"/>
<polyline class="st5" points="142.7,53.3 137.4,56.2 126.6,56.2 "/>
<line class="st5" x1="153.6" y1="56.3" x2="144.2" y2="56.3"/>
<rect x="129.1" y="49.7" class="st6" width="24" height="13.5"/>
<line class="st7" x1="71.5" y1="83.3" x2="81.6" y2="83.3"/>
<line class="st7" x1="73.5" y1="86.2" x2="79.6" y2="86.2"/>
<line class="st7" x1="71.5" y1="89.8" x2="81.6" y2="89.8"/>
<line class="st7" x1="73.5" y1="92.7" x2="79.6" y2="92.7"/>
<line class="st7" x1="71.5" y1="96.4" x2="81.6" y2="96.4"/>
<line class="st7" x1="73.5" y1="99.2" x2="79.6" y2="99.2"/>
<line class="st7" x1="71.5" y1="102.9" x2="81.6" y2="102.9"/>
<line class="st7" x1="73.5" y1="105.8" x2="79.6" y2="105.8"/>
<line class="st7" x1="71.5" y1="109.4" x2="81.6" y2="109.4"/>
<line class="st7" x1="73.5" y1="112.3" x2="79.6" y2="112.3"/>
<line class="st7" x1="71.5" y1="115.9" x2="81.6" y2="115.9"/>
<line class="st7" x1="73.5" y1="118.8" x2="79.6" y2="118.8"/>
<rect x="69.3" y="78.9" class="st4" width="14.6" height="44.2"/>
<line class="st7" x1="76.6" y1="119" x2="76.6" y2="128.1"/>
<line class="st7" x1="76.6" y1="73.5" x2="76.6" y2="83.3"/>
<g>
	<g>
		<g>
			<defs>
				<rect id="SVGID_9_" x="29.8" y="23.8" width="184.2" height="153.5"/>
			</defs>
			<clipPath id="SVGID_10_">
				<use xlink:href="#SVGID_9_"  style="overflow:visible;"/>
			</clipPath>
			<path class="st8" d="M75.3,129c0-0.7,0.6-1.2,1.2-1.2c0.4,0,0.7,0.1,0.9,0.4c0.2,0.2,0.4,0.5,0.4,0.9c0,0.6-0.6,1.2-1.3,1.2
				C75.8,130.1,75.3,129.6,75.3,129"/>
		</g>
	</g>
	<g>
		<g>
			<defs>
				<rect id="SVGID_11_" x="29.8" y="23.8" width="184.2" height="153.5"/>
			</defs>
			<clipPath id="SVGID_12_">
				<use xlink:href="#SVGID_11_"  style="overflow:visible;"/>
			</clipPath>
			<path class="st9" d="M75.3,129c0-0.7,0.6-1.2,1.2-1.2c0.4,0,0.7,0.1,0.9,0.4c0.2,0.2,0.4,0.5,0.4,0.9c0,0.6-0.6,1.2-1.3,1.2
				C75.8,130.1,75.3,129.6,75.3,129"/>
		</g>
	</g>
	<g>
		<g>
			<defs>
				<rect id="SVGID_13_" x="29.8" y="23.8" width="184.2" height="153.5"/>
			</defs>
			<clipPath id="SVGID_14_">
				<use xlink:href="#SVGID_13_"  style="overflow:visible;"/>
			</clipPath>
			<path class="st10" d="M75.3,72.5c0-0.7,0.6-1.2,1.2-1.2c0.7,0,1.3,0.5,1.3,1.2c0,0.6-0.6,1.2-1.3,1.2
				C75.8,73.7,75.3,73.2,75.3,72.5"/>
		</g>
	</g>
	<g>
		<g>
			<defs>
				<rect id="SVGID_15_" x="29.8" y="23.8" width="184.2" height="153.5"/>
			</defs>
			<clipPath id="SVGID_16_">
				<use xlink:href="#SVGID_15_"  style="overflow:visible;"/>
			</clipPath>
			<path class="st11" d="M75.3,72.5c0-0.7,0.6-1.2,1.2-1.2c0.7,0,1.3,0.5,1.3,1.2c0,0.6-0.6,1.2-1.3,1.2
				C75.8,73.7,75.3,73.2,75.3,72.5"/>
		</g>
	</g>
	<g>
		<g>
			<defs>
				<rect id="SVGID_17_" x="29.8" y="23.8" width="184.2" height="153.5"/>
			</defs>
			<clipPath id="SVGID_18_">
				<use xlink:href="#SVGID_17_"  style="overflow:visible;"/>
			</clipPath>
			<ellipse class="st12" cx="172.8" cy="111.5" rx="7.1" ry="6.7"/>
		</g>
	</g>
	<g>
		<g>
			<defs>
				<rect id="SVGID_19_" x="29.8" y="23.8" width="184.2" height="153.5"/>
			</defs>
			<clipPath id="SVGID_20_">
				<use xlink:href="#SVGID_19_"  style="overflow:visible;"/>
			</clipPath>
			<line class="st13" x1="168.3" y1="106.8" x2="178.2" y2="116.1"/>
		</g>
	</g>
	<g>
		<g>
			<defs>
				<rect id="SVGID_21_" x="29.8" y="23.8" width="184.2" height="153.5"/>
			</defs>
			<clipPath id="SVGID_22_">
				<use xlink:href="#SVGID_21_"  style="overflow:visible;"/>
			</clipPath>
			<line class="st14" x1="177.8" y1="106.8" x2="167.9" y2="116.1"/>
		</g>
	</g>
	<g>
		<g>
			<defs>
				<rect id="SVGID_23_" x="29.8" y="23.8" width="184.2" height="153.5"/>
			</defs>
			<clipPath id="SVGID_24_">
				<use xlink:href="#SVGID_23_"  style="overflow:visible;"/>
			</clipPath>
			<line class="st15" x1="172.8" y1="86.6" x2="172.8" y2="104.8"/>
		</g>
	</g>
	<g>
		<g>
			<defs>
				<rect id="SVGID_25_" x="29.8" y="23.8" width="184.2" height="153.5"/>
			</defs>
			<clipPath id="SVGID_26_">
				<use xlink:href="#SVGID_25_"  style="overflow:visible;"/>
			</clipPath>
			<line class="st16" x1="172.8" y1="56.3" x2="172.8" y2="73.3"/>
		</g>
	</g>
	<g>
		<g>
			<defs>
				<rect id="SVGID_27_" x="29.8" y="23.8" width="184.2" height="153.5"/>
			</defs>
			<clipPath id="SVGID_28_">
				<use xlink:href="#SVGID_27_"  style="overflow:visible;"/>
			</clipPath>
			<line class="st17" x1="153.4" y1="56.3" x2="172.6" y2="56.3"/>
		</g>
	</g>
	<g>
		<g>
			<defs>
				<rect id="SVGID_29_" x="29.8" y="23.8" width="184.2" height="153.5"/>
			</defs>
			<clipPath id="SVGID_30_">
				<use xlink:href="#SVGID_29_"  style="overflow:visible;"/>
			</clipPath>
			<line class="st18" x1="117" y1="56.3" x2="129.1" y2="56.3"/>
		</g>
	</g>
	<g>
		<g>
			<defs>
				<rect id="SVGID_31_" x="29.8" y="23.8" width="184.2" height="153.5"/>
			</defs>
			<clipPath id="SVGID_32_">
				<use xlink:href="#SVGID_31_"  style="overflow:visible;"/>
			</clipPath>
			<line class="st19" x1="76.6" y1="56.3" x2="92.2" y2="56.3"/>
		</g>
	</g>
	<g>
		<g>
			<defs>
				<rect id="SVGID_33_" x="29.8" y="23.8" width="184.2" height="153.5"/>
			</defs>
			<clipPath id="SVGID_34_">
				<use xlink:href="#SVGID_33_"  style="overflow:visible;"/>
			</clipPath>
			<line class="st20" x1="76.6" y1="71" x2="76.6" y2="56.3"/>
		</g>
	</g>
	<g>
		<g>
			<defs>
				<rect id="SVGID_35_" x="29.8" y="23.8" width="184.2" height="153.5"/>
			</defs>
			<clipPath id="SVGID_36_">
				<use xlink:href="#SVGID_35_"  style="overflow:visible;"/>
			</clipPath>
			<polygon class="st21" points="80.8,74 80.8,72.7 79.5,72.7 79.5,72.2 80.8,72.2 80.8,71 81.4,71 81.4,72.2 82.7,72.2 82.7,72.7 
				81.4,72.7 81.4,74 			"/>
		</g>
	</g>
	<g>
		<g>
			<defs>
				<rect id="SVGID_37_" x="29.8" y="23.8" width="184.2" height="153.5"/>
			</defs>
			<clipPath id="SVGID_38_">
				<use xlink:href="#SVGID_37_"  style="overflow:visible;"/>
			</clipPath>
			<rect x="80.2" y="127.7" class="st22" width="1.8" height="0.6"/>
		</g>
	</g>
	<g>
		<g>
			<defs>
				<rect id="SVGID_39_" x="29.8" y="23.8" width="184.2" height="153.5"/>
			</defs>
			<clipPath id="SVGID_40_">
				<use xlink:href="#SVGID_39_"  style="overflow:visible;"/>
			</clipPath>
			<polygon class="st23" points="178.2,73.6 178.2,72.4 176.9,72.4 176.9,71.9 178.2,71.9 178.2,70.6 178.8,70.6 178.8,71.9 
				180.1,71.9 180.1,72.4 178.8,72.4 178.8,73.6 			"/>
		</g>
	</g>
	<g>
		<g>
			<defs>
				<rect id="SVGID_41_" x="29.8" y="23.8" width="184.2" height="153.5"/>
			</defs>
			<clipPath id="SVGID_42_">
				<use xlink:href="#SVGID_41_"  style="overflow:visible;"/>
			</clipPath>
			<rect x="177.6" y="88.1" class="st24" width="1.8" height="0.6"/>
		</g>
	</g>
	<g>
		<g>
			<defs>
				<rect id="SVGID_43_" x="29.8" y="23.8" width="184.2" height="153.5"/>
			</defs>
			<clipPath id="SVGID_44_">
				<use xlink:href="#SVGID_43_"  style="overflow:visible;"/>
			</clipPath>
			<ellipse class="st25" cx="94.9" cy="56.4" rx="2.6" ry="2.4"/>
		</g>
	</g>
	<g>
		<g>
			<defs>
				<rect id="SVGID_45_" x="29.8" y="23.8" width="184.2" height="153.5"/>
			</defs>
			<clipPath id="SVGID_46_">
				<use xlink:href="#SVGID_45_"  style="overflow:visible;"/>
			</clipPath>
			<ellipse class="st26" cx="114" cy="56.4" rx="2.6" ry="2.4"/>
		</g>
	</g>
	<g>
		<g>
			<defs>
				<rect id="SVGID_47_" x="29.8" y="23.8" width="184.2" height="153.5"/>
			</defs>
			<clipPath id="SVGID_48_">
				<use xlink:href="#SVGID_47_"  style="overflow:visible;"/>
			</clipPath>
			<path class="st27" d="M111.6,57.8c-2.9,0.1-3.7-0.2-5-1.4c-1.5-1.4-1.9-2.6-4.3-3.1c-1.8-0.4-4.1,0.1-5.4,1.3"/>
		</g>
	</g>
	<g>
		<g>
			<defs>
				<rect id="SVGID_49_" x="29.8" y="23.8" width="184.2" height="153.5"/>
			</defs>
			<clipPath id="SVGID_50_">
				<use xlink:href="#SVGID_49_"  style="overflow:visible;"/>
			</clipPath>
			<path class="st28" d="M96.9,54.6c0.9-0.2,3.4,0.1,4.3,0.7c1.4,1,2.4,2.9,4.6,3.6c3.3,1,5.4-0.8,5.8-1.2"/>
		</g>
	</g>
	<g>
		<g>
			<defs>
				<rect id="SVGID_51_" x="29.8" y="23.8" width="184.2" height="153.5"/>
			</defs>
			<clipPath id="SVGID_52_">
				<use xlink:href="#SVGID_51_"  style="overflow:visible;"/>
			</clipPath>
			<path class="st29" d="M170.4,64.2c0-1.3,1.1-2.3,2.3-2.3c1.4,0,2.5,1,2.5,2.3c0,1.2-1.1,2.2-2.5,2.2
				C171.5,66.4,170.4,65.4,170.4,64.2"/>
		</g>
	</g>
	<g>
		<g>
			<defs>
				<rect id="SVGID_53_" x="29.8" y="23.8" width="184.2" height="153.5"/>
			</defs>
			<clipPath id="SVGID_54_">
				<use xlink:href="#SVGID_53_"  style="overflow:visible;"/>
			</clipPath>
			<path class="st30" d="M170.4,64.2c0-1.3,1.1-2.3,2.3-2.3c1.4,0,2.5,1,2.5,2.3c0,1.2-1.1,2.2-2.5,2.2
				C171.5,66.4,170.4,65.4,170.4,64.2"/>
		</g>
	</g>
	<g>
		<g>
			<defs>
				<rect id="SVGID_55_" x="29.8" y="23.8" width="184.2" height="153.5"/>
			</defs>
			<clipPath id="SVGID_56_">
				<use xlink:href="#SVGID_55_"  style="overflow:visible;"/>
			</clipPath>
			<path class="st31" d="M170.4,95.8c0-1.3,1.1-2.3,2.3-2.3c1.4,0,2.5,1,2.5,2.3c0,1.2-1.1,2.2-2.5,2.2
				C171.5,98,170.4,97,170.4,95.8"/>
		</g>
	</g>
	<g>
		<g>
			<defs>
				<rect id="SVGID_57_" x="29.8" y="23.8" width="184.2" height="153.5"/>
			</defs>
			<clipPath id="SVGID_58_">
				<use xlink:href="#SVGID_57_"  style="overflow:visible;"/>
			</clipPath>
			<path class="st32" d="M170.4,95.8c0-1.3,1.1-2.3,2.3-2.3c1.4,0,2.5,1,2.5,2.3c0,1.2-1.1,2.2-2.5,2.2
				C171.5,98,170.4,97,170.4,95.8"/>
		</g>
	</g>
	<g>
		<g>
			<defs>
				<rect id="SVGID_59_" x="29.8" y="23.8" width="184.2" height="153.5"/>
			</defs>
			<clipPath id="SVGID_60_">
				<use xlink:href="#SVGID_59_"  style="overflow:visible;"/>
			</clipPath>
			<path class="st33" d="M62.5,93.5c0.1,0,0.3-0.1,0.5-0.1c0,0.2,0.1,0.3,0.1,0.4h1.6c0.4,0,0.7,0,1.1,0v0.4c-0.4,0-0.7,0-1.1,0h-2
				c-0.3,0.2-0.5,0.4-0.6,0.4h1.2c0.3-0.1,0.5-0.3,0.6-0.3c0.1,0.1,0.3,0.2,0.5,0.3c-0.2,0-0.3,0.1-0.4,0.1s-0.2,0.1-0.4,0.2
				s-0.4,0.2-0.6,0.3c-0.2,0.1-0.5,0.2-0.9,0.3c1,0,1.7-0.1,2.1-0.1c-0.1-0.1-0.2-0.1-0.3-0.2c0.1-0.1,0.2-0.2,0.3-0.2
				c0.2,0.1,0.5,0.3,0.7,0.4s0.4,0.3,0.6,0.4c-0.1,0.1-0.3,0.2-0.4,0.3C65,96,65,95.9,64.9,95.9c-0.1-0.1-0.2-0.1-0.3-0.2
				c-0.4,0-0.9,0.1-1.7,0.1c-0.7,0-1.5,0.1-2.4,0.2c0-0.1-0.1-0.3-0.1-0.4c0.4,0,0.6-0.1,0.8-0.1c0.1,0,0.3-0.1,0.6-0.2
				c0.2-0.1,0.5-0.2,0.9-0.3c-0.3,0-0.6,0-0.9,0c-0.3,0-0.6,0.1-0.9,0.1c0-0.1-0.1-0.3-0.1-0.4c0.2,0,0.5-0.1,0.7-0.1
				s0.4-0.2,0.7-0.3H61c-0.4,0-0.8,0-1.1,0v-0.4c0.4,0,0.7,0,1.1,0h1.6C62.6,93.7,62.6,93.6,62.5,93.5 M60,92.8c0.3,0,0.5,0,0.8,0
				h0.8c0-0.2,0-0.3,0-0.5h0.5c0,0.2-0.1,0.4-0.1,0.5h1.5c0-0.2,0-0.3,0-0.5H64c0,0.2,0,0.4,0,0.5h1c0.2,0,0.5,0,0.8,0v0.4
				c-0.3,0-0.5,0-0.8,0h-1c0,0.1,0,0.2,0,0.3h-0.5v-0.3H62v0.3h-0.5c0-0.1,0-0.2,0-0.3h-0.8c-0.2,0-0.5,0-0.8,0L60,92.8L60,92.8z
				 M60.7,96H65c0,0.3,0,0.6,0,1s0,0.7,0,1h-0.5v-0.2h-3.3v0.3h-0.5c0-0.3,0-0.7,0-1.1C60.7,96.6,60.7,96.3,60.7,96 M61.2,96.8h1.5
				v-0.4h-1.5V96.8z M61.2,97.5h1.5v-0.4h-1.5V97.5z M63.1,96.8h1.4v-0.4h-1.4V96.8z M63.1,97.5h1.4v-0.4h-1.4V97.5z"/>
		</g>
	</g>
	<g>
		<g>
			<defs>
				<rect id="SVGID_61_" x="29.8" y="23.8" width="184.2" height="153.5"/>
			</defs>
			<clipPath id="SVGID_62_">
				<use xlink:href="#SVGID_61_"  style="overflow:visible;"/>
			</clipPath>
			<path class="st34" d="M65.3,103.1c0.2,0.1,0.4,0.2,0.6,0.3c-0.1,0.3-0.2,0.6-0.3,0.7c-0.1,0.1-0.3,0.2-0.6,0.2h-1.9
				c-0.4,0-0.6-0.2-0.6-0.5V103h-1.4v0.6h-0.5c0-0.3,0-0.9,0-1.8s0-1.5,0-1.8h1.9c0-0.4,0-0.8,0-1H63c0,0.2,0,0.5,0,1h2
				c0,0.2,0,0.7,0,1.5c0,0.7,0,1.3,0,1.6h-2v0.7c0,0.2,0.1,0.3,0.4,0.3h1.3c0.3,0,0.4-0.1,0.5-0.2C65.2,103.5,65.3,103.3,65.3,103.1
				 M61.1,101.1h1.4v-0.9h-1.4V101.1z M61.1,102.4h1.4v-0.9h-1.4V102.4z M63,101.1h1.5v-0.9H63V101.1z M63,102.4h1.5v-0.9H63V102.4z
				"/>
		</g>
	</g>
	<g>
		<g>
			<defs>
				<rect id="SVGID_63_" x="29.8" y="23.8" width="184.2" height="153.5"/>
			</defs>
			<clipPath id="SVGID_64_">
				<use xlink:href="#SVGID_63_"  style="overflow:visible;"/>
			</clipPath>
			<path class="st35" d="M59.8,107.3c0.1-0.1,0.2-0.3,0.3-0.4c0.3,0.1,0.7,0.4,1.1,0.6c-0.1,0.1-0.2,0.3-0.3,0.4
				C60.6,107.7,60.2,107.5,59.8,107.3 M60.9,108.4c0.2,0.1,0.4,0.2,0.6,0.3c-0.1,0.1-0.3,0.4-0.5,0.9c-0.2,0.4-0.4,0.8-0.5,1.1
				c-0.2-0.1-0.4-0.2-0.7-0.3c0.2-0.2,0.4-0.5,0.6-0.9C60.7,109,60.8,108.7,60.9,108.4 M60.3,105.7c0.1-0.1,0.2-0.3,0.4-0.4
				c0.3,0.2,0.6,0.5,1,0.7c-0.2,0.1-0.3,0.3-0.4,0.4C60.9,106.2,60.6,105.9,60.3,105.7 M61.4,107.6l0.8-0.2v-0.6c0-0.2,0-0.5,0-0.7
				h0.5c0,0.3,0,0.5,0,0.7v0.5l0.9-0.2v-1c0-0.3,0-0.6,0-0.8h0.6c0,0.2,0,0.5-0.1,0.8v0.8l1.5-0.5l-0.2,2.1c0,0.3-0.1,0.4-0.2,0.5
				s-0.3,0.1-0.6,0.2c0-0.2-0.1-0.3-0.3-0.5c0.3,0,0.4,0,0.5-0.1c0.1,0,0.1-0.2,0.1-0.4L65,107l-0.9,0.3v1.5c0,0.2,0,0.5,0,0.8h-0.5
				c0-0.3,0-0.6,0-0.8v-1.3l-0.9,0.2v2.1c0,0.2,0.1,0.3,0.4,0.3h1.7c0.2,0,0.3,0,0.4-0.1s0.1-0.3,0.1-0.6c0.2,0.1,0.4,0.2,0.6,0.3
				c-0.1,0.3-0.2,0.5-0.3,0.7c-0.1,0.1-0.4,0.2-0.7,0.2h-2.1c-0.4,0-0.6-0.2-0.6-0.5v-2.2l-0.7,0.2L61.4,107.6z"/>
		</g>
	</g>
	<g>
		<g>
			<defs>
				<rect id="SVGID_65_" x="29.8" y="23.8" width="184.2" height="153.5"/>
			</defs>
			<clipPath id="SVGID_66_">
				<use xlink:href="#SVGID_65_"  style="overflow:visible;"/>
			</clipPath>
			<path class="st36" d="M95.9,64.5c0.2,0.1,0.4,0.2,0.7,0.3c-0.1,0.1-0.2,0.3-0.3,0.5c-0.1,0.2-0.2,0.4-0.3,0.6v3
				c0,0.5,0,0.9,0,1.2h-0.6c0-0.2,0-0.6,0-1.1v-2.2c-0.2,0.3-0.4,0.7-0.6,0.9c-0.1-0.2-0.2-0.3-0.3-0.4c0.4-0.4,0.7-0.8,0.9-1.3
				C95.6,65.4,95.8,65,95.9,64.5 M97.1,64.7h3c0,0.3,0,0.6,0,1s0,0.7,0,0.9h-1.2v0.7h0.8c0.5,0,0.8,0,1.1,0v0.5c-0.3,0-0.7,0-1.1,0
				h-0.4c0.2,0.3,0.4,0.6,0.7,0.9c0.3,0.2,0.6,0.4,1,0.5c-0.1,0.1-0.3,0.3-0.4,0.5c-0.5-0.2-0.9-0.5-1.1-0.8s-0.4-0.6-0.6-1v1.3
				c0,0.4,0,0.6,0,0.8h-0.6c0-0.2,0-0.5,0-0.8v-1.5c-0.4,0.8-0.9,1.5-1.6,2c-0.1-0.1-0.3-0.3-0.5-0.4c0.7-0.3,1.2-0.9,1.6-1.6h-0.4
				c-0.4,0-0.7,0-1,0v-0.5c0.3,0,0.6,0,0.9,0h1v-0.7h-1.2c0-0.2,0-0.5,0-0.9C97.1,65.3,97.1,65,97.1,64.7 M97.6,66.2h1.9v-1h-1.9
				V66.2z"/>
		</g>
	</g>
	<g>
		<g>
			<defs>
				<rect id="SVGID_67_" x="29.8" y="23.8" width="184.2" height="153.5"/>
			</defs>
			<clipPath id="SVGID_68_">
				<use xlink:href="#SVGID_67_"  style="overflow:visible;"/>
			</clipPath>
			<path class="st37" d="M101.7,65h1.9c-0.1,0.2-0.2,0.5-0.3,0.8c-0.1,0.4-0.2,0.7-0.4,1.1c0.2,0.3,0.4,0.6,0.5,0.8
				c0.1,0.2,0.1,0.5,0.1,0.7s-0.1,0.4-0.3,0.5s-0.4,0.2-0.6,0.2c-0.1-0.2-0.1-0.4-0.2-0.5c0.3,0,0.5-0.1,0.6-0.2c0-0.1,0-0.3,0-0.5
				s-0.2-0.5-0.5-1c0.3-0.8,0.4-1.3,0.5-1.7h-0.7V70h-0.5c0-0.3,0-0.7,0-1v-3C101.8,65.7,101.7,65.3,101.7,65 M105,64.5
				c0.2,0.1,0.5,0.2,0.7,0.2l-0.1,0.1c0.3,0.5,0.6,0.9,1,1.1c0.3,0.2,0.7,0.4,1.1,0.6c-0.2,0.1-0.3,0.3-0.4,0.4
				c-0.3-0.1-0.6-0.4-1-0.7v0.4c-0.2,0-0.4,0-0.6,0H105c-0.3,0-0.5,0-0.7,0v-0.2c-0.3,0.3-0.5,0.5-0.7,0.7c-0.1-0.1-0.3-0.3-0.5-0.4
				c0.3-0.2,0.6-0.5,1-0.9C104.5,65.5,104.8,65,105,64.5 M106.1,67.2c0.2,0.1,0.4,0.1,0.7,0.2c-0.1,0.1-0.3,0.4-0.4,0.8
				s-0.3,0.8-0.4,1.2c0.5,0,0.8,0,1.1,0v0.4c-0.2,0-0.5,0-0.8,0h-2.1c-0.4,0-0.7,0-1,0v-0.4c0.3,0,0.7,0,1.1,0h1.2
				c0.2-0.5,0.3-1,0.4-1.3C106.1,67.7,106.1,67.5,106.1,67.2 M103.8,67.5c0.2,0,0.3-0.1,0.4-0.1c0.1,0.4,0.3,0.9,0.4,1.5
				c-0.2,0-0.3,0.1-0.4,0.1C104.1,68.6,104,68.1,103.8,67.5 M105.3,65.1c-0.2,0.4-0.5,0.8-0.8,1.2h1.8
				C105.9,66.1,105.6,65.7,105.3,65.1 M104.8,67.3c0.2,0,0.3,0,0.4-0.1c0.1,0.4,0.2,0.9,0.3,1.4c-0.2,0-0.3,0-0.5,0
				C105,68,104.9,67.5,104.8,67.3"/>
		</g>
	</g>
	<g>
		<g>
			<defs>
				<rect id="SVGID_69_" x="29.8" y="23.8" width="184.2" height="153.5"/>
			</defs>
			<clipPath id="SVGID_70_">
				<use xlink:href="#SVGID_69_"  style="overflow:visible;"/>
			</clipPath>
			<path class="st38" d="M109.6,64.5c0.2,0.1,0.4,0.2,0.7,0.3c-0.2,0.1-0.6,0.7-1.2,1.8c0.1,0,0.5,0,1.1-0.1
				c0.2-0.3,0.4-0.6,0.4-0.7c0.2,0.1,0.4,0.2,0.6,0.2c-0.1,0.1-0.4,0.3-0.6,0.7s-0.7,0.8-1.1,1.4c0.7,0,1.2-0.1,1.5-0.1l-0.1,0.4
				c-1.1,0.1-1.8,0.1-2.1,0.2c0-0.2-0.1-0.4-0.2-0.5c0.3,0,0.7-0.4,1.2-1.2c-0.6,0-1,0.1-1.2,0.2c0-0.1-0.1-0.3-0.2-0.5
				c0.2-0.1,0.4-0.4,0.7-0.8C109.3,65.5,109.5,65,109.6,64.5 M108.3,69.3c0.4,0,0.9,0,1.3,0h3.2c0.4,0,0.8,0,1.2,0v0.5
				c-0.4,0-0.8,0-1.2,0h-3.3c-0.4,0-0.9,0-1.3,0v-0.5H108.3z M112.4,64.6c0.3,0.1,0.5,0.2,0.7,0.2c-0.2,0.2-0.4,0.5-0.6,0.8
				c-0.2,0.4-0.4,0.7-0.6,1.1c0.2,0,0.4,0,0.9,0c0.2-0.3,0.4-0.5,0.5-0.8c0.3,0.1,0.5,0.2,0.6,0.2c-0.2,0.2-0.5,0.5-0.8,0.9
				s-0.6,0.7-0.9,1.1c0.8,0,1.3-0.1,1.7-0.2l-0.1,0.5c-0.3,0-0.6,0-1.1,0c-0.4,0-0.8,0.1-1.1,0.2c-0.1-0.2-0.1-0.3-0.2-0.5
				c0.3-0.1,0.7-0.4,1.2-1.1c-0.5,0-0.9,0.1-1.1,0.2c-0.1-0.1-0.1-0.3-0.2-0.4c0.2-0.1,0.5-0.4,0.8-0.9
				C112.2,65.3,112.3,64.9,112.4,64.6"/>
		</g>
	</g>
	<g>
		<g>
			<defs>
				<rect id="SVGID_71_" x="29.8" y="23.8" width="184.2" height="153.5"/>
			</defs>
			<clipPath id="SVGID_72_">
				<use xlink:href="#SVGID_71_"  style="overflow:visible;"/>
			</clipPath>
			<path class="st39" d="M135.7,67.1v-1.7c-0.5,0-1,0-1.4,0v-0.5c0.4,0,0.8,0,1.2,0h2.8c0.3,0,0.7,0,1.1,0v0.5c-0.4,0-0.8,0-1.2,0
				v1.7h0.5c0.3,0,0.7,0,1.1,0v0.5c-0.4,0-0.8,0-1.1,0H138v1.3c0,0.4,0,0.8,0,1.3h-0.6c0-0.5,0-0.9,0-1.3v-1.3h-1.3
				c0,0.3-0.1,0.6-0.2,0.8c-0.1,0.3-0.2,0.5-0.4,0.8s-0.5,0.6-1,1c-0.1-0.2-0.3-0.3-0.6-0.4c0.3-0.1,0.6-0.3,0.9-0.5
				c0.2-0.2,0.4-0.5,0.6-0.8c0.1-0.3,0.2-0.6,0.2-0.9H135c-0.4,0-0.9,0-1.3,0v-0.5c0.4,0,0.8,0,1.3,0H135.7z M136.2,67.1h1.3v-1.7
				h-1.3V67.1z"/>
		</g>
	</g>
	<g>
		<g>
			<defs>
				<rect id="SVGID_73_" x="29.8" y="23.8" width="184.2" height="153.5"/>
			</defs>
			<clipPath id="SVGID_74_">
				<use xlink:href="#SVGID_73_"  style="overflow:visible;"/>
			</clipPath>
			<path class="st40" d="M144.3,64.5c0.2,0.1,0.4,0.2,0.7,0.3c-0.1,0.1-0.2,0.2-0.3,0.4c-0.1,0.2-0.2,0.4-0.3,0.5h0.6
				c0.3,0,0.7,0,1,0v0.4c-0.2,0-0.5,0-0.9,0h-1.4v1.3h1.7c0.4,0,0.7,0,1,0v0.4c-0.3,0-0.6,0-0.9,0h-1.6c0.5,0.9,1.5,1.5,2.7,1.7
				c-0.2,0.2-0.3,0.4-0.4,0.6c-1.1-0.3-2-1-2.6-1.9c-0.3,0.7-1.1,1.4-2.5,2c-0.1-0.2-0.2-0.4-0.5-0.5c1.5-0.4,2.3-1,2.6-1.9h-1.4
				c-0.4,0-0.8,0-1,0v-0.4c0.2,0,0.5,0,0.9,0h1.6v-1.3H142c-0.3,0-0.6,0-0.9,0v-0.4c0.3,0,0.6,0,0.9,0h1.9
				C144.1,65.2,144.3,64.8,144.3,64.5 M141.9,64.7c0.2-0.1,0.3-0.2,0.5-0.3c0.2,0.3,0.4,0.6,0.6,0.9c-0.2,0.1-0.4,0.2-0.5,0.3
				C142.3,65.3,142.1,65,141.9,64.7"/>
		</g>
	</g>
	<g>
		<g>
			<defs>
				<rect id="SVGID_75_" x="29.8" y="23.8" width="184.2" height="153.5"/>
			</defs>
			<clipPath id="SVGID_76_">
				<use xlink:href="#SVGID_75_"  style="overflow:visible;"/>
			</clipPath>
			<path class="st41" d="M156.1,109.3c-0.2-0.1-0.4-0.2-0.5-0.3c0.2-0.2,0.4-0.5,0.5-0.8s0.2-0.6,0.2-1c0-0.3,0.1-0.9,0.1-1.6
				c0-0.8,0-1.4,0-1.8h4.7c0,0.5,0,0.9,0,1.3v3.3c0,0.3-0.1,0.6-0.3,0.6c-0.2,0.1-0.5,0.1-0.7,0.2c-0.1-0.2-0.1-0.4-0.2-0.6
				c0.4,0,0.6,0,0.6,0c0.1,0,0.1-0.1,0.1-0.2v-1.2H159v1c0,0.4,0,0.7,0,1h-0.6c0-0.3,0-0.6,0-0.9v-1h-1.5c0,0.4-0.1,0.7-0.2,0.9
				c-0.1,0.3-0.2,0.5-0.3,0.7C156.3,108.9,156.2,109.1,156.1,109.3 M156.8,105.3h1.5v-1.1h-1.5V105.3z M156.8,106.7h1.5v-1h-1.5
				V106.7z M158.9,105.3h1.6v-1.1h-1.6V105.3z M158.9,106.7h1.6v-1h-1.6V106.7z"/>
		</g>
	</g>
	<g>
		<g>
			<defs>
				<rect id="SVGID_77_" x="29.8" y="23.8" width="184.2" height="153.5"/>
			</defs>
			<clipPath id="SVGID_78_">
				<use xlink:href="#SVGID_77_"  style="overflow:visible;"/>
			</clipPath>
			<path class="st42" d="M161,114.3c0.2,0.1,0.4,0.2,0.6,0.3c-0.1,0.3-0.2,0.6-0.3,0.7s-0.3,0.1-0.6,0.1h-1.9
				c-0.4,0-0.6-0.2-0.6-0.5V114h-1.4v0.6h-0.5c0-0.3,0-0.9,0-1.8s0-1.5,0-1.8h1.9c0-0.4,0-0.8,0-1h0.5c0,0.2,0,0.5,0,1h2
				c0,0.2,0,0.7,0,1.5c0,0.7,0,1.3,0,1.6h-2v0.7c0,0.2,0.1,0.3,0.4,0.3h1.3c0.3,0,0.4-0.1,0.5-0.2S160.9,114.5,161,114.3
				 M156.7,112.3h1.4v-0.9h-1.4V112.3z M156.7,113.6h1.4v-0.9h-1.4V113.6z M158.6,112.3h1.5v-0.9h-1.5V112.3z M158.6,113.6h1.5v-0.9
				h-1.5V113.6z"/>
		</g>
	</g>
	<g>
		<g>
			<defs>
				<rect id="SVGID_79_" x="29.8" y="23.8" width="184.2" height="153.5"/>
			</defs>
			<clipPath id="SVGID_80_">
				<use xlink:href="#SVGID_79_"  style="overflow:visible;"/>
			</clipPath>
			<path class="st43" d="M155.8,120.1c-0.1-0.2-0.1-0.4-0.3-0.5c0.4,0,0.7,0,0.9-0.1c0.3,0,0.5-0.1,0.8-0.2s0.5-0.2,0.7-0.4h-1.1
				c-0.2,0-0.5,0-1,0v-0.4c0.5,0,0.8,0,1,0h1.3c0.1-0.1,0.1-0.3,0.1-0.5c0.2,0,0.4,0.1,0.7,0.1c-0.1,0.1-0.1,0.2-0.2,0.4h1.1
				c-0.1-0.1-0.2-0.2-0.3-0.3c0.1-0.1,0.2-0.2,0.3-0.2c0.1,0.1,0.3,0.2,0.4,0.3c-0.1,0.1-0.2,0.1-0.3,0.2h0.4c0.4,0,0.7,0,1,0v0.4
				c-0.3,0-0.6,0-1,0H159c0.4,0.2,0.8,0.4,1.3,0.5s0.9,0.1,1.3,0.1c-0.1,0.2-0.2,0.3-0.3,0.5c-0.4,0-0.8-0.1-1.1-0.1
				c-0.3-0.1-0.6-0.1-0.8-0.2c-0.3-0.1-0.5-0.3-0.9-0.7c-0.3,0.4-0.7,0.6-1.2,0.8C156.8,119.9,156.3,120,155.8,120.1 M156.2,116.6h2
				c0,0.2,0,0.4,0,0.7c0,0.2,0,0.5,0,0.7h-2c0-0.2,0-0.5,0-0.7C156.2,117,156.2,116.8,156.2,116.6 M158.2,121c0,0.4,0,0.7,0,0.9
				h-0.5v-0.4h-1.1v0.4h-0.4c0-0.3,0-0.6,0-1s0-0.7,0-0.9h2C158.2,120.3,158.2,120.6,158.2,121 M156.6,117.6h1.1v-0.7h-1.1V117.6z
				 M156.6,121.2h1.1v-0.8h-1.1V121.2z M158.7,116.6h2.1c0,0.2,0,0.4,0,0.7c0,0.2,0,0.5,0,0.7h-2.1c0-0.2,0-0.5,0-0.7
				C158.8,117,158.8,116.8,158.7,116.6 M160.9,121c0,0.5,0,0.8,0,0.9h-0.5v-0.4h-1.2v0.4h-0.4c0-0.3,0-0.7,0-1s0-0.6,0-0.9h2.1
				C160.9,120.2,160.9,120.6,160.9,121 M159.2,117.6h1.2v-0.7h-1.2V117.6z M159.2,121.2h1.2v-0.8h-1.2V121.2z"/>
		</g>
	</g>
	<g>
		<g>
			<defs>
				<rect id="SVGID_81_" x="29.8" y="23.8" width="184.2" height="153.5"/>
			</defs>
			<clipPath id="SVGID_82_">
				<use xlink:href="#SVGID_81_"  style="overflow:visible;"/>
			</clipPath>
			<ellipse class="st44" cx="172.8" cy="80" rx="7.1" ry="6.7"/>
		</g>
	</g>
	<g>
		<g>
			<defs>
				<rect id="SVGID_83_" x="29.8" y="23.8" width="184.2" height="153.5"/>
			</defs>
			<clipPath id="SVGID_84_">
				<use xlink:href="#SVGID_83_"  style="overflow:visible;"/>
			</clipPath>
			<path class="st45" d="M169.4,83l2.8-6.8h1l3,6.8h-1.1l-0.8-2.1h-3l-0.8,2.1H169.4z M171.5,80.2h2.5l-0.8-1.9
				c-0.2-0.6-0.4-1-0.5-1.4c-0.1,0.4-0.2,0.9-0.4,1.3L171.5,80.2z"/>
		</g>
	</g>
	<g>
		<g>
			<defs>
				<rect id="SVGID_85_" x="29.8" y="23.8" width="184.2" height="153.5"/>
			</defs>
			<clipPath id="SVGID_86_">
				<use xlink:href="#SVGID_85_"  style="overflow:visible;"/>
			</clipPath>
			<path class="st46" d="M157.9,74.4c0.2,0.1,0.4,0.2,0.7,0.3c-0.1,0.1-0.2,0.2-0.2,0.3c-0.1,0.1-0.2,0.3-0.3,0.5h2.2
				c0.4,0,0.8,0,1.1,0V76c-0.4,0-0.7,0-1.1,0H160c-0.2,0.5-0.4,0.9-0.7,1.3c0.5,0.2,1.1,0.4,1.8,0.7c-0.1,0.2-0.3,0.3-0.4,0.5
				c-0.5-0.3-1.1-0.6-1.8-0.9c-0.3,0.2-0.8,0.4-1.4,0.6c-0.6,0.2-1,0.3-1.3,0.4c-0.1-0.2-0.2-0.4-0.3-0.5c0.6-0.1,1.1-0.2,1.5-0.3
				c0.4-0.1,0.8-0.3,1-0.4c-0.5-0.2-1-0.3-1.6-0.5c0.2-0.3,0.4-0.6,0.5-0.9h-0.6c-0.3,0-0.7,0-1,0.1v-0.5c0.4,0,0.7,0,1,0h0.8
				C157.6,75.1,157.8,74.8,157.9,74.4 M158.4,73.7c-0.1-0.2-0.2-0.5-0.3-0.7c0.2,0,0.4-0.1,0.6-0.2c0.1,0.2,0.2,0.5,0.3,0.8
				c-0.1,0-0.3,0.1-0.4,0.1h2.6c0,0.2,0,0.4,0,0.6c0,0.1,0,0.4,0,0.7h-0.6v-0.9h-4.2v0.8h-0.6c0-0.2,0-0.4,0-0.6s0-0.4,0-0.6
				C155.8,73.7,158.4,73.7,158.4,73.7z M157.8,75.9c-0.1,0.2-0.2,0.4-0.4,0.7c0.6,0.2,1.1,0.3,1.3,0.4c0.2-0.2,0.5-0.6,0.7-1.1
				H157.8z"/>
		</g>
	</g>
	<g>
		<g>
			<defs>
				<rect id="SVGID_87_" x="29.8" y="23.8" width="184.2" height="153.5"/>
			</defs>
			<clipPath id="SVGID_88_">
				<use xlink:href="#SVGID_87_"  style="overflow:visible;"/>
			</clipPath>
			<path class="st47" d="M157.6,81.5c-0.2,0-0.5,0-0.8,0v1.9c0.2,0,0.4-0.2,0.9-0.3v0.4c-0.3,0.1-0.7,0.2-1,0.3
				c-0.4,0.1-0.7,0.3-0.9,0.4c-0.1-0.2-0.2-0.3-0.3-0.5c0.3-0.1,0.6-0.1,0.9-0.2v-2.1c-0.3,0-0.6,0-0.8,0V81c0.2,0,0.5,0,0.8,0v-0.8
				c0-0.3,0-0.6,0-0.9h0.5c0,0.3,0,0.6,0,0.9V81c0.3,0,0.6,0,0.8,0L157.6,81.5L157.6,81.5z M160.3,80.6c0.1,0.1,0.3,0.2,0.6,0.2
				c-0.1,0.1-0.3,0.3-0.5,0.8c0.5,0,0.9,0,1.2,0V82c-0.3,0-0.6,0-0.9,0h-1.9c-0.4,0-0.8,0-1,0v-0.4c0.3,0,0.6,0,1,0h1.1
				C160.1,81.2,160.3,80.8,160.3,80.6 M159,80.4c-0.5,0-0.9,0-1.1,0V80c0.2,0,0.6,0,1.2,0h1.1c0.5,0,0.8,0,1.1,0v0.4
				c-0.3,0-0.6,0-0.9,0H159z M158.1,82.6h3c0,0.3,0,0.7,0,1.1s0,0.8,0,1.1h-0.5v-0.5h-2v0.6h-0.5c0-0.3,0-0.7,0-1.1
				C158.1,83.3,158.1,82.9,158.1,82.6 M158.7,80.6c0.2,0.2,0.3,0.4,0.4,0.6c-0.2,0-0.3,0.1-0.4,0.2c-0.1-0.2-0.2-0.4-0.4-0.6
				C158.5,80.8,158.6,80.7,158.7,80.6 M158.6,83.9h2V83h-2V83.9z M159.1,79.3c0.2,0,0.3-0.1,0.4-0.2c0.2,0.2,0.3,0.5,0.3,0.6
				c-0.2,0-0.3,0.1-0.4,0.2C159.3,79.6,159.2,79.4,159.1,79.3"/>
		</g>
	</g>
	<g>
		<g>
			<defs>
				<rect id="SVGID_89_" x="29.8" y="23.8" width="184.2" height="153.5"/>
			</defs>
			<clipPath id="SVGID_90_">
				<use xlink:href="#SVGID_89_"  style="overflow:visible;"/>
			</clipPath>
			<path class="st48" d="M156.1,86.1c0.2,0,0.6,0,1,0h1.1c0-0.2,0-0.5,0-0.7h0.6c0,0.2-0.1,0.4-0.1,0.7h1.5c0.2,0,0.5,0,0.8,0v0.5
				c-0.3,0-0.5,0-0.7,0h-1.6v0.5h1.2c0.3,0,0.5,0,0.8,0v0.5c-0.2,0-0.5,0-0.8,0h-1.2v0.5h2c0.2,0,0.5,0,0.8-0.1v0.5
				c-0.3,0-0.5,0-0.8,0h-2.2c-0.1,0.2-0.3,0.4-0.6,0.7v1.3c0.3-0.2,0.6-0.4,0.8-0.5c0,0.2,0.1,0.4,0.2,0.5c-0.2,0.1-0.4,0.2-0.6,0.4
				c-0.3,0.2-0.5,0.3-0.6,0.5c-0.1-0.1-0.2-0.3-0.4-0.4c0.1-0.1,0.2-0.3,0.2-0.6v-0.7c-0.3,0.2-0.6,0.4-0.8,0.6
				c-0.3,0.1-0.5,0.3-0.7,0.4c-0.1-0.2-0.3-0.3-0.4-0.5c0.5-0.2,1-0.4,1.4-0.7c0.4-0.3,0.8-0.6,1-0.9h-1.3c-0.3,0-0.6,0-0.9,0V88
				c0.2,0,0.5,0.1,1,0.1h1.6v-0.5h-1.1c-0.3,0-0.5,0-0.7,0v-0.5c0.3,0,0.5,0,0.7,0h1.1v-0.5H157c-0.3,0-0.6,0-0.9,0V86.1z
				 M158.5,88.9c0.2,0,0.3-0.1,0.5-0.2c0.1,0.3,0.2,0.6,0.5,0.9c0.3-0.2,0.6-0.6,0.9-0.9c0.2,0.1,0.3,0.3,0.5,0.4
				c-0.1,0-0.3,0.2-0.5,0.3c-0.2,0.2-0.4,0.3-0.6,0.5c0.2,0.2,0.4,0.3,0.8,0.4c0.3,0.1,0.7,0.1,1,0.2c-0.2,0.2-0.3,0.4-0.3,0.6
				c-0.9-0.2-1.5-0.5-1.9-0.9C158.9,89.8,158.7,89.3,158.5,88.9"/>
		</g>
	</g>
</g>
<rect x="58.2" y="88.1" class="st49" width="9.1" height="26.3"/>
<rect x="91.5" y="63.2" class="st49" width="24.6" height="7.9"/>
<rect x="130.6" y="64.1" class="st49" width="20.7" height="7"/>
<rect x="153.6" y="71.1" class="st49" width="10.1" height="20.8"/>
<rect x="151.3" y="101.7" class="st49" width="12.4" height="21.8"/>
<rect x="54.7" y="89.5" class="st50" width="12.6" height="49.9"/>
<text transform="matrix(1 0 0 1 64.3226 89.4837)" class="st51 st52">Battery</text>
<rect x="97.6" y="64.3" class="st50" width="29" height="13"/>
<text transform="matrix(1 0 0 1 97.5676 69.5548)" class="st51 st53">Fuse</text>
<rect x="133.7" y="66.7" class="st50" width="34.9" height="13.6"/>
<text transform="matrix(1 0 0 1 133.7348 71.9568)" class="st51 st53">Switch</text>
<rect x="172.9" y="70.8" class="st50" width="16.3" height="53.3"/>
<text transform="matrix(1 0 0 1 186.108 70.7591)" class="st51 st52">Ammeter</text>
<rect x="148.9" y="94.1" class="st50" width="14.1" height="92.1"/>
<text transform="matrix(1 0 0 1 160.0286 94.0834)" class="st51 st52">Electrical appliance</text>
</svg>
