<?xml version="1.0" encoding="utf-8"?>
<!-- Generator: Adobe Illustrator 24.0.1, SVG Export Plug-In . SVG Version: 6.00 Build 0)  -->
<svg version="1.1" xmlns="http://www.w3.org/2000/svg" xmlns:xlink="http://www.w3.org/1999/xlink" x="0px" y="0px"
	 viewBox="0 0 692.7 841.9" enable-background="new 0 0 692.7 841.9" xml:space="preserve">
<g id="_x30_4-取电">
	<g id="选配信息">
	</g>
	<path fill="none" stroke="#040000" stroke-width="0.5" d="M646,59.3"/>
	<polyline fill="#DCDDDD" points="44,41.9 646,41.9 646,88.1 44,88.1 	"/>
	<line fill="none" stroke="#040000" stroke-width="0.5" x1="44" y1="47.6" x2="646" y2="47.6"/>
	<line fill="none" stroke="#040000" x1="44" y1="41.6" x2="646" y2="41.6"/>
	<line fill="none" stroke="#040000" stroke-width="0.5" x1="44" y1="58.9" x2="646" y2="58.9"/>
	<line fill="none" stroke="#040000" stroke-width="0.5" x1="44" y1="70.6" x2="646" y2="70.6"/>
	<line fill="none" stroke="#040000" stroke-width="0.5" x1="44" y1="82.3" x2="646" y2="82.3"/>
	<line fill="none" stroke="#040000" x1="44" y1="88.1" x2="646" y2="88.1"/>
	<text transform="matrix(1 0 0 1 652 49.6298)" font-family="'FZLTHJW--GB1-0'" font-size="6px">30</text>
	<text transform="matrix(1 0 0 1 652 60.7958)" font-family="'FZLTHJW--GB1-0'" font-size="6px">IG1</text>
	<text transform="matrix(1 0 0 1 652 72.4208)" font-family="'FZLTHJW--GB1-0'" font-size="6px">IG3</text>
	<text transform="matrix(1 0 0 1 652 83.9247)" font-family="'FZLTHJW--GB1-0'" font-size="6px">ACC</text>
	<text transform="matrix(1 0 0 1 32.0342 49.7119)" font-family="'FZLTHJW--GB1-0'" font-size="6px">30</text>
	<text transform="matrix(1 0 0 1 28.8701 60.8779)" font-family="'FZLTHJW--GB1-0'" font-size="6px">IG1</text>
	<text transform="matrix(1 0 0 1 28.8701 72.5029)" font-family="'FZLTHJW--GB1-0'" font-size="6px">IG3</text>
	<text transform="matrix(1 0 0 1 25.378 84.0029)" font-family="'FZLTHJW--GB1-0'" font-size="6px">ACC</text>
	<path fill="none" stroke="#040000" stroke-width="0.5" d="M44,59.3"/>
	<g id="REB_x2C_A3_2_">
		<rect x="59.4" y="143" fill="#DCDDDD" stroke="#040000" stroke-width="0.5" stroke-miterlimit="10" width="115.4" height="50.4"/>
	</g>
	<g>
		
			<rect x="66.3" y="434.7" fill="#9FD9F6" stroke="#000000" stroke-width="0.5" stroke-linecap="round" stroke-miterlimit="10" width="560.1" height="25.9"/>
	</g>
	<g>
		
			<rect x="360.7" y="659" fill="#9FD9F6" stroke="#000000" stroke-width="0.5" stroke-linecap="round" stroke-miterlimit="10" width="224.8" height="25.9"/>
	</g>
	<line fill="none" stroke="#000000" stroke-width="3" stroke-miterlimit="10" x1="85.5" y1="471.9" x2="85.5" y2="768.2"/>
	<line fill="none" stroke="#E60012" stroke-width="3" stroke-miterlimit="10" x1="85.3" y1="205" x2="85.3" y2="424.8"/>
	<line fill="none" stroke="#E60012" stroke-width="3" stroke-miterlimit="10" x1="142" y1="205" x2="142" y2="424.8"/>
	<line fill="none" stroke="#005EAD" stroke-miterlimit="10" x1="142" y1="205" x2="142" y2="424.8"/>
	<g id="RF22_x2C_A3_2_">
		<g>
			<g>
				<path fill="none" stroke="#070001" stroke-width="0.75" d="M85.3,173.4c-1.2,0-2.2,1-2.2,2.2s1,2.2,2.2,2.2s2.2-1,2.2-2.2
					S86.5,173.4,85.3,173.4"/>
			</g>
			<g>
				<path fill="none" stroke="#070001" stroke-width="0.75" d="M85.3,157.6c-1.2,0-2.2,1-2.2,2.1c0,1.2,1,2.2,2.2,2.2
					s2.2-0.9,2.2-2.2C87.5,158.6,86.5,157.6,85.3,157.6"/>
			</g>
			<g>
				<path fill="none" stroke="#070001" stroke-width="0.75" d="M83.8,161.3c-0.1,2.5,0.2,3.2,1.3,4.3c1.2,1.2,2.4,1.7,2.8,3.7
					c0.4,1.6-0.1,3.5-1.1,4.5"/>
			</g>
			<g>
				<path fill="none" stroke="#070001" stroke-width="0.75" d="M86.7,173.9c0.2-0.8,0-2.9-0.6-3.7c-0.9-1.2-2.7-2.1-3.3-4
					c-0.9-2.8,0.7-4.6,1.1-5"/>
			</g>
		</g>
	</g>
	<g>
		<g>
			<polyline fill="none" stroke="#040000" stroke-width="0.6" stroke-linejoin="round" points="85.3,177.9 85.3,180.8 85.3,193.1 
							"/>
		</g>
	</g>
	<g>
		<g>
			<polyline fill="none" stroke="#040000" stroke-width="0.5" stroke-linejoin="round" points="85.3,157.8 85.3,145.4 85.3,46.7 			
				"/>
		</g>
	</g>
	<g id="_x30_2-上针脚_14_">
		<line fill="none" stroke="#000000" stroke-width="0.6" stroke-linejoin="round" x1="85.3" y1="201.5" x2="85.3" y2="193.3"/>
		<path fill="#FFFFFF" d="M85.2,204.6c-1.7,0-3-1.4-3-3c0-1.8,1.4-3.2,3-3.2c1.8,0,3.2,1.4,3.2,3.2C88.4,203.2,87,204.6,85.2,204.6"
			/>
		<path d="M85.2,205.2c-2,0-3.7-1.6-3.7-3.7c0-2.2,1.7-3.8,3.7-3.8v1.2c-1.4,0-2.5,1.1-2.5,2.7c0,1.3,1.1,2.5,2.5,2.5V205.2z
			 M85.2,197.7v1.2c1.5,0,2.7,1.1,2.7,2.7c0,1.3-1.1,2.5-2.7,2.5v1.1c2.2,0,3.8-1.6,3.8-3.7C89,199.4,87.4,197.7,85.2,197.7"/>
		<rect x="81.2" y="197.3" fill="#FFFFFF" width="8.1" height="4.1"/>
		<rect x="84.8" y="198.2" width="1" height="4.2"/>
		
			<rect x="84.8" y="198.2" fill="none" stroke="#000000" stroke-width="0.72" stroke-linecap="round" stroke-linejoin="round" width="1" height="4.2"/>
	</g>
	<g>
		<path stroke="#FFFFFF" stroke-width="0.5" stroke-linecap="round" d="M82.4,48.2c0-1.7,1.3-2.9,2.8-2.9c1.6,0,2.9,1.2,2.9,2.9
			c0,1.5-1.3,2.7-2.9,2.7C83.7,51,82.4,49.7,82.4,48.2z"/>
		<g>
			<path fill="none" stroke="#FFFFFF" stroke-width="1.0001" d="M82.4,48.2c0-1.7,1.3-2.9,2.8-2.9c1.6,0,2.9,1.2,2.9,2.9
				c0,1.5-1.3,2.7-2.9,2.7C83.7,51,82.4,49.7,82.4,48.2"/>
		</g>
	</g>
	<g id="RF22_x2C_A3_1_">
		<g>
			<g>
				<path fill="none" stroke="#070001" stroke-width="0.75" d="M142,173.4c-1.2,0-2.2,1-2.2,2.2s1,2.2,2.2,2.2s2.2-1,2.2-2.2
					S143.2,173.4,142,173.4"/>
			</g>
			<g>
				<path fill="none" stroke="#070001" stroke-width="0.75" d="M142,157.6c-1.2,0-2.2,1-2.2,2.1c0,1.2,1,2.2,2.2,2.2
					s2.2-0.9,2.2-2.2C144.2,158.6,143.2,157.6,142,157.6"/>
			</g>
			<g>
				<path fill="none" stroke="#070001" stroke-width="0.75" d="M140.5,161.3c-0.1,2.5,0.2,3.2,1.3,4.3c1.2,1.2,2.4,1.7,2.8,3.7
					c0.4,1.6-0.1,3.5-1.1,4.5"/>
			</g>
			<g>
				<path fill="none" stroke="#070001" stroke-width="0.75" d="M143.4,173.9c0.2-0.8,0-2.9-0.6-3.7c-0.9-1.2-2.7-2.1-3.3-4
					c-0.9-2.8,0.7-4.6,1.1-5"/>
			</g>
		</g>
	</g>
	<g>
		<g>
			<polyline fill="none" stroke="#040000" stroke-width="0.6" stroke-linejoin="round" points="142,177.9 142,180.8 142,193.1 			
				"/>
		</g>
	</g>
	<g>
		<g>
			<polyline fill="none" stroke="#040000" stroke-width="0.5" stroke-linejoin="round" points="142,157.8 142,146.9 142,59.4 			"/>
		</g>
	</g>
	<g id="_x30_2-上针脚_8_">
		<line fill="none" stroke="#000000" stroke-width="0.6" stroke-linejoin="round" x1="142" y1="201.5" x2="142" y2="193.3"/>
		<path fill="#FFFFFF" d="M141.9,204.6c-1.7,0-3-1.4-3-3c0-1.8,1.4-3.2,3-3.2c1.8,0,3.2,1.4,3.2,3.2
			C145.1,203.2,143.7,204.6,141.9,204.6"/>
		<path d="M141.9,205.2c-2,0-3.7-1.6-3.7-3.7c0-2.2,1.7-3.8,3.7-3.8v1.2c-1.4,0-2.5,1.1-2.5,2.7c0,1.3,1.1,2.5,2.5,2.5V205.2z
			 M141.9,197.7v1.2c1.5,0,2.7,1.1,2.7,2.7c0,1.3-1.1,2.5-2.7,2.5v1.1c2.2,0,3.8-1.6,3.8-3.7C145.7,199.4,144.1,197.7,141.9,197.7"
			/>
		<rect x="137.9" y="197.3" fill="#FFFFFF" width="8.1" height="4.1"/>
		<rect x="141.5" y="198.2" width="1" height="4.2"/>
		
			<rect x="141.5" y="198.2" fill="none" stroke="#000000" stroke-width="0.72" stroke-linecap="round" stroke-linejoin="round" width="1" height="4.2"/>
	</g>
	<g>
		<path stroke="#FFFFFF" stroke-width="0.5" stroke-linecap="round" d="M139.1,59.5c0-1.7,1.3-2.9,2.8-2.9c1.6,0,2.9,1.2,2.9,2.9
			c0,1.5-1.3,2.7-2.9,2.7C140.4,62.3,139.1,61,139.1,59.5z"/>
		<g>
			<path fill="none" stroke="#FFFFFF" stroke-width="1.0001" d="M139.1,59.5c0-1.7,1.3-2.9,2.8-2.9c1.6,0,2.9,1.2,2.9,2.9
				c0,1.5-1.3,2.7-2.9,2.7C140.4,62.3,139.1,61,139.1,59.5"/>
		</g>
	</g>
	<g id="_x30_2-上针脚_7_">
		<line fill="none" stroke="#000000" stroke-width="0.6" stroke-linejoin="round" x1="85.5" y1="468.8" x2="85.5" y2="460.6"/>
		<path fill="#FFFFFF" d="M85.4,471.9c-1.7,0-3-1.4-3-3c0-1.8,1.4-3.2,3-3.2c1.8,0,3.2,1.4,3.2,3.2
			C88.6,470.5,87.2,471.9,85.4,471.9"/>
		<path d="M85.4,472.5c-2,0-3.7-1.6-3.7-3.7c0-2.2,1.7-3.8,3.7-3.8v1.2c-1.4,0-2.5,1.1-2.5,2.7c0,1.3,1.1,2.5,2.5,2.5V472.5z
			 M85.4,465v1.2c1.5,0,2.7,1.1,2.7,2.7c0,1.3-1.1,2.5-2.7,2.5v1.1c2.2,0,3.8-1.6,3.8-3.7S87.6,465,85.4,465"/>
		<rect x="81.4" y="464.6" fill="#FFFFFF" width="8.1" height="4.1"/>
		<rect x="85" y="465.5" width="1" height="4.2"/>
		
			<rect x="85" y="465.5" fill="none" stroke="#000000" stroke-width="0.72" stroke-linecap="round" stroke-linejoin="round" width="1" height="4.2"/>
	</g>
	<g id="_x30_2-上针脚_6_">
		<line fill="none" stroke="#000000" stroke-width="0.6" stroke-linejoin="round" x1="142.2" y1="426.5" x2="142.2" y2="434.7"/>
		<path fill="#FFFFFF" d="M142.1,423.4c-1.7,0-3,1.4-3,3c0,1.8,1.4,3.2,3,3.2c1.8,0,3.2-1.4,3.2-3.2
			C145.3,424.8,143.9,423.4,142.1,423.4"/>
		<path d="M142.1,423.9c-1.4,0-2.5,1.2-2.5,2.5c0,1.6,1.1,2.7,2.5,2.7v1.2c-2,0-3.7-1.6-3.7-3.8c0-2.1,1.7-3.7,3.7-3.7V423.9z
			 M142.1,430.3c2.2,0,3.8-1.7,3.8-3.8c0-2.1-1.6-3.7-3.8-3.7v1.1c1.6,0,2.7,1.2,2.7,2.5c0,1.6-1.2,2.7-2.7,2.7V430.3"/>
		<rect x="138.1" y="426.6" fill="#FFFFFF" width="8.1" height="4.1"/>
		<rect x="141.7" y="425.6" width="1" height="4.2"/>
		
			<rect x="141.7" y="425.6" fill="none" stroke="#000000" stroke-width="0.72" stroke-linecap="round" stroke-linejoin="round" width="1" height="4.2"/>
	</g>
	<g id="_x30_2-上针脚_5_">
		<line fill="none" stroke="#000000" stroke-width="0.6" stroke-linejoin="round" x1="85.5" y1="426.5" x2="85.5" y2="434.7"/>
		<path fill="#FFFFFF" d="M85.4,423.4c-1.7,0-3,1.4-3,3c0,1.8,1.4,3.2,3,3.2c1.8,0,3.2-1.4,3.2-3.2
			C88.6,424.8,87.2,423.4,85.4,423.4"/>
		<path d="M85.4,423.9c-1.4,0-2.5,1.2-2.5,2.5c0,1.6,1.1,2.7,2.5,2.7v1.2c-2,0-3.7-1.6-3.7-3.8c0-2.1,1.7-3.7,3.7-3.7V423.9z
			 M85.4,430.3c2.2,0,3.8-1.7,3.8-3.8c0-2.1-1.6-3.7-3.8-3.7v1.1c1.6,0,2.7,1.2,2.7,2.5c0,1.6-1.2,2.7-2.7,2.7V430.3"/>
		<rect x="81.4" y="426.6" fill="#FFFFFF" width="8.1" height="4.1"/>
		<rect x="85" y="425.6" width="1" height="4.2"/>
		
			<rect x="85" y="425.6" fill="none" stroke="#000000" stroke-width="0.72" stroke-linecap="round" stroke-linejoin="round" width="1" height="4.2"/>
	</g>
	<line fill="none" stroke="#F29C97" stroke-width="3" x1="224.2" y1="223.2" x2="224.2" y2="423.8"/>
	<line fill="none" stroke="#89438F" stroke-width="3" x1="280.9" y1="223.2" x2="280.9" y2="423.8"/>
	<g id="_x30_2-上针脚_4_">
		<line fill="none" stroke="#000000" stroke-width="0.6" stroke-linejoin="round" x1="224.2" y1="426.5" x2="224.2" y2="434.7"/>
		<path fill="#FFFFFF" d="M224.1,423.4c-1.7,0-3,1.4-3,3c0,1.8,1.4,3.2,3,3.2c1.8,0,3.2-1.4,3.2-3.2
			C227.3,424.8,225.9,423.4,224.1,423.4"/>
		<path d="M224.1,423.9c-1.4,0-2.5,1.2-2.5,2.5c0,1.6,1.1,2.7,2.5,2.7v1.2c-2,0-3.7-1.6-3.7-3.8c0-2.1,1.7-3.7,3.7-3.7V423.9z
			 M224.1,430.3c2.2,0,3.8-1.7,3.8-3.8c0-2.1-1.6-3.7-3.8-3.7v1.1c1.6,0,2.7,1.2,2.7,2.5c0,1.6-1.2,2.7-2.7,2.7V430.3"/>
		<rect x="220.1" y="426.6" fill="#FFFFFF" width="8.1" height="4.1"/>
		<rect x="223.7" y="425.6" width="1" height="4.2"/>
		
			<rect x="223.7" y="425.6" fill="none" stroke="#000000" stroke-width="0.72" stroke-linecap="round" stroke-linejoin="round" width="1" height="4.2"/>
	</g>
	<g id="_x30_2-上针脚_3_">
		<line fill="none" stroke="#000000" stroke-width="0.6" stroke-linejoin="round" x1="280.9" y1="426.5" x2="280.9" y2="434.7"/>
		<path fill="#FFFFFF" d="M280.8,423.4c-1.7,0-3,1.4-3,3c0,1.8,1.4,3.2,3,3.2c1.8,0,3.2-1.4,3.2-3.2
			C284,424.8,282.6,423.4,280.8,423.4"/>
		<path d="M280.8,423.9c-1.4,0-2.5,1.2-2.5,2.5c0,1.6,1.1,2.7,2.5,2.7v1.2c-2,0-3.7-1.6-3.7-3.8c0-2.1,1.7-3.7,3.7-3.7V423.9z
			 M280.8,430.3c2.2,0,3.8-1.7,3.8-3.8c0-2.1-1.6-3.7-3.8-3.7v1.1c1.6,0,2.7,1.2,2.7,2.5c0,1.6-1.2,2.7-2.7,2.7V430.3"/>
		<rect x="276.8" y="426.6" fill="#FFFFFF" width="8.1" height="4.1"/>
		<rect x="280.4" y="425.6" width="1" height="4.2"/>
		
			<rect x="280.4" y="425.6" fill="none" stroke="#000000" stroke-width="0.72" stroke-linecap="round" stroke-linejoin="round" width="1" height="4.2"/>
	</g>
	<path fill="none" stroke="#040000" stroke-width="0.5" stroke-miterlimit="10" d="M222,317.3c-2,0-3.8-1.4-3.8-3.2
		c0-1.8,1.7-3.2,3.8-3.2l61,6.4c2,0,3.8-1.4,3.8-3.2c0-1.8-1.7-3.2-3.8-3.2L222,317.3z"/>
	<path fill="none" stroke="#000000" stroke-width="0.5" stroke-linecap="round" stroke-linejoin="round" d="M218.5,219.8l0.7-2.1
		c0,0,0.7-2.5,4-2.6h27.1l0,0l2.3-2.7l2.3,2.7c0.1,0,0.1,0,0.2,0h26.6h0.2c3.3,0.1,4,2.6,4,2.6l0.7,2.1"/>
	
		<line fill="none" stroke="#040000" stroke-width="0.5" stroke-linecap="round" stroke-miterlimit="10" x1="404.3" y1="460.6" x2="404.3" y2="659"/>
	
		<line fill="none" stroke="#040000" stroke-width="0.5" stroke-linecap="round" stroke-miterlimit="10" x1="376" y1="460.6" x2="376" y2="659"/>
	
		<line fill="none" stroke="#040000" stroke-width="0.5" stroke-linecap="round" stroke-miterlimit="10" x1="574.4" y1="460.6" x2="574.4" y2="659"/>
	
		<line fill="none" stroke="#040000" stroke-width="0.5" stroke-linecap="round" stroke-miterlimit="10" x1="432.7" y1="460.6" x2="432.7" y2="659"/>
	
		<line fill="none" stroke="#040000" stroke-width="0.5" stroke-linecap="round" stroke-miterlimit="10" x1="461" y1="460.6" x2="461" y2="659"/>
	
		<line fill="none" stroke="#040000" stroke-width="0.5" stroke-linecap="round" stroke-miterlimit="10" x1="489.4" y1="460.6" x2="489.4" y2="659"/>
	
		<line fill="none" stroke="#040000" stroke-width="0.5" stroke-linecap="round" stroke-miterlimit="10" x1="517.7" y1="460.6" x2="517.7" y2="659"/>
	
		<line fill="none" stroke="#040000" stroke-width="0.5" stroke-linecap="round" stroke-miterlimit="10" x1="546.1" y1="460.6" x2="546.1" y2="659"/>
	<g>
		<text transform="matrix(1 0 0 1 93.2405 173.7631)" font-family="'FZLTHJW--GB1-0'" font-size="6px">70A</text>
	</g>
	<g>
		<text transform="matrix(1 0 0 1 149.9344 173.7631)" font-family="'FZLTHJW--GB1-0'" font-size="6px">5A</text>
	</g>
	<rect x="71.2" y="401.8" fill="#FFFFFF" width="28.1" height="7.1"/>
	<g>
		<text transform="matrix(1 0 0 1 77.4647 407.1542)" font-family="'FZLTHJW--GB1-0'" font-size="6px">R 8.0</text>
	</g>
	<rect x="127.9" y="401.8" fill="#FFFFFF" width="28.1" height="7.1"/>
	<g>
		<text transform="matrix(1 0 0 1 129.3307 407.1542)" font-family="'FZLTHJW--GB1-0'" font-size="6px">R/L 0.35</text>
	</g>
	<rect x="71.2" y="218.1" fill="#FFFFFF" width="28.1" height="7.1"/>
	<g>
		<text transform="matrix(1 0 0 1 77.4647 223.5298)" font-family="'FZLTHJW--GB1-0'" font-size="6px">R 8.0</text>
	</g>
	<rect x="127.9" y="218.1" fill="#FFFFFF" width="28.1" height="7.1"/>
	<g>
		<text transform="matrix(1 0 0 1 129.3307 223.5298)" font-family="'FZLTHJW--GB1-0'" font-size="6px">R/L 0.35</text>
	</g>
	<rect x="238.2" y="402.1" fill="#FFFFFF" width="1.9" height="7.1"/>
	<rect x="266.8" y="402.1" fill="#FFFFFF" width="28.1" height="7.1"/>
	<g>
		<text transform="matrix(1 0 0 1 271.4577 407.4626)" font-family="'FZLTHJW--GB1-0'" font-size="6px">V 0.35</text>
	</g>
	<rect x="238.2" y="402.1" fill="#FFFFFF" width="1.9" height="7.1"/>
	<rect x="266.8" y="402.1" fill="#FFFFFF" width="28.1" height="7.1"/>
	<rect x="210.6" y="402.1" fill="#FFFFFF" width="28.1" height="7.1"/>
	<g>
		<text transform="matrix(1 0 0 1 271.4577 407.4626)" font-family="'FZLTHJW--GB1-0'" font-size="6px">V 0.35</text>
	</g>
	<g>
		<text transform="matrix(1 0 0 1 224.186 199.4792)"><tspan x="0" y="0" font-family="'FZLTHJW--GB1-0'" font-size="6px">See Chassis Network </tspan><tspan x="0" y="7.2" font-family="'FZLTHJW--GB1-0'" font-size="6px">Circuit Diagram</tspan></text>
	</g>
	<text transform="matrix(1 0 0 1 216.6861 439.637)" font-family="'FZLTHJW--GB1-0'" font-size="4px">CAN-H</text>
	<text transform="matrix(1 0 0 1 75.2495 439.637)" font-family="'FZLTHJW--GB1-0'" font-size="4px">Constant power</text>
	<text transform="matrix(1 0 0 1 75.2495 458.4393)" font-family="'FZLTHJW--GB1-0'" font-size="4px">Ground</text>
	<text transform="matrix(1 0 0 1 134.716 439.637)" font-family="'FZLTHJW--GB1-0'" font-size="4px">IG1电源</text>
	<text transform="matrix(1 0 0 1 273.7311 439.637)" font-family="'FZLTHJW--GB1-0'" font-size="4px">CAN-L</text>
	<g>
		<g>
			<g>
				<line fill="none" stroke="#000000" stroke-width="1.3" x1="78.5" y1="768.2" x2="92.4" y2="768.2"/>
			</g>
			<g>
				<line fill="none" stroke="#000000" stroke-width="1.3" x1="81.4" y1="770.4" x2="89.5" y2="770.4"/>
			</g>
			<g>
				<line fill="none" stroke="#000000" stroke-width="1.3" x1="87.9" y1="772.5" x2="83" y2="772.5"/>
			</g>
		</g>
		<g>
			<g>
				<rect x="75.3" y="775" fill="#FFFFFF" width="20.3" height="8.2"/>
				
					<rect x="75.7" y="775.4" fill="#FFFFFF" stroke="#040000" stroke-width="0.25" stroke-linecap="round" stroke-linejoin="round" width="19.7" height="7.6"/>
			</g>
		</g>
	</g>
	<rect x="71.2" y="497.7" fill="#FFFFFF" width="28.1" height="7.1"/>
	<g>
		<text transform="matrix(1 0 0 1 77.4647 503.4694)" font-family="'FZLTHJW--GB1-0'" font-size="6px">B 8.0</text>
	</g>
	<rect x="71.2" y="739.7" fill="#FFFFFF" width="28.1" height="7.1"/>
	<g>
		<text transform="matrix(1 0 0 1 77.4647 745.5315)" font-family="'FZLTHJW--GB1-0'" font-size="6px">B 8.0</text>
	</g>
	<text transform="matrix(1 0 0 1 451.8364 673.7341)" font-family="'FZLTHJW--GB1-0'" font-size="6px">Torque sensor</text>
	<g>
		
			<rect x="209.2" y="659" fill="#9FD9F6" stroke="#000000" stroke-width="0.5" stroke-linecap="round" stroke-miterlimit="10" width="88.5" height="25.9"/>
	</g>
	
		<line fill="none" stroke="#040000" stroke-width="0.5" stroke-linecap="round" stroke-miterlimit="10" x1="223.2" y1="460.6" x2="223.2" y2="659"/>
	
		<line fill="none" stroke="#040000" stroke-width="0.5" stroke-linecap="round" stroke-miterlimit="10" x1="279.8" y1="460.6" x2="279.8" y2="659"/>
	
		<line fill="none" stroke="#040000" stroke-width="0.5" stroke-linecap="round" stroke-miterlimit="10" x1="251.5" y1="460.6" x2="251.5" y2="659"/>
	<text transform="matrix(1 0 0 1 245.5 673.7335)" font-family="'FZLTHJW--GB1-0'" font-size="6px">motor</text>
	<text transform="matrix(1 0 0 1 546.078 695.4357)" font-family="'FZLTHJW--GB1-0'" font-size="6px">Harness assembly</text>
	<g>
		<text transform="matrix(1 0 0 1 214.7993 407.4626)" font-family="'FZLTHJW--GB1-0'" font-size="6px">P 0.35</text>
	</g>
	<g>
		
			<rect x="392.1" y="210.4" fill="#9FD9F6" stroke="#000000" stroke-width="0.5" stroke-linecap="round" stroke-miterlimit="10" width="189.5" height="25.9"/>
	</g>
	<g>
		<g>
			<polyline fill="none" stroke="#000000" stroke-miterlimit="10" points="373.3,198.3 373.3,195.3 376.3,195.3 			"/>
			
				<line fill="none" stroke="#000000" stroke-miterlimit="10" stroke-dasharray="5.886,2.943" x1="379.3" y1="195.3" x2="598.5" y2="195.3"/>
			<polyline fill="none" stroke="#000000" stroke-miterlimit="10" points="600,195.3 603,195.3 603,198.3 			"/>
			<polyline fill="none" stroke="#000000" stroke-miterlimit="10" stroke-dasharray="6.0027,3.0014" points="603,201.3 603,438.7 
				603,453.9 603,695.1 			"/>
			<polyline fill="none" stroke="#000000" stroke-miterlimit="10" points="603,696.6 603,699.6 600,699.6 			"/>
			
				<line fill="none" stroke="#000000" stroke-miterlimit="10" stroke-dasharray="5.9559,2.9779" x1="597" y1="699.6" x2="196.5" y2="699.6"/>
			<polyline fill="none" stroke="#000000" stroke-miterlimit="10" points="195,699.6 192,699.6 192,696.6 			"/>
			
				<line fill="none" stroke="#000000" stroke-miterlimit="10" stroke-dasharray="6.0823,3.0411" x1="192" y1="693.5" x2="192" y2="457.8"/>
			<polyline fill="none" stroke="#000000" stroke-miterlimit="10" points="192,456.3 192,453.3 195,453.3 			"/>
			
				<line fill="none" stroke="#000000" stroke-miterlimit="10" stroke-dasharray="6.046,3.023" x1="198" y1="453.3" x2="368.8" y2="453.2"/>
			<polyline fill="none" stroke="#000000" stroke-miterlimit="10" points="370.3,453.2 373.3,453.2 373.3,450.2 			"/>
			<polyline fill="none" stroke="#000000" stroke-miterlimit="10" stroke-dasharray="5.9256,2.9628" points="373.3,447.2 
				373.3,439.6 373.3,199.8 			"/>
		</g>
	</g>
	<g>
		
			<line fill="none" stroke="#040000" stroke-width="0.5" stroke-linecap="round" stroke-miterlimit="10" x1="404.3" y1="434.6" x2="404.3" y2="236.3"/>
		
			<line fill="none" stroke="#040000" stroke-width="0.5" stroke-linecap="round" stroke-miterlimit="10" x1="574.4" y1="434.6" x2="574.4" y2="236.3"/>
		
			<line fill="none" stroke="#040000" stroke-width="0.5" stroke-linecap="round" stroke-miterlimit="10" x1="432.7" y1="434.6" x2="432.7" y2="236.3"/>
		
			<line fill="none" stroke="#040000" stroke-width="0.5" stroke-linecap="round" stroke-miterlimit="10" x1="461" y1="434.6" x2="461" y2="236.3"/>
		
			<line fill="none" stroke="#040000" stroke-width="0.5" stroke-linecap="round" stroke-miterlimit="10" x1="489.4" y1="434.6" x2="489.4" y2="236.3"/>
		
			<line fill="none" stroke="#040000" stroke-width="0.5" stroke-linecap="round" stroke-miterlimit="10" x1="517.7" y1="434.6" x2="517.7" y2="236.3"/>
		
			<line fill="none" stroke="#040000" stroke-width="0.5" stroke-linecap="round" stroke-miterlimit="10" x1="546.1" y1="434.6" x2="546.1" y2="236.3"/>
	</g>
	<text transform="matrix(1 0 0 1 467.6426 225.1484)" font-family="'FZLTHJW--GB1-0'" font-size="6px">Angle sensor</text>
</g>
<g id="图层_2">
	<g>
		<text transform="matrix(1 0 0 1 93.0368 167.1449)" fill="#005EAD" font-family="'FZLTHJW--GB1-0'" font-size="6px">F1/50</text>
	</g>
	<g>
		<text transform="matrix(1 0 0 1 149.7307 167.1449)" fill="#005EAD" font-family="'FZLTHJW--GB1-0'" font-size="6px">F1/41</text>
	</g>
	<g id="保险丝名称_5_">
		<g>
			<text transform="matrix(1 0 0 1 182.2465 166.8536)"><tspan x="0" y="0" fill="#005EAD" font-family="'FZLTHJW--GB1-0'" font-size="6px">Front compartment </tspan><tspan x="0" y="7.2" fill="#005EAD" font-family="'FZLTHJW--GB1-0'" font-size="6px">distribution box</tspan></text>
		</g>
	</g>
	<text transform="matrix(1 0 0 1 92.0366 201.6455)" fill="#005EAD" font-family="'FZLTHJW--GB1-0'" font-size="6px">B44_3</text>
	<text transform="matrix(1 0 0 1 110.7031 201.6455)" fill="#005EAD" font-family="'FZLTHJW--GB1-0'" font-size="6px">-1</text>
	<text transform="matrix(1 0 0 1 148.7305 201.6455)" fill="#005EAD" font-family="'FZLTHJW--GB1-0'" font-size="6px">B1C</text>
	<text transform="matrix(1 0 0 1 161.4805 201.6455)" fill="#005EAD" font-family="'FZLTHJW--GB1-0'" font-size="6px">-9</text>
	<text transform="matrix(1 0 0 1 93.0366 430.5791)" fill="#005EAD" font-family="'FZLTHJW--GB1-0'" font-size="6px">B23_1</text>
	<text transform="matrix(1 0 0 1 111.7451 430.5791)" fill="#005EAD" font-family="'FZLTHJW--GB1-0'" font-size="6px">-1</text>
	<text transform="matrix(1 0 0 1 93.0366 469.6787)" fill="#005EAD" font-family="'FZLTHJW--GB1-0'" font-size="6px">B23_1</text>
	<text transform="matrix(1 0 0 1 111.2866 469.6787)" fill="#005EAD" font-family="'FZLTHJW--GB1-0'" font-size="6px">-2</text>
	<text transform="matrix(1 0 0 1 148.731 430.5791)" fill="#005EAD" font-family="'FZLTHJW--GB1-0'" font-size="6px">B22_1</text>
	<text transform="matrix(1 0 0 1 167.4395 430.5791)" fill="#005EAD" font-family="'FZLTHJW--GB1-0'" font-size="6px">-8</text>
	<text transform="matrix(1 0 0 1 231.0396 430.5791)" fill="#005EAD" font-family="'FZLTHJW--GB1-0'" font-size="6px">B22_1</text>
	<text transform="matrix(1 0 0 1 249.6646 430.5791)" fill="#005EAD" font-family="'FZLTHJW--GB1-0'" font-size="6px">-5</text>
	<text transform="matrix(1 0 0 1 286.7573 430.5791)" fill="#005EAD" font-family="'FZLTHJW--GB1-0'" font-size="6px">B22_1</text>
	<text transform="matrix(1 0 0 1 305.3823 430.5791)" fill="#005EAD" font-family="'FZLTHJW--GB1-0'" font-size="6px">-6</text>
	<text transform="matrix(1 0 0 1 77.1787 780.959)" fill="#005EAD" font-family="'FZLTHJW--GB1-0'" font-size="6px">Eb05</text>
	<text transform="matrix(1 0 0 1 295.2866 450.0659)" fill="#005EAD" font-family="'FZLTHJW--GB1-0'" font-size="6px">Electronic power steering controller</text>
</g>
</svg>
