<?xml version="1.0" encoding="utf-8"?>
<!-- Generator: Adobe Illustrator 24.0.1, SVG Export Plug-In . SVG Version: 6.00 Build 0)  -->
<svg version="1.1" id="图层_1" xmlns="http://www.w3.org/2000/svg" xmlns:xlink="http://www.w3.org/1999/xlink" x="0px" y="0px"
	 viewBox="0 0 262.7 215.3" style="enable-background:new 0 0 262.7 215.3;" xml:space="preserve">
<style type="text/css">
	.st0{clip-path:url(#SVGID_2_);fill:none;stroke:#000000;stroke-width:1.083;stroke-linecap:square;}
	.st1{clip-path:url(#SVGID_4_);fill:none;stroke:#000000;stroke-width:1.083;stroke-linecap:square;}
	.st2{clip-path:url(#SVGID_6_);fill:none;stroke:#000000;stroke-width:1.083;stroke-linecap:square;}
	.st3{clip-path:url(#SVGID_8_);fill:none;stroke:#000000;stroke-width:1.083;stroke-linecap:square;}
	.st4{fill:none;stroke:#000000;stroke-width:0.542;}
	.st5{fill:none;stroke:#000000;stroke-width:0.271;stroke-linecap:round;stroke-linejoin:round;stroke-miterlimit:10;}
	.st6{fill:none;stroke:#000000;stroke-width:0.542;stroke-linecap:round;stroke-miterlimit:10;}
	.st7{fill:none;stroke:#000000;stroke-width:0.271;}
	.st8{clip-path:url(#SVGID_10_);fill:#FFFFFF;}
	.st9{clip-path:url(#SVGID_12_);fill:none;stroke:#000000;stroke-width:0.271;}
	.st10{clip-path:url(#SVGID_14_);fill:#FFFFFF;}
	.st11{clip-path:url(#SVGID_16_);fill:none;stroke:#000000;stroke-width:0.271;}
	.st12{clip-path:url(#SVGID_18_);fill:none;stroke:#000000;stroke-width:0.542;}
	.st13{fill:none;stroke:#000000;stroke-width:0.542;stroke-linecap:round;stroke-linejoin:round;}
	.st14{clip-path:url(#SVGID_20_);fill:none;stroke:#000000;stroke-width:0.542;}
	.st15{clip-path:url(#SVGID_22_);fill:none;stroke:#000000;stroke-width:0.542;}
	.st16{clip-path:url(#SVGID_24_);fill:none;stroke:#000000;stroke-width:0.542;}
	.st17{clip-path:url(#SVGID_26_);fill:none;stroke:#000000;stroke-width:0.542;}
	.st18{clip-path:url(#SVGID_28_);fill:none;stroke:#000000;stroke-width:0.542;}
	.st19{clip-path:url(#SVGID_30_);fill:#FFFFFF;}
	.st20{clip-path:url(#SVGID_32_);fill:none;stroke:#000000;stroke-width:0.542;}
	.st21{clip-path:url(#SVGID_34_);}
</style>
<g>
	<polygon points="38,34.5 39,35.5 223.3,35.5 224.3,34.5 	"/>
	<polygon points="39,189.1 38,190.1 224.3,190.1 223.3,189.1 	"/>
	<polygon points="38,190 39,189 39,35.5 38,34.5 	"/>
	<polygon points="223.3,35.5 223.3,189.1 224.3,190.1 224.3,34.5 	"/>
	<g>
		<g>
			<g>
				<defs>
					<rect id="SVGID_1_" x="39" y="35.6" width="184.2" height="153.5"/>
				</defs>
				<clipPath id="SVGID_2_">
					<use xlink:href="#SVGID_1_"  style="overflow:visible;"/>
				</clipPath>
				<line class="st0" x1="39" y1="35.6" x2="223.2" y2="35.6"/>
			</g>
		</g>
		<g>
			<g>
				<defs>
					<rect id="SVGID_3_" x="39" y="35.6" width="184.2" height="153.5"/>
				</defs>
				<clipPath id="SVGID_4_">
					<use xlink:href="#SVGID_3_"  style="overflow:visible;"/>
				</clipPath>
				<line class="st1" x1="39" y1="35.6" x2="39" y2="189.1"/>
			</g>
		</g>
		<g>
			<g>
				<defs>
					<rect id="SVGID_5_" x="39" y="35.6" width="184.2" height="153.5"/>
				</defs>
				<clipPath id="SVGID_6_">
					<use xlink:href="#SVGID_5_"  style="overflow:visible;"/>
				</clipPath>
				<line class="st2" x1="223.2" y1="189.1" x2="39" y2="189.1"/>
			</g>
		</g>
		<g>
			<g>
				<defs>
					<rect id="SVGID_7_" x="39" y="35.6" width="184.2" height="153.5"/>
				</defs>
				<clipPath id="SVGID_8_">
					<use xlink:href="#SVGID_7_"  style="overflow:visible;"/>
				</clipPath>
				<line class="st3" x1="223.2" y1="189.1" x2="223.2" y2="35.6"/>
			</g>
		</g>
	</g>
	<line class="st4" x1="73.6" y1="135.5" x2="73.6" y2="145.4"/>
	<line class="st4" x1="68.5" y1="145.4" x2="78.8" y2="145.4"/>
	<line class="st4" x1="70.6" y1="147.1" x2="76.7" y2="147.1"/>
	<line class="st4" x1="75.4" y1="148.7" x2="71.8" y2="148.7"/>
	<line class="st4" x1="165.4" y1="117.9" x2="165.4" y2="145.3"/>
	<line class="st4" x1="160.2" y1="145.3" x2="170.5" y2="145.3"/>
	<line class="st4" x1="162.3" y1="147" x2="168.4" y2="147"/>
	<line class="st4" x1="167.2" y1="148.6" x2="163.6" y2="148.6"/>
	<line class="st4" x1="196.1" y1="117.9" x2="196.1" y2="145.3"/>
	<line class="st4" x1="191" y1="145.3" x2="201.3" y2="145.3"/>
	<line class="st4" x1="193.1" y1="147" x2="199.2" y2="147"/>
	<line class="st4" x1="197.9" y1="148.6" x2="194.3" y2="148.6"/>
	<polyline class="st5" points="144.6,75 140.8,77.3 133,77.3 	"/>
	<line class="st5" x1="152.5" y1="77.3" x2="145.7" y2="77.3"/>
	<rect x="134.8" y="72.1" class="st6" width="17.3" height="10.7"/>
	<line class="st7" x1="70" y1="98.8" x2="77.3" y2="98.8"/>
	<line class="st7" x1="71.4" y1="101.1" x2="75.8" y2="101.1"/>
	<line class="st7" x1="70" y1="104" x2="77.3" y2="104"/>
	<line class="st7" x1="71.4" y1="106.3" x2="75.8" y2="106.3"/>
	<line class="st7" x1="70" y1="109.1" x2="77.3" y2="109.1"/>
	<line class="st7" x1="71.4" y1="111.4" x2="75.8" y2="111.4"/>
	<line class="st7" x1="70" y1="114.3" x2="77.3" y2="114.3"/>
	<line class="st7" x1="71.4" y1="116.6" x2="75.8" y2="116.6"/>
	<line class="st7" x1="70" y1="119.5" x2="77.3" y2="119.5"/>
	<line class="st7" x1="71.4" y1="121.8" x2="75.8" y2="121.8"/>
	<line class="st7" x1="70" y1="124.7" x2="77.3" y2="124.7"/>
	<line class="st7" x1="71.4" y1="127" x2="75.8" y2="127"/>
	<rect x="68.4" y="95.3" class="st4" width="10.5" height="35.1"/>
	<line class="st7" x1="73.6" y1="127.1" x2="73.6" y2="134.3"/>
	<line class="st7" x1="73.6" y1="91" x2="73.6" y2="98.8"/>
	<g>
		<g>
			<g>
				<defs>
					<rect id="SVGID_9_" x="39" y="35.6" width="184.2" height="153.5"/>
				</defs>
				<clipPath id="SVGID_10_">
					<use xlink:href="#SVGID_9_"  style="overflow:visible;"/>
				</clipPath>
				<path class="st8" d="M72.7,135c0-0.5,0.4-1,0.9-1c0.3,0,0.5,0.1,0.7,0.3s0.3,0.4,0.3,0.7c0,0.5-0.4,0.9-0.9,0.9
					C73.1,136,72.7,135.5,72.7,135"/>
			</g>
		</g>
		<g>
			<g>
				<defs>
					<rect id="SVGID_11_" x="39" y="35.6" width="184.2" height="153.5"/>
				</defs>
				<clipPath id="SVGID_12_">
					<use xlink:href="#SVGID_11_"  style="overflow:visible;"/>
				</clipPath>
				<path class="st9" d="M72.7,135c0-0.5,0.4-1,0.9-1c0.3,0,0.5,0.1,0.7,0.3s0.3,0.4,0.3,0.7c0,0.5-0.4,0.9-0.9,0.9
					C73.1,136,72.7,135.5,72.7,135"/>
			</g>
		</g>
		<g>
			<g>
				<defs>
					<rect id="SVGID_13_" x="39" y="35.6" width="184.2" height="153.5"/>
				</defs>
				<clipPath id="SVGID_14_">
					<use xlink:href="#SVGID_13_"  style="overflow:visible;"/>
				</clipPath>
				<path class="st10" d="M72.7,90.2c0-0.5,0.4-1,0.9-1s0.9,0.4,0.9,1c0,0.5-0.4,0.9-0.9,0.9C73.1,91.2,72.7,90.7,72.7,90.2"/>
			</g>
		</g>
		<g>
			<g>
				<defs>
					<rect id="SVGID_15_" x="39" y="35.6" width="184.2" height="153.5"/>
				</defs>
				<clipPath id="SVGID_16_">
					<use xlink:href="#SVGID_15_"  style="overflow:visible;"/>
				</clipPath>
				<path class="st11" d="M72.7,90.2c0-0.5,0.4-1,0.9-1s0.9,0.4,0.9,1c0,0.5-0.4,0.9-0.9,0.9C73.1,91.2,72.7,90.7,72.7,90.2"/>
			</g>
		</g>
		<g>
			<g>
				<defs>
					<rect id="SVGID_17_" x="39" y="35.6" width="184.2" height="153.5"/>
				</defs>
				<clipPath id="SVGID_18_">
					<use xlink:href="#SVGID_17_"  style="overflow:visible;"/>
				</clipPath>
				<ellipse class="st12" cx="196.1" cy="112.6" rx="5.1" ry="5.3"/>
			</g>
		</g>
	</g>
	<line class="st7" x1="192.9" y1="108.8" x2="200" y2="116.2"/>
	<line class="st7" x1="199.7" y1="108.8" x2="192.6" y2="116.2"/>
	<line class="st13" x1="196.1" y1="77.3" x2="196.1" y2="107.3"/>
	<line class="st13" x1="152.2" y1="77.3" x2="196.1" y2="77.3"/>
	<line class="st13" x1="110.1" y1="77.3" x2="134.8" y2="77.3"/>
	<line class="st13" x1="73.6" y1="77.3" x2="92.6" y2="77.3"/>
	<line class="st13" x1="165.4" y1="107.3" x2="165.4" y2="77.2"/>
	<line class="st13" x1="73.6" y1="89" x2="73.6" y2="77.3"/>
	<polygon points="76.7,91.4 76.7,90.4 75.8,90.4 75.8,90 76.7,90 76.7,89 77.1,89 77.1,90 78.1,90 78.1,90.4 77.1,90.4 77.1,91.4 	
		"/>
	<rect x="76.2" y="134.1" width="1.3" height="0.4"/>
	<polygon points="160.2,107.5 160.2,106.5 159.3,106.5 159.3,106.1 160.2,106.1 160.2,105.1 160.6,105.1 160.6,106.1 161.6,106.1 
		161.6,106.5 160.6,106.5 160.6,107.5 	"/>
	<rect x="159.8" y="119" width="1.3" height="0.4"/>
	<g>
		<g>
			<g>
				<defs>
					<rect id="SVGID_19_" x="39" y="35.6" width="184.2" height="153.5"/>
				</defs>
				<clipPath id="SVGID_20_">
					<use xlink:href="#SVGID_19_"  style="overflow:visible;"/>
				</clipPath>
				<ellipse class="st14" cx="165.4" cy="112.6" rx="5.1" ry="5.3"/>
			</g>
		</g>
		<g>
			<g>
				<defs>
					<rect id="SVGID_21_" x="39" y="35.6" width="184.2" height="153.5"/>
				</defs>
				<clipPath id="SVGID_22_">
					<use xlink:href="#SVGID_21_"  style="overflow:visible;"/>
				</clipPath>
				<ellipse class="st15" cx="94.4" cy="77.4" rx="1.9" ry="1.9"/>
			</g>
		</g>
		<g>
			<g>
				<defs>
					<rect id="SVGID_23_" x="39" y="35.6" width="184.2" height="153.5"/>
				</defs>
				<clipPath id="SVGID_24_">
					<use xlink:href="#SVGID_23_"  style="overflow:visible;"/>
				</clipPath>
				<ellipse class="st16" cx="108.2" cy="77.4" rx="1.9" ry="1.9"/>
			</g>
		</g>
		<g>
			<g>
				<defs>
					<rect id="SVGID_25_" x="39" y="35.6" width="184.2" height="153.5"/>
				</defs>
				<clipPath id="SVGID_26_">
					<use xlink:href="#SVGID_25_"  style="overflow:visible;"/>
				</clipPath>
				<path class="st17" d="M106.5,78.5c-2.1,0.1-2.7-0.1-3.6-1.1c-1.1-1.1-1.4-2.1-3.1-2.5c-1.3-0.3-2.9,0.1-3.9,1"/>
			</g>
		</g>
		<g>
			<g>
				<defs>
					<rect id="SVGID_27_" x="39" y="35.6" width="184.2" height="153.5"/>
				</defs>
				<clipPath id="SVGID_28_">
					<use xlink:href="#SVGID_27_"  style="overflow:visible;"/>
				</clipPath>
				<path class="st18" d="M95.9,76c0.7-0.2,2.4,0,3.1,0.6c1,0.8,1.7,2.3,3.3,2.9c2.4,0.8,3.9-0.6,4.2-0.9"/>
			</g>
		</g>
		<g>
			<g>
				<defs>
					<rect id="SVGID_29_" x="39" y="35.6" width="184.2" height="153.5"/>
				</defs>
				<clipPath id="SVGID_30_">
					<use xlink:href="#SVGID_29_"  style="overflow:visible;"/>
				</clipPath>
				<path class="st19" d="M163.6,77.4c0-1,0.8-1.8,1.7-1.8c1,0,1.8,0.8,1.8,1.8s-0.8,1.7-1.8,1.7C164.4,79.1,163.6,78.3,163.6,77.4"
					/>
			</g>
		</g>
		<g>
			<g>
				<defs>
					<rect id="SVGID_31_" x="39" y="35.6" width="184.2" height="153.5"/>
				</defs>
				<clipPath id="SVGID_32_">
					<use xlink:href="#SVGID_31_"  style="overflow:visible;"/>
				</clipPath>
				<path class="st20" d="M163.6,77.4c0-1,0.8-1.8,1.7-1.8c1,0,1.8,0.8,1.8,1.8s-0.8,1.7-1.8,1.7C164.4,79.1,163.6,78.3,163.6,77.4"
					/>
			</g>
		</g>
		<g>
			<g>
				<defs>
					<rect id="SVGID_33_" x="39" y="35.6" width="184.2" height="153.5"/>
				</defs>
				<clipPath id="SVGID_34_">
					<use xlink:href="#SVGID_33_"  style="overflow:visible;"/>
				</clipPath>
				<path class="st21" d="M165,115.6l-2-5.4h0.7l1.4,3.9c0.1,0.3,0.2,0.6,0.3,0.9c0.1-0.3,0.2-0.6,0.3-0.9l1.4-3.9h0.7l-2,5.4H165z"
					/>
			</g>
		</g>
	</g>
</g>
<g>
	<path d="M94.9,82h2.5v0.5h-1.9V84h1.8v0.5h-1.8v2.1h-0.6V82z"/>
	<path d="M100.9,85.8c0,0.4,0,0.7,0,0.9h-0.5v-0.6l0,0c-0.2,0.3-0.5,0.6-1.1,0.6c-0.5,0-1.2-0.3-1.2-1.5v-2h0.6v1.9
		c0,0.6,0.2,1.1,0.8,1.1c0.4,0,0.7-0.3,0.8-0.6c0-0.1,0.1-0.2,0.1-0.3v-2.1h0.6v2.6H100.9z"/>
	<path d="M101.9,86.1c0.2,0.1,0.5,0.2,0.8,0.2c0.4,0,0.7-0.2,0.7-0.5s-0.2-0.5-0.6-0.6c-0.6-0.2-0.9-0.6-0.9-1c0-0.5,0.4-1,1.2-1
		c0.3,0,0.6,0.1,0.8,0.2l-0.2,0.4c-0.1-0.1-0.4-0.2-0.7-0.2c-0.4,0-0.6,0.2-0.6,0.5s0.2,0.4,0.6,0.6c0.6,0.2,0.9,0.5,0.9,1
		c0,0.6-0.5,1-1.3,1c-0.4,0-0.7-0.1-1-0.2L101.9,86.1z"/>
	<path d="M105.1,85.1c0,0.8,0.5,1.2,1.2,1.2c0.4,0,0.7-0.1,0.9-0.2l0.1,0.4c-0.2,0.1-0.6,0.2-1.1,0.2c-1,0-1.7-0.7-1.7-1.7
		s0.6-1.8,1.6-1.8c1.1,0,1.4,1,1.4,1.6c0,0.1,0,0.2,0,0.3H105.1z M106.9,84.7c0-0.4-0.2-1-0.9-1c-0.6,0-0.9,0.6-0.9,1H106.9z"/>
</g>
<g>
	<path d="M133.9,89.1c0.3,0.2,0.7,0.3,1.1,0.3c0.6,0,1-0.3,1-0.8c0-0.4-0.3-0.7-0.9-0.9c-0.8-0.3-1.2-0.7-1.2-1.3
		c0-0.7,0.6-1.3,1.5-1.3c0.5,0,0.8,0.1,1,0.2l-0.2,0.5c-0.2-0.1-0.5-0.2-0.9-0.2c-0.6,0-0.9,0.4-0.9,0.7c0,0.4,0.3,0.7,0.9,0.9
		c0.8,0.3,1.2,0.7,1.2,1.4c0,0.7-0.5,1.4-1.7,1.4c-0.5,0-1-0.1-1.2-0.3L133.9,89.1z"/>
	<path d="M137.6,86.5l0.4,1.7c0.1,0.4,0.2,0.7,0.3,1.1l0,0c0.1-0.3,0.2-0.7,0.3-1.1l0.6-1.7h0.5l0.5,1.7c0.1,0.4,0.2,0.8,0.3,1.1
		l0,0c0.1-0.3,0.1-0.7,0.3-1.1l0.5-1.7h0.6l-1.1,3.4h-0.6l-0.5-1.6c-0.1-0.4-0.2-0.7-0.3-1.1l0,0c-0.1,0.4-0.2,0.8-0.3,1.1l-0.5,1.6
		H138l-1-3.4H137.6z"/>
	<path d="M143.2,85.5c0,0.2-0.1,0.4-0.4,0.4c-0.2,0-0.4-0.2-0.4-0.4c0-0.2,0.2-0.4,0.4-0.4S143.2,85.3,143.2,85.5z M142.5,89.9v-3.4
		h0.6v3.4H142.5z"/>
	<path d="M144.9,85.5v1h0.9V87h-0.9v1.8c0,0.4,0.1,0.7,0.5,0.7c0.2,0,0.3,0,0.4,0V90c-0.1,0-0.3,0.1-0.5,0.1c-0.3,0-0.5-0.1-0.7-0.3
		c-0.2-0.2-0.2-0.5-0.2-0.9V87h-0.5v-0.5h0.5v-0.8L144.9,85.5z"/>
	<path d="M148.8,89.7c-0.2,0.1-0.5,0.2-1,0.2c-1,0-1.7-0.7-1.7-1.7s0.7-1.8,1.8-1.8c0.4,0,0.7,0.1,0.9,0.2l-0.1,0.5
		c-0.1-0.1-0.4-0.2-0.7-0.2c-0.8,0-1.2,0.6-1.2,1.3c0,0.8,0.5,1.3,1.2,1.3c0.4,0,0.6-0.1,0.8-0.2V89.7z"/>
	<path d="M149.5,84.9h0.6V87l0,0c0.1-0.2,0.3-0.3,0.4-0.4c0.2-0.1,0.4-0.2,0.6-0.2c0.5,0,1.2,0.3,1.2,1.4v2h-0.6v-1.9
		c0-0.5-0.2-1-0.8-1c-0.4,0-0.7,0.3-0.8,0.6c0,0.1,0,0.2,0,0.3v2h-0.6L149.5,84.9L149.5,84.9z"/>
</g>
<g>
	<path d="M131.8,114.2l-1.5-4.7h0.7l0.7,2.3c0.2,0.6,0.4,1.2,0.5,1.8l0,0c0.1-0.5,0.3-1.1,0.5-1.8l0.8-2.3h0.7l-1.7,4.7H131.8z"/>
	<path d="M137.4,112.5c0,1.3-0.9,1.8-1.7,1.8c-0.9,0-1.6-0.7-1.6-1.7c0-1.1,0.7-1.8,1.7-1.8C136.8,110.7,137.4,111.4,137.4,112.5z
		 M134.8,112.5c0,0.7,0.4,1.3,1,1.3s1-0.6,1-1.3c0-0.6-0.3-1.3-1-1.3S134.8,111.9,134.8,112.5z"/>
	<path d="M138.2,109.2h0.6v5h-0.6V109.2z"/>
	<path d="M140.6,109.8v1h0.9v0.5h-0.9v1.8c0,0.4,0.1,0.7,0.5,0.7c0.2,0,0.3,0,0.4,0v0.5c-0.1,0-0.3,0.1-0.5,0.1
		c-0.3,0-0.5-0.1-0.7-0.3c-0.2-0.2-0.2-0.5-0.2-0.9v-1.8h-0.5v-0.5h0.5V110L140.6,109.8z"/>
	<path d="M142.2,111.7c0-0.4,0-0.6,0-0.9h0.5v0.5l0,0c0.2-0.3,0.5-0.6,1.1-0.6c0.5,0,0.8,0.3,1,0.7l0,0c0.1-0.2,0.2-0.3,0.4-0.4
		c0.2-0.2,0.4-0.2,0.7-0.2c0.4,0,1.1,0.3,1.1,1.5v2h-0.6v-1.9c0-0.7-0.2-1-0.7-1c-0.4,0-0.6,0.3-0.7,0.6c0,0.1,0,0.2,0,0.3v2.1h-0.6
		v-2c0-0.5-0.2-0.9-0.7-0.9c-0.4,0-0.7,0.3-0.8,0.6c0,0.1,0,0.2,0,0.3v2h-0.6L142.2,111.7L142.2,111.7z"/>
	<path d="M148.4,112.6c0,0.8,0.5,1.2,1.2,1.2c0.4,0,0.7-0.1,0.9-0.2l0.1,0.4c-0.2,0.1-0.6,0.2-1.1,0.2c-1,0-1.7-0.7-1.7-1.7
		s0.6-1.8,1.6-1.8c1.1,0,1.4,1,1.4,1.6c0,0.1,0,0.2,0,0.3H148.4z M150.2,112.2c0-0.4-0.2-1-0.9-1c-0.6,0-0.9,0.6-0.9,1H150.2z"/>
	<path d="M152.3,109.8v1h0.9v0.5h-0.9v1.8c0,0.4,0.1,0.7,0.5,0.7c0.2,0,0.3,0,0.4,0v0.5c-0.1,0-0.3,0.1-0.5,0.1
		c-0.3,0-0.5-0.1-0.7-0.3c-0.2-0.2-0.2-0.5-0.2-0.9v-1.8h-0.5v-0.5h0.5V110L152.3,109.8z"/>
	<path d="M154.1,112.6c0,0.8,0.5,1.2,1.2,1.2c0.4,0,0.7-0.1,0.9-0.2l0.1,0.4c-0.2,0.1-0.6,0.2-1.1,0.2c-1,0-1.7-0.7-1.7-1.7
		s0.6-1.8,1.6-1.8c1.1,0,1.4,1,1.4,1.6c0,0.1,0,0.2,0,0.3H154.1z M156,112.2c0-0.4-0.2-1-0.9-1c-0.6,0-0.9,0.6-0.9,1H156z"/>
	<path d="M157.3,111.9c0-0.4,0-0.7,0-1.1h0.5v0.7l0,0c0.2-0.5,0.5-0.7,0.9-0.7c0.1,0,0.1,0,0.2,0v0.6c-0.1,0-0.1,0-0.2,0
		c-0.4,0-0.7,0.3-0.8,0.8c0,0.1,0,0.2,0,0.3v1.8h-0.6L157.3,111.9L157.3,111.9z"/>
</g>
<g>
	<path d="M204.7,138.2v1.8h1.7v-2h0.5v2.7h-4.7v-2.5h0.5v1.9h1.5v-1.8L204.7,138.2z"/>
	<path d="M201.9,137.2v-0.6h5v0.6H201.9z"/>
	<path d="M205.3,135.2c0.8,0,1.2-0.6,1.2-1.2c0-0.4-0.1-0.7-0.2-0.9l0.4-0.1c0.1,0.2,0.2,0.6,0.2,1.1c0,1-0.7,1.7-1.7,1.7
		s-1.8-0.6-1.8-1.6c0-1.1,1-1.4,1.6-1.4c0.1,0,0.2,0,0.3,0V135.2z M204.9,133.4c-0.4,0-1,0.2-1,0.9c0,0.6,0.6,0.9,1,0.9V133.4z"/>
	<path d="M206.8,129.6c0.1,0.2,0.2,0.5,0.2,1c0,1-0.7,1.7-1.7,1.7s-1.8-0.7-1.8-1.8c0-0.4,0.1-0.7,0.2-0.9l0.5,0.1
		c-0.1,0.1-0.2,0.4-0.2,0.7c0,0.8,0.6,1.2,1.3,1.2c0.8,0,1.3-0.5,1.3-1.2c0-0.4-0.1-0.6-0.2-0.8H206.8z"/>
	<path d="M202.5,128.1h1v-0.9h0.5v0.9h1.8c0.4,0,0.7-0.1,0.7-0.5c0-0.2,0-0.3,0-0.4h0.5c0,0.1,0.1,0.3,0.1,0.5
		c0,0.3-0.1,0.5-0.3,0.7s-0.5,0.2-0.9,0.2h-1.8v0.5h-0.5v-0.5h-0.8L202.5,128.1z"/>
	<path d="M204.5,126.5c-0.4,0-0.7,0-1.1,0V126h0.7l0,0c-0.5-0.2-0.7-0.5-0.7-0.9c0-0.1,0-0.1,0-0.2h0.6c0,0.1,0,0.1,0,0.2
		c0,0.4,0.3,0.7,0.8,0.8c0.1,0,0.2,0,0.3,0h1.8v0.6H204.5z"/>
	<path d="M202.5,123.5c0.2,0,0.4,0.1,0.4,0.4c0,0.2-0.2,0.4-0.4,0.4s-0.4-0.2-0.4-0.4S202.3,123.5,202.5,123.5z M206.9,124.2h-3.4
		v-0.6h3.4V124.2z"/>
	<path d="M206.7,120.1c0.1,0.2,0.2,0.5,0.2,1c0,1-0.7,1.7-1.7,1.7s-1.8-0.7-1.8-1.8c0-0.4,0.1-0.7,0.2-0.9l0.5,0.1
		c-0.1,0.1-0.2,0.4-0.2,0.7c0,0.8,0.6,1.2,1.3,1.2c0.8,0,1.3-0.5,1.3-1.2c0-0.4-0.1-0.6-0.2-0.8L206.7,120.1z"/>
	<path d="M206.8,117.6l-0.4,0.1l0,0c0.3,0.2,0.5,0.6,0.5,1c0,0.7-0.5,1-1,1c-0.8,0-1.3-0.7-1.3-2h-0.1c-0.3,0-0.8,0.1-0.8,0.8
		c0,0.3,0.1,0.6,0.3,0.9l-0.4,0.1c-0.2-0.3-0.3-0.7-0.3-1.1c0-1,0.7-1.3,1.4-1.3h1.3c0.3,0,0.6,0,0.8-0.1V117.6z M205.1,117.6
		c0,0.7,0.1,1.4,0.8,1.4c0.4,0,0.6-0.3,0.6-0.6c0-0.4-0.3-0.7-0.6-0.8c-0.1,0-0.1,0-0.2,0H205.1z"/>
	<path d="M201.9,116.1v-0.6h5v0.6H201.9z"/>
	<path d="M206.8,111l-0.4,0.1l0,0c0.3,0.2,0.5,0.6,0.5,1c0,0.7-0.5,1-1,1c-0.8,0-1.3-0.7-1.3-2h-0.1c-0.3,0-0.8,0.1-0.8,0.8
		c0,0.3,0.1,0.6,0.3,0.9l-0.4,0.1c-0.2-0.3-0.3-0.7-0.3-1.1c0-1,0.7-1.3,1.4-1.3h1.3c0.3,0,0.6,0,0.8-0.1V111z M205.1,111.1
		c0,0.7,0.1,1.4,0.8,1.4c0.4,0,0.6-0.3,0.6-0.6c0-0.4-0.3-0.7-0.6-0.8c-0.1,0-0.1,0-0.2,0H205.1z"/>
	<path d="M204.5,109.6c-0.4,0-0.8,0-1.1,0V109h0.6l0,0c-0.4-0.3-0.7-0.6-0.7-1.2c0-0.8,0.7-1.4,1.7-1.4c1.2,0,1.8,0.7,1.8,1.5
		c0,0.4-0.2,0.8-0.5,1l0,0h1.8v0.6L204.5,109.6z M205.4,108.9c0.1,0,0.2,0,0.3,0c0.4-0.1,0.7-0.5,0.7-0.9c0-0.7-0.5-1-1.3-1
		c-0.7,0-1.3,0.4-1.3,1c0,0.4,0.3,0.8,0.8,0.9c0.1,0,0.2,0,0.3,0H205.4z"/>
	<path d="M204.5,105.6c-0.4,0-0.8,0-1.1,0V105h0.6l0,0c-0.4-0.3-0.7-0.6-0.7-1.2c0-0.8,0.7-1.4,1.7-1.4c1.2,0,1.8,0.7,1.8,1.5
		c0,0.4-0.2,0.8-0.5,1l0,0h1.8v0.6L204.5,105.6z M205.4,105c0.1,0,0.2,0,0.3,0c0.4-0.1,0.7-0.5,0.7-0.9c0-0.7-0.5-1-1.3-1
		c-0.7,0-1.3,0.4-1.3,1c0,0.4,0.3,0.8,0.8,0.9c0.1,0,0.2,0,0.3,0H205.4z"/>
	<path d="M201.8,101.6V101h5v0.6H201.8z"/>
	<path d="M202.4,99.3c0.2,0,0.4,0.1,0.4,0.4c0,0.2-0.2,0.4-0.4,0.4s-0.4-0.2-0.4-0.4C202,99.4,202.2,99.3,202.4,99.3z M206.8,99.9
		h-3.4v-0.6h3.4V99.9z"/>
	<path d="M206.7,96.4l-0.4,0.1l0,0c0.3,0.2,0.5,0.6,0.5,1c0,0.7-0.5,1-1,1c-0.8,0-1.3-0.7-1.3-2h-0.1c-0.3,0-0.8,0.1-0.8,0.8
		c0,0.3,0.1,0.6,0.3,0.9l-0.4,0.1c-0.2-0.3-0.3-0.7-0.3-1.1c0-1,0.7-1.3,1.4-1.3h1.3c0.3,0,0.6,0,0.8-0.1V96.4z M205,96.5
		c0,0.7,0.1,1.4,0.8,1.4c0.4,0,0.6-0.3,0.6-0.6c0-0.4-0.3-0.7-0.6-0.8c-0.1,0-0.1,0-0.2,0H205z"/>
	<path d="M204.3,94.9c-0.3,0-0.6,0-0.9,0v-0.5h0.6l0,0c-0.3-0.2-0.6-0.6-0.6-1.1s0.3-1.2,1.4-1.2h2v0.6h-2c-0.5,0-1,0.2-1,0.8
		c0,0.4,0.3,0.7,0.6,0.8c0.1,0,0.2,0,0.3,0h2v0.6L204.3,94.9z"/>
	<path d="M206.6,88.6c0.1,0.2,0.2,0.5,0.2,1c0,1-0.7,1.7-1.7,1.7s-1.8-0.7-1.8-1.8c0-0.4,0.1-0.7,0.2-0.9l0.5,0.1
		c-0.1,0.1-0.2,0.4-0.2,0.7c0,0.8,0.6,1.2,1.3,1.2c0.8,0,1.3-0.5,1.3-1.2c0-0.3-0.1-0.6-0.2-0.8L206.6,88.6z"/>
	<path d="M205.1,87.6c0.8,0,1.2-0.6,1.2-1.2c0-0.4-0.1-0.7-0.2-0.9l0.4-0.1c0.1,0.2,0.2,0.6,0.2,1.1c0,1-0.7,1.7-1.7,1.7
		s-1.8-0.6-1.8-1.6c0-1.1,1-1.4,1.6-1.4c0.1,0,0.2,0,0.3,0V87.6z M204.7,85.8c-0.4,0-1,0.2-1,0.9c0,0.6,0.6,0.9,1,0.9V85.8z"/>
</g>
<g>
	<path d="M45.2,109.5c0.3-0.1,0.7-0.1,1.1-0.1c0.6,0,1,0.1,1.3,0.3c0.2,0.2,0.4,0.5,0.4,0.8c0,0.5-0.3,0.9-0.8,1l0,0
		c0.4,0.1,1,0.5,1,1.2c0,0.4-0.2,0.7-0.4,0.9c-0.3,0.3-0.9,0.4-1.6,0.4c-0.4,0-0.7,0-0.9-0.1L45.2,109.5L45.2,109.5z M45.8,111.5
		h0.6c0.6,0,1-0.3,1-0.8c0-0.6-0.4-0.8-1-0.8c-0.3,0-0.4,0-0.5,0L45.8,111.5L45.8,111.5z M45.8,113.7c0.1,0,0.3,0,0.5,0
		c0.6,0,1.2-0.2,1.2-0.9c0-0.6-0.6-0.9-1.2-0.9h-0.5V113.7z"/>
	<path d="M50.8,114.2v-0.4l0,0c-0.2,0.3-0.6,0.5-1,0.5c-0.7,0-1-0.5-1-1c0-0.8,0.7-1.3,2-1.3v-0.1c0-0.3-0.1-0.8-0.8-0.8
		c-0.3,0-0.6,0.1-0.9,0.3L49,111c0.3-0.2,0.7-0.3,1.1-0.3c1,0,1.3,0.7,1.3,1.4v1.3c0,0.3,0,0.6,0.1,0.8H50.8z M50.7,112.4
		c-0.7,0-1.4,0.1-1.4,0.8c0,0.4,0.3,0.6,0.6,0.6c0.4,0,0.7-0.3,0.8-0.6c0-0.1,0-0.1,0-0.2C50.7,113,50.7,112.4,50.7,112.4z"/>
	<path d="M53,109.8v1h0.9v0.5H53v1.8c0,0.4,0.1,0.7,0.5,0.7c0.2,0,0.3,0,0.4,0v0.5c-0.1,0-0.3,0.1-0.5,0.1c-0.3,0-0.5-0.1-0.7-0.3
		c-0.2-0.2-0.2-0.5-0.2-0.9v-1.8H52v-0.5h0.5V110L53,109.8z"/>
	<path d="M55.4,109.8v1h0.9v0.5h-0.9v1.8c0,0.4,0.1,0.7,0.5,0.7c0.2,0,0.3,0,0.4,0v0.5c-0.1,0-0.3,0.1-0.5,0.1
		c-0.3,0-0.5-0.1-0.7-0.3c-0.2-0.2-0.2-0.5-0.2-0.9v-1.8h-0.5v-0.5h0.5V110L55.4,109.8z"/>
	<path d="M57.2,112.6c0,0.8,0.5,1.2,1.2,1.2c0.4,0,0.7-0.1,0.9-0.2l0.1,0.4c-0.2,0.1-0.6,0.2-1.1,0.2c-1,0-1.7-0.7-1.7-1.7
		s0.6-1.8,1.6-1.8c1.1,0,1.4,1,1.4,1.6c0,0.1,0,0.2,0,0.3H57.2z M59,112.2c0-0.4-0.2-1-0.9-1c-0.6,0-0.9,0.6-0.9,1H59z"/>
	<path d="M60.4,111.8c0-0.4,0-0.7,0-1.1h0.5v0.7l0,0c0.2-0.5,0.5-0.7,0.9-0.7c0.1,0,0.1,0,0.2,0v0.6c-0.1,0-0.1,0-0.2,0
		c-0.4,0-0.7,0.3-0.8,0.8c0,0.1,0,0.2,0,0.3v1.8h-0.6C60.4,114.2,60.4,111.8,60.4,111.8z"/>
	<path d="M63.1,110.8l0.7,2c0.1,0.2,0.2,0.5,0.2,0.7l0,0c0.1-0.2,0.1-0.5,0.2-0.7l0.7-2h0.7l-0.9,2.4c-0.4,1.2-0.7,1.8-1.2,2.1
		c-0.3,0.3-0.6,0.4-0.8,0.4l-0.2-0.5c0.2,0,0.4-0.1,0.5-0.3c0.2-0.1,0.4-0.4,0.5-0.7c0-0.1,0-0.1,0-0.1s0-0.1,0-0.2l-1.3-3.1
		C62.2,110.8,63.1,110.8,63.1,110.8z"/>
</g>
</svg>
