<?xml version="1.0" encoding="utf-8"?>
<!-- Generator: Adobe Illustrator 24.0.1, SVG Export Plug-In . SVG Version: 6.00 Build 0)  -->
<svg version="1.1" id="图层_1" xmlns="http://www.w3.org/2000/svg" xmlns:xlink="http://www.w3.org/1999/xlink" x="0px" y="0px"
	 viewBox="0 0 240.9 198.4" style="enable-background:new 0 0 240.9 198.4;" xml:space="preserve">
<style type="text/css">
	.st0{fill:#231815;}
	.st1{fill:none;stroke:#231815;stroke-width:0.794;}
	.st2{fill:none;stroke:#231815;stroke-width:0.53;stroke-linecap:round;stroke-linejoin:round;stroke-miterlimit:10;}
	.st3{fill:none;stroke:#231815;stroke-width:0.794;stroke-linecap:round;stroke-miterlimit:10;}
	.st4{fill:none;stroke:#231815;stroke-width:0.53;}
	.st5{clip-path:url(#SVGID_2_);fill:#FFFFFF;}
	.st6{clip-path:url(#SVGID_4_);fill:none;stroke:#231815;stroke-width:0.53;}
	.st7{clip-path:url(#SVGID_6_);fill:#FFFFFF;}
	.st8{clip-path:url(#SVGID_8_);fill:none;stroke:#231815;stroke-width:0.53;}
	.st9{clip-path:url(#SVGID_10_);fill:none;stroke:#231815;stroke-width:0.794;}
	.st10{fill:none;stroke:#231815;stroke-width:0.794;stroke-linecap:round;stroke-linejoin:round;}
	.st11{clip-path:url(#SVGID_12_);fill:none;stroke:#231815;stroke-width:0.794;}
	.st12{clip-path:url(#SVGID_14_);fill:none;stroke:#231815;stroke-width:0.794;}
	.st13{clip-path:url(#SVGID_16_);fill:none;stroke:#231815;stroke-width:0.794;}
	.st14{clip-path:url(#SVGID_18_);fill:none;stroke:#231815;stroke-width:0.794;}
	.st15{fill:#FFFFFF;}
	.st16{fill:none;stroke:#231815;stroke-width:0.636;stroke-linecap:round;stroke-linejoin:round;stroke-miterlimit:3;}
	.st17{fill:none;stroke:#231815;stroke-width:0.763;stroke-linecap:round;stroke-linejoin:round;stroke-miterlimit:3;}
	.st18{fill:none;stroke:#231815;stroke-width:0.794;stroke-linecap:round;stroke-linejoin:round;stroke-miterlimit:3;}
	.st19{fill:none;stroke:#231815;stroke-width:0.794;stroke-linecap:round;stroke-dasharray:12.715,12.715;}
	.st20{clip-path:url(#SVGID_20_);fill:none;stroke:#231815;stroke-width:1.06;stroke-linecap:square;}
	.st21{clip-path:url(#SVGID_22_);fill:none;stroke:#231815;stroke-width:1.06;stroke-linecap:square;}
	.st22{font-family:'SimHei';}
	.st23{font-size:5.2979px;}
	.st24{font-family:'ArialMT';}
	.st25{font-size:5.2975px;}
	.st26{fill:none;}
</style>
<polygon class="st0" points="29.4,21.4 30.3,22.4 210.6,22.4 211.6,21.4 "/>
<polygon class="st0" points="30.3,172.6 29.4,173.6 211.6,173.6 210.6,172.6 "/>
<polygon class="st0" points="29.4,173.6 30.3,172.6 30.3,22.4 29.4,21.4 "/>
<polygon class="st0" points="210.6,22.4 210.6,172.6 211.6,173.6 211.6,21.4 "/>
<line class="st1" x1="61.6" y1="140.5" x2="61.6" y2="152.9"/>
<line class="st1" x1="54.9" y1="152.9" x2="68.3" y2="152.9"/>
<line class="st1" x1="57.7" y1="155" x2="65.6" y2="155"/>
<line class="st1" x1="64" y1="157.1" x2="59.3" y2="157.1"/>
<line class="st1" x1="180.4" y1="110.1" x2="180.4" y2="152.9"/>
<line class="st1" x1="173.7" y1="152.9" x2="187.1" y2="152.9"/>
<line class="st1" x1="176.5" y1="155" x2="184.4" y2="155"/>
<line class="st1" x1="182.8" y1="157.1" x2="178.1" y2="157.1"/>
<line class="st1" x1="54.9" y1="152.9" x2="68.3" y2="152.9"/>
<line class="st1" x1="57.7" y1="155" x2="65.6" y2="155"/>
<line class="st1" x1="64" y1="157.1" x2="59.3" y2="157.1"/>
<polyline class="st2" points="153.6,38.5 148.7,41.4 141,41.4 "/>
<line class="st2" x1="163.8" y1="41.4" x2="155" y2="41.4"/>
<rect x="140.9" y="34.9" class="st3" width="22.4" height="13.1"/>
<line class="st4" x1="55.6" y1="81.5" x2="67.6" y2="81.5"/>
<line class="st4" x1="58.1" y1="85.1" x2="65.2" y2="85.1"/>
<line class="st4" x1="55.6" y1="89.7" x2="67.6" y2="89.7"/>
<line class="st4" x1="58.1" y1="93.3" x2="65.2" y2="93.3"/>
<line class="st4" x1="55.6" y1="97.9" x2="67.6" y2="97.9"/>
<line class="st4" x1="58.1" y1="101.5" x2="65.2" y2="101.5"/>
<line class="st4" x1="55.6" y1="106.1" x2="67.6" y2="106.1"/>
<line class="st4" x1="58.1" y1="109.8" x2="65.2" y2="109.8"/>
<line class="st4" x1="55.6" y1="114.3" x2="67.6" y2="114.3"/>
<line class="st4" x1="58.1" y1="118" x2="65.2" y2="118"/>
<line class="st4" x1="55.6" y1="122.6" x2="67.6" y2="122.6"/>
<line class="st4" x1="58.1" y1="126.2" x2="65.2" y2="126.2"/>
<rect x="53" y="76" class="st1" width="17.2" height="55.6"/>
<line class="st4" x1="61.6" y1="126.4" x2="61.6" y2="137.8"/>
<line class="st4" x1="61.6" y1="69.2" x2="61.6" y2="81.5"/>
<g>
	<g>
		<g>
			<defs>
				<rect id="SVGID_1_" x="30.3" y="22.5" width="180.2" height="150.2"/>
			</defs>
			<clipPath id="SVGID_2_">
				<use xlink:href="#SVGID_1_"  style="overflow:visible;"/>
			</clipPath>
			<path class="st5" d="M60.1,138.9c0-0.9,0.7-1.5,1.5-1.5c0.4,0,0.8,0.2,1.1,0.4c0.3,0.3,0.4,0.7,0.4,1.1c0,0.8-0.7,1.5-1.5,1.5
				S60.1,139.7,60.1,138.9"/>
		</g>
	</g>
	<g>
		<g>
			<defs>
				<rect id="SVGID_3_" x="30.3" y="22.5" width="180.2" height="150.2"/>
			</defs>
			<clipPath id="SVGID_4_">
				<use xlink:href="#SVGID_3_"  style="overflow:visible;"/>
			</clipPath>
			<path class="st6" d="M60.1,138.9c0-0.9,0.7-1.5,1.5-1.5c0.4,0,0.8,0.2,1.1,0.4c0.3,0.3,0.4,0.7,0.4,1.1c0,0.8-0.7,1.5-1.5,1.5
				S60.1,139.7,60.1,138.9"/>
		</g>
	</g>
	<g>
		<g>
			<defs>
				<rect id="SVGID_5_" x="30.3" y="22.5" width="180.2" height="150.2"/>
			</defs>
			<clipPath id="SVGID_6_">
				<use xlink:href="#SVGID_5_"  style="overflow:visible;"/>
			</clipPath>
			<path class="st7" d="M60.1,67.9c0-0.9,0.7-1.5,1.5-1.5c0.9,0,1.5,0.7,1.5,1.5s-0.7,1.5-1.5,1.5S60.1,68.7,60.1,67.9"/>
		</g>
	</g>
	<g>
		<g>
			<defs>
				<rect id="SVGID_7_" x="30.3" y="22.5" width="180.2" height="150.2"/>
			</defs>
			<clipPath id="SVGID_8_">
				<use xlink:href="#SVGID_7_"  style="overflow:visible;"/>
			</clipPath>
			<path class="st8" d="M60.1,67.9c0-0.9,0.7-1.5,1.5-1.5c0.9,0,1.5,0.7,1.5,1.5s-0.7,1.5-1.5,1.5S60.1,68.7,60.1,67.9"/>
		</g>
	</g>
	<g>
		<g>
			<defs>
				<rect id="SVGID_9_" x="30.3" y="22.5" width="180.2" height="150.2"/>
			</defs>
			<clipPath id="SVGID_10_">
				<use xlink:href="#SVGID_9_"  style="overflow:visible;"/>
			</clipPath>
			<circle class="st9" cx="180.4" cy="103.4" r="6.7"/>
		</g>
	</g>
</g>
<line class="st4" x1="176.2" y1="98.7" x2="185.5" y2="107.9"/>
<line class="st4" x1="185.1" y1="98.7" x2="175.9" y2="107.9"/>
<line class="st10" x1="163.4" y1="41.4" x2="180.4" y2="41.4"/>
<line class="st10" x1="108.8" y1="41.4" x2="140.8" y2="41.4"/>
<line class="st10" x1="61.6" y1="41.4" x2="86.1" y2="41.4"/>
<line class="st10" x1="180.4" y1="96.7" x2="180.4" y2="41.4"/>
<line class="st10" x1="61.6" y1="66.2" x2="61.6" y2="41.4"/>
<polygon class="st0" points="67,68.8 67,67.8 66,67.8 66,67.4 67,67.4 67,66.4 67.4,66.4 67.4,67.4 68.4,67.4 68.4,67.8 67.4,67.8 
	67.4,68.8 "/>
<rect x="66.5" y="138.4" class="st0" width="1.4" height="0.5"/>
<g>
	<g>
		<g>
			<defs>
				<rect id="SVGID_11_" x="30.3" y="22.5" width="180.2" height="150.2"/>
			</defs>
			<clipPath id="SVGID_12_">
				<use xlink:href="#SVGID_11_"  style="overflow:visible;"/>
			</clipPath>
			<ellipse class="st11" cx="88.5" cy="41.5" rx="2.4" ry="2.4"/>
		</g>
	</g>
	<g>
		<g>
			<defs>
				<rect id="SVGID_13_" x="30.3" y="22.5" width="180.2" height="150.2"/>
			</defs>
			<clipPath id="SVGID_14_">
				<use xlink:href="#SVGID_13_"  style="overflow:visible;"/>
			</clipPath>
			<circle class="st12" cx="106.3" cy="41.5" r="2.4"/>
		</g>
	</g>
	<g>
		<g>
			<defs>
				<rect id="SVGID_15_" x="30.3" y="22.5" width="180.2" height="150.2"/>
			</defs>
			<clipPath id="SVGID_16_">
				<use xlink:href="#SVGID_15_"  style="overflow:visible;"/>
			</clipPath>
			<path class="st13" d="M104.1,42.9c-2.7,0.1-3.5-0.2-4.7-1.4c-1.4-1.4-1.8-2.6-4-3.1c-1.7-0.4-3.8,0.1-5,1.3"/>
		</g>
	</g>
	<g>
		<g>
			<defs>
				<rect id="SVGID_17_" x="30.3" y="22.5" width="180.2" height="150.2"/>
			</defs>
			<clipPath id="SVGID_18_">
				<use xlink:href="#SVGID_17_"  style="overflow:visible;"/>
			</clipPath>
			<path class="st14" d="M90.4,39.7c0.9-0.2,3.1,0.1,4,0.7c1.3,1,2.2,2.9,4.3,3.6c3.1,1,5-0.8,5.4-1.2"/>
		</g>
	</g>
</g>
<rect x="177.6" y="66.7" class="st15" width="5.6" height="8.5"/>
<polygon class="st15" points="180.4,72.2 180.7,72.2 180.8,72.1 181,72.1 181.1,72 181.2,72 181.6,71.5 181.6,71.4 181.8,71.3 
	181.8,71.2 181.9,71.1 181.9,71 182,70.9 182,70.1 181.9,70 181.9,69.9 181.8,69.8 181.8,69.7 181.6,69.6 181.6,69.5 181.2,69.1 
	181.1,69.1 181,69 180.8,69 180.7,68.9 180.1,68.9 180,69 179.8,69 179.7,69.1 179.6,69.1 179.2,69.5 179.2,69.6 179.1,69.7 
	179.1,69.8 179,69.9 179,70 178.9,70.1 178.9,70.9 179,71 179,71.1 179.1,71.2 179.1,71.3 179.2,71.4 179.2,71.5 179.6,72 179.7,72 
	179.8,72.1 180,72.1 180.1,72.2 "/>
<polyline class="st16" points="180.4,72.2 180.7,72.2 180.8,72.1 181,72.1 181.1,72 181.2,72 181.6,71.5 181.6,71.4 181.8,71.3 
	181.8,71.2 181.9,71.1 181.9,71 182,70.9 182,70.1 181.9,70 181.9,69.9 181.8,69.8 181.8,69.7 181.6,69.6 181.6,69.5 181.2,69.1 
	181.1,69.1 181,69 180.8,69 180.7,68.9 180.1,68.9 180,69 179.8,69 179.7,69.1 179.6,69.1 179.2,69.5 179.2,69.6 179.1,69.7 
	179.1,69.8 179,69.9 179,70 178.9,70.1 178.9,70.9 179,71 179,71.1 179.1,71.2 179.1,71.3 179.2,71.4 179.2,71.5 179.6,72 179.7,72 
	179.8,72.1 180,72.1 180.1,72.2 180.3,72.2 "/>
<rect x="178.4" y="68.6" class="st15" width="4.1" height="1.9"/>
<rect x="180.2" y="69" class="st0" width="0.5" height="2"/>
<rect x="180.2" y="69" class="st17" width="0.5" height="2"/>
<line class="st18" x1="180.4" y1="70.6" x2="180.4" y2="66.6"/>
<line class="st19" x1="180.4" y1="72.2" x2="180.4" y2="75.3"/>
<rect x="118.6" y="38.6" class="st15" width="8.5" height="5.6"/>
<polygon class="st15" points="124.1,41.4 124.1,41.1 124,41 124,40.8 123.9,40.7 123.9,40.6 123.5,40.1 123.4,40.1 123.3,40 
	123.2,40 123.1,39.9 123,39.9 122.9,39.8 122.1,39.8 122,39.9 121.9,39.9 121.8,40 121.7,40 121.6,40.1 121.5,40.1 121.1,40.6 
	121.1,40.7 121,40.8 121,41 120.9,41.1 120.9,41.7 121,41.8 121,42 121.1,42.1 121.1,42.2 121.5,42.6 121.6,42.6 121.7,42.7 
	121.8,42.7 121.9,42.8 122,42.8 122.1,42.9 122.9,42.9 123,42.8 123.1,42.8 123.2,42.7 123.3,42.7 123.4,42.6 123.5,42.6 
	123.9,42.2 123.9,42.1 124,42 124,41.8 124.1,41.7 "/>
<polyline class="st16" points="124.1,41.4 124.1,41.1 124,41 124,40.8 123.9,40.7 123.9,40.6 123.5,40.1 123.4,40.1 123.3,40 
	123.2,40 123.1,39.9 123,39.9 122.9,39.8 122.1,39.8 122,39.9 121.9,39.9 121.8,40 121.7,40 121.6,40.1 121.5,40.1 121.1,40.6 
	121.1,40.7 121,40.8 121,41 120.9,41.1 120.9,41.7 121,41.8 121,42 121.1,42.1 121.1,42.2 121.5,42.6 121.6,42.6 121.7,42.7 
	121.8,42.7 121.9,42.8 122,42.8 122.1,42.9 122.9,42.9 123,42.8 123.1,42.8 123.2,42.7 123.3,42.7 123.4,42.6 123.5,42.6 
	123.9,42.2 123.9,42.1 124,42 124,41.8 124.1,41.7 124.1,41.5 "/>
<rect x="120.6" y="39.3" class="st15" width="1.9" height="4.1"/>
<rect x="121" y="41.1" class="st0" width="2" height="0.5"/>
<rect x="121" y="41.1" class="st17" width="2" height="0.5"/>
<line class="st18" x1="122.6" y1="41.4" x2="118.6" y2="41.4"/>
<line class="st19" x1="124.1" y1="41.4" x2="127.3" y2="41.4"/>
<rect x="177.6" y="126.4" class="st15" width="5.6" height="8.5"/>
<polygon class="st15" points="180.4,131.9 180.7,131.9 180.8,131.8 181,131.8 181.1,131.7 181.2,131.7 181.6,131.3 181.6,131.2 
	181.8,131.1 181.8,131 181.9,130.9 181.9,130.8 182,130.7 182,129.9 181.9,129.8 181.9,129.7 181.8,129.6 181.8,129.5 181.6,129.4 
	181.6,129.3 181.2,128.9 181.1,128.9 181,128.8 180.8,128.8 180.7,128.7 180.1,128.7 180,128.8 179.8,128.8 179.7,128.9 
	179.6,128.9 179.2,129.3 179.2,129.4 179.1,129.5 179.1,129.6 179,129.7 179,129.8 178.9,129.9 178.9,130.7 179,130.8 179,130.9 
	179.1,131 179.1,131.1 179.2,131.2 179.2,131.3 179.6,131.7 179.7,131.7 179.8,131.8 180,131.8 180.1,131.9 "/>
<polyline class="st16" points="180.4,131.9 180.7,131.9 180.8,131.8 181,131.8 181.1,131.7 181.2,131.7 181.6,131.3 181.6,131.2 
	181.8,131.1 181.8,131 181.9,130.9 181.9,130.8 182,130.7 182,129.9 181.9,129.8 181.9,129.7 181.8,129.6 181.8,129.5 181.6,129.4 
	181.6,129.3 181.2,128.9 181.1,128.9 181,128.8 180.8,128.8 180.7,128.7 180.1,128.7 180,128.8 179.8,128.8 179.7,128.9 
	179.6,128.9 179.2,129.3 179.2,129.4 179.1,129.5 179.1,129.6 179,129.7 179,129.8 178.9,129.9 178.9,130.7 179,130.8 179,130.9 
	179.1,131 179.1,131.1 179.2,131.2 179.2,131.3 179.6,131.7 179.7,131.7 179.8,131.8 180,131.8 180.1,131.9 180.3,131.9 "/>
<rect x="178.4" y="128.4" class="st15" width="4.1" height="1.9"/>
<rect x="180.2" y="128.8" class="st0" width="0.5" height="2"/>
<rect x="180.2" y="128.8" class="st17" width="0.5" height="2"/>
<line class="st18" x1="180.4" y1="130.4" x2="180.4" y2="126.4"/>
<line class="st19" x1="180.4" y1="131.9" x2="180.4" y2="135.1"/>
<g>
	<g>
		<g>
			<defs>
				<rect id="SVGID_19_" x="30.3" y="22.5" width="180.2" height="150.2"/>
			</defs>
			<clipPath id="SVGID_20_">
				<use xlink:href="#SVGID_19_"  style="overflow:visible;"/>
			</clipPath>
			<line class="st20" x1="210" y1="23" x2="210" y2="173.2"/>
		</g>
	</g>
	<g>
		<g>
			<defs>
				<rect id="SVGID_21_" x="30.3" y="22.5" width="180.2" height="150.2"/>
			</defs>
			<clipPath id="SVGID_22_">
				<use xlink:href="#SVGID_21_"  style="overflow:visible;"/>
			</clipPath>
			<line class="st21" x1="29.8" y1="23" x2="210" y2="23"/>
		</g>
	</g>
</g>
<text transform="matrix(1 0 0 1 91.2723 51.355)" class="st0 st22 st23">Fuse</text>
<text transform="matrix(1 0 0 1 108.8001 36.5296)" class="st0 st22 st23">Connector</text>
<text transform="matrix(1 0 0 1 134.2647 36.5298)" class="st0 st24 st23">A</text>
<text transform="matrix(1 0 0 1 148.6649 72.1998)" class="st0 st22 st23">Connector B</text>
<text transform="matrix(1 0 0 1 146.9341 54.7473)" class="st0 st22 st23">Switch</text>
<text transform="matrix(1 0 0 1 116.9555 106.0995)" class="st0 st22 st23">electicical appliance</text>
<text transform="matrix(0.9999 -1.149606e-02 1.149606e-02 0.9999 32.8126 101.4999)" class="st0 st22 st25">Battery</text>
<text transform="matrix(1 0 0 1 148.6645 132.1002)" class="st0 st22 st23">Connector C</text>
<polygon class="st26" points="155.2,51.4 146.9,51.4 146.9,51.4 "/>
</svg>
