<?xml version="1.0" encoding="utf-8"?>
<!-- Generator: Adobe Illustrator 24.0.1, SVG Export Plug-In . SVG Version: 6.00 Build 0)  -->
<svg version="1.1" id="图层_1" xmlns="http://www.w3.org/2000/svg" xmlns:xlink="http://www.w3.org/1999/xlink" x="0px" y="0px"
	 viewBox="0 0 240.9 198.4" style="enable-background:new 0 0 240.9 198.4;" xml:space="preserve">
<style type="text/css">
	.st0{fill:#231815;}
	.st1{clip-path:url(#SVGID_2_);fill:none;stroke:#231815;stroke-width:1.06;stroke-linecap:square;}
	.st2{clip-path:url(#SVGID_4_);fill:none;stroke:#231815;stroke-width:1.06;stroke-linecap:square;}
	.st3{clip-path:url(#SVGID_6_);fill:none;stroke:#231815;stroke-width:1.06;stroke-linecap:square;}
	.st4{clip-path:url(#SVGID_8_);fill:none;stroke:#231815;stroke-width:1.06;stroke-linecap:square;}
	.st5{clip-path:url(#SVGID_10_);fill:none;stroke:#231815;stroke-width:0.53;}
	.st6{clip-path:url(#SVGID_12_);fill:#231815;}
	.st7{clip-path:url(#SVGID_14_);fill:none;stroke:#231815;stroke-width:0.53;stroke-linecap:round;stroke-linejoin:round;}
	.st8{clip-path:url(#SVGID_16_);fill:none;stroke:#231815;stroke-width:0.53;stroke-linecap:round;stroke-linejoin:round;}
	.st9{clip-path:url(#SVGID_18_);fill:none;stroke:#231815;stroke-width:0.53;stroke-linecap:round;stroke-linejoin:round;}
	.st10{clip-path:url(#SVGID_20_);fill:none;stroke:#231815;stroke-width:0.53;stroke-linecap:round;stroke-linejoin:round;}
	.st11{clip-path:url(#SVGID_22_);fill:#221714;}
	.st12{clip-path:url(#SVGID_24_);fill:#221714;}
	.st13{clip-path:url(#SVGID_26_);fill:#FFFFFF;}
	.st14{clip-path:url(#SVGID_28_);fill:none;stroke:#231815;stroke-width:0.636;}
	.st15{clip-path:url(#SVGID_30_);fill:#FFFFFF;}
	.st16{clip-path:url(#SVGID_32_);fill:none;stroke:#231815;stroke-width:0.636;}
	.st17{clip-path:url(#SVGID_34_);fill:#231815;}
	.st18{clip-path:url(#SVGID_36_);fill:#231815;}
	.st19{clip-path:url(#SVGID_38_);fill:#231815;}
	.st20{clip-path:url(#SVGID_40_);fill:#231815;}
	.st21{clip-path:url(#SVGID_42_);fill:#231815;}
	.st22{clip-path:url(#SVGID_44_);fill:#231815;}
	.st23{clip-path:url(#SVGID_46_);fill:none;}
	.st24{clip-path:url(#SVGID_48_);fill:none;stroke:#231815;stroke-width:0.53;}
	.st25{clip-path:url(#SVGID_50_);fill:#FFFFFF;}
	.st26{clip-path:url(#SVGID_52_);fill:none;stroke:#231815;stroke-width:0.53;}
	.st27{clip-path:url(#SVGID_54_);fill:none;stroke:#231815;stroke-width:0.53;}
	.st28{fill:#FFFFFF;}
	.st29{fill:none;}
	.st30{font-family:'AdobeSongStd-Light-GBpc-EUC-H';}
	.st31{font-size:12px;}
</style>
<polygon class="st0" points="29.4,20.9 30.3,21.9 210.6,21.9 211.6,20.9 "/>
<polygon class="st0" points="30.3,172.1 29.4,173.1 211.6,173.1 210.6,172.1 "/>
<polygon class="st0" points="29.4,20.9 29.4,173.1 30.3,172.1 30.3,21.9 "/>
<polygon class="st0" points="211.6,20.9 210.6,21.9 210.6,172.1 211.6,173.1 "/>
<g>
	<g>
		<g>
			<defs>
				<rect id="SVGID_1_" x="30.3" y="21.9" width="180.2" height="150.2"/>
			</defs>
			<clipPath id="SVGID_2_">
				<use xlink:href="#SVGID_1_"  style="overflow:visible;"/>
			</clipPath>
			<line class="st1" x1="30.3" y1="21.9" x2="210.6" y2="21.9"/>
		</g>
	</g>
	<g>
		<g>
			<defs>
				<rect id="SVGID_3_" x="30.3" y="21.9" width="180.2" height="150.2"/>
			</defs>
			<clipPath id="SVGID_4_">
				<use xlink:href="#SVGID_3_"  style="overflow:visible;"/>
			</clipPath>
			<line class="st2" x1="30.3" y1="21.9" x2="30.3" y2="172.1"/>
		</g>
	</g>
	<g>
		<g>
			<defs>
				<rect id="SVGID_5_" x="30.3" y="21.9" width="180.2" height="150.2"/>
			</defs>
			<clipPath id="SVGID_6_">
				<use xlink:href="#SVGID_5_"  style="overflow:visible;"/>
			</clipPath>
			<line class="st3" x1="210.6" y1="172.1" x2="30.3" y2="172.1"/>
		</g>
	</g>
	<g>
		<g>
			<defs>
				<rect id="SVGID_7_" x="30.3" y="21.9" width="180.2" height="150.2"/>
			</defs>
			<clipPath id="SVGID_8_">
				<use xlink:href="#SVGID_7_"  style="overflow:visible;"/>
			</clipPath>
			<line class="st4" x1="210.6" y1="172.1" x2="210.6" y2="21.9"/>
		</g>
	</g>
	<g>
		<g>
			<defs>
				<rect id="SVGID_9_" x="30.3" y="21.9" width="180.2" height="150.2"/>
			</defs>
			<clipPath id="SVGID_10_">
				<use xlink:href="#SVGID_9_"  style="overflow:visible;"/>
			</clipPath>
			<ellipse class="st5" cx="121.2" cy="121.3" rx="9.5" ry="9.3"/>
		</g>
	</g>
	<g>
		<g>
			<defs>
				<rect id="SVGID_11_" x="30.3" y="21.9" width="180.2" height="150.2"/>
			</defs>
			<clipPath id="SVGID_12_">
				<use xlink:href="#SVGID_11_"  style="overflow:visible;"/>
			</clipPath>
			<path class="st6" d="M120.5,126.6l-3.7-9.5h1.4l2.5,6.9c0.2,0.6,0.4,1.1,0.5,1.6c0.1-0.5,0.3-1,0.5-1.6l2.6-6.9h1.3l-3.8,9.5
				H120.5z"/>
		</g>
	</g>
	<g>
		<g>
			<defs>
				<rect id="SVGID_13_" x="30.3" y="21.9" width="180.2" height="150.2"/>
			</defs>
			<clipPath id="SVGID_14_">
				<use xlink:href="#SVGID_13_"  style="overflow:visible;"/>
			</clipPath>
			<line class="st7" x1="80.9" y1="120.6" x2="80.9" y2="57.9"/>
		</g>
	</g>
	<g>
		<g>
			<defs>
				<rect id="SVGID_15_" x="30.3" y="21.9" width="180.2" height="150.2"/>
			</defs>
			<clipPath id="SVGID_16_">
				<use xlink:href="#SVGID_15_"  style="overflow:visible;"/>
			</clipPath>
			<line class="st8" x1="111.8" y1="120.1" x2="80.7" y2="120.1"/>
		</g>
	</g>
	<g>
		<g>
			<defs>
				<rect id="SVGID_17_" x="30.3" y="21.9" width="180.2" height="150.2"/>
			</defs>
			<clipPath id="SVGID_18_">
				<use xlink:href="#SVGID_17_"  style="overflow:visible;"/>
			</clipPath>
			<line class="st9" x1="163.3" y1="120.1" x2="131.1" y2="120.1"/>
		</g>
	</g>
	<g>
		<g>
			<defs>
				<rect id="SVGID_19_" x="30.3" y="21.9" width="180.2" height="150.2"/>
			</defs>
			<clipPath id="SVGID_20_">
				<use xlink:href="#SVGID_19_"  style="overflow:visible;"/>
			</clipPath>
			<line class="st10" x1="163" y1="57.9" x2="163" y2="120.6"/>
		</g>
	</g>
	<g>
		<g>
			<defs>
				<rect id="SVGID_21_" x="30.3" y="21.9" width="180.2" height="150.2"/>
			</defs>
			<clipPath id="SVGID_22_">
				<use xlink:href="#SVGID_21_"  style="overflow:visible;"/>
			</clipPath>
			<polygon class="st11" points="135.3,126.8 135.3,125.1 133.5,125.1 133.5,124.4 135.3,124.4 135.3,122.7 136,122.7 136,124.4 
				137.7,124.4 137.7,125.1 136,125.1 136,126.8 			"/>
		</g>
	</g>
	<g>
		<g>
			<defs>
				<rect id="SVGID_23_" x="30.3" y="21.9" width="180.2" height="150.2"/>
			</defs>
			<clipPath id="SVGID_24_">
				<use xlink:href="#SVGID_23_"  style="overflow:visible;"/>
			</clipPath>
			<rect x="104.7" y="123.8" class="st12" width="2.4" height="0.8"/>
		</g>
	</g>
	<g>
		<g>
			<defs>
				<rect id="SVGID_25_" x="30.3" y="21.9" width="180.2" height="150.2"/>
			</defs>
			<clipPath id="SVGID_26_">
				<use xlink:href="#SVGID_25_"  style="overflow:visible;"/>
			</clipPath>
			<path class="st13" d="M159.8,120.2c0-1.8,1.4-3.2,3.1-3.2c1.8,0,3.2,1.4,3.2,3.2c0,1.7-1.4,3.1-3.2,3.1
				C161.2,123.2,159.8,121.8,159.8,120.2"/>
		</g>
	</g>
	<g>
		<g>
			<defs>
				<rect id="SVGID_27_" x="30.3" y="21.9" width="180.2" height="150.2"/>
			</defs>
			<clipPath id="SVGID_28_">
				<use xlink:href="#SVGID_27_"  style="overflow:visible;"/>
			</clipPath>
			<path class="st14" d="M159.8,120.2c0-1.8,1.4-3.2,3.1-3.2c1.8,0,3.2,1.4,3.2,3.2c0,1.7-1.4,3.1-3.2,3.1
				C161.2,123.2,159.8,121.8,159.8,120.2"/>
		</g>
	</g>
	<g>
		<g>
			<defs>
				<rect id="SVGID_29_" x="30.3" y="21.9" width="180.2" height="150.2"/>
			</defs>
			<clipPath id="SVGID_30_">
				<use xlink:href="#SVGID_29_"  style="overflow:visible;"/>
			</clipPath>
			<path class="st15" d="M77.7,120.2c0-1.8,1.4-3.2,3.1-3.2c1.8,0,3.2,1.4,3.2,3.2c0,1.7-1.4,3.1-3.2,3.1
				C79.1,123.2,77.7,121.8,77.7,120.2"/>
		</g>
	</g>
	<g>
		<g>
			<defs>
				<rect id="SVGID_31_" x="30.3" y="21.9" width="180.2" height="150.2"/>
			</defs>
			<clipPath id="SVGID_32_">
				<use xlink:href="#SVGID_31_"  style="overflow:visible;"/>
			</clipPath>
			<path class="st16" d="M77.7,120.2c0-1.8,1.4-3.2,3.1-3.2c1.8,0,3.2,1.4,3.2,3.2c0,1.7-1.4,3.1-3.2,3.1
				C79.1,123.2,77.7,121.8,77.7,120.2"/>
		</g>
	</g>
	<g>
		<g>
			<defs>
				<rect id="SVGID_33_" x="30.3" y="21.9" width="180.2" height="150.2"/>
			</defs>
			<clipPath id="SVGID_34_">
				<use xlink:href="#SVGID_33_"  style="overflow:visible;"/>
			</clipPath>
			<path class="st17" d="M110.2,135.7c0.2,0.1,0.5,0.2,0.9,0.3c-0.2,0.2-0.5,0.8-0.9,1.8v4.2c0,0.6,0,1.2,0,1.7h-0.7
				c0-0.4,0-1,0-1.7v-3.2c-0.4,0.6-0.7,1.1-0.9,1.4c-0.1-0.2-0.2-0.4-0.5-0.6c0.3-0.3,0.7-0.8,1.1-1.6
				C109.7,137.2,110,136.5,110.2,135.7 M110.6,143c1.4-0.8,2.2-2.2,2.4-4.1h-1.1c-0.4,0-0.8,0-1.1,0v-0.7c0.3,0,0.6,0,1.1,0h1.2
				c0-1.2,0-2,0-2.5c0.3,0,0.6,0.1,0.9,0.1c-0.1,0.5-0.1,1.2-0.1,2.3h1.7c0.3,0,0.7,0,1,0v0.7c-0.2,0-0.6,0-1,0H114
				c0.4,2.1,1.3,3.4,2.7,3.9c-0.3,0.2-0.5,0.4-0.6,0.7c-1.2-0.8-2-2-2.3-3.6c-0.2,1.3-0.9,2.6-2.2,3.7
				C111,143.3,110.8,143.1,110.6,143 M114.5,136.4c0.2-0.1,0.5-0.2,0.7-0.3c0.2,0.4,0.4,0.8,0.6,1.3c-0.2,0-0.4,0.2-0.8,0.3
				C114.9,137,114.7,136.6,114.5,136.4"/>
		</g>
	</g>
	<g>
		<g>
			<defs>
				<rect id="SVGID_35_" x="30.3" y="21.9" width="180.2" height="150.2"/>
			</defs>
			<clipPath id="SVGID_36_">
				<use xlink:href="#SVGID_35_"  style="overflow:visible;"/>
			</clipPath>
			<path class="st18" d="M117.7,136.9c0.3,0.1,0.5,0.1,0.7,0.2c-0.1,0.1-0.2,0.4-0.3,0.9h0.8v-1.1c0-0.3,0-0.7,0-1h0.7
				c0,0.3-0.1,0.7-0.1,1v1.1c0.3,0,0.6,0,0.9,0v0.6c-0.2,0-0.5,0-0.9,0v1.5c0.3-0.1,0.6-0.2,0.8-0.3c0,0.2,0.1,0.4,0.1,0.6
				c-0.2,0.1-0.5,0.2-0.9,0.4v1.9c0,0.4,0,0.8,0,1.2h-0.7c0-0.4,0-0.8,0-1.2V141c-0.6,0.2-1,0.4-1.3,0.6c-0.1-0.2-0.2-0.5-0.4-0.7
				c0.3,0,0.9-0.2,1.7-0.5v-1.7H118c-0.1,0.4-0.2,0.8-0.2,1c-0.2-0.1-0.4-0.2-0.6-0.2c0.1-0.3,0.2-0.7,0.3-1.2
				C117.6,137.7,117.7,137.3,117.7,136.9 M120.7,138.6c0.3,0,0.7,0,1.1,0h0.7v-1.2H122c-0.4,0-0.7,0-1,0v-0.6c0.3,0,0.6,0,1,0h0.5
				c0-0.4,0-0.8,0-1h0.7c0,0.2,0,0.6,0,1h0.8c0.4,0,0.7,0,1,0v0.6c-0.2,0-0.5,0-1,0h-0.8v1.2h1.3c0.3,0,0.6,0,0.9,0v0.6
				c-0.3,0-0.6,0-0.9,0h-0.3v1c0.5,0,0.9,0,1.1,0v0.6c-0.3,0-0.7,0-1.1,0v2.2c0,0.3-0.1,0.5-0.3,0.6c-0.2,0.1-0.5,0.2-1.1,0.2
				c0-0.3-0.1-0.5-0.3-0.8c0.4,0,0.7,0,0.8,0c0.1,0,0.2-0.1,0.2-0.3v-1.9h-1.7c-0.4,0-0.7,0-1,0v-0.6c0.3,0,0.6,0,1,0h1.7v-1h-1.7
				c-0.4,0-0.8,0-1.1,0C120.7,139.2,120.7,138.6,120.7,138.6z M121.2,141.5c0.2-0.1,0.5-0.1,0.7-0.2c0.2,0.4,0.4,0.8,0.5,1.2
				c-0.2,0-0.4,0.1-0.7,0.2C121.5,142.2,121.4,141.8,121.2,141.5"/>
		</g>
	</g>
	<g>
		<g>
			<defs>
				<rect id="SVGID_37_" x="30.3" y="21.9" width="180.2" height="150.2"/>
			</defs>
			<clipPath id="SVGID_38_">
				<use xlink:href="#SVGID_37_"  style="overflow:visible;"/>
			</clipPath>
			<path class="st19" d="M127.1,136.6c0.3,0,0.8,0,1.3,0h1.5c0-0.3,0-0.7,0-0.9h0.8c0,0.3-0.1,0.6-0.1,0.9h2c0.3,0,0.7,0,1,0v0.7
				c-0.4,0-0.7-0.1-1-0.1h-2.1v0.7h1.6c0.4,0,0.7,0,1.1,0v0.7c-0.3,0-0.7-0.1-1.1-0.1h-1.6v0.8h2.6c0.3,0,0.7,0,1.1-0.1v0.7
				c-0.3,0-0.7,0-1.1,0h-3c-0.2,0.3-0.4,0.6-0.7,0.9v1.8c0.4-0.3,0.7-0.5,1.1-0.8c0,0.3,0.1,0.5,0.2,0.8c-0.2,0.1-0.5,0.3-0.9,0.5
				c-0.3,0.2-0.6,0.5-0.8,0.7c-0.1-0.2-0.3-0.4-0.5-0.6c0.2-0.2,0.3-0.4,0.3-0.8v-1c-0.4,0.3-0.8,0.6-1.1,0.8
				c-0.3,0.2-0.6,0.4-0.9,0.6c-0.2-0.3-0.4-0.5-0.6-0.7c0.7-0.2,1.3-0.5,1.9-0.9c0.6-0.4,1-0.8,1.3-1.2h-1.8c-0.4,0-0.8,0-1.2,0
				v-0.7c0.3,0,0.7,0.1,1.3,0.1h2.1v-0.8h-1.5c-0.4,0-0.7,0-0.9,0V138c0.4,0,0.7,0,0.9,0h1.5v-0.7h-1.7c-0.4,0-0.8,0-1.2,0.1v-0.8
				H127.1z M130.3,140.5c0.2-0.1,0.4-0.2,0.6-0.2c0.1,0.4,0.3,0.8,0.6,1.2c0.4-0.3,0.8-0.8,1.2-1.3c0.2,0.2,0.4,0.4,0.7,0.6
				c-0.2,0.1-0.4,0.2-0.6,0.4c-0.2,0.2-0.5,0.5-0.8,0.7c0.2,0.2,0.6,0.4,1,0.5s0.9,0.2,1.3,0.2c-0.2,0.3-0.3,0.5-0.4,0.8
				c-1.2-0.3-2-0.7-2.5-1.3C130.9,141.7,130.5,141.1,130.3,140.5"/>
		</g>
	</g>
	<g>
		<g>
			<defs>
				<rect id="SVGID_39_" x="30.3" y="21.9" width="180.2" height="150.2"/>
			</defs>
			<clipPath id="SVGID_40_">
				<use xlink:href="#SVGID_39_"  style="overflow:visible;"/>
			</clipPath>
			<path class="st20" d="M108.5,75.2c0.4,0,0.9,0,1.4,0h5c0.5,0,1,0,1.3-0.1v0.8c-0.4,0-0.8,0-1.3,0H110c-0.6,0-1.1,0-1.5,0V75.2z
				 M109.3,70.3c0.4,0,0.9,0,1.4,0h3.2c0.5,0,0.9,0,1.4-0.1V71c-0.4,0-0.9-0.1-1.3-0.1h-3.2c-0.5,0-1,0-1.4,0L109.3,70.3L109.3,70.3
				z"/>
		</g>
	</g>
	<g>
		<g>
			<defs>
				<rect id="SVGID_41_" x="30.3" y="21.9" width="180.2" height="150.2"/>
			</defs>
			<clipPath id="SVGID_42_">
				<use xlink:href="#SVGID_41_"  style="overflow:visible;"/>
			</clipPath>
			<path class="st21" d="M117.3,70.9c0.4,0,0.9,0,1.3,0V70c0-0.3,0-0.7,0-0.9h0.7c0,0.3-0.1,0.6-0.1,0.9v0.9c0.4,0,0.9,0,1.2,0v0.6
				c-0.4,0-0.8,0-1.2,0v1.4c0.2-0.1,0.3-0.2,0.5-0.3c0.1,0.2,0.2,0.3,0.4,0.5c0.1,0.2,0.2,0.4,0.4,0.6c-0.2,0.1-0.4,0.2-0.6,0.4
				c-0.1-0.3-0.3-0.5-0.4-0.7s-0.2-0.3-0.3-0.5v2.6c0,0.5,0,1,0.1,1.5h-0.7c0-0.5,0-1,0-1.5v-2.6c-0.2,0.6-0.5,1.2-0.9,1.9
				c-0.2-0.2-0.3-0.3-0.6-0.5c0.4-0.5,0.6-0.8,0.7-1.1c0.1-0.2,0.2-0.4,0.3-0.7c0.1-0.2,0.2-0.6,0.3-1.1c-0.4,0-0.8,0-1.2,0
				L117.3,70.9L117.3,70.9z M120.4,69.5c0.4,0,1,0,1.7,0h2.2l-0.5,2.2h1.1c-0.1,0.2-0.1,0.4-0.1,0.6s-0.1,0.5-0.2,0.8
				s-0.2,0.6-0.3,1c-0.1,0.3-0.3,0.7-0.5,1c0.3,0.3,0.6,0.6,0.9,0.8c0.3,0.2,0.6,0.3,0.8,0.4c-0.2,0.2-0.4,0.4-0.5,0.6
				c-0.3-0.2-0.6-0.4-0.9-0.7c-0.3-0.2-0.5-0.4-0.7-0.7c-0.2,0.2-0.5,0.4-0.7,0.6c-0.3,0.2-0.7,0.5-1.1,0.7
				c-0.1-0.2-0.3-0.4-0.6-0.6c0.6-0.1,1.2-0.5,2-1.2c-0.3-0.4-0.6-0.9-0.7-1.2c-0.2-0.4-0.3-0.7-0.4-1c0.1-0.6,0.1-1.1,0.1-1.6
				c0.2,0.9,0.4,1.5,0.7,2.1c0.2,0.5,0.5,1,0.8,1.3c0.2-0.3,0.3-0.7,0.4-1s0.2-0.8,0.3-1.3H123l0.5-2.2H122c0,0.5,0,1,0,1.6
				s-0.1,1.1-0.2,1.7s-0.3,1.1-0.5,1.7s-0.6,1.1-1.1,1.7c-0.1-0.1-0.4-0.3-0.7-0.4c0.4-0.4,0.7-0.8,0.9-1.2c0.2-0.4,0.4-0.9,0.5-1.4
				s0.2-1.1,0.2-1.7s0.1-1.3,0.1-2c-0.4,0-0.7,0-0.9,0L120.4,69.5L120.4,69.5z"/>
		</g>
	</g>
	<g>
		<g>
			<defs>
				<rect id="SVGID_43_" x="30.3" y="21.9" width="180.2" height="150.2"/>
			</defs>
			<clipPath id="SVGID_44_">
				<use xlink:href="#SVGID_43_"  style="overflow:visible;"/>
			</clipPath>
			<path class="st22" d="M129.6,69.7c0.3,0,0.6,0,0.8,0v0.6c-0.3,0-0.8,0-1.2,0c0.1,0.3,0.2,0.5,0.3,0.8c-0.3,0.1-0.5,0.2-0.7,0.2
				c0-0.3-0.1-0.6-0.2-1h-0.4c-0.2,0.3-0.4,0.5-0.6,0.7s-0.4,0.4-0.6,0.5c-0.2-0.2-0.4-0.3-0.6-0.5c0.5-0.3,0.8-0.6,1.1-1
				c0.3-0.4,0.5-0.7,0.6-1.1c0.2,0.1,0.5,0.2,0.8,0.3c-0.1,0.1-0.3,0.3-0.4,0.5H129.6z M129.7,71.1c0.2,0,0.5-0.1,0.7-0.2
				c0.2,0.5,0.3,0.8,0.4,0.9h3.2c0,0.3,0,0.5,0,0.6s0,0.4,0,0.7h-0.7v-0.9h-6.1v0.9h-0.7c0-0.3,0-0.5,0-0.7s0-0.4,0-0.7h3.4
				C129.9,71.5,129.8,71.3,129.7,71.1 M127.9,72.8h4.7c0,0.3,0,0.6,0,0.8c0,0.2,0,0.4,0,0.8h-4V75h4.3c0,0.5,0,0.8,0,1.1s0,0.6,0,1
				h-0.6v-0.4h-3.7v0.5h-0.7c0-0.6,0-1,0-1.1V74C127.9,73.5,127.9,73.1,127.9,72.8 M128.6,73.9h3.4v-0.6h-3.4V73.9z M128.6,76.2h3.7
				v-0.7h-3.7V76.2z M132.9,70.3c0.1,0.2,0.2,0.5,0.3,0.8c-0.2,0.1-0.5,0.2-0.7,0.3c-0.1-0.3-0.2-0.7-0.3-1.1h-0.6
				c-0.2,0.3-0.4,0.6-0.5,0.8c-0.2-0.1-0.4-0.3-0.6-0.3c0.3-0.3,0.5-0.6,0.6-0.9c0.2-0.3,0.3-0.6,0.4-1c0.2,0.1,0.5,0.2,0.8,0.2
				c-0.2,0.2-0.3,0.4-0.4,0.6h1.3c0.2,0,0.5,0,0.9,0v0.6C133.9,70.3,133.4,70.3,132.9,70.3"/>
		</g>
	</g>
	<g>
		<g>
			<defs>
				<rect id="SVGID_45_" x="30.3" y="21.9" width="180.2" height="150.2"/>
			</defs>
			<clipPath id="SVGID_46_">
				<use xlink:href="#SVGID_45_"  style="overflow:visible;"/>
			</clipPath>
			<line class="st23" x1="114.7" y1="48.9" x2="114.7" y2="66.9"/>
		</g>
	</g>
	<g>
		<g>
			<defs>
				<rect id="SVGID_47_" x="30.3" y="21.9" width="180.2" height="150.2"/>
			</defs>
			<clipPath id="SVGID_48_">
				<use xlink:href="#SVGID_47_"  style="overflow:visible;"/>
			</clipPath>
			<line class="st24" x1="114.7" y1="48.9" x2="114.7" y2="66.9"/>
		</g>
	</g>
	<g>
		<g>
			<defs>
				<rect id="SVGID_49_" x="30.3" y="21.9" width="180.2" height="150.2"/>
			</defs>
			<clipPath id="SVGID_50_">
				<use xlink:href="#SVGID_49_"  style="overflow:visible;"/>
			</clipPath>
			<polygon class="st25" points="126.7,64 115.9,57.9 126.7,51.7 			"/>
		</g>
	</g>
	<g>
		<g>
			<defs>
				<rect id="SVGID_51_" x="30.3" y="21.9" width="180.2" height="150.2"/>
			</defs>
			<clipPath id="SVGID_52_">
				<use xlink:href="#SVGID_51_"  style="overflow:visible;"/>
			</clipPath>
			<polygon class="st26" points="126.7,64 115.9,57.9 126.7,51.7 			"/>
		</g>
	</g>
	<g>
		<g>
			<defs>
				<rect id="SVGID_53_" x="30.3" y="21.9" width="180.2" height="150.2"/>
			</defs>
			<clipPath id="SVGID_54_">
				<use xlink:href="#SVGID_53_"  style="overflow:visible;"/>
			</clipPath>
			<line class="st27" x1="163" y1="57.9" x2="80.7" y2="57.9"/>
		</g>
	</g>
</g>
<rect x="103.5" y="134.2" class="st28" width="39.1" height="14.5"/>
<g>
	<rect x="97.6" y="132.5" class="st29" width="53.2" height="16.3"/>
	<text transform="matrix(1 0 0 1 97.6129 143.0112)" class="st0 st30 st31">Voltmeter</text>
</g>
<rect x="104.7" y="68.5" class="st28" width="35" height="14.5"/>
<rect x="103.5" y="65.7" class="st29" width="54.8" height="16.1"/>
<text transform="matrix(1 0 0 1 103.5163 76.2376)" class="st0 st30 st31">Diode</text>
</svg>
