<?xml version="1.0" encoding="utf-8"?>
<!-- Generator: Adobe Illustrator 24.0.1, SVG Export Plug-In . SVG Version: 6.00 Build 0)  -->
<svg version="1.1" id="图层_1" xmlns="http://www.w3.org/2000/svg" xmlns:xlink="http://www.w3.org/1999/xlink" x="0px" y="0px"
	 viewBox="0 0 1030.4 841.9" style="enable-background:new 0 0 1030.4 841.9;" xml:space="preserve">
<style type="text/css">
	.st0{fill:none;stroke:#009944;stroke-width:3;stroke-linecap:round;stroke-miterlimit:10;}
	.st1{fill:none;stroke:#005EAD;stroke-linecap:round;stroke-miterlimit:10;}
	.st2{fill:#FFFFFF;stroke:#000000;stroke-width:0.5;stroke-miterlimit:10;}
	.st3{fill:none;stroke:#E60012;stroke-linecap:round;stroke-miterlimit:10;}
	.st4{fill:none;stroke:#B29763;stroke-width:3;stroke-linecap:round;stroke-miterlimit:10;}
	.st5{fill:none;stroke:#FFFFFF;stroke-linecap:round;stroke-miterlimit:10;}
	.st6{fill:none;stroke:#FFF100;stroke-linecap:round;stroke-miterlimit:10;}
	.st7{fill:none;stroke:#000000;stroke-width:3;stroke-linecap:round;stroke-miterlimit:10;}
	.st8{fill:none;stroke:#E60012;stroke-width:3;stroke-linecap:round;stroke-miterlimit:10;}
	.st9{fill:none;stroke:#FFF100;stroke-width:3;stroke-linecap:round;stroke-miterlimit:10;}
	.st10{fill:none;stroke:#005EAD;stroke-width:3;stroke-linecap:round;stroke-miterlimit:10;}
	.st11{fill:#CCCCCC;}
	.st12{fill:none;stroke:#000000;stroke-width:0.5;}
	.st13{fill:none;stroke:#000000;}
	.st14{font-family:'FZLTHJW--GB1-0';}
	.st15{font-size:6px;}
	.st16{fill:#FFFFFF;}
	.st17{fill:none;stroke:#000000;stroke-width:0.6;stroke-linecap:round;stroke-linejoin:round;}
	.st18{fill:none;stroke:#000000;stroke-width:0.72;stroke-linecap:round;stroke-linejoin:round;}
	.st19{fill:none;stroke:#F29C97;stroke-width:3;stroke-linecap:round;stroke-miterlimit:10;}
	.st20{fill:none;stroke:#89438F;stroke-width:3;stroke-linecap:round;stroke-miterlimit:10;}
	.st21{fill:none;stroke:#000000;stroke-width:0.5;stroke-miterlimit:10;}
	.st22{fill:none;stroke:#000000;stroke-width:0.5;stroke-linecap:round;stroke-linejoin:round;}
	.st23{fill:none;stroke:#000000;stroke-width:1.3;}
	.st24{fill:#FFFFFF;stroke:#000000;stroke-width:0.25;stroke-linecap:round;stroke-linejoin:round;}
	.st25{fill:#DCDDDD;stroke:#000000;stroke-width:0.5;stroke-linecap:round;stroke-miterlimit:10;}
	.st26{fill:none;stroke:#040000;stroke-width:0.75;}
	.st27{fill:none;stroke:#E60012;stroke-width:3;stroke-miterlimit:10;}
	.st28{stroke:#FFFFFF;stroke-width:0.5;stroke-linecap:round;}
	.st29{fill:none;stroke:#FFFFFF;stroke-width:1.0001;}
	.st30{fill:#FFFFFF;stroke:#000000;stroke-width:0.25;}
	.st31{stroke:#FFFFFF;stroke-width:0.5;}
	.st32{fill:#9FD9F6;stroke:#000000;stroke-width:0.5;stroke-linecap:round;stroke-miterlimit:10;}
	.st33{font-size:4px;}
	.st34{enable-background:new    ;}
	.st35{fill:#005EAD;}
</style>
<polyline class="st0" points="603.2,684.9 603.2,547.5 519.1,547.5 "/>
<polyline class="st1" points="603.2,684.9 603.2,547.5 519.1,547.5 "/>
<g>
	<path class="st2" d="M457.5,689.4c-0.8,0-1.5-0.7-1.5-1.5V438.3c0-0.8,0.7-1.5,1.5-1.5s1.5,0.7,1.5,1.5v249.6
		C459,688.7,458.3,689.4,457.5,689.4z"/>
</g>
<line class="st3" x1="457.5" y1="438.3" x2="457.5" y2="687.9"/>
<line class="st4" x1="580.8" y1="181.4" x2="580.8" y2="390.8"/>
<line class="st5" x1="580.8" y1="181.4" x2="580.8" y2="390.8"/>
<line class="st0" x1="641.5" y1="181.4" x2="641.5" y2="390.8"/>
<line class="st6" x1="641.5" y1="181.4" x2="641.5" y2="390.8"/>
<line class="st7" x1="701.8" y1="181.4" x2="701.8" y2="340.4"/>
<line class="st8" x1="215.5" y1="438.3" x2="215.5" y2="687.9"/>
<line class="st9" x1="397.1" y1="438.3" x2="397.1" y2="687.9"/>
<line class="st1" x1="397.1" y1="438.3" x2="397.1" y2="687.9"/>
<line class="st10" x1="274.1" y1="438.3" x2="274.1" y2="687.9"/>
<line class="st6" x1="274.1" y1="438.3" x2="274.1" y2="687.9"/>
<line class="st0" x1="335.2" y1="438.3" x2="335.2" y2="687.9"/>
<line class="st0" x1="519.2" y1="438.3" x2="519.2" y2="687.9"/>
<line class="st1" x1="519.2" y1="438.3" x2="519.2" y2="687.9"/>
<line class="st4" x1="459.5" y1="183.3" x2="459" y2="390.8"/>
<line class="st9" x1="520.1" y1="183.3" x2="519.6" y2="390.8"/>
<g>
	<polyline class="st11" points="28,41.9 981,41.9 981,88.1 28,88.1 	"/>
	<g>
		<line class="st12" x1="28" y1="47.6" x2="981" y2="47.6"/>
		<line class="st13" x1="28" y1="41.6" x2="981" y2="41.6"/>
		<path class="st12" d="M981,59.3"/>
		<path class="st12" d="M28,59.3"/>
		<line class="st12" x1="28" y1="58.9" x2="981" y2="58.9"/>
		<line class="st12" x1="28" y1="70.6" x2="981" y2="70.6"/>
		<line class="st12" x1="28" y1="82.3" x2="981" y2="82.3"/>
		<line class="st13" x1="28" y1="88.1" x2="981" y2="88.1"/>
	</g>
	<text transform="matrix(1 0 0 1 982.0869 49.6299)" class="st14 st15">30</text>
	<text transform="matrix(1 0 0 1 982.0869 60.7959)" class="st14 st15">IG1</text>
	<text transform="matrix(1 0 0 1 982.0869 72.4209)" class="st14 st15">IG3</text>
	<text transform="matrix(1 0 0 1 982.0869 83.9248)" class="st14 st15">ACC</text>
	<text transform="matrix(1 0 0 1 18.248 49.7119)" class="st14 st15">30</text>
	<text transform="matrix(1 0 0 1 16.834 60.8779)" class="st14 st15">IG1</text>
	<text transform="matrix(1 0 0 1 16.834 72.5029)" class="st14 st15">IG3</text>
	<text transform="matrix(1 0 0 1 12.7037 84.0029)" class="st14 st15">ACC</text>
</g>
<g id="对接插头">
</g>
<g>
	<rect x="512.4" y="466.3" class="st16" width="12.3" height="6"/>
	<text transform="matrix(1 0 0 1 506.7057 471.2339)" class="st14 st15">G/L 0.35</text>
</g>
<g>
	<g>
		<line class="st17" x1="519.2" y1="435.3" x2="519.2" y2="427"/>
	</g>
	<g>
		<path class="st16" d="M519.1,438.3c1.7,0,3-1.4,3-3c0-1.8-1.4-3.2-3-3.2c-1.8,0-3.2,1.4-3.2,3.2
			C515.9,436.9,517.3,438.3,519.1,438.3z"/>
		<path d="M519.1,439v-1.1c1.4,0,2.5-1.1,2.5-2.5c0-1.5-1.1-2.7-2.5-2.7v-1.1c2,0,3.7,1.7,3.7,3.8C522.7,437.3,521.1,439,519.1,439
			L519.1,439z M515.3,435.3c0,2,1.6,3.7,3.8,3.7v-1.1c-1.5,0-2.7-1.1-2.7-2.5c0-1.5,1.1-2.7,2.7-2.7v-1.1
			C516.9,431.5,515.3,433.1,515.3,435.3z"/>
	</g>
	<rect x="514.7" y="431.1" class="st16" width="8.5" height="4.1"/>
	<rect x="518.7" y="432" width="1" height="4.2"/>
	<rect x="518.7" y="432" class="st18" width="1" height="4.2"/>
</g>
<g>
	<g>
		<line class="st17" x1="519.3" y1="687.9" x2="519.3" y2="696.2"/>
	</g>
	<g>
		<path class="st16" d="M519.2,684.9c1.7,0,3,1.4,3,3c0,1.8-1.4,3.2-3,3.2c-1.8,0-3.2-1.4-3.2-3.2
			C516,686.3,517.4,684.9,519.2,684.9z"/>
		<path d="M519.2,684.2c2,0,3.7,1.7,3.7,3.7c0,2.2-1.7,3.8-3.7,3.8v-1.1c1.4,0,2.5-1.1,2.5-2.7c0-1.4-1.1-2.5-2.5-2.5V684.2
			L519.2,684.2z M519.2,691.7v-1.1c-1.5,0-2.7-1.1-2.7-2.7c0-1.4,1.1-2.5,2.7-2.5v-1.1c-2.2,0-3.8,1.7-3.8,3.7
			C515.4,690.1,517.1,691.7,519.2,691.7z"/>
	</g>
	<rect x="514.9" y="688" class="st16" width="8.5" height="4.1"/>
	<rect x="518.8" y="687" width="1" height="4.2"/>
	<rect x="518.8" y="687" class="st18" width="1" height="4.2"/>
</g>
<g>
	<rect x="331.9" y="466.3" class="st16" width="12.3" height="6"/>
	<text transform="matrix(1 0 0 1 326.2335 471.2339)" class="st14 st15">G 1.0</text>
</g>
<g>
	<g>
		<line class="st17" x1="335.4" y1="435.3" x2="335.4" y2="427"/>
	</g>
	<g>
		<path class="st16" d="M335.3,438.3c1.7,0,3-1.4,3-3c0-1.8-1.4-3.2-3-3.2c-1.8,0-3.2,1.4-3.2,3.2
			C332.1,436.9,333.5,438.3,335.3,438.3z"/>
		<path d="M335.3,439v-1.1c1.4,0,2.5-1.1,2.5-2.5c0-1.5-1.1-2.7-2.5-2.7v-1.1c2,0,3.7,1.7,3.7,3.8C339,437.3,337.3,439,335.3,439
			L335.3,439z M331.5,435.3c0,2,1.6,3.7,3.8,3.7v-1.1c-1.5,0-2.7-1.1-2.7-2.5c0-1.5,1.1-2.7,2.7-2.7v-1.1
			C333.1,431.5,331.5,433.1,331.5,435.3z"/>
	</g>
	<rect x="331" y="431.1" class="st16" width="8.5" height="4.1"/>
	<rect x="334.9" y="432" width="1" height="4.2"/>
	<rect x="334.9" y="432" class="st18" width="1" height="4.2"/>
</g>
<g>
	<g>
		<line class="st17" x1="335.4" y1="687.9" x2="335.4" y2="696.2"/>
	</g>
	<g>
		<path class="st16" d="M335.3,684.9c1.7,0,3,1.4,3,3c0,1.8-1.4,3.2-3,3.2c-1.8,0-3.2-1.4-3.2-3.2
			C332.1,686.3,333.5,684.9,335.3,684.9z"/>
		<path d="M335.3,684.2c2,0,3.7,1.7,3.7,3.7c0,2.2-1.7,3.8-3.7,3.8v-1.1c1.4,0,2.5-1.1,2.5-2.7c0-1.4-1.1-2.5-2.5-2.5V684.2
			L335.3,684.2z M335.3,691.7v-1.1c-1.5,0-2.7-1.1-2.7-2.7c0-1.4,1.1-2.5,2.7-2.5v-1.1c-2.2,0-3.8,1.7-3.8,3.7
			C331.5,690.1,333.1,691.7,335.3,691.7z"/>
	</g>
	<rect x="331" y="688" class="st16" width="8.5" height="4.1"/>
	<rect x="334.9" y="687" width="1" height="4.2"/>
	<rect x="334.9" y="687" class="st18" width="1" height="4.2"/>
</g>
<g>
	<rect x="267.7" y="466.3" class="st16" width="12.3" height="6"/>
	<text transform="matrix(1 0 0 1 262.0124 471.2339)" class="st14 st15">L/Y 0.35</text>
</g>
<g>
	<g>
		<line class="st17" x1="274.3" y1="435.3" x2="274.3" y2="427"/>
	</g>
	<g>
		<path class="st16" d="M274.2,438.3c1.7,0,3-1.4,3-3c0-1.8-1.4-3.2-3-3.2c-1.8,0-3.2,1.4-3.2,3.2
			C271,436.9,272.4,438.3,274.2,438.3z"/>
		<path d="M274.2,439v-1.1c1.4,0,2.5-1.1,2.5-2.5c0-1.5-1.1-2.7-2.5-2.7v-1.1c2,0,3.7,1.7,3.7,3.8C277.9,437.3,276.2,439,274.2,439
			L274.2,439z M270.4,435.3c0,2,1.6,3.7,3.8,3.7v-1.1c-1.5,0-2.7-1.1-2.7-2.5c0-1.5,1.1-2.7,2.7-2.7v-1.1
			C272,431.5,270.4,433.1,270.4,435.3z"/>
	</g>
	<rect x="269.9" y="431.1" class="st16" width="8.5" height="4.1"/>
	<rect x="273.8" y="432" width="1" height="4.2"/>
	<rect x="273.8" y="432" class="st18" width="1" height="4.2"/>
</g>
<g>
	<g>
		<line class="st17" x1="274.1" y1="687.9" x2="274.1" y2="696.2"/>
	</g>
	<g>
		<path class="st16" d="M274,684.9c1.7,0,3,1.4,3,3c0,1.8-1.4,3.2-3,3.2c-1.8,0-3.2-1.4-3.2-3.2C270.8,686.3,272.2,684.9,274,684.9z
			"/>
		<path d="M274,684.2c2,0,3.7,1.7,3.7,3.7c0,2.2-1.7,3.8-3.7,3.8v-1.1c1.4,0,2.5-1.1,2.5-2.7c0-1.4-1.1-2.5-2.5-2.5V684.2L274,684.2
			z M274,691.7v-1.1c-1.5,0-2.7-1.1-2.7-2.7c0-1.4,1.1-2.5,2.7-2.5v-1.1c-2.2,0-3.8,1.7-3.8,3.7C270.2,690.1,271.9,691.7,274,691.7z
			"/>
	</g>
	<rect x="269.7" y="688" class="st16" width="8.5" height="4.1"/>
	<rect x="273.6" y="687" width="1" height="4.2"/>
	<rect x="273.6" y="687" class="st18" width="1" height="4.2"/>
</g>
<rect x="446.6" y="466.3" class="st16" width="18.8" height="6"/>
<g>
	<g>
		<line class="st17" x1="458" y1="435.3" x2="458" y2="427"/>
	</g>
	<g>
		<path class="st16" d="M457.9,438.3c1.7,0,3-1.4,3-3c0-1.8-1.4-3.2-3-3.2c-1.8,0-3.2,1.4-3.2,3.2
			C454.7,436.9,456.1,438.3,457.9,438.3z"/>
		<path d="M457.9,439v-1.1c1.4,0,2.5-1.1,2.5-2.5c0-1.5-1.1-2.7-2.5-2.7v-1.1c2,0,3.7,1.7,3.7,3.8C461.6,437.3,459.9,439,457.9,439
			L457.9,439z M454.1,435.3c0,2,1.6,3.7,3.8,3.7v-1.1c-1.5,0-2.7-1.1-2.7-2.5c0-1.5,1.1-2.7,2.7-2.7v-1.1
			C455.7,431.5,454.1,433.1,454.1,435.3z"/>
	</g>
	<rect x="453.6" y="431.1" class="st16" width="8.5" height="4.1"/>
	<rect x="457.5" y="432" width="1" height="4.2"/>
	<rect x="457.5" y="432" class="st18" width="1" height="4.2"/>
</g>
<g>
	<g>
		<line class="st17" x1="457.4" y1="687.9" x2="457.4" y2="696.2"/>
	</g>
	<g>
		<path class="st16" d="M457.4,684.9c1.7,0,3,1.4,3,3c0,1.8-1.4,3.2-3,3.2c-1.8,0-3.2-1.4-3.2-3.2
			C454.2,686.3,455.6,684.9,457.4,684.9z"/>
		<path d="M457.4,684.2c2,0,3.7,1.7,3.7,3.7c0,2.2-1.7,3.8-3.7,3.8v-1.1c1.4,0,2.5-1.1,2.5-2.7c0-1.4-1.1-2.5-2.5-2.5V684.2
			L457.4,684.2z M457.4,691.7v-1.1c-1.5,0-2.7-1.1-2.7-2.7c0-1.4,1.1-2.5,2.7-2.5v-1.1c-2.2,0-3.8,1.7-3.8,3.7
			C453.5,690.1,455.2,691.7,457.4,691.7z"/>
	</g>
	<rect x="453" y="688" class="st16" width="8.5" height="4.1"/>
	<rect x="457" y="687" width="1" height="4.2"/>
	<rect x="457" y="687" class="st18" width="1" height="4.2"/>
</g>
<g>
	<rect x="392.7" y="466.3" class="st16" width="12.3" height="6"/>
	<text transform="matrix(1 0 0 1 385.0018 471.2339)" class="st14 st15">Y/L 0.35</text>
</g>
<g>
	<g>
		<line class="st17" x1="397.2" y1="435.3" x2="397.2" y2="427"/>
	</g>
	<g>
		<path class="st16" d="M397.2,438.3c1.7,0,3-1.4,3-3c0-1.8-1.4-3.2-3-3.2c-1.8,0-3.2,1.4-3.2,3.2
			C394,436.9,395.4,438.3,397.2,438.3z"/>
		<path d="M397.2,439v-1.1c1.4,0,2.5-1.1,2.5-2.5c0-1.5-1.1-2.7-2.5-2.7v-1.1c2,0,3.7,1.7,3.7,3.8C400.8,437.3,399.2,439,397.2,439
			L397.2,439z M393.4,435.3c0,2,1.6,3.7,3.8,3.7v-1.1c-1.5,0-2.7-1.1-2.7-2.5c0-1.5,1.1-2.7,2.7-2.7v-1.1
			C395,431.5,393.4,433.1,393.4,435.3z"/>
	</g>
	<rect x="392.8" y="431.1" class="st16" width="8.5" height="4.1"/>
	<rect x="396.8" y="432" width="1" height="4.2"/>
	<rect x="396.8" y="432" class="st18" width="1" height="4.2"/>
</g>
<g>
	<g>
		<line class="st17" x1="396.7" y1="687.9" x2="396.7" y2="696.2"/>
	</g>
	<g>
		<path class="st16" d="M396.6,684.9c1.7,0,3,1.4,3,3c0,1.8-1.4,3.2-3,3.2c-1.8,0-3.2-1.4-3.2-3.2
			C393.4,686.3,394.8,684.9,396.6,684.9z"/>
		<path d="M396.6,684.2c2,0,3.7,1.7,3.7,3.7c0,2.2-1.7,3.8-3.7,3.8v-1.1c1.4,0,2.5-1.1,2.5-2.7c0-1.4-1.1-2.5-2.5-2.5V684.2
			L396.6,684.2z M396.6,691.7v-1.1c-1.5,0-2.7-1.1-2.7-2.7c0-1.4,1.1-2.5,2.7-2.5v-1.1c-2.2,0-3.8,1.7-3.8,3.7
			C392.8,690.1,394.5,691.7,396.6,691.7z"/>
	</g>
	<rect x="392.3" y="688" class="st16" width="8.5" height="4.1"/>
	<rect x="396.2" y="687" width="1" height="4.2"/>
	<rect x="396.2" y="687" class="st18" width="1" height="4.2"/>
</g>
<g>
	<rect x="211.6" y="466.3" class="st16" width="12.3" height="6"/>
	<text transform="matrix(1 0 0 1 205.9366 471.2339)" class="st14 st15">R 0.35</text>
</g>
<g>
	<g>
		<line class="st17" x1="215.5" y1="435.3" x2="215.5" y2="427"/>
	</g>
	<g>
		<path class="st16" d="M215.4,438.3c1.7,0,3-1.4,3-3c0-1.8-1.4-3.2-3-3.2c-1.8,0-3.2,1.4-3.2,3.2
			C212.2,436.9,213.6,438.3,215.4,438.3z"/>
		<path d="M215.4,439v-1.1c1.4,0,2.5-1.1,2.5-2.5c0-1.5-1.1-2.7-2.5-2.7v-1.1c2,0,3.7,1.7,3.7,3.8C219.1,437.3,217.4,439,215.4,439
			L215.4,439z M211.6,435.3c0,2,1.6,3.7,3.8,3.7v-1.1c-1.5,0-2.7-1.1-2.7-2.5c0-1.5,1.1-2.7,2.7-2.7v-1.1
			C213.2,431.5,211.6,433.1,211.6,435.3z"/>
	</g>
	<rect x="211.1" y="431.1" class="st16" width="8.5" height="4.1"/>
	<rect x="215" y="432" width="1" height="4.2"/>
	<rect x="215" y="432" class="st18" width="1" height="4.2"/>
</g>
<g>
	<g>
		<line class="st17" x1="215.4" y1="687.9" x2="215.4" y2="696.2"/>
	</g>
	<g>
		<path class="st16" d="M215.3,684.9c1.7,0,3,1.4,3,3c0,1.8-1.4,3.2-3,3.2c-1.8,0-3.2-1.4-3.2-3.2
			C212.2,686.3,213.6,684.9,215.3,684.9z"/>
		<path d="M215.3,684.2c2,0,3.7,1.7,3.7,3.7c0,2.2-1.7,3.8-3.7,3.8v-1.1c1.4,0,2.5-1.1,2.5-2.7c0-1.4-1.1-2.5-2.5-2.5V684.2
			L215.3,684.2z M215.3,691.7v-1.1c-1.5,0-2.7-1.1-2.7-2.7c0-1.4,1.1-2.5,2.7-2.5v-1.1c-2.2,0-3.8,1.7-3.8,3.7
			C211.5,690.1,213.2,691.7,215.3,691.7z"/>
	</g>
	<rect x="211" y="688" class="st16" width="8.5" height="4.1"/>
	<rect x="215" y="687" width="1" height="4.2"/>
	<rect x="215" y="687" class="st18" width="1" height="4.2"/>
</g>
<line class="st19" x1="166.2" y1="211.1" x2="166.2" y2="393.5"/>
<line class="st20" x1="216.7" y1="212.2" x2="216.7" y2="394.6"/>
<g>
	<rect x="210" y="360.4" class="st16" width="13.9" height="6"/>
	<g>
		<text transform="matrix(1 0 0 1 208.2721 365.5649)" class="st14 st15">V 0.35</text>
	</g>
</g>
<g>
	<rect x="160.8" y="360.4" class="st16" width="13.9" height="6"/>
	<g>
		<text transform="matrix(1 0 0 1 157.1295 365.5649)" class="st14 st15">P 0.35</text>
	</g>
</g>
<path class="st21" d="M161.7,331.6c-1.8,0-3.2-1.5-3.2-3.5c0-1.9,1.4-3.5,3.2-3.5l59.9,6.9c1.8,0,3.2-1.5,3.2-3.5
	c0-1.9-1.4-3.5-3.2-3.5L161.7,331.6z"/>
<g>
	<text transform="matrix(1 0 0 1 114.5004 197.3396)" class="st14 st15">See Intelligent Access Network - Circuit Diagram</text>
</g>
<path class="st22" d="M224.9,209l-0.5-2.1c0,0-0.5-2.5-2.7-2.6h-28.3l0,0l-1.6-2.7l-1.6,2.7c-7.4,0-28.2,0-28.2,0
	c-2.2,0.1-2.7,2.6-2.7,2.6L159,209"/>
<g>
	<g>
		<line class="st17" x1="166.1" y1="392.6" x2="166.1" y2="400.9"/>
	</g>
	<g>
		<path class="st16" d="M166,389.6c1.7,0,3,1.4,3,3c0,1.8-1.4,3.2-3,3.2c-1.8,0-3.2-1.4-3.2-3.2C162.9,391,164.3,389.6,166,389.6z"
			/>
		<path d="M166,388.9c2,0,3.7,1.7,3.7,3.7c0,2.2-1.7,3.8-3.7,3.8v-1.1c1.4,0,2.5-1.1,2.5-2.7c0-1.4-1.1-2.5-2.5-2.5V388.9L166,388.9
			z M166,396.4v-1.1c-1.5,0-2.7-1.1-2.7-2.7c0-1.4,1.1-2.5,2.7-2.5V389c-2.2,0-3.8,1.7-3.8,3.7C162.2,394.8,163.9,396.4,166,396.4z"
			/>
	</g>
	<rect x="161.7" y="392.8" class="st16" width="8.5" height="4.1"/>
	<rect x="165.7" y="391.7" width="1" height="4.2"/>
	<rect x="165.7" y="391.7" class="st18" width="1" height="4.2"/>
</g>
<g>
	<g>
		<line class="st17" x1="216.6" y1="392.6" x2="216.6" y2="400.9"/>
	</g>
	<g>
		<path class="st16" d="M216.5,389.6c1.7,0,3,1.4,3,3c0,1.8-1.4,3.2-3,3.2c-1.8,0-3.2-1.4-3.2-3.2
			C213.4,391,214.7,389.6,216.5,389.6z"/>
		<path d="M216.5,388.9c2,0,3.7,1.7,3.7,3.7c0,2.2-1.7,3.8-3.7,3.8v-1.1c1.4,0,2.5-1.1,2.5-2.7c0-1.4-1.1-2.5-2.5-2.5V388.9
			L216.5,388.9z M216.5,396.4v-1.1c-1.5,0-2.7-1.1-2.7-2.7c0-1.4,1.1-2.5,2.7-2.5V389c-2.2,0-3.8,1.7-3.8,3.7
			C212.7,394.8,214.4,396.4,216.5,396.4z"/>
	</g>
	<rect x="212.2" y="392.8" class="st16" width="8.5" height="4.1"/>
	<rect x="216.1" y="391.7" width="1" height="4.2"/>
	<rect x="216.1" y="391.7" class="st18" width="1" height="4.2"/>
</g>
<g id="GB031_3_">
	<g>
		<g>
			<line class="st23" x1="63.7" y1="772.8" x2="63.7" y2="775.4"/>
		</g>
		<g>
			<line class="st23" x1="56.6" y1="775.4" x2="70.5" y2="775.4"/>
		</g>
		<g>
			<line class="st23" x1="59.5" y1="777.6" x2="67.7" y2="777.6"/>
		</g>
		<g>
			<line class="st23" x1="66" y1="779.7" x2="61.2" y2="779.7"/>
		</g>
	</g>
	<g>
		<rect x="53.3" y="782.2" class="st16" width="20.3" height="8.2"/>
		<rect x="53.6" y="782.6" class="st24" width="19.7" height="7.6"/>
	</g>
</g>
<line class="st7" x1="63.8" y1="436.2" x2="63.7" y2="774.5"/>
<g>
	<g>
		<line class="st17" x1="63.8" y1="435.3" x2="63.8" y2="427"/>
	</g>
	<g>
		<path class="st16" d="M63.8,438.3c-1.7,0-3-1.4-3-3c0-1.8,1.4-3.2,3-3.2c1.8,0,3.2,1.4,3.2,3.2C67,436.9,65.6,438.3,63.8,438.3z"
			/>
		<path d="M63.8,439c-2,0-3.7-1.6-3.7-3.7c0-2.2,1.7-3.8,3.7-3.8v1.1c-1.4,0-2.5,1.1-2.5,2.7c0,1.4,1.1,2.5,2.5,2.5V439L63.8,439z
			 M63.8,431.5v1.1c1.5,0,2.7,1.1,2.7,2.7c0,1.4-1.1,2.5-2.7,2.5v1.1c2.2,0,3.8-1.6,3.8-3.7C67.7,433.1,66,431.5,63.8,431.5z"/>
	</g>
	<rect x="59.7" y="431.1" class="st16" width="8.5" height="4.1"/>
	<rect x="63.2" y="432" width="1" height="4.2"/>
	<rect x="63.2" y="432" class="st18" width="1" height="4.2"/>
</g>
<rect x="60.5" y="466.3" class="st16" width="6.4" height="6"/>
<g>
	<text transform="matrix(1 0 0 1 56.1439 471.2327)" class="st14 st15">B 1.5</text>
</g>
<rect x="380.3" y="466.3" class="st16" width="6.4" height="6"/>
<g id="REB_x2C_A3_1_">
	<rect x="43.2" y="133.8" class="st25" width="48.4" height="56.3"/>
</g>
<g id="RF22_x2C_A3_7_">
	<g>
		<g>
			<path class="st26" d="M65.2,165.2c-1.2,0-2.2,1-2.2,2.2s1,2.2,2.2,2.2s2.2-1,2.2-2.2C67.5,166.2,66.5,165.2,65.2,165.2"/>
		</g>
		<g>
			<path class="st26" d="M65.2,149.3c-1.2,0-2.2,1-2.2,2.1c0,1.2,1,2.2,2.2,2.2s2.2-0.9,2.2-2.2C67.5,150.3,66.5,149.3,65.2,149.3"
				/>
		</g>
		<g>
			<path class="st26" d="M63.7,153.1c-0.1,2.5,0.2,3.2,1.3,4.3c1.2,1.2,2.4,1.7,2.8,3.7c0.4,1.6-0.1,3.5-1.1,4.5"/>
		</g>
		<g>
			<path class="st26" d="M66.6,165.7c0.2-0.8,0-2.9-0.6-3.7c-0.9-1.2-2.7-2.1-3.3-4c-0.9-2.8,0.7-4.6,1.1-5"/>
		</g>
	</g>
</g>
<line class="st27" x1="65.3" y1="198.6" x2="65.3" y2="390.9"/>
<line class="st27" x1="65.3" y1="198.6" x2="65.3" y2="390.9"/>
<g>
	<g>
		<polyline class="st17" points="65.2,169.5 65.2,173.5 65.2,190.1 		"/>
	</g>
</g>
<g>
	<g>
		<polyline class="st17" points="65.2,149 65.2,144.9 65.2,48.1 		"/>
	</g>
</g>
<g>
	<g>
		<line class="st17" x1="65.2" y1="198.6" x2="65.2" y2="190.3"/>
	</g>
	<g>
		<path class="st16" d="M65.3,201.6c-1.7,0-3-1.4-3-3c0-1.8,1.4-3.2,3-3.2c1.8,0,3.2,1.4,3.2,3.2C68.5,200.2,67.1,201.6,65.3,201.6z
			"/>
		<path d="M65.3,202.3c-2,0-3.7-1.6-3.7-3.7c0-2.2,1.7-3.8,3.7-3.8v1.1c-1.4,0-2.5,1.1-2.5,2.7c0,1.4,1.1,2.5,2.5,2.5V202.3
			L65.3,202.3z M65.3,194.8v1.1c1.5,0,2.7,1.1,2.7,2.7c0,1.4-1.1,2.5-2.7,2.5v1.1c2.2,0,3.8-1.6,3.8-3.7
			C69.1,196.4,67.5,194.8,65.3,194.8z"/>
	</g>
	<rect x="61.2" y="194.4" class="st16" width="8.5" height="4.1"/>
	<rect x="64.7" y="195.3" width="1" height="4.2"/>
	<rect x="64.7" y="195.3" class="st18" width="1" height="4.2"/>
</g>
<g>
	<g>
		<line class="st17" x1="65.6" y1="392.9" x2="65.6" y2="401.1"/>
	</g>
	<g>
		<path class="st16" d="M65.5,389.8c1.7,0,3,1.4,3,3c0,1.8-1.4,3.2-3,3.2c-1.8,0-3.2-1.4-3.2-3.2C62.3,391.2,63.7,389.8,65.5,389.8z
			"/>
		<path d="M65.5,389.2c2,0,3.7,1.7,3.7,3.7c0,2.2-1.7,3.8-3.7,3.8v-1.1c1.4,0,2.5-1.1,2.5-2.7c0-1.4-1.1-2.5-2.5-2.5V389.2
			L65.5,389.2z M65.5,396.7v-1.1c-1.5,0-2.7-1.1-2.7-2.7c0-1.4,1.1-2.5,2.7-2.5v-1.1c-2.2,0-3.8,1.7-3.8,3.7S63.3,396.7,65.5,396.7z
			"/>
	</g>
	<rect x="61.2" y="393" class="st16" width="8.5" height="4.1"/>
	<rect x="65.1" y="392" width="1" height="4.2"/>
	<rect x="65.1" y="392" class="st18" width="1" height="4.2"/>
</g>
<rect x="59" y="249.9" class="st16" width="12.7" height="6"/>
<g>
	<path class="st28" d="M62.1,47.8c0-1.7,1.3-2.9,2.8-2.9c1.6,0,2.9,1.2,2.9,2.9c0,1.5-1.3,2.7-2.9,2.7
		C63.4,50.6,62.1,49.4,62.1,47.8z"/>
	<g>
		<path class="st29" d="M62.1,47.8c0-1.7,1.3-2.9,2.8-2.9c1.6,0,2.9,1.2,2.9,2.9c0,1.5-1.3,2.7-2.9,2.7
			C63.4,50.6,62.1,49.4,62.1,47.8"/>
	</g>
</g>
<rect x="58.9" y="374.8" class="st16" width="12.7" height="6"/>
<rect x="58.9" y="374.8" class="st16" width="12.5" height="6"/>
<g>
	<text transform="matrix(1 0 0 1 54.7707 379.7627)" class="st14 st15">R 8.0</text>
</g>
<g>
	<text transform="matrix(1 0 0 1 57.5443 255.1219)" class="st14 st15">R 8.0</text>
</g>
<g>
	<g>
		<text transform="matrix(1 0 0 1 69.5744 164.7002)" class="st14 st15">100A</text>
	</g>
</g>
<g>
	<rect x="697.2" y="203.3" class="st16" width="12.3" height="6"/>
	<text transform="matrix(1 0 0 1 691.5583 208.1847)" class="st14 st15">B 0.22</text>
</g>
<g>
	<rect x="697.2" y="303.5" class="st16" width="12.3" height="6"/>
	<text transform="matrix(1 0 0 1 693.9329 308.4348)" class="st14 st15">B 0.35</text>
</g>
<g>
	<g>
		<line class="st17" x1="702.4" y1="180.3" x2="702.4" y2="172"/>
	</g>
	<g>
		<path class="st16" d="M702.3,183.3c1.7,0,3-1.4,3-3c0-1.8-1.4-3.2-3-3.2c-1.8,0-3.2,1.4-3.2,3.2
			C699.1,181.9,700.5,183.3,702.3,183.3z"/>
		<path d="M702.3,184v-1.1c1.4,0,2.5-1.1,2.5-2.5c0-1.5-1.1-2.7-2.5-2.7v-1.1c2,0,3.7,1.7,3.7,3.8C706,182.3,704.3,184,702.3,184
			L702.3,184z M698.5,180.3c0,2,1.6,3.7,3.8,3.7v-1.1c-1.5,0-2.7-1.1-2.7-2.5c0-1.5,1.1-2.7,2.7-2.7v-1.1
			C700.1,176.5,698.5,178.1,698.5,180.3z"/>
	</g>
	<rect x="698" y="176.1" class="st16" width="8.5" height="4.1"/>
	<rect x="701.9" y="177" width="1" height="4.2"/>
	<rect x="701.9" y="177" class="st18" width="1" height="4.2"/>
</g>
<g>
	<rect x="638.4" y="361.1" class="st16" width="12.3" height="6"/>
	<text transform="matrix(1 0 0 1 628.7489 366.0773)" class="st14 st15">G/Y 0.22</text>
</g>
<g>
	<rect x="638.4" y="203.3" class="st16" width="12.3" height="6"/>
	<text transform="matrix(1 0 0 1 628.7489 208.1847)" class="st14 st15">G/Y 0.22</text>
</g>
<g>
	<g>
		<line class="st17" x1="641.7" y1="180.3" x2="641.7" y2="172"/>
	</g>
	<g>
		<path class="st16" d="M641.6,183.3c1.7,0,3-1.4,3-3c0-1.8-1.4-3.2-3-3.2c-1.8,0-3.2,1.4-3.2,3.2
			C638.4,181.9,639.8,183.3,641.6,183.3z"/>
		<path d="M641.6,184v-1.1c1.4,0,2.5-1.1,2.5-2.5c0-1.5-1.1-2.7-2.5-2.7v-1.1c2,0,3.7,1.7,3.7,3.8C645.2,182.3,643.6,184,641.6,184
			L641.6,184z M637.8,180.3c0,2,1.6,3.7,3.8,3.7v-1.1c-1.5,0-2.7-1.1-2.7-2.5c0-1.5,1.1-2.7,2.7-2.7v-1.1
			C639.4,176.5,637.8,178.1,637.8,180.3z"/>
	</g>
	<rect x="637.2" y="176.1" class="st16" width="8.5" height="4.1"/>
	<rect x="641.2" y="177" width="1" height="4.2"/>
	<rect x="641.2" y="177" class="st18" width="1" height="4.2"/>
</g>
<g>
	<g>
		<line class="st17" x1="641.1" y1="392.9" x2="641.1" y2="401.1"/>
	</g>
	<g>
		<path class="st16" d="M641,389.8c1.7,0,3,1.4,3,3c0,1.8-1.4,3.2-3,3.2c-1.8,0-3.2-1.4-3.2-3.2C637.8,391.2,639.2,389.8,641,389.8z
			"/>
		<path d="M641,389.2c2,0,3.7,1.7,3.7,3.7c0,2.2-1.7,3.8-3.7,3.8v-1.1c1.4,0,2.5-1.1,2.5-2.7c0-1.4-1.1-2.5-2.5-2.5V389.2L641,389.2
			z M641,396.7v-1.1c-1.5,0-2.7-1.1-2.7-2.7c0-1.4,1.1-2.5,2.7-2.5v-1.1c-2.2,0-3.8,1.7-3.8,3.7S638.9,396.7,641,396.7z"/>
	</g>
	<rect x="636.7" y="393" class="st16" width="8.5" height="4.1"/>
	<rect x="640.6" y="392" width="1" height="4.2"/>
	<rect x="640.6" y="392" class="st18" width="1" height="4.2"/>
</g>
<g>
	<rect x="572" y="361.1" class="st16" width="12.3" height="6"/>
	<text transform="matrix(1 0 0 1 566.3003 366.0773)" class="st14 st15">Br/W 0.22</text>
</g>
<g>
	<rect x="572" y="203.3" class="st16" width="12.3" height="6"/>
	<text transform="matrix(1 0 0 1 566.3003 208.1847)" class="st14 st15">Br/W 0.22</text>
</g>
<g>
	<g>
		<line class="st17" x1="580.9" y1="180.3" x2="580.9" y2="172"/>
	</g>
	<g>
		<path class="st16" d="M580.8,183.3c1.7,0,3-1.4,3-3c0-1.8-1.4-3.2-3-3.2c-1.8,0-3.2,1.4-3.2,3.2
			C577.7,181.9,579.1,183.3,580.8,183.3z"/>
		<path d="M580.8,184v-1.1c1.4,0,2.5-1.1,2.5-2.5c0-1.5-1.1-2.7-2.5-2.7v-1.1c2,0,3.7,1.7,3.7,3.8C584.5,182.3,582.9,184,580.8,184
			L580.8,184z M577,180.3c0,2,1.6,3.7,3.8,3.7v-1.1c-1.5,0-2.7-1.1-2.7-2.5c0-1.5,1.1-2.7,2.7-2.7v-1.1
			C578.7,176.5,577,178.1,577,180.3z"/>
	</g>
	<rect x="576.5" y="176.1" class="st16" width="8.5" height="4.1"/>
	<rect x="580.4" y="177" width="1" height="4.2"/>
	<rect x="580.4" y="177" class="st18" width="1" height="4.2"/>
</g>
<g>
	<g>
		<line class="st17" x1="580.4" y1="392.9" x2="580.4" y2="401.1"/>
	</g>
	<g>
		<path class="st16" d="M580.3,389.8c1.7,0,3,1.4,3,3c0,1.8-1.4,3.2-3,3.2c-1.8,0-3.2-1.4-3.2-3.2
			C577.1,391.2,578.5,389.8,580.3,389.8z"/>
		<path d="M580.3,389.2c2,0,3.7,1.7,3.7,3.7c0,2.2-1.7,3.8-3.7,3.8v-1.1c1.4,0,2.5-1.1,2.5-2.7c0-1.4-1.1-2.5-2.5-2.5V389.2
			L580.3,389.2z M580.3,396.7v-1.1c-1.5,0-2.7-1.1-2.7-2.7c0-1.4,1.1-2.5,2.7-2.5v-1.1c-2.2,0-3.8,1.7-3.8,3.7
			S578.1,396.7,580.3,396.7z"/>
	</g>
	<rect x="576" y="393" class="st16" width="8.5" height="4.1"/>
	<rect x="579.9" y="392" width="1" height="4.2"/>
	<rect x="579.9" y="392" class="st18" width="1" height="4.2"/>
</g>
<g>
	<rect x="516.2" y="361.1" class="st16" width="12.3" height="6"/>
	<text transform="matrix(1 0 0 1 510.4825 366.0773)" class="st14 st15">Y 0.22</text>
</g>
<g>
	<rect x="516.2" y="203.3" class="st16" width="12.3" height="6"/>
	<text transform="matrix(1 0 0 1 510.4825 208.1847)" class="st14 st15">Y 0.22</text>
</g>
<g>
	<g>
		<line class="st17" x1="520.2" y1="180.3" x2="520.2" y2="172"/>
	</g>
	<g>
		<path class="st16" d="M520.1,183.3c1.7,0,3-1.4,3-3c0-1.8-1.4-3.2-3-3.2c-1.8,0-3.2,1.4-3.2,3.2
			C516.9,181.9,518.3,183.3,520.1,183.3z"/>
		<path d="M520.1,184v-1.1c1.4,0,2.5-1.1,2.5-2.5c0-1.5-1.1-2.7-2.5-2.7v-1.1c2,0,3.7,1.7,3.7,3.8C523.8,182.3,522.1,184,520.1,184
			L520.1,184z M516.3,180.3c0,2,1.6,3.7,3.8,3.7v-1.1c-1.5,0-2.7-1.1-2.7-2.5c0-1.5,1.1-2.7,2.7-2.7v-1.1
			C517.9,176.5,516.3,178.1,516.3,180.3z"/>
	</g>
	<rect x="515.8" y="176.1" class="st16" width="8.5" height="4.1"/>
	<rect x="519.7" y="177" width="1" height="4.2"/>
	<rect x="519.7" y="177" class="st18" width="1" height="4.2"/>
</g>
<g>
	<g>
		<line class="st17" x1="519.6" y1="392.9" x2="519.6" y2="401.1"/>
	</g>
	<g>
		<path class="st16" d="M519.5,389.8c1.7,0,3,1.4,3,3c0,1.8-1.4,3.2-3,3.2c-1.8,0-3.2-1.4-3.2-3.2
			C516.4,391.2,517.8,389.8,519.5,389.8z"/>
		<path d="M519.5,389.2c2,0,3.7,1.7,3.7,3.7c0,2.2-1.7,3.8-3.7,3.8v-1.1c1.4,0,2.5-1.1,2.5-2.7c0-1.4-1.1-2.5-2.5-2.5V389.2
			L519.5,389.2z M519.5,396.7v-1.1c-1.5,0-2.7-1.1-2.7-2.7c0-1.4,1.1-2.5,2.7-2.5v-1.1c-2.2,0-3.8,1.7-3.8,3.7
			S517.4,396.7,519.5,396.7z"/>
	</g>
	<rect x="515.2" y="393" class="st16" width="8.5" height="4.1"/>
	<rect x="519.2" y="392" width="1" height="4.2"/>
	<rect x="519.2" y="392" class="st18" width="1" height="4.2"/>
</g>
<g>
	<rect x="454.3" y="361.1" class="st16" width="12.3" height="6"/>
	<text transform="matrix(1 0 0 1 448.6082 366.0773)" class="st14 st15">Br 0.22</text>
</g>
<g>
	<rect x="454.3" y="203.3" class="st16" width="12.3" height="6"/>
	<text transform="matrix(1 0 0 1 448.6082 208.1847)" class="st14 st15">Br 0.22</text>
</g>
<g>
	<g>
		<line class="st17" x1="459.4" y1="180.3" x2="459.4" y2="172"/>
	</g>
	<g>
		<path class="st16" d="M459.4,183.3c1.7,0,3-1.4,3-3c0-1.8-1.4-3.2-3-3.2c-1.8,0-3.2,1.4-3.2,3.2
			C456.2,181.9,457.6,183.3,459.4,183.3z"/>
		<path d="M459.4,184v-1.1c1.4,0,2.5-1.1,2.5-2.5c0-1.5-1.1-2.7-2.5-2.7v-1.1c2,0,3.7,1.7,3.7,3.8C463,182.3,461.4,184,459.4,184
			L459.4,184z M455.5,180.3c0,2,1.6,3.7,3.8,3.7v-1.1c-1.5,0-2.7-1.1-2.7-2.5c0-1.5,1.1-2.7,2.7-2.7v-1.1
			C457.2,176.5,455.5,178.1,455.5,180.3z"/>
	</g>
	<rect x="455" y="176.1" class="st16" width="8.5" height="4.1"/>
	<rect x="459" y="177" width="1" height="4.2"/>
	<rect x="459" y="177" class="st18" width="1" height="4.2"/>
</g>
<g>
	<g>
		<line class="st17" x1="458.9" y1="392.9" x2="458.9" y2="401.1"/>
	</g>
	<g>
		<path class="st16" d="M458.8,389.8c1.7,0,3,1.4,3,3c0,1.8-1.4,3.2-3,3.2c-1.8,0-3.2-1.4-3.2-3.2
			C455.6,391.2,457,389.8,458.8,389.8z"/>
		<path d="M458.8,389.2c2,0,3.7,1.7,3.7,3.7c0,2.2-1.7,3.8-3.7,3.8v-1.1c1.4,0,2.5-1.1,2.5-2.7c0-1.4-1.1-2.5-2.5-2.5V389.2
			L458.8,389.2z M458.8,396.7v-1.1c-1.5,0-2.7-1.1-2.7-2.7c0-1.4,1.1-2.5,2.7-2.5v-1.1c-2.2,0-3.8,1.7-3.8,3.7
			S456.6,396.7,458.8,396.7z"/>
	</g>
	<rect x="454.5" y="393" class="st16" width="8.5" height="4.1"/>
	<rect x="458.4" y="392" width="1" height="4.2"/>
	<rect x="458.4" y="392" class="st18" width="1" height="4.2"/>
</g>
<g id="节点">
</g>
<rect x="708.5" y="226.7" class="st30" width="25.3" height="5.6"/>
<text transform="matrix(1 0 0 1 709.2527 231.5681)" class="st14 st15">SP4870</text>
<path class="st31" d="M704.9,229.6c0,1.7-1.3,2.9-2.8,2.9c-1.6,0-2.9-1.2-2.9-2.9c0-1.5,1.3-2.7,2.9-2.7
	C703.6,226.8,704.9,228,704.9,229.6z"/>
<rect x="522.9" y="537.9" class="st30" width="25.3" height="5.6"/>
<text transform="matrix(1 0 0 1 523.6106 542.7573)" class="st14 st15">SP4790</text>
<path class="st31" d="M521.9,547.5c0,1.7-1.3,2.9-2.8,2.9c-1.6,0-2.9-1.2-2.9-2.9c0-1.5,1.3-2.7,2.9-2.7
	C520.6,544.7,521.9,545.9,521.9,547.5z"/>
<g id="GB031_1_">
	<g>
		<g>
			<line class="st23" x1="701.8" y1="338.6" x2="701.8" y2="341.2"/>
		</g>
		<g>
			<line class="st23" x1="694.7" y1="341.2" x2="708.5" y2="341.2"/>
		</g>
		<g>
			<line class="st23" x1="697.5" y1="343.5" x2="705.7" y2="343.5"/>
		</g>
		<g>
			<line class="st23" x1="704.1" y1="345.6" x2="699.2" y2="345.6"/>
		</g>
	</g>
	<g>
		<rect x="691.3" y="348.1" class="st16" width="20.3" height="8.2"/>
		<rect x="691.6" y="348.4" class="st24" width="19.7" height="7.6"/>
	</g>
</g>
<text transform="matrix(1 0 0 1 443.9679 471.2339)" class="st14 st15">W/R 0.35</text>
<g>
	<rect x="512.4" y="656.2" class="st16" width="12.3" height="6"/>
	<text transform="matrix(1 0 0 1 506.7057 661.1)" class="st14 st15">G/L 0.35</text>
</g>
<g>
	<rect x="331.9" y="656.2" class="st16" width="12.3" height="6"/>
	<text transform="matrix(1 0 0 1 326.2335 661.1)" class="st14 st15">G 1.0</text>
</g>
<g>
	<rect x="267.7" y="656.2" class="st16" width="12.3" height="6"/>
	<text transform="matrix(1 0 0 1 262.0124 661.1)" class="st14 st15">L/Y 0.35</text>
</g>
<rect x="446.6" y="656.2" class="st16" width="18.8" height="6"/>
<g>
	<rect x="392.7" y="656.2" class="st16" width="12.3" height="6"/>
	<text transform="matrix(1 0 0 1 385.0018 661.1)" class="st14 st15">Y/L 0.35</text>
</g>
<g>
	<rect x="211.6" y="656.2" class="st16" width="12.3" height="6"/>
	<text transform="matrix(1 0 0 1 205.9366 661.1)" class="st14 st15">R 0.35</text>
</g>
<text transform="matrix(1 0 0 1 443.9679 661.1)" class="st14 st15">W/R 0.35</text>
<line class="st9" x1="782.1" y1="438.3" x2="782.1" y2="687.9"/>
<line class="st0" x1="658.5" y1="438.3" x2="658.5" y2="687.9"/>
<line class="st6" x1="658.5" y1="438.3" x2="658.5" y2="687.9"/>
<line class="st7" x1="719" y1="438.3" x2="719" y2="687.9"/>
<line class="st5" x1="719" y1="438.3" x2="719" y2="687.9"/>
<line class="st7" x1="906.9" y1="438.3" x2="906.9" y2="687.9"/>
<g>
	<path class="st2" d="M846.1,689.4c-0.8,0-1.5-0.7-1.5-1.5V438.3c0-0.8,0.7-1.5,1.5-1.5s1.5,0.7,1.5,1.5v249.6
		C847.6,688.7,847,689.4,846.1,689.4z"/>
</g>
<g>
	<rect x="903.6" y="466.3" class="st16" width="12.3" height="6"/>
	<text transform="matrix(1 0 0 1 897.8777 471.2339)" class="st14 st15">B 1.0</text>
</g>
<g>
	<g>
		<line class="st17" x1="906.8" y1="435.3" x2="906.8" y2="427"/>
	</g>
	<g>
		<path class="st16" d="M906.7,438.3c1.7,0,3-1.4,3-3c0-1.8-1.4-3.2-3-3.2c-1.8,0-3.2,1.4-3.2,3.2
			C903.6,436.9,905,438.3,906.7,438.3z"/>
		<path d="M906.7,439v-1.1c1.4,0,2.5-1.1,2.5-2.5c0-1.5-1.1-2.7-2.5-2.7v-1.1c2,0,3.7,1.7,3.7,3.8C910.4,437.3,908.8,439,906.7,439
			L906.7,439z M902.9,435.3c0,2,1.6,3.7,3.8,3.7v-1.1c-1.5,0-2.7-1.1-2.7-2.5c0-1.5,1.1-2.7,2.7-2.7v-1.1
			C904.6,431.5,902.9,433.1,902.9,435.3z"/>
	</g>
	<rect x="902.4" y="431.1" class="st16" width="8.5" height="4.1"/>
	<rect x="906.4" y="432" width="1" height="4.2"/>
	<rect x="906.4" y="432" class="st18" width="1" height="4.2"/>
</g>
<g>
	<g>
		<line class="st17" x1="907" y1="687.9" x2="907" y2="696.2"/>
	</g>
	<g>
		<path class="st16" d="M906.9,684.9c1.7,0,3,1.4,3,3c0,1.8-1.4,3.2-3,3.2c-1.8,0-3.2-1.4-3.2-3.2
			C903.7,686.3,905.1,684.9,906.9,684.9z"/>
		<path d="M906.9,684.2c2,0,3.7,1.7,3.7,3.7c0,2.2-1.7,3.8-3.7,3.8v-1.1c1.4,0,2.5-1.1,2.5-2.7c0-1.4-1.1-2.5-2.5-2.5V684.2
			L906.9,684.2z M906.9,691.7v-1.1c-1.5,0-2.7-1.1-2.7-2.7c0-1.4,1.1-2.5,2.7-2.5v-1.1c-2.2,0-3.8,1.7-3.8,3.7
			C903.1,690.1,904.7,691.7,906.9,691.7z"/>
	</g>
	<rect x="902.6" y="688" class="st16" width="8.5" height="4.1"/>
	<rect x="906.5" y="687" width="1" height="4.2"/>
	<rect x="906.5" y="687" class="st18" width="1" height="4.2"/>
</g>
<g>
	<rect x="842.8" y="466.3" class="st16" width="12.3" height="6"/>
	<text transform="matrix(1 0 0 1 837.1401 471.2339)" class="st14 st15">W 1.0</text>
</g>
<g>
	<g>
		<line class="st17" x1="846.1" y1="435.3" x2="846.1" y2="427"/>
	</g>
	<g>
		<path class="st16" d="M846,438.3c1.7,0,3-1.4,3-3c0-1.8-1.4-3.2-3-3.2c-1.8,0-3.2,1.4-3.2,3.2C842.8,436.9,844.2,438.3,846,438.3z
			"/>
		<path d="M846,439v-1.1c1.4,0,2.5-1.1,2.5-2.5c0-1.5-1.1-2.7-2.5-2.7v-1.1c2,0,3.7,1.7,3.7,3.8C849.7,437.3,848,439,846,439
			L846,439z M842.2,435.3c0,2,1.6,3.7,3.8,3.7v-1.1c-1.5,0-2.7-1.1-2.7-2.5c0-1.5,1.1-2.7,2.7-2.7v-1.1
			C843.9,431.5,842.2,433.1,842.2,435.3z"/>
	</g>
	<rect x="841.7" y="431.1" class="st16" width="8.5" height="4.1"/>
	<rect x="845.6" y="432" width="1" height="4.2"/>
	<rect x="845.6" y="432" class="st18" width="1" height="4.2"/>
</g>
<g>
	<g>
		<line class="st17" x1="846.1" y1="687.9" x2="846.1" y2="696.2"/>
	</g>
	<g>
		<path class="st16" d="M846,684.9c1.7,0,3,1.4,3,3c0,1.8-1.4,3.2-3,3.2c-1.8,0-3.2-1.4-3.2-3.2C842.8,686.3,844.2,684.9,846,684.9z
			"/>
		<path d="M846,684.2c2,0,3.7,1.7,3.7,3.7c0,2.2-1.7,3.8-3.7,3.8v-1.1c1.4,0,2.5-1.1,2.5-2.7c0-1.4-1.1-2.5-2.5-2.5V684.2L846,684.2
			z M846,691.7v-1.1c-1.5,0-2.7-1.1-2.7-2.7c0-1.4,1.1-2.5,2.7-2.5v-1.1c-2.2,0-3.8,1.7-3.8,3.7C842.2,690.1,843.9,691.7,846,691.7z
			"/>
	</g>
	<rect x="841.7" y="688" class="st16" width="8.5" height="4.1"/>
	<rect x="845.6" y="687" width="1" height="4.2"/>
	<rect x="845.6" y="687" class="st18" width="1" height="4.2"/>
</g>
<g>
	<rect x="711.3" y="466.3" class="st16" width="12.3" height="6"/>
	<text transform="matrix(1 0 0 1 705.5994 471.2339)" class="st14 st15">B/W 0.35</text>
</g>
<g>
	<g>
		<line class="st17" x1="719" y1="435.3" x2="719" y2="427"/>
	</g>
	<g>
		<path class="st16" d="M718.9,438.3c1.7,0,3-1.4,3-3c0-1.8-1.4-3.2-3-3.2c-1.8,0-3.2,1.4-3.2,3.2
			C715.7,436.9,717.1,438.3,718.9,438.3z"/>
		<path d="M718.9,439v-1.1c1.4,0,2.5-1.1,2.5-2.5c0-1.5-1.1-2.7-2.5-2.7v-1.1c2,0,3.7,1.7,3.7,3.8C722.6,437.3,720.9,439,718.9,439
			L718.9,439z M715.1,435.3c0,2,1.6,3.7,3.8,3.7v-1.1c-1.5,0-2.7-1.1-2.7-2.5c0-1.5,1.1-2.7,2.7-2.7v-1.1
			C716.7,431.5,715.1,433.1,715.1,435.3z"/>
	</g>
	<rect x="714.6" y="431.1" class="st16" width="8.5" height="4.1"/>
	<rect x="718.5" y="432" width="1" height="4.2"/>
	<rect x="718.5" y="432" class="st18" width="1" height="4.2"/>
</g>
<g>
	<g>
		<line class="st17" x1="718.8" y1="687.9" x2="718.8" y2="696.2"/>
	</g>
	<g>
		<path class="st16" d="M718.7,684.9c1.7,0,3,1.4,3,3c0,1.8-1.4,3.2-3,3.2c-1.8,0-3.2-1.4-3.2-3.2
			C715.5,686.3,716.9,684.9,718.7,684.9z"/>
		<path d="M718.7,684.2c2,0,3.7,1.7,3.7,3.7c0,2.2-1.7,3.8-3.7,3.8v-1.1c1.4,0,2.5-1.1,2.5-2.7c0-1.4-1.1-2.5-2.5-2.5V684.2
			L718.7,684.2z M718.7,691.7v-1.1c-1.5,0-2.7-1.1-2.7-2.7c0-1.4,1.1-2.5,2.7-2.5v-1.1c-2.2,0-3.8,1.7-3.8,3.7
			C714.9,690.1,716.6,691.7,718.7,691.7z"/>
	</g>
	<rect x="714.4" y="688" class="st16" width="8.5" height="4.1"/>
	<rect x="718.3" y="687" width="1" height="4.2"/>
	<rect x="718.3" y="687" class="st18" width="1" height="4.2"/>
</g>
<rect x="649.1" y="466.3" class="st16" width="18.8" height="6"/>
<g>
	<g>
		<line class="st17" x1="658.6" y1="435.3" x2="658.6" y2="427"/>
	</g>
	<g>
		<path class="st16" d="M658.5,438.3c1.7,0,3-1.4,3-3c0-1.8-1.4-3.2-3-3.2c-1.8,0-3.2,1.4-3.2,3.2
			C655.4,436.9,656.8,438.3,658.5,438.3z"/>
		<path d="M658.5,439v-1.1c1.4,0,2.5-1.1,2.5-2.5c0-1.5-1.1-2.7-2.5-2.7v-1.1c2,0,3.7,1.7,3.7,3.8C662.2,437.3,660.6,439,658.5,439
			L658.5,439z M654.7,435.3c0,2,1.6,3.7,3.8,3.7v-1.1c-1.5,0-2.7-1.1-2.7-2.5c0-1.5,1.1-2.7,2.7-2.7v-1.1
			C656.4,431.5,654.7,433.1,654.7,435.3z"/>
	</g>
	<rect x="654.2" y="431.1" class="st16" width="8.5" height="4.1"/>
	<rect x="658.1" y="432" width="1" height="4.2"/>
	<rect x="658.1" y="432" class="st18" width="1" height="4.2"/>
</g>
<g>
	<g>
		<line class="st17" x1="658.1" y1="687.9" x2="658.1" y2="696.2"/>
	</g>
	<g>
		<path class="st16" d="M658,684.9c1.7,0,3,1.4,3,3c0,1.8-1.4,3.2-3,3.2c-1.8,0-3.2-1.4-3.2-3.2C654.8,686.3,656.2,684.9,658,684.9z
			"/>
		<path d="M658,684.2c2,0,3.7,1.7,3.7,3.7c0,2.2-1.7,3.8-3.7,3.8v-1.1c1.4,0,2.5-1.1,2.5-2.7c0-1.4-1.1-2.5-2.5-2.5V684.2L658,684.2
			z M658,691.7v-1.1c-1.5,0-2.7-1.1-2.7-2.7c0-1.4,1.1-2.5,2.7-2.5v-1.1c-2.2,0-3.8,1.7-3.8,3.7C654.2,690.1,655.8,691.7,658,691.7z
			"/>
	</g>
	<rect x="653.7" y="688" class="st16" width="8.5" height="4.1"/>
	<rect x="657.6" y="687" width="1" height="4.2"/>
	<rect x="657.6" y="687" class="st18" width="1" height="4.2"/>
</g>
<g>
	<rect x="779.7" y="466.3" class="st16" width="12.3" height="6"/>
	<text transform="matrix(1 0 0 1 772.0601 471.2339)" class="st14 st15">Y 0.35</text>
</g>
<g>
	<g>
		<line class="st17" x1="782.2" y1="435.3" x2="782.2" y2="427"/>
	</g>
	<g>
		<path class="st16" d="M782.1,438.3c1.7,0,3-1.4,3-3c0-1.8-1.4-3.2-3-3.2c-1.8,0-3.2,1.4-3.2,3.2
			C778.9,436.9,780.3,438.3,782.1,438.3z"/>
		<path d="M782.1,439v-1.1c1.4,0,2.5-1.1,2.5-2.5c0-1.5-1.1-2.7-2.5-2.7v-1.1c2,0,3.7,1.7,3.7,3.8C785.8,437.3,784.1,439,782.1,439
			L782.1,439z M778.3,435.3c0,2,1.6,3.7,3.8,3.7v-1.1c-1.5,0-2.7-1.1-2.7-2.5c0-1.5,1.1-2.7,2.7-2.7v-1.1
			C780,431.5,778.3,433.1,778.3,435.3z"/>
	</g>
	<rect x="777.8" y="431.1" class="st16" width="8.5" height="4.1"/>
	<rect x="781.7" y="432" width="1" height="4.2"/>
	<rect x="781.7" y="432" class="st18" width="1" height="4.2"/>
</g>
<g>
	<g>
		<line class="st17" x1="781.7" y1="687.9" x2="781.7" y2="696.2"/>
	</g>
	<g>
		<path class="st16" d="M781.6,684.9c1.7,0,3,1.4,3,3c0,1.8-1.4,3.2-3,3.2c-1.8,0-3.2-1.4-3.2-3.2
			C778.4,686.3,779.8,684.9,781.6,684.9z"/>
		<path d="M781.6,684.2c2,0,3.7,1.7,3.7,3.7c0,2.2-1.7,3.8-3.7,3.8v-1.1c1.4,0,2.5-1.1,2.5-2.7c0-1.4-1.1-2.5-2.5-2.5V684.2
			L781.6,684.2z M781.6,691.7v-1.1c-1.5,0-2.7-1.1-2.7-2.7c0-1.4,1.1-2.5,2.7-2.5v-1.1c-2.2,0-3.8,1.7-3.8,3.7
			C777.8,690.1,779.4,691.7,781.6,691.7z"/>
	</g>
	<rect x="777.3" y="688" class="st16" width="8.5" height="4.1"/>
	<rect x="781.2" y="687" width="1" height="4.2"/>
	<rect x="781.2" y="687" class="st18" width="1" height="4.2"/>
</g>
<g>
	<g>
		<line class="st17" x1="603.1" y1="687.9" x2="603.1" y2="696.2"/>
	</g>
	<g>
		<path class="st16" d="M603,684.9c1.7,0,3,1.4,3,3c0,1.8-1.4,3.2-3,3.2c-1.8,0-3.2-1.4-3.2-3.2C599.9,686.3,601.3,684.9,603,684.9z
			"/>
		<path d="M603,684.2c2,0,3.7,1.7,3.7,3.7c0,2.2-1.7,3.8-3.7,3.8v-1.1c1.4,0,2.5-1.1,2.5-2.7c0-1.4-1.1-2.5-2.5-2.5V684.2L603,684.2
			z M603,691.7v-1.1c-1.5,0-2.7-1.1-2.7-2.7c0-1.4,1.1-2.5,2.7-2.5v-1.1c-2.2,0-3.8,1.7-3.8,3.7C599.2,690.1,600.9,691.7,603,691.7z
			"/>
	</g>
	<rect x="598.7" y="688" class="st16" width="8.5" height="4.1"/>
	<rect x="602.6" y="687" width="1" height="4.2"/>
	<rect x="602.6" y="687" class="st18" width="1" height="4.2"/>
</g>
<text transform="matrix(1 0 0 1 645.6694 471.2339)" class="st14 st15">G/Y 0.35</text>
<g>
	<rect x="903.6" y="656.2" class="st16" width="12.3" height="6"/>
	<text transform="matrix(1 0 0 1 897.8777 661.1)" class="st14 st15">B 1.0</text>
</g>
<g>
	<rect x="842.8" y="656.2" class="st16" width="12.3" height="6"/>
	<text transform="matrix(1 0 0 1 837.1401 661.1)" class="st14 st15">W 1.0</text>
</g>
<g>
	<rect x="711.3" y="656.2" class="st16" width="12.3" height="6"/>
	<text transform="matrix(1 0 0 1 705.5994 661.1)" class="st14 st15">B/W 0.35</text>
</g>
<rect x="649.1" y="656.2" class="st16" width="18.8" height="6"/>
<g>
	<rect x="779.7" y="656.2" class="st16" width="12.3" height="6"/>
	<text transform="matrix(1 0 0 1 772.0601 661.1)" class="st14 st15">Y 0.35</text>
</g>
<text transform="matrix(1 0 0 1 645.6694 661.1)" class="st14 st15">G/Y 0.35</text>
<g>
	<rect x="596.6" y="656.2" class="st16" width="12.3" height="6"/>
	<text transform="matrix(1 0 0 1 590.9639 661.1)" class="st14 st15">G/L 0.35</text>
</g>
<path class="st32" d="M46,427h889.8c0,0,5.4-7.7,0-12.2s0-13.7,0-13.7H46V427z"/>
<g>
	<text transform="matrix(1 0 0 1 193.1868 425.2905)" class="st14 st33">Sunroof motor Hall power supply</text>
</g>
<g>
	<text transform="matrix(1 0 0 1 384.3075 419.2905)" class="st34"><tspan x="0" y="0" class="st14 st33">Sunroof motor Hall</tspan><tspan x="0" y="4.8" class="st14 st33"> signal feedback A</tspan></text>
</g>
<g>
	<text transform="matrix(1 0 0 1 442.6825 419.2905)" class="st34"><tspan x="0" y="0" class="st14 st33">Sunroof motor Hall </tspan><tspan x="0" y="4.8" class="st14 st33">signal feedback B</tspan></text>
</g>
<g>
	<text transform="matrix(1 0 0 1 501.8686 419.2915)" class="st34"><tspan x="0" y="0" class="st14 st33">Sunroof/Blinder motor </tspan><tspan x="0" y="4.8" class="st14 st33">Hall power ground</tspan></text>
</g>
<g>
	<text transform="matrix(1 0 0 1 758.9623 423.2896)" class="st14 st33">Blinder Hall Power supply</text>
</g>
<g>
	<text transform="matrix(1 0 0 1 640.8846 419.4889)" class="st34"><tspan x="0" y="0" class="st14 st33">Hall feedback signal </tspan><tspan x="0" y="4.8" class="st14 st33">of blinder motor 2</tspan></text>
</g>
<g>
	<text transform="matrix(1 0 0 1 703.5096 419.489)" class="st34"><tspan x="0" y="0" class="st14 st33">Hall feedback signal </tspan><tspan x="0" y="4.8" class="st14 st33">of blinder motor 1</tspan></text>
</g>
<g>
	<text transform="matrix(1 0 0 1 833.811 419.489)" class="st34"><tspan x="0" y="0" class="st14 st33">Blinder opening </tspan><tspan x="0" y="4.8" class="st14 st33">control power supply</tspan></text>
</g>
<g>
	<text transform="matrix(1 0 0 1 892.9778 419.489)" class="st34"><tspan x="0" y="0" class="st14 st33">Blinder closing </tspan><tspan x="0" y="4.8" class="st14 st33">control power supply</tspan></text>
</g>
<g>
	<text transform="matrix(1 0 0 1 209.9686 406.4556)" class="st14 st33">CAN_L</text>
</g>
<g>
	<text transform="matrix(1 0 0 1 157.1297 405.9763)" class="st14 st33">CAN_H</text>
</g>
<line class="st19" x1="278.1" y1="211.1" x2="278.1" y2="393.5"/>
<line class="st20" x1="328.6" y1="212.2" x2="328.6" y2="394.6"/>
<g>
	<rect x="321.9" y="360.4" class="st16" width="13.9" height="6"/>
	<g>
		<text transform="matrix(1 0 0 1 320.1914 365.5649)" class="st14 st15">V 0.35</text>
	</g>
</g>
<g>
	<rect x="272.7" y="360.4" class="st16" width="13.9" height="6"/>
	<g>
		<text transform="matrix(1 0 0 1 269.0488 365.5649)" class="st14 st15">P 0.35</text>
	</g>
</g>
<path class="st21" d="M273.7,331.6c-1.8,0-3.2-1.5-3.2-3.5c0-1.9,1.4-3.5,3.2-3.5l59.9,6.9c1.8,0,3.2-1.5,3.2-3.5
	c0-1.9-1.4-3.5-3.2-3.5L273.7,331.6z"/>
<g>
	<text transform="matrix(1 0 0 1 264.3552 197.3998)" class="st14 st15">See Chassis Network - Circuit Diagram</text>
</g>
<path class="st22" d="M336.8,209l-0.5-2.1c0,0-0.5-2.5-2.7-2.6h-28.3l0,0l-1.6-2.7l-1.6,2.7c-7.4,0-28.2,0-28.2,0
	c-2.2,0.1-2.7,2.6-2.7,2.6l-0.5,2.1"/>
<g>
	<g>
		<line class="st17" x1="278" y1="392.6" x2="278" y2="400.9"/>
	</g>
	<g>
		<path class="st16" d="M278,389.6c1.7,0,3,1.4,3,3c0,1.8-1.4,3.2-3,3.2c-1.8,0-3.2-1.4-3.2-3.2C274.8,391,276.2,389.6,278,389.6z"
			/>
		<path d="M278,388.9c2,0,3.7,1.7,3.7,3.7c0,2.2-1.7,3.8-3.7,3.8v-1.1c1.4,0,2.5-1.1,2.5-2.7c0-1.4-1.1-2.5-2.5-2.5V388.9L278,388.9
			z M278,396.4v-1.1c-1.5,0-2.7-1.1-2.7-2.7c0-1.4,1.1-2.5,2.7-2.5V389c-2.2,0-3.8,1.7-3.8,3.7C274.2,394.8,275.8,396.4,278,396.4z"
			/>
	</g>
	<rect x="273.6" y="392.8" class="st16" width="8.5" height="4.1"/>
	<rect x="277.6" y="391.7" width="1" height="4.2"/>
	<rect x="277.6" y="391.7" class="st18" width="1" height="4.2"/>
</g>
<g>
	<g>
		<line class="st17" x1="328.5" y1="392.6" x2="328.5" y2="400.9"/>
	</g>
	<g>
		<path class="st16" d="M328.4,389.6c1.7,0,3,1.4,3,3c0,1.8-1.4,3.2-3,3.2c-1.8,0-3.2-1.4-3.2-3.2
			C325.3,391,326.7,389.6,328.4,389.6z"/>
		<path d="M328.4,388.9c2,0,3.7,1.7,3.7,3.7c0,2.2-1.7,3.8-3.7,3.8v-1.1c1.4,0,2.5-1.1,2.5-2.7c0-1.4-1.1-2.5-2.5-2.5V388.9
			L328.4,388.9z M328.4,396.4v-1.1c-1.5,0-2.7-1.1-2.7-2.7c0-1.4,1.1-2.5,2.7-2.5V389c-2.2,0-3.8,1.7-3.8,3.7
			C324.6,394.8,326.3,396.4,328.4,396.4z"/>
	</g>
	<rect x="324.1" y="392.8" class="st16" width="8.5" height="4.1"/>
	<rect x="328.1" y="391.7" width="1" height="4.2"/>
	<rect x="328.1" y="391.7" class="st18" width="1" height="4.2"/>
</g>
<g>
	<text transform="matrix(1 0 0 1 321.8879 406.4556)" class="st14 st33">CAN_L</text>
</g>
<g>
	<text transform="matrix(1 0 0 1 269.049 405.9763)" class="st14 st33">CAN_H</text>
</g>
<g>
	<text transform="matrix(1 0 0 1 57.7915 425.2913)" class="st14 st33">Power ground 1</text>
</g>
<g id="GB031_2_">
	<g>
		<g>
			<line class="st23" x1="112.9" y1="772.8" x2="112.9" y2="775.4"/>
		</g>
		<g>
			<line class="st23" x1="105.8" y1="775.4" x2="119.7" y2="775.4"/>
		</g>
		<g>
			<line class="st23" x1="108.6" y1="777.6" x2="116.9" y2="777.6"/>
		</g>
		<g>
			<line class="st23" x1="115.2" y1="779.7" x2="110.4" y2="779.7"/>
		</g>
	</g>
	<g>
		<rect x="102.5" y="782.2" class="st16" width="20.3" height="8.2"/>
		<rect x="102.8" y="782.6" class="st24" width="19.7" height="7.6"/>
	</g>
</g>
<line class="st7" x1="113" y1="436.2" x2="112.9" y2="774.5"/>
<g>
	<g>
		<line class="st17" x1="113" y1="435.3" x2="113" y2="427"/>
	</g>
	<g>
		<path class="st16" d="M113,438.3c-1.7,0-3-1.4-3-3c0-1.8,1.4-3.2,3-3.2c1.8,0,3.2,1.4,3.2,3.2C116.2,436.9,114.8,438.3,113,438.3z
			"/>
		<path d="M113,439c-2,0-3.7-1.6-3.7-3.7c0-2.2,1.7-3.8,3.7-3.8v1.1c-1.4,0-2.5,1.1-2.5,2.7c0,1.4,1.1,2.5,2.5,2.5V439L113,439z
			 M113,431.5v1.1c1.5,0,2.7,1.1,2.7,2.7c0,1.4-1.1,2.5-2.7,2.5v1.1c2.2,0,3.8-1.6,3.8-3.7C116.9,433.1,115.2,431.5,113,431.5z"/>
	</g>
	<rect x="108.9" y="431.1" class="st16" width="8.5" height="4.1"/>
	<rect x="112.4" y="432" width="1" height="4.2"/>
	<rect x="112.4" y="432" class="st18" width="1" height="4.2"/>
</g>
<rect x="109.7" y="466.3" class="st16" width="6.4" height="6"/>
<g>
	<text transform="matrix(1 0 0 1 105.3421 471.2327)" class="st14 st15">B 1.5</text>
</g>
<g>
	<text transform="matrix(1 0 0 1 106.9892 425.2913)" class="st14 st33">Power ground 2</text>
</g>
<g id="GB031_4_">
	<g>
		<g>
			<line class="st23" x1="165.6" y1="772.8" x2="165.6" y2="775.4"/>
		</g>
		<g>
			<line class="st23" x1="158.5" y1="775.4" x2="172.4" y2="775.4"/>
		</g>
		<g>
			<line class="st23" x1="161.4" y1="777.6" x2="169.6" y2="777.6"/>
		</g>
		<g>
			<line class="st23" x1="167.9" y1="779.7" x2="163.1" y2="779.7"/>
		</g>
	</g>
	<g>
		<rect x="155.2" y="782.2" class="st16" width="20.3" height="8.2"/>
		<rect x="155.5" y="782.6" class="st24" width="19.7" height="7.6"/>
	</g>
</g>
<line class="st7" x1="165.7" y1="436.2" x2="165.6" y2="774.5"/>
<g>
	<g>
		<line class="st17" x1="165.7" y1="435.3" x2="165.7" y2="427"/>
	</g>
	<g>
		<path class="st16" d="M165.8,438.3c-1.7,0-3-1.4-3-3c0-1.8,1.4-3.2,3-3.2c1.8,0,3.2,1.4,3.2,3.2
			C168.9,436.9,167.5,438.3,165.8,438.3z"/>
		<path d="M165.8,439c-2,0-3.7-1.6-3.7-3.7c0-2.2,1.7-3.8,3.7-3.8v1.1c-1.4,0-2.5,1.1-2.5,2.7c0,1.4,1.1,2.5,2.5,2.5V439L165.8,439z
			 M165.8,431.5v1.1c1.5,0,2.7,1.1,2.7,2.7c0,1.4-1.1,2.5-2.7,2.5v1.1c2.2,0,3.8-1.6,3.8-3.7S167.9,431.5,165.8,431.5z"/>
	</g>
	<rect x="161.6" y="431.1" class="st16" width="8.5" height="4.1"/>
	<rect x="165.1" y="432" width="1" height="4.2"/>
	<rect x="165.1" y="432" class="st18" width="1" height="4.2"/>
</g>
<rect x="162.4" y="466.3" class="st16" width="6.4" height="6"/>
<g>
	<text transform="matrix(1 0 0 1 158.0965 471.2327)" class="st14 st15">B 2.5</text>
</g>
<rect x="60.5" y="656.2" class="st16" width="6.4" height="6"/>
<g>
	<text transform="matrix(1 0 0 1 56.1439 661.0989)" class="st14 st15">B 1.5</text>
</g>
<rect x="109.7" y="656.2" class="st16" width="6.4" height="6"/>
<g>
	<text transform="matrix(1 0 0 1 105.3421 661.0989)" class="st14 st15">B 1.5</text>
</g>
<rect x="162.4" y="656.2" class="st16" width="6.4" height="6"/>
<g>
	<text transform="matrix(1 0 0 1 158.0965 661.0989)" class="st14 st15">B 2.5</text>
</g>
<g>
	<text transform="matrix(1 0 0 1 159.6965 425.2913)" class="st14 st33">Power ground 3</text>
</g>
<g>
	<text transform="matrix(1 0 0 1 62.1531 406.1797)" class="st14 st33">Constant power</text>
</g>
<g>
	<text transform="matrix(1 0 0 1 450.0558 406.267)" class="st14 st33">Sunroof opening signal</text>
</g>
<g>
	<text transform="matrix(1 0 0 1 510.889 406.2678)" class="st14 st33">Sunroof closing signal</text>
</g>
<g>
	<text transform="matrix(1 0 0 1 569.2223 406.2673)" class="st14 st33">Blinder opening signal</text>
</g>
<g>
	<text transform="matrix(1 0 0 1 628.5555 406.2677)" class="st14 st33">Blinder closing signal</text>
</g>
<rect x="198.2" y="696.2" class="st32" width="350.9" height="25.9"/>
<g>
	<text transform="matrix(1 0 0 1 207.1228 701.2896)" class="st14 st33">Hall Power supply</text>
</g>
<g>
	<text transform="matrix(1 0 0 1 385.002 701.2897)" class="st14 st33">HALL signal feedback A</text>
</g>
<rect x="575.5" y="696.2" class="st32" width="361.3" height="25.9"/>
<g>
	<text transform="matrix(1 0 0 1 770.2153 701.2897)" class="st14 st33">Blinder Hall Power supply</text>
</g>
<g>
	<text transform="matrix(1 0 0 1 584.7686 701.2897)" class="st14 st33">Hall power supply ground</text>
</g>
<g>
	<text transform="matrix(1 0 0 1 495.8686 701.2897)" class="st14 st33">Hall power supply ground</text>
</g>
<path class="st32" d="M743.3,172H437.2v-25.9h306.1c0,0-3.3,8.9,0,14.4S743.3,172,743.3,172z"/>
<g>
	<text transform="matrix(1 0 0 1 449.0558 170.2668)" class="st14 st33">Sunroof opening signal</text>
</g>
<g>
	<text transform="matrix(1 0 0 1 509.889 170.2668)" class="st14 st33">Sunroof closing signal</text>
</g>
<g>
	<text transform="matrix(1 0 0 1 569.2223 170.2672)" class="st14 st33">Blinder opening signal</text>
</g>
<g>
	<text transform="matrix(1 0 0 1 628.5555 170.2668)" class="st14 st33">Blinder closing signal</text>
</g>
<g>
	<text transform="matrix(1 0 0 1 696.493 170.2687)" class="st14 st33">GND</text>
</g>
<g>
	<text transform="matrix(1 0 0 1 257.7733 701.2896)" class="st14 st33">Sunroof close control power</text>
</g>
<g>
	<text transform="matrix(1 0 0 1 317.3983 701.2896)" class="st14 st33">Sunroof open control power</text>
</g>
<g>
	<text transform="matrix(1 0 0 1 258.7733 425.2913)" class="st14 st33">Sunroof close control power</text>
</g>
<g>
	<text transform="matrix(1 0 0 1 317.3983 425.2913)" class="st14 st33">Sunroof open control power</text>
</g>
<g>
	<text transform="matrix(1 0 0 1 891.9778 701.2905)" class="st34"><tspan x="0" y="0" class="st14 st33">Blinder closing </tspan><tspan x="0" y="4.8" class="st14 st33">control power supply</tspan></text>
</g>
<g>
	<text transform="matrix(1 0 0 1 646.8846 701.2897)" class="st34"><tspan x="0" y="0" class="st14 st33">Hall feedback signal </tspan><tspan x="0" y="4.8" class="st14 st33">of blinder motor 2</tspan></text>
</g>
<g>
	<text transform="matrix(1 0 0 1 709.5096 701.2898)" class="st34"><tspan x="0" y="0" class="st14 st33">Hall feedback signal of</tspan><tspan x="0" y="4.8" class="st14 st33"> blinder motor 1</tspan></text>
</g>
<g>
	<text transform="matrix(1 0 0 1 835.811 701.2905)" class="st34"><tspan x="0" y="0" class="st14 st33">Blinder opening </tspan><tspan x="0" y="4.8" class="st14 st33">control power supply</tspan></text>
</g>
<g>
	<text transform="matrix(1 0 0 1 58.9514 788.586)" class="st35 st14 st15">Eb04</text>
</g>
<g>
	<text transform="matrix(1 0 0 1 72.9021 158.082)" class="st35 st14 st15">F4/05</text>
</g>
<g>
	<text transform="matrix(1 0 0 1 98.1504 156.1176)" class="st35 st14 st15">Positive fuse box</text>
</g>
<g>
	<text transform="matrix(1 0 0 1 108.1492 788.586)" class="st35 st14 st15">Eb08</text>
</g>
<g>
	<text transform="matrix(1 0 0 1 160.8564 788.586)" class="st35 st14 st15">Ek11</text>
</g>
<g>
	<text transform="matrix(1 0 0 1 525.8979 435.2949)" class="st35 st14 st15">PG86(C)</text>
</g>
<g>
	<text transform="matrix(1 0 0 1 551.1479 435.2949)" class="st35 st14 st15">-30</text>
</g>
<g>
	<text transform="matrix(1 0 0 1 527.3442 693.5557)" class="st35 st14 st15">P05(A)</text>
</g>
<g>
	<text transform="matrix(1 0 0 1 547.2192 693.5557)" class="st35 st14 st15">-3</text>
</g>
<g>
	<text transform="matrix(1 0 0 1 342.1333 435.2949)" class="st35 st14 st15">PG86(C)</text>
</g>
<g>
	<text transform="matrix(1 0 0 1 367.3833 435.2949)" class="st35 st14 st15">-13</text>
</g>
<g>
	<text transform="matrix(1 0 0 1 343.5791 693.5557)" class="st35 st14 st15">P05(A)</text>
</g>
<g>
	<text transform="matrix(1 0 0 1 363.4541 693.5557)" class="st35 st14 st15">-6</text>
</g>
<g>
	<text transform="matrix(1 0 0 1 281.3955 435.2949)" class="st35 st14 st15">PG86(C)</text>
</g>
<g>
	<text transform="matrix(1 0 0 1 306.6455 435.2949)" class="st35 st14 st15">-1</text>
</g>
<g>
	<text transform="matrix(1 0 0 1 282.8418 693.5557)" class="st35 st14 st15">P05(A)</text>
</g>
<g>
	<text transform="matrix(1 0 0 1 302.7168 693.5557)" class="st35 st14 st15">-5</text>
</g>
<g>
	<text transform="matrix(1 0 0 1 464.7339 435.2949)" class="st35 st14 st15">PG86(C)</text>
</g>
<g>
	<text transform="matrix(1 0 0 1 489.9839 435.2949)" class="st35 st14 st15">-9</text>
</g>
<g>
	<text transform="matrix(1 0 0 1 466.1801 693.5557)" class="st35 st14 st15">P05(A)</text>
</g>
<g>
	<text transform="matrix(1 0 0 1 486.0551 693.5557)" class="st35 st14 st15">-2</text>
</g>
<g>
	<text transform="matrix(1 0 0 1 403.9966 435.2949)" class="st35 st14 st15">PG86(C)</text>
</g>
<g>
	<text transform="matrix(1 0 0 1 429.2466 435.2949)" class="st35 st14 st15">-8</text>
</g>
<g>
	<text transform="matrix(1 0 0 1 405.4424 693.5557)" class="st35 st14 st15">P05(A)</text>
</g>
<g>
	<text transform="matrix(1 0 0 1 425.3174 693.5557)" class="st35 st14 st15">-4</text>
</g>
<g>
	<text transform="matrix(1 0 0 1 222.2109 434.8046)" class="st35 st14 st15">PG86(C)</text>
</g>
<g>
	<text transform="matrix(1 0 0 1 247.6636 434.8046)" class="st35 st14 st15">-3</text>
</g>
<g>
	<text transform="matrix(1 0 0 1 223.6567 693.5557)" class="st35 st14 st15">P05(A)</text>
</g>
<g>
	<text transform="matrix(1 0 0 1 243.5317 693.5557)" class="st35 st14 st15">-1</text>
</g>
<g>
	<text transform="matrix(1 0 0 1 174.4072 398.0078)" class="st35 st14 st15">KG86(E)</text>
</g>
<g>
	<text transform="matrix(1 0 0 1 199.8237 398.0078)" class="st35 st14 st15">-3</text>
</g>
<g>
	<text transform="matrix(1 0 0 1 226.0757 398.0078)" class="st35 st14 st15">KG86(E)</text>
</g>
<g>
	<text transform="matrix(1 0 0 1 250.9922 398.0078)" class="st35 st14 st15">-4</text>
</g>
<g>
	<text transform="matrix(1 0 0 1 71.0508 434.8046)" class="st35 st14 st15">BG86(B)</text>
</g>
<g>
	<text transform="matrix(1 0 0 1 96.5034 434.8046)" class="st35 st14 st15">-1</text>
</g>
<g>
	<text transform="matrix(1 0 0 1 72.5215 197.3398)" class="st35 st14 st15">B46_5</text>
</g>
<g>
	<text transform="matrix(1 0 0 1 91.855 197.3398)" class="st35 st14 st15">-3</text>
</g>
<g>
	<text transform="matrix(1 0 0 1 73.8642 398.2704)" class="st35 st14 st15">BG86(A)</text>
</g>
<g>
	<text transform="matrix(1 0 0 1 98.9267 398.2704)" class="st35 st14 st15">-1</text>
</g>
<g>
	<text transform="matrix(1 0 0 1 709.1392 180.2714)" class="st35 st14 st15">P01</text>
</g>
<g>
	<text transform="matrix(1 0 0 1 720.0557 180.2714)" class="st35 st14 st15">-1</text>
</g>
<g>
	<text transform="matrix(1 0 0 1 648.4014 180.2714)" class="st35 st14 st15">P01</text>
</g>
<g>
	<text transform="matrix(1 0 0 1 659.3179 180.2714)" class="st35 st14 st15">-19</text>
</g>
<g>
	<text transform="matrix(1 0 0 1 649.8477 398.5322)" class="st35 st14 st15">PG86(C)</text>
</g>
<g>
	<text transform="matrix(1 0 0 1 675.3477 398.5322)" class="st35 st14 st15">-18</text>
</g>
<g>
	<text transform="matrix(1 0 0 1 587.6641 180.2714)" class="st35 st14 st15">P01</text>
</g>
<g>
	<text transform="matrix(1 0 0 1 598.5806 180.2714)" class="st35 st14 st15">-18</text>
</g>
<g>
	<text transform="matrix(1 0 0 1 589.1104 398.5322)" class="st35 st14 st15">PG86(C)</text>
</g>
<g>
	<text transform="matrix(1 0 0 1 614.6104 398.5322)" class="st35 st14 st15">-19</text>
</g>
<g>
	<text transform="matrix(1 0 0 1 527.9268 180.2714)" class="st35 st14 st15">P01</text>
</g>
<g>
	<text transform="matrix(1 0 0 1 538.8433 180.2714)" class="st35 st14 st15">-17</text>
</g>
<g>
	<text transform="matrix(1 0 0 1 528.3726 398.5322)" class="st35 st14 st15">PG86(C)</text>
</g>
<g>
	<text transform="matrix(1 0 0 1 553.8726 398.5322)" class="st35 st14 st15">-20</text>
</g>
<g>
	<text transform="matrix(1 0 0 1 467.1889 180.2714)" class="st35 st14 st15">P01</text>
</g>
<g>
	<text transform="matrix(1 0 0 1 478.1054 180.2714)" class="st35 st14 st15">-16</text>
</g>
<g>
	<text transform="matrix(1 0 0 1 467.6352 398.5322)" class="st35 st14 st15">PG86(C)</text>
</g>
<g>
	<text transform="matrix(1 0 0 1 493.1352 398.5322)" class="st35 st14 st15">-21</text>
</g>
<g>
	<text transform="matrix(1 0 0 1 697.0098 354.4189)" class="st35 st14 st15">Ep01</text>
</g>
<g>
	<text transform="matrix(1 0 0 1 913.5859 435.2949)" class="st35 st14 st15">PG86(C)</text>
</g>
<g>
	<text transform="matrix(1 0 0 1 939.4712 435.2949)" class="st35 st14 st15">-12</text>
</g>
<g>
	<text transform="matrix(1 0 0 1 915.0322 693.5557)" class="st35 st14 st15">P05(B)</text>
</g>
<g>
	<text transform="matrix(1 0 0 1 935.2568 693.5557)" class="st35 st14 st15">-6</text>
</g>
<g>
	<text transform="matrix(1 0 0 1 852.8486 435.2949)" class="st35 st14 st15">PG86(C)</text>
</g>
<g>
	<text transform="matrix(1 0 0 1 878.7339 435.2949)" class="st35 st14 st15">-24</text>
</g>
<g>
	<text transform="matrix(1 0 0 1 854.2944 693.5557)" class="st35 st14 st15">P05(B)</text>
</g>
<g>
	<text transform="matrix(1 0 0 1 874.519 693.5557)" class="st35 st14 st15">-5</text>
</g>
<g>
	<text transform="matrix(1 0 0 1 726.1045 435.2949)" class="st35 st14 st15">PG86(C)</text>
</g>
<g>
	<text transform="matrix(1 0 0 1 751.9897 435.2949)" class="st35 st14 st15">-10</text>
</g>
<g>
	<text transform="matrix(1 0 0 1 727.5508 693.5557)" class="st35 st14 st15">P05(B)</text>
</g>
<g>
	<text transform="matrix(1 0 0 1 747.7754 693.5557)" class="st35 st14 st15">-2</text>
</g>
<g>
	<text transform="matrix(1 0 0 1 665.3672 435.2949)" class="st35 st14 st15">PG86(C)</text>
</g>
<g>
	<text transform="matrix(1 0 0 1 691.2524 435.2949)" class="st35 st14 st15">-11</text>
</g>
<g>
	<text transform="matrix(1 0 0 1 666.813 693.5557)" class="st35 st14 st15">P05(B)</text>
</g>
<g>
	<text transform="matrix(1 0 0 1 687.0376 693.5557)" class="st35 st14 st15">-4</text>
</g>
<g>
	<text transform="matrix(1 0 0 1 788.957 435.2949)" class="st35 st14 st15">PG86(C)</text>
</g>
<g>
	<text transform="matrix(1 0 0 1 814.8423 435.2949)" class="st35 st14 st15">-4</text>
</g>
<g>
	<text transform="matrix(1 0 0 1 790.4033 693.5557)" class="st35 st14 st15">P05(B)</text>
</g>
<g>
	<text transform="matrix(1 0 0 1 810.6279 693.5557)" class="st35 st14 st15">-1</text>
</g>
<g>
	<text transform="matrix(1 0 0 1 611.3447 693.5557)" class="st35 st14 st15">P05(B)</text>
</g>
<g>
	<text transform="matrix(1 0 0 1 631.5693 693.5557)" class="st35 st14 st15">-3</text>
</g>
<g>
	<text transform="matrix(1 0 0 1 477.081 413.5292)" class="st35 st14 st15">Right domain control module</text>
</g>
<g>
	<text transform="matrix(1 0 0 1 286.3261 398.0078)" class="st35 st14 st15">BG86(B)</text>
</g>
<g>
	<text transform="matrix(1 0 0 1 311.5761 398.0078)" class="st35 st14 st15">-7</text>
</g>
<g>
	<text transform="matrix(1 0 0 1 337.9951 398.0078)" class="st35 st14 st15">BG86(B)</text>
</g>
<g>
	<text transform="matrix(1 0 0 1 363.2451 398.0078)" class="st35 st14 st15">-8</text>
</g>
<g>
	<text transform="matrix(1 0 0 1 120.249 434.8046)" class="st35 st14 st15">BG86(B)</text>
</g>
<g>
	<text transform="matrix(1 0 0 1 145.7016 434.8046)" class="st35 st14 st15">-43</text>
</g>
<g>
	<text transform="matrix(1 0 0 1 172.956 434.8046)" class="st35 st14 st15">KG86(D)</text>
</g>
<g>
	<text transform="matrix(1 0 0 1 198.4087 434.8046)" class="st35 st14 st15">-1</text>
</g>
<g>
	<text transform="matrix(1 0 0 1 364.6513 710.9423)" class="st35 st14 st15">Sunroof motor</text>
</g>
<g>
	<text transform="matrix(1 0 0 1 744.1221 710.9423)" class="st35 st14 st15">Blinder motor</text>
</g>
<g>
	<text transform="matrix(1 0 0 1 523.6102 159.0502)" class="st35 st14 st15">Front roof light (sunroof &amp; sunshade switch)</text>
</g>
<g>
	<text transform="matrix(1 0 0 1 441.2964 701.8836)" class="st34"><tspan x="0" y="0" class="st14 st33">Sunroof motor Hall </tspan><tspan x="0" y="4.8" class="st14 st33">signal feedback B</tspan></text>
</g>
</svg>
