<?xml version="1.0" encoding="utf-8"?>
<!-- Generator: Adobe Illustrator 24.0.1, SVG Export Plug-In . SVG Version: 6.00 Build 0)  -->
<svg version="1.1" id="图层_1" xmlns="http://www.w3.org/2000/svg" xmlns:xlink="http://www.w3.org/1999/xlink" x="0px" y="0px"
	 viewBox="0 0 1067.9 841.9" style="enable-background:new 0 0 1067.9 841.9;" xml:space="preserve">
<style type="text/css">
	.st0{fill:#040000;stroke:#FFFFFF;stroke-width:0.5;}
	.st1{fill:none;stroke:#000000;stroke-width:3;stroke-miterlimit:10;}
	.st2{fill:none;stroke:#FFF100;stroke-width:3;stroke-miterlimit:10;}
	.st3{fill:#9FD9F6;stroke:#000000;stroke-width:0.5;stroke-linecap:round;stroke-miterlimit:10;}
	.st4{fill:none;stroke:#005EAD;stroke-width:3;stroke-miterlimit:10;}
	.st5{fill:none;stroke:#FFFFFF;stroke-miterlimit:10;}
	.st6{fill:#DCDDDD;stroke:#000000;stroke-width:0.5;stroke-linecap:round;stroke-miterlimit:10;}
	.st7{fill:#DCDDDD;}
	.st8{fill:none;stroke:#000000;stroke-width:0.5;}
	.st9{fill:none;stroke:#000000;}
	.st10{fill:#040000;}
	.st11{font-family:'FZLTHJW--GB1-0';}
	.st12{font-size:6px;}
	.st13{fill:#9DD2EE;stroke:#000000;stroke-width:0.5;stroke-linecap:round;stroke-miterlimit:10;}
	.st14{font-size:4px;}
	.st15{fill:none;stroke:#000000;stroke-width:0.5;stroke-linecap:round;stroke-miterlimit:10;}
	.st16{fill:#9FD9F6;}
	.st17{fill:none;stroke:#E60012;stroke-width:3;stroke-miterlimit:10;}
	.st18{fill:none;stroke:#FFF100;stroke-miterlimit:10;}
	.st19{fill:none;stroke:#221714;stroke-miterlimit:10;}
	.st20{fill:none;stroke:#221714;stroke-width:0.5;stroke-miterlimit:10;}
	.st21{fill:none;stroke:#005EAD;stroke-miterlimit:10;}
	.st22{fill:none;stroke:#009944;stroke-width:3;}
	.st23{fill:none;stroke:#0459A1;stroke-width:3;}
	.st24{fill:none;stroke:#D71618;}
	.st25{fill:none;stroke:#000000;stroke-width:3;}
	.st26{fill:none;stroke:#060001;stroke-width:0.75;}
	.st27{fill:none;stroke:#000000;stroke-width:0.6;stroke-linejoin:round;}
	.st28{fill:#FFFFFF;}
	.st29{fill:none;stroke:#000000;stroke-width:0.72;stroke-linecap:round;stroke-linejoin:round;}
	.st30{fill:none;stroke:#E99893;stroke-width:3;stroke-miterlimit:10;}
	.st31{fill:none;stroke:#824188;stroke-width:3;stroke-miterlimit:10;}
	.st32{fill:none;stroke:#000000;stroke-width:0.5;stroke-linecap:round;stroke-linejoin:round;}
	.st33{fill:none;stroke:#000000;stroke-width:0.5;stroke-miterlimit:10;}
	.st34{fill:none;stroke:#000000;stroke-width:1.3;}
	.st35{fill:#FFFFFF;stroke:#000000;stroke-width:0.25;stroke-linecap:round;stroke-linejoin:round;}
	.st36{fill:none;stroke:#009944;stroke-width:3;stroke-miterlimit:10;}
	.st37{fill:#FFFFFF;stroke:#000000;stroke-width:0.25;}
	.st38{fill:#040000;stroke:#FFFFFF;stroke-width:0.5;stroke-linecap:round;}
	.st39{fill:none;stroke:#FFFFFF;stroke-width:1.0001;}
	.st40{enable-background:new    ;}
	.st41{fill:none;stroke:#E60012;stroke-width:3;stroke-linecap:round;}
	.st42{fill:none;stroke:#000000;stroke-width:0.6;stroke-linecap:round;stroke-linejoin:round;}
	.st43{stroke:#FFFFFF;stroke-width:0.5;stroke-linecap:round;}
	.st44{stroke:#FFFFFF;stroke-width:0.5;}
	.st45{fill:none;stroke:#000000;stroke-width:0.6001;stroke-linecap:round;stroke-linejoin:round;}
	.st46{fill:none;stroke:#000000;stroke-width:0.6001;stroke-linecap:round;}
	.st47{fill:none;stroke:#000000;stroke-width:3;stroke-linecap:round;stroke-miterlimit:10;}
	.st48{fill:#005EAD;}
	.st49{font-size:8px;}
</style>
<symbol  id="交点" viewBox="-3.1 -3.1 6.2 6.1">
	<path class="st0" d="M2.8,0.1c0-1.7-1.3-2.9-2.8-2.9c-1.6,0-2.9,1.2-2.9,2.9c0,1.5,1.3,2.7,2.9,2.7S2.8,1.6,2.8,0.1z"/>
</symbol>
<line class="st1" x1="781.9" y1="589.3" x2="781.9" y2="644.3"/>
<polyline class="st2" points="200.6,493.7 200.6,570.6 259.2,570.6 259.2,493.2 "/>
<g>
	<path class="st3" d="M819.3,577.9h-66.7v-21.7h66.7c0,0-3.2,7.7,1.1,11.5C824.6,571.4,819.3,577.9,819.3,577.9z"/>
</g>
<line class="st4" x1="626.5" y1="237.9" x2="626.5" y2="308.9"/>
<line class="st5" x1="626.5" y1="237.9" x2="626.5" y2="308.9"/>
<g id="REB_x2C_A3_1_">
	<rect x="754.9" y="144.9" class="st6" width="61.9" height="51.3"/>
</g>
<g id="REB_x2C_A3_2_">
	<rect x="172.9" y="144.9" class="st6" width="126.6" height="51.3"/>
</g>
<polyline class="st7" points="42.9,55.5 1030.4,55.5 1030.4,101.7 42.9,101.7 "/>
<line class="st8" x1="42.9" y1="61.2" x2="1030.4" y2="61.2"/>
<line class="st9" x1="42.9" y1="55.2" x2="1030.4" y2="55.2"/>
<line class="st8" x1="42.9" y1="72.5" x2="1030.4" y2="72.5"/>
<line class="st8" x1="42.9" y1="84.2" x2="1030.4" y2="84.2"/>
<line class="st8" x1="42.9" y1="95.9" x2="1030.4" y2="95.9"/>
<line class="st9" x1="42.9" y1="101.7" x2="1030.4" y2="101.7"/>
<text transform="matrix(1 0 0 1 32.4908 63.3242)" class="st10 st11 st12">30</text>
<text transform="matrix(1 0 0 1 29.3267 74.4902)" class="st10 st11 st12">IG1</text>
<text transform="matrix(1 0 0 1 29.3267 86.1152)" class="st10 st11 st12">IG3</text>
<text transform="matrix(1 0 0 1 25.8347 97.6152)" class="st10 st11 st12">ACC</text>
<text transform="matrix(1 0 0 1 1034.8195 63.2422)" class="st10 st11 st12">30</text>
<text transform="matrix(1 0 0 1 1034.8195 74.4082)" class="st10 st11 st12">IG1</text>
<text transform="matrix(1 0 0 1 1034.8195 86.0332)" class="st10 st11 st12">IG3</text>
<text transform="matrix(1 0 0 1 1034.8195 97.5371)" class="st10 st11 st12">ACC</text>
<path class="st8" d="M42.9,72.9"/>
<path class="st8" d="M1025.4,72.9"/>
<g>
	<path class="st3" d="M734.2,482.4h-490v-25.9h490c0,0-2.7,9.2,0.9,13.7S734.2,482.4,734.2,482.4z"/>
</g>
<g>
	<path class="st13" d="M1014.2,482.4H761.7v-25.9h252.4c0,0-2.7,9.2,0.9,13.7S1014.2,482.4,1014.2,482.4z"/>
</g>
<g>
	<rect x="516" y="569.7" class="st3" width="34.1" height="35.7"/>
	<rect x="516" y="569.7" class="st3" width="34.1" height="35.7"/>
</g>
<rect x="521.3" y="572.7" class="st3" width="22.9" height="29.7"/>
<line class="st8" x1="532.9" y1="605.5" x2="532.9" y2="595.7"/>
<polyline class="st8" points="532.8,579.7 529.9,593.3 532.6,593.3 "/>
<path class="st7" d="M532.8,578.1c-0.8,0-1.5,0.7-1.5,1.6c0,1,0.6,1.7,1.5,1.7c0.8,0,1.4-0.7,1.4-1.7
	C534.2,578.8,533.6,578.1,532.8,578.1"/>
<path class="st8" d="M532.8,578.1c-0.8,0-1.5,0.7-1.5,1.6c0,1,0.6,1.7,1.5,1.7c0.8,0,1.4-0.7,1.4-1.7
	C534.2,578.8,533.6,578.1,532.8,578.1"/>
<path class="st7" d="M532.8,592.9c-0.7,0-1.2,0.6-1.2,1.4s0.5,1.5,1.2,1.5s1.2-0.6,1.2-1.5C534,593.5,533.5,592.9,532.8,592.9"/>
<path class="st8" d="M532.8,592.9c-0.7,0-1.2,0.6-1.2,1.4s0.5,1.5,1.2,1.5s1.2-0.6,1.2-1.5C534,593.5,533.5,592.9,532.8,592.9"/>
<line class="st8" x1="532.9" y1="578.1" x2="532.9" y2="569.7"/>
<polyline class="st8" points="528.2,591.1 527.2,591.1 527.2,586.8 528.2,586.8 "/>
<line class="st8" x1="527.3" y1="588.9" x2="530.9" y2="588.9"/>
<text transform="matrix(1 0 0 1 536.2148 578.4855)" class="st10 st11 st14">+</text>
<text transform="matrix(1 0 0 1 535.397 599.8362)" class="st10 st11 st14">-</text>
<g>
	<rect x="764.7" y="655.6" class="st3" width="34.1" height="35.7"/>
	<rect x="764.7" y="655.6" class="st3" width="34.1" height="35.7"/>
</g>
<rect x="770" y="658.6" class="st3" width="22.9" height="29.7"/>
<line class="st8" x1="781.6" y1="691.4" x2="781.6" y2="681.6"/>
<polyline class="st8" points="781.5,665.6 778.6,679.2 781.3,679.2 "/>
<path class="st7" d="M781.5,664c-0.8,0-1.5,0.7-1.5,1.6c0,1,0.6,1.7,1.5,1.7c0.8,0,1.4-0.7,1.4-1.7C782.9,664.7,782.3,664,781.5,664
	"/>
<path class="st8" d="M781.5,664c-0.8,0-1.5,0.7-1.5,1.6c0,1,0.6,1.7,1.5,1.7c0.8,0,1.4-0.7,1.4-1.7C782.9,664.7,782.3,664,781.5,664
	"/>
<path class="st7" d="M781.5,678.8c-0.7,0-1.2,0.6-1.2,1.4s0.5,1.5,1.2,1.5s1.2-0.6,1.2-1.5C782.7,679.4,782.2,678.8,781.5,678.8"/>
<path class="st8" d="M781.5,678.8c-0.7,0-1.2,0.6-1.2,1.4s0.5,1.5,1.2,1.5s1.2-0.6,1.2-1.5C782.7,679.4,782.2,678.8,781.5,678.8"/>
<polyline class="st8" points="776.9,677 775.9,677 775.9,672.7 776.9,672.7 "/>
<line class="st8" x1="776" y1="674.8" x2="779.6" y2="674.8"/>
<text transform="matrix(1 0 0 1 784.0548 685.7126)" class="st10 st11 st14">-</text>
<g>
	<rect x="433.1" y="200.9" class="st3" width="301" height="26"/>
	<rect x="433.1" y="200.9" class="st3" width="301" height="26"/>
</g>
<g>
	<g>
		<rect x="431.3" y="320.1" class="st3" width="36.3" height="35.7"/>
		<rect x="431.3" y="320.1" class="st3" width="36.3" height="35.7"/>
	</g>
	<g>
		<g>
			<line class="st15" x1="449.3" y1="356" x2="449.3" y2="346.3"/>
			<polyline class="st3" points="449.3,330.3 446.4,343.9 449.1,343.9 			"/>
			<path class="st3" d="M449.3,328.7c-0.8,0-1.5,0.7-1.5,1.6c0,1,0.6,1.7,1.5,1.7c0.8,0,1.4-0.7,1.4-1.7
				C450.7,329.4,450.1,328.7,449.3,328.7"/>
			<path class="st3" d="M449.3,328.7c-0.8,0-1.5,0.7-1.5,1.6c0,1,0.6,1.7,1.5,1.7c0.8,0,1.4-0.7,1.4-1.7
				C450.7,329.4,450.1,328.7,449.3,328.7"/>
			<path class="st3" d="M449.3,343.5c-0.7,0-1.2,0.6-1.2,1.4s0.5,1.5,1.2,1.5s1.2-0.6,1.2-1.5C450.5,344.1,449.9,343.5,449.3,343.5"
				/>
			<path class="st3" d="M449.3,343.5c-0.7,0-1.2,0.6-1.2,1.4s0.5,1.5,1.2,1.5s1.2-0.6,1.2-1.5C450.5,344.1,449.9,343.5,449.3,343.5"
				/>
			<line class="st15" x1="449.4" y1="328.7" x2="449.4" y2="320.3"/>
			<polyline class="st3" points="444.7,341.7 443.7,341.7 443.7,337.4 444.7,337.4 			"/>
			<line class="st15" x1="443.8" y1="339.5" x2="447.3" y2="339.5"/>
			<text transform="matrix(1 0 0 1 452.5889 329.0248)" class="st16 st11 st14">+</text>
			<text transform="matrix(1 0 0 1 452.5889 329.0248)" class="st15 st11 st14">+</text>
			<text transform="matrix(1 0 0 1 451.7709 350.3752)" class="st16 st11 st14">-</text>
			<text transform="matrix(1 0 0 1 451.7709 350.3752)" class="st15 st11 st14">-</text>
		</g>
		<g>
			<line class="st15" x1="449.3" y1="356" x2="449.3" y2="346.3"/>
			<polyline class="st3" points="449.3,330.3 446.4,343.9 449.1,343.9 			"/>
			<path class="st3" d="M449.3,328.7c-0.8,0-1.5,0.7-1.5,1.6c0,1,0.6,1.7,1.5,1.7c0.8,0,1.4-0.7,1.4-1.7
				C450.7,329.4,450.1,328.7,449.3,328.7"/>
			<path class="st3" d="M449.3,328.7c-0.8,0-1.5,0.7-1.5,1.6c0,1,0.6,1.7,1.5,1.7c0.8,0,1.4-0.7,1.4-1.7
				C450.7,329.4,450.1,328.7,449.3,328.7"/>
			<path class="st3" d="M449.3,343.5c-0.7,0-1.2,0.6-1.2,1.4s0.5,1.5,1.2,1.5s1.2-0.6,1.2-1.5C450.5,344.1,449.9,343.5,449.3,343.5"
				/>
			<path class="st3" d="M449.3,343.5c-0.7,0-1.2,0.6-1.2,1.4s0.5,1.5,1.2,1.5s1.2-0.6,1.2-1.5C450.5,344.1,449.9,343.5,449.3,343.5"
				/>
			<line class="st15" x1="449.4" y1="328.7" x2="449.4" y2="320.3"/>
			<polyline class="st3" points="444.7,341.7 443.7,341.7 443.7,337.4 444.7,337.4 			"/>
			<line class="st15" x1="443.8" y1="339.5" x2="447.3" y2="339.5"/>
			<text transform="matrix(1 0 0 1 452.5889 329.0248)" class="st16 st11 st14">+</text>
			<text transform="matrix(1 0 0 1 452.5889 329.0248)" class="st15 st11 st14">+</text>
			<text transform="matrix(1 0 0 1 451.7709 350.3752)" class="st16 st11 st14">-</text>
			<text transform="matrix(1 0 0 1 451.7709 350.3752)" class="st15 st11 st14">-</text>
		</g>
	</g>
</g>
<g>
	<rect x="530.1" y="320.3" class="st3" width="146.1" height="35.7"/>
	<rect x="530.1" y="320.3" class="st3" width="146.1" height="35.7"/>
</g>
<rect x="545.3" y="323.3" class="st3" width="23.1" height="29.7"/>
<line class="st8" x1="557" y1="356" x2="557" y2="346.3"/>
<polyline class="st8" points="556.9,330.3 554,343.9 556.7,343.9 "/>
<path class="st7" d="M556.9,328.7c-0.8,0-1.5,0.7-1.5,1.6c0,1,0.6,1.7,1.5,1.7c0.8,0,1.4-0.7,1.4-1.7
	C558.3,329.4,557.7,328.7,556.9,328.7"/>
<path class="st8" d="M556.9,328.7c-0.8,0-1.5,0.7-1.5,1.6c0,1,0.6,1.7,1.5,1.7c0.8,0,1.4-0.7,1.4-1.7
	C558.3,329.4,557.7,328.7,556.9,328.7"/>
<path class="st7" d="M556.9,343.5c-0.7,0-1.2,0.6-1.2,1.4s0.5,1.5,1.2,1.5s1.2-0.6,1.2-1.5C558.1,344.1,557.6,343.5,556.9,343.5"/>
<path class="st8" d="M556.9,343.5c-0.7,0-1.2,0.6-1.2,1.4s0.5,1.5,1.2,1.5s1.2-0.6,1.2-1.5C558.1,344.1,557.6,343.5,556.9,343.5"/>
<line class="st8" x1="557" y1="328.7" x2="557" y2="320.3"/>
<polyline class="st8" points="552.3,341.7 551.3,341.7 551.3,337.4 552.3,337.4 "/>
<line class="st8" x1="551.4" y1="339.5" x2="555" y2="339.5"/>
<text transform="matrix(1 0 0 1 560.1871 329.0248)" class="st10 st11 st14">+</text>
<text transform="matrix(1 0 0 1 559.3691 350.3752)" class="st10 st11 st14">-</text>
<rect x="615.7" y="323.3" class="st3" width="22.9" height="29.7"/>
<rect x="615.7" y="323.3" class="st8" width="22.9" height="29.7"/>
<line class="st8" x1="627.2" y1="356" x2="627.2" y2="346.3"/>
<polyline class="st8" points="627.2,330.3 624.3,343.9 626.9,343.9 "/>
<path class="st7" d="M627.2,328.7c-0.8,0-1.5,0.7-1.5,1.6c0,1,0.6,1.7,1.5,1.7c0.8,0,1.4-0.7,1.4-1.7
	C628.6,329.4,627.9,328.7,627.2,328.7"/>
<path class="st8" d="M627.2,328.7c-0.8,0-1.5,0.7-1.5,1.6c0,1,0.6,1.7,1.5,1.7c0.8,0,1.4-0.7,1.4-1.7
	C628.6,329.4,627.9,328.7,627.2,328.7"/>
<path class="st7" d="M627.2,343.5c-0.7,0-1.2,0.6-1.2,1.4s0.5,1.5,1.2,1.5s1.2-0.6,1.2-1.5C628.4,344.1,627.8,343.5,627.2,343.5"/>
<path class="st8" d="M627.2,343.5c-0.7,0-1.2,0.6-1.2,1.4s0.5,1.5,1.2,1.5s1.2-0.6,1.2-1.5C628.4,344.1,627.8,343.5,627.2,343.5"/>
<line class="st8" x1="627.2" y1="328.7" x2="627.2" y2="320.3"/>
<polyline class="st8" points="622.5,341.7 621.5,341.7 621.5,337.4 622.5,337.4 "/>
<line class="st8" x1="621.6" y1="339.5" x2="625.2" y2="339.5"/>
<text transform="matrix(1 0 0 1 630.4371 329.0248)" class="st10 st11 st14">+</text>
<text transform="matrix(1 0 0 1 629.6193 350.3752)" class="st10 st11 st14">-</text>
<line class="st17" x1="260.9" y1="207.5" x2="260.9" y2="445.2"/>
<line class="st18" x1="260.9" y1="207.5" x2="260.9" y2="445.2"/>
<line class="st19" x1="449.4" y1="366.8" x2="449.4" y2="445.4"/>
<g>
	<rect x="448" y="367.2" class="st20" width="3" height="77.7"/>
</g>
<line class="st21" x1="557" y1="367.2" x2="557" y2="445.3"/>
<g>
	<rect x="555.5" y="367.2" class="st20" width="3" height="77.6"/>
</g>
<line class="st2" x1="626.9" y1="367.2" x2="626.9" y2="445.2"/>
<line class="st21" x1="626.9" y1="367.2" x2="626.9" y2="445.2"/>
<line class="st22" x1="556.7" y1="237.9" x2="556.7" y2="309.1"/>
<line class="st23" x1="449.1" y1="237.9" x2="449.1" y2="309.1"/>
<line class="st24" x1="449.1" y1="237.9" x2="449.1" y2="309.1"/>
<g>
	<rect x="531.2" y="493.8" class="st20" width="3" height="64.5"/>
</g>
<line class="st1" x1="709.9" y1="237.9" x2="709.9" y2="407.6"/>
<line class="st25" x1="532.7" y1="616.8" x2="532.7" y2="770.9"/>
<g id="RF22_x2C_A3_6_">
	<g>
		<g>
			<path class="st26" d="M260.8,176.3c-1.2,0-2.2,1-2.2,2.2s1,2.2,2.2,2.2s2.2-1,2.2-2.2S262,176.3,260.8,176.3"/>
		</g>
		<g>
			<path class="st26" d="M260.8,160.4c-1.2,0-2.2,1-2.2,2.1c0,1.2,1,2.2,2.2,2.2s2.2-0.9,2.2-2.2C263,161.4,262,160.4,260.8,160.4"
				/>
		</g>
		<g>
			<path class="st26" d="M259.3,164.2c-0.1,2.5,0.2,3.2,1.3,4.3c1.2,1.2,2.4,1.7,2.8,3.7c0.4,1.6-0.1,3.5-1.1,4.5"/>
		</g>
		<g>
			<path class="st26" d="M262.2,176.8c0.2-0.8,0-2.9-0.6-3.7c-0.9-1.2-2.7-2.1-3.3-4c-0.9-2.8,0.7-4.6,1.1-5"/>
		</g>
	</g>
</g>
<g>
	<g>
		<polyline class="st27" points="260.8,160 260.8,156.8 260.8,84.2 		"/>
	</g>
</g>
<g>
	<g>
		<polyline class="st27" points="260.8,180.8 260.8,183.7 260.8,196 		"/>
	</g>
</g>
<g id="_x30_2-上针脚_27_">
	<line class="st27" x1="260.9" y1="204.4" x2="260.9" y2="196.2"/>
	<path class="st28" d="M260.8,207.5c-1.7,0-3-1.4-3-3c0-1.8,1.4-3.2,3-3.2c1.8,0,3.2,1.4,3.2,3.2C264,206.1,262.6,207.5,260.8,207.5
		"/>
	<path d="M260.8,208.1c-2,0-3.7-1.6-3.7-3.7c0-2.2,1.7-3.8,3.7-3.8v1.2c-1.4,0-2.5,1.1-2.5,2.7c0,1.3,1.1,2.5,2.5,2.5V208.1z
		 M260.8,200.6v1.2c1.5,0,2.7,1.1,2.7,2.7c0,1.3-1.1,2.5-2.7,2.5v1.1c2.2,0,3.8-1.6,3.8-3.7C264.6,202.3,263,200.6,260.8,200.6"/>
	<rect x="256.8" y="200.2" class="st28" width="8.1" height="4.1"/>
	<rect x="260.4" y="201.1" width="1" height="4.2"/>
	<rect x="260.4" y="201.1" class="st29" width="1" height="4.2"/>
</g>
<g id="_x30_2-上针脚_28_">
	<line class="st27" x1="449.1" y1="234.8" x2="449.1" y2="226.6"/>
	<path class="st28" d="M449,237.9c-1.7,0-3-1.4-3-3c0-1.8,1.4-3.2,3-3.2c1.8,0,3.2,1.4,3.2,3.2C452.2,236.5,450.8,237.9,449,237.9"
		/>
	<path d="M449,238.5c-2,0-3.7-1.6-3.7-3.7c0-2.2,1.7-3.8,3.7-3.8v1.2c-1.4,0-2.5,1.1-2.5,2.7c0,1.3,1.1,2.5,2.5,2.5V238.5z M449,231
		v1.2c1.5,0,2.7,1.1,2.7,2.7c0,1.3-1.1,2.5-2.7,2.5v1.1c2.2,0,3.8-1.6,3.8-3.7C452.8,232.7,451.2,231,449,231"/>
	<rect x="445" y="230.6" class="st28" width="8.1" height="4.1"/>
	<rect x="448.6" y="231.5" width="1" height="4.2"/>
	<rect x="448.6" y="231.5" class="st29" width="1" height="4.2"/>
</g>
<g id="_x30_2-上针脚_29_">
	<line class="st27" x1="556.7" y1="234.8" x2="556.7" y2="226.6"/>
	<path class="st28" d="M556.6,237.9c-1.7,0-3-1.4-3-3c0-1.8,1.4-3.2,3-3.2c1.8,0,3.2,1.4,3.2,3.2
		C559.8,236.5,558.4,237.9,556.6,237.9"/>
	<path d="M556.6,238.5c-2,0-3.7-1.6-3.7-3.7c0-2.2,1.7-3.8,3.7-3.8v1.2c-1.4,0-2.5,1.1-2.5,2.7c0,1.3,1.1,2.5,2.5,2.5V238.5z
		 M556.6,231v1.2c1.5,0,2.7,1.1,2.7,2.7c0,1.3-1.1,2.5-2.7,2.5v1.1c2.2,0,3.8-1.6,3.8-3.7C560.4,232.7,558.8,231,556.6,231"/>
	<rect x="552.6" y="230.6" class="st28" width="8.1" height="4.1"/>
	<rect x="556.2" y="231.5" width="1" height="4.2"/>
	<rect x="556.2" y="231.5" class="st29" width="1" height="4.2"/>
</g>
<g id="_x30_2-上针脚_30_">
	<line class="st27" x1="626.5" y1="234.8" x2="626.5" y2="226.6"/>
	<path class="st28" d="M626.4,237.9c-1.7,0-3-1.4-3-3c0-1.8,1.4-3.2,3-3.2c1.8,0,3.2,1.4,3.2,3.2
		C629.6,236.5,628.2,237.9,626.4,237.9"/>
	<path d="M626.4,238.5c-2,0-3.7-1.6-3.7-3.7c0-2.2,1.7-3.8,3.7-3.8v1.2c-1.4,0-2.5,1.1-2.5,2.7c0,1.3,1.1,2.5,2.5,2.5V238.5z
		 M626.4,231v1.2c1.5,0,2.7,1.1,2.7,2.7c0,1.3-1.1,2.5-2.7,2.5v1.1c2.2,0,3.8-1.6,3.8-3.7C630.2,232.7,628.6,231,626.4,231"/>
	<rect x="622.4" y="230.6" class="st28" width="8.1" height="4.1"/>
	<rect x="626" y="231.5" width="1" height="4.2"/>
	<rect x="626" y="231.5" class="st29" width="1" height="4.2"/>
</g>
<g id="_x30_2-上针脚_31_">
	<line class="st27" x1="709.9" y1="234.8" x2="709.9" y2="226.6"/>
	<path class="st28" d="M709.8,237.9c-1.7,0-3-1.4-3-3c0-1.8,1.4-3.2,3-3.2c1.8,0,3.2,1.4,3.2,3.2C713,236.5,711.6,237.9,709.8,237.9
		"/>
	<path d="M709.8,238.5c-2,0-3.7-1.6-3.7-3.7c0-2.2,1.7-3.8,3.7-3.8v1.2c-1.4,0-2.5,1.1-2.5,2.7c0,1.3,1.1,2.5,2.5,2.5V238.5z
		 M709.8,231v1.2c1.5,0,2.7,1.1,2.7,2.7c0,1.3-1.1,2.5-2.7,2.5v1.1c2.2,0,3.8-1.6,3.8-3.7C713.6,232.7,712,231,709.8,231"/>
	<rect x="705.8" y="230.6" class="st28" width="8.1" height="4.1"/>
	<rect x="709.4" y="231.5" width="1" height="4.2"/>
	<rect x="709.4" y="231.5" class="st29" width="1" height="4.2"/>
</g>
<g id="_x30_2-上针脚_8_">
	<line class="st27" x1="449.5" y1="364.2" x2="449.5" y2="356"/>
	<path class="st28" d="M449.4,367.3c-1.7,0-3-1.4-3-3c0-1.8,1.4-3.2,3-3.2c1.8,0,3.2,1.4,3.2,3.2
		C452.6,365.9,451.2,367.3,449.4,367.3"/>
	<path d="M449.5,367.9c-2,0-3.7-1.6-3.7-3.7c0-2.2,1.7-3.8,3.7-3.8v1.2c-1.4,0-2.5,1.1-2.5,2.7c0,1.3,1.1,2.5,2.5,2.5V367.9z
		 M449.5,360.4v1.2c1.5,0,2.7,1.1,2.7,2.7c0,1.3-1.1,2.5-2.7,2.5v1.1c2.2,0,3.8-1.6,3.8-3.7S451.7,360.4,449.5,360.4"/>
	<rect x="445.5" y="360" class="st28" width="8.1" height="4.1"/>
	<rect x="449" y="360.9" width="1" height="4.2"/>
	<rect x="449" y="360.9" class="st29" width="1" height="4.2"/>
</g>
<g id="_x30_2-上针脚_9_">
	<line class="st27" x1="557" y1="364.2" x2="557" y2="356"/>
	<path class="st28" d="M556.9,367.3c-1.7,0-3-1.4-3-3c0-1.8,1.4-3.2,3-3.2c1.8,0,3.2,1.4,3.2,3.2
		C560.1,365.9,558.7,367.3,556.9,367.3"/>
	<path d="M557,367.9c-2,0-3.7-1.6-3.7-3.7c0-2.2,1.7-3.8,3.7-3.8v1.2c-1.4,0-2.5,1.1-2.5,2.7c0,1.3,1.1,2.5,2.5,2.5V367.9z
		 M557,360.4v1.2c1.5,0,2.7,1.1,2.7,2.7c0,1.3-1.1,2.5-2.7,2.5v1.1c2.2,0,3.8-1.6,3.8-3.7S559.2,360.4,557,360.4"/>
	<rect x="553" y="360" class="st28" width="8.1" height="4.1"/>
	<rect x="556.5" y="360.9" width="1" height="4.2"/>
	<rect x="556.5" y="360.9" class="st29" width="1" height="4.2"/>
</g>
<g id="_x30_2-上针脚_10_">
	<line class="st27" x1="626.9" y1="364.2" x2="626.9" y2="356"/>
	<path class="st28" d="M626.8,367.3c-1.7,0-3-1.4-3-3c0-1.8,1.4-3.2,3-3.2c1.8,0,3.2,1.4,3.2,3.2C630,365.9,628.6,367.3,626.8,367.3
		"/>
	<path d="M626.9,367.9c-2,0-3.7-1.6-3.7-3.7c0-2.2,1.7-3.8,3.7-3.8v1.2c-1.4,0-2.5,1.1-2.5,2.7c0,1.3,1.1,2.5,2.5,2.5V367.9z
		 M626.9,360.4v1.2c1.5,0,2.7,1.1,2.7,2.7c0,1.3-1.1,2.5-2.7,2.5v1.1c2.2,0,3.8-1.6,3.8-3.7S629.1,360.4,626.9,360.4"/>
	<rect x="622.9" y="360" class="st28" width="8.1" height="4.1"/>
	<rect x="626.4" y="360.9" width="1" height="4.2"/>
	<rect x="626.4" y="360.9" class="st29" width="1" height="4.2"/>
</g>
<g id="_x30_2-上针脚_3_">
	<line class="st27" x1="449.1" y1="312" x2="449.1" y2="320.2"/>
	<path class="st28" d="M449,308.9c-1.7,0-3,1.4-3,3c0,1.8,1.4,3.2,3,3.2c1.8,0,3.2-1.4,3.2-3.2C452.2,310.3,450.8,308.9,449,308.9"
		/>
	<path d="M449,309.4c-1.4,0-2.5,1.2-2.5,2.5c0,1.6,1.1,2.7,2.5,2.7v1.2c-2,0-3.7-1.6-3.7-3.8c0-2.1,1.7-3.7,3.7-3.7V309.4z
		 M449,315.8c2.2,0,3.8-1.7,3.8-3.8s-1.6-3.7-3.8-3.7v1.1c1.6,0,2.7,1.2,2.7,2.5c0,1.6-1.2,2.7-2.7,2.7V315.8"/>
	<rect x="445" y="312.1" class="st28" width="8.1" height="4.1"/>
	<rect x="448.6" y="311.1" width="1" height="4.2"/>
	<rect x="448.6" y="311.1" class="st29" width="1" height="4.2"/>
</g>
<g id="_x30_2-上针脚_4_">
	<line class="st27" x1="556.7" y1="312" x2="556.7" y2="320.2"/>
	<path class="st28" d="M556.6,308.9c-1.7,0-3,1.4-3,3c0,1.8,1.4,3.2,3,3.2c1.8,0,3.2-1.4,3.2-3.2
		C559.8,310.3,558.4,308.9,556.6,308.9"/>
	<path d="M556.6,309.4c-1.4,0-2.5,1.2-2.5,2.5c0,1.6,1.1,2.7,2.5,2.7v1.2c-2,0-3.7-1.6-3.7-3.8c0-2.1,1.7-3.7,3.7-3.7V309.4z
		 M556.6,315.8c2.2,0,3.8-1.7,3.8-3.8s-1.6-3.7-3.8-3.7v1.1c1.6,0,2.7,1.2,2.7,2.5c0,1.6-1.2,2.7-2.7,2.7V315.8"/>
	<rect x="552.6" y="312.1" class="st28" width="8.1" height="4.1"/>
	<rect x="556.2" y="311.1" width="1" height="4.2"/>
	<rect x="556.2" y="311.1" class="st29" width="1" height="4.2"/>
</g>
<g id="_x30_2-上针脚_5_">
	<line class="st27" x1="626.5" y1="312" x2="626.5" y2="320.2"/>
	<path class="st28" d="M626.4,308.9c-1.7,0-3,1.4-3,3c0,1.8,1.4,3.2,3,3.2c1.8,0,3.2-1.4,3.2-3.2
		C629.6,310.3,628.2,308.9,626.4,308.9"/>
	<path d="M626.4,309.4c-1.4,0-2.5,1.2-2.5,2.5c0,1.6,1.1,2.7,2.5,2.7v1.2c-2,0-3.7-1.6-3.7-3.8c0-2.1,1.7-3.7,3.7-3.7V309.4z
		 M626.4,315.8c2.2,0,3.8-1.7,3.8-3.8s-1.6-3.7-3.8-3.7v1.1c1.6,0,2.7,1.2,2.7,2.5c0,1.6-1.2,2.7-2.7,2.7V315.8"/>
	<rect x="622.4" y="312.1" class="st28" width="8.1" height="4.1"/>
	<rect x="626" y="311.1" width="1" height="4.2"/>
	<rect x="626" y="311.1" class="st29" width="1" height="4.2"/>
</g>
<g id="_x30_2-上针脚_12_">
	<line class="st27" x1="260.9" y1="448.3" x2="260.9" y2="456.5"/>
	<path class="st28" d="M260.8,445.2c-1.7,0-3,1.4-3,3c0,1.8,1.4,3.2,3,3.2c1.8,0,3.2-1.4,3.2-3.2C264,446.6,262.6,445.2,260.8,445.2
		"/>
	<path d="M260.8,445.7c-1.4,0-2.5,1.2-2.5,2.5c0,1.6,1.1,2.7,2.5,2.7v1.2c-2,0-3.7-1.6-3.7-3.8c0-2.1,1.7-3.7,3.7-3.7V445.7z
		 M260.8,452.1c2.2,0,3.8-1.7,3.8-3.8s-1.6-3.7-3.8-3.7v1.1c1.6,0,2.7,1.2,2.7,2.5c0,1.6-1.2,2.7-2.7,2.7V452.1"/>
	<rect x="256.8" y="448.4" class="st28" width="8.1" height="4.1"/>
	<rect x="260.4" y="447.4" width="1" height="4.2"/>
	<rect x="260.4" y="447.4" class="st29" width="1" height="4.2"/>
</g>
<g id="_x30_2-上针脚_13_">
	<line class="st27" x1="449.5" y1="448.3" x2="449.5" y2="456.5"/>
	<path class="st28" d="M449.4,445.2c-1.7,0-3,1.4-3,3c0,1.8,1.4,3.2,3,3.2c1.8,0,3.2-1.4,3.2-3.2
		C452.6,446.6,451.2,445.2,449.4,445.2"/>
	<path d="M449.5,445.7c-1.4,0-2.5,1.2-2.5,2.5c0,1.6,1.1,2.7,2.5,2.7v1.2c-2,0-3.7-1.6-3.7-3.8c0-2.1,1.7-3.7,3.7-3.7V445.7z
		 M449.5,452.1c2.2,0,3.8-1.7,3.8-3.8s-1.6-3.7-3.8-3.7v1.1c1.6,0,2.7,1.2,2.7,2.5c0,1.6-1.2,2.7-2.7,2.7V452.1"/>
	<rect x="445.5" y="448.4" class="st28" width="8.1" height="4.1"/>
	<rect x="449" y="447.4" width="1" height="4.2"/>
	<rect x="449" y="447.4" class="st29" width="1" height="4.2"/>
</g>
<g id="_x30_2-上针脚_26_">
	<line class="st27" x1="532.7" y1="561.5" x2="532.7" y2="569.7"/>
	<path class="st28" d="M532.6,558.4c-1.7,0-3,1.4-3,3c0,1.8,1.4,3.2,3,3.2c1.8,0,3.2-1.4,3.2-3.2
		C535.8,559.8,534.4,558.4,532.6,558.4"/>
	<path d="M532.7,558.9c-1.4,0-2.5,1.2-2.5,2.5c0,1.6,1.1,2.7,2.5,2.7v1.2c-2,0-3.7-1.6-3.7-3.8c0-2.1,1.7-3.7,3.7-3.7V558.9z
		 M532.7,565.3c2.2,0,3.8-1.7,3.8-3.8s-1.6-3.7-3.8-3.7v1.1c1.6,0,2.7,1.2,2.7,2.5c0,1.6-1.2,2.7-2.7,2.7V565.3"/>
	<rect x="528.7" y="561.6" class="st28" width="8.1" height="4.1"/>
	<rect x="532.2" y="560.6" width="1" height="4.2"/>
	<rect x="532.2" y="560.6" class="st29" width="1" height="4.2"/>
</g>
<g id="_x30_2-上针脚_14_">
	<line class="st27" x1="557" y1="448.3" x2="557" y2="456.5"/>
	<path class="st28" d="M556.9,445.2c-1.7,0-3,1.4-3,3c0,1.8,1.4,3.2,3,3.2c1.8,0,3.2-1.4,3.2-3.2
		C560.1,446.6,558.7,445.2,556.9,445.2"/>
	<path d="M557,445.7c-1.4,0-2.5,1.2-2.5,2.5c0,1.6,1.1,2.7,2.5,2.7v1.2c-2,0-3.7-1.6-3.7-3.8c0-2.1,1.7-3.7,3.7-3.7V445.7z
		 M557,452.1c2.2,0,3.8-1.7,3.8-3.8s-1.6-3.7-3.8-3.7v1.1c1.6,0,2.7,1.2,2.7,2.5c0,1.6-1.2,2.7-2.7,2.7V452.1"/>
	<rect x="553" y="448.4" class="st28" width="8.1" height="4.1"/>
	<rect x="556.5" y="447.4" width="1" height="4.2"/>
	<rect x="556.5" y="447.4" class="st29" width="1" height="4.2"/>
</g>
<g id="_x30_2-上针脚_15_">
	<line class="st27" x1="626.9" y1="448.3" x2="626.9" y2="456.5"/>
	<path class="st28" d="M626.8,445.2c-1.7,0-3,1.4-3,3c0,1.8,1.4,3.2,3,3.2c1.8,0,3.2-1.4,3.2-3.2C630,446.6,628.6,445.2,626.8,445.2
		"/>
	<path d="M626.9,445.7c-1.4,0-2.5,1.2-2.5,2.5c0,1.6,1.1,2.7,2.5,2.7v1.2c-2,0-3.7-1.6-3.7-3.8c0-2.1,1.7-3.7,3.7-3.7V445.7z
		 M626.9,452.1c2.2,0,3.8-1.7,3.8-3.8s-1.6-3.7-3.8-3.7v1.1c1.6,0,2.7,1.2,2.7,2.5c0,1.6-1.2,2.7-2.7,2.7V452.1"/>
	<rect x="622.9" y="448.4" class="st28" width="8.1" height="4.1"/>
	<rect x="626.4" y="447.4" width="1" height="4.2"/>
	<rect x="626.4" y="447.4" class="st29" width="1" height="4.2"/>
</g>
<g id="_x30_2-上针脚_23_">
	<line class="st27" x1="532.7" y1="490.6" x2="532.7" y2="482.4"/>
	<path class="st28" d="M532.6,493.7c-1.7,0-3-1.4-3-3c0-1.8,1.4-3.2,3-3.2c1.8,0,3.2,1.4,3.2,3.2
		C535.8,492.3,534.4,493.7,532.6,493.7"/>
	<path d="M532.7,494.3c-2,0-3.7-1.6-3.7-3.7c0-2.2,1.7-3.8,3.7-3.8v1.2c-1.4,0-2.5,1.1-2.5,2.7c0,1.3,1.1,2.5,2.5,2.5V494.3z
		 M532.7,486.8v1.2c1.5,0,2.7,1.1,2.7,2.7c0,1.3-1.1,2.5-2.7,2.5v1.1c2.2,0,3.8-1.6,3.8-3.7S534.9,486.8,532.7,486.8"/>
	<rect x="528.7" y="486.4" class="st28" width="8.1" height="4.1"/>
	<rect x="532.2" y="487.3" width="1" height="4.2"/>
	<rect x="532.2" y="487.3" class="st29" width="1" height="4.2"/>
</g>
<g id="_x30_2-上针脚_21_">
	<line class="st27" x1="532.7" y1="613.6" x2="532.7" y2="605.4"/>
	<path class="st28" d="M532.6,616.7c-1.7,0-3-1.4-3-3c0-1.8,1.4-3.2,3-3.2c1.8,0,3.2,1.4,3.2,3.2
		C535.8,615.3,534.4,616.7,532.6,616.7"/>
	<path d="M532.7,617.3c-2,0-3.7-1.6-3.7-3.7c0-2.2,1.7-3.8,3.7-3.8v1.2c-1.4,0-2.5,1.1-2.5,2.7c0,1.3,1.1,2.5,2.5,2.5V617.3z
		 M532.7,609.8v1.2c1.5,0,2.7,1.1,2.7,2.7c0,1.3-1.1,2.5-2.7,2.5v1.1c2.2,0,3.8-1.6,3.8-3.7C536.5,611.5,534.9,609.8,532.7,609.8"/>
	<rect x="528.7" y="609.4" class="st28" width="8.1" height="4.1"/>
	<rect x="532.2" y="610.3" width="1" height="4.2"/>
	<rect x="532.2" y="610.3" class="st29" width="1" height="4.2"/>
</g>
<line class="st30" x1="680.3" y1="493.7" x2="680.3" y2="752.4"/>
<line class="st31" x1="628.9" y1="493.7" x2="628.9" y2="754.3"/>
<line class="st30" x1="139.8" y1="331.6" x2="139.8" y2="445.7"/>
<line class="st31" x1="88.4" y1="331.6" x2="88.4" y2="445.2"/>
<path class="st32" d="M626.7,758.9l0.6,2.1c0,0,0.6,2.5,3.3,2.6h22.1l0,0l1.9,2.7l1.9-2.7c9,0,22.1,0,22.1,0
	c2.7-0.1,3.3-2.6,3.3-2.6l0.6-2.1"/>
<path class="st33" d="M626.2,562c-1.9,0-3.5-1.5-3.5-3.5c0-1.9,1.6-3.5,3.5-3.5l57.7,6.9c1.9,0,3.5-1.5,3.5-3.5
	c0-1.9-1.6-3.5-3.5-3.5L626.2,562z"/>
<g id="_x30_2-上针脚_19_">
	<line class="st27" x1="628.9" y1="490.6" x2="628.9" y2="482.4"/>
	<path class="st28" d="M628.8,493.7c-1.7,0-3-1.4-3-3c0-1.8,1.4-3.2,3-3.2c1.8,0,3.2,1.4,3.2,3.2C632,492.3,630.6,493.7,628.8,493.7
		"/>
	<path d="M628.8,494.3c-2,0-3.7-1.6-3.7-3.7c0-2.2,1.7-3.8,3.7-3.8v1.2c-1.4,0-2.5,1.1-2.5,2.7c0,1.3,1.1,2.5,2.5,2.5V494.3z
		 M628.8,486.8v1.2c1.5,0,2.7,1.1,2.7,2.7c0,1.3-1.1,2.5-2.7,2.5v1.1c2.2,0,3.8-1.6,3.8-3.7S631,486.8,628.8,486.8"/>
	<rect x="624.8" y="486.4" class="st28" width="8.1" height="4.1"/>
	<rect x="628.4" y="487.3" width="1" height="4.2"/>
	<rect x="628.4" y="487.3" class="st29" width="1" height="4.2"/>
</g>
<g id="_x30_2-上针脚_20_">
	<line class="st27" x1="680.3" y1="490.6" x2="680.3" y2="482.4"/>
	<path class="st28" d="M680.2,493.7c-1.7,0-3-1.4-3-3c0-1.8,1.4-3.2,3-3.2c1.8,0,3.2,1.4,3.2,3.2C683.4,492.3,682,493.7,680.2,493.7
		"/>
	<path d="M680.2,494.3c-2,0-3.7-1.6-3.7-3.7c0-2.2,1.7-3.8,3.7-3.8v1.2c-1.4,0-2.5,1.1-2.5,2.7c0,1.3,1.1,2.5,2.5,2.5V494.3z
		 M680.2,486.8v1.2c1.5,0,2.7,1.1,2.7,2.7c0,1.3-1.1,2.5-2.7,2.5v1.1c2.2,0,3.8-1.6,3.8-3.7S682.4,486.8,680.2,486.8"/>
	<rect x="676.2" y="486.4" class="st28" width="8.1" height="4.1"/>
	<rect x="679.8" y="487.3" width="1" height="4.2"/>
	<rect x="679.8" y="487.3" class="st29" width="1" height="4.2"/>
</g>
<g>
	<g>
		<line class="st34" x1="709.8" y1="403.1" x2="709.8" y2="407.8"/>
	</g>
	<g>
		<line class="st34" x1="702.8" y1="407.8" x2="716.6" y2="407.8"/>
	</g>
	<g>
		<line class="st34" x1="705.6" y1="410" x2="713.8" y2="410"/>
	</g>
	<g>
		<line class="st34" x1="712.2" y1="412.1" x2="707.3" y2="412.1"/>
	</g>
</g>
<g>
	<g>
		<line class="st34" x1="532.9" y1="768.2" x2="532.9" y2="770.8"/>
	</g>
	<g>
		<line class="st34" x1="525.8" y1="770.8" x2="539.7" y2="770.8"/>
	</g>
	<g>
		<line class="st34" x1="528.6" y1="773.1" x2="536.8" y2="773.1"/>
	</g>
	<g>
		<line class="st34" x1="535.2" y1="775.1" x2="530.4" y2="775.1"/>
	</g>
</g>
<g>
	<defs>
		<rect id="SVGID_1_" x="529.6" y="681.2" width="6.2" height="6.1"/>
	</defs>
	<clipPath id="SVGID_2_">
		<use xlink:href="#SVGID_1_"  style="overflow:visible;"/>
	</clipPath>
	<g style="clip-path:url(#SVGID_2_);">
		
			<use xlink:href="#交点"  width="6.2" height="6.1" x="-3.1" y="-3.1" transform="matrix(1 0 0 -1 532.6148 684.2623)" style="overflow:visible;"/>
	</g>
</g>
<rect x="254.6" y="249.1" class="st28" width="12.5" height="6"/>
<rect x="254.6" y="249.1" class="st28" width="12.5" height="6"/>
<g>
	<text transform="matrix(1 0 0 1 248.6815 253.9341)" class="st11 st12">R/Y 0.35</text>
</g>
<rect x="254.6" y="426.6" class="st28" width="12.5" height="6"/>
<rect x="254.6" y="426.6" class="st28" width="12.5" height="6"/>
<g>
	<text transform="matrix(1 0 0 1 249.5118 431.4453)" class="st11 st12">R/Y 0.35</text>
</g>
<rect x="254.6" y="380.9" class="st28" width="12.5" height="6"/>
<rect x="254.6" y="380.9" class="st28" width="12.5" height="6"/>
<g>
	<text transform="matrix(1 0 0 1 249.5118 385.7579)" class="st11 st12">R/Y 0.35</text>
</g>
<rect x="254.6" y="290.9" class="st28" width="12.5" height="6"/>
<rect x="254.6" y="290.9" class="st28" width="12.5" height="6"/>
<g>
	<text transform="matrix(1 0 0 1 249.5118 295.7402)" class="st11 st12">R/Y 0.35</text>
</g>
<g>
	<g>
		<text transform="matrix(1 0 0 1 265.0807 175.774)" class="st11 st12">7.5A</text>
	</g>
</g>
<g id="_x30_2-上针脚_1_">
	<line class="st27" x1="259.7" y1="490.6" x2="259.7" y2="482.4"/>
	<path class="st28" d="M259.6,493.7c-1.7,0-3-1.4-3-3c0-1.8,1.4-3.2,3-3.2c1.8,0,3.2,1.4,3.2,3.2
		C262.8,492.3,261.4,493.7,259.6,493.7"/>
	<path d="M259.7,494.3c-2,0-3.7-1.6-3.7-3.7c0-2.2,1.7-3.8,3.7-3.8v1.2c-1.4,0-2.5,1.1-2.5,2.7c0,1.3,1.1,2.5,2.5,2.5V494.3z
		 M259.7,486.8v1.2c1.5,0,2.7,1.1,2.7,2.7c0,1.3-1.1,2.5-2.7,2.5v1.1c2.2,0,3.8-1.6,3.8-3.7S261.9,486.8,259.7,486.8"/>
	<rect x="255.7" y="486.4" class="st28" width="8.1" height="4.1"/>
	<rect x="259.2" y="487.3" width="1" height="4.2"/>
	<rect x="259.2" y="487.3" class="st29" width="1" height="4.2"/>
</g>
<g>
	<rect x="522.4" y="777.6" class="st28" width="20.3" height="8.2"/>
	<rect x="522.7" y="778" class="st35" width="19.7" height="7.6"/>
</g>
<g>
	<text transform="matrix(1 0 0 1 253.5549 461.1913)" class="st11 st14">IG3 power supply</text>
</g>
<rect x="526.4" y="520" class="st28" width="12.7" height="6"/>
<rect x="526.5" y="520" class="st28" width="12.5" height="6"/>
<g>
	<text transform="matrix(1 0 0 1 522.4082 524.8436)" class="st11 st12">W 0.35</text>
</g>
<rect x="525.5" y="643.2" class="st28" width="12.5" height="6"/>
<text transform="matrix(1 0 0 1 523.334 648.0469)" class="st11 st12">B 0.35</text>
<line class="st36" x1="781.6" y1="493.7" x2="781.6" y2="551.5"/>
<rect x="775.3" y="519.8" class="st28" width="12.5" height="6"/>
<g>
	<text transform="matrix(1 0 0 1 771.9011 524.6752)" class="st11 st12">G 0.22</text>
</g>
<rect x="526.6" y="715.4" class="st28" width="12.2" height="6"/>
<g>
	<text transform="matrix(1 0 0 1 523.334 720.2665)" class="st11 st12">B 0.35</text>
</g>
<text transform="matrix(1 0 0 1 512.7209 480.3132)" class="st11 st14">Driver seat belt switch state</text>
<rect x="537.3" y="681.4" class="st37" width="25.3" height="5.6"/>
<text transform="matrix(1 0 0 1 537.9166 686.2833)" class="st11 st12">SP5197</text>
<g>
	<path class="st38" d="M257.9,84.3c0-1.7,1.3-2.8,2.8-2.8c1.6,0,2.9,1.2,2.9,2.8c0,1.5-1.3,2.6-2.9,2.6
		C259.2,87,257.9,85.9,257.9,84.3z"/>
	<g>
		<path class="st39" d="M257.9,84.3c0-1.7,1.3-2.8,2.8-2.8c1.6,0,2.9,1.2,2.9,2.8c0,1.5-1.3,2.6-2.9,2.6
			C259.2,87,257.9,85.9,257.9,84.3"/>
	</g>
</g>
<g>
	<text transform="matrix(1 0 0 1 705.8865 225.131)" class="st11 st14">Ground</text>
</g>
<rect x="700.7" y="415" class="st35" width="18.7" height="7.6"/>
<rect x="706.7" y="248.1" class="st28" width="6.4" height="6"/>
<g>
	<text transform="matrix(1 0 0 1 700.5468 252.9666)" class="st11 st12">B 0.22</text>
</g>
<rect x="703.8" y="380.7" class="st28" width="12.2" height="6"/>
<g>
	<text transform="matrix(1 0 0 1 702.3513 385.5078)" class="st11 st12">B 2.5</text>
</g>
<g>
	<g>
		<line class="st34" x1="781.6" y1="765.9" x2="781.6" y2="770.6"/>
	</g>
	<g>
		<line class="st34" x1="774.6" y1="770.6" x2="788.4" y2="770.6"/>
	</g>
	<g>
		<line class="st34" x1="777.4" y1="772.8" x2="785.6" y2="772.8"/>
	</g>
	<g>
		<line class="st34" x1="784" y1="774.9" x2="779.1" y2="774.9"/>
	</g>
</g>
<rect x="772.5" y="777.8" class="st35" width="18.7" height="7.6"/>
<rect x="550.7" y="426.6" class="st28" width="12.7" height="6"/>
<rect x="550.8" y="426.6" class="st28" width="12.5" height="6"/>
<text transform="matrix(1 0 0 1 543.7123 431.4457)" class="st11 st12">W/L 0.22</text>
<rect x="443.2" y="426.6" class="st28" width="12.7" height="6"/>
<rect x="443.3" y="426.6" class="st28" width="12.5" height="6"/>
<g>
	<text transform="matrix(1 0 0 1 436.2123 431.4457)" class="st11 st12">W/B 0.22</text>
</g>
<rect x="620.6" y="426.6" class="st28" width="12.7" height="6"/>
<rect x="620.7" y="426.6" class="st28" width="12.5" height="6"/>
<g>
	<text transform="matrix(1 0 0 1 614.889 431.4457)" class="st11 st12">Y/L 0.22</text>
</g>
<rect x="550.7" y="380.9" class="st28" width="12.7" height="6"/>
<rect x="550.8" y="380.9" class="st28" width="12.5" height="6"/>
<text transform="matrix(1 0 0 1 543.7123 385.7583)" class="st11 st12">W/L 0.22</text>
<rect x="443.2" y="380.9" class="st28" width="12.7" height="6"/>
<rect x="443.3" y="380.9" class="st28" width="12.5" height="6"/>
<g>
	<text transform="matrix(1 0 0 1 436.2123 385.7583)" class="st11 st12">W/B 0.22</text>
</g>
<rect x="620.6" y="380.9" class="st28" width="12.7" height="6"/>
<rect x="620.7" y="380.9" class="st28" width="12.5" height="6"/>
<g>
	<text transform="matrix(1 0 0 1 614.889 385.7583)" class="st11 st12">Y/L 0.22</text>
</g>
<line class="st17" x1="782.4" y1="207.3" x2="782.4" y2="445.2"/>
<g id="_x30_2-上针脚_34_">
	<line class="st27" x1="782.4" y1="448.3" x2="782.4" y2="456.5"/>
	<path class="st28" d="M782.3,445.2c-1.7,0-3,1.4-3,3c0,1.8,1.4,3.2,3,3.2c1.8,0,3.2-1.4,3.2-3.2
		C785.5,446.6,784.1,445.2,782.3,445.2"/>
	<path d="M782.4,445.7c-1.4,0-2.5,1.2-2.5,2.5c0,1.6,1.1,2.7,2.5,2.7v1.2c-2,0-3.7-1.6-3.7-3.8c0-2.1,1.7-3.7,3.7-3.7V445.7z
		 M782.4,452.1c2.2,0,3.8-1.7,3.8-3.8s-1.6-3.7-3.8-3.7v1.1c1.6,0,2.7,1.2,2.7,2.5c0,1.6-1.2,2.7-2.7,2.7V452.1"/>
	<rect x="778.3" y="448.4" class="st28" width="8.1" height="4.1"/>
	<rect x="781.9" y="447.4" width="1" height="4.2"/>
	<rect x="781.9" y="447.4" class="st29" width="1" height="4.2"/>
</g>
<g id="_x30_2-上针脚_35_">
	<line class="st27" x1="781.5" y1="548" x2="781.5" y2="556.2"/>
	<path class="st28" d="M781.4,544.9c-1.7,0-3,1.4-3,3c0,1.8,1.4,3.2,3,3.2c1.8,0,3.2-1.4,3.2-3.2
		C784.6,546.3,783.2,544.9,781.4,544.9"/>
	<path d="M781.4,545.4c-1.4,0-2.5,1.2-2.5,2.5c0,1.6,1.1,2.7,2.5,2.7v1.2c-2,0-3.7-1.6-3.7-3.8c0-2.1,1.7-3.7,3.7-3.7V545.4z
		 M781.4,551.8c2.2,0,3.8-1.7,3.8-3.8s-1.6-3.7-3.8-3.7v1.1c1.6,0,2.7,1.2,2.7,2.5c0,1.6-1.2,2.7-2.7,2.7V551.8"/>
	<rect x="777.4" y="548.1" class="st28" width="8.1" height="4.1"/>
	<rect x="781" y="547.1" width="1" height="4.2"/>
	<rect x="781" y="547.1" class="st29" width="1" height="4.2"/>
</g>
<g id="_x30_2-上针脚_41_">
	<line class="st27" x1="781.5" y1="647.4" x2="781.5" y2="655.6"/>
	<path class="st28" d="M781.4,644.3c-1.7,0-3,1.4-3,3c0,1.8,1.4,3.2,3,3.2c1.8,0,3.2-1.4,3.2-3.2
		C784.6,645.7,783.2,644.3,781.4,644.3"/>
	<path d="M781.4,644.8c-1.4,0-2.5,1.2-2.5,2.5c0,1.6,1.1,2.7,2.5,2.7v1.2c-2,0-3.7-1.6-3.7-3.8c0-2.1,1.7-3.7,3.7-3.7V644.8z
		 M781.4,651.2c2.2,0,3.8-1.7,3.8-3.8s-1.6-3.7-3.8-3.7v1.1c1.6,0,2.7,1.2,2.7,2.5c0,1.6-1.2,2.7-2.7,2.7V651.2"/>
	<rect x="777.4" y="647.5" class="st28" width="8.1" height="4.1"/>
	<rect x="781" y="646.5" width="1" height="4.2"/>
	<rect x="781" y="646.5" class="st29" width="1" height="4.2"/>
</g>
<rect x="776.1" y="426.6" class="st28" width="12.7" height="6"/>
<rect x="776.2" y="426.6" class="st28" width="12.5" height="6"/>
<g>
	<text transform="matrix(1 0 0 1 774.6096 431.4457)" class="st11 st12">R 8.0</text>
</g>
<rect x="776.1" y="248.1" class="st28" width="12.7" height="6"/>
<rect x="776.2" y="248.1" class="st28" width="12.5" height="6"/>
<g>
	<text transform="matrix(1 0 0 1 774.6096 252.9666)" class="st11 st12">R 8.0</text>
</g>
<rect x="550.3" y="248.1" class="st28" width="12.7" height="6"/>
<rect x="550.4" y="248.1" class="st28" width="12.5" height="6"/>
<text transform="matrix(1 0 0 1 546.9951 252.9666)" class="st11 st12">G 0.22</text>
<rect x="620.1" y="248.1" class="st28" width="12.7" height="6"/>
<rect x="620.2" y="248.1" class="st28" width="12.5" height="6"/>
<g>
	<text transform="matrix(1 0 0 1 613.5135 252.9666)" class="st11 st12">L/W 0.22</text>
</g>
<rect x="442.3" y="248.1" class="st28" width="12.7" height="6"/>
<rect x="442.3" y="248.1" class="st28" width="12.5" height="6"/>
<text transform="matrix(1 0 0 1 436.8638 252.9663)" class="st11 st12">L/R 0.22</text>
<rect x="550.3" y="290.9" class="st28" width="12.7" height="6"/>
<rect x="550.4" y="290.9" class="st28" width="12.5" height="6"/>
<text transform="matrix(1 0 0 1 546.9951 295.7404)" class="st11 st12">G 0.22</text>
<rect x="620.1" y="290.9" class="st28" width="12.7" height="6"/>
<rect x="620.2" y="290.9" class="st28" width="12.5" height="6"/>
<g>
	<text transform="matrix(1 0 0 1 613.5135 295.7405)" class="st11 st12">L/W 0.22</text>
</g>
<rect x="442.3" y="290.9" class="st28" width="12.7" height="6"/>
<rect x="442.3" y="290.9" class="st28" width="12.5" height="6"/>
<text transform="matrix(1 0 0 1 436.8638 295.7402)" class="st11 st12">L/R 0.22</text>
<text transform="matrix(1 0 0 1 425.5365 461.1917)" class="st11 st14">Signal acquisition of rear row left seat belt buckle</text>
<text transform="matrix(1 0 0 1 437.0863 225.1313)" class="st11 st14">Left side signal acquisition</text>
<g>
	<g>
		<text transform="matrix(1 0 0 1 544.6859 225.1315)" class="st11 st14">Middle signal acquisition</text>
	</g>
</g>
<g>
	<g>
		<text transform="matrix(1 0 0 1 602.4952 220.0985)" class="st40"><tspan x="0" y="0" class="st11 st14">signal acquisition of Rear row </tspan><tspan x="0" y="4.8" class="st11 st14">right seat belt alarm sensor</tspan></text>
	</g>
</g>
<g>
	<g>
		<text transform="matrix(1 0 0 1 545.0363 461.191)" class="st11 st14">Middle signal acquisition</text>
	</g>
</g>
<g>
	<g>
		<text transform="matrix(1 0 0 1 614.9365 461.1917)" class="st11 st14">Right side signal acquisition</text>
	</g>
</g>
<g>
	<text transform="matrix(1 0 0 1 560.9837 415.8765)" class="st11 st12">*RSBR</text>
</g>
<g>
	<text transform="matrix(1 0 0 1 631.1838 415.8765)" class="st11 st12">*RSBR</text>
</g>
<g>
	<text transform="matrix(1 0 0 1 453.3055 415.8765)" class="st11 st12">*RSBR</text>
</g>
<g>
	<text transform="matrix(1 0 0 1 560.9837 266.8323)" class="st11 st12">*RSBR</text>
</g>
<g>
	<text transform="matrix(1 0 0 1 631.1838 266.8323)" class="st11 st12">*RSBR</text>
</g>
<rect x="775.5" y="619.5" class="st28" width="12.7" height="6"/>
<rect x="775.6" y="619.5" class="st28" width="12.5" height="6"/>
<g>
	<text transform="matrix(1 0 0 1 771.7472 624.301)" class="st11 st12">B 0.35</text>
</g>
<g>
	<text transform="matrix(1 0 0 1 453.3055 266.8323)" class="st11 st12">*RSBR</text>
</g>
<g>
	<text transform="matrix(1 0 0 1 714.3657 266.832)" class="st11 st12">*RSBR</text>
</g>
<line class="st1" x1="781.6" y1="702.6" x2="781.6" y2="770.9"/>
<g id="_x30_2-上针脚_33_">
	<line class="st27" x1="781.6" y1="699.5" x2="781.6" y2="691.3"/>
	<path class="st28" d="M781.5,702.6c-1.7,0-3-1.4-3-3c0-1.8,1.4-3.2,3-3.2c1.8,0,3.2,1.4,3.2,3.2
		C784.7,701.2,783.3,702.6,781.5,702.6"/>
	<path d="M781.6,703.2c-2,0-3.7-1.6-3.7-3.7c0-2.2,1.7-3.8,3.7-3.8v1.2c-1.4,0-2.5,1.1-2.5,2.7c0,1.3,1.1,2.5,2.5,2.5V703.2z
		 M781.6,695.7v1.2c1.5,0,2.7,1.1,2.7,2.7c0,1.3-1.1,2.5-2.7,2.5v1.1c2.2,0,3.8-1.6,3.8-3.7C785.4,697.4,783.8,695.7,781.6,695.7"/>
	<rect x="777.6" y="695.3" class="st28" width="8.1" height="4.1"/>
	<rect x="781.1" y="696.2" width="1" height="4.2"/>
	<rect x="781.1" y="696.2" class="st29" width="1" height="4.2"/>
</g>
<rect x="778.4" y="715.3" class="st28" width="6.4" height="6"/>
<g>
	<text transform="matrix(1 0 0 1 772.2986 720.1171)" class="st11 st12">B 0.35</text>
</g>
<rect x="778.4" y="748.3" class="st28" width="6.4" height="6"/>
<g>
	<text transform="matrix(1 0 0 1 774.1034 753.1438)" class="st11 st12">B 2.5</text>
</g>
<g>
	<defs>
		<rect id="SVGID_3_" x="706.7" y="336.6" width="6.2" height="6.1"/>
	</defs>
	<clipPath id="SVGID_4_">
		<use xlink:href="#SVGID_3_"  style="overflow:visible;"/>
	</clipPath>
	<g style="clip-path:url(#SVGID_4_);">
		
			<use xlink:href="#交点"  width="6.2" height="6.1" x="-3.1" y="-3.1" transform="matrix(1 0 0 -1 709.7863 339.7108)" style="overflow:visible;"/>
	</g>
</g>
<rect x="714.9" y="336.9" class="st37" width="25.3" height="5.6"/>
<text transform="matrix(1 0 0 1 715.9726 341.8981)" class="st11 st12">SP4856</text>
<g>
	<defs>
		<rect id="SVGID_5_" x="778.5" y="731.3" width="6.2" height="6.1"/>
	</defs>
	<clipPath id="SVGID_6_">
		<use xlink:href="#SVGID_5_"  style="overflow:visible;"/>
	</clipPath>
	<g style="clip-path:url(#SVGID_6_);">
		
			<use xlink:href="#交点"  width="6.2" height="6.1" x="-3.1" y="-3.1" transform="matrix(1 0 0 -1 781.5881 734.3636)" style="overflow:visible;"/>
	</g>
</g>
<rect x="751.4" y="731.6" class="st37" width="25.3" height="5.6"/>
<text transform="matrix(1 0 0 1 752.4581 736.551)" class="st11 st12">SP4862</text>
<line class="st1" x1="866.9" y1="492.2" x2="866.8" y2="770.6"/>
<g id="_x30_2-上针脚_17_">
	<line class="st27" x1="781.9" y1="490.6" x2="781.9" y2="482.4"/>
	<path class="st28" d="M781.8,493.7c-1.7,0-3-1.4-3-3c0-1.8,1.4-3.2,3-3.2c1.8,0,3.2,1.4,3.2,3.2C785,492.3,783.6,493.7,781.8,493.7
		"/>
	<path d="M781.9,494.3c-2,0-3.7-1.6-3.7-3.7c0-2.2,1.7-3.8,3.7-3.8v1.2c-1.4,0-2.5,1.1-2.5,2.7c0,1.3,1.1,2.5,2.5,2.5V494.3z
		 M781.9,486.8v1.2c1.5,0,2.7,1.1,2.7,2.7c0,1.3-1.1,2.5-2.7,2.5v1.1c2.2,0,3.8-1.6,3.8-3.7S784.1,486.8,781.9,486.8"/>
	<rect x="777.8" y="486.4" class="st28" width="8.1" height="4.1"/>
	<rect x="781.4" y="487.3" width="1" height="4.2"/>
	<rect x="781.4" y="487.3" class="st29" width="1" height="4.2"/>
</g>
<g id="_x30_2-上针脚_36_">
	<line class="st27" x1="781.9" y1="586.1" x2="781.9" y2="577.9"/>
	<path class="st28" d="M781.8,589.2c-1.7,0-3-1.4-3-3c0-1.8,1.4-3.2,3-3.2c1.8,0,3.2,1.4,3.2,3.2C785,587.8,783.6,589.2,781.8,589.2
		"/>
	<path d="M781.9,589.8c-2,0-3.7-1.6-3.7-3.7c0-2.2,1.7-3.8,3.7-3.8v1.2c-1.4,0-2.5,1.1-2.5,2.7c0,1.3,1.1,2.5,2.5,2.5V589.8z
		 M781.9,582.3v1.2c1.5,0,2.7,1.1,2.7,2.7c0,1.3-1.1,2.5-2.7,2.5v1.1c2.2,0,3.8-1.6,3.8-3.7C785.7,584,784.1,582.3,781.9,582.3"/>
	<rect x="777.8" y="581.9" class="st28" width="8.1" height="4.1"/>
	<rect x="781.4" y="582.8" width="1" height="4.2"/>
	<rect x="781.4" y="582.8" class="st29" width="1" height="4.2"/>
</g>
<g>
	<g>
		<line class="st34" x1="866.8" y1="768.2" x2="866.8" y2="770.9"/>
	</g>
	<g>
		<line class="st34" x1="859.8" y1="770.9" x2="873.6" y2="770.9"/>
	</g>
	<g>
		<line class="st34" x1="862.6" y1="773.1" x2="870.8" y2="773.1"/>
	</g>
	<g>
		<line class="st34" x1="869.1" y1="775.2" x2="864.3" y2="775.2"/>
	</g>
</g>
<rect x="860.6" y="715.8" class="st28" width="12.5" height="6"/>
<rect x="863.6" y="520" class="st28" width="6.4" height="6"/>
<g>
	<text transform="matrix(1 0 0 1 859.2275 524.8438)" class="st11 st12">B 1.5</text>
</g>
<g>
	<rect x="856.4" y="777.7" class="st28" width="20.3" height="8.2"/>
	<rect x="856.7" y="778" class="st35" width="19.7" height="7.6"/>
</g>
<g>
	<text transform="matrix(1 0 0 1 859.2276 720.6036)" class="st11 st12">B 1.5</text>
</g>
<line class="st1" x1="917.9" y1="492.2" x2="917.8" y2="770.6"/>
<g id="_x30_2-上针脚_18_">
	<line class="st27" x1="917.8" y1="490.6" x2="917.8" y2="482.4"/>
	<path class="st28" d="M917.7,493.7c-1.7,0-3-1.4-3-3c0-1.8,1.4-3.2,3-3.2c1.8,0,3.2,1.4,3.2,3.2
		C920.9,492.3,919.5,493.7,917.7,493.7"/>
	<path d="M917.8,494.3c-2,0-3.7-1.6-3.7-3.7c0-2.2,1.7-3.8,3.7-3.8v1.2c-1.4,0-2.5,1.1-2.5,2.7c0,1.3,1.1,2.5,2.5,2.5V494.3z
		 M917.8,486.8v1.2c1.5,0,2.7,1.1,2.7,2.7c0,1.3-1.1,2.5-2.7,2.5v1.1c2.2,0,3.8-1.6,3.8-3.7S920,486.8,917.8,486.8"/>
	<rect x="913.8" y="486.4" class="st28" width="8.1" height="4.1"/>
	<rect x="917.3" y="487.3" width="1" height="4.2"/>
	<rect x="917.3" y="487.3" class="st29" width="1" height="4.2"/>
</g>
<g id="_x30_2-上针脚_16_">
	<line class="st27" x1="866.7" y1="490.6" x2="866.7" y2="482.4"/>
	<path class="st28" d="M866.6,493.7c-1.7,0-3-1.4-3-3c0-1.8,1.4-3.2,3-3.2c1.8,0,3.2,1.4,3.2,3.2
		C869.8,492.3,868.4,493.7,866.6,493.7"/>
	<path d="M866.7,494.3c-2,0-3.7-1.6-3.7-3.7c0-2.2,1.7-3.8,3.7-3.8v1.2c-1.4,0-2.5,1.1-2.5,2.7c0,1.3,1.1,2.5,2.5,2.5V494.3z
		 M866.7,486.8v1.2c1.5,0,2.7,1.1,2.7,2.7c0,1.3-1.1,2.5-2.7,2.5v1.1c2.2,0,3.8-1.6,3.8-3.7S868.9,486.8,866.7,486.8"/>
	<rect x="862.7" y="486.4" class="st28" width="8.1" height="4.1"/>
	<rect x="866.2" y="487.3" width="1" height="4.2"/>
	<rect x="866.2" y="487.3" class="st29" width="1" height="4.2"/>
</g>
<g>
	<g>
		<line class="st34" x1="917.8" y1="768.2" x2="917.8" y2="770.9"/>
	</g>
	<g>
		<line class="st34" x1="910.8" y1="770.9" x2="924.6" y2="770.9"/>
	</g>
	<g>
		<line class="st34" x1="913.6" y1="773.1" x2="921.8" y2="773.1"/>
	</g>
	<g>
		<line class="st34" x1="920.1" y1="775.2" x2="915.3" y2="775.2"/>
	</g>
</g>
<rect x="911.6" y="715.8" class="st28" width="12.5" height="6"/>
<rect x="914.6" y="520" class="st28" width="6.4" height="6"/>
<g>
	<text transform="matrix(1 0 0 1 910.2625 524.8438)" class="st11 st12">B 1.5</text>
</g>
<g>
	<rect x="907.4" y="777.7" class="st28" width="20.3" height="8.2"/>
	<rect x="907.7" y="778" class="st35" width="19.7" height="7.6"/>
</g>
<g>
	<text transform="matrix(1 0 0 1 910.2625 720.6036)" class="st11 st12">B 1.5</text>
</g>
<line class="st1" x1="967.8" y1="492.2" x2="967.7" y2="770.6"/>
<g id="_x30_2-上针脚_24_">
	<line class="st27" x1="967.7" y1="490.6" x2="967.7" y2="482.4"/>
	<path class="st28" d="M967.6,493.7c-1.7,0-3-1.4-3-3c0-1.8,1.4-3.2,3-3.2c1.8,0,3.2,1.4,3.2,3.2
		C970.8,492.3,969.4,493.7,967.6,493.7"/>
	<path d="M967.7,494.3c-2,0-3.7-1.6-3.7-3.7c0-2.2,1.7-3.8,3.7-3.8v1.2c-1.4,0-2.5,1.1-2.5,2.7c0,1.3,1.1,2.5,2.5,2.5V494.3z
		 M967.7,486.8v1.2c1.5,0,2.7,1.1,2.7,2.7c0,1.3-1.1,2.5-2.7,2.5v1.1c2.2,0,3.8-1.6,3.8-3.7S969.9,486.8,967.7,486.8"/>
	<rect x="963.7" y="486.4" class="st28" width="8.1" height="4.1"/>
	<rect x="967.2" y="487.3" width="1" height="4.2"/>
	<rect x="967.2" y="487.3" class="st29" width="1" height="4.2"/>
</g>
<g>
	<g>
		<line class="st34" x1="967.7" y1="768.2" x2="967.7" y2="770.9"/>
	</g>
	<g>
		<line class="st34" x1="960.7" y1="770.9" x2="974.5" y2="770.9"/>
	</g>
	<g>
		<line class="st34" x1="963.5" y1="773.1" x2="971.7" y2="773.1"/>
	</g>
	<g>
		<line class="st34" x1="970" y1="775.2" x2="965.2" y2="775.2"/>
	</g>
</g>
<rect x="961.5" y="715.8" class="st28" width="12.5" height="6"/>
<rect x="964.5" y="520" class="st28" width="6.4" height="6"/>
<g>
	<text transform="matrix(1 0 0 1 960.1978 524.8438)" class="st11 st12">B 2.5</text>
</g>
<g>
	<rect x="957.3" y="777.7" class="st28" width="20.3" height="8.2"/>
	<rect x="957.6" y="778" class="st35" width="19.7" height="7.6"/>
</g>
<g>
	<text transform="matrix(1 0 0 1 960.1978 720.6036)" class="st11 st12">B 2.5</text>
</g>
<g>
	<text transform="matrix(1 0 0 1 250.3566 480.0789)" class="st11 st14">Impact (PWM)</text>
</g>
<text transform="matrix(1 0 0 1 571.4788 335.6029)" class="st40"><tspan x="0" y="0" class="st11 st14">Rear middle </tspan><tspan x="0" y="4.8" class="st11 st14">seat belt buckle</tspan></text>
<text transform="matrix(1 0 0 1 640.2288 335.6029)" class="st40"><tspan x="0" y="0" class="st11 st14">Rear right </tspan><tspan x="0" y="4.8" class="st11 st14">seat belt buckle</tspan></text>
<g>
	<text transform="matrix(1 0 0 1 672.247 480.3127)" class="st11 st14"> CAN_H</text>
</g>
<g>
	<text transform="matrix(1 0 0 1 621.1988 480.3127)" class="st11 st14"> CAN_L</text>
</g>
<g>
	<rect x="677.6" y="519.8" class="st28" width="5.9" height="6"/>
	<g>
		<text transform="matrix(1 0 0 1 672.541 525.0215)" class="st11 st12">P 0.35</text>
	</g>
</g>
<rect x="622" y="520.2" class="st28" width="13.7" height="6"/>
<g>
	<text transform="matrix(1 0 0 1 619.4642 525.0125)" class="st11 st12">V 0.35</text>
</g>
<path class="st33" d="M84.7,390.7c-1.9,0-3.5-1.5-3.5-3.5c0-1.9,1.6-3.5,3.5-3.5l57.7,6.9c1.9,0,3.5-1.5,3.5-3.5
	c0-1.9-1.6-3.5-3.5-3.5L84.7,390.7z"/>
<g>
	<rect x="136.1" y="426.4" class="st28" width="5.9" height="6"/>
	<g>
		<text transform="matrix(1 0 0 1 131.0503 431.623)" class="st11 st12">P 0.35</text>
	</g>
</g>
<rect x="80.5" y="426.8" class="st28" width="13.7" height="6"/>
<g>
	<text transform="matrix(1 0 0 1 77.9736 431.614)" class="st11 st12">V 0.35</text>
</g>
<text transform="matrix(1 0 0 1 587.8773 777.6)" class="st11 st12">See Body Network System - Circuit Diagram</text>
<path class="st32" d="M141.4,330.1l-0.6-2.1c0,0-0.6-2.5-3.3-2.6h-22.1l0,0l-1.9-2.7l-1.9,2.7c-9,0-22.1,0-22.1,0
	c-2.7,0.1-3.3,2.6-3.3,2.6l-0.6,2.1"/>
<text transform="matrix(1 0 0 1 61.4679 319.5582)" class="st11 st12">See Chassis Network - Circuit Diagram</text>
<g>
	<text transform="matrix(1 0 0 1 860.2499 480.3127)" class="st11 st14">Power ground 1</text>
</g>
<g>
	<text transform="matrix(1 0 0 1 909.4999 480.3127)" class="st11 st14">Power ground 2</text>
</g>
<g>
	<text transform="matrix(1 0 0 1 958.9999 480.3127)" class="st11 st14">Power ground 3</text>
</g>
<g>
	<text transform="matrix(1 0 0 1 765.1308 475.5128)" class="st40"><tspan x="0" y="0" class="st11 st14">Front passenger seat belt switch </tspan><tspan x="0" y="4.8" class="st11 st14">state and seat belt alarm sensor signal</tspan></text>
</g>
<g id="REB_x2C_A3_3_">
	<rect x="334.9" y="144.9" class="st6" width="63" height="51.3"/>
</g>
<line class="st41" x1="362.4" y1="207" x2="362.4" y2="444.8"/>
<g>
	<g>
		<path class="st26" d="M362,176.2c-1.2,0-2.2,1-2.2,2.2s1,2.2,2.2,2.2s2.2-1,2.2-2.2S363.2,176.2,362,176.2"/>
	</g>
	<g>
		<path class="st26" d="M362,160.4c-1.2,0-2.2,1-2.2,2.1c0,1.2,1,2.2,2.2,2.2s2.2-0.9,2.2-2.2C364.2,161.4,363.2,160.4,362,160.4"/>
	</g>
	<g>
		<path class="st26" d="M360.5,164.2c-0.1,2.5,0.2,3.2,1.3,4.3c1.2,1.2,2.4,1.7,2.8,3.7c0.4,1.6-0.1,3.5-1.1,4.5"/>
	</g>
	<g>
		<path class="st26" d="M363.4,176.8c0.2-0.8,0-2.9-0.7-3.7c-0.9-1.2-2.7-2.1-3.3-4c-0.9-2.8,0.7-4.6,1.1-5"/>
	</g>
</g>
<g>
	<g>
		<line class="st42" x1="362" y1="160.4" x2="362" y2="61.4"/>
	</g>
</g>
<g>
	<text transform="matrix(1 0 0 1 367.3687 175.774)" class="st11 st12">100A</text>
</g>
<g>
	<g>
		<polyline class="st42" points="362,180.6 362,188.5 362,196 		"/>
	</g>
</g>
<g>
	<path class="st43" d="M359.1,61.2c0-1.7,1.3-2.9,2.8-2.9c1.6,0,2.9,1.2,2.9,2.9c0,1.5-1.3,2.7-2.9,2.7
		C360.4,64,359.1,62.8,359.1,61.2z"/>
	<g>
		<path class="st39" d="M359.1,61.2c0-1.7,1.3-2.9,2.8-2.9c1.6,0,2.9,1.2,2.9,2.9c0,1.5-1.3,2.7-2.9,2.7
			C360.4,64,359.1,62.8,359.1,61.2"/>
	</g>
</g>
<g>
	<line class="st42" x1="362" y1="204.3" x2="362" y2="196"/>
	<path class="st28" d="M362.1,207.3c-1.6,0-3-1.4-3-3c0-1.8,1.4-3.2,3-3.2c1.8,0,3.2,1.4,3.2,3.2
		C365.3,205.9,363.9,207.3,362.1,207.3"/>
	<path d="M362.1,207.9c-2,0-3.7-1.6-3.7-3.7c0-2.2,1.7-3.8,3.7-3.8v1.1c-1.4,0-2.5,1.1-2.5,2.7c0,1.4,1.1,2.5,2.5,2.5V207.9z
		 M362.1,200.5v1.1c1.5,0,2.7,1.1,2.7,2.7c0,1.4-1.1,2.5-2.7,2.5v1.1c2.2,0,3.8-1.6,3.8-3.7C365.9,202.1,364.2,200.5,362.1,200.5"/>
	<rect x="357.9" y="200.1" class="st28" width="8.5" height="4.1"/>
	<rect x="361.4" y="201" width="1" height="4.2"/>
	<rect x="361.4" y="201" class="st29" width="1" height="4.2"/>
</g>
<rect x="356.6" y="426.4" class="st28" width="12.7" height="6"/>
<rect x="356.7" y="426.4" class="st28" width="12.5" height="6"/>
<text transform="matrix(1 0 0 1 354.6275 431.2679)" class="st11 st12">R 8.0</text>
<rect x="356.1" y="248.1" class="st28" width="12.7" height="6"/>
<rect x="356.2" y="248.1" class="st28" width="12.5" height="6"/>
<text transform="matrix(1 0 0 1 354.6272 253.1744)" class="st11 st12">R 8.0</text>
<g>
	<line class="st42" x1="362.6" y1="448" x2="362.6" y2="456.3"/>
	<path class="st28" d="M362.5,445c1.6,0,3,1.4,3,3c0,1.8-1.4,3.2-3,3.2c-1.8,0-3.2-1.4-3.2-3.2C359.3,446.4,360.7,445,362.5,445"/>
	<path d="M362.5,444.3c2,0,3.7,1.6,3.7,3.7c0,2.2-1.7,3.8-3.7,3.8v-1.1c1.4,0,2.5-1.1,2.5-2.7c0-1.4-1.1-2.5-2.5-2.5V444.3z
		 M362.5,451.8v-1.1c-1.5,0-2.7-1.1-2.7-2.7c0-1.4,1.1-2.5,2.7-2.5v-1.1c-2.2,0-3.8,1.6-3.8,3.7
		C358.7,450.2,360.3,451.8,362.5,451.8"/>
	<rect x="358.2" y="448.1" class="st28" width="8.5" height="4.1"/>
	<rect x="362.1" y="447.1" width="1" height="4.2"/>
	<rect x="362.1" y="447.1" class="st29" width="1" height="4.2"/>
</g>
<g>
	<text transform="matrix(1 0 0 1 348.3167 460.6946)" class="st11 st14">Constant power</text>
</g>
<g>
	<text transform="matrix(1 0 0 1 778.3496 460.6946)" class="st11 st14">Constant power</text>
</g>
<g>
	<line class="st42" x1="782" y1="204.6" x2="782" y2="196.3"/>
	<path class="st28" d="M782.1,207.6c-1.6,0-3-1.4-3-3c0-1.8,1.4-3.2,3-3.2c1.8,0,3.2,1.4,3.2,3.2
		C785.3,206.2,783.9,207.6,782.1,207.6"/>
	<path d="M782.1,208.3c-2,0-3.7-1.6-3.7-3.7c0-2.2,1.7-3.8,3.7-3.8v1.1c-1.4,0-2.5,1.1-2.5,2.7c0,1.4,1.1,2.5,2.5,2.5V208.3z
		 M782.1,200.8v1.1c1.5,0,2.7,1.1,2.7,2.7c0,1.4-1.1,2.5-2.7,2.5v1.1c2.2,0,3.8-1.6,3.8-3.7C785.9,202.4,784.3,200.8,782.1,200.8"/>
	<rect x="778" y="200.4" class="st28" width="8.5" height="4.1"/>
	<rect x="781.5" y="201.3" width="1" height="4.2"/>
	<rect x="781.5" y="201.3" class="st29" width="1" height="4.2"/>
</g>
<g>
	<g>
		<path class="st26" d="M782.1,176.2c-1.2,0-2.2,1-2.2,2.2s1,2.2,2.2,2.2s2.2-1,2.2-2.2S783.3,176.2,782.1,176.2"/>
	</g>
	<g>
		<path class="st26" d="M782.1,160.4c-1.2,0-2.2,1-2.2,2.1c0,1.2,1,2.2,2.2,2.2s2.2-0.9,2.2-2.2
			C784.3,161.4,783.3,160.4,782.1,160.4"/>
	</g>
	<g>
		<path class="st26" d="M780.6,164.2c-0.1,2.5,0.2,3.2,1.3,4.3c1.2,1.2,2.4,1.7,2.8,3.7c0.4,1.6-0.1,3.5-1.1,4.5"/>
	</g>
	<g>
		<path class="st26" d="M783.5,176.8c0.2-0.8,0-2.9-0.7-3.7c-0.9-1.2-2.7-2.1-3.3-4c-0.9-2.8,0.7-4.6,1.1-5"/>
	</g>
</g>
<g>
	<g>
		<line class="st42" x1="782.1" y1="160.4" x2="782.1" y2="61.4"/>
	</g>
</g>
<g>
	<text transform="matrix(1 0 0 1 787.421 175.774)" class="st11 st12">100A</text>
</g>
<g>
	<g>
		<polyline class="st42" points="782.1,180.6 782.1,188.5 782.1,196 		"/>
	</g>
</g>
<path class="st44" d="M263.7,408.8c0,1.7-1.3,2.9-2.8,2.9c-1.6,0-2.9-1.2-2.9-2.9c0-1.5,1.3-2.7,2.9-2.7
	C262.4,406.1,263.7,407.3,263.7,408.8z"/>
<rect x="266.5" y="406.1" class="st37" width="25.3" height="5.6"/>
<text transform="matrix(1 0 0 1 267.1819 411.0314)" class="st11 st12">SP6005</text>
<path class="st44" d="M263.7,267.9c0,1.7-1.3,2.9-2.8,2.9c-1.6,0-2.9-1.2-2.9-2.9c0-1.5,1.3-2.7,2.9-2.7
	C262.4,265.2,263.7,266.4,263.7,267.9z"/>
<rect x="266.5" y="265.2" class="st37" width="25.3" height="5.6"/>
<text transform="matrix(1 0 0 1 267.1819 270.16)" class="st11 st12">SP4915</text>
<text transform="matrix(1 0 0 1 760.5132 575.662)" class="st11 st14">Seat belt buckle signal ground</text>
<g>
	<path class="st43" d="M779.5,61.2c0-1.7,1.3-2.9,2.8-2.9c1.6,0,2.9,1.2,2.9,2.9c0,1.5-1.3,2.7-2.9,2.7
		C780.8,64,779.5,62.8,779.5,61.2z"/>
	<g>
		<path class="st39" d="M779.5,61.2c0-1.7,1.3-2.9,2.8-2.9c1.6,0,2.9,1.2,2.9,2.9c0,1.5-1.3,2.7-2.9,2.7
			C780.8,64,779.5,62.8,779.5,61.2"/>
	</g>
</g>
<g>
	<path class="st3" d="M211.2,482.4H68.8v-25.8h142.4c0,0-1.9,9.2,0.6,13.6C214.4,474.7,211.2,482.4,211.2,482.4z"/>
</g>
<line class="st1" x1="88.9" y1="493.7" x2="88.7" y2="770.8"/>
<g id="RF22_x2C_A3_1_">
	<g>
		<g>
			<path class="st26" d="M198.2,176.3c-1.2,0-2.2,1-2.2,2.2s1,2.2,2.2,2.2s2.2-1,2.2-2.2S199.4,176.3,198.2,176.3"/>
		</g>
		<g>
			<path class="st26" d="M198.2,160.4c-1.2,0-2.2,1-2.2,2.1c0,1.2,1,2.2,2.2,2.2s2.2-0.9,2.2-2.2
				C200.4,161.4,199.4,160.4,198.2,160.4"/>
		</g>
		<g>
			<path class="st26" d="M196.7,164.2c-0.1,2.5,0.2,3.2,1.3,4.3c1.2,1.2,2.4,1.7,2.8,3.7c0.4,1.6-0.1,3.5-1.1,4.5"/>
		</g>
		<g>
			<path class="st26" d="M199.6,176.8c0.2-0.8,0-2.9-0.6-3.7c-0.9-1.2-2.7-2.1-3.3-4c-0.9-2.8,0.7-4.6,1.1-5"/>
		</g>
	</g>
</g>
<g>
	<g>
		<polyline class="st42" points="197.9,160 197.9,157.1 197.9,71.2 		"/>
	</g>
</g>
<line class="st17" x1="198.2" y1="207.5" x2="198.2" y2="447.4"/>
<g>
	<g>
		<polyline class="st27" points="198.2,180.8 198.2,183.7 198.2,196 		"/>
	</g>
</g>
<g id="_x30_2-上针脚_40_">
	<line class="st27" x1="198.2" y1="204.4" x2="198.2" y2="196.2"/>
	<path class="st28" d="M198.1,207.5c-1.7,0-3-1.4-3-3c0-1.8,1.4-3.2,3-3.2c1.8,0,3.2,1.4,3.2,3.2
		C201.3,206.1,199.9,207.5,198.1,207.5"/>
	<path d="M198.2,208.1c-2,0-3.7-1.6-3.7-3.7c0-2.2,1.7-3.8,3.7-3.8v1.2c-1.4,0-2.5,1.1-2.5,2.7c0,1.3,1.1,2.5,2.5,2.5V208.1z
		 M198.2,200.6v1.2c1.5,0,2.7,1.1,2.7,2.7c0,1.3-1.1,2.5-2.7,2.5v1.1c2.2,0,3.8-1.6,3.8-3.7C202,202.3,200.4,200.6,198.2,200.6"/>
	<rect x="194.2" y="200.2" class="st28" width="8.1" height="4.1"/>
	<rect x="197.7" y="201.1" width="1" height="4.2"/>
	<rect x="197.7" y="201.1" class="st29" width="1" height="4.2"/>
</g>
<g id="_x30_2-上针脚_39_">
	<line class="st27" x1="88.9" y1="490.7" x2="88.9" y2="482.5"/>
	<path class="st28" d="M88.8,493.8c-1.7,0-3-1.4-3-3c0-1.8,1.4-3.2,3-3.2c1.8,0,3.2,1.4,3.2,3.2C92,492.4,90.6,493.8,88.8,493.8"/>
	<path d="M88.8,494.4c-2,0-3.7-1.6-3.7-3.7c0-2.2,1.7-3.8,3.7-3.8v1.2c-1.4,0-2.5,1.1-2.5,2.7c0,1.3,1.1,2.5,2.5,2.5V494.4z
		 M88.8,486.9v1.2c1.5,0,2.7,1.1,2.7,2.7c0,1.3-1.1,2.5-2.7,2.5v1.1c2.2,0,3.8-1.6,3.8-3.7C92.6,488.6,91,486.9,88.8,486.9"/>
	<rect x="84.8" y="486.5" class="st28" width="8.1" height="4.1"/>
	<rect x="88.4" y="487.4" width="1" height="4.2"/>
	<rect x="88.4" y="487.4" class="st29" width="1" height="4.2"/>
</g>
<g id="_x30_2-上针脚_38_">
	<line class="st27" x1="200.6" y1="490.7" x2="200.6" y2="482.5"/>
	<path class="st28" d="M200.5,493.8c-1.7,0-3-1.4-3-3c0-1.8,1.4-3.2,3-3.2c1.8,0,3.2,1.4,3.2,3.2
		C203.7,492.4,202.3,493.8,200.5,493.8"/>
	<path d="M200.6,494.4c-2,0-3.7-1.6-3.7-3.7c0-2.2,1.7-3.8,3.7-3.8v1.2c-1.4,0-2.5,1.1-2.5,2.7c0,1.3,1.1,2.5,2.5,2.5V494.4z
		 M200.6,486.9v1.2c1.5,0,2.7,1.1,2.7,2.7c0,1.3-1.1,2.5-2.7,2.5v1.1c2.2,0,3.8-1.6,3.8-3.7S202.8,486.9,200.6,486.9"/>
	<rect x="196.6" y="486.5" class="st28" width="8.1" height="4.1"/>
	<rect x="200.1" y="487.4" width="1" height="4.2"/>
	<rect x="200.1" y="487.4" class="st29" width="1" height="4.2"/>
</g>
<g>
	<rect x="194" y="329.4" class="st28" width="8.5" height="18.8"/>
	<g>
		<g>
			<line class="st45" x1="198.4" y1="339.5" x2="198.4" y2="347.7"/>
		</g>
		<g>
			<line class="st46" x1="198.2" y1="336.3" x2="198.2" y2="329.8"/>
		</g>
		<g>
			<g>
				<g>
					<path class="st28" d="M198.3,336.4c1.7,0,3.2,1.4,3.2,3.2c0,1.8-1.5,3.2-3.2,3.2c-1.8,0-3.2-1.4-3.2-3.2
						S196.5,336.4,198.3,336.4z"/>
					<path class="st10" d="M198.3,335.8c2,0,3.7,1.8,3.7,3.8h-1.1c0-1.4-1.1-2.5-2.5-2.5c-1.5,0-2.7,1.1-2.7,2.5h-1.1
						C194.5,337.6,196.1,335.8,198.3,335.8L198.3,335.8z M202,339.6h-1.1c0,1.4-1.1,2.5-2.5,2.5c-1.5,0-2.7-1.1-2.7-2.5h-1.1
						c0,2.2,1.6,3.8,3.8,3.8C200.3,343.4,202,341.8,202,339.6z"/>
				</g>
				<rect x="194" y="339.7" class="st28" width="8.5" height="4.1"/>
				<rect x="197.9" y="338.7" class="st10" width="1" height="4.2"/>
				<rect x="197.9" y="338.7" class="st29" width="1" height="4.2"/>
			</g>
		</g>
	</g>
</g>
<g id="_x30_2-上针脚_37_">
	<line class="st27" x1="198.2" y1="448.3" x2="198.2" y2="456.5"/>
	<path class="st28" d="M198.1,445.2c-1.7,0-3,1.4-3,3c0,1.8,1.4,3.2,3,3.2c1.8,0,3.2-1.4,3.2-3.2
		C201.3,446.6,199.9,445.2,198.1,445.2"/>
	<path d="M198.2,445.7c-1.4,0-2.5,1.2-2.5,2.5c0,1.6,1.1,2.7,2.5,2.7v1.2c-2,0-3.7-1.6-3.7-3.8c0-2.1,1.7-3.7,3.7-3.7V445.7z
		 M198.2,452.1c2.2,0,3.8-1.7,3.8-3.8s-1.6-3.7-3.8-3.7v1.1c1.6,0,2.7,1.2,2.7,2.5c0,1.6-1.2,2.7-2.7,2.7V452.1"/>
	<rect x="194.2" y="448.4" class="st28" width="8.1" height="4.1"/>
	<rect x="197.7" y="447.4" width="1" height="4.2"/>
	<rect x="197.7" y="447.4" class="st29" width="1" height="4.2"/>
</g>
<g id="_x30_2-上针脚_2_">
	<line class="st27" x1="88.2" y1="448.3" x2="88.2" y2="456.5"/>
	<path class="st28" d="M88.1,445.2c-1.7,0-3,1.4-3,3c0,1.8,1.4,3.2,3,3.2c1.8,0,3.2-1.4,3.2-3.2C91.3,446.6,89.9,445.2,88.1,445.2"
		/>
	<path d="M88.2,445.7c-1.4,0-2.5,1.2-2.5,2.5c0,1.6,1.1,2.7,2.5,2.7v1.2c-2,0-3.7-1.6-3.7-3.8c0-2.1,1.7-3.7,3.7-3.7V445.7z
		 M88.2,452.1c2.2,0,3.8-1.7,3.8-3.8s-1.6-3.7-3.8-3.7v1.1c1.6,0,2.7,1.2,2.7,2.5c0,1.6-1.2,2.7-2.7,2.7V452.1"/>
	<rect x="84.2" y="448.4" class="st28" width="8.1" height="4.1"/>
	<rect x="87.7" y="447.4" width="1" height="4.2"/>
	<rect x="87.7" y="447.4" class="st29" width="1" height="4.2"/>
</g>
<g id="_x30_2-上针脚_6_">
	<line class="st27" x1="139.9" y1="448.3" x2="139.9" y2="456.5"/>
	<path class="st28" d="M139.8,445.2c-1.7,0-3,1.4-3,3c0,1.8,1.4,3.2,3,3.2c1.8,0,3.2-1.4,3.2-3.2C143,446.6,141.6,445.2,139.8,445.2
		"/>
	<path d="M139.8,445.7c-1.4,0-2.5,1.2-2.5,2.5c0,1.6,1.1,2.7,2.5,2.7v1.2c-2,0-3.7-1.6-3.7-3.8c0-2.1,1.7-3.7,3.7-3.7V445.7z
		 M139.8,452.1c2.2,0,3.8-1.7,3.8-3.8s-1.6-3.7-3.8-3.7v1.1c1.6,0,2.7,1.2,2.7,2.5c0,1.6-1.2,2.7-2.7,2.7V452.1"/>
	<rect x="135.8" y="448.4" class="st28" width="8.1" height="4.1"/>
	<rect x="139.4" y="447.4" width="1" height="4.2"/>
	<rect x="139.4" y="447.4" class="st29" width="1" height="4.2"/>
</g>
<g>
	<g>
		<line class="st34" x1="88.8" y1="766.2" x2="88.8" y2="770.9"/>
	</g>
	<g>
		<line class="st34" x1="81.8" y1="770.9" x2="95.6" y2="770.9"/>
	</g>
	<g>
		<line class="st34" x1="84.6" y1="773.1" x2="92.8" y2="773.1"/>
	</g>
	<g>
		<line class="st34" x1="91.2" y1="775.2" x2="86.3" y2="775.2"/>
	</g>
</g>
<rect x="79.1" y="777.7" class="st28" width="19.3" height="8.2"/>
<rect x="79.4" y="778.1" class="st35" width="18.7" height="7.6"/>
<g>
	<path class="st38" d="M195.1,71.3c0-1.7,1.3-2.8,2.8-2.8c1.6,0,2.9,1.2,2.9,2.8c0,1.5-1.3,2.6-2.9,2.6
		C196.4,74,195.1,72.9,195.1,71.3z"/>
	<g>
		<path class="st39" d="M195.1,71.3c0-1.7,1.3-2.8,2.8-2.8c1.6,0,2.9,1.2,2.9,2.8c0,1.5-1.3,2.6-2.9,2.6
			C196.4,74,195.1,72.9,195.1,71.3"/>
	</g>
</g>
<g id="保险丝_2_">
	<g>
		<g>
			<text transform="matrix(1 0 0 1 206.9855 175.4832)" class="st11 st12">10A</text>
		</g>
	</g>
</g>
<g>
	<text transform="matrix(1 0 0 1 84.8534 480.5286)" class="st11 st14">Ground</text>
</g>
<rect x="191.9" y="239.7" class="st28" width="12.7" height="6"/>
<rect x="192" y="239.7" class="st28" width="12.5" height="6"/>
<text transform="matrix(1 0 0 1 190.4672 244.5549)" class="st11 st12">R 0.5</text>
<rect x="192" y="426.6" class="st28" width="12.5" height="6"/>
<text transform="matrix(1 0 0 1 190.4671 432.0173)" class="st11 st12">R 0.5</text>
<g>
	<rect x="256.9" y="331.6" class="st28" width="8.5" height="18.8"/>
	<g>
		<g>
			<line class="st45" x1="261" y1="340.3" x2="261" y2="332.1"/>
		</g>
		<g>
			<line class="st46" x1="261.2" y1="343.5" x2="261.2" y2="350"/>
		</g>
		<g>
			<g>
				<g>
					<path class="st28" d="M261.1,343.4c-1.7,0-3.2-1.4-3.2-3.2c0-1.8,1.5-3.2,3.2-3.2c1.8,0,3.2,1.4,3.2,3.2
						C264.3,342,262.9,343.4,261.1,343.4z"/>
					<path class="st10" d="M261.1,344c-2,0-3.7-1.8-3.7-3.8h1.1c0,1.4,1.1,2.5,2.5,2.5c1.5,0,2.7-1.1,2.7-2.5h1.1
						C264.9,342.2,263.3,344,261.1,344L261.1,344z M257.4,340.2h1.1c0-1.4,1.1-2.5,2.5-2.5c1.5,0,2.7,1.1,2.7,2.5h1.1
						c0-2.2-1.6-3.8-3.8-3.8C259.1,336.4,257.4,338,257.4,340.2z"/>
				</g>
				<rect x="256.9" y="336" class="st28" width="8.5" height="4.1"/>
				<rect x="260.5" y="336.9" class="st10" width="1" height="4.2"/>
				<rect x="260.5" y="336.9" class="st29" width="1" height="4.2"/>
			</g>
		</g>
	</g>
</g>
<rect x="194.4" y="520.1" class="st28" width="12.5" height="6"/>
<text transform="matrix(1 0 0 1 191.2495 524.9063)" class="st11 st12">Y 0.35</text>
<rect x="252" y="520.1" class="st28" width="12.5" height="6"/>
<text transform="matrix(1 0 0 1 248.8202 524.9063)" class="st11 st12">Y 0.35</text>
<rect x="82.5" y="520" class="st28" width="12.5" height="6"/>
<g>
	<text transform="matrix(1 0 0 1 80.8145 524.8445)" class="st11 st12">B 0.5</text>
</g>
<rect x="82.5" y="715.4" class="st28" width="12.5" height="6"/>
<g>
	<text transform="matrix(1 0 0 1 80.8144 720.2665)" class="st11 st12">B 0.5</text>
</g>
<g>
	<text transform="matrix(1 0 0 1 180.6361 480.5002)" class="st11 st14">Impact signal</text>
</g>
<g>
	<text transform="matrix(1 0 0 1 175.7484 460.8242)" class="st11 st14">IG1 power supply</text>
</g>
<g>
	<text transform="matrix(1 0 0 1 80.5455 460.8242)" class="st11 st14">CAN_L</text>
</g>
<g>
	<text transform="matrix(1 0 0 1 132.5455 460.8242)" class="st11 st14">CAN_H</text>
</g>
<line class="st30" x1="918.3" y1="331.6" x2="918.3" y2="445.7"/>
<line class="st31" x1="866.9" y1="331.6" x2="866.9" y2="445.2"/>
<path class="st33" d="M863.2,390.7c-1.9,0-3.5-1.5-3.5-3.5c0-1.9,1.6-3.5,3.5-3.5l57.7,6.9c1.9,0,3.5-1.5,3.5-3.5
	c0-1.9-1.6-3.5-3.5-3.5L863.2,390.7z"/>
<g>
	<rect x="914.6" y="426.4" class="st28" width="5.9" height="6"/>
	<g>
		<text transform="matrix(1 0 0 1 909.535 431.623)" class="st11 st12">P 0.35</text>
	</g>
</g>
<rect x="859" y="426.8" class="st28" width="13.7" height="6"/>
<g>
	<text transform="matrix(1 0 0 1 856.4583 431.614)" class="st11 st12">V 0.35</text>
</g>
<path class="st32" d="M919.9,330.1l-0.6-2.1c0,0-0.6-2.5-3.3-2.6h-22.1l0,0l-1.9-2.7l-1.9,2.7c-9,0-22.1,0-22.1,0
	c-2.7,0.1-3.3,2.6-3.3,2.6l-0.6,2.1"/>
<text transform="matrix(1 0 0 1 822.0323 320.3)" class="st11 st12">See Body Network System - Circuit Diagram</text>
<g id="_x30_2-上针脚_11_">
	<line class="st27" x1="866.7" y1="448.3" x2="866.7" y2="456.5"/>
	<path class="st28" d="M866.6,445.2c-1.7,0-3,1.4-3,3c0,1.8,1.4,3.2,3,3.2c1.8,0,3.2-1.4,3.2-3.2
		C869.8,446.6,868.4,445.2,866.6,445.2"/>
	<path d="M866.7,445.7c-1.4,0-2.5,1.2-2.5,2.5c0,1.6,1.1,2.7,2.5,2.7v1.2c-2,0-3.7-1.6-3.7-3.8c0-2.1,1.7-3.7,3.7-3.7V445.7z
		 M866.7,452.1c2.2,0,3.8-1.7,3.8-3.8s-1.6-3.7-3.8-3.7v1.1c1.6,0,2.7,1.2,2.7,2.5c0,1.6-1.2,2.7-2.7,2.7V452.1"/>
	<rect x="862.7" y="448.4" class="st28" width="8.1" height="4.1"/>
	<rect x="866.2" y="447.4" width="1" height="4.2"/>
	<rect x="866.2" y="447.4" class="st29" width="1" height="4.2"/>
</g>
<g id="_x30_2-上针脚_7_">
	<line class="st27" x1="918.4" y1="448.3" x2="918.4" y2="456.5"/>
	<path class="st28" d="M918.3,445.2c-1.7,0-3,1.4-3,3c0,1.8,1.4,3.2,3,3.2c1.8,0,3.2-1.4,3.2-3.2
		C921.5,446.6,920.1,445.2,918.3,445.2"/>
	<path d="M918.3,445.7c-1.4,0-2.5,1.2-2.5,2.5c0,1.6,1.1,2.7,2.5,2.7v1.2c-2,0-3.7-1.6-3.7-3.8c0-2.1,1.7-3.7,3.7-3.7V445.7z
		 M918.3,452.1c2.2,0,3.8-1.7,3.8-3.8s-1.6-3.7-3.8-3.7v1.1c1.6,0,2.7,1.2,2.7,2.5c0,1.6-1.2,2.7-2.7,2.7V452.1"/>
	<rect x="914.3" y="448.4" class="st28" width="8.1" height="4.1"/>
	<rect x="917.9" y="447.4" width="1" height="4.2"/>
	<rect x="917.9" y="447.4" class="st29" width="1" height="4.2"/>
</g>
<g>
	<text transform="matrix(1 0 0 1 859.0302 460.8242)" class="st11 st14">CAN_L</text>
</g>
<g>
	<text transform="matrix(1 0 0 1 911.0303 460.8242)" class="st11 st14">CAN_H</text>
</g>
<g>
	<defs>
		<rect id="SVGID_7_" x="197.9" y="567.6" width="6.2" height="6.1"/>
	</defs>
	<clipPath id="SVGID_8_">
		<use xlink:href="#SVGID_7_"  style="overflow:visible;"/>
	</clipPath>
	<g style="clip-path:url(#SVGID_8_);">
		
			<use xlink:href="#交点"  width="6.2" height="6.1" x="-3.1" y="-3.1" transform="matrix(1 0 0 -1 200.9499 570.6851)" style="overflow:visible;"/>
	</g>
</g>
<rect x="204.6" y="561.3" class="st37" width="24.5" height="5.6"/>
<text transform="matrix(1 0 0 1 205.2518 566.166)" class="st11 st12">SP4897</text>
<line class="st47" x1="414.9" y1="491.7" x2="414.9" y2="769.3"/>
<g>
	<line class="st42" x1="414.9" y1="490.8" x2="414.9" y2="482.6"/>
	<path class="st28" d="M415,493.9c-1.7,0-3-1.4-3-3c0-1.8,1.4-3.2,3-3.2c1.8,0,3.2,1.4,3.2,3.2C418.2,492.5,416.8,493.9,415,493.9"
		/>
	<path d="M415,494.5c-2,0-3.7-1.6-3.7-3.7c0-2.2,1.7-3.8,3.7-3.8v1.1c-1.4,0-2.5,1.1-2.5,2.7c0,1.4,1.1,2.5,2.5,2.5V494.5z M415,487
		v1.1c1.5,0,2.7,1.1,2.7,2.7c0,1.4-1.1,2.5-2.7,2.5v1.1c2.2,0,3.8-1.6,3.8-3.7C418.8,488.7,417.2,487,415,487"/>
	<rect x="410.8" y="486.6" class="st28" width="8.5" height="4.1"/>
	<rect x="414.4" y="487.5" width="1" height="4.2"/>
	<rect x="414.4" y="487.5" class="st29" width="1" height="4.2"/>
</g>
<line class="st47" x1="465" y1="491.7" x2="465" y2="769.9"/>
<g>
	<line class="st42" x1="465.1" y1="490.8" x2="465.1" y2="482.6"/>
	<path class="st28" d="M465.2,493.9c-1.6,0-3-1.4-3-3c0-1.8,1.4-3.2,3-3.2c1.8,0,3.2,1.4,3.2,3.2C468.4,492.5,467,493.9,465.2,493.9
		"/>
	<path d="M465.2,494.5c-2,0-3.7-1.6-3.7-3.7c0-2.2,1.7-3.8,3.7-3.8v1.1c-1.4,0-2.5,1.1-2.5,2.7c0,1.4,1.1,2.5,2.5,2.5V494.5z
		 M465.2,487v1.1c1.5,0,2.7,1.1,2.7,2.7c0,1.4-1.1,2.5-2.7,2.5v1.1c2.2,0,3.8-1.6,3.8-3.7C469,488.7,467.4,487,465.2,487"/>
	<rect x="461" y="486.6" class="st28" width="8.5" height="4.1"/>
	<rect x="464.6" y="487.5" width="1" height="4.2"/>
	<rect x="464.6" y="487.5" class="st29" width="1" height="4.2"/>
</g>
<g id="GB031_1_">
	<g>
		<g>
			<line class="st34" x1="414.9" y1="768.1" x2="414.9" y2="770.8"/>
		</g>
		<g>
			<line class="st34" x1="407.9" y1="770.8" x2="421.7" y2="770.8"/>
		</g>
		<g>
			<line class="st34" x1="410.7" y1="773" x2="418.9" y2="773"/>
		</g>
		<g>
			<line class="st34" x1="417.2" y1="775.1" x2="412.4" y2="775.1"/>
		</g>
	</g>
	<g>
		<rect x="404.5" y="777.6" class="st28" width="20.3" height="8.2"/>
		<rect x="404.8" y="778" class="st35" width="19.7" height="7.6"/>
	</g>
</g>
<g id="GB031_7_">
	<g>
		<g>
			<line class="st34" x1="465.1" y1="768.1" x2="465.1" y2="770.8"/>
		</g>
		<g>
			<line class="st34" x1="458.1" y1="770.8" x2="471.9" y2="770.8"/>
		</g>
		<g>
			<line class="st34" x1="460.9" y1="773" x2="469.1" y2="773"/>
		</g>
		<g>
			<line class="st34" x1="467.4" y1="775.1" x2="462.6" y2="775.1"/>
		</g>
	</g>
	<g>
		<rect x="454.7" y="777.6" class="st28" width="20.3" height="8.2"/>
		<rect x="455" y="778" class="st35" width="19.7" height="7.6"/>
	</g>
</g>
<line class="st47" x1="361.9" y1="492.3" x2="361.9" y2="769.7"/>
<rect x="355.7" y="519.8" class="st28" width="12.5" height="6"/>
<text transform="matrix(1 0 0 1 354.4095 524.9741)" class="st11 st12">B 2.5</text>
<rect x="408.7" y="519.8" class="st28" width="12.5" height="6"/>
<text transform="matrix(1 0 0 1 407.4097 524.9741)" class="st11 st12">B 2.5</text>
<rect x="458.8" y="519.8" class="st28" width="12.5" height="6"/>
<text transform="matrix(1 0 0 1 455.6496 524.9741)" class="st11 st12">B 0.75</text>
<rect x="357.2" y="715.2" class="st28" width="12.5" height="6"/>
<text transform="matrix(1 0 0 1 355.9424 720.3718)" class="st11 st12">B 2.5</text>
<rect x="410.2" y="715.2" class="st28" width="12.5" height="6"/>
<text transform="matrix(1 0 0 1 408.9426 720.3718)" class="st11 st12">B 2.5</text>
<rect x="460.3" y="715.2" class="st28" width="12.5" height="6"/>
<text transform="matrix(1 0 0 1 457.1824 720.3718)" class="st11 st12">B 0.75</text>
<g>
	<line class="st42" x1="362" y1="490.8" x2="362" y2="482.6"/>
	<path class="st28" d="M362.1,493.9c-1.6,0-3-1.4-3-3c0-1.8,1.4-3.2,3-3.2c1.8,0,3.2,1.4,3.2,3.2
		C365.3,492.5,363.9,493.9,362.1,493.9"/>
	<path d="M362.1,494.5c-2,0-3.7-1.6-3.7-3.7c0-2.2,1.7-3.8,3.7-3.8v1.1c-1.4,0-2.5,1.1-2.5,2.7c0,1.4,1.1,2.5,2.5,2.5V494.5z
		 M362.1,487v1.1c1.5,0,2.7,1.1,2.7,2.7c0,1.4-1.1,2.5-2.7,2.5v1.1c2.2,0,3.8-1.6,3.8-3.7C365.9,488.7,364.3,487,362.1,487"/>
	<rect x="357.9" y="486.6" class="st28" width="8.5" height="4.1"/>
	<rect x="361.5" y="487.5" width="1" height="4.2"/>
	<rect x="361.5" y="487.5" class="st29" width="1" height="4.2"/>
</g>
<g id="GB031_3_">
	<g>
		<g>
			<line class="st34" x1="362.1" y1="768.1" x2="362.1" y2="770.8"/>
		</g>
		<g>
			<line class="st34" x1="355.1" y1="770.8" x2="368.9" y2="770.8"/>
		</g>
		<g>
			<line class="st34" x1="357.9" y1="773" x2="366.1" y2="773"/>
		</g>
		<g>
			<line class="st34" x1="364.4" y1="775.1" x2="359.6" y2="775.1"/>
		</g>
	</g>
	<g>
		<rect x="351.7" y="777.6" class="st28" width="20.3" height="8.2"/>
		<rect x="352" y="778" class="st35" width="19.7" height="7.6"/>
	</g>
</g>
<g>
	<text transform="matrix(1 0 0 1 354.124 480.696)" class="st11 st14">Power ground 1</text>
</g>
<g>
	<text transform="matrix(1 0 0 1 405.7907 480.696)" class="st11 st14">Power ground 2</text>
</g>
<g>
	<text transform="matrix(1 0 0 1 458.095 480.696)" class="st11 st14">Signal ground</text>
</g>
<text transform="matrix(1 0 0 1 407.2183 783.9092)" class="st48 st11 st12">Ek02</text>
<text transform="matrix(1 0 0 1 457.3995 783.9092)" class="st48 st11 st12">Eb01</text>
<text transform="matrix(1 0 0 1 354.3887 783.9092)" class="st48 st11 st12">Ek01</text>
<text transform="matrix(1 0 0 1 757.2767 560.4402)" class="st11 st14">Seat belt alarm sensor signal</text>
<line class="st8" x1="781.5" y1="664.2" x2="781.5" y2="655.8"/>
<g>
	<text transform="matrix(1 0 0 1 449.9607 471.9)" class="st48 st11 st49">Left domain control module</text>
</g>
<g>
	<text transform="matrix(1 0 0 1 849.6238 471.9001)" class="st48 st11 st49">Right domain control module</text>
</g>
<g>
	<g>
		<text transform="matrix(1 0 0 1 277.7545 203.0648)" class="st48 st11 st12">-9</text>
	</g>
</g>
<g>
	<g>
		<text transform="matrix(1 0 0 1 563.5472 489.6506)" class="st48 st11 st12">-3</text>
	</g>
</g>
<g>
	<g>
		<text transform="matrix(1 0 0 1 735.7022 234.9113)" class="st48 st11 st12">-4</text>
	</g>
</g>
<g>
	<g>
		<text transform="matrix(1 0 0 1 581.7943 365.2004)" class="st48 st11 st12">-2</text>
	</g>
</g>
<g>
	<g>
		<text transform="matrix(1 0 0 1 652.8425 365.2006)" class="st48 st11 st12">-4</text>
	</g>
</g>
<g>
	<g>
		<text transform="matrix(1 0 0 1 475.5407 365.2006)" class="st48 st11 st12">-1</text>
	</g>
</g>
<g>
	<g>
		<text transform="matrix(1 0 0 1 583.5822 234.9113)" class="st48 st11 st12">-3</text>
	</g>
</g>
<g>
	<g>
		<text transform="matrix(1 0 0 1 653.8322 234.9113)" class="st48 st11 st12">-2</text>
	</g>
</g>
<g>
	<g>
		<text transform="matrix(1 0 0 1 475.7752 234.9113)" class="st48 st11 st12">-1</text>
	</g>
</g>
<g>
	<g>
		<text transform="matrix(1 0 0 1 807.1024 699.584)" class="st48 st11 st12">-2</text>
	</g>
</g>
<g>
	<g>
		<text transform="matrix(1 0 0 1 708.0806 489.6506)" class="st48 st11 st12">-56</text>
	</g>
</g>
<g>
	<g>
		<text transform="matrix(1 0 0 1 656.4127 489.6506)" class="st48 st11 st12">-57</text>
	</g>
</g>
<g>
	<g>
		<text transform="matrix(1 0 0 1 813.3278 552.5652)" class="st48 st11 st12">-11</text>
	</g>
</g>
<g>
	<g>
		<text transform="matrix(1 0 0 1 265.0279 203.0648)" class="st48 st11 st12">B1D</text>
	</g>
</g>
<g>
	<g>
		<text transform="matrix(1 0 0 1 287.8603 453.1357)" class="st48 st11 st12">-11</text>
	</g>
</g>
<g>
	<g>
		<text transform="matrix(1 0 0 1 291.3567 489.6505)" class="st48 st11 st12">-50</text>
	</g>
</g>
<g>
	<g>
		<text transform="matrix(1 0 0 1 587.8769 453.136)" class="st48 st11 st12">-24</text>
	</g>
</g>
<g>
	<g>
		<text transform="matrix(1 0 0 1 656.9415 453.1361)" class="st48 st11 st12">-25</text>
	</g>
</g>
<g>
	<g>
		<text transform="matrix(1 0 0 1 480.2711 453.1361)" class="st48 st11 st12">-23</text>
	</g>
</g>
<g>
	<g>
		<text transform="matrix(1 0 0 1 581.7545 315.9006)" class="st48 st11 st12">-1</text>
	</g>
</g>
<g>
	<g>
		<text transform="matrix(1 0 0 1 652.0046 315.9006)" class="st48 st11 st12">-3</text>
	</g>
</g>
<g>
	<g>
		<text transform="matrix(1 0 0 1 474.7032 315.9006)" class="st48 st11 st12">-2</text>
	</g>
</g>
<g>
	<g>
		<text transform="matrix(1 0 0 1 266.3707 453.1357)" class="st48 st11 st12">G64(G)</text>
	</g>
</g>
<g>
	<g>
		<text transform="matrix(1 0 0 1 265.7603 489.6505)" class="st48 st11 st12">KG64(D)</text>
	</g>
</g>
<g>
	<text transform="matrix(1 0 0 1 264.877 169.1558)" class="st48 st11 st12">F1/12</text>
</g>
<g>
	<text transform="matrix(1 0 0 1 788.6998 600.6)" class="st40"><tspan x="0" y="0" class="st48 st11 st12">Front Passenger</tspan><tspan x="0" y="7.2" class="st48 st11 st12"> Seat Connector</tspan></text>
</g>
<g>
	<g id="FB103_14_">
		<g>
			<g id="FB103_30_">
				<g>
					<text transform="matrix(1 0 0 1 554.4851 587.7186)" class="st48 st11 st12">Driver seat belt switch</text>
				</g>
			</g>
		</g>
	</g>
</g>
<g>
	<g id="FB103_6_">
		<g>
			<g id="FB103_7_">
				<g>
					<text transform="matrix(1 0 0 1 803.1429 673.5952)" class="st40"><tspan x="0" y="0" class="st48 st11 st12">Front passenger </tspan><tspan x="0" y="7.2" class="st48 st11 st12">seat belt buckle</tspan></text>
				</g>
			</g>
		</g>
	</g>
</g>
<g>
	<g>
		<text transform="matrix(1 0 0 1 525.2075 784.0081)" class="st48 st11 st12">Ek01</text>
	</g>
</g>
<g>
	<g>
		<text transform="matrix(1 0 0 1 549.4926 566.8621)" class="st48 st11 st12">-1</text>
	</g>
</g>
<g>
	<g>
		<text transform="matrix(1 0 0 1 537.8207 566.8621)" class="st48 st11 st12">K01</text>
	</g>
</g>
<g>
	<g>
		<text transform="matrix(1 0 0 1 537.7894 489.6506)" class="st48 st11 st12">KG64(D)</text>
	</g>
</g>
<g>
	<g>
		<text transform="matrix(1 0 0 1 549.2369 613.1506)" class="st48 st11 st12">-2</text>
	</g>
</g>
<g>
	<g>
		<text transform="matrix(1 0 0 1 537.565 613.1506)" class="st48 st11 st12">K01</text>
	</g>
</g>
<g>
	<g>
		<text transform="matrix(1 0 0 1 812.8505 490.6122)" class="st48 st11 st12">-14</text>
	</g>
</g>
<g>
	<g>
		<text transform="matrix(1 0 0 1 812.1269 453.1361)" class="st48 st11 st12">-1</text>
	</g>
</g>
<g>
	<g>
		<text transform="matrix(1 0 0 1 787.4208 490.6122)" class="st48 st11 st12">KG86(E)</text>
	</g>
</g>
<g>
	<g>
		<text transform="matrix(1 0 0 1 88.4 170.5498)" class="st48 st11 st12">Front compartment fuse box</text>
	</g>
	<g>
		<text transform="matrix(1 0 0 1 88.4 177.7498)" class="st48 st11 st12">  </text>
	</g>
</g>
<g id="FB103_10_">
	<g>
		<text transform="matrix(1 0 0 1 544.1551 213.8542)" class="st48 st11 st12">Rear seat belt alarm sensor</text>
	</g>
</g>
<g>
	<g>
		<text transform="matrix(1 0 0 1 715.0538 234.9113)" class="st48 st11 st12">K02(C)</text>
	</g>
</g>
<g>
	<text transform="matrix(1 0 0 1 702.5861 420.9757)" class="st48 st11 st12">Ek05</text>
</g>
<g>
	<text transform="matrix(1 0 0 1 774.3462 783.7722)" class="st48 st11 st12">Ek09</text>
</g>
<g>
	<g>
		<text transform="matrix(1 0 0 1 561.4271 365.2004)" class="st48 st11 st12">K68(B)</text>
	</g>
</g>
<g>
	<g>
		<text transform="matrix(1 0 0 1 632.4753 365.2006)" class="st48 st11 st12">K68(B)</text>
	</g>
</g>
<g>
	<g>
		<text transform="matrix(1 0 0 1 562.1191 453.136)" class="st48 st11 st12">KG64(D)</text>
	</g>
</g>
<g>
	<g>
		<text transform="matrix(1 0 0 1 631.1837 453.1361)" class="st48 st11 st12">KG64(D)</text>
	</g>
</g>
<g>
	<g>
		<text transform="matrix(1 0 0 1 786.6503 453.1361)" class="st48 st11 st12">BG86(A)</text>
	</g>
</g>
<g>
	<g>
		<text transform="matrix(1 0 0 1 455.1266 365.2006)" class="st48 st11 st12">K68(A)</text>
	</g>
</g>
<g>
	<g>
		<text transform="matrix(1 0 0 1 454.5133 453.1361)" class="st48 st11 st12">KG64(D)</text>
	</g>
</g>
<g>
	<g id="FB103_5_">
		<g>
			<g id="FB103_8_">
				<g>
					<text transform="matrix(1 0 0 1 465.6002 373.5449)" class="st40"><tspan x="0" y="0" class="st48 st11 st12">Rear row left</tspan><tspan x="0" y="7.2" class="st48 st11 st12"> seat belt buckle</tspan></text>
				</g>
			</g>
		</g>
	</g>
</g>
<g>
	<g>
		<text transform="matrix(1 0 0 1 561.3873 315.9006)" class="st48 st11 st12">K68(B)</text>
	</g>
</g>
<g>
	<g>
		<text transform="matrix(1 0 0 1 631.6374 315.9006)" class="st48 st11 st12">K68(B)</text>
	</g>
</g>
<g>
	<g>
		<text transform="matrix(1 0 0 1 454.2891 315.9006)" class="st48 st11 st12">K68(A)</text>
	</g>
</g>
<g>
	<g>
		<text transform="matrix(1 0 0 1 562.9338 234.9113)" class="st48 st11 st12">K02(C)</text>
	</g>
</g>
<g>
	<g>
		<text transform="matrix(1 0 0 1 633.1838 234.9113)" class="st48 st11 st12">K02(C)</text>
	</g>
</g>
<g>
	<g>
		<text transform="matrix(1 0 0 1 455.1267 234.9113)" class="st48 st11 st12">K02(C)</text>
	</g>
</g>
<g>
	<g>
		<text transform="matrix(1 0 0 1 786.8055 699.584)" class="st48 st11 st12">K02(A)</text>
	</g>
</g>
<g>
	<g>
		<text transform="matrix(1 0 0 1 896.4628 489.6504)" class="st48 st11 st12">-1</text>
	</g>
</g>
<g>
	<g>
		<text transform="matrix(1 0 0 1 947.4973 489.6504)" class="st48 st11 st12">-43</text>
	</g>
</g>
<g>
	<g>
		<text transform="matrix(1 0 0 1 997.7379 489.6504)" class="st48 st11 st12">-1</text>
	</g>
</g>
<g>
	<g>
		<text transform="matrix(1 0 0 1 894.124 453.136)" class="st48 st11 st12">-5</text>
	</g>
</g>
<g>
	<g>
		<text transform="matrix(1 0 0 1 871.0331 489.6504)" class="st48 st11 st12">BG86(B)</text>
	</g>
</g>
<g>
	<text transform="matrix(1 0 0 1 859.0585 784.0675)" class="st48 st11 st12">Eb04</text>
</g>
<g>
	<g>
		<text transform="matrix(1 0 0 1 922.0676 489.6504)" class="st48 st11 st12">BG86(B)</text>
	</g>
</g>
<g>
	<text transform="matrix(1 0 0 1 910.093 784.0675)" class="st48 st11 st12">Eb08</text>
</g>
<g>
	<g>
		<text transform="matrix(1 0 0 1 971.9568 489.6504)" class="st48 st11 st12">KG86(D)</text>
	</g>
</g>
<g>
	<text transform="matrix(1 0 0 1 959.9822 784.0675)" class="st48 st11 st12">Ek11</text>
</g>
<g>
	<g>
		<text transform="matrix(1 0 0 1 686.3306 489.6506)" class="st48 st11 st12">G64(G)</text>
	</g>
</g>
<g>
	<g>
		<text transform="matrix(1 0 0 1 634.6627 489.6506)" class="st48 st11 st12">G64(G)</text>
	</g>
</g>
<g>
	<g>
		<text transform="matrix(1 0 0 1 872.3506 453.136)" class="st48 st11 st12">G86(G)</text>
	</g>
</g>
<g>
	<g>
		<text transform="matrix(1 0 0 1 945.9309 453.136)" class="st48 st11 st12">-4</text>
	</g>
</g>
<g>
	<g>
		<text transform="matrix(1 0 0 1 924.1575 453.136)" class="st48 st11 st12">G86(G)</text>
	</g>
</g>
<g>
	<text transform="matrix(1 0 0 1 806.0931 203.0649)" class="st48 st11 st12">-1</text>
</g>
<g>
	<text transform="matrix(1 0 0 1 787.4213 203.0649)" class="st48 st11 st12">B46_5</text>
</g>
<g>
	<text transform="matrix(1 0 0 1 385.0065 203.0649)" class="st48 st11 st12">-1</text>
</g>
<g>
	<text transform="matrix(1 0 0 1 401.4802 453.1354)" class="st48 st11 st12">-1</text>
</g>
<g>
	<text transform="matrix(1 0 0 1 368.6938 453.1354)" class="st48 st11 st12">BG64(A)_4</text>
</g>
<g>
	<text transform="matrix(1 0 0 1 366.3346 203.0649)" class="st48 st11 st12">B46_3</text>
</g>
<g>
	<text transform="matrix(1 0 0 1 367.1641 169.1558)" class="st48 st11 st12">F4/03</text>
</g>
<g>
	<text transform="matrix(1 0 0 1 787.2164 169.1558)" class="st48 st11 st12">F4/05</text>
</g>
<g>
	<g>
		<text transform="matrix(1 0 0 1 402.2275 168.79)" class="st48 st11 st12">Positive fuse box</text>
	</g>
</g>
<g>
	<g>
		<text transform="matrix(1 0 0 1 824.9736 168.79)" class="st48 st11 st12">Positive fuse box</text>
	</g>
</g>
<g>
	<g>
		<text transform="matrix(1 0 0 1 785.5074 552.5652)" class="st48 st11 st12">K02(A)_2</text>
	</g>
</g>
<g>
	<g>
		<text transform="matrix(1 0 0 1 215.0892 203.0641)" class="st48 st11 st12">-27</text>
	</g>
</g>
<g>
	<g>
		<text transform="matrix(1 0 0 1 230.065 490.5674)" class="st48 st11 st12">-30</text>
	</g>
</g>
<g>
	<g>
		<text transform="matrix(1 0 0 1 116.4348 490.5959)" class="st48 st11 st12">-20</text>
	</g>
</g>
<g>
	<g>
		<text transform="matrix(1 0 0 1 93.2004 490.5959)" class="st48 st11 st12">KG10_1</text>
	</g>
</g>
<g>
	<text transform="matrix(1 0 0 1 206.7818 168.8647)" class="st48 st11 st12">F1/38</text>
</g>
<g>
	<text transform="matrix(1 0 0 1 81.276 784.0045)" class="st48 st11 st12">Ek10</text>
</g>
<g>
	<text transform="matrix(1 0 0 1 203.8132 337.5165)" class="st48 st11 st12">BJK01</text>
</g>
<g>
	<text transform="matrix(1 0 0 1 203.8132 343.5165)" class="st48 st11 st12">KJB01</text>
</g>
<g>
	<text transform="matrix(1 0 0 1 221.7299 343.5165)" class="st48 st11 st12">-31</text>
</g>
<g>
	<text transform="matrix(1 0 0 1 266.7264 339.7166)" class="st48 st11 st12">BJG01</text>
</g>
<g>
	<text transform="matrix(1 0 0 1 266.7264 345.7166)" class="st48 st11 st12">GJB01</text>
</g>
<g>
	<text transform="matrix(1 0 0 1 285.9764 345.7166)" class="st48 st11 st12">-15</text>
</g>
<g>
	<g>
		<text transform="matrix(1 0 0 1 202.3158 203.0641)" class="st48 st11 st12">B1C</text>
	</g>
</g>
<g>
	<g>
		<text transform="matrix(1 0 0 1 228.3096 453.741)" class="st48 st11 st12">-21</text>
	</g>
</g>
<g>
	<g>
		<text transform="matrix(1 0 0 1 170.8096 453.741)" class="st48 st11 st12">-18</text>
	</g>
</g>
<g>
	<g>
		<text transform="matrix(1 0 0 1 203.6586 453.741)" class="st48 st11 st12">KG10_1</text>
	</g>
</g>
<g>
	<g>
		<text transform="matrix(1 0 0 1 118.3305 453.741)" class="st48 st11 st12">-19</text>
	</g>
</g>
<g>
	<g>
		<text transform="matrix(1 0 0 1 93.6795 453.741)" class="st48 st11 st12">KG10_1</text>
	</g>
</g>
<g>
	<g>
		<text transform="matrix(1 0 0 1 -54.952 453.741)" class="st48 st11 st12">-21</text>
	</g>
</g>
<g>
	<g>
		<text transform="matrix(1 0 0 1 145.3122 453.741)" class="st48 st11 st12">KG10_1</text>
	</g>
</g>
<g>
	<g id="FB103_1_">
		<g>
			<g id="FB103_3_">
				<g>
					<text transform="matrix(1 0 0 1 119.8236 471.2627)" class="st48 st11 st12">Airbag control module</text>
				</g>
			</g>
		</g>
	</g>
</g>
<g>
	<g>
		<text transform="matrix(1 0 0 1 205.3306 490.5674)" class="st48 st11 st12">KG10_1</text>
	</g>
</g>
<g>
	<g>
		<text transform="matrix(1 0 0 1 806.947 652.0143)" class="st48 st11 st12">-1</text>
	</g>
</g>
<g>
	<g>
		<text transform="matrix(1 0 0 1 786.6501 652.0143)" class="st48 st11 st12">K02(A)</text>
	</g>
</g>
<g>
	<g>
		<text transform="matrix(1 0 0 1 815.0023 584.8799)" class="st48 st11 st12">-12</text>
	</g>
</g>
<g>
	<g>
		<text transform="matrix(1 0 0 1 787.1819 584.8799)" class="st48 st11 st12">K02(A)_2</text>
	</g>
</g>
<g>
	<text transform="matrix(1 0 0 1 420.9791 489.8613)" class="st48 st11 st12">KG64(E)</text>
</g>
<g>
	<text transform="matrix(1 0 0 1 446.2291 489.8613)" class="st48 st11 st12">-20</text>
</g>
<g>
	<text transform="matrix(1 0 0 1 471.1378 489.8613)" class="st48 st11 st12">BG64(B)</text>
</g>
<g>
	<text transform="matrix(1 0 0 1 496.2403 489.8613)" class="st48 st11 st12">-43</text>
</g>
<g>
	<text transform="matrix(1 0 0 1 368.0352 489.8613)" class="st48 st11 st12">KG64(E)</text>
</g>
<g>
	<text transform="matrix(1 0 0 1 393.2852 489.8613)" class="st48 st11 st12">-8</text>
</g>
<text transform="matrix(1 0 0 1 631.1838 372.2581)"><tspan x="0" y="0" class="st48 st11 st12">Rear row middle</tspan><tspan x="0" y="7.2" class="st48 st11 st12"> right seat belt buckle</tspan></text>
</svg>
