<?xml version="1.0" encoding="utf-8"?>
<!-- Generator: Adobe Illustrator 24.0.1, SVG Export Plug-In . SVG Version: 6.00 Build 0)  -->
<svg version="1.1" id="图层_1" xmlns="http://www.w3.org/2000/svg" xmlns:xlink="http://www.w3.org/1999/xlink" x="0px" y="0px"
	 viewBox="0 0 1075.4 841.9" style="enable-background:new 0 0 1075.4 841.9;" xml:space="preserve">
<style type="text/css">
	.st0{fill:none;stroke:#040000;stroke-width:3;stroke-linecap:round;stroke-miterlimit:10;}
	.st1{fill:#DCDDDD;stroke:#040000;stroke-width:0.5;stroke-miterlimit:10;}
	.st2{fill:#FFFFFF;stroke:#000000;stroke-width:0.5;stroke-miterlimit:10;}
	.st3{fill:none;stroke:#009944;stroke-linecap:round;stroke-miterlimit:10;}
	.st4{fill:none;stroke:#DF918E;stroke-width:3;stroke-linecap:round;stroke-miterlimit:10;}
	.st5{fill:none;stroke:#7B3E81;stroke-width:3;stroke-linecap:round;stroke-miterlimit:10;}
	.st6{font-family:'FZLTHJW--GB1-0';}
	.st7{font-size:6px;}
	.st8{fill:none;stroke:#060001;stroke-width:0.5;stroke-linecap:round;stroke-linejoin:round;}
	.st9{fill:#FFFFFF;stroke:#040000;stroke-width:0.25;}
	.st10{stroke:#FFFFFF;stroke-width:0.5;}
	.st11{fill:none;stroke:#040000;stroke-width:0.5;stroke-miterlimit:10;}
	.st12{fill:#FFFFFF;}
	.st13{fill:none;stroke:#040000;stroke-width:0.6;stroke-linecap:round;stroke-linejoin:round;}
	.st14{fill:none;stroke:#040000;stroke-width:0.72;stroke-linecap:round;stroke-linejoin:round;}
	.st15{fill:#9FD9F6;stroke:#040000;stroke-width:0.5;stroke-linecap:round;stroke-miterlimit:10;}
	.st16{fill:#DCDDDD;}
	.st17{fill:none;stroke:#040000;stroke-width:0.5;}
	.st18{fill:none;stroke:#040000;}
	.st19{fill:none;stroke:#000000;stroke-width:0.75;}
	.st20{stroke:#FFFFFF;stroke-width:0.5;stroke-linecap:round;}
	.st21{fill:none;stroke:#FFFFFF;stroke-width:1.0001;}
	.st22{fill:none;stroke:#040000;stroke-width:1.3;}
	.st23{fill:#FFFFFF;stroke:#040000;stroke-width:0.25;stroke-linecap:round;stroke-linejoin:round;}
	.st24{font-size:4px;}
	.st25{enable-background:new    ;}
	.st26{fill:none;stroke:#040000;stroke-width:0.75;}
	.st27{fill:none;stroke:#D71618;stroke-width:3;stroke-linecap:round;stroke-miterlimit:10;}
	.st28{fill:none;stroke:#FFFFFF;stroke-linecap:round;stroke-miterlimit:10;}
	.st29{fill:none;stroke:#000000;stroke-width:3;stroke-linecap:round;stroke-miterlimit:10;}
	.st30{fill:none;stroke:#E60012;stroke-width:3;stroke-linecap:round;stroke-miterlimit:10;}
	.st31{fill:none;stroke:#000000;stroke-linecap:round;stroke-miterlimit:10;}
	.st32{fill:none;stroke:#149243;stroke-linecap:round;stroke-miterlimit:10;}
	.st33{fill:none;stroke:#040000;stroke-width:0.6001;stroke-linecap:round;stroke-linejoin:round;}
	.st34{fill:none;stroke:#040000;stroke-width:0.6001;stroke-linecap:round;}
	.st35{fill:none;stroke:#89438F;stroke-width:3;stroke-linecap:round;stroke-miterlimit:10;}
	.st36{fill:none;stroke:#E60012;stroke-width:3;stroke-miterlimit:10;}
	.st37{fill:none;stroke:#FFF100;stroke-miterlimit:10;}
	.st38{fill:none;stroke:#000000;stroke-width:0.6;stroke-linejoin:round;}
	.st39{fill:none;stroke:#000000;stroke-width:0.72;stroke-linecap:round;stroke-linejoin:round;}
	.st40{fill:#FFFFFF;stroke:#000000;stroke-width:0.25;}
	.st41{fill:none;stroke:#000000;stroke-width:0.6001;stroke-linecap:round;stroke-linejoin:round;}
	.st42{fill:none;stroke:#000000;stroke-width:0.6001;stroke-linecap:round;}
	.st43{fill:none;stroke:#000000;stroke-width:0.6;stroke-linecap:round;stroke-linejoin:round;}
	.st44{fill:none;stroke:#000000;stroke-width:1.3;}
	.st45{fill:#FFFFFF;stroke:#000000;stroke-width:0.25;stroke-linecap:round;stroke-linejoin:round;}
	.st46{fill:#005EAD;}
</style>
<polyline class="st0" points="910.3,411.9 910.3,538.4 858.9,538.4 "/>
<g id="REB_x2C_A3_5_">
	<rect x="933.7" y="99.7" class="st1" width="49.7" height="54.8"/>
</g>
<g>
	<path class="st2" d="M803,366.5c-0.8,0-1.5-0.7-1.5-1.5V188.5c0-0.8,0.7-1.5,1.5-1.5s1.5,0.7,1.5,1.5V365
		C804.5,365.8,803.8,366.5,803,366.5z"/>
</g>
<line class="st3" x1="803" y1="188.5" x2="803" y2="365"/>
<line class="st4" x1="755" y1="409.8" x2="755" y2="668.3"/>
<polyline class="st4" points="260.8,412.5 260.8,521.3 141.7,521.3 "/>
<polyline class="st5" points="309.9,412.3 309.9,544.8 188.7,544.8 "/>
<line class="st4" x1="141.7" y1="412.6" x2="141.7" y2="727"/>
<line class="st5" x1="188.9" y1="413.6" x2="188.9" y2="728"/>
<g>
	<text transform="matrix(1 0 0 1 115.0401 746.3306)" class="st6 st7">See Body Network System - Circuit Diagram</text>
</g>
<path class="st8" d="M137,730l0.5,2.1c0,0,0.5,2.5,2.7,2.6h24.3l0,0l1.6,2.7l1.6-2.7c7.4,0,24.2,0,24.2,0c2.2-0.1,2.7-2.6,2.7-2.6
	l0.5-2.1"/>
<g>
	<text transform="matrix(1 0 0 1 727.9706 690.7438)" class="st6 st7">See Energy Network - Circuit Diagram</text>
</g>
<path class="st8" d="M749.8,672.9l0.5,2.1c0,0,0.5,2.5,2.7,2.6h24.3l0,0l1.6,2.7l1.6-2.7c7.4,0,24.2,0,24.2,0
	c2.2-0.1,2.7-2.6,2.7-2.6l0.5-2.1"/>
<g>
	<text transform="matrix(1 0 0 1 585.8273 690.7438)" class="st6 st7">See Energy Network - Circuit Diagram</text>
</g>
<path class="st8" d="M610.6,672.9l0.5,2.1c0,0,0.5,2.5,2.7,2.6h24.3l0,0l1.6,2.7l1.6-2.7c7.4,0,24.2,0,24.2,0
	c2.2-0.1,2.7-2.6,2.7-2.6l0.5-2.1"/>
<rect x="146.4" y="509.9" class="st9" width="25.7" height="6.8"/>
<text transform="matrix(1 0 0 1 147.1984 515.4932)" class="st6 st7">SP4839</text>
<path class="st10" d="M144.5,521.2c0,1.7-1.3,2.9-2.8,2.9c-1.6,0-2.9-1.2-2.9-2.9c0-1.5,1.3-2.7,2.9-2.7
	C143.2,518.5,144.5,519.7,144.5,521.2z"/>
<rect x="193.8" y="534.6" class="st9" width="26.2" height="5.6"/>
<text transform="matrix(1 0 0 1 194.4901 539.5361)" class="st6 st7">SP4682</text>
<path class="st10" d="M191.8,544.7c0,1.7-1.3,2.9-2.8,2.9c-1.6,0-2.9-1.2-2.9-2.9c0-1.5,1.3-2.7,2.9-2.7
	C190.5,542,191.8,543.2,191.8,544.7z"/>
<path class="st11" d="M139.7,459.7c-1.7,0-3.1-1.5-3.1-3.5c0-1.9,1.4-3.5,3.1-3.5l51.5,6.9c1.7,0,3.1-1.5,3.1-3.5
	c0-1.9-1.4-3.5-3.1-3.5L139.7,459.7z"/>
<path class="st11" d="M139.7,572.5c-1.7,0-3.1-1.5-3.1-3.5c0-1.9,1.4-3.5,3.1-3.5l51.5,6.9c1.7,0,3.1-1.5,3.1-3.5
	c0-1.9-1.4-3.5-3.1-3.5L139.7,572.5z"/>
<line class="st0" x1="94.3" y1="413.1" x2="94.3" y2="768.6"/>
<g>
	<rect x="86.7" y="430.9" class="st12" width="13.9" height="6"/>
	<g>
		<text transform="matrix(1 0 0 1 84.9066 436.0452)" class="st6 st7">B 0.35</text>
	</g>
</g>
<g>
	<rect x="181.2" y="430.9" class="st12" width="13.9" height="6"/>
	<g>
		<text transform="matrix(1 0 0 1 179.4493 436.0457)" class="st6 st7">V 0.35</text>
	</g>
</g>
<g>
	<rect x="136" y="430.9" class="st12" width="13.9" height="6"/>
	<g>
		<text transform="matrix(1 0 0 1 132.2537 436.0457)" class="st6 st7">P 0.35</text>
	</g>
</g>
<path class="st11" d="M259.8,459.7c-1.7,0-3.1-1.5-3.1-3.5c0-1.9,1.4-3.5,3.1-3.5l51.5,6.9c1.7,0,3.1-1.5,3.1-3.5
	c0-1.9-1.4-3.5-3.1-3.5L259.8,459.7z"/>
<g>
	<rect x="301.6" y="430.9" class="st12" width="13.9" height="6"/>
	<g>
		<text transform="matrix(1 0 0 1 299.9213 436.0457)" class="st6 st7">V 0.35</text>
	</g>
</g>
<g>
	<rect x="256.1" y="430.9" class="st12" width="13.9" height="6"/>
	<g>
		<text transform="matrix(1 0 0 1 252.3964 436.0457)" class="st6 st7">P 0.35</text>
	</g>
</g>
<g>
	<g>
		<line class="st13" x1="188.8" y1="409.5" x2="188.8" y2="401.3"/>
	</g>
	<g>
		<path class="st12" d="M188.9,412.6c-1.7,0-3-1.4-3-3c0-1.8,1.4-3.2,3-3.2c1.8,0,3.2,1.4,3.2,3.2
			C192.1,411.2,190.7,412.6,188.9,412.6z"/>
		<path d="M188.9,413.2c-2,0-3.7-1.7-3.7-3.7c0-2.2,1.7-3.8,3.7-3.8v1.1c-1.4,0-2.5,1.1-2.5,2.7c0,1.4,1.1,2.5,2.5,2.5V413.2
			L188.9,413.2z M188.9,405.7v1.1c1.5,0,2.7,1.1,2.7,2.7c0,1.4-1.1,2.5-2.7,2.5v1.1c2.2,0,3.8-1.7,3.8-3.7
			C192.7,407.4,191.1,405.7,188.9,405.7z"/>
	</g>
	<rect x="184.7" y="405.3" class="st12" width="8.5" height="4.1"/>
	<rect x="188.3" y="406.2" width="1" height="4.2"/>
	<rect x="188.3" y="406.2" class="st14" width="1" height="4.2"/>
</g>
<g>
	<g>
		<line class="st13" x1="141.7" y1="409.7" x2="141.7" y2="401.4"/>
	</g>
	<g>
		<path class="st12" d="M141.8,412.7c-1.7,0-3-1.4-3-3c0-1.8,1.4-3.2,3-3.2c1.8,0,3.2,1.4,3.2,3.2
			C145,411.3,143.6,412.7,141.8,412.7z"/>
		<path d="M141.8,413.4c-2,0-3.7-1.7-3.7-3.7c0-2.2,1.7-3.8,3.7-3.8v1.1c-1.4,0-2.5,1.1-2.5,2.7c0,1.4,1.1,2.5,2.5,2.5V413.4
			L141.8,413.4z M141.8,405.9v1.1c1.5,0,2.7,1.1,2.7,2.7c0,1.4-1.1,2.5-2.7,2.5v1.1c2.2,0,3.8-1.7,3.8-3.7
			C145.6,407.5,144,405.9,141.8,405.9z"/>
	</g>
	<rect x="137.6" y="405.5" class="st12" width="8.5" height="4.1"/>
	<rect x="141.2" y="406.4" width="1" height="4.2"/>
	<rect x="141.2" y="406.4" class="st14" width="1" height="4.2"/>
</g>
<g>
	<g>
		<line class="st13" x1="94.3" y1="409.9" x2="94.3" y2="401.6"/>
	</g>
	<g>
		<path class="st12" d="M94.4,412.9c-1.7,0-3-1.4-3-3c0-1.8,1.4-3.2,3-3.2c1.8,0,3.2,1.4,3.2,3.2C97.6,411.5,96.2,412.9,94.4,412.9z
			"/>
		<path d="M94.4,413.5c-2,0-3.7-1.7-3.7-3.7c0-2.2,1.7-3.8,3.7-3.8v1.1c-1.4,0-2.5,1.1-2.5,2.7c0,1.4,1.1,2.5,2.5,2.5V413.5
			L94.4,413.5z M94.4,406.1v1.1c1.5,0,2.7,1.1,2.7,2.7c0,1.4-1.1,2.5-2.7,2.5v1.1c2.2,0,3.8-1.7,3.8-3.7
			C98.2,407.7,96.6,406.1,94.4,406.1z"/>
	</g>
	<rect x="90.2" y="405.7" class="st12" width="8.5" height="4.1"/>
	<rect x="93.8" y="406.6" width="1" height="4.2"/>
	<rect x="93.8" y="406.6" class="st14" width="1" height="4.2"/>
</g>
<g>
	<rect x="88.3" y="722.5" class="st12" width="13.9" height="6"/>
	<g>
		<text transform="matrix(1 0 0 1 86.4594 727.6398)" class="st6 st7">B 0.5</text>
	</g>
</g>
<g>
	<rect x="181.2" y="584.9" class="st12" width="13.9" height="6"/>
	<g>
		<text transform="matrix(1 0 0 1 179.4493 590.0785)" class="st6 st7">V 0.35</text>
	</g>
</g>
<g>
	<rect x="136" y="584.9" class="st12" width="13.9" height="6"/>
	<g>
		<text transform="matrix(1 0 0 1 132.2537 590.0785)" class="st6 st7">P 0.35</text>
	</g>
</g>
<rect x="98.8" y="517.5" class="st9" width="24.7" height="6.8"/>
<text transform="matrix(1 0 0 1 99.5004 523.2849)" class="st6 st7">SP4863</text>
<path class="st10" d="M97.2,521.4c0,1.7-1.3,2.9-2.8,2.9c-1.6,0-2.9-1.2-2.9-2.9c0-1.5,1.3-2.7,2.9-2.7
	C95.9,518.7,97.2,519.9,97.2,521.4z"/>
<g id="REB_x2C_A3_2_">
	<rect x="388.3" y="152.5" class="st15" width="74.9" height="24.6"/>
</g>
<g id="REB_x2C_A3_1_">
	<rect x="124" y="99.7" class="st1" width="49.7" height="54.8"/>
</g>
<g id="REB_x2C_A3_4_">
	<rect x="240.1" y="99.7" class="st1" width="49.7" height="54.8"/>
</g>
<polyline class="st16" points="50.8,41.9 1032.4,41.9 1032.4,88.1 50.8,88.1 "/>
<g>
	<line class="st17" x1="50.8" y1="47.6" x2="1032.4" y2="47.6"/>
	<line class="st18" x1="50.8" y1="41.6" x2="1032.4" y2="41.6"/>
	<line class="st17" x1="50.8" y1="58.9" x2="1032.4" y2="58.9"/>
	<line class="st17" x1="50.8" y1="70.6" x2="1032.4" y2="70.6"/>
	<line class="st17" x1="50.8" y1="82.3" x2="1032.4" y2="82.3"/>
	<line class="st18" x1="50.9" y1="88.1" x2="1032.4" y2="88.1"/>
</g>
<text transform="matrix(1 0 0 1 1035.4928 49.6299)" class="st6 st7">30</text>
<text transform="matrix(1 0 0 1 1035.4928 60.7959)" class="st6 st7">IG1</text>
<text transform="matrix(1 0 0 1 1035.4928 72.4209)" class="st6 st7">IG3</text>
<text transform="matrix(1 0 0 1 1035.4928 83.9248)" class="st6 st7">ACC</text>
<text transform="matrix(1 0 0 1 40.7417 49.7119)" class="st6 st7">30</text>
<text transform="matrix(1 0 0 1 37.5777 60.8779)" class="st6 st7">IG1</text>
<text transform="matrix(1 0 0 1 37.5777 72.5029)" class="st6 st7">IG3</text>
<text transform="matrix(1 0 0 1 34.0851 84.0029)" class="st6 st7">ACC</text>
<g id="FF09_x2C_A1_1_">
	<rect x="256.4" y="116.5" class="st16" width="7.7" height="21.1"/>
	<g>
		<g>
			<path class="st19" d="M260.2,132.8c-1.2,0-2.2,1-2.2,2.2s1,2.2,2.2,2.2s2.2-1,2.2-2.2S261.4,132.8,260.2,132.8"/>
		</g>
		<g>
			<path class="st19" d="M260.2,117c-1.2,0-2.2,1-2.2,2.1c0,1.2,1,2.2,2.2,2.2s2.2-0.9,2.2-2.2C262.4,118,261.4,117,260.2,117"/>
		</g>
		<g>
			<path class="st19" d="M258.7,120.8c-0.1,2.5,0.2,3.2,1.3,4.3c1.2,1.2,2.4,1.7,2.8,3.7c0.4,1.6-0.1,3.5-1.1,4.5"/>
		</g>
		<g>
			<path class="st19" d="M261.6,133.4c0.2-0.8,0-2.9-0.7-3.7c-0.9-1.2-2.7-2.1-3.3-4c-0.9-2.8,0.7-4.6,1.1-5"/>
		</g>
	</g>
</g>
<g>
	<g>
		<line class="st13" x1="260.2" y1="117" x2="260.2" y2="47.7"/>
	</g>
</g>
<polygon class="st16" points="277,132 277,138.3 264.8,138.3 264.8,125.5 279.9,125.5 279.9,132 "/>
<g>
	<text transform="matrix(1 0 0 1 265.6005 131.7001)" class="st6 st7">100A</text>
</g>
<g>
	<g>
		<polyline class="st13" points="260,137.2 260,146 260,154.5 		"/>
	</g>
</g>
<g>
	<path class="st20" d="M257.4,47.1c0-1.7,1.3-2.9,2.8-2.9c1.6,0,2.9,1.2,2.9,2.9c0,1.5-1.3,2.7-2.9,2.7
		C258.7,49.9,257.4,48.7,257.4,47.1z"/>
	<g>
		<path class="st21" d="M257.4,47.1c0-1.7,1.3-2.9,2.8-2.9c1.6,0,2.9,1.2,2.9,2.9c0,1.5-1.3,2.7-2.9,2.7
			C258.7,49.9,257.4,48.7,257.4,47.1"/>
	</g>
</g>
<g id="GB031_1_">
	<g>
		<g>
			<line class="st22" x1="447.2" y1="346" x2="447.2" y2="348.7"/>
		</g>
		<g>
			<line class="st22" x1="440.2" y1="348.7" x2="454" y2="348.7"/>
		</g>
		<g>
			<line class="st22" x1="443" y1="350.9" x2="451.2" y2="350.9"/>
		</g>
		<g>
			<line class="st22" x1="449.5" y1="353" x2="444.7" y2="353"/>
		</g>
	</g>
	<g>
		<rect x="436.8" y="355.5" class="st12" width="20.3" height="8.2"/>
		<rect x="437.1" y="355.9" class="st23" width="19.7" height="7.6"/>
	</g>
</g>
<g id="GB031_2_">
	<g>
		<g>
			<line class="st22" x1="722.2" y1="346" x2="722.2" y2="348.7"/>
		</g>
		<g>
			<line class="st22" x1="715.2" y1="348.7" x2="729" y2="348.7"/>
		</g>
		<g>
			<line class="st22" x1="718" y1="350.9" x2="726.2" y2="350.9"/>
		</g>
		<g>
			<line class="st22" x1="724.5" y1="353" x2="719.7" y2="353"/>
		</g>
	</g>
	<g>
		<rect x="711.8" y="355.5" class="st12" width="20.3" height="8.2"/>
		<rect x="712.1" y="355.9" class="st23" width="19.7" height="7.6"/>
	</g>
</g>
<g>
	<path class="st15" d="M611.5,177.1H509.1v-24.7h102.4c0,0-3.9,4.7,0,11.5C615.4,170.6,611.5,177.1,611.5,177.1z"/>
</g>
<g>
	<text transform="matrix(1 0 0 1 518.1802 175.5405)" class="st6 st24">Ground</text>
</g>
<g>
	<text transform="matrix(1 0 0 1 395.832 175.5405)" class="st6 st24">Power supply</text>
</g>
<g>
	<text transform="matrix(1 0 0 1 442.6653 175.5405)" class="st6 st24">Ground</text>
</g>
<g>
	<text transform="matrix(1 0 0 1 565.0785 169.0244)" class="st25"><tspan x="0" y="0" class="st6 st24">Left rear reversing</tspan><tspan x="0" y="4.8" class="st6 st24"> light power supply</tspan></text>
</g>
<g>
	<line class="st13" x1="309.9" y1="409.4" x2="309.9" y2="401.2"/>
	<path class="st12" d="M310,412.5c-1.7,0-3-1.4-3-3c0-1.8,1.4-3.2,3-3.2c1.8,0,3.2,1.4,3.2,3.2C313.2,411.1,311.8,412.5,310,412.5"
		/>
	<path d="M310,413.1c-2,0-3.7-1.6-3.7-3.7c0-2.2,1.7-3.8,3.7-3.8v1.1c-1.4,0-2.5,1.1-2.5,2.7c0,1.4,1.1,2.5,2.5,2.5V413.1z
		 M310,405.6v1.1c1.5,0,2.7,1.1,2.7,2.7c0,1.4-1.1,2.5-2.7,2.5v1.1c2.2,0,3.8-1.6,3.8-3.7C313.8,407.3,312.2,405.6,310,405.6"/>
	<rect x="305.8" y="405.2" class="st12" width="8.5" height="4.1"/>
	<rect x="309.4" y="406.1" width="1" height="4.2"/>
	<rect x="309.4" y="406.1" class="st14" width="1" height="4.2"/>
</g>
<g>
	<line class="st13" x1="260.7" y1="409.3" x2="260.7" y2="401.1"/>
	<path class="st12" d="M260.8,412.4c-1.6,0-3-1.4-3-3c0-1.8,1.4-3.2,3-3.2c1.8,0,3.2,1.4,3.2,3.2C264,411,262.6,412.4,260.8,412.4"
		/>
	<path d="M260.8,413c-2,0-3.7-1.6-3.7-3.7c0-2.2,1.7-3.8,3.7-3.8v1.1c-1.4,0-2.5,1.1-2.5,2.7c0,1.4,1.1,2.5,2.5,2.5V413z
		 M260.8,405.5v1.1c1.5,0,2.7,1.1,2.7,2.7c0,1.4-1.1,2.5-2.7,2.5v1.1c2.2,0,3.8-1.6,3.8-3.7C264.6,407.2,263,405.5,260.8,405.5"/>
	<rect x="256.6" y="405.1" class="st12" width="8.5" height="4.1"/>
	<rect x="260.2" y="406" width="1" height="4.2"/>
	<rect x="260.2" y="406" class="st14" width="1" height="4.2"/>
</g>
<g>
	<path class="st15" d="M215,401.1H71v-24.7h144c0,0-3.9,4.7,0,11.5C219,394.7,215,401.1,215,401.1z"/>
</g>
<g>
	<path class="st15" d="M696.3,401.1H240.8v-24.7h455.6c0,0-3.9,4.7,0,11.5S696.3,401.1,696.3,401.1z"/>
</g>
<g>
	<text transform="matrix(1 0 0 1 255.7819 381.0244)" class="st6 st24">Constant power</text>
</g>
<g>
	<text transform="matrix(1 0 0 1 391.482 381.0244)" class="st6 st24">Rear fog light drive</text>
</g>
<g id="FF09_x2C_A1_2_">
	<rect x="139.5" y="116.5" class="st16" width="7.7" height="21.1"/>
	<g>
		<g>
			<path class="st26" d="M143.3,132.8c-1.2,0-2.2,1-2.2,2.2s1,2.2,2.2,2.2s2.2-1,2.2-2.2S144.5,132.8,143.3,132.8"/>
		</g>
		<g>
			<path class="st26" d="M143.3,117c-1.2,0-2.2,1-2.2,2.1c0,1.2,1,2.2,2.2,2.2s2.2-0.9,2.2-2.2C145.5,118,144.5,117,143.3,117"/>
		</g>
		<g>
			<path class="st26" d="M141.8,120.8c-0.1,2.5,0.2,3.2,1.3,4.3c1.2,1.2,2.4,1.7,2.8,3.7c0.4,1.6-0.1,3.5-1.1,4.5"/>
		</g>
		<g>
			<path class="st26" d="M144.7,133.4c0.2-0.8,0-2.9-0.7-3.7c-0.9-1.2-2.7-2.1-3.3-4c-0.9-2.8,0.7-4.6,1.1-5"/>
		</g>
	</g>
</g>
<g>
	<g>
		<polyline class="st13" points="143.1,137.2 143.1,146 143.1,154.3 		"/>
	</g>
</g>
<g>
	<g>
		<polyline class="st13" points="143.1,47.2 143.1,88.2 143.1,117 		"/>
	</g>
</g>
<line class="st27" x1="260.1" y1="165.8" x2="260.1" y2="366.6"/>
<g>
	<line class="st13" x1="260.1" y1="367.9" x2="260.1" y2="376.2"/>
	<path class="st12" d="M260.1,364.9c1.6,0,3,1.4,3,3c0,1.8-1.4,3.2-3,3.2c-1.8,0-3.2-1.4-3.2-3.2
		C256.9,366.3,258.3,364.9,260.1,364.9"/>
	<path d="M260.1,364.2c2,0,3.7,1.6,3.7,3.7c0,2.2-1.7,3.8-3.7,3.8v-1.1c1.4,0,2.5-1.1,2.5-2.7c0-1.4-1.1-2.5-2.5-2.5V364.2z
		 M260.1,371.7v-1.1c-1.5,0-2.7-1.1-2.7-2.7c0-1.4,1.1-2.5,2.7-2.5v-1.1c-2.2,0-3.8,1.6-3.8,3.7
		C256.2,370.1,257.9,371.7,260.1,371.7"/>
	<rect x="255.7" y="368" class="st12" width="8.5" height="4.1"/>
	<rect x="259.7" y="367" width="1" height="4.2"/>
	<rect x="259.7" y="367" class="st14" width="1" height="4.2"/>
</g>
<g>
	<rect x="253.8" y="191.9" class="st12" width="12.7" height="6"/>
	<rect x="253.9" y="191.9" class="st12" width="12.5" height="6"/>
	<text transform="matrix(1 0 0 1 252.3962 196.8971)" class="st6 st7">R 8.0</text>
</g>
<rect x="253.8" y="344.7" class="st12" width="12.7" height="6"/>
<rect x="253.9" y="344.7" class="st12" width="12.5" height="6"/>
<text transform="matrix(1 0 0 1 252.3962 349.6055)" class="st6 st7">R 8.0</text>
<line class="st27" x1="400.8" y1="188.5" x2="400.8" y2="366.6"/>
<line class="st28" x1="400.8" y1="188.5" x2="400.8" y2="366.6"/>
<g>
	<line class="st13" x1="400.8" y1="367.9" x2="400.8" y2="376.2"/>
	<path class="st12" d="M400.8,364.9c1.6,0,3,1.4,3,3c0,1.8-1.4,3.2-3,3.2c-1.8,0-3.2-1.4-3.2-3.2C397.6,366.3,399,364.9,400.8,364.9
		"/>
	<path d="M400.8,364.2c2,0,3.7,1.6,3.7,3.7c0,2.2-1.7,3.8-3.7,3.8v-1.1c1.4,0,2.5-1.1,2.5-2.7c0-1.4-1.1-2.5-2.5-2.5V364.2z
		 M400.8,371.7v-1.1c-1.5,0-2.7-1.1-2.7-2.7c0-1.4,1.1-2.5,2.7-2.5v-1.1c-2.2,0-3.8,1.6-3.8,3.7
		C396.9,370.1,398.6,371.7,400.8,371.7"/>
	<rect x="396.4" y="368" class="st12" width="8.5" height="4.1"/>
	<rect x="400.4" y="367" width="1" height="4.2"/>
	<rect x="400.4" y="367" class="st14" width="1" height="4.2"/>
</g>
<rect x="394.5" y="201.9" class="st12" width="12.7" height="6"/>
<rect x="394.6" y="201.9" class="st12" width="12.5" height="6"/>
<text transform="matrix(1 0 0 1 387.2874 206.8972)" class="st6 st7">R/W 0.35</text>
<line class="st29" x1="447.4" y1="188.5" x2="447.4" y2="347.7"/>
<g>
	<rect x="441.1" y="201.9" class="st12" width="12.7" height="6"/>
	<rect x="441.2" y="201.9" class="st12" width="12.5" height="6"/>
	<text transform="matrix(1 0 0 1 438.6701 206.8971)" class="st6 st7">B 0.35</text>
</g>
<polyline class="st29" points="523,188.5 523,317.1 720.2,317.1 "/>
<g>
	<rect x="516.7" y="201.9" class="st12" width="12.7" height="6"/>
	<rect x="516.8" y="201.9" class="st12" width="12.5" height="6"/>
	<text transform="matrix(1 0 0 1 514.3051 206.8971)" class="st6 st7">B 0.35</text>
</g>
<line class="st29" x1="722.2" y1="188.5" x2="722.2" y2="347.7"/>
<polyline class="st30" points="666.4,188.5 666.4,222.5 578.9,222.5 "/>
<polyline class="st28" points="666.4,188.5 666.4,222.5 578.9,222.5 "/>
<g>
	<rect x="715.9" y="201.9" class="st12" width="12.7" height="6"/>
	<rect x="716" y="201.9" class="st12" width="12.5" height="6"/>
	<text transform="matrix(1 0 0 1 713.5118 206.8971)" class="st6 st7">B 0.35</text>
</g>
<g>
	<rect x="715.9" y="333.5" class="st12" width="12.7" height="6"/>
	<rect x="716" y="333.5" class="st12" width="12.5" height="6"/>
	<text transform="matrix(1 0 0 1 714.9493 338.4841)" class="st6 st7">B 2.5</text>
</g>
<g>
	<rect x="441.1" y="239" class="st12" width="12.7" height="6"/>
	<rect x="441.2" y="239" class="st12" width="12.5" height="6"/>
	<text transform="matrix(1 0 0 1 438.6701 243.9799)" class="st6 st7">B 0.35</text>
</g>
<g>
	<rect x="441.1" y="292.7" class="st12" width="12.7" height="6"/>
	<rect x="441.2" y="292.7" class="st12" width="12.5" height="6"/>
	<text transform="matrix(1 0 0 1 439.3649 297.7371)" class="st6 st7">B 0.35</text>
</g>
<g>
	<rect x="441.1" y="331.5" class="st12" width="12.7" height="6"/>
	<rect x="441.2" y="331.5" class="st12" width="12.5" height="6"/>
	<text transform="matrix(1 0 0 1 439.3649 336.4871)" class="st6 st7">B 0.35</text>
</g>
<rect x="394.5" y="344.7" class="st12" width="12.7" height="6"/>
<rect x="394.6" y="344.7" class="st12" width="12.5" height="6"/>
<text transform="matrix(1 0 0 1 387.2875 349.1992)" class="st6 st7">R/W 0.35</text>
<g>
	<line class="st13" x1="260" y1="162.6" x2="260" y2="154.5"/>
	<path class="st12" d="M260.1,165.8c-1.6,0-3-1.4-3-3c0-1.8,1.4-3.2,3-3.2c1.8,0,3.2,1.4,3.2,3.2
		C263.3,164.4,261.9,165.8,260.1,165.8"/>
	<path d="M260.1,166.4c-2,0-3.7-1.6-3.7-3.7c0-2.2,1.7-3.8,3.7-3.8v1.1c-1.4,0-2.5,1.1-2.5,2.7c0,1.4,1.1,2.5,2.5,2.5V166.4z
		 M260.1,158.9v1.1c1.5,0,2.7,1.1,2.7,2.7c0,1.4-1.1,2.5-2.7,2.5v1.1c2.2,0,3.8-1.6,3.8-3.7C263.9,160.6,262.2,158.9,260.1,158.9"/>
	<rect x="255.9" y="158.5" class="st12" width="8.5" height="4.1"/>
	<rect x="259.5" y="159.4" width="1" height="4.2"/>
	<rect x="259.5" y="159.4" class="st14" width="1" height="4.2"/>
</g>
<g id="FF09_x2C_A1_3_">
	<g>
		<g>
			<path class="st19" d="M957.1,132.8c-1.2,0-2.2,1-2.2,2.2s1,2.2,2.2,2.2s2.2-1,2.2-2.2S958.3,132.8,957.1,132.8"/>
		</g>
		<g>
			<path class="st19" d="M957.1,117c-1.2,0-2.2,1-2.2,2.1c0,1.2,1,2.2,2.2,2.2s2.2-0.9,2.2-2.2C959.3,118,958.3,117,957.1,117"/>
		</g>
		<g>
			<path class="st19" d="M955.6,120.8c-0.1,2.5,0.2,3.2,1.3,4.3c1.2,1.2,2.4,1.7,2.8,3.7c0.4,1.6-0.1,3.5-1.1,4.5"/>
		</g>
		<g>
			<path class="st19" d="M958.5,133.4c0.2-0.8,0-2.9-0.7-3.7c-0.9-1.2-2.7-2.1-3.3-4c-0.9-2.8,0.7-4.6,1.1-5"/>
		</g>
	</g>
</g>
<g>
	<g>
		<line class="st13" x1="957.1" y1="117" x2="957.1" y2="47.7"/>
	</g>
</g>
<polygon class="st16" points="973.9,142 973.9,148.3 961.7,148.3 961.7,135.5 976.8,135.5 976.8,142 "/>
<g>
	<text transform="matrix(1 0 0 1 962.4553 131.7003)" class="st6 st7">5A</text>
</g>
<g>
	<g>
		<polyline class="st13" points="956.9,137.2 956.9,146 956.9,154.5 		"/>
	</g>
</g>
<g>
	<path class="st20" d="M954.3,47.1c0-1.7,1.3-2.9,2.8-2.9c1.6,0,2.9,1.2,2.9,2.9c0,1.5-1.3,2.7-2.9,2.7
		C955.6,49.9,954.3,48.7,954.3,47.1z"/>
	<g>
		<path class="st21" d="M954.3,47.1c0-1.7,1.3-2.9,2.8-2.9c1.6,0,2.9,1.2,2.9,2.9c0,1.5-1.3,2.7-2.9,2.7
			C955.6,49.9,954.3,48.7,954.3,47.1"/>
	</g>
</g>
<line class="st27" x1="957" y1="165.8" x2="957" y2="366.6"/>
<line class="st31" x1="957" y1="165.8" x2="957" y2="366.6"/>
<g>
	<line class="st13" x1="957" y1="367.9" x2="957" y2="376.2"/>
	<path class="st12" d="M957,364.9c1.6,0,3,1.4,3,3c0,1.8-1.4,3.2-3,3.2c-1.8,0-3.2-1.4-3.2-3.2C953.8,366.3,955.2,364.9,957,364.9"
		/>
	<path d="M957,364.2c2,0,3.7,1.6,3.7,3.7c0,2.2-1.7,3.8-3.7,3.8v-1.1c1.4,0,2.5-1.1,2.5-2.7c0-1.4-1.1-2.5-2.5-2.5V364.2z
		 M957,371.7v-1.1c-1.5,0-2.7-1.1-2.7-2.7c0-1.4,1.1-2.5,2.7-2.5v-1.1c-2.2,0-3.8,1.6-3.8,3.7C953.1,370.1,954.8,371.7,957,371.7"/>
	<rect x="952.6" y="368" class="st12" width="8.5" height="4.1"/>
	<rect x="956.6" y="367" width="1" height="4.2"/>
	<rect x="956.6" y="367" class="st14" width="1" height="4.2"/>
</g>
<g>
	<rect x="950.7" y="201.9" class="st12" width="12.7" height="6"/>
	<rect x="950.8" y="201.9" class="st12" width="12.5" height="6"/>
	<text transform="matrix(1 0 0 1 944.876 206.8971)" class="st6 st7">R/B 0.35</text>
</g>
<rect x="950.7" y="333.5" class="st12" width="12.7" height="6"/>
<rect x="950.8" y="333.5" class="st12" width="12.5" height="6"/>
<text transform="matrix(1 0 0 1 944.876 338.3925)" class="st6 st7">R/B 0.35</text>
<g>
	<line class="st13" x1="956.9" y1="162.6" x2="956.9" y2="154.5"/>
	<path class="st12" d="M957,165.8c-1.6,0-3-1.4-3-3c0-1.8,1.4-3.2,3-3.2c1.8,0,3.2,1.4,3.2,3.2C960.2,164.4,958.8,165.8,957,165.8"
		/>
	<path d="M957,166.4c-2,0-3.7-1.6-3.7-3.7c0-2.2,1.7-3.8,3.7-3.8v1.1c-1.4,0-2.5,1.1-2.5,2.7c0,1.4,1.1,2.5,2.5,2.5V166.4z
		 M957,158.9v1.1c1.5,0,2.7,1.1,2.7,2.7c0,1.4-1.1,2.5-2.7,2.5v1.1c2.2,0,3.8-1.6,3.8-3.7C960.8,160.6,959.1,158.9,957,158.9"/>
	<rect x="952.8" y="158.5" class="st12" width="8.5" height="4.1"/>
	<rect x="956.4" y="159.4" width="1" height="4.2"/>
	<rect x="956.4" y="159.4" class="st14" width="1" height="4.2"/>
</g>
<g>
	<line class="st13" x1="400.9" y1="185.4" x2="400.9" y2="177.2"/>
	<path class="st12" d="M401,188.5c-1.6,0-3-1.4-3-3c0-1.8,1.4-3.2,3-3.2c1.8,0,3.2,1.4,3.2,3.2C404.2,187.1,402.8,188.5,401,188.5"
		/>
	<path d="M401,189.1c-2,0-3.7-1.6-3.7-3.7c0-2.2,1.7-3.8,3.7-3.8v1.1c-1.4,0-2.5,1.1-2.5,2.7c0,1.4,1.1,2.5,2.5,2.5V189.1z
		 M401,181.6v1.1c1.5,0,2.7,1.1,2.7,2.7c0,1.4-1.1,2.5-2.7,2.5v1.1c2.2,0,3.8-1.6,3.8-3.7C404.8,183.3,403.1,181.6,401,181.6"/>
	<rect x="396.8" y="181.2" class="st12" width="8.5" height="4.1"/>
	<rect x="400.4" y="182.1" width="1" height="4.2"/>
	<rect x="400.4" y="182.1" class="st14" width="1" height="4.2"/>
</g>
<g>
	<line class="st13" x1="447.4" y1="185.4" x2="447.4" y2="177.2"/>
	<path class="st12" d="M447.5,188.5c-1.6,0-3-1.4-3-3c0-1.8,1.4-3.2,3-3.2c1.8,0,3.2,1.4,3.2,3.2
		C450.7,187.1,449.3,188.5,447.5,188.5"/>
	<path d="M447.5,189.1c-2,0-3.7-1.6-3.7-3.7c0-2.2,1.7-3.8,3.7-3.8v1.1c-1.4,0-2.5,1.1-2.5,2.7c0,1.4,1.1,2.5,2.5,2.5V189.1z
		 M447.5,181.6v1.1c1.5,0,2.7,1.1,2.7,2.7c0,1.4-1.1,2.5-2.7,2.5v1.1c2.2,0,3.8-1.6,3.8-3.7C451.3,183.3,449.6,181.6,447.5,181.6"/>
	<rect x="443.3" y="181.2" class="st12" width="8.5" height="4.1"/>
	<rect x="446.9" y="182.1" width="1" height="4.2"/>
	<rect x="446.9" y="182.1" class="st14" width="1" height="4.2"/>
</g>
<line class="st27" x1="143.3" y1="165.3" x2="143.3" y2="365.1"/>
<line class="st32" x1="143.3" y1="165.3" x2="143.3" y2="365.1"/>
<g>
	<line class="st13" x1="143.1" y1="162.6" x2="143.1" y2="154.5"/>
	<path class="st12" d="M143.2,165.8c-1.6,0-3-1.4-3-3c0-1.8,1.4-3.2,3-3.2c1.8,0,3.2,1.4,3.2,3.2C146.4,164.4,145,165.8,143.2,165.8
		"/>
	<path d="M143.2,166.4c-2,0-3.7-1.6-3.7-3.7c0-2.2,1.7-3.8,3.7-3.8v1.1c-1.4,0-2.5,1.1-2.5,2.7c0,1.4,1.1,2.5,2.5,2.5V166.4z
		 M143.2,158.9v1.1c1.5,0,2.7,1.1,2.7,2.7c0,1.4-1.1,2.5-2.7,2.5v1.1c2.2,0,3.8-1.6,3.8-3.7C147,160.6,145.3,158.9,143.2,158.9"/>
	<rect x="139" y="158.5" class="st12" width="8.5" height="4.1"/>
	<rect x="142.5" y="159.4" width="1" height="4.2"/>
	<rect x="142.5" y="159.4" class="st14" width="1" height="4.2"/>
</g>
<g>
	<rect x="136.5" y="191.7" class="st12" width="13.9" height="6"/>
	<g>
		<text transform="matrix(1 0 0 1 130.3354 196.8972)" class="st6 st7">R/G 0.35</text>
	</g>
</g>
<g>
	<rect x="136.5" y="344" class="st12" width="13.9" height="6"/>
	<g>
		<text transform="matrix(1 0 0 1 130.3354 349.199)" class="st6 st7">R/G 0.35</text>
	</g>
</g>
<rect x="147.3" y="313.2" class="st9" width="24.7" height="6.8"/>
<text transform="matrix(1 0 0 1 148.0721 318.7732)" class="st6 st7">SP4697</text>
<path class="st10" d="M145.7,317.1c0,1.7-1.3,2.9-2.8,2.9c-1.6,0-2.9-1.2-2.9-2.9c0-1.5,1.3-2.7,2.9-2.7
	C144.4,314.4,145.7,315.6,145.7,317.1z"/>
<g>
	<g>
		<line class="st13" x1="143.3" y1="368" x2="143.3" y2="376.3"/>
	</g>
	<g>
		<path class="st12" d="M143.2,365c1.7,0,3,1.4,3,3c0,1.8-1.4,3.2-3,3.2c-1.8,0-3.2-1.4-3.2-3.2C140,366.4,141.4,365,143.2,365z"/>
		<path d="M143.2,364.4c2,0,3.7,1.7,3.7,3.7c0,2.2-1.7,3.8-3.7,3.8v-1.1c1.4,0,2.5-1.1,2.5-2.7c0-1.4-1.1-2.5-2.5-2.5V364.4
			L143.2,364.4z M143.2,371.8v-1.1c-1.5,0-2.7-1.1-2.7-2.7c0-1.4,1.1-2.5,2.7-2.5v-1.1c-2.2,0-3.8,1.7-3.8,3.7
			C139.4,370.2,141.1,371.8,143.2,371.8z"/>
	</g>
	<rect x="138.9" y="368.2" class="st12" width="8.5" height="4.1"/>
	<rect x="142.8" y="367.1" width="1" height="4.2"/>
	<rect x="142.8" y="367.1" class="st14" width="1" height="4.2"/>
</g>
<polygon class="st16" points="160.1,123.9 160.1,130.2 147.9,130.2 147.9,117.4 163,117.4 163,123.9 "/>
<g>
	<text transform="matrix(1 0 0 1 148.6303 131.9207)" class="st6 st7">7.5A</text>
</g>
<g>
	<path class="st20" d="M140.2,47.2c0-1.7,1.3-2.9,2.8-2.9c1.6,0,2.9,1.2,2.9,2.9c0,1.5-1.3,2.7-2.9,2.7
		C141.5,50,140.2,48.8,140.2,47.2z"/>
	<g>
		<path class="st21" d="M140.2,47.2c0-1.7,1.3-2.9,2.8-2.9c1.6,0,2.9,1.2,2.9,2.9c0,1.5-1.3,2.7-2.9,2.7
			C141.5,50,140.2,48.8,140.2,47.2"/>
	</g>
</g>
<g id="REB_x2C_A3_6_">
	<rect x="318.8" y="99.7" class="st1" width="49.7" height="54.8"/>
</g>
<g id="FF09_x2C_A1_5_">
	<rect x="334.3" y="116.5" class="st16" width="7.7" height="21.1"/>
	<g>
		<g>
			<path class="st26" d="M338.1,132.8c-1.2,0-2.2,1-2.2,2.2s1,2.2,2.2,2.2s2.2-1,2.2-2.2S339.3,132.8,338.1,132.8"/>
		</g>
		<g>
			<path class="st26" d="M338.1,117c-1.2,0-2.2,1-2.2,2.1c0,1.2,1,2.2,2.2,2.2s2.2-0.9,2.2-2.2C340.3,118,339.3,117,338.1,117"/>
		</g>
		<g>
			<path class="st26" d="M336.6,120.8c-0.1,2.5,0.2,3.2,1.3,4.3c1.2,1.2,2.4,1.7,2.8,3.7c0.4,1.6-0.1,3.5-1.1,4.5"/>
		</g>
		<g>
			<path class="st26" d="M339.5,133.4c0.2-0.8,0-2.9-0.7-3.7c-0.9-1.2-2.7-2.1-3.3-4c-0.9-2.8,0.7-4.6,1.1-5"/>
		</g>
	</g>
</g>
<g>
	<g>
		<polyline class="st13" points="337.9,137.2 337.9,146 337.9,154.3 		"/>
	</g>
</g>
<g>
	<g>
		<polyline class="st13" points="337.9,47.2 337.9,88.2 337.9,117 		"/>
	</g>
</g>
<polygon class="st16" points="354.9,123.9 354.9,130.2 342.7,130.2 342.7,117.4 357.8,117.4 357.8,123.9 "/>
<g>
	<text transform="matrix(1 0 0 1 343.4162 131.9211)" class="st6 st7">7.5A</text>
</g>
<g>
	<path class="st20" d="M335,47.2c0-1.7,1.3-2.9,2.8-2.9c1.6,0,2.9,1.2,2.9,2.9c0,1.5-1.3,2.7-2.9,2.7C336.3,50,335,48.8,335,47.2z"
		/>
	<g>
		<path class="st21" d="M335,47.2c0-1.7,1.3-2.9,2.8-2.9c1.6,0,2.9,1.2,2.9,2.9c0,1.5-1.3,2.7-2.9,2.7C336.3,50,335,48.8,335,47.2"
			/>
	</g>
</g>
<g id="GB031_4_">
	<g>
		<g>
			<line class="st22" x1="94.2" y1="766.8" x2="94.2" y2="769.5"/>
		</g>
		<g>
			<line class="st22" x1="87.2" y1="769.5" x2="101" y2="769.5"/>
		</g>
		<g>
			<line class="st22" x1="90" y1="771.7" x2="98.2" y2="771.7"/>
		</g>
		<g>
			<line class="st22" x1="96.5" y1="773.8" x2="91.7" y2="773.8"/>
		</g>
	</g>
	<g>
		<rect x="83.8" y="776.3" class="st12" width="20.3" height="8.2"/>
		<rect x="84.1" y="776.7" class="st23" width="19.7" height="7.6"/>
	</g>
</g>
<g>
	<text transform="matrix(1 0 0 1 139.41 381.2515)" class="st6 st24">Constant power</text>
</g>
<g>
	<text transform="matrix(1 0 0 1 90.5199 399.2814)" class="st6 st24">Ground</text>
</g>
<g>
	<text transform="matrix(1 0 0 1 183.2209 399.2816)" class="st6 st24">CAN_L</text>
</g>
<g>
	<text transform="matrix(1 0 0 1 136.5366 399.2814)" class="st6 st24">CAN_H</text>
</g>
<line class="st4" x1="615.8" y1="408.7" x2="615.8" y2="667.4"/>
<line class="st5" x1="663" y1="409.6" x2="663" y2="668.3"/>
<line class="st5" x1="802.1" y1="409.8" x2="802.1" y2="668.3"/>
<path class="st11" d="M613.8,459.7c-1.7,0-3.1-1.5-3.1-3.5c0-1.9,1.4-3.5,3.1-3.5l51.5,6.9c1.7,0,3.1-1.5,3.1-3.5
	c0-1.9-1.4-3.5-3.1-3.5L613.8,459.7z"/>
<g>
	<rect x="655.3" y="430.9" class="st12" width="13.9" height="6"/>
	<g>
		<text transform="matrix(1 0 0 1 653.5574 436.0457)" class="st6 st7">V 0.35</text>
	</g>
</g>
<g>
	<rect x="610.1" y="430.9" class="st12" width="13.9" height="6"/>
	<g>
		<text transform="matrix(1 0 0 1 606.3618 436.0457)" class="st6 st7">P 0.35</text>
	</g>
</g>
<path class="st11" d="M752.9,459.7c-1.7,0-3.1-1.5-3.1-3.5c0-1.9,1.4-3.5,3.1-3.5l51.5,6.9c1.7,0,3.1-1.5,3.1-3.5
	c0-1.9-1.4-3.5-3.1-3.5L752.9,459.7z"/>
<g>
	<rect x="794.3" y="430.9" class="st12" width="13.9" height="6"/>
	<g>
		<text transform="matrix(1 0 0 1 792.6133 436.0457)" class="st6 st7">V 0.35</text>
	</g>
</g>
<g>
	<rect x="748.3" y="430.9" class="st12" width="13.9" height="6"/>
	<g>
		<text transform="matrix(1 0 0 1 744.5567 436.0457)" class="st6 st7">P 0.35</text>
	</g>
</g>
<g>
	<g>
		<line class="st13" x1="662.9" y1="409.5" x2="662.9" y2="401.3"/>
	</g>
	<g>
		<path class="st12" d="M663,412.6c-1.7,0-3-1.4-3-3c0-1.8,1.4-3.2,3-3.2c1.8,0,3.2,1.4,3.2,3.2C666.2,411.2,664.8,412.6,663,412.6z
			"/>
		<path d="M663,413.2c-2,0-3.7-1.7-3.7-3.7c0-2.2,1.7-3.8,3.7-3.8v1.1c-1.4,0-2.5,1.1-2.5,2.7c0,1.4,1.1,2.5,2.5,2.5V413.2
			L663,413.2z M663,405.7v1.1c1.5,0,2.7,1.1,2.7,2.7c0,1.4-1.1,2.5-2.7,2.5v1.1c2.2,0,3.8-1.7,3.8-3.7
			C666.8,407.4,665.2,405.7,663,405.7z"/>
	</g>
	<rect x="658.8" y="405.3" class="st12" width="8.5" height="4.1"/>
	<rect x="662.4" y="406.2" width="1" height="4.2"/>
	<rect x="662.4" y="406.2" class="st14" width="1" height="4.2"/>
</g>
<g>
	<g>
		<line class="st13" x1="615.8" y1="409.7" x2="615.8" y2="401.4"/>
	</g>
	<g>
		<path class="st12" d="M615.9,412.7c-1.7,0-3-1.4-3-3c0-1.8,1.4-3.2,3-3.2c1.8,0,3.2,1.4,3.2,3.2
			C619.1,411.3,617.7,412.7,615.9,412.7z"/>
		<path d="M615.9,413.4c-2,0-3.7-1.7-3.7-3.7c0-2.2,1.7-3.8,3.7-3.8v1.1c-1.4,0-2.5,1.1-2.5,2.7c0,1.4,1.1,2.5,2.5,2.5V413.4
			L615.9,413.4z M615.9,405.9v1.1c1.5,0,2.7,1.1,2.7,2.7c0,1.4-1.1,2.5-2.7,2.5v1.1c2.2,0,3.8-1.7,3.8-3.7
			C619.7,407.5,618.1,405.9,615.9,405.9z"/>
	</g>
	<rect x="611.7" y="405.5" class="st12" width="8.5" height="4.1"/>
	<rect x="615.3" y="406.4" width="1" height="4.2"/>
	<rect x="615.3" y="406.4" class="st14" width="1" height="4.2"/>
</g>
<g>
	<text transform="matrix(1 0 0 1 657.329 399.2816)" class="st6 st24">CAN_L</text>
</g>
<g>
	<text transform="matrix(1 0 0 1 610.6447 399.2814)" class="st6 st24">CAN_H</text>
</g>
<g>
	<g>
		<line class="st13" x1="802.1" y1="409.5" x2="802.1" y2="401.3"/>
	</g>
	<g>
		<path class="st12" d="M802.2,412.6c-1.7,0-3-1.4-3-3c0-1.8,1.4-3.2,3-3.2c1.8,0,3.2,1.4,3.2,3.2
			C805.4,411.2,804,412.6,802.2,412.6z"/>
		<path d="M802.2,413.2c-2,0-3.7-1.7-3.7-3.7c0-2.2,1.7-3.8,3.7-3.8v1.1c-1.4,0-2.5,1.1-2.5,2.7c0,1.4,1.1,2.5,2.5,2.5V413.2
			L802.2,413.2z M802.2,405.7v1.1c1.5,0,2.7,1.1,2.7,2.7c0,1.4-1.1,2.5-2.7,2.5v1.1c2.2,0,3.8-1.7,3.8-3.7
			C806,407.4,804.4,405.7,802.2,405.7z"/>
	</g>
	<rect x="798" y="405.3" class="st12" width="8.5" height="4.1"/>
	<rect x="801.6" y="406.2" width="1" height="4.2"/>
	<rect x="801.6" y="406.2" class="st14" width="1" height="4.2"/>
</g>
<g>
	<g>
		<line class="st13" x1="755" y1="409.7" x2="755" y2="401.4"/>
	</g>
	<g>
		<path class="st12" d="M755.1,412.7c-1.7,0-3-1.4-3-3c0-1.8,1.4-3.2,3-3.2c1.8,0,3.2,1.4,3.2,3.2
			C758.3,411.3,756.9,412.7,755.1,412.7z"/>
		<path d="M755.1,413.4c-2,0-3.7-1.7-3.7-3.7c0-2.2,1.7-3.8,3.7-3.8v1.1c-1.4,0-2.5,1.1-2.5,2.7c0,1.4,1.1,2.5,2.5,2.5V413.4
			L755.1,413.4z M755.1,405.9v1.1c1.5,0,2.7,1.1,2.7,2.7c0,1.4-1.1,2.5-2.7,2.5v1.1c2.2,0,3.8-1.7,3.8-3.7
			C758.9,407.5,757.3,405.9,755.1,405.9z"/>
	</g>
	<rect x="750.9" y="405.5" class="st12" width="8.5" height="4.1"/>
	<rect x="754.5" y="406.4" width="1" height="4.2"/>
	<rect x="754.5" y="406.4" class="st14" width="1" height="4.2"/>
</g>
<g>
	<g>
		<line class="st13" x1="803" y1="368" x2="803" y2="376.3"/>
	</g>
	<g>
		<path class="st12" d="M802.9,365c1.7,0,3,1.4,3,3c0,1.8-1.4,3.2-3,3.2c-1.8,0-3.2-1.4-3.2-3.2C799.7,366.4,801.1,365,802.9,365z"
			/>
		<path d="M802.9,364.4c2,0,3.7,1.7,3.7,3.7c0,2.2-1.7,3.8-3.7,3.8v-1.1c1.4,0,2.5-1.1,2.5-2.7c0-1.4-1.1-2.5-2.5-2.5V364.4
			L802.9,364.4z M802.9,371.8v-1.1c-1.5,0-2.7-1.1-2.7-2.7c0-1.4,1.1-2.5,2.7-2.5v-1.1c-2.2,0-3.8,1.7-3.8,3.7
			C799.1,370.2,800.8,371.8,802.9,371.8z"/>
	</g>
	<rect x="798.6" y="368.2" class="st12" width="8.5" height="4.1"/>
	<rect x="802.5" y="367.1" width="1" height="4.2"/>
	<rect x="802.5" y="367.1" class="st14" width="1" height="4.2"/>
</g>
<g>
	<text transform="matrix(1 0 0 1 301.9838 399.2816)" class="st6 st24">CAN_L</text>
</g>
<g>
	<text transform="matrix(1 0 0 1 254.6994 399.2814)" class="st6 st24">CAN_H</text>
</g>
<g>
	<text transform="matrix(1 0 0 1 564.094 381.2513)" class="st6 st24">Reversing light drive </text>
</g>
<rect x="452" y="218.5" class="st9" width="24.7" height="6.8"/>
<text transform="matrix(1 0 0 1 452.6268 224.108)" class="st6 st7">SP4857</text>
<path class="st10" d="M450.4,222.4c0,1.7-1.3,2.9-2.8,2.9c-1.6,0-2.9-1.2-2.9-2.9c0-1.5,1.3-2.7,2.9-2.7
	C449.1,219.7,450.4,220.9,450.4,222.4z"/>
<rect x="452" y="313.1" class="st9" width="24.7" height="6.8"/>
<text transform="matrix(1 0 0 1 452.6268 318.7733)" class="st6 st7">SP4859</text>
<path class="st10" d="M450.4,317c0,1.7-1.3,2.9-2.8,2.9c-1.6,0-2.9-1.2-2.9-2.9c0-1.5,1.3-2.7,2.9-2.7
	C449.1,314.3,450.4,315.5,450.4,317z"/>
<rect x="726.4" y="313.1" class="st9" width="24.7" height="6.8"/>
<text transform="matrix(1 0 0 1 727.176 318.7734)" class="st6 st7">SP4846</text>
<path class="st10" d="M724.8,317c0,1.7-1.3,2.9-2.8,2.9c-1.6,0-2.9-1.2-2.9-2.9c0-1.5,1.3-2.7,2.9-2.7
	C723.5,314.3,724.8,315.5,724.8,317z"/>
<rect x="962.1" y="314.3" class="st9" width="13.6" height="5.6"/>
<text transform="matrix(1 0 0 1 962.8032 319.2384)" class="st6 st7">SP7</text>
<path class="st10" d="M960,317c0,1.7-1.3,2.9-2.8,2.9c-1.6,0-2.9-1.2-2.9-2.9c0-1.5,1.3-2.7,2.9-2.7C958.7,314.3,960,315.5,960,317z
	"/>
<g>
	<rect x="396.8" y="258.7" class="st12" width="8.5" height="18.8"/>
	<g>
		<g>
			<line class="st33" x1="400.9" y1="267.4" x2="400.9" y2="259.2"/>
		</g>
		<g>
			<line class="st34" x1="401" y1="270.6" x2="401" y2="277.1"/>
		</g>
		<g>
			<g>
				<g>
					<path class="st12" d="M401,270.5c-1.7,0-3.2-1.4-3.2-3.2c0-1.8,1.5-3.2,3.2-3.2c1.8,0,3.2,1.4,3.2,3.2
						C404.1,269.1,402.7,270.5,401,270.5z"/>
					<path d="M401,271.1c-2,0-3.7-1.8-3.7-3.8h1.1c0,1.4,1.1,2.5,2.5,2.5c1.5,0,2.7-1.1,2.7-2.5h1.1
						C404.8,269.3,403.1,271.1,401,271.1L401,271.1z M397.3,267.3h1.1c0-1.4,1.1-2.5,2.5-2.5c1.5,0,2.7,1.1,2.7,2.5h1.1
						c0-2.2-1.6-3.8-3.8-3.8C398.9,263.5,397.3,265.1,397.3,267.3z"/>
				</g>
				<rect x="396.8" y="263.1" class="st12" width="8.5" height="4.1"/>
				<rect x="400.3" y="264" width="1" height="4.2"/>
				<rect x="400.3" y="264" class="st14" width="1" height="4.2"/>
			</g>
		</g>
	</g>
</g>
<line class="st27" x1="578.6" y1="277.5" x2="578.6" y2="366.6"/>
<line class="st28" x1="578.6" y1="277.5" x2="578.6" y2="366.6"/>
<line class="st27" x1="578.6" y1="188.5" x2="578.6" y2="258.7"/>
<line class="st28" x1="578.6" y1="188.5" x2="578.6" y2="258.7"/>
<g>
	<line class="st13" x1="578.6" y1="367.9" x2="578.6" y2="376.2"/>
	<path class="st12" d="M578.6,364.9c1.6,0,3,1.4,3,3c0,1.8-1.4,3.2-3,3.2c-1.8,0-3.2-1.4-3.2-3.2
		C575.4,366.3,576.8,364.9,578.6,364.9"/>
	<path d="M578.6,364.2c2,0,3.7,1.6,3.7,3.7c0,2.2-1.7,3.8-3.7,3.8v-1.1c1.4,0,2.5-1.1,2.5-2.7c0-1.4-1.1-2.5-2.5-2.5V364.2z
		 M578.6,371.7v-1.1c-1.5,0-2.7-1.1-2.7-2.7c0-1.4,1.1-2.5,2.7-2.5v-1.1c-2.2,0-3.8,1.6-3.8,3.7
		C574.7,370.1,576.4,371.7,578.6,371.7"/>
	<rect x="574.2" y="368" class="st12" width="8.5" height="4.1"/>
	<rect x="578.2" y="367" width="1" height="4.2"/>
	<rect x="578.2" y="367" class="st14" width="1" height="4.2"/>
</g>
<g>
	<rect x="572.3" y="201.9" class="st12" width="12.7" height="6"/>
	<rect x="572.4" y="201.9" class="st12" width="12.5" height="6"/>
	<text transform="matrix(1 0 0 1 565.0787 206.8971)" class="st6 st7">R/W 0.35</text>
</g>
<g>
	<rect x="572.3" y="239" class="st12" width="12.7" height="6"/>
	<rect x="572.4" y="239" class="st12" width="12.5" height="6"/>
	<text transform="matrix(1 0 0 1 565.0787 243.9799)" class="st6 st7">R/W 0.35</text>
</g>
<g>
	<rect x="796.7" y="201.9" class="st12" width="12.7" height="6"/>
	<rect x="796.8" y="201.9" class="st12" width="12.5" height="6"/>
	<text transform="matrix(1 0 0 1 789.501 206.8971)" class="st6 st7">W/G 0.35</text>
</g>
<line class="st35" x1="858.7" y1="188.5" x2="858.7" y2="365"/>
<line class="st28" x1="858.7" y1="188.5" x2="858.7" y2="365"/>
<g>
	<g>
		<line class="st13" x1="858.7" y1="368" x2="858.7" y2="376.3"/>
	</g>
	<g>
		<path class="st12" d="M858.6,365c1.7,0,3,1.4,3,3c0,1.8-1.4,3.2-3,3.2c-1.8,0-3.2-1.4-3.2-3.2C855.4,366.4,856.8,365,858.6,365z"
			/>
		<path d="M858.6,364.4c2,0,3.7,1.7,3.7,3.7c0,2.2-1.7,3.8-3.7,3.8v-1.1c1.4,0,2.5-1.1,2.5-2.7c0-1.4-1.1-2.5-2.5-2.5V364.4
			L858.6,364.4z M858.6,371.8v-1.1c-1.5,0-2.7-1.1-2.7-2.7c0-1.4,1.1-2.5,2.7-2.5v-1.1c-2.2,0-3.8,1.7-3.8,3.7
			C854.8,370.2,856.5,371.8,858.6,371.8z"/>
	</g>
	<rect x="854.3" y="368.2" class="st12" width="8.5" height="4.1"/>
	<rect x="858.2" y="367.1" width="1" height="4.2"/>
	<rect x="858.2" y="367.1" class="st14" width="1" height="4.2"/>
</g>
<g>
	<rect x="852.4" y="201.9" class="st12" width="12.7" height="6"/>
	<rect x="852.5" y="201.9" class="st12" width="12.5" height="6"/>
	<text transform="matrix(1 0 0 1 845.1812 206.8971)" class="st6 st7">V/W 0.35</text>
</g>
<g>
	<rect x="796.7" y="333.5" class="st12" width="12.7" height="6"/>
	<rect x="796.8" y="333.5" class="st12" width="12.5" height="6"/>
	<text transform="matrix(1 0 0 1 789.501 338.4841)" class="st6 st7">W/G 0.35</text>
</g>
<g>
	<rect x="852.4" y="333.5" class="st12" width="12.7" height="6"/>
	<rect x="852.5" y="333.5" class="st12" width="12.5" height="6"/>
	<text transform="matrix(1 0 0 1 845.1812 338.4841)" class="st6 st7">V/W 0.35</text>
</g>
<g>
	<rect x="659.5" y="201.9" class="st12" width="12.7" height="6"/>
	<rect x="659.6" y="201.9" class="st12" width="12.5" height="6"/>
	<text transform="matrix(1 0 0 1 652.3314 206.8971)" class="st6 st7">R/W 0.35</text>
</g>
<rect x="572.3" y="344.7" class="st12" width="12.7" height="6"/>
<rect x="572.4" y="344.7" class="st12" width="12.5" height="6"/>
<text transform="matrix(1 0 0 1 565.0787 349.1992)" class="st6 st7">R/W 0.35</text>
<g>
	<line class="st13" x1="522.7" y1="185.4" x2="522.7" y2="177.2"/>
	<path class="st12" d="M522.8,188.5c-1.6,0-3-1.4-3-3c0-1.8,1.4-3.2,3-3.2c1.8,0,3.2,1.4,3.2,3.2C526,187.1,524.6,188.5,522.8,188.5
		"/>
	<path d="M522.8,189.1c-2,0-3.7-1.6-3.7-3.7c0-2.2,1.7-3.8,3.7-3.8v1.1c-1.4,0-2.5,1.1-2.5,2.7c0,1.4,1.1,2.5,2.5,2.5V189.1z
		 M522.8,181.6v1.1c1.5,0,2.7,1.1,2.7,2.7c0,1.4-1.1,2.5-2.7,2.5v1.1c2.2,0,3.8-1.6,3.8-3.7C526.6,183.3,524.9,181.6,522.8,181.6"/>
	<rect x="518.6" y="181.2" class="st12" width="8.5" height="4.1"/>
	<rect x="522.2" y="182.1" width="1" height="4.2"/>
	<rect x="522.2" y="182.1" class="st14" width="1" height="4.2"/>
</g>
<g>
	<line class="st13" x1="578.4" y1="185.4" x2="578.4" y2="177.2"/>
	<path class="st12" d="M578.5,188.5c-1.6,0-3-1.4-3-3c0-1.8,1.4-3.2,3-3.2c1.8,0,3.2,1.4,3.2,3.2
		C581.7,187.1,580.3,188.5,578.5,188.5"/>
	<path d="M578.5,189.1c-2,0-3.7-1.6-3.7-3.7c0-2.2,1.7-3.8,3.7-3.8v1.1c-1.4,0-2.5,1.1-2.5,2.7c0,1.4,1.1,2.5,2.5,2.5V189.1z
		 M578.5,181.6v1.1c1.5,0,2.7,1.1,2.7,2.7c0,1.4-1.1,2.5-2.7,2.5v1.1c2.2,0,3.8-1.6,3.8-3.7C582.3,183.3,580.6,181.6,578.5,181.6"/>
	<rect x="574.3" y="181.2" class="st12" width="8.5" height="4.1"/>
	<rect x="577.9" y="182.1" width="1" height="4.2"/>
	<rect x="577.9" y="182.1" class="st14" width="1" height="4.2"/>
</g>
<g>
	<path class="st15" d="M755.2,177.1H652.8v-24.7h102.4c0,0-3.9,4.7,0,11.5C759.1,170.6,755.2,177.1,755.2,177.1z"/>
</g>
<g>
	<text transform="matrix(1 0 0 1 716.5165 175.5405)" class="st6 st24">Ground</text>
</g>
<g>
	<line class="st13" x1="666.4" y1="185.4" x2="666.4" y2="177.2"/>
	<path class="st12" d="M666.5,188.5c-1.6,0-3-1.4-3-3c0-1.8,1.4-3.2,3-3.2c1.8,0,3.2,1.4,3.2,3.2
		C669.7,187.1,668.3,188.5,666.5,188.5"/>
	<path d="M666.5,189.1c-2,0-3.7-1.6-3.7-3.7c0-2.2,1.7-3.8,3.7-3.8v1.1c-1.4,0-2.5,1.1-2.5,2.7c0,1.4,1.1,2.5,2.5,2.5V189.1z
		 M666.5,181.6v1.1c1.5,0,2.7,1.1,2.7,2.7c0,1.4-1.1,2.5-2.7,2.5v1.1c2.2,0,3.8-1.6,3.8-3.7C670.3,183.3,668.6,181.6,666.5,181.6"/>
	<rect x="662.3" y="181.2" class="st12" width="8.5" height="4.1"/>
	<rect x="665.9" y="182.1" width="1" height="4.2"/>
	<rect x="665.9" y="182.1" class="st14" width="1" height="4.2"/>
</g>
<g>
	<line class="st13" x1="722" y1="185.4" x2="722" y2="177.2"/>
	<path class="st12" d="M722.1,188.5c-1.6,0-3-1.4-3-3c0-1.8,1.4-3.2,3-3.2c1.8,0,3.2,1.4,3.2,3.2
		C725.3,187.1,723.9,188.5,722.1,188.5"/>
	<path d="M722.1,189.1c-2,0-3.7-1.6-3.7-3.7c0-2.2,1.7-3.8,3.7-3.8v1.1c-1.4,0-2.5,1.1-2.5,2.7c0,1.4,1.1,2.5,2.5,2.5V189.1z
		 M722.1,181.6v1.1c1.5,0,2.7,1.1,2.7,2.7c0,1.4-1.1,2.5-2.7,2.5v1.1c2.2,0,3.8-1.6,3.8-3.7C725.9,183.3,724.2,181.6,722.1,181.6"/>
	<rect x="717.9" y="181.2" class="st12" width="8.5" height="4.1"/>
	<rect x="721.5" y="182.1" width="1" height="4.2"/>
	<rect x="721.5" y="182.1" class="st14" width="1" height="4.2"/>
</g>
<g>
	<rect x="574.3" y="258.7" class="st12" width="8.5" height="18.8"/>
	<g>
		<g>
			<line class="st33" x1="578.7" y1="268.8" x2="578.7" y2="277"/>
		</g>
		<g>
			<line class="st34" x1="578.6" y1="265.6" x2="578.6" y2="259.1"/>
		</g>
		<g>
			<g>
				<g>
					<path class="st12" d="M578.6,265.7c1.7,0,3.2,1.4,3.2,3.2c0,1.8-1.5,3.2-3.2,3.2c-1.8,0-3.2-1.4-3.2-3.2
						C575.5,267.1,576.9,265.7,578.6,265.7z"/>
					<path d="M578.6,265.1c2,0,3.7,1.8,3.7,3.8h-1.1c0-1.4-1.1-2.5-2.5-2.5c-1.5,0-2.7,1.1-2.7,2.5h-1.1
						C574.8,266.9,576.5,265.1,578.6,265.1L578.6,265.1z M582.3,268.9h-1.1c0,1.4-1.1,2.5-2.5,2.5c-1.5,0-2.7-1.1-2.7-2.5h-1.1
						c0,2.2,1.6,3.8,3.8,3.8C580.7,272.7,582.3,271.1,582.3,268.9z"/>
				</g>
				<rect x="574.3" y="269" class="st12" width="8.5" height="4.1"/>
				<rect x="578.3" y="268" width="1" height="4.2"/>
				<rect x="578.3" y="268" class="st14" width="1" height="4.2"/>
			</g>
		</g>
	</g>
</g>
<g>
	<rect x="443.2" y="258.7" class="st12" width="8.5" height="18.8"/>
	<g>
		<g>
			<line class="st33" x1="447.3" y1="267.4" x2="447.3" y2="259.2"/>
		</g>
		<g>
			<line class="st34" x1="447.4" y1="270.6" x2="447.4" y2="277.1"/>
		</g>
		<g>
			<g>
				<g>
					<path class="st12" d="M447.4,270.5c-1.7,0-3.2-1.4-3.2-3.2c0-1.8,1.5-3.2,3.2-3.2c1.8,0,3.2,1.4,3.2,3.2
						C450.5,269.1,449.1,270.5,447.4,270.5z"/>
					<path d="M447.4,271.1c-2,0-3.7-1.8-3.7-3.8h1.1c0,1.4,1.1,2.5,2.5,2.5c1.5,0,2.7-1.1,2.7-2.5h1.1
						C451.2,269.3,449.5,271.1,447.4,271.1L447.4,271.1z M443.7,267.3h1.1c0-1.4,1.1-2.5,2.5-2.5c1.5,0,2.7,1.1,2.7,2.5h1.1
						c0-2.2-1.6-3.8-3.8-3.8C445.3,263.5,443.7,265.1,443.7,267.3z"/>
				</g>
				<rect x="443.2" y="263.1" class="st12" width="8.5" height="4.1"/>
				<rect x="446.7" y="264" width="1" height="4.2"/>
				<rect x="446.7" y="264" class="st14" width="1" height="4.2"/>
			</g>
		</g>
	</g>
</g>
<g>
	<text transform="matrix(1 0 0 1 655.4426 169.0244)" class="st25"><tspan x="0" y="0" class="st6 st24">Right rear reversing </tspan><tspan x="0" y="4.8" class="st6 st24">light power supply</tspan></text>
</g>
<g>
	<path class="st15" d="M891.8,177.1H789.4v-24.7h102.4c0,0-3.9,4.7,0,11.5C895.7,170.6,891.8,177.1,891.8,177.1z"/>
</g>
<g>
	<text transform="matrix(1 0 0 1 853.1859 175.5405)" class="st6 st24">Ground</text>
</g>
<g>
	<line class="st13" x1="803.1" y1="185.4" x2="803.1" y2="177.2"/>
	<path class="st12" d="M803.2,188.5c-1.6,0-3-1.4-3-3c0-1.8,1.4-3.2,3-3.2c1.8,0,3.2,1.4,3.2,3.2C806.4,187.1,805,188.5,803.2,188.5
		"/>
	<path d="M803.2,189.1c-2,0-3.7-1.6-3.7-3.7c0-2.2,1.7-3.8,3.7-3.8v1.1c-1.4,0-2.5,1.1-2.5,2.7c0,1.4,1.1,2.5,2.5,2.5V189.1z
		 M803.2,181.6v1.1c1.5,0,2.7,1.1,2.7,2.7c0,1.4-1.1,2.5-2.7,2.5v1.1c2.2,0,3.8-1.6,3.8-3.7C807,183.3,805.3,181.6,803.2,181.6"/>
	<rect x="799" y="181.2" class="st12" width="8.5" height="4.1"/>
	<rect x="802.6" y="182.1" width="1" height="4.2"/>
	<rect x="802.6" y="182.1" class="st14" width="1" height="4.2"/>
</g>
<g>
	<line class="st13" x1="858.7" y1="185.4" x2="858.7" y2="177.2"/>
	<path class="st12" d="M858.8,188.5c-1.6,0-3-1.4-3-3c0-1.8,1.4-3.2,3-3.2c1.8,0,3.2,1.4,3.2,3.2C862,187.1,860.6,188.5,858.8,188.5
		"/>
	<path d="M858.8,189.1c-2,0-3.7-1.6-3.7-3.7c0-2.2,1.7-3.8,3.7-3.8v1.1c-1.4,0-2.5,1.1-2.5,2.7c0,1.4,1.1,2.5,2.5,2.5V189.1z
		 M858.8,181.6v1.1c1.5,0,2.7,1.1,2.7,2.7c0,1.4-1.1,2.5-2.7,2.5v1.1c2.2,0,3.8-1.6,3.8-3.7C862.6,183.3,860.9,181.6,858.8,181.6"/>
	<rect x="854.6" y="181.2" class="st12" width="8.5" height="4.1"/>
	<rect x="858.2" y="182.1" width="1" height="4.2"/>
	<rect x="858.2" y="182.1" class="st14" width="1" height="4.2"/>
</g>
<g>
	<text transform="matrix(1 0 0 1 791.4669 175.5405)" class="st6 st24"> R gear indicator drive</text>
</g>
<g>
	<path class="st15" d="M985.5,401.1H736.3v-24.7h249.2c0,0-3.9,4.7,0,11.5C989.5,394.7,985.5,401.1,985.5,401.1z"/>
</g>
<g>
	<text transform="matrix(1 0 0 1 942.0883 380.3468)" class="st6 st24">Constant power</text>
</g>
<g>
	<text transform="matrix(1 0 0 1 796.5243 399.2816)" class="st6 st24">CAN_L</text>
</g>
<g>
	<text transform="matrix(1 0 0 1 749.84 399.2814)" class="st6 st24">CAN_H</text>
</g>
<line class="st0" x1="858" y1="411.9" x2="858" y2="769"/>
<g>
	<line class="st13" x1="858.1" y1="409.4" x2="858.1" y2="401.2"/>
	<path class="st12" d="M858.2,412.5c-1.6,0-3-1.4-3-3c0-1.8,1.4-3.2,3-3.2c1.8,0,3.2,1.4,3.2,3.2C861.4,411.1,860,412.5,858.2,412.5
		"/>
	<path d="M858.2,413.1c-2,0-3.7-1.6-3.7-3.7c0-2.2,1.7-3.8,3.7-3.8v1.1c-1.4,0-2.5,1.1-2.5,2.7c0,1.4,1.1,2.5,2.5,2.5V413.1z
		 M858.2,405.6v1.1c1.5,0,2.7,1.1,2.7,2.7c0,1.4-1.1,2.5-2.7,2.5v1.1c2.2,0,3.8-1.6,3.8-3.7C862,407.3,860.4,405.6,858.2,405.6"/>
	<rect x="854" y="405.2" class="st12" width="8.5" height="4.1"/>
	<rect x="857.6" y="406.1" width="1" height="4.2"/>
	<rect x="857.6" y="406.1" class="st14" width="1" height="4.2"/>
</g>
<g id="GB031_3_">
	<g>
		<g>
			<line class="st22" x1="858.1" y1="767.2" x2="858.1" y2="769.9"/>
		</g>
		<g>
			<line class="st22" x1="851.1" y1="769.9" x2="864.9" y2="769.9"/>
		</g>
		<g>
			<line class="st22" x1="853.9" y1="772.1" x2="862.1" y2="772.1"/>
		</g>
		<g>
			<line class="st22" x1="860.4" y1="774.2" x2="855.6" y2="774.2"/>
		</g>
	</g>
	<g>
		<rect x="847.7" y="776.7" class="st12" width="20.3" height="8.2"/>
		<rect x="848" y="777.1" class="st23" width="19.7" height="7.6"/>
	</g>
</g>
<rect x="851.7" y="431.5" class="st12" width="12.5" height="6"/>
<text transform="matrix(1 0 0 1 848.6755 436.6)" class="st6 st7">B 0.35</text>
<rect x="851.7" y="722.4" class="st12" width="12.5" height="6"/>
<text transform="matrix(1 0 0 1 848.6756 727.5544)" class="st6 st7">B 0.35</text>
<g>
	<text transform="matrix(1 0 0 1 854.046 398.7809)" class="st6 st24">Ground</text>
</g>
<rect x="862.7" y="526.2" class="st9" width="25.7" height="6.8"/>
<text transform="matrix(1 0 0 1 863.6652 531.7463)" class="st6 st7">SP5426</text>
<path class="st10" d="M861.1,538.3c0,1.7-1.3,2.9-2.8,2.9c-1.6,0-2.9-1.2-2.9-2.9c0-1.5,1.3-2.7,2.9-2.7
	C859.8,535.6,861.1,536.8,861.1,538.3z"/>
<g>
	<line class="st13" x1="910.4" y1="409.4" x2="910.4" y2="401.2"/>
	<path class="st12" d="M910.5,412.5c-1.6,0-3-1.4-3-3c0-1.8,1.4-3.2,3-3.2c1.8,0,3.2,1.4,3.2,3.2
		C913.7,411.1,912.3,412.5,910.5,412.5"/>
	<path d="M910.5,413.1c-2,0-3.7-1.6-3.7-3.7c0-2.2,1.7-3.8,3.7-3.8v1.1c-1.4,0-2.5,1.1-2.5,2.7c0,1.4,1.1,2.5,2.5,2.5V413.1z
		 M910.5,405.6v1.1c1.5,0,2.7,1.1,2.7,2.7c0,1.4-1.1,2.5-2.7,2.5v1.1c2.2,0,3.8-1.6,3.8-3.7C914.3,407.3,912.7,405.6,910.5,405.6"/>
	<rect x="906.3" y="405.2" class="st12" width="8.5" height="4.1"/>
	<rect x="909.9" y="406.1" width="1" height="4.2"/>
	<rect x="909.9" y="406.1" class="st14" width="1" height="4.2"/>
</g>
<rect x="904" y="431.5" class="st12" width="12.5" height="6"/>
<text transform="matrix(1 0 0 1 900.9633 436.6)" class="st6 st7">B 0.35</text>
<rect x="904" y="506" class="st12" width="12.5" height="6"/>
<text transform="matrix(1 0 0 1 900.9633 510.7963)" class="st6 st7">B 0.35</text>
<g>
	<text transform="matrix(1 0 0 1 906.3336 398.7809)" class="st6 st24">Ground</text>
</g>
<rect x="915.3" y="474.1" class="st9" width="25.7" height="6.8"/>
<text transform="matrix(1 0 0 1 916.3237 479.6521)" class="st6 st7">SP4892</text>
<path class="st10" d="M913.4,478c0,1.7-1.3,2.9-2.8,2.9c-1.6,0-2.9-1.2-2.9-2.9c0-1.5,1.3-2.7,2.9-2.7
	C912.1,475.3,913.4,476.5,913.4,478z"/>
<g>
	<text transform="matrix(1 0 0 1 791.4669 381.0244)" class="st6 st24">R gear indicator drive</text>
</g>
<g>
	<text transform="matrix(1 0 0 1 854.3254 381.0243)" class="st6 st24">Ground</text>
</g>
<g>
	<text transform="matrix(1 0 0 1 329.9294 381.2185)" class="st6 st24">IG3 power supply</text>
</g>
<line class="st36" x1="337.7" y1="164.4" x2="337.7" y2="365.6"/>
<line class="st37" x1="337.7" y1="164.4" x2="337.7" y2="365.6"/>
<g>
	<line class="st38" x1="337.9" y1="162.6" x2="337.9" y2="154.5"/>
	<path class="st12" d="M337.8,165.8c-1.7,0-3-1.4-3-3c0-1.8,1.4-3.2,3-3.2c1.8,0,3.2,1.4,3.2,3.2C341,164.4,339.6,165.8,337.8,165.8
		"/>
	<path d="M337.9,166.4c-2,0-3.7-1.6-3.7-3.7c0-2.2,1.7-3.8,3.7-3.8v1.2c-1.4,0-2.5,1.1-2.5,2.7c0,1.3,1.1,2.5,2.5,2.5V166.4z
		 M337.9,158.9v1.2c1.5,0,2.7,1.1,2.7,2.7c0,1.3-1.1,2.5-2.7,2.5v1.1c2.2,0,3.8-1.6,3.8-3.7S340.1,158.9,337.9,158.9"/>
	<rect x="333.5" y="158.5" class="st12" width="8.9" height="4.1"/>
	<rect x="337.4" y="159.4" width="1" height="4.2"/>
	<rect x="337.4" y="159.4" class="st39" width="1" height="4.2"/>
</g>
<g>
	<line class="st38" x1="337.7" y1="368.4" x2="337.7" y2="376.6"/>
	<path class="st12" d="M337.6,365.3c-1.7,0-3,1.4-3,3c0,1.8,1.4,3.2,3,3.2c1.8,0,3.2-1.4,3.2-3.2
		C340.8,366.7,339.4,365.3,337.6,365.3"/>
	<path d="M337.7,365.8c-1.4,0-2.5,1.2-2.5,2.5c0,1.6,1.1,2.7,2.5,2.7v1.2c-2,0-3.7-1.6-3.7-3.8c0-2.1,1.7-3.7,3.7-3.7V365.8z
		 M337.7,372.2c2.2,0,3.8-1.7,3.8-3.8c0-2.1-1.6-3.7-3.8-3.7v1.1c1.6,0,2.7,1.2,2.7,2.5c0,1.6-1.2,2.7-2.7,2.7V372.2"/>
	<rect x="333.3" y="368.5" class="st12" width="8.9" height="4.1"/>
	<rect x="337.2" y="367.5" width="1" height="4.2"/>
	<rect x="337.2" y="367.5" class="st39" width="1" height="4.2"/>
</g>
<rect x="322.8" y="293.5" class="st12" width="29.8" height="7.1"/>
<text transform="matrix(1 0 0 1 329.9294 298.8278)" class="st6 st7">R 8.0</text>
<rect x="322.8" y="293.5" class="st12" width="29.8" height="7.1"/>
<text transform="matrix(1 0 0 1 325.1013 298.8278)" class="st6 st7">R/Y 0.35</text>
<rect x="322.8" y="231.9" class="st12" width="29.8" height="7.1"/>
<text transform="matrix(1 0 0 1 329.9294 237.2549)" class="st6 st7">R 8.0</text>
<rect x="322.8" y="231.9" class="st12" width="29.8" height="7.1"/>
<text transform="matrix(1 0 0 1 325.1013 237.2549)" class="st6 st7">R/Y 0.35</text>
<rect x="322.8" y="191.3" class="st12" width="29.8" height="7.1"/>
<text transform="matrix(1 0 0 1 329.9294 196.6844)" class="st6 st7">R 8.0</text>
<rect x="322.8" y="191.3" class="st12" width="29.8" height="7.1"/>
<text transform="matrix(1 0 0 1 325.1013 196.6844)" class="st6 st7">R/Y 0.35</text>
<rect x="322.8" y="348.6" class="st12" width="29.8" height="7.1"/>
<text transform="matrix(1 0 0 1 329.9294 353.7417)" class="st6 st7">R 8.0</text>
<rect x="322.8" y="348.6" class="st12" width="29.8" height="7.1"/>
<text transform="matrix(1 0 0 1 325.1013 353.7417)" class="st6 st7">R/Y 0.35</text>
<path class="st10" d="M340.6,317.1c0,1.7-1.3,2.9-2.8,2.9c-1.6,0-2.9-1.2-2.9-2.9c0-1.5,1.3-2.7,2.9-2.7
	C339.3,314.3,340.6,315.6,340.6,317.1z"/>
<rect x="344.6" y="313" class="st40" width="25.3" height="6.8"/>
<text transform="matrix(1 0 0 1 345.3383 318.4191)" class="st6 st7">SP6005</text>
<path class="st10" d="M340.6,214.8c0,1.7-1.3,2.9-2.8,2.9c-1.6,0-2.9-1.2-2.9-2.9c0-1.5,1.3-2.7,2.9-2.7
	C339.3,212,340.6,213.3,340.6,214.8z"/>
<rect x="344.6" y="210.7" class="st40" width="25.3" height="6.8"/>
<text transform="matrix(1 0 0 1 345.5883 216.3867)" class="st6 st7">SP4915</text>
<g>
	<rect x="333.5" y="257.8" class="st12" width="8.5" height="18.8"/>
	<g>
		<g>
			<line class="st41" x1="337.6" y1="266.5" x2="337.6" y2="258.3"/>
		</g>
		<g>
			<line class="st42" x1="337.8" y1="269.7" x2="337.8" y2="276.2"/>
		</g>
		<g>
			<g>
				<g>
					<path class="st12" d="M337.7,269.6c-1.7,0-3.2-1.4-3.2-3.2c0-1.8,1.5-3.2,3.2-3.2c1.8,0,3.2,1.4,3.2,3.2
						C340.9,268.2,339.5,269.6,337.7,269.6z"/>
					<path d="M337.7,270.2c-2,0-3.7-1.8-3.7-3.8h1.1c0,1.4,1.1,2.5,2.5,2.5c1.5,0,2.7-1.1,2.7-2.5h1.1
						C341.5,268.4,339.9,270.2,337.7,270.2L337.7,270.2z M334,266.4h1.1c0-1.4,1.1-2.5,2.5-2.5c1.5,0,2.7,1.1,2.7,2.5h1.1
						c0-2.2-1.6-3.8-3.8-3.8C335.7,262.6,334,264.2,334,266.4z"/>
				</g>
				<rect x="333.5" y="262.2" class="st12" width="8.5" height="4.1"/>
				<rect x="337.1" y="263.1" width="1" height="4.2"/>
				<rect x="337.1" y="263.1" class="st39" width="1" height="4.2"/>
			</g>
		</g>
	</g>
</g>
<line class="st29" x1="453" y1="412.3" x2="453" y2="768.1"/>
<g>
	<line class="st43" x1="453" y1="409.8" x2="453" y2="401.6"/>
	<path class="st12" d="M453.1,412.9c-1.7,0-3-1.4-3-3c0-1.8,1.4-3.2,3-3.2c1.8,0,3.2,1.4,3.2,3.2
		C456.3,411.5,454.9,412.9,453.1,412.9"/>
	<path d="M453.1,413.5c-2,0-3.7-1.6-3.7-3.7c0-2.2,1.7-3.8,3.7-3.8v1.1c-1.4,0-2.5,1.1-2.5,2.7c0,1.4,1.1,2.5,2.5,2.5V413.5z
		 M453.1,406v1.1c1.5,0,2.7,1.1,2.7,2.7c0,1.4-1.1,2.5-2.7,2.5v1.1c2.2,0,3.8-1.6,3.8-3.7C456.9,407.7,455.3,406,453.1,406"/>
	<rect x="448.9" y="405.6" class="st12" width="8.5" height="4.1"/>
	<rect x="452.5" y="406.5" width="1" height="4.2"/>
	<rect x="452.5" y="406.5" class="st39" width="1" height="4.2"/>
</g>
<line class="st29" x1="503.1" y1="412.3" x2="503.1" y2="768.6"/>
<g>
	<line class="st43" x1="503.2" y1="409.8" x2="503.2" y2="401.6"/>
	<path class="st12" d="M503.3,412.9c-1.6,0-3-1.4-3-3c0-1.8,1.4-3.2,3-3.2c1.8,0,3.2,1.4,3.2,3.2
		C506.5,411.5,505.1,412.9,503.3,412.9"/>
	<path d="M503.3,413.5c-2,0-3.7-1.6-3.7-3.7c0-2.2,1.7-3.8,3.7-3.8v1.1c-1.4,0-2.5,1.1-2.5,2.7c0,1.4,1.1,2.5,2.5,2.5V413.5z
		 M503.3,406v1.1c1.5,0,2.7,1.1,2.7,2.7c0,1.4-1.1,2.5-2.7,2.5v1.1c2.2,0,3.8-1.6,3.8-3.7C507.1,407.7,505.5,406,503.3,406"/>
	<rect x="499.1" y="405.6" class="st12" width="8.5" height="4.1"/>
	<rect x="502.7" y="406.5" width="1" height="4.2"/>
	<rect x="502.7" y="406.5" class="st39" width="1" height="4.2"/>
</g>
<g id="GB031_9_">
	<g>
		<g>
			<line class="st44" x1="453" y1="766.8" x2="453" y2="769.5"/>
		</g>
		<g>
			<line class="st44" x1="446" y1="769.5" x2="459.8" y2="769.5"/>
		</g>
		<g>
			<line class="st44" x1="448.8" y1="771.7" x2="457" y2="771.7"/>
		</g>
		<g>
			<line class="st44" x1="455.3" y1="773.8" x2="450.5" y2="773.8"/>
		</g>
	</g>
	<g>
		<rect x="442.6" y="776.3" class="st12" width="20.3" height="8.2"/>
		<rect x="442.9" y="776.7" class="st45" width="19.7" height="7.6"/>
	</g>
</g>
<g id="GB031_7_">
	<g>
		<g>
			<line class="st44" x1="503.2" y1="766.8" x2="503.2" y2="769.5"/>
		</g>
		<g>
			<line class="st44" x1="496.2" y1="769.5" x2="510" y2="769.5"/>
		</g>
		<g>
			<line class="st44" x1="499" y1="771.7" x2="507.2" y2="771.7"/>
		</g>
		<g>
			<line class="st44" x1="505.5" y1="773.8" x2="500.7" y2="773.8"/>
		</g>
	</g>
	<g>
		<rect x="492.8" y="776.3" class="st12" width="20.3" height="8.2"/>
		<rect x="493.1" y="776.7" class="st45" width="19.7" height="7.6"/>
	</g>
</g>
<line class="st29" x1="400" y1="412.8" x2="400" y2="768.4"/>
<rect x="393.8" y="430.9" class="st12" width="12.5" height="6"/>
<text transform="matrix(1 0 0 1 392.5144 436.0129)" class="st6 st7">B 2.5</text>
<rect x="446.8" y="430.9" class="st12" width="12.5" height="6"/>
<text transform="matrix(1 0 0 1 445.5145 436.0129)" class="st6 st7">B 2.5</text>
<rect x="496.9" y="430.9" class="st12" width="12.5" height="6"/>
<text transform="matrix(1 0 0 1 493.7545 436.0129)" class="st6 st7">B 0.75</text>
<g>
	<line class="st43" x1="400.1" y1="409.4" x2="400.1" y2="401.2"/>
	<path class="st12" d="M400.2,412.5c-1.6,0-3-1.4-3-3c0-1.8,1.4-3.2,3-3.2c1.8,0,3.2,1.4,3.2,3.2C403.4,411.1,402,412.5,400.2,412.5
		"/>
	<path d="M400.2,413.1c-2,0-3.7-1.6-3.7-3.7c0-2.2,1.7-3.8,3.7-3.8v1.1c-1.4,0-2.5,1.1-2.5,2.7c0,1.4,1.1,2.5,2.5,2.5V413.1z
		 M400.2,405.6v1.1c1.5,0,2.7,1.1,2.7,2.7c0,1.4-1.1,2.5-2.7,2.5v1.1c2.2,0,3.8-1.6,3.8-3.7C404,407.3,402.4,405.6,400.2,405.6"/>
	<rect x="396" y="405.2" class="st12" width="8.5" height="4.1"/>
	<rect x="399.6" y="406.1" width="1" height="4.2"/>
	<rect x="399.6" y="406.1" class="st39" width="1" height="4.2"/>
</g>
<g id="GB031_12_">
	<g>
		<g>
			<line class="st44" x1="400.2" y1="766.8" x2="400.2" y2="769.5"/>
		</g>
		<g>
			<line class="st44" x1="393.2" y1="769.5" x2="407" y2="769.5"/>
		</g>
		<g>
			<line class="st44" x1="396" y1="771.7" x2="404.2" y2="771.7"/>
		</g>
		<g>
			<line class="st44" x1="402.5" y1="773.8" x2="397.7" y2="773.8"/>
		</g>
	</g>
	<g>
		<rect x="389.8" y="776.3" class="st12" width="20.3" height="8.2"/>
		<rect x="390.1" y="776.7" class="st45" width="19.7" height="7.6"/>
	</g>
</g>
<g>
	<text transform="matrix(1 0 0 1 390.8436 399.2817)" class="st6 st24">Power ground 1</text>
</g>
<g>
	<text transform="matrix(1 0 0 1 443.0794 399.2817)" class="st6 st24">Power ground 2</text>
</g>
<g>
	<text transform="matrix(1 0 0 1 491.8294 399.2817)" class="st6 st24">Signal ground</text>
</g>
<rect x="582.8" y="212.8" class="st9" width="28.4" height="6.8"/>
<text transform="matrix(1 0 0 1 583.4231 218.3372)" class="st6 st7">SP18906</text>
<path class="st10" d="M581.2,222.4c0,1.7-1.3,2.9-2.8,2.9c-1.6,0-2.9-1.2-2.9-2.9c0-1.5,1.3-2.7,2.9-2.7
	C579.9,219.7,581.2,220.9,581.2,222.4z"/>
<g>
	<text transform="matrix(1 0 0 1 344.958 263.8932)" class="st46 st6 st7">BJG01</text>
</g>
<g>
	<text transform="matrix(1 0 0 1 344.958 271.0934)" class="st46 st6 st7">GJB01</text>
</g>
<g>
	<text transform="matrix(1 0 0 1 364.208 271.1036)" class="st46 st6 st7">-15</text>
</g>
<g>
	<text transform="matrix(1 0 0 1 344.2563 161.36)" class="st46 st6 st7">B1D</text>
</g>
<g>
	<text transform="matrix(1 0 0 1 356.8188 161.36)" class="st46 st6 st7">-9</text>
</g>
<g>
	<text transform="matrix(1 0 0 1 343.6958 374.1256)" class="st46 st6 st7">G64(G)</text>
</g>
<g>
	<text transform="matrix(1 0 0 1 365.3833 374.1256)" class="st46 st6 st7">-11</text>
</g>
<g>
	<g>
		<g>
			<text transform="matrix(1 0 0 1 459.0839 409.5256)" class="st46 st6 st7">KG64(E)</text>
		</g>
	</g>
</g>
<g>
	<g>
		<g>
			<text transform="matrix(1 0 0 1 484.3339 409.5256)" class="st46 st6 st7">-20</text>
		</g>
	</g>
</g>
<g>
	<g>
		<g>
			<text transform="matrix(1 0 0 1 534.4589 409.5256)" class="st46 st6 st7">-43</text>
		</g>
	</g>
</g>
<g>
	<g>
		<g>
			<text transform="matrix(1 0 0 1 509.2424 409.5256)" class="st46 st6 st7">BG64(B)</text>
		</g>
	</g>
</g>
<g>
	<g>
		<g>
			<text transform="matrix(1 0 0 1 406.1399 409.5256)" class="st46 st6 st7">KG64(E)</text>
		</g>
	</g>
</g>
<g>
	<g>
		<g>
			<text transform="matrix(1 0 0 1 431.3899 409.5256)" class="st46 st6 st7">-8</text>
		</g>
	</g>
</g>
<g>
	<g>
		<g>
			<g>
				<text transform="matrix(1 0 0 1 445.323 782.5936)" class="st46 st6 st7">Ek02</text>
			</g>
		</g>
	</g>
</g>
<g>
	<g>
		<g>
			<g>
				<text transform="matrix(1 0 0 1 495.504 782.5936)" class="st46 st6 st7">Eb01</text>
			</g>
		</g>
	</g>
</g>
<g>
	<g>
		<g>
			<g>
				<text transform="matrix(1 0 0 1 392.4935 782.5936)" class="st46 st6 st7">Ek01</text>
			</g>
		</g>
	</g>
</g>
<g>
	<g>
		<text transform="matrix(1 0 0 1 265.3959 125.082)" class="st46 st6 st7">F4/03</text>
	</g>
</g>
<g>
	<g>
		<text transform="matrix(1 0 0 1 402.9002 149.8192)" class="st46 st6 st7">Rear Fog Light</text>
	</g>
</g>
<g>
	<g>
		<g id="FB103_119_">
			<g>
				<g id="FB103_120_">
					<g>
						<text transform="matrix(1 0 0 1 516.7 148.8003)" class="st46 st6 st7">Left middle combination tail light</text>
					</g>
				</g>
			</g>
		</g>
	</g>
</g>
<g>
	<g>
		<g>
			<text transform="matrix(1 0 0 1 439.3649 361.7979)" class="st46 st6 st7">Ek06</text>
		</g>
	</g>
</g>
<g>
	<g>
		<g>
			<text transform="matrix(1 0 0 1 714.4099 361.7979)" class="st46 st6 st7">Ey01</text>
		</g>
	</g>
</g>
<g>
	<g>
		<g>
			<text transform="matrix(1 0 0 1 86.4408 782.6357)" class="st46 st6 st7">Eg03</text>
		</g>
	</g>
</g>
<g>
	<g>
		<text transform="matrix(1 0 0 1 148.4258 125.3025)" class="st46 st6 st7">F2/11</text>
	</g>
</g>
<g>
	<g>
		<text transform="matrix(1 0 0 1 343.2116 125.3029)" class="st46 st6 st7">F1/12</text>
	</g>
</g>
<g>
	<g>
		<g id="FB103_117_">
			<g>
				<g id="FB103_118_">
					<g>
						<text transform="matrix(1 0 0 1 138.7805 390.6011)" class="st46 st6 st7">Combination Switch</text>
					</g>
				</g>
			</g>
		</g>
	</g>
</g>
<g>
	<g>
		<g id="FB103_115_">
			<g>
				<g id="FB103_116_">
					<g>
						<text transform="matrix(1 0 0 1 471.36 391.2103)" class="st46 st6 st7">Left domain control module</text>
					</g>
				</g>
			</g>
		</g>
	</g>
</g>
<g>
	<text transform="matrix(1 0 0 1 315.8937 409.652)" class="st46 st6 st7">G64(G)</text>
</g>
<g>
	<text transform="matrix(1 0 0 1 337.4562 409.652)" class="st46 st6 st7">-57</text>
</g>
<g>
	<text transform="matrix(1 0 0 1 266.7243 409.652)" class="st46 st6 st7">G64(G)</text>
</g>
<g>
	<text transform="matrix(1 0 0 1 287.9743 409.652)" class="st46 st6 st7">-56</text>
</g>
<g>
	<text transform="matrix(1 0 0 1 405.5435 373.0167)" class="st46 st6 st7">KG64(D)</text>
</g>
<g>
	<text transform="matrix(1 0 0 1 431.2519 373.0167)" class="st46 st6 st7">-5</text>
</g>
<g>
	<text transform="matrix(1 0 0 1 266.014 161.8727)" class="st46 st6 st7">B46_3</text>
</g>
<g>
	<text transform="matrix(1 0 0 1 285.014 161.8727)" class="st46 st6 st7">-1</text>
</g>
<g>
	<g>
		<text transform="matrix(1 0 0 1 962.2507 125.0822)" class="st46 st6 st7">F2/07</text>
	</g>
</g>
<g>
	<text transform="matrix(1 0 0 1 962.8689 161.8727)" class="st46 st6 st7">G82</text>
</g>
<g>
	<text transform="matrix(1 0 0 1 974.7439 161.8727)" class="st46 st6 st7">-8</text>
</g>
<g>
	<text transform="matrix(1 0 0 1 406.876 184.6227)" class="st46 st6 st7">RK41</text>
</g>
<g>
	<text transform="matrix(1 0 0 1 422.5635 184.6227)" class="st46 st6 st7">-1</text>
</g>
<g>
	<text transform="matrix(1 0 0 1 453.376 184.6227)" class="st46 st6 st7">RK41</text>
</g>
<g>
	<text transform="matrix(1 0 0 1 468.626 184.6227)" class="st46 st6 st7">-2</text>
</g>
<g>
	<text transform="matrix(1 0 0 1 149.0653 161.8727)" class="st46 st6 st7">G82</text>
</g>
<g>
	<text transform="matrix(1 0 0 1 161.3778 161.8727)" class="st46 st6 st7">-12</text>
</g>
<g>
	<text transform="matrix(1 0 0 1 148.6131 373.0167)" class="st46 st6 st7">G02</text>
</g>
<g>
	<text transform="matrix(1 0 0 1 160.3631 373.0167)" class="st46 st6 st7">-5</text>
</g>
<g>
	<text transform="matrix(1 0 0 1 808.3557 373.0167)" class="st46 st6 st7">G16</text>
</g>
<g>
	<text transform="matrix(1 0 0 1 820.3884 373.0167)" class="st46 st6 st7">-11</text>
</g>
<g>
	<text transform="matrix(1 0 0 1 864.0358 373.0167)" class="st46 st6 st7">G16</text>
</g>
<g>
	<text transform="matrix(1 0 0 1 875.7769 373.0167)" class="st46 st6 st7">-14</text>
</g>
<g>
	<text transform="matrix(1 0 0 1 962.4551 373.0167)" class="st46 st6 st7">G16</text>
</g>
<g>
	<text transform="matrix(1 0 0 1 974.196 373.0167)" class="st46 st6 st7">-5</text>
</g>
<g>
	<text transform="matrix(1 0 0 1 863.4507 409.6523)" class="st46 st6 st7">G16</text>
</g>
<g>
	<text transform="matrix(1 0 0 1 875.5042 409.6523)" class="st46 st6 st7">-1</text>
</g>
<g>
	<text transform="matrix(1 0 0 1 915.7384 409.6523)" class="st46 st6 st7">G16</text>
</g>
<g>
	<text transform="matrix(1 0 0 1 927.7919 409.6523)" class="st46 st6 st7">-4</text>
</g>
<g>
	<text transform="matrix(1 0 0 1 148.0723 409.6525)" class="st46 st6 st7">G02</text>
</g>
<g>
	<text transform="matrix(1 0 0 1 160.3223 409.6525)" class="st46 st6 st7">-1</text>
</g>
<g>
	<text transform="matrix(1 0 0 1 100.72 409.6525)" class="st46 st6 st7">G02</text>
</g>
<g>
	<text transform="matrix(1 0 0 1 112.97 409.6525)" class="st46 st6 st7">-3</text>
</g>
<g>
	<text transform="matrix(1 0 0 1 194.8682 409.6525)" class="st46 st6 st7">G02</text>
</g>
<g>
	<text transform="matrix(1 0 0 1 207.1182 409.6525)" class="st46 st6 st7">-2</text>
</g>
<g>
	<text transform="matrix(1 0 0 1 622.1804 409.6525)" class="st46 st6 st7">BG64(B)</text>
</g>
<g>
	<text transform="matrix(1 0 0 1 647.0554 409.6525)" class="st46 st6 st7">-13</text>
</g>
<g>
	<text transform="matrix(1 0 0 1 668.9763 409.6525)" class="st46 st6 st7">BG64(B)</text>
</g>
<g>
	<text transform="matrix(1 0 0 1 694.2429 409.6525)" class="st46 st6 st7">-14</text>
</g>
<g>
	<text transform="matrix(1 0 0 1 759.3737 409.6525)" class="st46 st6 st7">G16</text>
</g>
<g>
	<text transform="matrix(1 0 0 1 771.3903 409.6525)" class="st46 st6 st7">-7</text>
</g>
<g>
	<text transform="matrix(1 0 0 1 807.3737 409.6525)" class="st46 st6 st7">G16</text>
</g>
<g>
	<text transform="matrix(1 0 0 1 819.3903 409.6525)" class="st46 st6 st7">-8</text>
</g>
<g>
	<g>
		<g>
			<text transform="matrix(1 0 0 1 408.0364 264.3198)" class="st46 st6 st7">RJK01</text>
		</g>
	</g>
</g>
<g>
	<g>
		<g>
			<text transform="matrix(1 0 0 1 408.0364 271.0981)" class="st46 st6 st7">KJR01</text>
		</g>
	</g>
</g>
<g>
	<g>
		<g>
			<text transform="matrix(1 0 0 1 427.0989 271.098)" class="st46 st6 st7">-1</text>
		</g>
	</g>
</g>
<g>
	<text transform="matrix(1 0 0 1 583.3348 373.0167)" class="st46 st6 st7">KG64(D)</text>
</g>
<g>
	<text transform="matrix(1 0 0 1 608.6987 373.0167)" class="st46 st6 st7">-9</text>
</g>
<g>
	<text transform="matrix(1 0 0 1 528.701 184.6227)" class="st46 st6 st7">YK19(A)</text>
</g>
<g>
	<text transform="matrix(1 0 0 1 553.0773 184.6227)" class="st46 st6 st7">-1</text>
</g>
<g>
	<text transform="matrix(1 0 0 1 584.3221 184.6227)" class="st46 st6 st7">YK19(A)</text>
</g>
<g>
	<text transform="matrix(1 0 0 1 608.6984 184.6227)" class="st46 st6 st7">-4</text>
</g>
<g>
	<g>
		<g id="FB103_113_">
			<g>
				<g id="FB103_114_">
					<g>
						<text transform="matrix(1 0 0 1 652.7996 148.8)" class="st46 st6 st7">Right Center combination tail light</text>
					</g>
				</g>
			</g>
		</g>
	</g>
</g>
<g>
	<text transform="matrix(1 0 0 1 672.3498 184.6227)" class="st46 st6 st7">YK19(B)</text>
</g>
<g>
	<text transform="matrix(1 0 0 1 696.7261 184.6227)" class="st46 st6 st7">-4</text>
</g>
<g>
	<text transform="matrix(1 0 0 1 727.9709 184.6227)" class="st46 st6 st7">YK19(B)</text>
</g>
<g>
	<text transform="matrix(1 0 0 1 752.3472 184.6227)" class="st46 st6 st7">-1</text>
</g>
<g>
	<g>
		<g id="FB103_111_">
			<g>
				<g id="FB103_112_">
					<g>
						<text transform="matrix(1 0 0 1 819.3904 166.6262)" class="st46 st6 st7">Shift control panel</text>
					</g>
				</g>
			</g>
		</g>
	</g>
</g>
<g>
	<text transform="matrix(1 0 0 1 809.0192 184.6227)" class="st46 st6 st7">G39</text>
</g>
<g>
	<text transform="matrix(1 0 0 1 821.3954 184.6227)" class="st46 st6 st7">-4</text>
</g>
<g>
	<text transform="matrix(1 0 0 1 864.0363 184.6227)" class="st46 st6 st7">G39</text>
</g>
<g>
	<text transform="matrix(1 0 0 1 876.4125 184.6227)" class="st46 st6 st7">-1</text>
</g>
<g>
	<g>
		<g>
			<text transform="matrix(1 0 0 1 585.8276 264.3198)" class="st46 st6 st7">YJK01</text>
		</g>
	</g>
</g>
<g>
	<g>
		<g>
			<text transform="matrix(1 0 0 1 585.8276 271.0981)" class="st46 st6 st7">KJY01</text>
		</g>
	</g>
</g>
<g>
	<g>
		<g>
			<text transform="matrix(1 0 0 1 604.4943 271.0979)" class="st46 st6 st7">-7</text>
		</g>
	</g>
</g>
<g>
	<g>
		<g>
			<text transform="matrix(1 0 0 1 454.3616 264.3198)" class="st46 st6 st7">RJK01</text>
		</g>
	</g>
</g>
<g>
	<g>
		<g>
			<text transform="matrix(1 0 0 1 454.3616 271.0981)" class="st46 st6 st7">KJR01</text>
		</g>
	</g>
</g>
<g>
	<g>
		<g>
			<text transform="matrix(1 0 0 1 473.0491 271.098)" class="st46 st6 st7">-24</text>
		</g>
	</g>
</g>
<g>
	<g>
		<g id="FB103_109_">
			<g>
				<g id="FB103_110_">
					<g>
						<text transform="matrix(1 0 0 1 843.7966 390.6011)" class="st46 st6 st7">Shift control panel</text>
					</g>
				</g>
			</g>
		</g>
	</g>
</g>
<g>
	<g>
		<g>
			<text transform="matrix(1 0 0 1 850.388 782.952)" class="st46 st6 st7">Eg04</text>
		</g>
	</g>
</g>
<g>
	<text transform="matrix(1 0 0 1 298.8004 374.1255)" class="st46 st6 st7">-1</text>
</g>
<g>
	<text transform="matrix(1 0 0 1 266.0139 374.1255)" class="st46 st6 st7">BG64(A)_4</text>
</g>
<text transform="matrix(1 0 0 1 373.6808 125.5002)" class="st46 st6 st7">Front compartment fuse box</text>
<g>
	<text transform="matrix(1 0 0 1 186.1611 128.5803)" class="st46 st6 st7">Positive Fuse Box</text>
</g>
<g>
	<text transform="matrix(1 0 0 1 39.129 130.2)" class="st46 st6 st7">Instrument Distribution Box</text>
</g>
<g>
	<text transform="matrix(1 0 0 1 853.1859 125.5002)" class="st46 st6 st7">Instrument Distribution Box</text>
</g>
</svg>
