<?xml version="1.0" encoding="utf-8"?>
<!-- Generator: Adobe Illustrator 24.0.1, SVG Export Plug-In . SVG Version: 6.00 Build 0)  -->
<svg version="1.1" id="图层_1" xmlns="http://www.w3.org/2000/svg" xmlns:xlink="http://www.w3.org/1999/xlink" x="0px" y="0px"
	 viewBox="0 0 742 841.9" style="enable-background:new 0 0 742 841.9;" xml:space="preserve">
<style type="text/css">
	.st0{fill:none;stroke:#060001;stroke-width:3;stroke-miterlimit:10;}
	.st1{fill:none;stroke:#E60012;stroke-width:3;stroke-miterlimit:10;}
	.st2{fill:none;stroke:#060001;stroke-width:0.5;}
	.st3{fill:#DCDDDD;}
	.st4{font-family:'FZLTHJW--GB1-0';}
	.st5{font-size:6px;}
	.st6{fill:none;stroke:#060001;}
	.st7{fill:#9FD9F6;stroke:#000000;stroke-width:0.5;stroke-linecap:round;stroke-miterlimit:10;}
	.st8{fill:none;stroke:#000000;stroke-width:0.5;stroke-linecap:round;stroke-miterlimit:10;}
	.st9{fill:none;stroke:#000000;stroke-width:0.25;}
	.st10{fill:none;stroke:#000000;stroke-width:0.5;stroke-miterlimit:10;}
	.st11{fill:#FFFFFF;stroke:#000000;stroke-width:0.5;stroke-miterlimit:10;}
	.st12{fill:#9FD9F6;}
	.st13{fill:#9FD9F6;stroke:#060001;stroke-width:0.5;stroke-linecap:round;stroke-miterlimit:10;}
	.st14{fill:#DCDDDD;stroke:#000000;stroke-width:0.5;stroke-miterlimit:10;}
	.st15{fill:none;stroke:#000000;stroke-width:0.5;stroke-linecap:round;}
	.st16{fill:none;stroke:#000000;stroke-width:0.5;}
	.st17{fill:none;stroke:#F29C97;stroke-width:3;stroke-miterlimit:10;}
	.st18{fill:none;stroke:#89438F;stroke-width:3;stroke-miterlimit:10;}
	.st19{fill:none;stroke:#E60012;stroke-miterlimit:10;}
	.st20{fill:none;stroke:#000000;stroke-width:3;stroke-linecap:round;stroke-miterlimit:10;}
	.st21{fill:none;stroke:#009944;stroke-linecap:round;stroke-miterlimit:10;}
	.st22{stroke:#FFFFFF;stroke-width:0.5;}
	.st23{fill:none;stroke:#000000;stroke-width:0.6;stroke-linejoin:round;}
	.st24{fill:#FFFFFF;}
	.st25{fill:none;stroke:#000000;stroke-width:0.72;stroke-linecap:round;stroke-linejoin:round;}
	.st26{fill:none;stroke:#000000;stroke-width:0.6;stroke-linecap:round;stroke-linejoin:round;}
	.st27{fill:none;stroke:#000000;stroke-width:1.3;}
	.st28{fill:none;stroke:#080102;stroke-width:0.75;}
	.st29{fill:none;stroke:#060001;stroke-width:0.5;stroke-linejoin:round;}
	.st30{fill:#060001;stroke:#FFFFFF;stroke-width:0.5;}
	.st31{font-size:4px;}
	.st32{fill:#FFFFFF;stroke:#060001;stroke-width:0.25;stroke-linecap:round;stroke-linejoin:round;}
	.st33{fill:#FFFFFF;stroke:#060001;stroke-width:0.25;}
	.st34{fill:none;stroke:#FFF100;stroke-miterlimit:10;}
	.st35{fill:#FFFFFF;stroke:#000000;stroke-width:0.25;stroke-linecap:round;stroke-linejoin:round;}
	.st36{fill:#FFFFFF;stroke:#000000;stroke-width:0.25;}
	.st37{fill:none;stroke:#060001;stroke-width:0.5;stroke-linecap:round;stroke-linejoin:round;}
	.st38{fill:none;stroke:#060001;stroke-width:0.5;stroke-miterlimit:10;}
	.st39{stroke:#FFFFFF;}
	.st40{fill:none;stroke:#FFFFFF;stroke-width:1.0001;}
	.st41{fill:none;stroke:#000000;stroke-width:0.6001;stroke-linecap:round;stroke-linejoin:round;}
	.st42{fill:none;stroke:#000000;stroke-width:0.6001;stroke-linecap:round;}
	.st43{fill:none;stroke:#E60012;stroke-width:3;stroke-linecap:round;}
	.st44{fill:none;stroke:#FFFFFF;stroke-linecap:round;}
	.st45{fill:none;stroke:#000000;stroke-width:3;}
	.st46{fill:none;stroke:#000000;stroke-width:0.72;stroke-linecap:round;stroke-linejoin:round;stroke-miterlimit:4.0002;}
	.st47{fill:#005EAD;}
	.st48{font-size:8px;}
</style>
<polyline class="st0" points="220.6,618.7 220.6,692.9 148,692.9 "/>
<polyline class="st1" points="220.6,566.1 220.6,494.6 147.9,494.6 "/>
<g id="_x30_4-取电">
	<g id="选配信息_1_">
	</g>
</g>
<g id="_x30_3-部件">
</g>
<g id="_x30_2-线路">
</g>
<path class="st2" d="M689,59.3"/>
<path class="st2" d="M689,59.3"/>
<polyline class="st3" points="74,41.9 689,41.9 689,88.1 74,88.1 "/>
<line class="st2" x1="74" y1="47.6" x2="689" y2="47.6"/>
<line class="st2" x1="74" y1="41.6" x2="689" y2="41.6"/>
<line class="st2" x1="74" y1="58.9" x2="689" y2="58.9"/>
<line class="st2" x1="74" y1="70.6" x2="689" y2="70.6"/>
<line class="st2" x1="74" y1="82.3" x2="689" y2="82.3"/>
<line class="st2" x1="74" y1="88.1" x2="689" y2="88.1"/>
<text transform="matrix(1 0 0 1 61.0342 49.7119)" class="st4 st5">30</text>
<text transform="matrix(1 0 0 1 57.8701 60.8779)" class="st4 st5">IG1</text>
<text transform="matrix(1 0 0 1 57.8701 72.5029)" class="st4 st5">IG3</text>
<text transform="matrix(1 0 0 1 54.378 84.0029)" class="st4 st5">ACC</text>
<path class="st2" d="M74,59.3"/>
<line class="st2" x1="74" y1="47.6" x2="689" y2="47.6"/>
<line class="st6" x1="74" y1="41.6" x2="689" y2="41.6"/>
<line class="st2" x1="74" y1="82.3" x2="689" y2="82.3"/>
<line class="st6" x1="74" y1="88.1" x2="689" y2="88.1"/>
<path class="st2" d="M74,59.3"/>
<text transform="matrix(1 0 0 1 695 49.6298)" class="st4 st5">30</text>
<text transform="matrix(1 0 0 1 695 60.7958)" class="st4 st5">IG1</text>
<text transform="matrix(1 0 0 1 695 72.4208)" class="st4 st5">IG3</text>
<text transform="matrix(1 0 0 1 695 83.9247)" class="st4 st5">ACC</text>
<rect x="380.9" y="177" class="st7" width="82.5" height="25.9"/>
<path class="st7" d="M466.4,240.5h-85.1v-25.9h85.1c0,0-4.1,6.5,0,12.3S466.4,240.5,466.4,240.5z"/>
<line class="st8" x1="393.2" y1="214.5" x2="393.2" y2="203.1"/>
<line class="st8" x1="451.9" y1="214.4" x2="451.9" y2="203.1"/>
<path class="st9" d="M451.7,214.4v10.7h0.1c0.5,0,1,0.3,1.2,0.8c0.6,1.2-0.5,2.5-1.7,2.6c-1,0.1-2-0.3-2.7-1.1
	c-1.5-1.8-0.4-4.3,1.6-5c2.2-0.8,4.6,0.2,5.6,2.4c0.8,1.9,0.3,3.9-1.2,5.3c-1.3,1.1-2.9,1.5-4.6,1.3c-2.9-0.4-5.3-3.1-5.2-6.1
	c0.1-3.1,2.6-5.4,5.6-5.9c3.9-0.6,7.8,2.1,8.7,5.9c0.7,3.1-0.9,6.3-3.6,7.9c-1.4,0.8-2.3,1.1-3.8,1.2v6.5"/>
<path class="st9" d="M393.2,214.5v10.7h0.1c0.5,0,1,0.3,1.2,0.8c0.6,1.2-0.5,2.5-1.7,2.6c-1,0.1-2-0.3-2.7-1.1
	c-1.5-1.8-0.4-4.3,1.6-5c2.2-0.8,4.6,0.2,5.6,2.4c0.8,1.9,0.3,3.9-1.2,5.3c-1.3,1.1-2.9,1.5-4.6,1.3c-2.9-0.4-5.3-3.1-5.2-6.1
	c0.1-3.1,2.6-5.4,5.6-5.9c3.9-0.6,7.8,2.1,8.7,5.9c0.7,3.1-0.9,6.3-3.6,7.9c-1.4,0.8-2.3,1.1-3.8,1.2v6.5"/>
<g>
	<polyline class="st10" points="414.7,191.5 393.1,191.5 393.1,202.9 	"/>
	<ellipse class="st11" cx="416.4" cy="191" rx="1.6" ry="1.7"/>
	<line class="st10" x1="429.7" y1="191.1" x2="427.6" y2="191.1"/>
	<ellipse class="st11" cx="425.9" cy="191.1" rx="1.6" ry="1.7"/>
	<polyline class="st10" points="427.6,191.1 451.9,191.1 451.9,202.9 	"/>
	<rect x="414.3" y="186.1" class="st11" width="13.6" height="1.7"/>
</g>
<g>
	<path class="st12" d="M638.3,425.8h-516v-25.9h516c0,0-5,7.6,0,13S638.3,425.8,638.3,425.8"/>
	<path class="st13" d="M638.3,425.8h-516v-25.9h516c0,0-5,7.6,0,13S638.3,425.8,638.3,425.8z"/>
</g>
<g id="REB_x2C_A3_1_">
	<rect x="258.9" y="112.7" class="st14" width="49" height="71"/>
</g>
<g>
	<rect x="134.8" y="576.5" class="st13" width="32.4" height="32.2"/>
</g>
<g>
	<polyline class="st15" points="151.4,588.6 159.4,588.6 159.4,597.6 152.4,593.5 	"/>
	<line class="st16" x1="148" y1="587.1" x2="148" y2="576.7"/>
	<line class="st16" x1="148" y1="608.6" x2="148" y2="596.6"/>
	<circle class="st16" cx="148" cy="591.9" r="4.7"/>
</g>
<line class="st17" x1="606.7" y1="198.7" x2="606.7" y2="389.1"/>
<line class="st18" x1="555.3" y1="198.7" x2="555.3" y2="390.4"/>
<line class="st1" x1="278.6" y1="193.8" x2="278.6" y2="388.8"/>
<line class="st1" x1="148" y1="437.3" x2="148" y2="566.1"/>
<line class="st19" x1="148" y1="437.3" x2="148" y2="566.1"/>
<line class="st20" x1="451.8" y1="251.8" x2="451.8" y2="372.5"/>
<g>
	<path class="st11" d="M393.3,389.7c-0.8,0-1.5-0.7-1.5-1.5V251.8c0-0.8,0.7-1.5,1.5-1.5s1.5,0.7,1.5,1.5v136.4
		C394.8,389,394.1,389.7,393.3,389.7z"/>
</g>
<line class="st21" x1="393.3" y1="251.8" x2="393.3" y2="388.2"/>
<path class="st22" d="M454.7,338.6c0,1.7-1.3,2.9-2.8,2.9c-1.6,0-2.9-1.2-2.9-2.9c0-1.5,1.3-2.7,2.9-2.7
	C453.4,335.8,454.7,337.1,454.7,338.6z"/>
<g>
	<line class="st23" x1="278.6" y1="191.9" x2="278.6" y2="183.7"/>
	<path class="st24" d="M278.5,195c-1.7,0-3-1.4-3-3c0-1.8,1.4-3.2,3-3.2c1.8,0,3.2,1.4,3.2,3.2C281.7,193.6,280.3,195,278.5,195"/>
	<path d="M278.6,195.6c-2,0-3.7-1.6-3.7-3.7c0-2.2,1.7-3.8,3.7-3.8v1.2c-1.4,0-2.5,1.1-2.5,2.7c0,1.3,1.1,2.5,2.5,2.5V195.6z
		 M278.6,188.1v1.2c1.5,0,2.7,1.1,2.7,2.7c0,1.3-1.1,2.5-2.7,2.5v1.1c2.2,0,3.8-1.6,3.8-3.7C282.4,189.8,280.8,188.1,278.6,188.1"/>
	<rect x="274.2" y="187.7" class="st24" width="8.9" height="4.1"/>
	<rect x="278.1" y="188.6" width="1" height="4.2"/>
	<rect x="278.1" y="188.6" class="st25" width="1" height="4.2"/>
</g>
<g>
	<line class="st23" x1="278.6" y1="391.6" x2="278.6" y2="399.8"/>
	<path class="st24" d="M278.5,388.5c-1.7,0-3,1.4-3,3c0,1.8,1.4,3.2,3,3.2c1.8,0,3.2-1.4,3.2-3.2
		C281.7,389.9,280.3,388.5,278.5,388.5"/>
	<path d="M278.6,389c-1.4,0-2.5,1.2-2.5,2.5c0,1.6,1.1,2.7,2.5,2.7v1.2c-2,0-3.7-1.6-3.7-3.8c0-2.1,1.7-3.7,3.7-3.7V389z
		 M278.6,395.4c2.2,0,3.8-1.7,3.8-3.8c0-2.1-1.6-3.7-3.8-3.7v1.1c1.6,0,2.7,1.2,2.7,2.5c0,1.6-1.2,2.7-2.7,2.7V395.4"/>
	<rect x="274.2" y="391.7" class="st24" width="8.9" height="4.1"/>
	<rect x="278.1" y="390.7" width="1" height="4.2"/>
	<rect x="278.1" y="390.7" class="st25" width="1" height="4.2"/>
</g>
<g>
	<g>
		<line class="st26" x1="393.4" y1="391.3" x2="393.4" y2="399.5"/>
	</g>
	<g>
		<path class="st24" d="M393.3,388.2c1.7,0,3,1.4,3,3c0,1.8-1.4,3.2-3,3.2c-1.8,0-3.2-1.4-3.2-3.2
			C390.2,389.6,391.6,388.2,393.3,388.2z"/>
		<path d="M393.3,387.6c2,0,3.7,1.7,3.7,3.7c0,2.2-1.7,3.8-3.7,3.8V394c1.4,0,2.5-1.1,2.5-2.7c0-1.4-1.1-2.5-2.5-2.5V387.6
			L393.3,387.6z M393.3,395.1V394c-1.5,0-2.7-1.1-2.7-2.7c0-1.4,1.1-2.5,2.7-2.5v-1.1c-2.2,0-3.8,1.7-3.8,3.7
			S391.2,395.1,393.3,395.1z"/>
	</g>
	<rect x="389" y="391.4" class="st24" width="8.5" height="4.1"/>
	<rect x="393" y="390.4" width="1" height="4.2"/>
	<rect x="393" y="390.4" class="st25" width="1" height="4.2"/>
</g>
<g>
	<g>
		<line class="st26" x1="555.5" y1="391.3" x2="555.5" y2="399.5"/>
	</g>
	<g>
		<path class="st24" d="M555.4,388.2c1.7,0,3,1.4,3,3c0,1.8-1.4,3.2-3,3.2c-1.8,0-3.2-1.4-3.2-3.2
			C552.2,389.6,553.6,388.2,555.4,388.2z"/>
		<path d="M555.4,387.6c2,0,3.7,1.7,3.7,3.7c0,2.2-1.7,3.8-3.7,3.8V394c1.4,0,2.5-1.1,2.5-2.7c0-1.4-1.1-2.5-2.5-2.5V387.6
			L555.4,387.6z M555.4,395.1V394c-1.5,0-2.7-1.1-2.7-2.7c0-1.4,1.1-2.5,2.7-2.5v-1.1c-2.2,0-3.8,1.7-3.8,3.7
			C551.6,393.4,553.3,395.1,555.4,395.1z"/>
	</g>
	<rect x="551.1" y="391.4" class="st24" width="8.5" height="4.1"/>
	<rect x="555" y="390.4" width="1" height="4.2"/>
	<rect x="555" y="390.4" class="st25" width="1" height="4.2"/>
</g>
<g>
	<g>
		<line class="st26" x1="606.9" y1="391.3" x2="606.9" y2="399.5"/>
	</g>
	<g>
		<path class="st24" d="M606.8,388.2c1.7,0,3,1.4,3,3c0,1.8-1.4,3.2-3,3.2c-1.8,0-3.2-1.4-3.2-3.2
			C603.6,389.6,605,388.2,606.8,388.2z"/>
		<path d="M606.8,387.6c2,0,3.7,1.7,3.7,3.7c0,2.2-1.7,3.8-3.7,3.8V394c1.4,0,2.5-1.1,2.5-2.7c0-1.4-1.1-2.5-2.5-2.5V387.6
			L606.8,387.6z M606.8,395.1V394c-1.5,0-2.7-1.1-2.7-2.7c0-1.4,1.1-2.5,2.7-2.5v-1.1c-2.2,0-3.8,1.7-3.8,3.7
			S604.7,395.1,606.8,395.1z"/>
	</g>
	<rect x="602.5" y="391.4" class="st24" width="8.5" height="4.1"/>
	<rect x="606.4" y="390.4" width="1" height="4.2"/>
	<rect x="606.4" y="390.4" class="st25" width="1" height="4.2"/>
</g>
<g>
	<g>
		<line class="st26" x1="451.7" y1="248.8" x2="451.7" y2="240.5"/>
	</g>
	<g>
		<path class="st24" d="M451.7,251.8c-1.7,0-3-1.4-3-3c0-1.8,1.4-3.2,3-3.2c1.8,0,3.2,1.4,3.2,3.2
			C454.9,250.4,453.5,251.8,451.7,251.8z"/>
		<path d="M451.7,252.4c-2,0-3.7-1.6-3.7-3.7c0-2.2,1.7-3.8,3.7-3.8v1.1c-1.4,0-2.5,1.1-2.5,2.7c0,1.4,1.1,2.5,2.5,2.5V252.4
			L451.7,252.4z M451.7,244.9v1.1c1.5,0,2.7,1.1,2.7,2.7c0,1.4-1.1,2.5-2.7,2.5v1.1c2.2,0,3.8-1.6,3.8-3.7
			C455.6,246.6,453.9,244.9,451.7,244.9z"/>
	</g>
	<rect x="447.6" y="244.6" class="st24" width="8.5" height="4.1"/>
	<rect x="451.1" y="245.5" width="1" height="4.2"/>
	<rect x="451.1" y="245.5" class="st25" width="1" height="4.2"/>
</g>
<g>
	<g>
		<line class="st26" x1="393.1" y1="248.7" x2="393.1" y2="240.5"/>
	</g>
	<g>
		<path class="st24" d="M393.2,251.8c-1.7,0-3-1.4-3-3c0-1.8,1.4-3.2,3-3.2c1.8,0,3.2,1.4,3.2,3.2
			C396.4,250.4,395,251.8,393.2,251.8z"/>
		<path d="M393.2,252.4c-2,0-3.7-1.6-3.7-3.7c0-2.2,1.7-3.8,3.7-3.8v1.1c-1.4,0-2.5,1.1-2.5,2.7c0,1.4,1.1,2.5,2.5,2.5V252.4
			L393.2,252.4z M393.2,244.9v1.1c1.5,0,2.7,1.1,2.7,2.7c0,1.4-1.1,2.5-2.7,2.5v1.1c2.2,0,3.8-1.6,3.8-3.7
			C397,246.6,395.4,244.9,393.2,244.9z"/>
	</g>
	<rect x="389" y="244.5" class="st24" width="8.5" height="4.1"/>
	<rect x="392.6" y="245.4" width="1" height="4.2"/>
	<rect x="392.6" y="245.4" class="st25" width="1" height="4.2"/>
</g>
<g>
	<g>
		<line class="st27" x1="451.8" y1="371.1" x2="451.8" y2="373.8"/>
	</g>
	<g>
		<line class="st27" x1="444.7" y1="373.8" x2="458.6" y2="373.8"/>
	</g>
	<g>
		<line class="st27" x1="447.6" y1="376" x2="455.8" y2="376"/>
	</g>
	<g>
		<line class="st27" x1="454.1" y1="378.1" x2="449.3" y2="378.1"/>
	</g>
</g>
<g id="RF22_x2C_A3_1_">
	<g>
		<g>
			<path class="st28" d="M278.6,153.9c-1.2,0-2.2,1-2.2,2.2s1,2.2,2.2,2.2s2.2-1,2.2-2.2S279.8,153.9,278.6,153.9"/>
		</g>
		<g>
			<path class="st28" d="M278.6,138.1c-1.2,0-2.2,1-2.2,2.1c0,1.2,1,2.2,2.2,2.2s2.2-0.9,2.2-2.2
				C280.8,139.1,279.8,138.1,278.6,138.1"/>
		</g>
		<g>
			<path class="st28" d="M277.1,141.8c-0.1,2.5,0.2,3.2,1.3,4.3c1.2,1.2,2.4,1.7,2.8,3.7c0.4,1.6-0.1,3.5-1.1,4.5"/>
		</g>
		<g>
			<path class="st28" d="M280,154.4c0.2-0.8,0-2.9-0.6-3.7c-0.9-1.2-2.7-2.1-3.3-4c-0.9-2.8,0.7-4.6,1.1-5"/>
		</g>
	</g>
</g>
<g>
	<g>
		<polyline class="st29" points="278.6,158.3 278.6,163.2 278.6,183.5 		"/>
	</g>
</g>
<g>
	<g>
		<polyline class="st29" points="278.9,138.1 278.9,129.2 278.9,47.8 		"/>
	</g>
</g>
<line class="st0" x1="148" y1="618.7" x2="148" y2="765.6"/>
<line class="st0" x1="148" y1="618.7" x2="148" y2="765.6"/>
<g id="_x30_2-上针脚_9_">
	<line class="st23" x1="148.1" y1="434.1" x2="148.1" y2="425.9"/>
	<path class="st24" d="M148,437.2c1.8,0,3.2-1.4,3.2-3c0-1.8-1.4-3.2-3.2-3.2c-1.6,0-3,1.4-3,3.2C145,435.8,146.3,437.2,148,437.2"
		/>
	<path d="M148,437.8c-2,0-3.7-1.6-3.7-3.7c0-2.2,1.7-3.8,3.7-3.8v1.2c-1.4,0-2.5,1.1-2.5,2.7c0,1.3,1.1,2.5,2.5,2.5V437.8z
		 M148,430.3v1.2c1.5,0,2.7,1.1,2.7,2.7c0,1.3-1.1,2.5-2.7,2.5v1.1c2.2,0,3.8-1.6,3.8-3.7S150.2,430.3,148,430.3"/>
	<rect x="144" y="429.9" class="st24" width="8.1" height="4.1"/>
	<rect x="147.6" y="430.8" width="1" height="4.2"/>
	<rect x="147.6" y="430.8" class="st25" width="1" height="4.2"/>
</g>
<g>
	<line class="st23" x1="148" y1="568.3" x2="148" y2="576.5"/>
	<path class="st24" d="M147.9,565.2c-1.7,0-3,1.4-3,3c0,1.8,1.4,3.2,3,3.2c1.8,0,3.2-1.4,3.2-3.2
		C151.1,566.6,149.7,565.2,147.9,565.2"/>
	<path d="M147.9,565.7c-1.4,0-2.5,1.2-2.5,2.5c0,1.6,1.1,2.7,2.5,2.7v1.2c-2,0-3.7-1.6-3.7-3.8c0-2.1,1.7-3.7,3.7-3.7V565.7z
		 M147.9,572.1c2.2,0,3.8-1.7,3.8-3.8s-1.6-3.7-3.8-3.7v1.1c1.6,0,2.7,1.2,2.7,2.5c0,1.6-1.2,2.7-2.7,2.7V572.1"/>
	<rect x="143.5" y="568.4" class="st24" width="8.9" height="4.1"/>
	<rect x="147.5" y="567.4" width="1" height="4.2"/>
	<rect x="147.5" y="567.4" class="st25" width="1" height="4.2"/>
</g>
<g id="_x30_2-上针脚_3_">
	<line class="st23" x1="148" y1="616.8" x2="148" y2="608.6"/>
	<path class="st24" d="M147.9,619.9c-1.7,0-3-1.4-3-3c0-1.8,1.4-3.2,3-3.2c1.8,0,3.2,1.4,3.2,3.2
		C151.1,618.5,149.7,619.9,147.9,619.9"/>
	<path d="M147.9,620.5c-2,0-3.7-1.6-3.7-3.7c0-2.2,1.7-3.8,3.7-3.8v1.2c-1.4,0-2.5,1.1-2.5,2.7c0,1.3,1.1,2.5,2.5,2.5V620.5z
		 M147.9,613v1.2c1.5,0,2.7,1.1,2.7,2.7c0,1.3-1.1,2.5-2.7,2.5v1.1c2.2,0,3.8-1.6,3.8-3.7C151.7,614.7,150.1,613,147.9,613"/>
	<rect x="143.9" y="612.6" class="st24" width="8.1" height="4.1"/>
	<rect x="147.5" y="613.5" width="1" height="4.2"/>
	<rect x="147.5" y="613.5" class="st25" width="1" height="4.2"/>
</g>
<g>
	<g>
		<line class="st27" x1="141.1" y1="766.3" x2="155" y2="766.3"/>
	</g>
	<g>
		<line class="st27" x1="144" y1="768.5" x2="152.1" y2="768.5"/>
	</g>
	<g>
		<line class="st27" x1="150.5" y1="770.6" x2="145.6" y2="770.6"/>
	</g>
</g>
<g>
	<circle class="st30" cx="148" cy="692.9" r="2.6"/>
</g>
<rect x="263.7" y="216.3" class="st24" width="29.8" height="7.1"/>
<text transform="matrix(1 0 0 1 270.8231 221.6176)" class="st4 st5">R 8.0</text>
<rect x="263.7" y="216.3" class="st24" width="29.8" height="7.1"/>
<text transform="matrix(1 0 0 1 270.8231 221.6176)" class="st4 st5">R 8.0</text>
<rect x="263.7" y="360.3" class="st24" width="29.8" height="7.1"/>
<text transform="matrix(1 0 0 1 270.8231 365.4602)" class="st4 st5">R 8.0</text>
<rect x="263.7" y="360.3" class="st24" width="29.8" height="7.1"/>
<text transform="matrix(1 0 0 1 270.8231 365.4602)" class="st4 st5">R 8.0</text>
<text transform="matrix(1 0 0 1 139.5957 423.8048)" class="st4 st31">Horn power supply</text>
<text transform="matrix(1 0 0 1 274.1158 405.0791)" class="st4 st31">Constant power</text>
<g>
	<rect x="137.9" y="773.1" class="st24" width="20.3" height="8.2"/>
	<rect x="138.3" y="773.5" class="st32" width="19.7" height="7.6"/>
</g>
<text transform="matrix(1 0 0 1 285.8199 152.8826)" class="st4 st5">100A</text>
<rect x="133.1" y="724.7" class="st24" width="29.8" height="7.1"/>
<text transform="matrix(1 0 0 1 140.3524 730.0311)" class="st4 st5">B 2.5</text>
<g>
	<rect x="151.1" y="682.2" class="st33" width="24.3" height="6.9"/>
	<text transform="matrix(1 0 0 1 151.5287 687.5209)" class="st4 st5">SP4845</text>
</g>
<g>
	<circle class="st30" cx="148" cy="494.6" r="2.6"/>
</g>
<g>
	<rect x="152.6" y="483.2" class="st33" width="24.3" height="6.9"/>
	<text transform="matrix(1 0 0 1 153.0694 488.5687)" class="st4 st5">SP5396</text>
</g>
<rect x="133.1" y="651.4" class="st24" width="29.8" height="7.1"/>
<text transform="matrix(1 0 0 1 138.5708 656.8126)" class="st4 st5">B 0.75</text>
<rect x="144.7" y="450.6" class="st24" width="6.7" height="7.1"/>
<text transform="matrix(1 0 0 1 138.4351 455.9504)" class="st4 st5">R 0.75</text>
<rect x="144.7" y="533.3" class="st24" width="6.7" height="7.1"/>
<text transform="matrix(1 0 0 1 138.4351 538.6755)" class="st4 st5">R 0.75</text>
<g>
	<rect x="207.4" y="576.5" class="st13" width="32.4" height="32.2"/>
</g>
<g>
	<polyline class="st15" points="224,588.6 232,588.6 232,597.6 225,593.5 	"/>
	<line class="st16" x1="220.6" y1="587.1" x2="220.6" y2="576.7"/>
	<line class="st16" x1="220.6" y1="608.6" x2="220.6" y2="596.6"/>
	<circle class="st16" cx="220.6" cy="591.9" r="4.7"/>
</g>
<g>
	<line class="st23" x1="220.6" y1="568.3" x2="220.6" y2="576.5"/>
	<path class="st24" d="M220.5,565.2c-1.7,0-3,1.4-3,3c0,1.8,1.4,3.2,3,3.2c1.8,0,3.2-1.4,3.2-3.2
		C223.7,566.6,222.3,565.2,220.5,565.2"/>
	<path d="M220.5,565.7c-1.4,0-2.5,1.2-2.5,2.5c0,1.6,1.1,2.7,2.5,2.7v1.2c-2,0-3.7-1.6-3.7-3.8c0-2.1,1.7-3.7,3.7-3.7V565.7z
		 M220.5,572.1c2.2,0,3.8-1.7,3.8-3.8s-1.6-3.7-3.8-3.7v1.1c1.6,0,2.7,1.2,2.7,2.5c0,1.6-1.2,2.7-2.7,2.7V572.1"/>
	<rect x="216.1" y="568.4" class="st24" width="8.9" height="4.1"/>
	<rect x="220.1" y="567.4" width="1" height="4.2"/>
	<rect x="220.1" y="567.4" class="st25" width="1" height="4.2"/>
</g>
<g id="_x30_2-上针脚_1_">
	<line class="st23" x1="220.6" y1="616.8" x2="220.6" y2="608.6"/>
	<path class="st24" d="M220.5,619.9c-1.7,0-3-1.4-3-3c0-1.8,1.4-3.2,3-3.2c1.8,0,3.2,1.4,3.2,3.2
		C223.7,618.5,222.3,619.9,220.5,619.9"/>
	<path d="M220.5,620.5c-2,0-3.7-1.6-3.7-3.7c0-2.2,1.7-3.8,3.7-3.8v1.2c-1.4,0-2.5,1.1-2.5,2.7c0,1.3,1.1,2.5,2.5,2.5V620.5z
		 M220.5,613v1.2c1.5,0,2.7,1.1,2.7,2.7c0,1.3-1.1,2.5-2.7,2.5v1.1c2.2,0,3.8-1.6,3.8-3.7C224.3,614.7,222.7,613,220.5,613"/>
	<rect x="216.5" y="612.6" class="st24" width="8.1" height="4.1"/>
	<rect x="220.1" y="613.5" width="1" height="4.2"/>
	<rect x="220.1" y="613.5" class="st25" width="1" height="4.2"/>
</g>
<g id="_x30_2-上针脚_4_">
	<line class="st23" x1="463" y1="615.8" x2="463" y2="607.5"/>
	<path class="st24" d="M462.9,618.9c-1.7,0-3-1.4-3-3c0-1.8,1.4-3.2,3-3.2c1.8,0,3.2,1.4,3.2,3.2
		C466.1,617.5,464.7,618.9,462.9,618.9"/>
	<path d="M462.9,619.5c-2,0-3.7-1.6-3.7-3.7c0-2.2,1.7-3.8,3.7-3.8v1.2c-1.4,0-2.5,1.1-2.5,2.7c0,1.3,1.1,2.5,2.5,2.5V619.5z
		 M462.9,612v1.2c1.5,0,2.7,1.1,2.7,2.7c0,1.3-1.1,2.5-2.7,2.5v1.1c2.2,0,3.8-1.6,3.8-3.7C466.7,613.7,465.1,612,462.9,612"/>
	<rect x="458.9" y="611.5" class="st24" width="8.1" height="4.1"/>
	<rect x="462.5" y="612.5" width="1" height="4.2"/>
	<rect x="462.5" y="612.5" class="st25" width="1" height="4.2"/>
</g>
<rect x="205.7" y="651.4" class="st24" width="29.8" height="7.1"/>
<text transform="matrix(1 0 0 1 211.1259 656.8126)" class="st4 st5">B 0.75</text>
<rect x="217.2" y="533.3" class="st24" width="6.7" height="7.1"/>
<text transform="matrix(1 0 0 1 210.9901 538.6755)" class="st4 st5">R 0.75</text>
<g id="REB_x2C_A3_2_">
	<rect x="114.7" y="112.7" class="st14" width="61.2" height="71"/>
</g>
<line class="st1" x1="148.3" y1="193.8" x2="148.3" y2="388.8"/>
<line class="st34" x1="148.3" y1="193.8" x2="148.3" y2="388.8"/>
<g>
	<line class="st23" x1="148.3" y1="191.9" x2="148.3" y2="183.7"/>
	<path class="st24" d="M148.2,195c-1.7,0-3-1.4-3-3c0-1.8,1.4-3.2,3-3.2c1.8,0,3.2,1.4,3.2,3.2C151.4,193.6,150,195,148.2,195"/>
	<path d="M148.3,195.6c-2,0-3.7-1.6-3.7-3.7c0-2.2,1.7-3.8,3.7-3.8v1.2c-1.4,0-2.5,1.1-2.5,2.7c0,1.3,1.1,2.5,2.5,2.5V195.6z
		 M148.3,188.1v1.2c1.5,0,2.7,1.1,2.7,2.7c0,1.3-1.1,2.5-2.7,2.5v1.1c2.2,0,3.8-1.6,3.8-3.7C152.1,189.8,150.5,188.1,148.3,188.1"/>
	<rect x="143.9" y="187.7" class="st24" width="8.9" height="4.1"/>
	<rect x="147.8" y="188.6" width="1" height="4.2"/>
	<rect x="147.8" y="188.6" class="st25" width="1" height="4.2"/>
</g>
<g>
	<line class="st23" x1="148.3" y1="391.6" x2="148.3" y2="399.8"/>
	<path class="st24" d="M148.2,388.5c-1.7,0-3,1.4-3,3c0,1.8,1.4,3.2,3,3.2c1.8,0,3.2-1.4,3.2-3.2C151.4,389.9,150,388.5,148.2,388.5
		"/>
	<path d="M148.3,389c-1.4,0-2.5,1.2-2.5,2.5c0,1.6,1.1,2.7,2.5,2.7v1.2c-2,0-3.7-1.6-3.7-3.8c0-2.1,1.7-3.7,3.7-3.7V389z
		 M148.3,395.4c2.2,0,3.8-1.7,3.8-3.8c0-2.1-1.6-3.7-3.8-3.7v1.1c1.6,0,2.7,1.2,2.7,2.5c0,1.6-1.2,2.7-2.7,2.7V395.4"/>
	<rect x="143.9" y="391.7" class="st24" width="8.9" height="4.1"/>
	<rect x="147.8" y="390.7" width="1" height="4.2"/>
	<rect x="147.8" y="390.7" class="st25" width="1" height="4.2"/>
</g>
<g id="RF22_x2C_A3_2_">
	<g>
		<g>
			<path class="st28" d="M148.3,153.9c-1.2,0-2.2,1-2.2,2.2s1,2.2,2.2,2.2s2.2-1,2.2-2.2S149.5,153.9,148.3,153.9"/>
		</g>
		<g>
			<path class="st28" d="M148.3,138.1c-1.2,0-2.2,1-2.2,2.1c0,1.2,1,2.2,2.2,2.2s2.2-0.9,2.2-2.2
				C150.5,139.1,149.5,138.1,148.3,138.1"/>
		</g>
		<g>
			<path class="st28" d="M146.8,141.8c-0.1,2.5,0.2,3.2,1.3,4.3c1.2,1.2,2.4,1.7,2.8,3.7c0.4,1.6-0.1,3.5-1.1,4.5"/>
		</g>
		<g>
			<path class="st28" d="M149.7,154.4c0.2-0.8,0-2.9-0.6-3.7c-0.9-1.2-2.7-2.1-3.3-4c-0.9-2.8,0.7-4.6,1.1-5"/>
		</g>
	</g>
</g>
<g>
	<g>
		<polyline class="st29" points="148.3,158.3 148.3,163.2 148.3,183.5 		"/>
	</g>
</g>
<g>
	<g>
		<polyline class="st29" points="148.6,138.1 148.6,129.5 148.6,70.6 		"/>
	</g>
</g>
<rect x="133.4" y="316.6" class="st24" width="29.8" height="7.1"/>
<text transform="matrix(1 0 0 1 140.4644 321.9343)" class="st4 st5">R 8.0</text>
<rect x="133.4" y="316.6" class="st24" width="29.8" height="7.1"/>
<text transform="matrix(1 0 0 1 135.6363 321.9343)" class="st4 st5">R/Y 0.35</text>
<rect x="133.4" y="264.1" class="st24" width="29.8" height="7.1"/>
<text transform="matrix(1 0 0 1 140.4644 269.4343)" class="st4 st5">R 8.0</text>
<rect x="133.4" y="264.1" class="st24" width="29.8" height="7.1"/>
<text transform="matrix(1 0 0 1 135.6363 269.4343)" class="st4 st5">R/Y 0.35</text>
<rect x="133.4" y="216.3" class="st24" width="29.8" height="7.1"/>
<text transform="matrix(1 0 0 1 140.4644 221.6176)" class="st4 st5">R 8.0</text>
<rect x="133.4" y="216.3" class="st24" width="29.8" height="7.1"/>
<text transform="matrix(1 0 0 1 135.6363 221.6176)" class="st4 st5">R/Y 0.35</text>
<rect x="133.4" y="360.3" class="st24" width="29.8" height="7.1"/>
<text transform="matrix(1 0 0 1 140.4644 365.4602)" class="st4 st5">R 8.0</text>
<rect x="133.4" y="360.3" class="st24" width="29.8" height="7.1"/>
<text transform="matrix(1 0 0 1 135.6363 365.4602)" class="st4 st5">R/Y 0.35</text>
<text transform="matrix(1 0 0 1 141.2891 405.0791)" class="st4 st31">IG3 power supply</text>
<text transform="matrix(1 0 0 1 155.4932 152.8826)" class="st4 st5">7.5A</text>
<rect x="386.3" y="264.6" class="st24" width="13.9" height="6"/>
<g>
	<text transform="matrix(1 0 0 1 379.5718 269.4849)" class="st4 st5">W/G 0.22</text>
</g>
<rect x="386.3" y="360.3" class="st24" width="13.9" height="6"/>
<g>
	<text transform="matrix(1 0 0 1 379.5718 365.4601)" class="st4 st5">W/G 0.22</text>
</g>
<rect x="444.8" y="264.6" class="st24" width="13.9" height="6"/>
<g>
	<text transform="matrix(1 0 0 1 442.4467 269.4849)" class="st4 st5">B 0.22</text>
</g>
<rect x="444.8" y="360.3" class="st24" width="13.9" height="6"/>
<g>
	<text transform="matrix(1 0 0 1 442.4467 365.4598)" class="st4 st5">B 0.5</text>
</g>
<g>
	<text transform="matrix(1 0 0 1 377.2944 405.0793)" class="st4 st31">Horn control signal acquisition</text>
</g>
<g>
	<text transform="matrix(1 0 0 1 469.9911 191.9418)" class="st4 st5">Horn switch</text>
</g>
<g>
	<rect x="441.4" y="380.6" class="st24" width="20.3" height="8.2"/>
	<rect x="441.7" y="381" class="st35" width="19.7" height="7.6"/>
</g>
<rect x="458.3" y="335.7" class="st36" width="25.3" height="5.6"/>
<text transform="matrix(1 0 0 1 459.0409 340.5516)" class="st4 st5">SP4863</text>
<path class="st22" d="M151.1,338.5c0,1.7-1.3,2.9-2.8,2.9c-1.6,0-2.9-1.2-2.9-2.9c0-1.5,1.3-2.7,2.9-2.7
	C149.8,335.7,151.1,337,151.1,338.5z"/>
<rect x="155.2" y="335.6" class="st36" width="25.3" height="5.6"/>
<text transform="matrix(1 0 0 1 155.8734 340.4543)" class="st4 st5">SP6005</text>
<path class="st22" d="M151.1,247c0,1.7-1.3,2.9-2.8,2.9c-1.6,0-2.9-1.2-2.9-2.9c0-1.5,1.3-2.7,2.9-2.7
	C149.8,244.2,151.1,245.5,151.1,247z"/>
<rect x="155.2" y="244.1" class="st36" width="25.3" height="5.6"/>
<text transform="matrix(1 0 0 1 155.8734 248.9413)" class="st4 st5">SP4915</text>
<path class="st37" d="M553.1,194.4l0.6-2.1c0,0,0.6-2.5,3.3-2.6h22.1l0,0l1.9-2.7l1.9,2.7c9,0,22.1,0,22.1,0
	c2.7,0.1,3.3,2.6,3.3,2.6l0.6,2.1"/>
<path class="st38" d="M552.6,341.9c-1.9,0-3.5-1.5-3.5-3.5c0-1.9,1.6-3.5,3.5-3.5l57.7,6.9c1.9,0,3.5-1.5,3.5-3.5
	c0-1.9-1.6-3.5-3.5-3.5L552.6,341.9z"/>
<g>
	<text transform="matrix(1 0 0 1 599.7138 405.0793)" class="st4 st31">CAN_H</text>
</g>
<g>
	<text transform="matrix(1 0 0 1 548.6657 405.0793)" class="st4 st31">CAN_L</text>
</g>
<g>
	<rect x="604" y="360.3" class="st24" width="5.9" height="6"/>
	<g>
		<text transform="matrix(1 0 0 1 599.0075 365.4779)" class="st4 st5">P 0.35</text>
	</g>
</g>
<rect x="548.5" y="360.3" class="st24" width="13.7" height="6"/>
<g>
	<text transform="matrix(1 0 0 1 545.9308 365.4598)" class="st4 st5">V 0.35</text>
</g>
<text transform="matrix(1 0 0 1 510.572 183.4999)" class="st4 st5">See Intelligent Access Network - Circuit Diagram</text>
<line class="st20" x1="338" y1="436.5" x2="338" y2="765.4"/>
<line class="st20" x1="393" y1="436.5" x2="393" y2="765.1"/>
<g id="GB031_4_">
	<g>
		<g>
			<line class="st27" x1="393" y1="763.8" x2="393" y2="766.5"/>
		</g>
		<g>
			<line class="st27" x1="386" y1="766.5" x2="399.8" y2="766.5"/>
		</g>
		<g>
			<line class="st27" x1="388.8" y1="768.7" x2="397" y2="768.7"/>
		</g>
		<g>
			<line class="st27" x1="395.3" y1="770.8" x2="390.5" y2="770.8"/>
		</g>
	</g>
	<g>
		<rect x="382.6" y="773.3" class="st24" width="20.3" height="8.2"/>
		<rect x="382.9" y="773.7" class="st35" width="19.7" height="7.6"/>
	</g>
</g>
<g id="GB031_3_">
	<g>
		<g>
			<line class="st27" x1="462.7" y1="763.6" x2="462.7" y2="766.3"/>
		</g>
		<g>
			<line class="st27" x1="455.7" y1="766.3" x2="469.5" y2="766.3"/>
		</g>
		<g>
			<line class="st27" x1="458.5" y1="768.5" x2="466.7" y2="768.5"/>
		</g>
		<g>
			<line class="st27" x1="465" y1="770.6" x2="460.2" y2="770.6"/>
		</g>
	</g>
	<g>
		<rect x="452.3" y="773.1" class="st24" width="20.3" height="8.2"/>
		<rect x="452.6" y="773.5" class="st35" width="19.7" height="7.6"/>
	</g>
</g>
<g id="GB031_2_">
	<g>
		<g>
			<line class="st27" x1="338" y1="763.8" x2="338" y2="766.5"/>
		</g>
		<g>
			<line class="st27" x1="331" y1="766.5" x2="344.8" y2="766.5"/>
		</g>
		<g>
			<line class="st27" x1="333.8" y1="768.7" x2="342" y2="768.7"/>
		</g>
		<g>
			<line class="st27" x1="340.3" y1="770.8" x2="335.5" y2="770.8"/>
		</g>
	</g>
	<g>
		<rect x="327.6" y="773.3" class="st24" width="20.3" height="8.2"/>
		<rect x="327.9" y="773.7" class="st35" width="19.7" height="7.6"/>
	</g>
</g>
<rect x="332" y="451.1" class="st24" width="12.5" height="6"/>
<text transform="matrix(1 0 0 1 330.4404 455.9501)" class="st4 st5">B 2.5</text>
<rect x="386.5" y="451.1" class="st24" width="12.5" height="6"/>
<text transform="matrix(1 0 0 1 384.9169 455.9501)" class="st4 st5">B 2.5</text>
<g>
	<text transform="matrix(1 0 0 1 329.9635 423.4465)" class="st4 st31">Power ground 1</text>
</g>
<g>
	<text transform="matrix(1 0 0 1 384.8611 423.4465)" class="st4 st31">Power ground 2</text>
</g>
<g id="_x30_2-上针脚_17_">
	<line class="st23" x1="338" y1="434" x2="338" y2="425.8"/>
	<path class="st24" d="M337.9,437.1c-1.7,0-3-1.4-3-3c0-1.8,1.4-3.2,3-3.2c1.8,0,3.2,1.4,3.2,3.2
		C341.1,435.7,339.7,437.1,337.9,437.1"/>
	<path d="M337.9,437.7c-2,0-3.7-1.6-3.7-3.7c0-2.2,1.7-3.8,3.7-3.8v1.2c-1.4,0-2.5,1.1-2.5,2.7c0,1.3,1.1,2.5,2.5,2.5V437.7z
		 M337.9,430.2v1.2c1.5,0,2.7,1.1,2.7,2.7c0,1.3-1.1,2.5-2.7,2.5v1.1c2.2,0,3.8-1.6,3.8-3.7C341.7,431.9,340.1,430.2,337.9,430.2"/>
	<rect x="333.9" y="429.8" class="st24" width="8.1" height="4.1"/>
	<rect x="337.5" y="430.7" width="1" height="4.2"/>
	<rect x="337.5" y="430.7" class="st25" width="1" height="4.2"/>
</g>
<line class="st20" x1="279.3" y1="436.5" x2="279.3" y2="765.4"/>
<g id="GB031_1_">
	<g>
		<g>
			<line class="st27" x1="279.3" y1="763.8" x2="279.3" y2="766.5"/>
		</g>
		<g>
			<line class="st27" x1="272.3" y1="766.5" x2="286.1" y2="766.5"/>
		</g>
		<g>
			<line class="st27" x1="275.1" y1="768.7" x2="283.3" y2="768.7"/>
		</g>
		<g>
			<line class="st27" x1="281.6" y1="770.8" x2="276.8" y2="770.8"/>
		</g>
	</g>
	<g>
		<rect x="268.9" y="773.3" class="st24" width="20.3" height="8.2"/>
		<rect x="269.2" y="773.7" class="st35" width="19.7" height="7.6"/>
	</g>
</g>
<rect x="273.1" y="451.1" class="st24" width="12.5" height="6"/>
<text transform="matrix(1 0 0 1 269.9476 455.9501)" class="st4 st5">B 0.75</text>
<g>
	<text transform="matrix(1 0 0 1 271.2977 423.4465)" class="st4 st31">Signal ground</text>
</g>
<g id="_x30_2-上针脚_2_">
	<line class="st23" x1="279.3" y1="434" x2="279.3" y2="425.8"/>
	<path class="st24" d="M279.2,437.1c-1.7,0-3-1.4-3-3c0-1.8,1.4-3.2,3-3.2c1.8,0,3.2,1.4,3.2,3.2C282.4,435.7,281,437.1,279.2,437.1
		"/>
	<path d="M279.2,437.7c-2,0-3.7-1.6-3.7-3.7c0-2.2,1.7-3.8,3.7-3.8v1.2c-1.4,0-2.5,1.1-2.5,2.7c0,1.3,1.1,2.5,2.5,2.5V437.7z
		 M279.2,430.2v1.2c1.5,0,2.7,1.1,2.7,2.7c0,1.3-1.1,2.5-2.7,2.5v1.1c2.2,0,3.8-1.6,3.8-3.7C283,431.9,281.4,430.2,279.2,430.2"/>
	<rect x="275.2" y="429.8" class="st24" width="8.1" height="4.1"/>
	<rect x="278.8" y="430.7" width="1" height="4.2"/>
	<rect x="278.8" y="430.7" class="st25" width="1" height="4.2"/>
</g>
<g id="_x30_2-上针脚_16_">
	<line class="st23" x1="392.9" y1="434" x2="392.9" y2="425.8"/>
	<path class="st24" d="M392.8,437.1c-1.7,0-3-1.4-3-3c0-1.8,1.4-3.2,3-3.2c1.8,0,3.2,1.4,3.2,3.2C396,435.7,394.6,437.1,392.8,437.1
		"/>
	<path d="M392.8,437.7c-2,0-3.7-1.6-3.7-3.7c0-2.2,1.7-3.8,3.7-3.8v1.2c-1.4,0-2.5,1.1-2.5,2.7c0,1.3,1.1,2.5,2.5,2.5V437.7z
		 M392.8,430.2v1.2c1.5,0,2.7,1.1,2.7,2.7c0,1.3-1.1,2.5-2.7,2.5v1.1c2.2,0,3.8-1.6,3.8-3.7C396.6,431.9,395,430.2,392.8,430.2"/>
	<rect x="388.8" y="429.8" class="st24" width="8.1" height="4.1"/>
	<rect x="392.4" y="430.7" width="1" height="4.2"/>
	<rect x="392.4" y="430.7" class="st25" width="1" height="4.2"/>
</g>
<g>
	<path class="st39" d="M276,47.7c0-1.7,1.3-2.9,2.8-2.9c1.6,0,2.9,1.2,2.9,2.9c0,1.5-1.3,2.7-2.9,2.7C277.3,50.4,276,49.2,276,47.7z
		"/>
	<g>
		<path class="st40" d="M276,47.7c0-1.7,1.3-2.9,2.8-2.9c1.6,0,2.9,1.2,2.9,2.9c0,1.5-1.3,2.7-2.9,2.7C277.3,50.4,276,49.2,276,47.7
			"/>
	</g>
</g>
<g>
	<path class="st39" d="M145.7,70.5c0-1.7,1.3-2.9,2.8-2.9c1.6,0,2.9,1.2,2.9,2.9c0,1.5-1.3,2.7-2.9,2.7
		C147,73.2,145.7,72,145.7,70.5z"/>
	<g>
		<path class="st40" d="M145.7,70.5c0-1.7,1.3-2.9,2.8-2.9c1.6,0,2.9,1.2,2.9,2.9c0,1.5-1.3,2.7-2.9,2.7
			C147,73.2,145.7,72,145.7,70.5"/>
	</g>
</g>
<g>
	<rect x="144" y="284.5" class="st24" width="8.5" height="18.8"/>
	<g>
		<g>
			<line class="st41" x1="148.1" y1="293.2" x2="148.1" y2="285"/>
		</g>
		<g>
			<line class="st42" x1="148.3" y1="296.4" x2="148.3" y2="302.8"/>
		</g>
		<g>
			<g>
				<g>
					<path class="st24" d="M148.2,296.2c-1.7,0-3.2-1.4-3.2-3.2c0-1.8,1.5-3.2,3.2-3.2c1.8,0,3.2,1.4,3.2,3.2
						C151.4,294.9,150,296.2,148.2,296.2z"/>
					<path d="M148.2,296.9c-2,0-3.7-1.8-3.7-3.8h1.1c0,1.4,1.1,2.5,2.5,2.5c1.5,0,2.7-1.1,2.7-2.5h1.1
						C152,295.1,150.4,296.9,148.2,296.9L148.2,296.9z M144.6,293.1h1.1c0-1.4,1.1-2.5,2.5-2.5c1.5,0,2.7,1.1,2.7,2.5h1.1
						c0-2.2-1.6-3.8-3.8-3.8C146.2,289.3,144.6,290.9,144.6,293.1z"/>
				</g>
				<rect x="144" y="288.9" class="st24" width="8.5" height="4.1"/>
				<rect x="147.6" y="289.8" width="1" height="4.2"/>
				<rect x="147.6" y="289.8" class="st25" width="1" height="4.2"/>
			</g>
		</g>
	</g>
</g>
<line class="st43" x1="463.6" y1="435.8" x2="463.6" y2="563.4"/>
<line class="st43" x1="463.6" y1="435.8" x2="463.6" y2="563.4"/>
<line class="st44" x1="463.6" y1="435.8" x2="463.6" y2="563.4"/>
<line class="st45" x1="462.7" y1="618.9" x2="462.7" y2="766.2"/>
<g>
	<g>
		<line class="st26" x1="463.4" y1="434.2" x2="463.5" y2="425.9"/>
	</g>
	<g>
		<path class="st24" d="M463.5,437.2c-1.7,0-3-1.4-3-3.1c0-1.8,1.4-3.2,3.1-3.2c1.8,0,3.2,1.4,3.2,3.2
			C466.7,435.8,465.3,437.2,463.5,437.2z"/>
		<path d="M463.5,437.8c-2,0-3.7-1.7-3.7-3.7c0-2.2,1.7-3.8,3.7-3.8v1.1c-1.4,0-2.5,1.1-2.6,2.6c0,1.4,1.1,2.5,2.5,2.6L463.5,437.8
			L463.5,437.8z M463.5,430.3v1.1c1.5,0,2.7,1.2,2.7,2.7c0,1.4-1.2,2.5-2.7,2.5v1.1c2.2,0,3.8-1.6,3.8-3.7
			C467.3,432,465.7,430.4,463.5,430.3z"/>
	</g>
	
		<rect x="461.5" y="427.8" transform="matrix(5.789578e-03 -1 1 5.789578e-03 28.8443 893.0397)" class="st24" width="4.1" height="8.5"/>
	<rect x="461.3" y="432.5" transform="matrix(5.789578e-03 -1 1 5.789578e-03 27.7322 893.8325)" width="4.2" height="1"/>
	
		<rect x="461.3" y="432.5" transform="matrix(5.789578e-03 -1 1 5.789578e-03 27.7322 893.8325)" class="st46" width="4.2" height="1"/>
</g>
<g>
	<g>
		<line class="st26" x1="463.3" y1="566" x2="463.3" y2="574.2"/>
	</g>
	<g>
		<path class="st24" d="M463.2,562.9c1.7,0,3,1.4,3,3c0,1.8-1.4,3.2-3,3.2c-1.8,0-3.2-1.4-3.2-3.2
			C460,564.3,461.4,562.9,463.2,562.9z"/>
		<path d="M463.2,562.3c2,0,3.7,1.7,3.7,3.7c0,2.2-1.7,3.8-3.7,3.8v-1.1c1.4,0,2.5-1.1,2.5-2.7c0-1.4-1.1-2.5-2.5-2.5V562.3
			L463.2,562.3z M463.2,569.8v-1.1c-1.5,0-2.7-1.1-2.7-2.7c0-1.4,1.1-2.5,2.7-2.5v-1.1c-2.2,0-3.8,1.7-3.8,3.7
			C459.4,568.1,461.1,569.8,463.2,569.8z"/>
	</g>
	<rect x="458.9" y="566.1" class="st24" width="8.5" height="4.1"/>
	<rect x="462.8" y="565.1" width="1" height="4.2"/>
	<rect x="462.8" y="565.1" class="st25" width="1" height="4.2"/>
</g>
<g>
	<rect x="459.3" y="517.6" class="st24" width="8.5" height="18.8"/>
	<g>
		<g>
			<line class="st41" x1="463.4" y1="526.3" x2="463.4" y2="518"/>
		</g>
		<g>
			<line class="st42" x1="463.5" y1="529.4" x2="463.5" y2="535.9"/>
		</g>
		<g>
			<g>
				<g>
					<path class="st24" d="M463.5,529.3c-1.7,0-3.2-1.4-3.2-3.2s1.5-3.2,3.2-3.2c1.8,0,3.2,1.4,3.2,3.2
						C466.6,527.9,465.2,529.3,463.5,529.3z"/>
					<path d="M463.5,529.9c-2,0-3.7-1.8-3.7-3.8h1.1c0,1.4,1.1,2.5,2.5,2.5c1.5,0,2.7-1.1,2.7-2.5h1.1
						C467.3,528.2,465.6,529.9,463.5,529.9L463.5,529.9z M459.8,526.1h1.1c0-1.4,1.1-2.5,2.5-2.5c1.5,0,2.7,1.1,2.7,2.5h1.1
						c0-2.2-1.6-3.8-3.8-3.8C461.4,522.3,459.8,524,459.8,526.1z"/>
				</g>
				<rect x="459.3" y="521.9" class="st24" width="8.5" height="4.1"/>
				<rect x="462.9" y="522.8" width="1" height="4.2"/>
				<rect x="462.9" y="522.8" class="st25" width="1" height="4.2"/>
			</g>
		</g>
	</g>
</g>
<rect x="457.2" y="451.1" class="st24" width="12.7" height="6"/>
<rect x="457.3" y="451.1" class="st24" width="12.5" height="6"/>
<g>
	<text transform="matrix(1 0 0 1 450.8066 456.0466)" class="st4 st5">R/W 0.35</text>
</g>
<rect x="456" y="546.1" class="st24" width="12.7" height="6"/>
<rect x="456.1" y="546.1" class="st24" width="12.5" height="6"/>
<g>
	<text transform="matrix(1 0 0 1 449.5645 551.0624)" class="st4 st5">R/W 0.35</text>
</g>
<rect x="456" y="500.3" class="st24" width="12.7" height="6"/>
<rect x="456.1" y="500.3" class="st24" width="12.5" height="6"/>
<g>
	<text transform="matrix(1 0 0 1 449.5645 505.2965)" class="st4 st5">R/W 0.35</text>
</g>
<rect x="455.2" y="630" class="st24" width="12.7" height="6"/>
<rect x="455.3" y="630" class="st24" width="12.5" height="6"/>
<g>
	<text transform="matrix(1 0 0 1 452.6736 634.9099)" class="st4 st5">B 0.35</text>
</g>
<rect x="455.2" y="672.5" class="st24" width="12.7" height="6"/>
<rect x="455.3" y="672.5" class="st24" width="12.5" height="6"/>
<g>
	<text transform="matrix(1 0 0 1 452.6736 677.4565)" class="st4 st5">B 0.35</text>
</g>
<rect x="455.2" y="735.3" class="st24" width="12.7" height="6"/>
<rect x="455.3" y="735.3" class="st24" width="12.5" height="6"/>
<g>
	<text transform="matrix(1 0 0 1 452.6085 740.2031)" class="st4 st5">B 0.35</text>
</g>
<g>
	<path class="st7" d="M511.8,607.3h-68.1v-32.9h68.1c0,0-6.6,6.3,0,15.3C518.4,598.7,511.8,607.3,511.8,607.3z"/>
</g>
<g>
	<text transform="matrix(1 0 0 1 449.5643 423.2598)" class="st4 st31">Anti-theft indicator drive</text>
</g>
<g>
	<text transform="matrix(1 0 0 1 449.5643 579.9603)" class="st4 st31">Anti-theft indicator drive pin</text>
</g>
<g>
	<text transform="matrix(1 0 0 1 459.2059 605.4915)" class="st4 st31">Ground</text>
</g>
<g>
	<text transform="matrix(1 0 0 1 468.2495 432.6315)" class="st47 st4 st5">TG64(H)</text>
</g>
<g>
	<text transform="matrix(1 0 0 1 493.2495 432.6315)" class="st47 st4 st5">-47</text>
</g>
<g>
	<text transform="matrix(1 0 0 1 468.8301 572.6637)" class="st47 st4 st5">GaG04</text>
</g>
<g>
	<text transform="matrix(1 0 0 1 489.749 572.6637)" class="st47 st4 st5">-1</text>
</g>
<g>
	<text transform="matrix(1 0 0 1 468.2495 615.6736)" class="st47 st4 st5">GaG04</text>
</g>
<g>
	<text transform="matrix(1 0 0 1 489.1685 615.6736)" class="st47 st4 st5">-2</text>
</g>
<g>
	<text transform="matrix(1 0 0 1 469.7236 526.1609)" class="st47 st4 st5">GJGa01</text>
</g>
<g>
	<text transform="matrix(1 0 0 1 469.7236 532.1609)" class="st47 st4 st5">GaJG01</text>
</g>
<g>
	<text transform="matrix(1 0 0 1 492.7891 532.1609)" class="st47 st4 st5">-5</text>
</g>
<g>
	<rect x="458.4" y="698.6" class="st24" width="8.5" height="18.8"/>
	<g>
		<g>
			<line class="st41" x1="462.8" y1="708.7" x2="462.8" y2="717"/>
		</g>
		<g>
			<line class="st42" x1="462.7" y1="705.6" x2="462.7" y2="699.1"/>
		</g>
		<g>
			<g>
				<g>
					<path class="st24" d="M462.7,705.7c1.7,0,3.2,1.4,3.2,3.2s-1.5,3.2-3.2,3.2c-1.8,0-3.2-1.4-3.2-3.2
						C459.6,707.1,461,705.7,462.7,705.7z"/>
					<path d="M462.7,705.1c2,0,3.7,1.8,3.7,3.8h-1.1c0-1.4-1.1-2.5-2.5-2.5c-1.5,0-2.7,1.1-2.7,2.5H459
						C458.9,706.8,460.6,705.1,462.7,705.1L462.7,705.1z M466.4,708.9h-1.1c0,1.4-1.1,2.5-2.5,2.5c-1.5,0-2.7-1.1-2.7-2.5H459
						c0,2.2,1.6,3.8,3.8,3.8C464.8,712.7,466.4,711,466.4,708.9z"/>
				</g>
				<rect x="458.4" y="709" class="st24" width="8.5" height="4.1"/>
				<rect x="462.3" y="708" width="1" height="4.2"/>
				<rect x="462.3" y="708" class="st25" width="1" height="4.2"/>
			</g>
		</g>
	</g>
</g>
<g>
	<text transform="matrix(1 0 0 1 468.7886 707.1598)" class="st47 st4 st5">GaJG01</text>
</g>
<g>
	<text transform="matrix(1 0 0 1 468.7886 713.1598)" class="st47 st4 st5">GJGa01</text>
</g>
<g>
	<text transform="matrix(1 0 0 1 491.854 713.1598)" class="st47 st4 st5">-6</text>
</g>
<g>
	<rect x="459.3" y="468.9" class="st24" width="8.5" height="18.8"/>
	<g>
		<g>
			<line class="st41" x1="463.7" y1="479" x2="463.7" y2="487.3"/>
		</g>
		<g>
			<line class="st42" x1="463.6" y1="475.9" x2="463.6" y2="469.4"/>
		</g>
		<g>
			<g>
				<g>
					<path class="st24" d="M463.6,476c1.7,0,3.2,1.4,3.2,3.2c0,1.8-1.5,3.2-3.2,3.2c-1.8,0-3.2-1.4-3.2-3.2
						C460.5,477.4,461.9,476,463.6,476z"/>
					<path d="M463.6,475.4c2,0,3.7,1.8,3.7,3.8h-1.1c0-1.4-1.1-2.5-2.5-2.5c-1.5,0-2.7,1.1-2.7,2.5h-1.1
						C459.8,477.1,461.5,475.4,463.6,475.4L463.6,475.4z M467.3,479.2h-1.1c0,1.4-1.1,2.5-2.5,2.5c-1.5,0-2.7-1.1-2.7-2.5h-1.1
						c0,2.2,1.6,3.8,3.8,3.8C465.7,483,467.3,481.3,467.3,479.2z"/>
				</g>
				<rect x="459.3" y="479.3" class="st24" width="8.5" height="4.1"/>
				<rect x="463.2" y="478.3" width="1" height="4.2"/>
				<rect x="463.2" y="478.3" class="st25" width="1" height="4.2"/>
			</g>
		</g>
	</g>
</g>
<g>
	<text transform="matrix(1 0 0 1 469.7236 477.4448)" class="st47 st4 st5">TJG01_1</text>
</g>
<g>
	<text transform="matrix(1 0 0 1 469.7236 483.4448)" class="st47 st4 st5">GJT01_1</text>
</g>
<g>
	<text transform="matrix(1 0 0 1 496.1641 483.4448)" class="st47 st4 st5">-4</text>
</g>
<g>
	<text transform="matrix(1 0 0 1 447.4407 593.0997)" class="st47 st4 st5">Three-in-one sensor</text>
</g>
<g>
	<circle class="st30" cx="462.8" cy="655.1" r="2.6"/>
</g>
<rect x="468.4" y="650.8" class="st33" width="24.3" height="6.9"/>
<text transform="matrix(1 0 0 1 468.8231 656.1509)" class="st4 st5">SP4873</text>
<line class="st17" x1="606.7" y1="437.3" x2="606.7" y2="698"/>
<line class="st18" x1="555.3" y1="437.3" x2="555.3" y2="699.9"/>
<path class="st37" d="M553.1,704.4l0.6,2.1c0,0,0.6,2.5,3.3,2.6h22.1l0,0l1.9,2.7l1.9-2.7c9,0,22.1,0,22.1,0
	c2.7-0.1,3.3-2.6,3.3-2.6l0.6-2.1"/>
<path class="st38" d="M552.6,484.9c-1.9,0-3.5-1.5-3.5-3.5c0-1.9,1.6-3.5,3.5-3.5l57.7,6.9c1.9,0,3.5-1.5,3.5-3.5
	c0-1.9-1.6-3.5-3.5-3.5L552.6,484.9z"/>
<g id="_x30_2-上针脚_6_">
	<line class="st23" x1="555.3" y1="434.1" x2="555.3" y2="425.9"/>
	<path class="st24" d="M555.2,437.2c-1.7,0-3-1.4-3-3c0-1.8,1.4-3.2,3-3.2c1.8,0,3.2,1.4,3.2,3.2C558.4,435.8,557,437.2,555.2,437.2
		"/>
	<path d="M555.3,437.8c-2,0-3.7-1.6-3.7-3.7c0-2.2,1.7-3.8,3.7-3.8v1.2c-1.4,0-2.5,1.1-2.5,2.7c0,1.3,1.1,2.5,2.5,2.5V437.8z
		 M555.3,430.3v1.2c1.5,0,2.7,1.1,2.7,2.7c0,1.3-1.1,2.5-2.7,2.5v1.1c2.2,0,3.8-1.6,3.8-3.7S557.5,430.3,555.3,430.3"/>
	<rect x="551.3" y="429.9" class="st24" width="8.1" height="4.1"/>
	<rect x="554.8" y="430.8" width="1" height="4.2"/>
	<rect x="554.8" y="430.8" class="st25" width="1" height="4.2"/>
</g>
<g id="_x30_2-上针脚_5_">
	<line class="st23" x1="606.7" y1="434.1" x2="606.7" y2="425.9"/>
	<path class="st24" d="M606.6,437.2c-1.7,0-3-1.4-3-3c0-1.8,1.4-3.2,3-3.2c1.8,0,3.2,1.4,3.2,3.2
		C609.8,435.8,608.4,437.2,606.6,437.2"/>
	<path d="M606.7,437.8c-2,0-3.7-1.6-3.7-3.7c0-2.2,1.7-3.8,3.7-3.8v1.2c-1.4,0-2.5,1.1-2.5,2.7c0,1.3,1.1,2.5,2.5,2.5V437.8z
		 M606.7,430.3v1.2c1.5,0,2.7,1.1,2.7,2.7c0,1.3-1.1,2.5-2.7,2.5v1.1c2.2,0,3.8-1.6,3.8-3.7S608.9,430.3,606.7,430.3"/>
	<rect x="602.7" y="429.9" class="st24" width="8.1" height="4.1"/>
	<rect x="606.2" y="430.8" width="1" height="4.2"/>
	<rect x="606.2" y="430.8" class="st25" width="1" height="4.2"/>
</g>
<g>
	<text transform="matrix(1 0 0 1 598.7141 423.446)" class="st4 st31">CAN_H</text>
</g>
<g>
	<text transform="matrix(1 0 0 1 548.666 423.446)" class="st4 st31">CAN_L</text>
</g>
<g>
	<rect x="604" y="450.4" class="st24" width="5.9" height="6"/>
	<g>
		<text transform="matrix(1 0 0 1 599.0078 455.6)" class="st4 st5">P 0.35</text>
	</g>
</g>
<rect x="548.5" y="450.7" class="st24" width="13.7" height="6"/>
<g>
	<text transform="matrix(1 0 0 1 545.9312 455.5907)" class="st4 st5">V 0.35</text>
</g>
<text transform="matrix(1 0 0 1 518.9163 723.4883)" class="st4 st5">See Body Network System - Circuit Diagram</text>
<g>
	<text transform="matrix(1 0 0 1 612.7974 433.5895)" class="st47 st4 st5">G64(G)</text>
</g>
<g>
	<text transform="matrix(1 0 0 1 634.4224 433.5895)" class="st47 st4 st5">-56</text>
</g>
<g>
	<text transform="matrix(1 0 0 1 559.7715 433.5895)" class="st47 st4 st5">G64(G)</text>
</g>
<g>
	<text transform="matrix(1 0 0 1 581.3965 433.5895)" class="st47 st4 st5">-57</text>
</g>
<g>
	<text transform="matrix(1 0 0 1 155.4932 290.5895)" class="st47 st4 st5">BJG01</text>
</g>
<g>
	<text transform="matrix(1 0 0 1 155.4932 297.7897)" class="st47 st4 st5">GJB01</text>
</g>
<g>
	<text transform="matrix(1 0 0 1 344.3717 415.2874)" class="st47 st4 st48">Left domain control module</text>
</g>
<g>
	<text transform="matrix(1 0 0 1 169.2553 594.3844)" class="st47 st4 st5">Right horn</text>
</g>
<g>
	<g>
		<text transform="matrix(1 0 0 1 140.484 779.0415)" class="st47 st4 st5">Eb02</text>
	</g>
</g>
<g>
	<text transform="matrix(1 0 0 1 285.8199 145.6826)" class="st47 st4 st5">F4/2</text>
</g>
<g>
	<text transform="matrix(1 0 0 1 241.8103 594.3844)" class="st47 st4 st5">Left horn</text>
</g>
<g>
	<text transform="matrix(1 0 0 1 311.7509 147.2698)" class="st47 st4 st5">Positive fuse box</text>
</g>
<g>
	<text transform="matrix(1 0 0 1 155.4932 145.6826)" class="st47 st4 st5">F1/12</text>
</g>
<g>
	<text transform="matrix(1 0 0 1 27.54 141.7002)" class="st47 st4 st5">Front compartment fuse box</text>
</g>
<g>
	<g>
		<text transform="matrix(1 0 0 1 473.9911 229.1344)" class="st47 st4 st5">Clock spring</text>
	</g>
</g>
<g>
	<g>
		<text transform="matrix(1 0 0 1 443.8885 386.9705)" class="st47 st4 st5">Eg03</text>
	</g>
</g>
<g>
	<text transform="matrix(1 0 0 1 284.5571 190.6832)" class="st47 st4 st5">B46</text>
</g>
<g>
	<text transform="matrix(1 0 0 1 296.7238 190.6998)" class="st47 st4 st5">-3</text>
</g>
<g>
	<text transform="matrix(1 0 0 1 155.2075 433.949)" class="st47 st4 st5">BG64(C)</text>
</g>
<g>
	<text transform="matrix(1 0 0 1 180.7114 433.949)" class="st47 st4 st5">-5</text>
</g>
<g>
	<text transform="matrix(1 0 0 1 154.7856 615.6736)" class="st47 st4 st5">B07</text>
</g>
<g>
	<text transform="matrix(1 0 0 1 165.7441 615.6736)" class="st47 st4 st5">-2</text>
</g>
<g>
	<text transform="matrix(1 0 0 1 154.7856 572.3318)" class="st47 st4 st5">B07</text>
</g>
<g>
	<text transform="matrix(1 0 0 1 166.1606 572.3325)" class="st47 st4 st5">-1</text>
</g>
<g>
	<text transform="matrix(1 0 0 1 227.3403 615.6736)" class="st47 st4 st5">B07(A)</text>
</g>
<g>
	<text transform="matrix(1 0 0 1 247.5898 615.6736)" class="st47 st4 st5">-2</text>
</g>
<g>
	<text transform="matrix(1 0 0 1 227.3403 572.3318)" class="st47 st4 st5">B07(A)</text>
</g>
<g>
	<text transform="matrix(1 0 0 1 247.5903 572.3325)" class="st47 st4 st5">-1</text>
</g>
<g>
	<text transform="matrix(1 0 0 1 154.231 190.6832)" class="st47 st4 st5">B1D</text>
</g>
<g>
	<text transform="matrix(1 0 0 1 166.7935 190.6823)" class="st47 st4 st5">-9</text>
</g>
<g>
	<text transform="matrix(1 0 0 1 154.231 397.3151)" class="st47 st4 st5">G64(G)</text>
</g>
<g>
	<text transform="matrix(1 0 0 1 175.9185 397.3151)" class="st47 st4 st5">-11</text>
</g>
<g>
	<text transform="matrix(1 0 0 1 457.7861 248.817)" class="st47 st4 st5">G18</text>
</g>
<g>
	<text transform="matrix(1 0 0 1 470.1191 248.5348)" class="st47 st4 st5">-2</text>
</g>
<g>
	<text transform="matrix(1 0 0 1 397.627 248.2524)" class="st47 st4 st5">G18</text>
</g>
<g>
	<text transform="matrix(1 0 0 1 409.96 247.9703)" class="st47 st4 st5">-8</text>
</g>
<g>
	<text transform="matrix(1 0 0 1 397.627 397.3151)" class="st47 st4 st5">G64(G)</text>
</g>
<g>
	<text transform="matrix(1 0 0 1 419.1895 397.3151)" class="st47 st4 st5">-3</text>
</g>
<g>
	<text transform="matrix(1 0 0 1 612.7969 397.3151)" class="st47 st4 st5">G64(G)</text>
</g>
<g>
	<text transform="matrix(1 0 0 1 634.2188 397.3151)" class="st47 st4 st5">-52</text>
</g>
<g>
	<text transform="matrix(1 0 0 1 559.771 397.3151)" class="st47 st4 st5">G64(G)</text>
</g>
<g>
	<text transform="matrix(1 0 0 1 581.1929 397.3151)" class="st47 st4 st5">-53</text>
</g>
<g>
	<text transform="matrix(1 0 0 1 344.0029 433.949)" class="st47 st4 st5">KG64(E)</text>
</g>
<g>
	<text transform="matrix(1 0 0 1 369.3452 433.949)" class="st47 st4 st5">-8</text>
</g>
<g>
	<text transform="matrix(1 0 0 1 310.4839 433.949)" class="st47 st4 st5">-43</text>
</g>
<g>
	<text transform="matrix(1 0 0 1 399.0103 433.949)" class="st47 st4 st5">KG64(E)</text>
</g>
<g>
	<text transform="matrix(1 0 0 1 424.293 433.949)" class="st47 st4 st5">-20</text>
</g>
<g>
	<g>
		<text transform="matrix(1 0 0 1 385.249 779.618)" class="st47 st4 st5">Ek02</text>
	</g>
</g>
<g>
	<g>
		<text transform="matrix(1 0 0 1 454.9236 779.418)" class="st47 st4 st5">Eg01</text>
	</g>
</g>
<g>
	<g>
		<text transform="matrix(1 0 0 1 330.999 779.618)" class="st47 st4 st5">Ek01</text>
	</g>
</g>
<g>
	<text transform="matrix(1 0 0 1 285.3374 433.949)" class="st47 st4 st5">BG64(B)</text>
</g>
<g>
	<g>
		<text transform="matrix(1 0 0 1 272.3332 779.618)" class="st47 st4 st5">Eb01</text>
	</g>
</g>
<g>
	<text transform="matrix(1 0 0 1 174.6599 297.7897)" class="st47 st4 st5">-15</text>
</g>
<g>
	<text transform="matrix(1 0 0 1 318.1237 397.3151)" class="st47 st4 st5">-1</text>
</g>
<g>
	<text transform="matrix(1 0 0 1 285.3372 397.3151)" class="st47 st4 st5">BG64(A)_4</text>
</g>
</svg>
