<?xml version="1.0" encoding="utf-8"?>
<!-- Generator: Adobe Illustrator 24.0.1, SVG Export Plug-In . SVG Version: 6.00 Build 0)  -->
<svg version="1.1" id="图层_1" xmlns="http://www.w3.org/2000/svg" xmlns:xlink="http://www.w3.org/1999/xlink" x="0px" y="0px"
	 viewBox="0 0 1004 841.9" style="enable-background:new 0 0 1004 841.9;" xml:space="preserve">
<style type="text/css">
	.st0{fill:none;stroke:#000000;stroke-width:3;stroke-linecap:round;stroke-miterlimit:10;}
	.st1{fill:none;stroke:#E60012;stroke-width:3;stroke-miterlimit:10;}
	.st2{fill:none;stroke:#005EAD;stroke-miterlimit:10;}
	.st3{fill:none;stroke:#FFF100;stroke-width:3;stroke-miterlimit:10;}
	.st4{fill:none;stroke:#009944;stroke-miterlimit:10;}
	.st5{fill:none;stroke:#E60012;stroke-width:3;stroke-linecap:round;stroke-miterlimit:10;}
	.st6{fill:none;stroke:#FFFFFF;stroke-linecap:round;stroke-miterlimit:10;}
	.st7{fill:#9FD9F6;stroke:#000000;stroke-width:0.5;stroke-linecap:round;stroke-miterlimit:10;}
	.st8{fill:none;stroke:#000000;stroke-width:0.6;stroke-linecap:round;stroke-linejoin:round;}
	.st9{fill:#FFFFFF;}
	.st10{fill:none;stroke:#000000;stroke-width:0.72;stroke-linecap:round;stroke-linejoin:round;}
	.st11{fill:none;stroke:#000000;stroke-width:1.3;}
	.st12{fill:#FFFFFF;stroke:#000000;stroke-width:0.25;stroke-linecap:round;stroke-linejoin:round;}
	.st13{font-family:'FZLTHJW--GB1-0';}
	.st14{font-size:6px;}
	.st15{fill:none;stroke:#009944;stroke-width:3;stroke-linecap:round;stroke-miterlimit:10;}
	.st16{fill:#DCDDDD;stroke:#000000;stroke-width:0.5;stroke-miterlimit:10;}
	.st17{fill:#DCDDDD;}
	.st18{fill:none;stroke:#040000;stroke-width:0.5;}
	.st19{fill:none;stroke:#040000;}
	.st20{fill:none;stroke:#070102;stroke-width:0.75;}
	.st21{stroke:#FFFFFF;stroke-width:0.5;stroke-linecap:round;}
	.st22{fill:none;stroke:#FFFFFF;stroke-width:1.0001;}
	.st23{fill:#FFFFFF;stroke:#000000;stroke-width:0.25;}
	.st24{stroke:#FFFFFF;stroke-width:0.5;}
	.st25{fill:none;stroke:#009944;stroke-linecap:round;stroke-miterlimit:10;}
	.st26{font-size:4px;}
	.st27{fill:none;stroke:#000000;stroke-width:0.6001;stroke-linecap:round;stroke-linejoin:round;}
	.st28{fill:none;stroke:#000000;stroke-width:0.6001;stroke-linecap:round;}
	.st29{fill:none;stroke:#F29C97;stroke-width:3;stroke-linecap:round;stroke-miterlimit:10;}
	.st30{fill:none;stroke:#89438F;stroke-width:3;stroke-linecap:round;stroke-miterlimit:10;}
	.st31{fill:none;stroke:#060001;stroke-width:0.5;stroke-linecap:round;stroke-linejoin:round;}
	.st32{fill:none;stroke:#000000;stroke-width:0.5;stroke-miterlimit:10;}
	.st33{fill:none;stroke:#000000;stroke-linecap:round;stroke-miterlimit:10;}
	.st34{fill:none;}
	.st35{fill:none;stroke:#FFF100;stroke-miterlimit:10;}
	.st36{fill:none;stroke:#000000;stroke-width:0.6;stroke-linejoin:round;}
	.st37{fill:#005EAD;}
</style>
<line class="st0" x1="585.4" y1="651.3" x2="585.4" y2="768.5"/>
<line class="st1" x1="785.2" y1="304.8" x2="785.2" y2="416.1"/>
<line class="st2" x1="785.2" y1="304.8" x2="785.2" y2="416.1"/>
<polyline class="st3" points="873.5,416.1 873.5,352.1 650.1,352.1 650.1,416.3 "/>
<polyline class="st4" points="873.5,416.1 873.5,352.1 650.1,352.1 650.1,416.3 "/>
<polyline class="st5" points="650.2,470.4 650.2,552.8 784.7,552.8 "/>
<polyline class="st6" points="650.2,470.4 650.2,552.8 784.7,552.8 "/>
<polyline class="st5" points="873.6,471.7 873.6,552.8 785.6,552.8 "/>
<polyline class="st6" points="873.6,471.7 873.6,552.8 785.6,552.8 "/>
<g>
	<path class="st7" d="M239.5,460h-127v-32.9h127c0,0-5.3,6.3,0,15.3S239.5,460,239.5,460z"/>
</g>
<line class="st0" x1="431.5" y1="470.4" x2="431.5" y2="768.1"/>
<g>
	<line class="st8" x1="431.5" y1="467.9" x2="431.5" y2="459.7"/>
	<path class="st9" d="M431.6,471c-1.7,0-3-1.4-3-3c0-1.8,1.4-3.2,3-3.2c1.8,0,3.2,1.4,3.2,3.2C434.8,469.6,433.4,471,431.6,471"/>
	<path d="M431.6,471.6c-2,0-3.7-1.6-3.7-3.7c0-2.2,1.7-3.8,3.7-3.8v1.1c-1.4,0-2.5,1.1-2.5,2.7c0,1.4,1.1,2.5,2.5,2.5V471.6z
		 M431.6,464.1v1.1c1.5,0,2.7,1.1,2.7,2.7c0,1.4-1.1,2.5-2.7,2.5v1.1c2.2,0,3.8-1.6,3.8-3.7C435.4,465.8,433.8,464.1,431.6,464.1"/>
	<rect x="427.4" y="463.7" class="st9" width="8.5" height="4.1"/>
	<rect x="431" y="464.6" width="1" height="4.2"/>
	<rect x="431" y="464.6" class="st10" width="1" height="4.2"/>
</g>
<line class="st0" x1="481.6" y1="470.4" x2="481.6" y2="768.6"/>
<g>
	<line class="st8" x1="481.7" y1="467.9" x2="481.7" y2="459.7"/>
	<path class="st9" d="M481.8,471c-1.6,0-3-1.4-3-3c0-1.8,1.4-3.2,3-3.2c1.8,0,3.2,1.4,3.2,3.2C485,469.6,483.6,471,481.8,471"/>
	<path d="M481.8,471.6c-2,0-3.7-1.6-3.7-3.7c0-2.2,1.7-3.8,3.7-3.8v1.1c-1.4,0-2.5,1.1-2.5,2.7c0,1.4,1.1,2.5,2.5,2.5V471.6z
		 M481.8,464.1v1.1c1.5,0,2.7,1.1,2.7,2.7c0,1.4-1.1,2.5-2.7,2.5v1.1c2.2,0,3.8-1.6,3.8-3.7C485.6,465.8,484,464.1,481.8,464.1"/>
	<rect x="477.6" y="463.7" class="st9" width="8.5" height="4.1"/>
	<rect x="481.2" y="464.6" width="1" height="4.2"/>
	<rect x="481.2" y="464.6" class="st10" width="1" height="4.2"/>
</g>
<g id="GB031_9_">
	<g>
		<g>
			<line class="st11" x1="431.5" y1="766.8" x2="431.5" y2="769.5"/>
		</g>
		<g>
			<line class="st11" x1="424.5" y1="769.5" x2="438.3" y2="769.5"/>
		</g>
		<g>
			<line class="st11" x1="427.3" y1="771.7" x2="435.5" y2="771.7"/>
		</g>
		<g>
			<line class="st11" x1="433.8" y1="773.8" x2="429" y2="773.8"/>
		</g>
	</g>
	<g>
		<rect x="421.1" y="776.3" class="st9" width="20.3" height="8.2"/>
		<rect x="421.4" y="776.7" class="st12" width="19.7" height="7.6"/>
	</g>
</g>
<g id="GB031_3_">
	<g>
		<g>
			<line class="st11" x1="481.7" y1="766.8" x2="481.7" y2="769.5"/>
		</g>
		<g>
			<line class="st11" x1="474.7" y1="769.5" x2="488.5" y2="769.5"/>
		</g>
		<g>
			<line class="st11" x1="477.5" y1="771.7" x2="485.7" y2="771.7"/>
		</g>
		<g>
			<line class="st11" x1="484" y1="773.8" x2="479.2" y2="773.8"/>
		</g>
	</g>
	<g>
		<rect x="471.3" y="776.3" class="st9" width="20.3" height="8.2"/>
		<rect x="471.6" y="776.7" class="st12" width="19.7" height="7.6"/>
	</g>
</g>
<line class="st0" x1="378.5" y1="470.9" x2="378.5" y2="768.4"/>
<rect x="372.3" y="489.7" class="st9" width="12.5" height="6"/>
<text transform="matrix(1 0 0 1 370.9647 494.8499)" class="st13 st14">B 2.5</text>
<rect x="425.3" y="489.7" class="st9" width="12.5" height="6"/>
<text transform="matrix(1 0 0 1 423.9649 494.8499)" class="st13 st14">B 2.5</text>
<rect x="475.3" y="489.7" class="st9" width="12.5" height="6"/>
<text transform="matrix(1 0 0 1 472.2048 494.8499)" class="st13 st14">B 0.75</text>
<line class="st15" x1="536.6" y1="470.9" x2="536.6" y2="595.5"/>
<g>
	<line class="st8" x1="536.7" y1="468.4" x2="536.7" y2="460.2"/>
	<path class="st9" d="M536.8,471.5c-1.6,0-3-1.4-3-3c0-1.8,1.4-3.2,3-3.2c1.8,0,3.2,1.4,3.2,3.2C540,470.1,538.6,471.5,536.8,471.5"
		/>
	<path d="M536.8,472.1c-2,0-3.7-1.6-3.7-3.7c0-2.2,1.7-3.8,3.7-3.8v1.1c-1.4,0-2.5,1.1-2.5,2.7c0,1.4,1.1,2.5,2.5,2.5V472.1z
		 M536.8,464.6v1.1c1.5,0,2.7,1.1,2.7,2.7c0,1.4-1.1,2.5-2.7,2.5v1.1c2.2,0,3.8-1.6,3.8-3.7C540.6,466.3,539,464.6,536.8,464.6"/>
	<rect x="532.6" y="464.2" class="st9" width="8.5" height="4.1"/>
	<rect x="536.2" y="465.1" width="1" height="4.2"/>
	<rect x="536.2" y="465.1" class="st10" width="1" height="4.2"/>
</g>
<rect x="530.3" y="489.7" class="st9" width="12.5" height="6"/>
<text transform="matrix(1 0 0 1 526.8442 494.7999)" class="st13 st14">G 0.35</text>
<g>
	<line class="st8" x1="378.6" y1="468.4" x2="378.6" y2="460.2"/>
	<path class="st9" d="M378.7,471.5c-1.6,0-3-1.4-3-3c0-1.8,1.4-3.2,3-3.2c1.8,0,3.2,1.4,3.2,3.2
		C381.9,470.1,380.5,471.5,378.7,471.5"/>
	<path d="M378.7,472.1c-2,0-3.7-1.6-3.7-3.7c0-2.2,1.7-3.8,3.7-3.8v1.1c-1.4,0-2.5,1.1-2.5,2.7c0,1.4,1.1,2.5,2.5,2.5V472.1z
		 M378.7,464.6v1.1c1.5,0,2.7,1.1,2.7,2.7c0,1.4-1.1,2.5-2.7,2.5v1.1c2.2,0,3.8-1.6,3.8-3.7C382.5,466.3,380.9,464.6,378.7,464.6"/>
	<rect x="374.5" y="464.2" class="st9" width="8.5" height="4.1"/>
	<rect x="378.1" y="465.1" width="1" height="4.2"/>
	<rect x="378.1" y="465.1" class="st10" width="1" height="4.2"/>
</g>
<g id="GB031_12_">
	<g>
		<g>
			<line class="st11" x1="378.7" y1="766.8" x2="378.7" y2="769.5"/>
		</g>
		<g>
			<line class="st11" x1="371.7" y1="769.5" x2="385.5" y2="769.5"/>
		</g>
		<g>
			<line class="st11" x1="374.5" y1="771.7" x2="382.7" y2="771.7"/>
		</g>
		<g>
			<line class="st11" x1="381" y1="773.8" x2="376.2" y2="773.8"/>
		</g>
	</g>
	<g>
		<rect x="368.3" y="776.3" class="st9" width="20.3" height="8.2"/>
		<rect x="368.6" y="776.7" class="st12" width="19.7" height="7.6"/>
	</g>
</g>
<g id="REB_x2C_A3_2_">
	<rect x="311" y="120.4" class="st16" width="55.7" height="67.4"/>
</g>
<line class="st0" x1="919" y1="467.6" x2="919" y2="768.5"/>
<g id="GB031_5_">
	<g>
		<g>
			<line class="st11" x1="919" y1="766.8" x2="919" y2="769.5"/>
		</g>
		<g>
			<line class="st11" x1="912" y1="769.5" x2="925.8" y2="769.5"/>
		</g>
		<g>
			<line class="st11" x1="914.8" y1="771.7" x2="923" y2="771.7"/>
		</g>
		<g>
			<line class="st11" x1="921.3" y1="773.8" x2="916.5" y2="773.8"/>
		</g>
	</g>
	<g>
		<rect x="908.6" y="776.3" class="st9" width="20.3" height="8.2"/>
		<rect x="908.9" y="776.7" class="st12" width="19.7" height="7.6"/>
	</g>
</g>
<g>
	<rect x="914.5" y="489.8" class="st9" width="13.9" height="6"/>
	<g>
		<text transform="matrix(1 0 0 1 909.6288 494.9752)" class="st13 st14">B 0.75</text>
	</g>
</g>
<line class="st0" x1="737" y1="467.7" x2="737" y2="768.5"/>
<line class="st5" x1="785.6" y1="471.2" x2="785.6" y2="552.8"/>
<line class="st6" x1="785.6" y1="471.2" x2="785.6" y2="552.8"/>
<g id="FB55">
</g>
<g>
	<polyline class="st17" points="48.3,41.9 955.3,41.9 955.3,88.1 48.3,88.1 	"/>
	<g>
		<line class="st18" x1="48.3" y1="47.6" x2="955.3" y2="47.6"/>
		<line class="st19" x1="48.3" y1="41.6" x2="955.3" y2="41.6"/>
		<path class="st18" d="M955.3,59.3"/>
		<path class="st18" d="M48.3,59.3"/>
		<line class="st18" x1="48.3" y1="58.9" x2="955.3" y2="58.9"/>
		<line class="st18" x1="48.3" y1="70.6" x2="955.3" y2="70.6"/>
		<line class="st18" x1="48.3" y1="82.3" x2="955.3" y2="82.3"/>
		<line class="st19" x1="48.4" y1="88.1" x2="955.3" y2="88.1"/>
	</g>
	<text transform="matrix(1 0 0 1 958.1973 49.6299)" class="st13 st14">30</text>
	<text transform="matrix(1 0 0 1 958.1973 60.7959)" class="st13 st14">IG1</text>
	<text transform="matrix(1 0 0 1 958.1973 72.4209)" class="st13 st14">IG3</text>
	<text transform="matrix(1 0 0 1 958.1973 83.9248)" class="st13 st14">ACC</text>
	<text transform="matrix(1 0 0 1 37.2126 49.7119)" class="st13 st14">30</text>
	<text transform="matrix(1 0 0 1 34.0485 60.8779)" class="st13 st14">IG1</text>
	<text transform="matrix(1 0 0 1 34.0485 72.5029)" class="st13 st14">IG3</text>
	<text transform="matrix(1 0 0 1 30.5558 84.0029)" class="st13 st14">ACC</text>
</g>
<g id="对接插头">
</g>
<g id="GB031_4_">
	<g>
		<g>
			<line class="st11" x1="737" y1="766.8" x2="737" y2="769.5"/>
		</g>
		<g>
			<line class="st11" x1="730" y1="769.5" x2="743.8" y2="769.5"/>
		</g>
		<g>
			<line class="st11" x1="732.8" y1="771.7" x2="741" y2="771.7"/>
		</g>
		<g>
			<line class="st11" x1="739.3" y1="773.8" x2="734.5" y2="773.8"/>
		</g>
	</g>
	<g>
		<rect x="726.6" y="776.3" class="st9" width="20.3" height="8.2"/>
		<rect x="726.9" y="776.7" class="st12" width="19.7" height="7.6"/>
	</g>
</g>
<line class="st5" x1="331.7" y1="199.1" x2="331.7" y2="417.5"/>
<g>
	<line class="st8" x1="331.7" y1="418.8" x2="331.7" y2="427.1"/>
	<path class="st9" d="M331.6,415.8c1.6,0,3,1.4,3,3c0,1.8-1.4,3.2-3,3.2c-1.8,0-3.2-1.4-3.2-3.2
		C328.4,417.2,329.8,415.8,331.6,415.8"/>
	<path d="M331.6,415.1c2,0,3.7,1.6,3.7,3.7c0,2.2-1.7,3.8-3.7,3.8v-1.1c1.4,0,2.5-1.1,2.5-2.7c0-1.4-1.1-2.5-2.5-2.5V415.1z
		 M331.6,422.6v-1.1c-1.5,0-2.7-1.1-2.7-2.7c0-1.4,1.1-2.5,2.7-2.5v-1.1c-2.2,0-3.8,1.6-3.8,3.7S329.5,422.6,331.6,422.6"/>
	<rect x="327.3" y="418.9" class="st9" width="8.5" height="4.1"/>
	<rect x="331.2" y="417.9" width="1" height="4.2"/>
	<rect x="331.2" y="417.9" class="st10" width="1" height="4.2"/>
</g>
<rect x="325.4" y="382.5" class="st9" width="12.7" height="6"/>
<rect x="325.5" y="382.5" class="st9" width="12.5" height="6"/>
<text transform="matrix(1 0 0 1 323.9283 387.3309)" class="st13 st14">R 8.0</text>
<rect x="325.4" y="219.8" class="st9" width="12.7" height="6"/>
<text transform="matrix(1 0 0 1 323.9283 224.5892)" class="st13 st14">R 8.0</text>
<g id="FF09_x2C_A1_2_">
	<rect x="328" y="141.6" class="st17" width="7.7" height="21.1"/>
	<g>
		<g>
			<path class="st20" d="M331.8,157.9c-1.2,0-2.2,1-2.2,2.2s1,2.2,2.2,2.2s2.2-1,2.2-2.2S333,157.9,331.8,157.9"/>
		</g>
		<g>
			<path class="st20" d="M331.8,142.1c-1.2,0-2.2,1-2.2,2.1c0,1.2,1,2.2,2.2,2.2s2.2-0.9,2.2-2.2C334,143.1,333,142.1,331.8,142.1"
				/>
		</g>
		<g>
			<path class="st20" d="M330.3,145.9c-0.1,2.5,0.2,3.2,1.3,4.3c1.2,1.2,2.4,1.7,2.8,3.7c0.4,1.6-0.1,3.5-1.1,4.5"/>
		</g>
		<g>
			<path class="st20" d="M333.2,158.5c0.2-0.8,0-2.9-0.7-3.7c-0.9-1.2-2.7-2.1-3.3-4c-0.9-2.8,0.7-4.6,1.1-5"/>
		</g>
	</g>
</g>
<g>
	<g>
		<line class="st8" x1="331.8" y1="142.1" x2="331.8" y2="47.7"/>
	</g>
</g>
<g>
	<text transform="matrix(1 0 0 1 337.1324 158.2405)" class="st13 st14">100A</text>
</g>
<g>
	<g>
		<polyline class="st8" points="331.6,162.5 331.6,175.4 331.6,187.8 		"/>
	</g>
</g>
<g>
	<line class="st8" x1="331.6" y1="196.1" x2="331.6" y2="187.8"/>
	<path class="st9" d="M331.7,199.1c-1.6,0-3-1.4-3-3c0-1.8,1.4-3.2,3-3.2c1.8,0,3.2,1.4,3.2,3.2
		C334.8,197.7,333.4,199.1,331.7,199.1"/>
	<path d="M331.7,199.7c-2,0-3.7-1.6-3.7-3.7c0-2.2,1.7-3.8,3.7-3.8v1.1c-1.4,0-2.5,1.1-2.5,2.7c0,1.4,1.1,2.5,2.5,2.5V199.7z
		 M331.7,192.2v1.1c1.5,0,2.7,1.1,2.7,2.7c0,1.4-1.1,2.5-2.7,2.5v1.1c2.2,0,3.8-1.6,3.8-3.7C335.5,193.9,333.8,192.2,331.7,192.2"/>
	<rect x="327.5" y="191.9" class="st9" width="8.5" height="4.1"/>
	<rect x="331" y="192.8" width="1" height="4.2"/>
	<rect x="331" y="192.8" class="st10" width="1" height="4.2"/>
</g>
<g>
	<path class="st21" d="M328.9,47.1c0-1.7,1.3-2.9,2.8-2.9c1.6,0,2.9,1.2,2.9,2.9c0,1.5-1.3,2.7-2.9,2.7
		C330.2,49.9,328.9,48.7,328.9,47.1z"/>
	<g>
		<path class="st22" d="M328.9,47.1c0-1.7,1.3-2.9,2.8-2.9c1.6,0,2.9,1.2,2.9,2.9c0,1.5-1.3,2.7-2.9,2.7
			C330.2,49.9,328.9,48.7,328.9,47.1"/>
	</g>
</g>
<g id="REB_x2C_A3_5_">
	<rect x="415.3" y="120.4" class="st16" width="47.5" height="67.4"/>
</g>
<g>
	<line class="st8" x1="737.1" y1="468.1" x2="737.1" y2="459.9"/>
	<path class="st9" d="M737.2,471.2c-1.6,0-3-1.4-3-3c0-1.8,1.4-3.2,3-3.2c1.8,0,3.2,1.4,3.2,3.2C740.4,469.8,739,471.2,737.2,471.2"
		/>
	<path d="M737.2,471.8c-2,0-3.7-1.6-3.7-3.7c0-2.2,1.7-3.8,3.7-3.8v1.1c-1.4,0-2.5,1.1-2.5,2.7c0,1.4,1.1,2.5,2.5,2.5V471.8z
		 M737.2,464.3v1.1c1.5,0,2.7,1.1,2.7,2.7c0,1.4-1.1,2.5-2.7,2.5v1.1c2.2,0,3.8-1.6,3.8-3.7C741,466,739.4,464.3,737.2,464.3"/>
	<rect x="733" y="464" class="st9" width="8.5" height="4.1"/>
	<rect x="736.6" y="464.8" width="1" height="4.2"/>
	<rect x="736.6" y="464.8" class="st10" width="1" height="4.2"/>
</g>
<g>
	<line class="st8" x1="785.3" y1="468.1" x2="785.3" y2="459.9"/>
	<path class="st9" d="M785.4,471.2c-1.6,0-3-1.4-3-3c0-1.8,1.4-3.2,3-3.2c1.8,0,3.2,1.4,3.2,3.2
		C788.5,469.8,787.1,471.2,785.4,471.2"/>
	<path d="M785.4,471.8c-2,0-3.7-1.6-3.7-3.7c0-2.2,1.7-3.8,3.7-3.8v1.1c-1.4,0-2.5,1.1-2.5,2.7c0,1.4,1.1,2.5,2.5,2.5V471.8z
		 M785.4,464.3v1.1c1.5,0,2.7,1.1,2.7,2.7c0,1.4-1.1,2.5-2.7,2.5v1.1c2.2,0,3.8-1.6,3.8-3.7C789.2,466,787.5,464.3,785.4,464.3"/>
	<rect x="781.2" y="464" class="st9" width="8.5" height="4.1"/>
	<rect x="784.7" y="464.8" width="1" height="4.2"/>
	<rect x="784.7" y="464.8" class="st10" width="1" height="4.2"/>
</g>
<g>
	<rect x="778.1" y="489.7" class="st9" width="13.9" height="6"/>
	<g>
		<text transform="matrix(1 0 0 1 773.2662 494.8304)" class="st13 st14">R/W 0.75</text>
	</g>
</g>
<g>
	<rect x="642.2" y="489.7" class="st9" width="13.9" height="6"/>
	<g>
		<text transform="matrix(1 0 0 1 637.3775 494.8304)" class="st13 st14">R/W 0.75</text>
	</g>
</g>
<g>
	<rect x="865.6" y="489.7" class="st9" width="13.9" height="6"/>
	<g>
		<text transform="matrix(1 0 0 1 860.7822 494.8304)" class="st13 st14">R/W 0.75</text>
	</g>
</g>
<g>
	<line class="st8" x1="918.8" y1="468" x2="918.8" y2="459.8"/>
	<path class="st9" d="M918.9,471c-1.6,0-3-1.4-3-3c0-1.8,1.4-3.2,3-3.2c1.8,0,3.2,1.4,3.2,3.2C922.1,469.6,920.7,471,918.9,471"/>
	<path d="M918.9,471.7c-2,0-3.7-1.6-3.7-3.7c0-2.2,1.7-3.8,3.7-3.8v1.1c-1.4,0-2.5,1.1-2.5,2.7c0,1.4,1.1,2.5,2.5,2.5V471.7z
		 M918.9,464.2v1.1c1.5,0,2.7,1.1,2.7,2.7c0,1.4-1.1,2.5-2.7,2.5v1.1c2.2,0,3.8-1.6,3.8-3.7C922.7,465.8,921.1,464.2,918.9,464.2"/>
	<rect x="914.7" y="463.8" class="st9" width="8.5" height="4.1"/>
	<rect x="918.3" y="464.7" width="1" height="4.2"/>
	<rect x="918.3" y="464.7" class="st10" width="1" height="4.2"/>
</g>
<g>
	<line class="st8" x1="873.7" y1="468" x2="873.7" y2="459.8"/>
	<path class="st9" d="M873.8,471c-1.6,0-3-1.4-3-3c0-1.8,1.4-3.2,3-3.2c1.8,0,3.2,1.4,3.2,3.2C877,469.6,875.6,471,873.8,471"/>
	<path d="M873.8,471.7c-2,0-3.7-1.6-3.7-3.7c0-2.2,1.7-3.8,3.7-3.8v1.1c-1.4,0-2.5,1.1-2.5,2.7c0,1.4,1.1,2.5,2.5,2.5V471.7z
		 M873.8,464.2v1.1c1.5,0,2.7,1.1,2.7,2.7c0,1.4-1.1,2.5-2.7,2.5v1.1c2.2,0,3.8-1.6,3.8-3.7S875.9,464.2,873.8,464.2"/>
	<rect x="869.6" y="463.8" class="st9" width="8.5" height="4.1"/>
	<rect x="873.1" y="464.7" width="1" height="4.2"/>
	<rect x="873.1" y="464.7" class="st10" width="1" height="4.2"/>
</g>
<g>
	<line class="st8" x1="536.8" y1="598.6" x2="536.8" y2="606.8"/>
	<path class="st9" d="M536.7,595.5c1.6,0,3,1.4,3,3c0,1.8-1.4,3.2-3,3.2c-1.8,0-3.2-1.4-3.2-3.2C533.6,596.9,535,595.5,536.7,595.5"
		/>
	<path d="M536.7,594.9c2,0,3.7,1.6,3.7,3.7c0,2.2-1.7,3.8-3.7,3.8v-1.1c1.4,0,2.5-1.1,2.5-2.7c0-1.4-1.1-2.5-2.5-2.5V594.9z
		 M536.7,602.4v-1.1c-1.5,0-2.7-1.1-2.7-2.7c0-1.4,1.1-2.5,2.7-2.5v-1.2c-2.2,0-3.8,1.6-3.8,3.7
		C532.9,600.8,534.6,602.4,536.7,602.4"/>
	<rect x="532.4" y="598.7" class="st9" width="8.5" height="4.1"/>
	<rect x="536.3" y="597.7" width="1" height="4.2"/>
	<rect x="536.3" y="597.7" class="st10" width="1" height="4.2"/>
</g>
<line class="st5" x1="585.7" y1="470.9" x2="585.7" y2="595.5"/>
<g>
	<line class="st8" x1="585.8" y1="468.4" x2="585.8" y2="460.2"/>
	<path class="st9" d="M585.9,471.5c-1.6,0-3-1.4-3-3c0-1.8,1.4-3.2,3-3.2c1.8,0,3.2,1.4,3.2,3.2
		C589.1,470.1,587.7,471.5,585.9,471.5"/>
	<path d="M585.9,472.1c-2,0-3.7-1.6-3.7-3.7c0-2.2,1.7-3.8,3.7-3.8v1.1c-1.4,0-2.5,1.1-2.5,2.7c0,1.4,1.1,2.5,2.5,2.5V472.1z
		 M585.9,464.6v1.1c1.5,0,2.7,1.1,2.7,2.7c0,1.4-1.1,2.5-2.7,2.5v1.1c2.2,0,3.8-1.6,3.8-3.7C589.7,466.3,588.1,464.6,585.9,464.6"/>
	<rect x="581.7" y="464.2" class="st9" width="8.5" height="4.1"/>
	<rect x="585.3" y="465.1" width="1" height="4.2"/>
	<rect x="585.3" y="465.1" class="st10" width="1" height="4.2"/>
</g>
<rect x="579.4" y="489.7" class="st9" width="12.5" height="6"/>
<text transform="matrix(1 0 0 1 576.1014 494.7999)" class="st13 st14">R 0.35</text>
<rect x="530.3" y="564.8" class="st9" width="12.5" height="6"/>
<text transform="matrix(1 0 0 1 526.8442 569.8865)" class="st13 st14">G 0.35</text>
<rect x="579.4" y="564.8" class="st9" width="12.5" height="6"/>
<text transform="matrix(1 0 0 1 576.1014 569.8865)" class="st13 st14">R 0.35</text>
<g>
	<line class="st8" x1="585.9" y1="598.6" x2="585.9" y2="606.8"/>
	<path class="st9" d="M585.8,595.5c1.6,0,3,1.4,3,3c0,1.8-1.4,3.2-3,3.2c-1.8,0-3.2-1.4-3.2-3.2
		C582.7,596.9,584.1,595.5,585.8,595.5"/>
	<path d="M585.8,594.9c2,0,3.7,1.6,3.7,3.7c0,2.2-1.7,3.8-3.7,3.8v-1.1c1.4,0,2.5-1.1,2.5-2.7c0-1.4-1.1-2.5-2.5-2.5V594.9z
		 M585.8,602.4v-1.1c-1.5,0-2.7-1.1-2.7-2.7c0-1.4,1.1-2.5,2.7-2.5v-1.2c-2.2,0-3.8,1.6-3.8,3.7C582,600.8,583.7,602.4,585.8,602.4"
		/>
	<rect x="581.5" y="598.7" class="st9" width="8.5" height="4.1"/>
	<rect x="585.4" y="597.7" width="1" height="4.2"/>
	<rect x="585.4" y="597.7" class="st10" width="1" height="4.2"/>
</g>
<g>
	<rect x="732.5" y="489.7" class="st9" width="13.9" height="6"/>
	<g>
		<text transform="matrix(1 0 0 1 727.5983 494.8304)" class="st13 st14">B 0.75</text>
	</g>
</g>
<g>
	<rect x="732.5" y="704.8" class="st9" width="13.9" height="6"/>
	<g>
		<text transform="matrix(1 0 0 1 727.5983 709.8585)" class="st13 st14">B 0.75</text>
	</g>
</g>
<rect x="789" y="543.3" class="st23" width="24.7" height="5.6"/>
<text transform="matrix(1 0 0 1 789.6825 548.2539)" class="st13 st14">SP4793</text>
<path class="st24" d="M788.3,552.7c0,1.7-1.3,2.9-2.8,2.9c-1.6,0-2.9-1.2-2.9-2.9c0-1.5,1.3-2.7,2.9-2.7
	C787,550,788.3,551.2,788.3,552.7z"/>
<rect x="741.5" y="571.8" class="st23" width="24.7" height="5.6"/>
<text transform="matrix(1 0 0 1 742.1762 576.8264)" class="st13 st14">SP4874</text>
<path class="st24" d="M740,574.9c0,1.7-1.3,2.9-2.8,2.9c-1.6,0-2.9-1.2-2.9-2.9c0-1.5,1.3-2.7,2.9-2.7
	C738.7,572.2,740,573.4,740,574.9z"/>
<g id="REB_x2C_A3_1_">
	<rect x="102.5" y="120.4" class="st16" width="56.5" height="67.4"/>
</g>
<line class="st5" x1="130.7" y1="197.9" x2="130.7" y2="415.9"/>
<line class="st25" x1="130.7" y1="197.9" x2="130.7" y2="415.9"/>
<g>
	<line class="st8" x1="130.5" y1="196.1" x2="130.5" y2="187.8"/>
	<path class="st9" d="M130.6,199.1c-1.6,0-3-1.4-3-3c0-1.8,1.4-3.2,3-3.2c1.8,0,3.2,1.4,3.2,3.2
		C133.8,197.7,132.4,199.1,130.6,199.1"/>
	<path d="M130.6,199.7c-2,0-3.7-1.6-3.7-3.7c0-2.2,1.7-3.8,3.7-3.8v1.1c-1.4,0-2.5,1.1-2.5,2.7c0,1.4,1.1,2.5,2.5,2.5V199.7z
		 M130.6,192.2v1.1c1.5,0,2.7,1.1,2.7,2.7c0,1.4-1.1,2.5-2.7,2.5v1.1c2.2,0,3.8-1.6,3.8-3.7C134.4,193.9,132.8,192.2,130.6,192.2"/>
	<rect x="126.4" y="191.9" class="st9" width="8.5" height="4.1"/>
	<rect x="130" y="192.8" width="1" height="4.2"/>
	<rect x="130" y="192.8" class="st10" width="1" height="4.2"/>
</g>
<g>
	<rect x="124" y="219.8" class="st9" width="13.9" height="6"/>
	<g>
		<text transform="matrix(1 0 0 1 117.7302 224.8795)" class="st13 st14">R/G 0.35</text>
	</g>
</g>
<g>
	<rect x="124" y="382.3" class="st9" width="13.9" height="6"/>
	<g>
		<text transform="matrix(1 0 0 1 117.7302 387.418)" class="st13 st14">R/G 0.35</text>
	</g>
</g>
<rect x="126.9" y="141.6" class="st17" width="7.7" height="21.1"/>
<g>
	<g>
		<path class="st20" d="M130.8,157.9c-1.2,0-2.2,1-2.2,2.2s1,2.2,2.2,2.2s2.2-1,2.2-2.2S132,157.9,130.8,157.9"/>
	</g>
	<g>
		<path class="st20" d="M130.8,142.1c-1.2,0-2.2,1-2.2,2.1c0,1.2,1,2.2,2.2,2.2s2.2-0.9,2.2-2.2C133,143.1,132,142.1,130.8,142.1"/>
	</g>
	<g>
		<path class="st20" d="M129.3,145.9c-0.1,2.5,0.2,3.2,1.3,4.3c1.2,1.2,2.4,1.7,2.8,3.7c0.4,1.6-0.1,3.5-1.1,4.5"/>
	</g>
	<g>
		<path class="st20" d="M132.2,158.5c0.2-0.8,0-2.9-0.7-3.7c-0.9-1.2-2.7-2.1-3.3-4c-0.9-2.8,0.7-4.6,1.1-5"/>
	</g>
</g>
<g>
	<text transform="matrix(1 0 0 1 136.0249 157.3925)" class="st13 st14">7.5A</text>
</g>
<g>
	<g>
		<polyline class="st8" points="130.5,162.5 130.5,175.4 130.5,187.8 		"/>
	</g>
</g>
<g>
	<g>
		<polyline class="st8" points="130.5,46.8 130.5,54.6 130.5,142.1 		"/>
	</g>
</g>
<g>
	<path class="st21" d="M127.6,46.9c0-1.7,1.3-2.9,2.8-2.9c1.6,0,2.9,1.2,2.9,2.9c0,1.5-1.3,2.7-2.9,2.7
		C128.9,49.7,127.6,48.5,127.6,46.9z"/>
	<g>
		<path class="st22" d="M127.6,46.9c0-1.7,1.3-2.9,2.8-2.9c1.6,0,2.9,1.2,2.9,2.9c0,1.5-1.3,2.7-2.9,2.7
			C128.9,49.7,127.6,48.5,127.6,46.9"/>
	</g>
</g>
<g id="GB031_2_">
	<g>
		<g>
			<line class="st11" x1="129.3" y1="766.9" x2="129.3" y2="769.6"/>
		</g>
		<g>
			<line class="st11" x1="122.3" y1="769.6" x2="136.1" y2="769.6"/>
		</g>
		<g>
			<line class="st11" x1="125.1" y1="771.8" x2="133.3" y2="771.8"/>
		</g>
		<g>
			<line class="st11" x1="131.6" y1="773.9" x2="126.8" y2="773.9"/>
		</g>
	</g>
	<g>
		<rect x="118.9" y="776.4" class="st9" width="20.3" height="8.2"/>
		<rect x="119.2" y="776.8" class="st12" width="19.7" height="7.6"/>
	</g>
</g>
<line class="st0" x1="129.4" y1="471.6" x2="129.4" y2="768.6"/>
<g>
	<rect x="121.8" y="489.6" class="st9" width="13.9" height="6"/>
	<g>
		<text transform="matrix(1 0 0 1 119.9639 494.8086)" class="st13 st14">B 0.35</text>
	</g>
</g>
<g>
	<rect x="123.3" y="705.1" class="st9" width="13.9" height="6"/>
	<g>
		<text transform="matrix(1 0 0 1 121.517 710.2383)" class="st13 st14">B 0.5</text>
	</g>
</g>
<rect x="133.9" y="572.8" class="st23" width="24.7" height="5.6"/>
<text transform="matrix(1 0 0 1 134.5576 577.6941)" class="st13 st14">SP4863</text>
<path class="st24" d="M132.3,575.5c0,1.7-1.3,2.9-2.8,2.9c-1.6,0-2.9-1.2-2.9-2.9c0-1.5,1.3-2.7,2.9-2.7
	C131,572.8,132.3,574,132.3,575.5z"/>
<rect x="134.7" y="339.9" class="st23" width="24.7" height="5.6"/>
<text transform="matrix(1 0 0 1 135.3626 344.8055)" class="st13 st14">SP4697</text>
<path class="st24" d="M133.6,342.6c0,1.7-1.3,2.9-2.8,2.9c-1.6,0-2.9-1.2-2.9-2.9c0-1.5,1.3-2.7,2.9-2.7
	C132.3,339.9,133.6,341.1,133.6,342.6z"/>
<g>
	<g>
		<line class="st8" x1="130.7" y1="418.8" x2="130.7" y2="427.1"/>
	</g>
	<g>
		<path class="st9" d="M130.6,415.8c1.7,0,3,1.4,3,3c0,1.8-1.4,3.2-3,3.2c-1.8,0-3.2-1.4-3.2-3.2
			C127.5,417.2,128.9,415.8,130.6,415.8z"/>
		<path d="M130.6,415.1c2,0,3.7,1.7,3.7,3.7c0,2.2-1.7,3.8-3.7,3.8v-1.1c1.4,0,2.5-1.1,2.5-2.7c0-1.4-1.1-2.5-2.5-2.5V415.1
			L130.6,415.1z M130.6,422.6v-1.1c-1.5,0-2.7-1.1-2.7-2.7c0-1.4,1.1-2.5,2.7-2.5v-1.1c-2.2,0-3.8,1.7-3.8,3.7
			C126.8,421,128.5,422.6,130.6,422.6z"/>
	</g>
	<rect x="126.3" y="419" class="st9" width="8.5" height="4.1"/>
	<rect x="130.3" y="417.9" width="1" height="4.2"/>
	<rect x="130.3" y="417.9" class="st10" width="1" height="4.2"/>
</g>
<g>
	<text transform="matrix(1 0 0 1 126.8046 431.1036)" class="st13 st26">Constant power</text>
</g>
<g>
	<g>
		<line class="st8" x1="129.4" y1="468.6" x2="129.4" y2="460.3"/>
	</g>
	<g>
		<path class="st9" d="M129.5,471.6c-1.7,0-3-1.4-3-3c0-1.8,1.4-3.2,3-3.2c1.8,0,3.2,1.4,3.2,3.2
			C132.7,470.2,131.3,471.6,129.5,471.6z"/>
		<path d="M129.5,472.3c-2,0-3.7-1.7-3.7-3.7c0-2.2,1.7-3.8,3.7-3.8v1.1c-1.4,0-2.5,1.1-2.5,2.7c0,1.4,1.1,2.5,2.5,2.5V472.3
			L129.5,472.3z M129.5,464.8v1.1c1.5,0,2.7,1.1,2.7,2.7c0,1.4-1.1,2.5-2.7,2.5v1.1c2.2,0,3.8-1.7,3.8-3.7
			C133.3,466.4,131.7,464.8,129.5,464.8z"/>
	</g>
	<rect x="125.3" y="464.4" class="st9" width="8.5" height="4.1"/>
	<rect x="128.9" y="465.3" width="1" height="4.2"/>
	<rect x="128.9" y="465.3" class="st10" width="1" height="4.2"/>
</g>
<g>
	<rect x="532.3" y="526.6" class="st9" width="8.5" height="18.8"/>
	<g>
		<g>
			<line class="st27" x1="536.4" y1="535.3" x2="536.4" y2="527"/>
		</g>
		<g>
			<line class="st28" x1="536.6" y1="538.5" x2="536.6" y2="544.9"/>
		</g>
		<g>
			<g>
				<g>
					<path class="st9" d="M536.5,538.3c-1.7,0-3.2-1.4-3.2-3.2s1.5-3.2,3.2-3.2c1.8,0,3.2,1.4,3.2,3.2
						C539.7,536.9,538.3,538.3,536.5,538.3z"/>
					<path d="M536.5,539c-2,0-3.7-1.8-3.7-3.8h1.1c0,1.4,1.1,2.5,2.5,2.5c1.5,0,2.7-1.1,2.7-2.5h1.1
						C540.3,537.2,538.7,539,536.5,539L536.5,539z M532.8,535.2h1.1c0-1.4,1.1-2.5,2.5-2.5c1.5,0,2.7,1.1,2.7,2.5h1.1
						c0-2.2-1.6-3.8-3.8-3.8C534.5,531.4,532.8,533,532.8,535.2z"/>
				</g>
				<rect x="532.3" y="530.9" class="st9" width="8.5" height="4.1"/>
				<rect x="535.9" y="531.8" width="1" height="4.2"/>
				<rect x="535.9" y="531.8" class="st10" width="1" height="4.2"/>
			</g>
		</g>
	</g>
</g>
<g>
	<rect x="581.6" y="526.6" class="st9" width="8.5" height="18.8"/>
	<g>
		<g>
			<line class="st27" x1="585.7" y1="535.3" x2="585.7" y2="527"/>
		</g>
		<g>
			<line class="st28" x1="585.9" y1="538.5" x2="585.9" y2="544.9"/>
		</g>
		<g>
			<g>
				<g>
					<path class="st9" d="M585.8,538.3c-1.7,0-3.2-1.4-3.2-3.2s1.5-3.2,3.2-3.2c1.8,0,3.2,1.4,3.2,3.2
						C589,536.9,587.6,538.3,585.8,538.3z"/>
					<path d="M585.8,539c-2,0-3.7-1.8-3.7-3.8h1.1c0,1.4,1.1,2.5,2.5,2.5c1.5,0,2.7-1.1,2.7-2.5h1.1C589.6,537.2,588,539,585.8,539
						L585.8,539z M582.1,535.2h1.1c0-1.4,1.1-2.5,2.5-2.5c1.5,0,2.7,1.1,2.7,2.5h1.1c0-2.2-1.6-3.8-3.8-3.8
						C583.8,531.4,582.1,533,582.1,535.2z"/>
				</g>
				<rect x="581.6" y="530.9" class="st9" width="8.5" height="4.1"/>
				<rect x="585.2" y="531.8" width="1" height="4.2"/>
				<rect x="585.2" y="531.8" class="st10" width="1" height="4.2"/>
			</g>
		</g>
	</g>
</g>
<polyline class="st29" points="280.6,471.4 280.6,575.6 168.3,575.6 "/>
<polyline class="st30" points="327.9,471.5 327.9,599.1 215.2,599.1 "/>
<g>
	<rect x="320.3" y="489.7" class="st9" width="13.9" height="6"/>
	<g>
		<text transform="matrix(1 0 0 1 318.6223 494.8738)" class="st13 st14">V 0.35</text>
	</g>
</g>
<g>
	<rect x="275.1" y="489.7" class="st9" width="13.9" height="6"/>
	<g>
		<text transform="matrix(1 0 0 1 271.4153 494.8738)" class="st13 st14">P 0.35</text>
	</g>
</g>
<g>
	<g>
		<line class="st8" x1="327.9" y1="468.3" x2="327.9" y2="460.1"/>
	</g>
	<g>
		<path class="st9" d="M328,471.4c-1.7,0-3-1.4-3-3c0-1.8,1.4-3.2,3-3.2c1.8,0,3.2,1.4,3.2,3.2C331.1,470,329.7,471.4,328,471.4z"/>
		<path d="M328,472c-2,0-3.7-1.7-3.7-3.7c0-2.2,1.7-3.8,3.7-3.8v1.1c-1.4,0-2.5,1.1-2.5,2.7c0,1.4,1.1,2.5,2.5,2.5V472L328,472z
			 M328,464.5v1.1c1.5,0,2.7,1.1,2.7,2.7c0,1.4-1.1,2.5-2.7,2.5v1.1c2.2,0,3.8-1.7,3.8-3.7S330.1,464.5,328,464.5z"/>
	</g>
	<rect x="323.8" y="464.1" class="st9" width="8.5" height="4.1"/>
	<rect x="327.3" y="465" width="1" height="4.2"/>
	<rect x="327.3" y="465" class="st10" width="1" height="4.2"/>
</g>
<g>
	<g>
		<line class="st8" x1="280.6" y1="468.5" x2="280.6" y2="460.2"/>
	</g>
	<g>
		<path class="st9" d="M280.7,471.5c-1.7,0-3-1.4-3-3c0-1.8,1.4-3.2,3-3.2c1.8,0,3.2,1.4,3.2,3.2
			C283.9,470.1,282.5,471.5,280.7,471.5z"/>
		<path d="M280.7,472.2c-2,0-3.7-1.7-3.7-3.7c0-2.2,1.7-3.8,3.7-3.8v1.1c-1.4,0-2.5,1.1-2.5,2.7c0,1.4,1.1,2.5,2.5,2.5V472.2
			L280.7,472.2z M280.7,464.7v1.1c1.5,0,2.7,1.1,2.7,2.7c0,1.4-1.1,2.5-2.7,2.5v1.1c2.2,0,3.8-1.7,3.8-3.7
			C284.5,466.3,282.9,464.7,280.7,464.7z"/>
	</g>
	<rect x="276.5" y="464.3" class="st9" width="8.5" height="4.1"/>
	<rect x="280.1" y="465.2" width="1" height="4.2"/>
	<rect x="280.1" y="465.2" class="st10" width="1" height="4.2"/>
</g>
<line class="st29" x1="168.2" y1="471.4" x2="168.2" y2="742.8"/>
<line class="st30" x1="215.5" y1="470.9" x2="215.5" y2="743.8"/>
<g>
	<rect x="207.7" y="489.7" class="st9" width="13.9" height="6"/>
	<g>
		<text transform="matrix(1 0 0 1 206.0466 494.8738)" class="st13 st14">V 0.35</text>
	</g>
</g>
<g>
	<rect x="162.5" y="489.7" class="st9" width="13.9" height="6"/>
	<g>
		<text transform="matrix(1 0 0 1 158.851 494.8738)" class="st13 st14">P 0.35</text>
	</g>
</g>
<g>
	<rect x="207.7" y="705.1" class="st9" width="13.9" height="6"/>
	<g>
		<text transform="matrix(1 0 0 1 206.0466 710.2505)" class="st13 st14">V 0.35</text>
	</g>
</g>
<g>
	<rect x="162.5" y="705.1" class="st9" width="13.9" height="6"/>
	<g>
		<text transform="matrix(1 0 0 1 158.851 710.2505)" class="st13 st14">P 0.35</text>
	</g>
</g>
<g>
	<g>
		<line class="st8" x1="215.4" y1="468.3" x2="215.4" y2="460.1"/>
	</g>
	<g>
		<path class="st9" d="M215.5,471.4c-1.7,0-3-1.4-3-3c0-1.8,1.4-3.2,3-3.2c1.8,0,3.2,1.4,3.2,3.2C218.7,470,217.3,471.4,215.5,471.4
			z"/>
		<path d="M215.5,472c-2,0-3.7-1.7-3.7-3.7c0-2.2,1.7-3.8,3.7-3.8v1.1c-1.4,0-2.5,1.1-2.5,2.7c0,1.4,1.1,2.5,2.5,2.5V472L215.5,472z
			 M215.5,464.5v1.1c1.5,0,2.7,1.1,2.7,2.7c0,1.4-1.1,2.5-2.7,2.5v1.1c2.2,0,3.8-1.7,3.8-3.7S217.7,464.5,215.5,464.5z"/>
	</g>
	<rect x="211.3" y="464.1" class="st9" width="8.5" height="4.1"/>
	<rect x="214.9" y="465" width="1" height="4.2"/>
	<rect x="214.9" y="465" class="st10" width="1" height="4.2"/>
</g>
<g>
	<g>
		<line class="st8" x1="168.3" y1="468.5" x2="168.3" y2="460.2"/>
	</g>
	<g>
		<path class="st9" d="M168.4,471.5c-1.7,0-3-1.4-3-3c0-1.8,1.4-3.2,3-3.2c1.8,0,3.2,1.4,3.2,3.2
			C171.5,470.1,170.1,471.5,168.4,471.5z"/>
		<path d="M168.4,472.2c-2,0-3.7-1.7-3.7-3.7c0-2.2,1.7-3.8,3.7-3.8v1.1c-1.4,0-2.5,1.1-2.5,2.7c0,1.4,1.1,2.5,2.5,2.5V472.2
			L168.4,472.2z M168.4,464.7v1.1c1.5,0,2.7,1.1,2.7,2.7c0,1.4-1.1,2.5-2.7,2.5v1.1c2.2,0,3.8-1.7,3.8-3.7
			C172.2,466.3,170.5,464.7,168.4,464.7z"/>
	</g>
	<rect x="164.2" y="464.3" class="st9" width="8.5" height="4.1"/>
	<rect x="167.7" y="465.2" width="1" height="4.2"/>
	<rect x="167.7" y="465.2" class="st10" width="1" height="4.2"/>
</g>
<g>
	<text transform="matrix(1 0 0 1 139.2 761.4393)" class="st13 st14">See Body Network System - Circuit Diagram</text>
</g>
<path class="st31" d="M163.6,745.7l0.5,2.1c0,0,0.5,2.5,2.7,2.6H191l0,0l1.6,2.7l1.6-2.7c7.4,0,24.2,0,24.2,0
	c2.2-0.1,2.7-2.6,2.7-2.6l0.5-2.1"/>
<g>
	<text transform="matrix(1 0 0 1 210.2765 458.0714)" class="st13 st26">CAN_L</text>
</g>
<g>
	<text transform="matrix(1 0 0 1 163.1338 458.0712)" class="st13 st26">CAN_H</text>
</g>
<g>
	<text transform="matrix(1 0 0 1 125.3996 458.0712)" class="st13 st26">Ground</text>
</g>
<rect x="173" y="565.4" class="st23" width="25.7" height="5.6"/>
<text transform="matrix(1 0 0 1 173.6707 570.3557)" class="st13 st14">SP4839</text>
<path class="st24" d="M171.1,575.5c0,1.7-1.3,2.9-2.8,2.9c-1.6,0-2.9-1.2-2.9-2.9c0-1.5,1.3-2.7,2.9-2.7
	C169.8,572.8,171.1,574,171.1,575.5z"/>
<rect x="220.8" y="588.9" class="st23" width="26.2" height="5.6"/>
<text transform="matrix(1 0 0 1 221.5511 593.8674)" class="st13 st14">SP4682</text>
<path class="st24" d="M218.3,599c0,1.7-1.3,2.9-2.8,2.9c-1.6,0-2.9-1.2-2.9-2.9c0-1.5,1.3-2.7,2.9-2.7
	C217,596.3,218.3,597.5,218.3,599z"/>
<g>
	<path class="st7" d="M817.9,460h-99.5v-32.9h99.5c0,0-6,6.3,0,15.3S817.9,460,817.9,460z"/>
</g>
<g>
	<text transform="matrix(1 0 0 1 729.9732 457.0715)" class="st13 st26">Ground</text>
</g>
<g>
	<text transform="matrix(1 0 0 1 754.8322 457.071)" class="st13 st26">Low beam +/dimming motor +</text>
</g>
<g>
	<text transform="matrix(1 0 0 1 765.4297 431.4474)" class="st13 st26">High beam power supply</text>
</g>
<g>
	<path class="st7" d="M952.7,460H853v-32.9h99.7c0,0-6,6.3,0,15.3S952.7,460,952.7,460z"/>
</g>
<g>
	<text transform="matrix(1 0 0 1 915.7397 458.0713)" class="st13 st26">Ground</text>
</g>
<g>
	<text transform="matrix(1 0 0 1 859.1577 431.4473)" class="st13 st26">Dimming signal</text>
</g>
<g>
	<text transform="matrix(1 0 0 1 729.1328 431.4473)" class="st13 st26">Dimming signal</text>
</g>
<g>
	<text transform="matrix(1 0 0 1 854.7485 458.0714)" class="st13 st26">Low beam +/dimming motor +</text>
</g>
<g>
	<path class="st7" d="M636.1,640H520.6v-32.9h115.5c0,0-4.9,6.3,0,15.3C640.9,631.4,636.1,640,636.1,640z"/>
</g>
<g>
	<text transform="matrix(1 0 0 1 523.616 611.8562)" class="st13 st26">Ambient light output signal</text>
</g>
<g>
	<text transform="matrix(1 0 0 1 578.079 611.8562)" class="st13 st26">Ambient light power supply</text>
</g>
<g>
	<text transform="matrix(1 0 0 1 566.1437 637.8562)" class="st13 st26">Ambient light ground</text>
</g>
<path class="st32" d="M278.9,528c-1.7,0-3.1-1.5-3.1-3.5c0-1.9,1.4-3.5,3.1-3.5l51.5,6.9c1.7,0,3.1-1.5,3.1-3.5
	c0-1.9-1.4-3.5-3.1-3.5L278.9,528z"/>
<path class="st32" d="M166.2,528c-1.7,0-3.1-1.5-3.1-3.5c0-1.9,1.4-3.5,3.1-3.5l51.5,6.9c1.7,0,3.1-1.5,3.1-3.5
	c0-1.9-1.4-3.5-3.1-3.5L166.2,528z"/>
<path class="st32" d="M166.2,635.6c-1.7,0-3.1-1.5-3.1-3.5c0-1.9,1.4-3.5,3.1-3.5l51.5,6.9c1.7,0,3.1-1.5,3.1-3.5
	c0-1.9-1.4-3.5-3.1-3.5L166.2,635.6z"/>
<g>
	<path class="st7" d="M688.7,460H265.9v-32.9h422.8c0,0-5.3,6.3,0,15.3S688.7,460,688.7,460z"/>
</g>
<g>
	<text transform="matrix(1 0 0 1 327.3137 432.1019)" class="st13 st26">Constant power</text>
</g>
<text transform="matrix(1 0 0 1 639.1679 458.0717)" class="st13 st26"> Low beam drive</text>
<g>
	<text transform="matrix(1 0 0 1 565.2427 431.6797)" class="st13 st26">High beam power supply</text>
</g>
<g>
	<text transform="matrix(1 0 0 1 619.0264 431.6794)" class="st13 st26">Headlight adjustment switch signal</text>
</g>
<g>
	<text transform="matrix(1 0 0 1 322.3163 458.0714)" class="st13 st26">CAN_L</text>
</g>
<g>
	<text transform="matrix(1 0 0 1 275.5069 458.0712)" class="st13 st26">CAN_H</text>
</g>
<g>
	<text transform="matrix(1 0 0 1 370.2001 458.0712)" class="st13 st26">Power ground 1</text>
</g>
<g>
	<text transform="matrix(1 0 0 1 422.4763 458.0712)" class="st13 st26">Power ground 2</text>
</g>
<g>
	<text transform="matrix(1 0 0 1 473.9539 458.0712)" class="st13 st26">Signal ground</text>
</g>
<g>
	<line class="st8" x1="650.3" y1="468.3" x2="650.3" y2="460.1"/>
	<path class="st9" d="M650.4,471.4c-1.6,0-3-1.4-3-3c0-1.8,1.4-3.2,3-3.2c1.8,0,3.2,1.4,3.2,3.2C653.6,470,652.2,471.4,650.4,471.4"
		/>
	<path d="M650.4,472c-2,0-3.7-1.6-3.7-3.7c0-2.2,1.7-3.8,3.7-3.8v1.1c-1.4,0-2.5,1.1-2.5,2.7c0,1.4,1.1,2.5,2.5,2.5V472z
		 M650.4,464.5v1.1c1.5,0,2.7,1.1,2.7,2.7c0,1.4-1.1,2.5-2.7,2.5v1.1c2.2,0,3.8-1.6,3.8-3.7C654.2,466.2,652.6,464.5,650.4,464.5"/>
	<rect x="646.2" y="464.1" class="st9" width="8.5" height="4.1"/>
	<rect x="649.8" y="465" width="1" height="4.2"/>
	<rect x="649.8" y="465" class="st10" width="1" height="4.2"/>
</g>
<polyline class="st15" points="216.4,416 216.4,346.3 280.8,346.3 280.8,415.2 "/>
<polyline class="st33" points="216.4,416 216.4,346.3 280.8,346.3 280.8,415.2 "/>
<g>
	<rect x="273" y="382.5" class="st9" width="13.9" height="6"/>
	<g>
		<text transform="matrix(1 0 0 1 267.6854 387.6294)" class="st13 st14">G/B 0.22</text>
	</g>
</g>
<g>
	<rect x="208.8" y="382.5" class="st9" width="13.9" height="6"/>
	<g>
		<text transform="matrix(1 0 0 1 203.4694 387.6294)" class="st13 st14">G/B 0.22</text>
	</g>
</g>
<g>
	<g>
		<line class="st8" x1="281.2" y1="418.8" x2="281.2" y2="427.1"/>
	</g>
	<g>
		<path class="st9" d="M281.1,415.8c1.7,0,3,1.4,3,3c0,1.8-1.4,3.2-3,3.2c-1.8,0-3.2-1.4-3.2-3.2C278,417.2,279.4,415.8,281.1,415.8
			z"/>
		<path d="M281.1,415.2c2,0,3.7,1.7,3.7,3.7c0,2.2-1.7,3.8-3.7,3.8v-1.1c1.4,0,2.5-1.1,2.5-2.7c0-1.4-1.1-2.5-2.5-2.5V415.2
			L281.1,415.2z M281.1,422.6v-1.1c-1.5,0-2.7-1.1-2.7-2.7c0-1.4,1.1-2.5,2.7-2.5v-1.1c-2.2,0-3.8,1.7-3.8,3.7
			C277.3,421,279,422.6,281.1,422.6z"/>
	</g>
	<rect x="276.8" y="419" class="st9" width="8.5" height="4.1"/>
	<rect x="280.8" y="417.9" width="1" height="4.2"/>
	<rect x="280.8" y="417.9" class="st10" width="1" height="4.2"/>
</g>
<g>
	<g>
		<line class="st8" x1="216.4" y1="418.7" x2="216.4" y2="427"/>
	</g>
	<g>
		<path class="st9" d="M216.3,415.7c1.7,0,3,1.4,3,3c0,1.8-1.4,3.2-3,3.2c-1.8,0-3.2-1.4-3.2-3.2
			C213.1,417.1,214.5,415.7,216.3,415.7z"/>
		<path d="M216.3,415.1c2,0,3.7,1.7,3.7,3.7c0,2.2-1.7,3.8-3.7,3.8v-1.1c1.4,0,2.5-1.1,2.5-2.7c0-1.4-1.1-2.5-2.5-2.5V415.1
			L216.3,415.1z M216.3,422.5v-1.1c-1.5,0-2.7-1.1-2.7-2.7c0-1.4,1.1-2.5,2.7-2.5v-1.1c-2.2,0-3.8,1.7-3.8,3.7
			C212.5,420.9,214.1,422.5,216.3,422.5z"/>
	</g>
	<rect x="212" y="418.9" class="st9" width="8.5" height="4.1"/>
	<rect x="215.9" y="417.9" width="1" height="4.2"/>
	<rect x="215.9" y="417.9" class="st10" width="1" height="4.2"/>
</g>
<g>
	<text transform="matrix(1 0 0 1 172.6999 433.2415)" class="st13 st26">Headlight control signal output</text>
</g>
<g>
	<text transform="matrix(1 0 0 1 268.9761 432.1021)" class="st13 st26">Low beam open/close signal</text>
</g>
<g>
	<text transform="matrix(1 0 0 1 515.616 458.6169)" class="st13 st26">Light intensity signal</text>
</g>
<g>
	<text transform="matrix(1 0 0 1 562.079 458.6169)" class="st13 st26">Light intensity sensor power supply</text>
</g>
<g id="FF09_x2C_A1_1_">
	<rect x="428.5" y="141.6" class="st34" width="7.7" height="21.1"/>
	<g>
		<g>
			<path class="st20" d="M432.3,157.9c-1.2,0-2.2,1-2.2,2.2s1,2.2,2.2,2.2s2.2-1,2.2-2.2S433.5,157.9,432.3,157.9"/>
		</g>
		<g>
			<path class="st20" d="M432.3,142.1c-1.2,0-2.2,1-2.2,2.1c0,1.2,1,2.2,2.2,2.2s2.2-0.9,2.2-2.2
				C434.5,143.1,433.5,142.1,432.3,142.1"/>
		</g>
		<g>
			<path class="st20" d="M430.8,145.9c-0.1,2.5,0.2,3.2,1.3,4.3c1.2,1.2,2.4,1.7,2.8,3.7c0.4,1.6-0.1,3.5-1.1,4.5"/>
		</g>
		<g>
			<path class="st20" d="M433.7,158.5c0.2-0.8,0-2.9-0.7-3.7c-0.9-1.2-2.7-2.1-3.3-4c-0.9-2.8,0.7-4.6,1.1-5"/>
		</g>
	</g>
</g>
<g>
	<g>
		<line class="st8" x1="432.3" y1="142.1" x2="432.3" y2="70.6"/>
	</g>
</g>
<g>
	<text transform="matrix(1 0 0 1 436.89 158.2402)" class="st13 st14">7.5A</text>
</g>
<g>
	<g>
		<polyline class="st8" points="432.1,162.3 432.1,175.3 432.1,187.8 		"/>
	</g>
</g>
<g>
	<path class="st21" d="M429.7,70.7c0-1.7,1.3-2.9,2.8-2.9c1.6,0,2.9,1.2,2.9,2.9c0,1.5-1.3,2.7-2.9,2.7
		C431,73.5,429.7,72.3,429.7,70.7z"/>
	<g>
		<path class="st22" d="M429.7,70.7c0-1.7,1.3-2.9,2.8-2.9c1.6,0,2.9,1.2,2.9,2.9c0,1.5-1.3,2.7-2.9,2.7
			C431,73.5,429.7,72.3,429.7,70.7"/>
	</g>
</g>
<g>
	<text transform="matrix(1 0 0 1 424.1252 431.6802)" class="st13 st26">IG3 power supply</text>
</g>
<line class="st1" x1="431.9" y1="197.9" x2="431.9" y2="416.1"/>
<line class="st35" x1="431.9" y1="197.9" x2="431.9" y2="416.1"/>
<polyline class="st1" points="590,416.1 590,304.9 785,304.9 "/>
<polyline class="st2" points="590,416.1 590,304.9 785,304.9 "/>
<g>
	<line class="st36" x1="432.1" y1="196.1" x2="432.1" y2="187.9"/>
	<path class="st9" d="M432,199.2c-1.7,0-3-1.4-3-3c0-1.8,1.4-3.2,3-3.2c1.8,0,3.2,1.4,3.2,3.2C435.2,197.8,433.8,199.2,432,199.2"/>
	<path d="M432.1,199.8c-2,0-3.7-1.6-3.7-3.7c0-2.2,1.7-3.8,3.7-3.8v1.2c-1.4,0-2.5,1.1-2.5,2.7c0,1.3,1.1,2.5,2.5,2.5V199.8z
		 M432.1,192.3v1.2c1.5,0,2.7,1.1,2.7,2.7c0,1.3-1.1,2.5-2.7,2.5v1.1c2.2,0,3.8-1.6,3.8-3.7C435.9,194,434.3,192.3,432.1,192.3"/>
	<rect x="427.7" y="191.9" class="st9" width="8.9" height="4.1"/>
	<rect x="431.6" y="192.8" width="1" height="4.2"/>
	<rect x="431.6" y="192.8" class="st10" width="1" height="4.2"/>
</g>
<g>
	<line class="st36" x1="431.9" y1="418.9" x2="431.9" y2="427.1"/>
	<path class="st9" d="M431.8,415.8c-1.7,0-3,1.4-3,3c0,1.8,1.4,3.2,3,3.2c1.8,0,3.2-1.4,3.2-3.2C435,417.2,433.6,415.8,431.8,415.8"
		/>
	<path d="M431.9,416.3c-1.4,0-2.5,1.2-2.5,2.5c0,1.6,1.1,2.7,2.5,2.7v1.2c-2,0-3.7-1.6-3.7-3.8c0-2.1,1.7-3.7,3.7-3.7V416.3z
		 M431.9,422.7c2.2,0,3.8-1.7,3.8-3.8c0-2.1-1.6-3.7-3.8-3.7v1.1c1.6,0,2.7,1.2,2.7,2.5c0,1.6-1.2,2.7-2.7,2.7V422.7"/>
	<rect x="427.5" y="419" class="st9" width="8.9" height="4.1"/>
	<rect x="431.4" y="418" width="1" height="4.2"/>
	<rect x="431.4" y="418" class="st10" width="1" height="4.2"/>
</g>
<g>
	<line class="st36" x1="650.1" y1="418.9" x2="650.1" y2="427.1"/>
	<path class="st9" d="M650,415.8c-1.7,0-3,1.4-3,3c0,1.8,1.4,3.2,3,3.2c1.8,0,3.2-1.4,3.2-3.2C653.2,417.2,651.8,415.8,650,415.8"/>
	<path d="M650.1,416.3c-1.4,0-2.5,1.2-2.5,2.5c0,1.6,1.1,2.7,2.5,2.7v1.2c-2,0-3.7-1.6-3.7-3.8c0-2.1,1.7-3.7,3.7-3.7V416.3z
		 M650.1,422.7c2.2,0,3.8-1.7,3.8-3.8c0-2.1-1.6-3.7-3.8-3.7v1.1c1.6,0,2.7,1.2,2.7,2.5c0,1.6-1.2,2.7-2.7,2.7V422.7"/>
	<rect x="645.7" y="419" class="st9" width="8.9" height="4.1"/>
	<rect x="649.6" y="418" width="1" height="4.2"/>
	<rect x="649.6" y="418" class="st10" width="1" height="4.2"/>
</g>
<g>
	<line class="st36" x1="590" y1="418.9" x2="590" y2="427.1"/>
	<path class="st9" d="M589.9,415.8c-1.7,0-3,1.4-3,3c0,1.8,1.4,3.2,3,3.2c1.8,0,3.2-1.4,3.2-3.2
		C593.1,417.2,591.7,415.8,589.9,415.8"/>
	<path d="M590,416.3c-1.4,0-2.5,1.2-2.5,2.5c0,1.6,1.1,2.7,2.5,2.7v1.2c-2,0-3.7-1.6-3.7-3.8c0-2.1,1.7-3.7,3.7-3.7V416.3z
		 M590,422.7c2.2,0,3.8-1.7,3.8-3.8c0-2.1-1.6-3.7-3.8-3.7v1.1c1.6,0,2.7,1.2,2.7,2.5c0,1.6-1.2,2.7-2.7,2.7V422.7"/>
	<rect x="585.6" y="419" class="st9" width="8.9" height="4.1"/>
	<rect x="589.5" y="418" width="1" height="4.2"/>
	<rect x="589.5" y="418" class="st10" width="1" height="4.2"/>
</g>
<line class="st3" x1="736.6" y1="352" x2="736.6" y2="416.1"/>
<line class="st4" x1="736.6" y1="352" x2="736.6" y2="416.1"/>
<g>
	<line class="st36" x1="736.6" y1="418.9" x2="736.6" y2="427.1"/>
	<path class="st9" d="M736.5,415.8c-1.7,0-3,1.4-3,3c0,1.8,1.4,3.2,3,3.2c1.8,0,3.2-1.4,3.2-3.2
		C739.7,417.2,738.3,415.8,736.5,415.8"/>
	<path d="M736.6,416.3c-1.4,0-2.5,1.2-2.5,2.5c0,1.6,1.1,2.7,2.5,2.7v1.2c-2,0-3.7-1.6-3.7-3.8c0-2.1,1.7-3.7,3.7-3.7V416.3z
		 M736.6,422.7c2.2,0,3.8-1.7,3.8-3.8c0-2.1-1.6-3.7-3.8-3.7v1.1c1.6,0,2.7,1.2,2.7,2.5c0,1.6-1.2,2.7-2.7,2.7V422.7"/>
	<rect x="732.2" y="419" class="st9" width="8.9" height="4.1"/>
	<rect x="736.1" y="418" width="1" height="4.2"/>
	<rect x="736.1" y="418" class="st10" width="1" height="4.2"/>
</g>
<g>
	<line class="st36" x1="873.5" y1="418.9" x2="873.5" y2="427.1"/>
	<path class="st9" d="M873.4,415.8c-1.7,0-3,1.4-3,3c0,1.8,1.4,3.2,3,3.2c1.8,0,3.2-1.4,3.2-3.2
		C876.6,417.2,875.2,415.8,873.4,415.8"/>
	<path d="M873.5,416.3c-1.4,0-2.5,1.2-2.5,2.5c0,1.6,1.1,2.7,2.5,2.7v1.2c-2,0-3.7-1.6-3.7-3.8c0-2.1,1.7-3.7,3.7-3.7V416.3z
		 M873.5,422.7c2.2,0,3.8-1.7,3.8-3.8c0-2.1-1.6-3.7-3.8-3.7v1.1c1.6,0,2.7,1.2,2.7,2.5c0,1.6-1.2,2.7-2.7,2.7V422.7"/>
	<rect x="869.1" y="419" class="st9" width="8.9" height="4.1"/>
	<rect x="873" y="418" width="1" height="4.2"/>
	<rect x="873" y="418" class="st10" width="1" height="4.2"/>
</g>
<rect x="417" y="328.5" class="st9" width="29.8" height="7.1"/>
<text transform="matrix(1 0 0 1 424.1252 333.7985)" class="st13 st14">R 8.0</text>
<rect x="417" y="328.5" class="st9" width="29.8" height="7.1"/>
<text transform="matrix(1 0 0 1 419.297 333.7985)" class="st13 st14">R/Y 0.35</text>
<rect x="417" y="257.1" class="st9" width="29.8" height="7.1"/>
<text transform="matrix(1 0 0 1 424.1252 262.4844)" class="st13 st14">R 8.0</text>
<rect x="417" y="257.1" class="st9" width="29.8" height="7.1"/>
<text transform="matrix(1 0 0 1 419.297 262.4844)" class="st13 st14">R/Y 0.35</text>
<rect x="417" y="217.1" class="st9" width="29.8" height="7.1"/>
<text transform="matrix(1 0 0 1 424.1252 222.4108)" class="st13 st14">R 8.0</text>
<rect x="417" y="217.1" class="st9" width="29.8" height="7.1"/>
<text transform="matrix(1 0 0 1 419.297 222.4108)" class="st13 st14">R/Y 0.35</text>
<rect x="417" y="381.4" class="st9" width="29.8" height="7.1"/>
<text transform="matrix(1 0 0 1 424.1252 386.5731)" class="st13 st14">R 8.0</text>
<rect x="417" y="381.4" class="st9" width="29.8" height="7.1"/>
<text transform="matrix(1 0 0 1 419.297 386.5731)" class="st13 st14">R/Y 0.35</text>
<path class="st24" d="M434.8,351.9c0,1.7-1.3,2.9-2.8,2.9c-1.6,0-2.9-1.2-2.9-2.9c0-1.5,1.3-2.7,2.9-2.7
	C433.5,349.1,434.8,350.4,434.8,351.9z"/>
<rect x="438.8" y="349" class="st23" width="25.3" height="5.6"/>
<text transform="matrix(1 0 0 1 439.5341 353.8281)" class="st13 st14">SP6005</text>
<path class="st24" d="M434.8,240.7c0,1.7-1.3,2.9-2.8,2.9c-1.6,0-2.9-1.2-2.9-2.9c0-1.5,1.3-2.7,2.9-2.7
	C433.5,237.9,434.8,239.2,434.8,240.7z"/>
<rect x="438.8" y="237.8" class="st23" width="25.3" height="5.6"/>
<text transform="matrix(1 0 0 1 439.5341 242.6405)" class="st13 st14">SP4915</text>
<g>
	<rect x="427.7" y="289.9" class="st9" width="8.5" height="18.8"/>
	<g>
		<g>
			<line class="st27" x1="431.8" y1="298.6" x2="431.8" y2="290.3"/>
		</g>
		<g>
			<line class="st28" x1="432" y1="301.7" x2="432" y2="308.2"/>
		</g>
		<g>
			<g>
				<g>
					<path class="st9" d="M431.9,301.6c-1.7,0-3.2-1.4-3.2-3.2c0-1.8,1.5-3.2,3.2-3.2c1.8,0,3.2,1.4,3.2,3.2
						S433.7,301.6,431.9,301.6z"/>
					<path d="M431.9,302.3c-2,0-3.7-1.8-3.7-3.8h1.1c0,1.4,1.1,2.5,2.5,2.5c1.5,0,2.7-1.1,2.7-2.5h1.1
						C435.7,300.5,434.1,302.3,431.9,302.3L431.9,302.3z M428.2,298.4h1.1c0-1.4,1.1-2.5,2.5-2.5c1.5,0,2.7,1.1,2.7,2.5h1.1
						c0-2.2-1.6-3.8-3.8-3.8C429.9,294.6,428.2,296.3,428.2,298.4z"/>
				</g>
				<rect x="427.7" y="294.3" class="st9" width="8.5" height="4.1"/>
				<rect x="431.3" y="295.1" width="1" height="4.2"/>
				<rect x="431.3" y="295.1" class="st10" width="1" height="4.2"/>
			</g>
		</g>
	</g>
</g>
<rect x="741.3" y="343.7" class="st23" width="24.7" height="5.6"/>
<text transform="matrix(1 0 0 1 741.9883 348.6661)" class="st13 st14">SP4795</text>
<path class="st24" d="M739.2,352c0,1.7-1.3,2.9-2.8,2.9c-1.6,0-2.9-1.2-2.9-2.9c0-1.5,1.3-2.7,2.9-2.7
	C737.9,349.3,739.2,350.5,739.2,352z"/>
<g>
	<rect x="729.1" y="381.7" class="st9" width="13.9" height="6"/>
	<g>
		<text transform="matrix(1 0 0 1 722.7901 386.8304)" class="st13 st14">Y/G 0.35</text>
	</g>
</g>
<g>
	<line class="st36" x1="785.2" y1="418.9" x2="785.2" y2="427.1"/>
	<path class="st9" d="M785.1,415.8c-1.7,0-3,1.4-3,3c0,1.8,1.4,3.2,3,3.2c1.8,0,3.2-1.4,3.2-3.2
		C788.3,417.2,786.9,415.8,785.1,415.8"/>
	<path d="M785.2,416.3c-1.4,0-2.5,1.2-2.5,2.5c0,1.6,1.1,2.7,2.5,2.7v1.2c-2,0-3.7-1.6-3.7-3.8c0-2.1,1.7-3.7,3.7-3.7V416.3z
		 M785.2,422.7c2.2,0,3.8-1.7,3.8-3.8c0-2.1-1.6-3.7-3.8-3.7v1.1c1.6,0,2.7,1.2,2.7,2.5c0,1.6-1.2,2.7-2.7,2.7V422.7"/>
	<rect x="780.8" y="419" class="st9" width="8.9" height="4.1"/>
	<rect x="784.7" y="418" width="1" height="4.2"/>
	<rect x="784.7" y="418" class="st10" width="1" height="4.2"/>
</g>
<g>
	<rect x="642.6" y="381.7" class="st9" width="13.9" height="6"/>
	<g>
		<text transform="matrix(1 0 0 1 636.2411 386.8304)" class="st13 st14">Y/G 0.35</text>
	</g>
</g>
<g>
	<rect x="583.6" y="381.7" class="st9" width="13.9" height="6"/>
	<g>
		<text transform="matrix(1 0 0 1 577.2225 386.8304)" class="st13 st14">R/L 0.75</text>
	</g>
</g>
<g>
	<rect x="866" y="381.7" class="st9" width="13.9" height="6"/>
	<g>
		<text transform="matrix(1 0 0 1 859.6813 386.8304)" class="st13 st14">Y/G 0.35</text>
	</g>
</g>
<g>
	<rect x="775.3" y="382" class="st9" width="13.9" height="6"/>
	<g>
		<text transform="matrix(1 0 0 1 774.6638 387.1638)" class="st13 st14">R/L 1.0</text>
	</g>
</g>
<g>
	<text transform="matrix(1 0 0 1 897.3591 431.4474)" class="st13 st26">High beam power supply</text>
</g>
<polyline class="st1" points="919.1,416.1 919.1,304.9 785.3,304.9 "/>
<polyline class="st2" points="919.1,416.1 919.1,304.9 785.3,304.9 "/>
<g>
	<line class="st36" x1="919.1" y1="418.9" x2="919.1" y2="427.1"/>
	<path class="st9" d="M919,415.8c-1.7,0-3,1.4-3,3c0,1.8,1.4,3.2,3,3.2c1.8,0,3.2-1.4,3.2-3.2C922.2,417.2,920.8,415.8,919,415.8"/>
	<path d="M919.1,416.3c-1.4,0-2.5,1.2-2.5,2.5c0,1.6,1.1,2.7,2.5,2.7v1.2c-2,0-3.7-1.6-3.7-3.8c0-2.1,1.7-3.7,3.7-3.7V416.3z
		 M919.1,422.7c2.2,0,3.8-1.7,3.8-3.8c0-2.1-1.6-3.7-3.8-3.7v1.1c1.6,0,2.7,1.2,2.7,2.5c0,1.6-1.2,2.7-2.7,2.7V422.7"/>
	<rect x="914.7" y="419" class="st9" width="8.9" height="4.1"/>
	<rect x="918.6" y="418" width="1" height="4.2"/>
	<rect x="918.6" y="418" class="st10" width="1" height="4.2"/>
</g>
<g>
	<rect x="909.2" y="382" class="st9" width="13.9" height="6"/>
	<g>
		<text transform="matrix(1 0 0 1 908.5933 387.1638)" class="st13 st14">R/L 1.0</text>
	</g>
</g>
<path class="st24" d="M788.1,304.8c0,1.7-1.3,2.9-2.8,2.9c-1.6,0-2.9-1.2-2.9-2.9c0-1.5,1.3-2.7,2.9-2.7
	C786.8,302.1,788.1,303.3,788.1,304.8z"/>
<rect x="777.8" y="295.2" class="st23" width="25.1" height="5.6"/>
<text transform="matrix(1 0 0 1 778.4672 300.1442)" class="st13 st14">SP4794</text>
<g>
	<line class="st8" x1="585.6" y1="648.2" x2="585.6" y2="640"/>
	<path class="st9" d="M585.7,651.3c-1.6,0-3-1.4-3-3c0-1.8,1.4-3.2,3-3.2c1.8,0,3.2,1.4,3.2,3.2
		C588.9,649.9,587.5,651.3,585.7,651.3"/>
	<path d="M585.7,651.9c-2,0-3.7-1.6-3.7-3.7c0-2.2,1.7-3.8,3.7-3.8v1.1c-1.4,0-2.5,1.1-2.5,2.7c0,1.4,1.1,2.5,2.5,2.5V651.9z
		 M585.7,644.4v1.1c1.5,0,2.7,1.1,2.7,2.7c0,1.4-1.1,2.5-2.7,2.5v1.1c2.2,0,3.8-1.6,3.8-3.7C589.5,646.1,587.9,644.4,585.7,644.4"/>
	<rect x="581.5" y="644" class="st9" width="8.5" height="4.1"/>
	<rect x="585.1" y="644.9" width="1" height="4.2"/>
	<rect x="585.1" y="644.9" class="st10" width="1" height="4.2"/>
</g>
<g id="GB031_6_">
	<g>
		<g>
			<line class="st11" x1="585.4" y1="766.8" x2="585.4" y2="769.5"/>
		</g>
		<g>
			<line class="st11" x1="578.4" y1="769.5" x2="592.2" y2="769.5"/>
		</g>
		<g>
			<line class="st11" x1="581.2" y1="771.7" x2="589.4" y2="771.7"/>
		</g>
		<g>
			<line class="st11" x1="587.7" y1="773.8" x2="582.9" y2="773.8"/>
		</g>
	</g>
	<g>
		<rect x="575" y="776.3" class="st9" width="20.3" height="8.2"/>
		<rect x="575.3" y="776.7" class="st12" width="19.7" height="7.6"/>
	</g>
</g>
<g>
	<rect x="578.9" y="659.3" class="st9" width="13.9" height="6"/>
	<g>
		<text transform="matrix(1 0 0 1 573.9989 664.4597)" class="st13 st14">B 0.75</text>
	</g>
</g>
<g>
	<rect x="579.7" y="746" class="st9" width="13.9" height="6"/>
	<g>
		<text transform="matrix(1 0 0 1 574.8491 751.1085)" class="st13 st14">B 0.35</text>
	</g>
</g>
<g>
	<rect x="580.4" y="698.8" class="st9" width="13.9" height="6"/>
	<g>
		<text transform="matrix(1 0 0 1 575.5182 703.8585)" class="st13 st14">B 0.35</text>
	</g>
</g>
<path class="st24" d="M588.1,681.9c0,1.7-1.3,2.9-2.8,2.9c-1.6,0-2.9-1.2-2.9-2.9c0-1.5,1.3-2.7,2.9-2.7
	C586.8,679.2,588.1,680.4,588.1,681.9z"/>
<g>
	<g>
		<g>
			<text transform="matrix(1 0 0 1 577.6228 782.6607)" class="st37 st13 st14">Eb01</text>
		</g>
	</g>
</g>
<rect x="589.4" y="679" class="st23" width="26.2" height="5.6"/>
<text transform="matrix(1 0 0 1 590.1252 683.9575)" class="st13 st14">SP4873</text>
<g>
	<rect x="581.7" y="715.6" class="st9" width="8.5" height="18.8"/>
	<g>
		<g>
			<line class="st27" x1="585.8" y1="724.3" x2="585.8" y2="716"/>
		</g>
		<g>
			<line class="st28" x1="586" y1="727.5" x2="586" y2="733.9"/>
		</g>
		<g>
			<g>
				<g>
					<path class="st9" d="M585.9,727.3c-1.7,0-3.2-1.4-3.2-3.2s1.5-3.2,3.2-3.2c1.8,0,3.2,1.4,3.2,3.2
						C589.1,725.9,587.7,727.3,585.9,727.3z"/>
					<path d="M585.9,728c-2,0-3.7-1.8-3.7-3.8h1.1c0,1.4,1.1,2.5,2.5,2.5c1.5,0,2.7-1.1,2.7-2.5h1.1
						C589.7,726.2,588.1,728,585.9,728L585.9,728z M582.2,724.2h1.1c0-1.4,1.1-2.5,2.5-2.5c1.5,0,2.7,1.1,2.7,2.5h1.1
						c0-2.2-1.6-3.8-3.8-3.8C583.9,720.4,582.2,722,582.2,724.2z"/>
				</g>
				<rect x="581.7" y="719.9" class="st9" width="8.5" height="4.1"/>
				<rect x="585.3" y="720.8" width="1" height="4.2"/>
				<rect x="585.3" y="720.8" class="st10" width="1" height="4.2"/>
			</g>
		</g>
	</g>
</g>
<g>
	<g>
		<g>
			<text transform="matrix(1 0 0 1 591.6907 730.4314)" class="st37 st13 st14">GJGa01</text>
		</g>
	</g>
</g>
<g>
	<g>
		<g>
			<text transform="matrix(1 0 0 1 591.6907 723.6605)" class="st37 st13 st14">GaJG01</text>
		</g>
	</g>
</g>
<g>
	<g>
		<g>
			<text transform="matrix(1 0 0 1 911.2527 782.6607)" class="st37 st13 st14">Eb08</text>
		</g>
	</g>
</g>
<g>
	<g>
		<g>
			<text transform="matrix(1 0 0 1 729.2222 782.6607)" class="st37 st13 st14">Eb01</text>
		</g>
	</g>
</g>
<g>
	<g id="FB103_7_">
		<g>
			<g id="FB103_8_">
				<g>
					<g>
						<text transform="matrix(1 0 0 1 460.4487 445.3785)" class="st37 st13 st14">Left domain control module</text>
					</g>
				</g>
			</g>
		</g>
	</g>
</g>
<g>
	<g id="FB103_9_">
		<g>
			<g id="FB103_10_">
				<g>
					<g>
						<text transform="matrix(1 0 0 1 725.0018 445.3511)" class="st37 st13 st14">Left front combination light</text>
					</g>
				</g>
			</g>
		</g>
	</g>
</g>
<g>
	<g>
		<text transform="matrix(1 0 0 1 336.9279 151.6224)" class="st37 st13 st14">F4/02</text>
	</g>
</g>
<g>
	<g>
		<g>
			<text transform="matrix(1 0 0 1 121.498 782.6965)" class="st37 st13 st14">Eg03</text>
		</g>
	</g>
</g>
<g>
	<g>
		<text transform="matrix(1 0 0 1 135.8203 150.7743)" class="st37 st13 st14">F2/11</text>
	</g>
</g>
<g>
	<g>
		<g>
			<text transform="matrix(1 0 0 1 543.8203 533.094)" class="st37 st13 st14">GJGa01</text>
		</g>
	</g>
</g>
<g>
	<g>
		<g>
			<text transform="matrix(1 0 0 1 543.8203 540.5106)" class="st37 st13 st14">GaJG01</text>
		</g>
	</g>
</g>
<g>
	<g>
		<g>
			<text transform="matrix(1 0 0 1 567.1049 540.5103)" class="st37 st13 st14">-2</text>
		</g>
	</g>
</g>
<g>
	<g>
		<g>
			<text transform="matrix(1 0 0 1 593.1406 533.094)" class="st37 st13 st14">GJGa01</text>
		</g>
	</g>
</g>
<g>
	<g>
		<g>
			<text transform="matrix(1 0 0 1 593.1406 540.5106)" class="st37 st13 st14">GaJG01</text>
		</g>
	</g>
</g>
<g>
	<g>
		<g>
			<text transform="matrix(1 0 0 1 616.4252 540.5103)" class="st37 st13 st14">-1</text>
		</g>
	</g>
</g>
<g>
	<g id="FB103_13_">
		<g>
			<g id="FB103_14_">
				<g>
					<g>
						<text transform="matrix(1 0 0 1 165.1789 445.3549)" class="st37 st13 st14">Combination Switch</text>
					</g>
				</g>
			</g>
		</g>
	</g>
</g>
<g>
	<g>
		<text transform="matrix(1 0 0 1 250.3229 153.0966)" class="st37 st13 st14">Positive fuse box</text>
	</g>
</g>
<g>
	<g>
		<text transform="matrix(1 0 0 1 162.4975 152.9929)" class="st37 st13 st14">Instrument fuse box</text>
	</g>
</g>
<g>
	<g>
		<text transform="matrix(1 0 0 1 742.1772 466.5149)" class="st37 st13 st14">B05</text>
	</g>
</g>
<g>
	<g>
		<text transform="matrix(1 0 0 1 753.7606 466.5149)" class="st37 st13 st14">-9</text>
	</g>
</g>
<g>
	<g>
		<text transform="matrix(1 0 0 1 655.7838 467.7219)" class="st37 st13 st14">BG64(C)</text>
	</g>
</g>
<g>
	<g>
		<text transform="matrix(1 0 0 1 681.139 467.7219)" class="st37 st13 st14">-2</text>
	</g>
</g>
<g>
	<g>
		<text transform="matrix(1 0 0 1 596.7048 424.5891)" class="st37 st13 st14">BG64(C)</text>
	</g>
</g>
<g>
	<g>
		<text transform="matrix(1 0 0 1 622.1691 424.5891)" class="st37 st13 st14">-6</text>
	</g>
</g>
<g>
	<g>
		<text transform="matrix(1 0 0 1 541.4916 604.2792)" class="st37 st13 st14">GaG04</text>
	</g>
</g>
<g>
	<g>
		<text transform="matrix(1 0 0 1 561.9558 604.2792)" class="st37 st13 st14">-4</text>
	</g>
</g>
<g>
	<g>
		<text transform="matrix(1 0 0 1 308.2574 424.3668)" class="st37 st13 st14">-7</text>
	</g>
</g>
<g>
	<g>
		<text transform="matrix(1 0 0 1 337.5459 194.9537)" class="st37 st13 st14">B46</text>
	</g>
</g>
<g>
	<g>
		<text transform="matrix(1 0 0 1 349.796 194.9951)" class="st37 st13 st14">-3</text>
	</g>
</g>
<g>
	<g>
		<text transform="matrix(1 0 0 1 790.8444 466.5143)" class="st37 st13 st14">B05</text>
	</g>
</g>
<g>
	<g>
		<text transform="matrix(1 0 0 1 802.4279 466.5143)" class="st37 st13 st14">-1</text>
	</g>
</g>
<g>
	<g>
		<text transform="matrix(1 0 0 1 655.8895 424.5889)" class="st37 st13 st14">BG64(B)</text>
	</g>
</g>
<g>
	<g>
		<text transform="matrix(1 0 0 1 681.1395 424.5889)" class="st37 st13 st14">-39</text>
	</g>
</g>
<g>
	<g>
		<text transform="matrix(1 0 0 1 740.5725 424.589)" class="st37 st13 st14">B05</text>
	</g>
</g>
<g>
	<g>
		<text transform="matrix(1 0 0 1 752.156 424.589)" class="st37 st13 st14">-5</text>
	</g>
</g>
<g>
	<g>
		<text transform="matrix(1 0 0 1 789.6829 424.589)" class="st37 st13 st14">B05</text>
	</g>
</g>
<g>
	<g>
		<text transform="matrix(1 0 0 1 801.2664 424.589)" class="st37 st13 st14">-2</text>
	</g>
</g>
<g>
	<g>
		<text transform="matrix(1 0 0 1 925.4905 424.589)" class="st37 st13 st14">B06</text>
	</g>
</g>
<g>
	<g>
		<text transform="matrix(1 0 0 1 937.074 424.589)" class="st37 st13 st14">-2</text>
	</g>
</g>
<g>
	<g>
		<text transform="matrix(1 0 0 1 923.9436 466.5149)" class="st37 st13 st14">B06</text>
	</g>
</g>
<g>
	<g>
		<text transform="matrix(1 0 0 1 935.3601 466.5149)" class="st37 st13 st14">-9</text>
	</g>
</g>
<g>
	<g>
		<text transform="matrix(1 0 0 1 878.7584 424.5889)" class="st37 st13 st14">B06</text>
	</g>
</g>
<g>
	<g>
		<text transform="matrix(1 0 0 1 890.1749 424.5889)" class="st37 st13 st14">-5</text>
	</g>
</g>
<g>
	<g>
		<text transform="matrix(1 0 0 1 878.493 466.5149)" class="st37 st13 st14">B06</text>
	</g>
</g>
<g>
	<g>
		<text transform="matrix(1 0 0 1 889.9094 466.5149)" class="st37 st13 st14">-1</text>
	</g>
</g>
<g>
	<g>
		<text transform="matrix(1 0 0 1 136.4599 194.9537)" class="st37 st13 st14">G82</text>
	</g>
</g>
<g>
	<g>
		<text transform="matrix(1 0 0 1 148.4599 194.9537)" class="st37 st13 st14">-12</text>
	</g>
</g>
<g>
	<g>
		<text transform="matrix(1 0 0 1 136.0078 424.3668)" class="st37 st13 st14">G02</text>
	</g>
</g>
<g>
	<g>
		<text transform="matrix(1 0 0 1 148.4599 424.3668)" class="st37 st13 st14">-5</text>
	</g>
</g>
<g>
	<g>
		<text transform="matrix(1 0 0 1 135.7929 467.7213)" class="st37 st13 st14">G02</text>
	</g>
</g>
<g>
	<g>
		<text transform="matrix(1 0 0 1 148.1298 467.7218)" class="st37 st13 st14">-3</text>
	</g>
</g>
<g>
	<g>
		<text transform="matrix(1 0 0 1 174.6691 467.7213)" class="st37 st13 st14">G02</text>
	</g>
</g>
<g>
	<g>
		<text transform="matrix(1 0 0 1 187.006 467.7218)" class="st37 st13 st14">-1</text>
	</g>
</g>
<g>
	<g>
		<text transform="matrix(1 0 0 1 221.465 467.7213)" class="st37 st13 st14">G02</text>
	</g>
</g>
<g>
	<g>
		<text transform="matrix(1 0 0 1 233.8019 467.7218)" class="st37 st13 st14">-2</text>
	</g>
</g>
<g>
	<g>
		<text transform="matrix(1 0 0 1 287.0426 467.7213)" class="st37 st13 st14">G64(G)</text>
	</g>
</g>
<g>
	<g>
		<text transform="matrix(1 0 0 1 308.3686 467.7213)" class="st37 st13 st14">-56</text>
	</g>
</g>
<g>
	<g>
		<text transform="matrix(1 0 0 1 333.9513 467.7213)" class="st37 st13 st14">G64(G)</text>
	</g>
</g>
<g>
	<g>
		<text transform="matrix(1 0 0 1 355.2773 467.7213)" class="st37 st13 st14">-57</text>
	</g>
</g>
<g>
	<g>
		<text transform="matrix(1 0 0 1 437.5342 467.7213)" class="st37 st13 st14">KG64(E)</text>
	</g>
</g>
<g>
	<g>
		<text transform="matrix(1 0 0 1 462.7842 467.7213)" class="st37 st13 st14">-20</text>
	</g>
</g>
<g>
	<g>
		<text transform="matrix(1 0 0 1 487.6927 467.7213)" class="st37 st13 st14">BG64(B)</text>
	</g>
</g>
<g>
	<g>
		<text transform="matrix(1 0 0 1 512.795 467.7213)" class="st37 st13 st14">-43</text>
	</g>
</g>
<g>
	<g>
		<text transform="matrix(1 0 0 1 542.6842 468.2668)" class="st37 st13 st14">G64(G)</text>
	</g>
</g>
<g>
	<g>
		<text transform="matrix(1 0 0 1 563.8737 468.2668)" class="st37 st13 st14">-25</text>
	</g>
</g>
<g>
	<g>
		<text transform="matrix(1 0 0 1 590.5729 604.2792)" class="st37 st13 st14">GaG04</text>
	</g>
</g>
<g>
	<g>
		<text transform="matrix(1 0 0 1 611.1621 604.2792)" class="st37 st13 st14">-5</text>
	</g>
</g>
<g>
	<g>
		<text transform="matrix(1 0 0 1 591.7654 468.2668)" class="st37 st13 st14">G64(G)</text>
	</g>
</g>
<g>
	<g>
		<text transform="matrix(1 0 0 1 612.9551 468.2668)" class="st37 st13 st14">-26</text>
	</g>
</g>
<g>
	<g>
		<text transform="matrix(1 0 0 1 590.0897 648.1454)" class="st37 st13 st14">GaG04</text>
	</g>
</g>
<g>
	<g>
		<text transform="matrix(1 0 0 1 610.6371 648.1454)" class="st37 st13 st14">-3</text>
	</g>
</g>
<g>
	<g>
		<text transform="matrix(1 0 0 1 384.5902 467.7213)" class="st37 st13 st14">KG64(E)</text>
	</g>
</g>
<g>
	<g>
		<text transform="matrix(1 0 0 1 409.8402 467.7213)" class="st37 st13 st14">-8</text>
	</g>
</g>
<g>
	<g>
		<g>
			<text transform="matrix(1 0 0 1 423.7733 782.5965)" class="st37 st13 st14">Ek02</text>
		</g>
	</g>
</g>
<g>
	<g>
		<g>
			<text transform="matrix(1 0 0 1 473.9543 782.5965)" class="st37 st13 st14">Eb01</text>
		</g>
	</g>
</g>
<g>
	<g>
		<g>
			<text transform="matrix(1 0 0 1 370.9438 782.5965)" class="st37 st13 st14">Ek01</text>
		</g>
	</g>
</g>
<g>
	<g id="FB103_5_">
		<g>
			<g id="FB103_6_">
				<g>
					<g>
						<text transform="matrix(1 0 0 1 857.9208 445.3789)" class="st37 st13 st14">Right front combination light</text>
					</g>
				</g>
			</g>
		</g>
	</g>
</g>
<g>
	<g id="FB103_1_">
		<g>
			<g id="FB103_2_">
				<g>
					<g>
						<text transform="matrix(1 0 0 1 559.3123 625.4583)" class="st37 st13 st14">Three-in-one sensor</text>
					</g>
				</g>
			</g>
		</g>
	</g>
</g>
<g>
	<g>
		<text transform="matrix(1 0 0 1 221.6804 424.3463)" class="st37 st13 st14">G02</text>
	</g>
</g>
<g>
	<g>
		<text transform="matrix(1 0 0 1 233.9304 424.3469)" class="st37 st13 st14">-4</text>
	</g>
</g>
<g>
	<g>
		<text transform="matrix(1 0 0 1 286.9409 424.3464)" class="st37 st13 st14">G64(G)</text>
	</g>
</g>
<g>
	<text transform="matrix(1 0 0 1 439.1538 295.9625)" class="st37 st13 st14">BJG01</text>
</g>
<g>
	<text transform="matrix(1 0 0 1 439.1538 303.1627)" class="st37 st13 st14">GJB01</text>
</g>
<g>
	<text transform="matrix(1 0 0 1 458.0288 303.1627)" class="st37 st13 st14">-15</text>
</g>
<g>
	<text transform="matrix(1 0 0 1 438.4521 194.8317)" class="st37 st13 st14">B1D</text>
</g>
<g>
	<text transform="matrix(1 0 0 1 451.0146 194.8317)" class="st37 st13 st14">-9</text>
</g>
<g>
	<text transform="matrix(1 0 0 1 437.8916 424.5885)" class="st37 st13 st14">G64(G)</text>
</g>
<g>
	<text transform="matrix(1 0 0 1 459.5791 424.5885)" class="st37 st13 st14">-11</text>
</g>
<g>
	<g>
		<text transform="matrix(1 0 0 1 436.8896 151.6227)" class="st37 st13 st14">F1/12</text>
	</g>
</g>
<g>
	<text transform="matrix(1 0 0 1 364.8372 425.0032)" class="st37 st13 st14">-1</text>
</g>
<g>
	<text transform="matrix(1 0 0 1 338.8841 424.5886)" class="st37 st13 st14">BG64(A)</text>
</g>
<g>
	<g>
		<g>
			<text transform="matrix(1 0 0 1 615.8077 730.4313)" class="st37 st13 st14">-6</text>
		</g>
	</g>
</g>
<text transform="matrix(1 0 0 1 472.2048 153.0967)" class="st37 st13 st14">Front compartment fuse box</text>
</svg>
