<?xml version="1.0" encoding="utf-8"?>
<!-- Generator: Adobe Illustrator 24.0.1, SVG Export Plug-In . SVG Version: 6.00 Build 0)  -->
<svg version="1.1" id="图层_1" xmlns="http://www.w3.org/2000/svg" xmlns:xlink="http://www.w3.org/1999/xlink" x="0px" y="0px"
	 viewBox="0 0 587.4 841.9" style="enable-background:new 0 0 587.4 841.9;" xml:space="preserve">
<style type="text/css">
	.st0{fill:#DCDDDD;}
	.st1{fill:none;stroke:#000000;stroke-width:0.5;}
	.st2{fill:none;stroke:#000000;}
	.st3{font-family:'FZLTHJW--GB1-0';}
	.st4{font-size:6px;}
	.st5{fill:none;stroke:#E60012;stroke-width:3;stroke-miterlimit:10;}
	.st6{fill:none;stroke:#FFFFFF;stroke-miterlimit:10;}
	.st7{fill:none;stroke:#FFF100;stroke-miterlimit:10;}
	.st8{fill:none;stroke:#009944;stroke-miterlimit:10;}
	.st9{fill:none;stroke:#000000;stroke-width:3;stroke-miterlimit:10;}
	.st10{fill:#FFFFFF;}
	.st11{fill:none;stroke:#000000;stroke-width:0.6001;stroke-linecap:round;stroke-linejoin:round;}
	.st12{fill:none;stroke:#000000;stroke-width:0.6001;stroke-linecap:round;}
	.st13{fill:none;stroke:#000000;stroke-width:0.72;stroke-linecap:round;stroke-linejoin:round;}
	.st14{fill:#9FD9F6;stroke:#000000;stroke-width:0.5;stroke-linecap:round;stroke-miterlimit:10;}
	.st15{fill:#DCDDDD;stroke:#000000;stroke-width:0.5;stroke-miterlimit:10;}
	.st16{fill:none;stroke:#040000;stroke-width:0.75;}
	.st17{fill:none;stroke:#000000;stroke-width:0.6;stroke-linecap:round;stroke-linejoin:round;}
	.st18{stroke:#FFFFFF;stroke-width:0.5;stroke-linecap:round;}
	.st19{fill:none;stroke:#FFFFFF;stroke-width:1.0001;}
	.st20{fill:#FFFFFF;stroke:#000000;stroke-width:0.25;}
	.st21{stroke:#FFFFFF;stroke-width:0.5;}
	.st22{font-size:4px;}
	.st23{fill:none;stroke:#000000;stroke-width:3;stroke-linecap:round;stroke-miterlimit:10;}
	.st24{fill:none;stroke:#040000;stroke-width:0.6;stroke-linecap:round;stroke-linejoin:round;}
	.st25{fill:none;stroke:#040000;stroke-width:0.72;stroke-linecap:round;stroke-linejoin:round;}
	.st26{fill:none;stroke:#040000;stroke-width:1.3;}
	.st27{fill:#FFFFFF;stroke:#040000;stroke-width:0.25;stroke-linecap:round;stroke-linejoin:round;}
	.st28{fill:none;stroke:#000000;stroke-width:1.3;}
	.st29{fill:#FFFFFF;stroke:#000000;stroke-width:0.25;stroke-linecap:round;stroke-linejoin:round;}
	.st30{fill:#005EAD;}
</style>
<polyline class="st0" points="39.2,41.9 549.4,41.9 549.4,88.1 39.2,88.1 "/>
<g>
	<line class="st1" x1="39.2" y1="47.6" x2="549.4" y2="47.6"/>
	<line class="st2" x1="39.2" y1="41.6" x2="549.4" y2="41.6"/>
	<path class="st2" d="M572.4,59.3"/>
	<path class="st2" d="M38.2,59.3"/>
	<line class="st1" x1="39.2" y1="58.9" x2="549.4" y2="58.9"/>
	<line class="st1" x1="39.2" y1="70.6" x2="549.4" y2="70.6"/>
	<line class="st1" x1="39.2" y1="82.3" x2="549.4" y2="82.3"/>
	<line class="st2" x1="39.2" y1="88.1" x2="549.4" y2="88.1"/>
</g>
<text transform="matrix(1 0 0 1 553.5185 49.6299)" class="st3 st4">30</text>
<text transform="matrix(1 0 0 1 553.5185 60.7959)" class="st3 st4">IG1</text>
<text transform="matrix(1 0 0 1 553.5185 72.4209)" class="st3 st4">IG3</text>
<text transform="matrix(1 0 0 1 553.5185 83.9248)" class="st3 st4">ACC</text>
<text transform="matrix(1 0 0 1 28.537 49.7119)" class="st3 st4">30</text>
<text transform="matrix(1 0 0 1 25.373 60.8779)" class="st3 st4">IG1</text>
<text transform="matrix(1 0 0 1 25.4198 72.5029)" class="st3 st4">IG3</text>
<text transform="matrix(1 0 0 1 21.8808 84.0029)" class="st3 st4">ACC</text>
<g id="FB55">
</g>
<line class="st5" x1="324.5" y1="277.7" x2="324.5" y2="409.5"/>
<line class="st6" x1="324.5" y1="277.7" x2="324.5" y2="409.5"/>
<line class="st5" x1="379.5" y1="277.7" x2="379.5" y2="409.5"/>
<line class="st7" x1="379.5" y1="277.7" x2="379.5" y2="409.5"/>
<line class="st5" x1="434.3" y1="277.7" x2="434.3" y2="409.5"/>
<line class="st8" x1="434.3" y1="277.7" x2="434.3" y2="409.5"/>
<line class="st9" x1="489.4" y1="277.7" x2="489.4" y2="409.5"/>
<line class="st5" x1="269.8" y1="206.5" x2="269.8" y2="409.2"/>
<line class="st5" x1="103.5" y1="206.5" x2="103.5" y2="408.9"/>
<line class="st6" x1="103.5" y1="206.5" x2="103.5" y2="408.9"/>
<g>
	<rect x="99.4" y="350.6" class="st10" width="8.5" height="18.8"/>
	<g>
		<g>
			<line class="st11" x1="103.8" y1="360.8" x2="103.8" y2="369"/>
		</g>
		<g>
			<line class="st12" x1="103.6" y1="357.6" x2="103.6" y2="351.1"/>
		</g>
		<g>
			<g>
				<g>
					<path class="st10" d="M103.7,357.7c1.7,0,3.2,1.4,3.2,3.2c0,1.8-1.5,3.2-3.2,3.2c-1.8,0-3.2-1.4-3.2-3.2
						S101.9,357.7,103.7,357.7z"/>
					<path d="M103.7,357.1c2,0,3.7,1.8,3.7,3.8h-1.1c0-1.4-1.1-2.5-2.5-2.5c-1.5,0-2.7,1.1-2.7,2.5H100
						C99.9,358.9,101.5,357.1,103.7,357.1L103.7,357.1z M107.4,360.9h-1.1c0,1.4-1.1,2.5-2.5,2.5c-1.5,0-2.7-1.1-2.7-2.5H100
						c0,2.2,1.6,3.8,3.8,3.8C105.7,364.7,107.4,363,107.4,360.9z"/>
				</g>
				<rect x="99.4" y="361" class="st10" width="8.5" height="4.1"/>
				<rect x="103.3" y="360" width="1" height="4.2"/>
				<rect x="103.3" y="360" class="st13" width="1" height="4.2"/>
			</g>
		</g>
	</g>
</g>
<g>
	<rect x="99.4" y="249.9" class="st10" width="8.5" height="18.8"/>
	<g>
		<g>
			<line class="st11" x1="103.5" y1="258.7" x2="103.5" y2="250.4"/>
		</g>
		<g>
			<line class="st12" x1="103.6" y1="261.8" x2="103.6" y2="268.3"/>
		</g>
		<g>
			<g>
				<g>
					<path class="st10" d="M103.6,261.7c-1.7,0-3.2-1.4-3.2-3.2c0-1.8,1.5-3.2,3.2-3.2c1.8,0,3.2,1.4,3.2,3.2
						C106.8,260.3,105.4,261.7,103.6,261.7z"/>
					<path d="M103.6,262.3c-2,0-3.7-1.8-3.7-3.8h1.1c0,1.4,1.1,2.5,2.5,2.5c1.5,0,2.7-1.1,2.7-2.5h1.1
						C107.4,260.6,105.7,262.3,103.6,262.3L103.6,262.3z M99.9,258.5h1.1c0-1.4,1.1-2.5,2.5-2.5c1.5,0,2.7,1.1,2.7,2.5h1.1
						c0-2.2-1.6-3.8-3.8-3.8C101.5,254.7,99.9,256.4,99.9,258.5z"/>
				</g>
				<rect x="99.4" y="254.3" class="st10" width="8.5" height="4.1"/>
				<rect x="102.9" y="255.2" width="1" height="4.2"/>
				<rect x="102.9" y="255.2" class="st13" width="1" height="4.2"/>
			</g>
		</g>
	</g>
</g>
<g id="REB_x2C_A3_2_">
	<rect x="85" y="420.5" class="st14" width="120.4" height="28.1"/>
</g>
<g id="REB_x2C_A3_5_">
	<rect x="305.1" y="237" class="st14" width="212.7" height="31.4"/>
</g>
<g id="REB_x2C_A3_3_">
	<rect x="81.4" y="139.7" class="st15" width="48.4" height="56.3"/>
</g>
<g id="RF22_x2C_A3_1_">
	<g>
		<g>
			<path class="st16" d="M103.4,171c-1.2,0-2.2,1-2.2,2.2s1,2.2,2.2,2.2s2.2-1,2.2-2.2C105.7,172,104.7,171,103.4,171"/>
		</g>
		<g>
			<path class="st16" d="M103.4,155.2c-1.2,0-2.2,1-2.2,2.1c0,1.2,1,2.2,2.2,2.2s2.2-0.9,2.2-2.2
				C105.7,156.2,104.7,155.2,103.4,155.2"/>
		</g>
		<g>
			<path class="st16" d="M101.9,159c-0.1,2.5,0.2,3.2,1.3,4.3c1.2,1.2,2.4,1.7,2.8,3.7c0.4,1.6-0.1,3.5-1.1,4.5"/>
		</g>
		<g>
			<path class="st16" d="M104.8,171.6c0.2-0.8,0-2.9-0.6-3.7c-0.9-1.2-2.7-2.1-3.3-4c-0.9-2.8,0.7-4.6,1.1-5"/>
		</g>
	</g>
</g>
<g>
	<g>
		<polyline class="st17" points="103.4,175.4 103.4,179.4 103.4,196 		"/>
	</g>
</g>
<g>
	<g>
		<polyline class="st17" points="103.4,154.9 103.4,150.8 103.4,60 		"/>
	</g>
</g>
<g>
	<g>
		<line class="st17" x1="103.4" y1="204.5" x2="103.4" y2="196.2"/>
	</g>
	<g>
		<path class="st10" d="M103.5,207.5c-1.7,0-3-1.4-3-3c0-1.8,1.4-3.2,3-3.2c1.8,0,3.2,1.4,3.2,3.2
			C106.7,206.1,105.3,207.5,103.5,207.5z"/>
		<path d="M103.5,208.2c-2,0-3.7-1.6-3.7-3.7c0-2.2,1.7-3.8,3.7-3.8v1.1c-1.4,0-2.5,1.1-2.5,2.7c0,1.4,1.1,2.5,2.5,2.5V208.2
			L103.5,208.2z M103.5,200.7v1.1c1.5,0,2.7,1.1,2.7,2.7c0,1.4-1.1,2.5-2.7,2.5v1.1c2.2,0,3.8-1.6,3.8-3.7
			C107.3,202.3,105.7,200.7,103.5,200.7z"/>
	</g>
	<rect x="99.3" y="200.3" class="st10" width="8.5" height="4.1"/>
	<rect x="102.9" y="201.2" width="1" height="4.2"/>
	<rect x="102.9" y="201.2" class="st13" width="1" height="4.2"/>
</g>
<g>
	<g>
		<line class="st17" x1="103.8" y1="412.1" x2="103.8" y2="420.4"/>
	</g>
	<g>
		<path class="st10" d="M103.7,409.1c1.7,0,3,1.4,3,3c0,1.8-1.4,3.2-3,3.2c-1.8,0-3.2-1.4-3.2-3.2
			C100.5,410.5,101.9,409.1,103.7,409.1z"/>
		<path d="M103.7,408.4c2,0,3.7,1.7,3.7,3.7c0,2.2-1.7,3.8-3.7,3.8v-1.1c1.4,0,2.5-1.1,2.5-2.7c0-1.4-1.1-2.5-2.5-2.5V408.4
			L103.7,408.4z M103.7,415.9v-1.1c-1.5,0-2.7-1.1-2.7-2.7c0-1.4,1.1-2.5,2.7-2.5v-1.1c-2.2,0-3.8,1.7-3.8,3.7
			C99.9,414.3,101.5,415.9,103.7,415.9z"/>
	</g>
	<rect x="99.3" y="412.2" class="st10" width="8.5" height="4.1"/>
	<rect x="103.3" y="411.2" width="1" height="4.2"/>
	<rect x="103.3" y="411.2" class="st13" width="1" height="4.2"/>
</g>
<g>
	<path class="st18" d="M100.3,58.4c0.2-1.5,1.4-2.5,2.8-2.5c1.6,0,2.9,1.2,2.9,2.9c0,1.6-1.4,2.9-3.2,2.7
		C101.3,61.3,100.1,59.9,100.3,58.4z"/>
	<g>
		<path class="st19" d="M100.3,58.7c0-1.7,1.3-2.9,2.8-2.9c1.6,0,2.9,1.2,2.9,2.9c0,1.5-1.3,2.7-2.9,2.7
			C101.6,61.5,100.3,60.2,100.3,58.7"/>
	</g>
</g>
<rect x="97.2" y="382" class="st10" width="12.7" height="6"/>
<rect x="97.3" y="382" class="st10" width="12.5" height="6"/>
<g>
	<text transform="matrix(1 0 0 1 89.4916 386.936)" class="st3 st4">R/W 0.35</text>
</g>
<rect x="97.2" y="331.8" class="st10" width="12.7" height="6"/>
<rect x="97.3" y="331.8" class="st10" width="12.5" height="6"/>
<g>
	<text transform="matrix(1 0 0 1 89.4916 336.759)" class="st3 st4">R/W 0.35</text>
</g>
<rect x="97.2" y="285.3" class="st10" width="12.7" height="6"/>
<rect x="97.3" y="285.3" class="st10" width="12.5" height="6"/>
<g>
	<text transform="matrix(1 0 0 1 89.4916 290.2434)" class="st3 st4">R/W 0.35</text>
</g>
<rect x="97.2" y="227.6" class="st10" width="12.7" height="6"/>
<rect x="97.3" y="227.6" class="st10" width="12.5" height="6"/>
<g>
	<text transform="matrix(1 0 0 1 89.4916 232.568)" class="st3 st4">R/W 0.35</text>
</g>
<g>
	<g>
		<text transform="matrix(1 0 0 1 107.7714 170.5938)" class="st3 st4">7.5A</text>
	</g>
</g>
<g id="接地">
</g>
<rect x="110" y="310.4" class="st20" width="26.3" height="5.6"/>
<text transform="matrix(1 0 0 1 110.7313 315.2917)" class="st3 st4">SP4695</text>
<path class="st21" d="M106.4,313.3c0,1.7-1.3,2.9-2.8,2.9c-1.6,0-2.9-1.2-2.9-2.9c0-1.5,1.3-2.7,2.9-2.7
	C105.1,310.5,106.4,311.8,106.4,313.3z"/>
<line class="st5" x1="182.5" y1="206.5" x2="182.5" y2="408.9"/>
<line class="st8" x1="182.5" y1="206.5" x2="182.5" y2="408.9"/>
<g>
	<rect x="178.4" y="350.6" class="st10" width="8.5" height="18.8"/>
	<g>
		<g>
			<line class="st11" x1="182.8" y1="360.8" x2="182.8" y2="369"/>
		</g>
		<g>
			<line class="st12" x1="182.6" y1="357.6" x2="182.6" y2="351.1"/>
		</g>
		<g>
			<g>
				<g>
					<path class="st10" d="M182.7,357.7c1.7,0,3.2,1.4,3.2,3.2c0,1.8-1.5,3.2-3.2,3.2c-1.8,0-3.2-1.4-3.2-3.2
						S180.9,357.7,182.7,357.7z"/>
					<path d="M182.7,357.1c2,0,3.7,1.8,3.7,3.8h-1.1c0-1.4-1.1-2.5-2.5-2.5c-1.5,0-2.7,1.1-2.7,2.5H179
						C178.9,358.9,180.5,357.1,182.7,357.1L182.7,357.1z M186.4,360.9h-1.1c0,1.4-1.1,2.5-2.5,2.5c-1.5,0-2.7-1.1-2.7-2.5H179
						c0,2.2,1.6,3.8,3.8,3.8C184.7,364.7,186.4,363,186.4,360.9z"/>
				</g>
				<rect x="178.4" y="361" class="st10" width="8.5" height="4.1"/>
				<rect x="182.3" y="360" width="1" height="4.2"/>
				<rect x="182.3" y="360" class="st13" width="1" height="4.2"/>
			</g>
		</g>
	</g>
</g>
<g id="REB_x2C_A3_4_">
	<rect x="160.4" y="139.7" class="st15" width="48.4" height="56.3"/>
</g>
<g id="RF22_x2C_A3_2_">
	<g>
		<g>
			<path class="st16" d="M182.4,171c-1.2,0-2.2,1-2.2,2.2s1,2.2,2.2,2.2s2.2-1,2.2-2.2C184.7,172,183.7,171,182.4,171"/>
		</g>
		<g>
			<path class="st16" d="M182.4,155.2c-1.2,0-2.2,1-2.2,2.1c0,1.2,1,2.2,2.2,2.2s2.2-0.9,2.2-2.2
				C184.7,156.2,183.7,155.2,182.4,155.2"/>
		</g>
		<g>
			<path class="st16" d="M180.9,159c-0.1,2.5,0.2,3.2,1.3,4.3c1.2,1.2,2.4,1.7,2.8,3.7c0.4,1.6-0.1,3.5-1.1,4.5"/>
		</g>
		<g>
			<path class="st16" d="M183.8,171.6c0.2-0.8,0-2.9-0.6-3.7c-0.9-1.2-2.7-2.1-3.3-4c-0.9-2.8,0.7-4.6,1.1-5"/>
		</g>
	</g>
</g>
<g>
	<g>
		<polyline class="st17" points="182.4,175.4 182.4,179.4 182.4,196 		"/>
	</g>
</g>
<g>
	<g>
		<polyline class="st17" points="182.4,154.9 182.4,150.8 182.4,49 		"/>
	</g>
</g>
<g>
	<g>
		<line class="st17" x1="182.4" y1="204.5" x2="182.4" y2="196.2"/>
	</g>
	<g>
		<path class="st10" d="M182.5,207.5c-1.7,0-3-1.4-3-3c0-1.8,1.4-3.2,3-3.2c1.8,0,3.2,1.4,3.2,3.2
			C185.7,206.1,184.3,207.5,182.5,207.5z"/>
		<path d="M182.5,208.2c-2,0-3.7-1.6-3.7-3.7c0-2.2,1.7-3.8,3.7-3.8v1.1c-1.4,0-2.5,1.1-2.5,2.7c0,1.4,1.1,2.5,2.5,2.5V208.2
			L182.5,208.2z M182.5,200.7v1.1c1.5,0,2.7,1.1,2.7,2.7c0,1.4-1.1,2.5-2.7,2.5v1.1c2.2,0,3.8-1.6,3.8-3.7
			C186.3,202.3,184.7,200.7,182.5,200.7z"/>
	</g>
	<rect x="178.3" y="200.3" class="st10" width="8.5" height="4.1"/>
	<rect x="181.9" y="201.2" width="1" height="4.2"/>
	<rect x="181.9" y="201.2" class="st13" width="1" height="4.2"/>
</g>
<g>
	<g>
		<line class="st17" x1="182.8" y1="412.1" x2="182.8" y2="420.4"/>
	</g>
	<g>
		<path class="st10" d="M182.7,409.1c1.7,0,3,1.4,3,3c0,1.8-1.4,3.2-3,3.2c-1.8,0-3.2-1.4-3.2-3.2
			C179.5,410.5,180.9,409.1,182.7,409.1z"/>
		<path d="M182.7,408.4c2,0,3.7,1.7,3.7,3.7c0,2.2-1.7,3.8-3.7,3.8v-1.1c1.4,0,2.5-1.1,2.5-2.7c0-1.4-1.1-2.5-2.5-2.5V408.4
			L182.7,408.4z M182.7,415.9v-1.1c-1.5,0-2.7-1.1-2.7-2.7c0-1.4,1.1-2.5,2.7-2.5v-1.1c-2.2,0-3.8,1.7-3.8,3.7
			C178.9,414.3,180.5,415.9,182.7,415.9z"/>
	</g>
	<rect x="178.3" y="412.2" class="st10" width="8.5" height="4.1"/>
	<rect x="182.3" y="411.2" width="1" height="4.2"/>
	<rect x="182.3" y="411.2" class="st13" width="1" height="4.2"/>
</g>
<g>
	<g>
		<line class="st17" x1="269.9" y1="412.1" x2="269.9" y2="420.4"/>
	</g>
	<g>
		<path class="st10" d="M269.8,409.1c1.7,0,3,1.4,3,3c0,1.8-1.4,3.2-3,3.2c-1.8,0-3.2-1.4-3.2-3.2
			C266.7,410.5,268.1,409.1,269.8,409.1z"/>
		<path d="M269.8,408.4c2,0,3.7,1.7,3.7,3.7c0,2.2-1.7,3.8-3.7,3.8v-1.1c1.4,0,2.5-1.1,2.5-2.7c0-1.4-1.1-2.5-2.5-2.5V408.4
			L269.8,408.4z M269.8,415.9v-1.1c-1.5,0-2.7-1.1-2.7-2.7c0-1.4,1.1-2.5,2.7-2.5v-1.1c-2.2,0-3.8,1.7-3.8,3.7
			C266,414.3,267.7,415.9,269.8,415.9z"/>
	</g>
	<rect x="265.5" y="412.2" class="st10" width="8.5" height="4.1"/>
	<rect x="269.5" y="411.2" width="1" height="4.2"/>
	<rect x="269.5" y="411.2" class="st13" width="1" height="4.2"/>
</g>
<g>
	<g>
		<line class="st17" x1="324.7" y1="412.1" x2="324.7" y2="420.4"/>
	</g>
	<g>
		<path class="st10" d="M324.6,409.1c1.7,0,3,1.4,3,3c0,1.8-1.4,3.2-3,3.2c-1.8,0-3.2-1.4-3.2-3.2
			C321.4,410.5,322.8,409.1,324.6,409.1z"/>
		<path d="M324.6,408.4c2,0,3.7,1.7,3.7,3.7c0,2.2-1.7,3.8-3.7,3.8v-1.1c1.4,0,2.5-1.1,2.5-2.7c0-1.4-1.1-2.5-2.5-2.5V408.4
			L324.6,408.4z M324.6,415.9v-1.1c-1.5,0-2.7-1.1-2.7-2.7c0-1.4,1.1-2.5,2.7-2.5v-1.1c-2.2,0-3.8,1.7-3.8,3.7
			C320.8,414.3,322.4,415.9,324.6,415.9z"/>
	</g>
	<rect x="320.3" y="412.2" class="st10" width="8.5" height="4.1"/>
	<rect x="324.2" y="411.2" width="1" height="4.2"/>
	<rect x="324.2" y="411.2" class="st13" width="1" height="4.2"/>
</g>
<g>
	<g>
		<line class="st17" x1="379.7" y1="412.1" x2="379.7" y2="420.4"/>
	</g>
	<g>
		<path class="st10" d="M379.6,409.1c1.7,0,3,1.4,3,3c0,1.8-1.4,3.2-3,3.2c-1.8,0-3.2-1.4-3.2-3.2
			C376.5,410.5,377.9,409.1,379.6,409.1z"/>
		<path d="M379.6,408.4c2,0,3.7,1.7,3.7,3.7c0,2.2-1.7,3.8-3.7,3.8v-1.1c1.4,0,2.5-1.1,2.5-2.7c0-1.4-1.1-2.5-2.5-2.5V408.4
			L379.6,408.4z M379.6,415.9v-1.1c-1.5,0-2.7-1.1-2.7-2.7c0-1.4,1.1-2.5,2.7-2.5v-1.1c-2.2,0-3.8,1.7-3.8,3.7
			C375.8,414.3,377.5,415.9,379.6,415.9z"/>
	</g>
	<rect x="375.3" y="412.2" class="st10" width="8.5" height="4.1"/>
	<rect x="379.3" y="411.2" width="1" height="4.2"/>
	<rect x="379.3" y="411.2" class="st13" width="1" height="4.2"/>
</g>
<g>
	<g>
		<line class="st17" x1="434.4" y1="412.1" x2="434.4" y2="420.4"/>
	</g>
	<g>
		<path class="st10" d="M434.3,409.1c1.7,0,3,1.4,3,3c0,1.8-1.4,3.2-3,3.2c-1.8,0-3.2-1.4-3.2-3.2
			C431.2,410.5,432.6,409.1,434.3,409.1z"/>
		<path d="M434.3,408.4c2,0,3.7,1.7,3.7,3.7c0,2.2-1.7,3.8-3.7,3.8v-1.1c1.4,0,2.5-1.1,2.5-2.7c0-1.4-1.1-2.5-2.5-2.5V408.4
			L434.3,408.4z M434.3,415.9v-1.1c-1.5,0-2.7-1.1-2.7-2.7c0-1.4,1.1-2.5,2.7-2.5v-1.1c-2.2,0-3.8,1.7-3.8,3.7
			C430.5,414.3,432.2,415.9,434.3,415.9z"/>
	</g>
	<rect x="430" y="412.2" class="st10" width="8.5" height="4.1"/>
	<rect x="434" y="411.2" width="1" height="4.2"/>
	<rect x="434" y="411.2" class="st13" width="1" height="4.2"/>
</g>
<g>
	<g>
		<line class="st17" x1="489.5" y1="412.1" x2="489.5" y2="420.4"/>
	</g>
	<g>
		<path class="st10" d="M489.4,409.1c1.7,0,3,1.4,3,3c0,1.8-1.4,3.2-3,3.2c-1.8,0-3.2-1.4-3.2-3.2
			C486.3,410.5,487.7,409.1,489.4,409.1z"/>
		<path d="M489.4,408.4c2,0,3.7,1.7,3.7,3.7c0,2.2-1.7,3.8-3.7,3.8v-1.1c1.4,0,2.5-1.1,2.5-2.7c0-1.4-1.1-2.5-2.5-2.5V408.4
			L489.4,408.4z M489.4,415.9v-1.1c-1.5,0-2.7-1.1-2.7-2.7c0-1.4,1.1-2.5,2.7-2.5v-1.1c-2.2,0-3.8,1.7-3.8,3.7
			C485.6,414.3,487.3,415.9,489.4,415.9z"/>
	</g>
	<rect x="485.1" y="412.2" class="st10" width="8.5" height="4.1"/>
	<rect x="489.1" y="411.2" width="1" height="4.2"/>
	<rect x="489.1" y="411.2" class="st13" width="1" height="4.2"/>
</g>
<g>
	<path class="st18" d="M179.3,47.4c0.2-1.5,1.4-2.5,2.8-2.5c1.6,0,2.9,1.2,2.9,2.9c0,1.6-1.4,2.9-3.2,2.7
		C180.3,50.3,179.1,48.9,179.3,47.4z"/>
	<g>
		<path class="st19" d="M179.3,47.7c0-1.7,1.3-2.9,2.8-2.9c1.6,0,2.9,1.2,2.9,2.9c0,1.5-1.3,2.7-2.9,2.7
			C180.6,50.5,179.3,49.2,179.3,47.7"/>
	</g>
</g>
<rect x="176.2" y="382" class="st10" width="12.7" height="6"/>
<rect x="176.3" y="382" class="st10" width="12.5" height="6"/>
<g>
	<text transform="matrix(1 0 0 1 168.4916 386.936)" class="st3 st4">R/G 0.35</text>
</g>
<rect x="176.2" y="331.8" class="st10" width="12.7" height="6"/>
<rect x="176.3" y="331.8" class="st10" width="12.5" height="6"/>
<g>
	<text transform="matrix(1 0 0 1 168.4916 336.759)" class="st3 st4">R/G 0.35</text>
</g>
<rect x="318.2" y="331.8" class="st10" width="12.7" height="6"/>
<rect x="318.3" y="331.8" class="st10" width="12.5" height="6"/>
<g>
	<text transform="matrix(1 0 0 1 310.9817 336.759)" class="st3 st4">R/W 0.35</text>
</g>
<rect x="176.2" y="227.6" class="st10" width="12.7" height="6"/>
<rect x="176.3" y="227.6" class="st10" width="12.5" height="6"/>
<g>
	<text transform="matrix(1 0 0 1 168.4916 232.568)" class="st3 st4">R/G 0.35</text>
</g>
<g>
	<g>
		<line class="st17" x1="324.4" y1="276.8" x2="324.4" y2="268.6"/>
	</g>
	<g>
		<path class="st10" d="M324.5,279.9c-1.7,0-3-1.4-3-3c0-1.8,1.4-3.2,3-3.2c1.8,0,3.2,1.4,3.2,3.2
			C327.6,278.5,326.2,279.9,324.5,279.9z"/>
		<path d="M324.5,280.5c-2,0-3.7-1.6-3.7-3.7c0-2.2,1.7-3.8,3.7-3.8v1.1c-1.4,0-2.5,1.1-2.5,2.7c0,1.4,1.1,2.5,2.5,2.5V280.5
			L324.5,280.5z M324.5,273v1.1c1.5,0,2.7,1.1,2.7,2.7c0,1.4-1.1,2.5-2.7,2.5v1.1c2.2,0,3.8-1.6,3.8-3.7
			C328.3,274.7,326.6,273,324.5,273z"/>
	</g>
	<rect x="320.3" y="272.7" class="st10" width="8.5" height="4.1"/>
	<rect x="323.8" y="273.5" width="1" height="4.2"/>
	<rect x="323.8" y="273.5" class="st13" width="1" height="4.2"/>
</g>
<g>
	<g>
		<line class="st17" x1="379.3" y1="276.8" x2="379.3" y2="268.6"/>
	</g>
	<g>
		<path class="st10" d="M379.4,279.9c-1.7,0-3-1.4-3-3c0-1.8,1.4-3.2,3-3.2c1.8,0,3.2,1.4,3.2,3.2
			C382.6,278.5,381.2,279.9,379.4,279.9z"/>
		<path d="M379.4,280.5c-2,0-3.7-1.6-3.7-3.7c0-2.2,1.7-3.8,3.7-3.8v1.1c-1.4,0-2.5,1.1-2.5,2.7c0,1.4,1.1,2.5,2.5,2.5V280.5
			L379.4,280.5z M379.4,273v1.1c1.5,0,2.7,1.1,2.7,2.7c0,1.4-1.1,2.5-2.7,2.5v1.1c2.2,0,3.8-1.6,3.8-3.7
			C383.2,274.7,381.6,273,379.4,273z"/>
	</g>
	<rect x="375.2" y="272.7" class="st10" width="8.5" height="4.1"/>
	<rect x="378.8" y="273.5" width="1" height="4.2"/>
	<rect x="378.8" y="273.5" class="st13" width="1" height="4.2"/>
</g>
<g>
	<g>
		<line class="st17" x1="434.1" y1="276.8" x2="434.1" y2="268.6"/>
	</g>
	<g>
		<path class="st10" d="M434.2,279.9c-1.7,0-3-1.4-3-3c0-1.8,1.4-3.2,3-3.2c1.8,0,3.2,1.4,3.2,3.2
			C437.4,278.5,436,279.9,434.2,279.9z"/>
		<path d="M434.2,280.5c-2,0-3.7-1.6-3.7-3.7c0-2.2,1.7-3.8,3.7-3.8v1.1c-1.4,0-2.5,1.1-2.5,2.7c0,1.4,1.1,2.5,2.5,2.5V280.5
			L434.2,280.5z M434.2,273v1.1c1.5,0,2.7,1.1,2.7,2.7c0,1.4-1.1,2.5-2.7,2.5v1.1c2.2,0,3.8-1.6,3.8-3.7
			C438,274.7,436.4,273,434.2,273z"/>
	</g>
	<rect x="430" y="272.7" class="st10" width="8.5" height="4.1"/>
	<rect x="433.6" y="273.5" width="1" height="4.2"/>
	<rect x="433.6" y="273.5" class="st13" width="1" height="4.2"/>
</g>
<g>
	<g>
		<line class="st17" x1="489.2" y1="276.8" x2="489.2" y2="268.6"/>
	</g>
	<g>
		<path class="st10" d="M489.3,279.9c-1.7,0-3-1.4-3-3c0-1.8,1.4-3.2,3-3.2c1.8,0,3.2,1.4,3.2,3.2
			C492.5,278.5,491.1,279.9,489.3,279.9z"/>
		<path d="M489.3,280.5c-2,0-3.7-1.6-3.7-3.7c0-2.2,1.7-3.8,3.7-3.8v1.1c-1.4,0-2.5,1.1-2.5,2.7c0,1.4,1.1,2.5,2.5,2.5V280.5
			L489.3,280.5z M489.3,273v1.1c1.5,0,2.7,1.1,2.7,2.7c0,1.4-1.1,2.5-2.7,2.5v1.1c2.2,0,3.8-1.6,3.8-3.7
			C493.1,274.7,491.5,273,489.3,273z"/>
	</g>
	<rect x="485.1" y="272.7" class="st10" width="8.5" height="4.1"/>
	<rect x="488.7" y="273.5" width="1" height="4.2"/>
	<rect x="488.7" y="273.5" class="st13" width="1" height="4.2"/>
</g>
<g>
	<g>
		<text transform="matrix(1 0 0 1 186.7714 170.5938)" class="st3 st4">7.5A</text>
	</g>
</g>
<rect x="189" y="310.4" class="st20" width="24.8" height="5.6"/>
<text transform="matrix(1 0 0 1 189.7313 315.2917)" class="st3 st4">SP4697</text>
<path class="st21" d="M185.4,313.3c0,1.7-1.3,2.9-2.8,2.9c-1.6,0-2.9-1.2-2.9-2.9c0-1.5,1.3-2.7,2.9-2.7
	C184.1,310.5,185.4,311.8,185.4,313.3z"/>
<g id="REB_x2C_A3_6_">
	<rect x="247.7" y="139.7" class="st15" width="48.4" height="56.3"/>
</g>
<g id="RF22_x2C_A3_3_">
	<g>
		<g>
			<path class="st16" d="M269.7,171c-1.2,0-2.2,1-2.2,2.2s1,2.2,2.2,2.2s2.2-1,2.2-2.2C271.9,172,270.9,171,269.7,171"/>
		</g>
		<g>
			<path class="st16" d="M269.7,155.2c-1.2,0-2.2,1-2.2,2.1c0,1.2,1,2.2,2.2,2.2s2.2-0.9,2.2-2.2
				C271.9,156.2,270.9,155.2,269.7,155.2"/>
		</g>
		<g>
			<path class="st16" d="M268.2,159c-0.1,2.5,0.2,3.2,1.3,4.3c1.2,1.2,2.4,1.7,2.8,3.7c0.4,1.6-0.1,3.5-1.1,4.5"/>
		</g>
		<g>
			<path class="st16" d="M271.1,171.6c0.2-0.8,0-2.9-0.6-3.7c-0.9-1.2-2.7-2.1-3.3-4c-0.9-2.8,0.7-4.6,1.1-5"/>
		</g>
	</g>
</g>
<g>
	<g>
		<polyline class="st17" points="269.7,175.4 269.7,179.4 269.7,196 		"/>
	</g>
</g>
<g>
	<g>
		<polyline class="st17" points="269.7,154.9 269.7,150.8 269.7,49 		"/>
	</g>
</g>
<g>
	<g>
		<line class="st17" x1="269.7" y1="204.5" x2="269.7" y2="196.2"/>
	</g>
	<g>
		<path class="st10" d="M269.8,207.5c-1.7,0-3-1.4-3-3c0-1.8,1.4-3.2,3-3.2c1.8,0,3.2,1.4,3.2,3.2
			C273,206.1,271.6,207.5,269.8,207.5z"/>
		<path d="M269.8,208.2c-2,0-3.7-1.6-3.7-3.7c0-2.2,1.7-3.8,3.7-3.8v1.1c-1.4,0-2.5,1.1-2.5,2.7c0,1.4,1.1,2.5,2.5,2.5V208.2
			L269.8,208.2z M269.8,200.7v1.1c1.5,0,2.7,1.1,2.7,2.7c0,1.4-1.1,2.5-2.7,2.5v1.1c2.2,0,3.8-1.6,3.8-3.7
			C273.6,202.3,271.9,200.7,269.8,200.7z"/>
	</g>
	<rect x="265.6" y="200.3" class="st10" width="8.5" height="4.1"/>
	<rect x="269.1" y="201.2" width="1" height="4.2"/>
	<rect x="269.1" y="201.2" class="st13" width="1" height="4.2"/>
</g>
<g>
	<path class="st18" d="M266.6,47.4c0.2-1.5,1.4-2.5,2.8-2.5c1.6,0,2.9,1.2,2.9,2.9c0,1.6-1.4,2.9-3.2,2.7
		C267.6,50.3,266.4,48.9,266.6,47.4z"/>
	<g>
		<path class="st19" d="M266.5,47.7c0-1.7,1.3-2.9,2.8-2.9c1.6,0,2.9,1.2,2.9,2.9c0,1.5-1.3,2.7-2.9,2.7
			C267.8,50.5,266.5,49.2,266.5,47.7"/>
	</g>
</g>
<rect x="263.4" y="382" class="st10" width="12.7" height="6"/>
<rect x="263.5" y="382" class="st10" width="12.5" height="6"/>
<g>
	<text transform="matrix(1 0 0 1 261.986 386.936)" class="st3 st4">R 8.0</text>
</g>
<rect x="263.4" y="227.6" class="st10" width="12.7" height="6"/>
<rect x="263.5" y="227.6" class="st10" width="12.5" height="6"/>
<g>
	<text transform="matrix(1 0 0 1 261.986 232.568)" class="st3 st4">R 8.0</text>
</g>
<g>
	<g>
		<text transform="matrix(1 0 0 1 274.0157 170.5938)" class="st3 st4">100A</text>
	</g>
</g>
<g>
	<g>
		<text transform="matrix(1 0 0 1 96.1525 425.0575)" class="st3 st22">IG1 power supply</text>
	</g>
</g>
<g>
	<g>
		<text transform="matrix(1 0 0 1 99.3483 447.12)" class="st3 st22">Ground</text>
	</g>
</g>
<g>
	<g>
		<text transform="matrix(1 0 0 1 168.3482 425.0575)" class="st3 st22">Constant power</text>
	</g>
</g>
<line class="st23" x1="103.5" y1="459.5" x2="103.5" y2="767.9"/>
<g>
	<line class="st24" x1="103.5" y1="457.1" x2="103.5" y2="448.9"/>
	<path class="st10" d="M103.6,460.2c-1.7,0-3-1.4-3-3c0-1.8,1.4-3.2,3-3.2c1.8,0,3.2,1.4,3.2,3.2
		C106.8,458.8,105.4,460.2,103.6,460.2"/>
	<path d="M103.6,460.8c-2,0-3.7-1.6-3.7-3.7c0-2.2,1.7-3.8,3.7-3.8v1.1c-1.4,0-2.5,1.1-2.5,2.7c0,1.4,1.1,2.5,2.5,2.5V460.8z
		 M103.6,453.3v1.1c1.5,0,2.7,1.1,2.7,2.7c0,1.4-1.1,2.5-2.7,2.5v1.1c2.2,0,3.8-1.6,3.8-3.7C107.4,455,105.8,453.3,103.6,453.3"/>
	<rect x="99.4" y="452.9" class="st10" width="8.5" height="4.1"/>
	<rect x="103" y="453.8" width="1" height="4.2"/>
	<rect x="103" y="453.8" class="st25" width="1" height="4.2"/>
</g>
<g id="GB031_1_">
	<g>
		<g>
			<line class="st26" x1="103.5" y1="766.3" x2="103.5" y2="769"/>
		</g>
		<g>
			<line class="st26" x1="96.5" y1="769" x2="110.3" y2="769"/>
		</g>
		<g>
			<line class="st26" x1="99.3" y1="771.2" x2="107.5" y2="771.2"/>
		</g>
		<g>
			<line class="st26" x1="105.8" y1="773.3" x2="101" y2="773.3"/>
		</g>
	</g>
	<g>
		<rect x="93.1" y="775.8" class="st10" width="20.3" height="8.2"/>
		<rect x="93.4" y="776.2" class="st27" width="19.7" height="7.6"/>
	</g>
</g>
<rect x="97.2" y="702.8" class="st10" width="12.7" height="6"/>
<rect x="110.2" y="578.9" class="st20" width="26.3" height="5.6"/>
<text transform="matrix(1 0 0 1 110.9386 583.7397)" class="st3 st4">SP4870</text>
<path class="st21" d="M106.6,581.7c0,1.7-1.3,2.9-2.8,2.9c-1.6,0-2.9-1.2-2.9-2.9c0-1.5,1.3-2.7,2.9-2.7
	C105.3,579,106.6,580.2,106.6,581.7z"/>
<path class="st14" d="M522.9,448.7H248.6v-28.2h274.3c0,0-6.2,8.3,0,14.1C529.1,440.4,522.9,448.7,522.9,448.7"/>
<path class="st14" d="M522.9,448.7H248.6v-28.2h274.3c0,0-6.2,8.3,0,14.1C529.1,440.4,522.9,448.7,522.9,448.7z"/>
<rect x="373.1" y="331.8" class="st10" width="12.7" height="6"/>
<rect x="373.2" y="331.8" class="st10" width="12.5" height="6"/>
<g>
	<text transform="matrix(1 0 0 1 366.8515 336.759)" class="st3 st4">R/Y 0.35</text>
</g>
<rect x="427.9" y="331.8" class="st10" width="12.7" height="6"/>
<rect x="428" y="331.8" class="st10" width="12.5" height="6"/>
<g>
	<text transform="matrix(1 0 0 1 421.2951 336.759)" class="st3 st4">R/G 0.35</text>
</g>
<rect x="483" y="331.8" class="st10" width="12.7" height="6"/>
<rect x="483.1" y="331.8" class="st10" width="12.5" height="6"/>
<g>
	<text transform="matrix(1 0 0 1 479.9901 336.759)" class="st3 st4">B 0.35</text>
</g>
<g>
	<g>
		<text transform="matrix(1 0 0 1 266.3839 425.0575)" class="st3 st22">Constant power</text>
	</g>
</g>
<g>
	<g>
		<text transform="matrix(1 0 0 1 309.7534 425.0575)" class="st3 st22">Inside rearview mirror </text>
		<text transform="matrix(1 0 0 1 309.7534 429.8575)" class="st3 st22">anti-dazzle drive+</text>
	</g>
</g>
<g>
	<g>
		<text transform="matrix(1 0 0 1 368.7117 425.0575)" class="st3 st22">Rear light intensity </text>
		<text transform="matrix(1 0 0 1 368.7117 429.8575)" class="st3 st22">sensor power supply</text>
	</g>
</g>
<g>
	<g>
		<text transform="matrix(1 0 0 1 423.8367 425.0575)" class="st3 st22">Rear light intensity </text>
		<text transform="matrix(1 0 0 1 423.8367 429.8575)" class="st3 st22">sensor signal</text>
	</g>
</g>
<g>
	<g>
		<text transform="matrix(1 0 0 1 484.6155 425.0575)" class="st3 st22">Ground</text>
	</g>
</g>
<g>
	<g>
		<text transform="matrix(1 0 0 1 309.7534 260.8573)" class="st3 st22">Inside rearview mirror </text>
		<text transform="matrix(1 0 0 1 309.7534 265.6573)" class="st3 st22">anti-dazzle drive+</text>
	</g>
</g>
<g>
	<g>
		<text transform="matrix(1 0 0 1 361.4859 260.8572)" class="st3 st22">Rear light intensity </text>
		<text transform="matrix(1 0 0 1 361.4859 265.6572)" class="st3 st22">sensor power supply</text>
	</g>
</g>
<g>
	<g>
		<text transform="matrix(1 0 0 1 416.6109 261.8572)" class="st3 st22">Rear light intensity </text>
		<text transform="matrix(1 0 0 1 416.6109 266.6572)" class="st3 st22">sensor signal</text>
	</g>
</g>
<g>
	<g>
		<text transform="matrix(1 0 0 1 484.6155 265.8573)" class="st3 st22">Ground</text>
	</g>
</g>
<line class="st9" x1="325.5" y1="459.9" x2="325.5" y2="769"/>
<g>
	<line class="st17" x1="325.5" y1="457.1" x2="325.5" y2="448.9"/>
	<path class="st10" d="M325.6,460.2c-1.7,0-3-1.4-3-3c0-1.8,1.4-3.2,3-3.2c1.8,0,3.2,1.4,3.2,3.2
		C328.8,458.8,327.4,460.2,325.6,460.2"/>
	<path d="M325.6,460.8c-2,0-3.7-1.6-3.7-3.7c0-2.2,1.7-3.8,3.7-3.8v1.1c-1.4,0-2.5,1.1-2.5,2.7c0,1.4,1.1,2.5,2.5,2.5V460.8z
		 M325.6,453.3v1.1c1.5,0,2.7,1.1,2.7,2.7c0,1.4-1.1,2.5-2.7,2.5v1.1c2.2,0,3.8-1.6,3.8-3.7C329.4,455,327.8,453.3,325.6,453.3"/>
	<rect x="321.4" y="452.9" class="st10" width="8.5" height="4.1"/>
	<rect x="325" y="453.8" width="1" height="4.2"/>
	<rect x="325" y="453.8" class="st13" width="1" height="4.2"/>
</g>
<line class="st23" x1="379" y1="459.9" x2="379" y2="768.1"/>
<g>
	<line class="st17" x1="379.1" y1="457.1" x2="379.1" y2="448.9"/>
	<path class="st10" d="M379.2,460.2c-1.6,0-3-1.4-3-3c0-1.8,1.4-3.2,3-3.2c1.8,0,3.2,1.4,3.2,3.2C382.4,458.8,381,460.2,379.2,460.2
		"/>
	<path d="M379.2,460.8c-2,0-3.7-1.6-3.7-3.7c0-2.2,1.7-3.8,3.7-3.8v1.1c-1.4,0-2.5,1.1-2.5,2.7c0,1.4,1.1,2.5,2.5,2.5V460.8z
		 M379.2,453.3v1.1c1.5,0,2.7,1.1,2.7,2.7c0,1.4-1.1,2.5-2.7,2.5v1.1c2.2,0,3.8-1.6,3.8-3.7C383,455,381.4,453.3,379.2,453.3"/>
	<rect x="375" y="452.9" class="st10" width="8.5" height="4.1"/>
	<rect x="378.6" y="453.8" width="1" height="4.2"/>
	<rect x="378.6" y="453.8" class="st13" width="1" height="4.2"/>
</g>
<g id="GB031_14_">
	<g>
		<g>
			<line class="st28" x1="325.5" y1="766.3" x2="325.5" y2="769"/>
		</g>
		<g>
			<line class="st28" x1="318.5" y1="769" x2="332.3" y2="769"/>
		</g>
		<g>
			<line class="st28" x1="321.3" y1="771.2" x2="329.5" y2="771.2"/>
		</g>
		<g>
			<line class="st28" x1="327.8" y1="773.3" x2="323" y2="773.3"/>
		</g>
	</g>
	<g>
		<rect x="315.1" y="775.8" class="st10" width="20.3" height="8.2"/>
		<rect x="315.4" y="776.2" class="st29" width="19.7" height="7.6"/>
	</g>
</g>
<g id="GB031_4_">
	<g>
		<g>
			<line class="st28" x1="379.1" y1="766.3" x2="379.1" y2="769"/>
		</g>
		<g>
			<line class="st28" x1="372.1" y1="769" x2="385.9" y2="769"/>
		</g>
		<g>
			<line class="st28" x1="374.9" y1="771.2" x2="383.1" y2="771.2"/>
		</g>
		<g>
			<line class="st28" x1="381.4" y1="773.3" x2="376.6" y2="773.3"/>
		</g>
	</g>
	<g>
		<rect x="368.7" y="775.8" class="st10" width="20.3" height="8.2"/>
		<rect x="369" y="776.2" class="st29" width="19.7" height="7.6"/>
	</g>
</g>
<line class="st23" x1="269.2" y1="460.4" x2="269.2" y2="767.9"/>
<rect x="262.9" y="479" class="st10" width="12.5" height="6"/>
<text transform="matrix(1 0 0 1 261.6472 484.123)" class="st3 st4">B 1.5</text>
<rect x="319.2" y="479" class="st10" width="12.5" height="6"/>
<text transform="matrix(1 0 0 1 317.9499 484.123)" class="st3 st4">B 1.5</text>
<rect x="372.7" y="479" class="st10" width="12.5" height="6"/>
<text transform="matrix(1 0 0 1 371.9589 484.123)" class="st3 st4">B 2.5</text>
<rect x="262.9" y="702.8" class="st10" width="12.5" height="6"/>
<text transform="matrix(1 0 0 1 261.6472 707.964)" class="st3 st4">B 1.5</text>
<rect x="319.2" y="702.8" class="st10" width="12.5" height="6"/>
<text transform="matrix(1 0 0 1 317.9499 707.964)" class="st3 st4">B 1.5</text>
<rect x="372.7" y="702.8" class="st10" width="12.5" height="6"/>
<text transform="matrix(1 0 0 1 371.9589 707.964)" class="st3 st4">B 2.5</text>
<g>
	<line class="st17" x1="269.3" y1="457" x2="269.3" y2="448.8"/>
	<path class="st10" d="M269.4,460.1c-1.6,0-3-1.4-3-3c0-1.8,1.4-3.2,3-3.2c1.8,0,3.2,1.4,3.2,3.2
		C272.6,458.7,271.2,460.1,269.4,460.1"/>
	<path d="M269.4,460.7c-2,0-3.7-1.6-3.7-3.7c0-2.2,1.7-3.8,3.7-3.8v1.1c-1.4,0-2.5,1.1-2.5,2.7c0,1.4,1.1,2.5,2.5,2.5V460.7z
		 M269.4,453.2v1.1c1.5,0,2.7,1.1,2.7,2.7c0,1.4-1.1,2.5-2.7,2.5v1.1c2.2,0,3.8-1.6,3.8-3.7C273.2,454.9,271.6,453.2,269.4,453.2"/>
	<rect x="265.2" y="452.8" class="st10" width="8.5" height="4.1"/>
	<rect x="268.8" y="453.7" width="1" height="4.2"/>
	<rect x="268.8" y="453.7" class="st13" width="1" height="4.2"/>
</g>
<g id="GB031_8_">
	<g>
		<g>
			<line class="st28" x1="269.4" y1="766.3" x2="269.4" y2="769"/>
		</g>
		<g>
			<line class="st28" x1="262.4" y1="769" x2="276.2" y2="769"/>
		</g>
		<g>
			<line class="st28" x1="265.2" y1="771.2" x2="273.4" y2="771.2"/>
		</g>
		<g>
			<line class="st28" x1="271.7" y1="773.3" x2="266.9" y2="773.3"/>
		</g>
	</g>
	<g>
		<rect x="259" y="775.8" class="st10" width="20.3" height="8.2"/>
		<rect x="259.3" y="776.2" class="st29" width="19.7" height="7.6"/>
	</g>
</g>
<g>
	<text transform="matrix(1 0 0 1 257.1743 446.5365)" class="st3 st22">Power ground 1</text>
</g>
<g>
	<text transform="matrix(1 0 0 1 314.2351 446.5365)" class="st3 st22">Power ground 2</text>
</g>
<g>
	<text transform="matrix(1 0 0 1 366.3655 446.5365)" class="st3 st22">Power ground 3</text>
</g>
<g>
	<text transform="matrix(1 0 0 1 94.147 707.7769)" class="st3 st4">B 0.35</text>
</g>
<rect x="97.2" y="479" class="st10" width="12.7" height="6"/>
<g>
	<text transform="matrix(1 0 0 1 94.147 483.936)" class="st3 st4">B 0.35</text>
</g>
<g>
	<text transform="matrix(1 0 0 1 108.099 163.9756)" class="st30 st3 st4">F1/37</text>
</g>
<g>
	<text transform="matrix(1 0 0 1 14.5086 132.979)" class="st30 st3 st4">Front compartment fuse box</text>
</g>
<g>
	<text transform="matrix(1 0 0 1 187.099 163.9756)" class="st30 st3 st4">F2/11</text>
</g>
<g>
	<text transform="matrix(1 0 0 1 189.7314 132.979)" class="st30 st3 st4">Instrument fuse box</text>
</g>
<g>
	<text transform="matrix(1 0 0 1 274.3433 163.9756)" class="st30 st3 st4">F4/05</text>
</g>
<g>
	<text transform="matrix(1 0 0 1 275.3998 132.979)" class="st30 st3 st4">Positive fuse box</text>
</g>
<g>
	<text transform="matrix(1 0 0 1 109.2099 359.168)" class="st30 st3 st4">GJP01</text>
</g>
<g>
	<text transform="matrix(1 0 0 1 109.2099 366.3682)" class="st30 st3 st4">PJG01</text>
</g>
<g>
	<text transform="matrix(1 0 0 1 128.5434 366.3682)" class="st30 st3 st4">-14</text>
</g>
<g>
	<text transform="matrix(1 0 0 1 109.2099 258.454)" class="st30 st3 st4">BJG01</text>
</g>
<g>
	<text transform="matrix(1 0 0 1 109.2099 265.6542)" class="st30 st3 st4">GJB01</text>
</g>
<g>
	<text transform="matrix(1 0 0 1 128.5434 265.6542)" class="st30 st3 st4">-10</text>
</g>
<g>
	<text transform="matrix(1 0 0 1 130.9908 436.4189)" class="st30 st3 st4">ETC module</text>
</g>
<g>
	<text transform="matrix(1 0 0 1 107.7187 203.2333)" class="st30 st3 st4">B1C</text>
</g>
<g>
	<text transform="matrix(1 0 0 1 120.8437 203.2333)" class="st30 st3 st4">-11</text>
</g>
<g>
	<text transform="matrix(1 0 0 1 109.0614 417.4921)" class="st30 st3 st4">P15</text>
</g>
<g>
	<text transform="matrix(1 0 0 1 120.8437 417.4921)" class="st30 st3 st4">-1</text>
</g>
<g>
	<text transform="matrix(1 0 0 1 109.0614 456.2021)" class="st30 st3 st4">P15</text>
</g>
<g>
	<text transform="matrix(1 0 0 1 120.4779 456.2021)" class="st30 st3 st4">-3</text>
</g>
<g>
	<text transform="matrix(1 0 0 1 188.2099 359.168)" class="st30 st3 st4">GJP01</text>
</g>
<g>
	<text transform="matrix(1 0 0 1 188.2099 366.3682)" class="st30 st3 st4">PJG01</text>
</g>
<g>
	<text transform="matrix(1 0 0 1 207.5434 366.3682)" class="st30 st3 st4">-23</text>
</g>
<g>
	<text transform="matrix(1 0 0 1 186.7187 203.2333)" class="st30 st3 st4">G82</text>
</g>
<g>
	<text transform="matrix(1 0 0 1 199.0937 203.2333)" class="st30 st3 st4">-12</text>
</g>
<g>
	<text transform="matrix(1 0 0 1 328.6479 275.6104)" class="st30 st3 st4">P02</text>
</g>
<g>
	<text transform="matrix(1 0 0 1 339.5893 275.6104)" class="st30 st3 st4">-1</text>
</g>
<g>
	<text transform="matrix(1 0 0 1 383.5922 275.6104)" class="st30 st3 st4">P02</text>
</g>
<g>
	<text transform="matrix(1 0 0 1 394.5336 275.6104)" class="st30 st3 st4">-2</text>
</g>
<g>
	<text transform="matrix(1 0 0 1 438.3871 275.6104)" class="st30 st3 st4">P02</text>
</g>
<g>
	<text transform="matrix(1 0 0 1 449.3285 275.6104)" class="st30 st3 st4">-3</text>
</g>
<g>
	<text transform="matrix(1 0 0 1 493.497 275.6104)" class="st30 st3 st4">P02</text>
</g>
<g>
	<text transform="matrix(1 0 0 1 504.4389 275.6104)" class="st30 st3 st4">-5</text>
</g>
<g>
	<text transform="matrix(1 0 0 1 188.0614 417.4921)" class="st30 st3 st4">P15</text>
</g>
<g>
	<text transform="matrix(1 0 0 1 199.8437 417.4921)" class="st30 st3 st4">-2</text>
</g>
<g>
	<text transform="matrix(1 0 0 1 273.9628 203.2333)" class="st30 st3 st4">B46_5</text>
</g>
<g>
	<text transform="matrix(1 0 0 1 293.3378 203.2333)" class="st30 st3 st4">-1</text>
</g>
<g>
	<text transform="matrix(1 0 0 1 274.8114 417.4921)" class="st30 st3 st4">BG86(A)</text>
</g>
<g>
	<text transform="matrix(1 0 0 1 299.9989 417.4921)" class="st30 st3 st4">-1</text>
</g>
<g>
	<text transform="matrix(1 0 0 1 329.7558 417.4921)" class="st30 st3 st4">PG86(C)</text>
</g>
<g>
	<text transform="matrix(1 0 0 1 355.6308 417.4921)" class="st30 st3 st4">-2</text>
</g>
<g>
	<text transform="matrix(1 0 0 1 384.7006 417.4921)" class="st30 st3 st4">PG86(C)</text>
</g>
<g>
	<text transform="matrix(1 0 0 1 410.5756 417.4921)" class="st30 st3 st4">-17</text>
</g>
<g>
	<text transform="matrix(1 0 0 1 439.6454 417.4921)" class="st30 st3 st4">PG86(C)</text>
</g>
<g>
	<text transform="matrix(1 0 0 1 465.5204 417.4921)" class="st30 st3 st4">-23</text>
</g>
<g>
	<text transform="matrix(1 0 0 1 494.8051 417.4921)" class="st30 st3 st4">PG86(C)</text>
</g>
<g>
	<text transform="matrix(1 0 0 1 520.6801 417.4921)" class="st30 st3 st4">-31</text>
</g>
<g>
	<text transform="matrix(1 0 0 1 354.4575 249.6998)" class="st30 st3 st4">Electronic anti-dazzle inside rearview mirror</text>
</g>
<g>
	<text transform="matrix(1 0 0 1 368.6982 439.7847)" class="st30 st3 st4">Right domain control module</text>
</g>
<g>
	<text transform="matrix(1 0 0 1 331.5194 457.1865)" class="st30 st3 st4">BG86(B)</text>
</g>
<g>
	<text transform="matrix(1 0 0 1 356.7694 457.1865)" class="st30 st3 st4">-43</text>
</g>
<g>
	<text transform="matrix(1 0 0 1 385.0717 457.1865)" class="st30 st3 st4">KG86(D)</text>
</g>
<g>
	<text transform="matrix(1 0 0 1 410.1967 457.1865)" class="st30 st3 st4">-1</text>
</g>
<g>
	<text transform="matrix(1 0 0 1 275.2729 457.1865)" class="st30 st3 st4">BG86(B)</text>
</g>
<g>
	<text transform="matrix(1 0 0 1 300.5229 457.1865)" class="st30 st3 st4">-1</text>
</g>
<g>
	<g>
		<g>
			<g>
				<text transform="matrix(1 0 0 1 317.7584 782.0466)" class="st30 st3 st4">Eb08</text>
			</g>
		</g>
	</g>
</g>
<g>
	<g>
		<g>
			<g>
				<text transform="matrix(1 0 0 1 371.3334 782.0466)" class="st30 st3 st4">Ek11</text>
			</g>
		</g>
	</g>
</g>
<g>
	<g>
		<g>
			<g>
				<text transform="matrix(1 0 0 1 261.6264 782.0466)" class="st30 st3 st4">Eb04</text>
			</g>
		</g>
	</g>
</g>
<g>
	<g>
		<g>
			<text transform="matrix(1 0 0 1 95.7229 782.0021)" class="st30 st3 st4">Ep01</text>
		</g>
	</g>
</g>
</svg>
