<?xml version="1.0" encoding="utf-8"?>
<!-- Generator: Adobe Illustrator 24.0.1, SVG Export Plug-In . SVG Version: 6.00 Build 0)  -->
<svg version="1.1" id="图层_1" xmlns="http://www.w3.org/2000/svg" xmlns:xlink="http://www.w3.org/1999/xlink" x="0px" y="0px"
	 viewBox="0 0 1853.9 841.9" style="enable-background:new 0 0 1853.9 841.9;" xml:space="preserve">
<style type="text/css">
	.st0{fill:#DCDDDD;}
	.st1{fill:none;stroke:#000000;stroke-width:0.5;}
	.st2{fill:none;stroke:#000000;}
	.st3{font-family:'FZLTHJW--GB1-0';}
	.st4{font-size:6px;}
	.st5{fill:#DCDDDD;stroke:#000000;stroke-width:0.5;stroke-linecap:round;stroke-miterlimit:10;}
	.st6{fill:none;stroke:#009944;stroke-width:3;}
	.st7{fill:none;stroke:#FFF100;}
	.st8{fill:none;stroke:#000000;stroke-width:3;stroke-linecap:round;stroke-miterlimit:10;}
	.st9{fill:none;stroke:#189343;stroke-width:3;stroke-linecap:round;stroke-miterlimit:10;}
	.st10{fill:none;stroke:#FFF100;stroke-linecap:round;stroke-miterlimit:10;}
	.st11{fill:none;stroke:#D71718;stroke-width:3;}
	.st12{fill:none;stroke:#065AA1;}
	.st13{fill:none;stroke:#E60012;stroke-width:3;stroke-linecap:round;stroke-miterlimit:10;}
	.st14{fill:#FFFFFF;stroke:#000000;stroke-width:0.25;}
	.st15{stroke:#FFFFFF;stroke-width:0.5;}
	.st16{fill:none;stroke:#040000;stroke-width:0.75;}
	.st17{fill:none;stroke:#000000;stroke-width:0.6;stroke-linecap:round;stroke-linejoin:round;}
	.st18{fill:#FFFFFF;}
	.st19{fill:none;stroke:#000000;stroke-width:0.72;stroke-linecap:round;stroke-linejoin:round;}
	.st20{stroke:#FFFFFF;stroke-width:0.5;stroke-linecap:round;}
	.st21{fill:none;stroke:#FFFFFF;stroke-width:1.0001;}
	.st22{fill:none;stroke:#E60012;stroke-width:3;stroke-miterlimit:10;}
	.st23{fill:none;stroke:#F29C97;stroke-width:3;stroke-linecap:round;stroke-miterlimit:10;}
	.st24{fill:none;stroke:#89438F;stroke-width:3;stroke-linecap:round;stroke-miterlimit:10;}
	.st25{fill:none;stroke:#000000;stroke-width:0.5;stroke-miterlimit:10;}
	.st26{fill:none;stroke:#000000;stroke-width:0.6001;stroke-linecap:round;stroke-linejoin:round;}
	.st27{fill:none;stroke:#000000;stroke-width:0.6001;stroke-linecap:round;}
	.st28{fill:none;stroke:#000000;stroke-width:1.3;}
	.st29{fill:#FFFFFF;stroke:#000000;stroke-width:0.25;stroke-linecap:round;stroke-linejoin:round;}
	.st30{fill:none;stroke:#FFFFFF;stroke-linecap:round;stroke-miterlimit:10;}
	.st31{fill:none;stroke:#D71718;stroke-width:3;stroke-miterlimit:10;}
	.st32{fill:none;stroke:#005EAD;}
	.st33{fill:none;stroke:#065AA1;stroke-miterlimit:10;}
	.st34{fill:#9FD9F6;stroke:#000000;stroke-width:0.5;stroke-linecap:round;stroke-miterlimit:10;}
	.st35{font-size:4px;}
	.st36{fill:none;stroke:#000000;stroke-width:0.5;stroke-linecap:round;stroke-linejoin:round;}
	.st37{fill:#005EAD;}
	.st38{enable-background:new    ;}
</style>
<polyline class="st0" points="36.9,41.9 1818.1,41.9 1818.1,88.1 36.9,88.1 "/>
<g>
	<line class="st1" x1="36.9" y1="47.6" x2="1818.1" y2="47.6"/>
	<line class="st2" x1="36.9" y1="41.6" x2="1818.1" y2="41.6"/>
	<path class="st2" d="M36.2,59.3"/>
	<line class="st1" x1="36.9" y1="58.9" x2="1818.1" y2="58.9"/>
	<line class="st1" x1="36.9" y1="70.6" x2="1818.1" y2="70.6"/>
	<line class="st1" x1="36.9" y1="82.3" x2="1818.1" y2="82.3"/>
	<line class="st2" x1="36.9" y1="88.1" x2="1818.1" y2="88.1"/>
</g>
<g>
	<text transform="matrix(1 0 0 1 1819.3403 50.4619)" class="st3 st4">30</text>
	<text transform="matrix(1 0 0 1 1819.3403 61.6279)" class="st3 st4">IG1</text>
	<text transform="matrix(1 0 0 1 1819.3403 73.2529)" class="st3 st4">IG3</text>
	<text transform="matrix(1 0 0 1 1819.3403 84.7529)" class="st3 st4">ACC</text>
</g>
<g id="REB_x2C_A3_3_">
	<rect x="181.1" y="139.7" class="st5" width="47.7" height="56.3"/>
</g>
<g id="FB55">
</g>
<text transform="matrix(1 0 0 1 27.5624 49.9215)" class="st3 st4">30</text>
<text transform="matrix(1 0 0 1 24.3983 61.0876)" class="st3 st4">IG1</text>
<text transform="matrix(1 0 0 1 24.4452 72.7126)" class="st3 st4">IG3</text>
<text transform="matrix(1 0 0 1 20.9061 84.2126)" class="st3 st4">ACC</text>
<polyline class="st6" points="1461.7,376.6 1461.7,124 281.8,124 281.8,378 "/>
<polyline class="st7" points="1461.7,376.6 1461.7,124 281.8,124 281.8,378 "/>
<polyline class="st6" points="1297.7,376.8 1297.7,326 1298.1,326 1462.1,326 "/>
<polyline class="st7" points="1297.7,376.8 1297.7,326 1298.1,326 1462.1,326 "/>
<polyline class="st8" points="1404.6,428.8 1404.5,495.8 1240.9,495.8 "/>
<polyline class="st9" points="822.6,428.8 822.7,645.8 1143,645.8 "/>
<polyline class="st10" points="822.6,428.8 822.7,645.8 1143,645.8 "/>
<polyline class="st9" points="962.6,428.8 962.6,645.8 1061.4,645.8 1143.5,645.8 "/>
<polyline class="st10" points="962.6,428.8 962.6,645.8 1061.4,645.8 1143.5,645.8 "/>
<polyline class="st8" points="905.6,428.8 905.5,592.8 765.6,592.8 "/>
<line class="st11" x1="613" y1="376.7" x2="613" y2="220.1"/>
<line class="st12" x1="613" y1="376.7" x2="613" y2="220.1"/>
<polyline class="st8" points="670.6,428.8 670.6,592.8 539.3,592.8 "/>
<line class="st13" x1="199.9" y1="206.8" x2="199.9" y2="376.8"/>
<line class="st13" x1="199.9" y1="206.8" x2="199.9" y2="376.8"/>
<line class="st10" x1="199.9" y1="206.8" x2="199.9" y2="376.8"/>
<line class="st10" x1="199.9" y1="206.8" x2="199.9" y2="376.8"/>
<rect x="206.3" y="325.6" class="st14" width="25.3" height="5.6"/>
<text transform="matrix(1 0 0 1 207.0563 330.4606)" class="st3 st4">SP6005</text>
<path class="st15" d="M202.9,328.4c0,1.7-1.3,2.9-2.8,2.9c-1.6,0-2.9-1.2-2.9-2.9c0-1.5,1.3-2.7,2.9-2.7
	C201.6,325.7,202.9,326.9,202.9,328.4z"/>
<rect x="206.3" y="237.4" class="st14" width="25.3" height="5.6"/>
<text transform="matrix(1 0 0 1 207.0563 242.2705)" class="st3 st4">SP4915</text>
<path class="st15" d="M202.9,240.3c0,1.7-1.3,2.9-2.8,2.9c-1.6,0-2.9-1.2-2.9-2.9c0-1.5,1.3-2.7,2.9-2.7
	C201.6,237.5,202.9,238.7,202.9,240.3z"/>
<g id="RF22_x2C_A3_2_">
	<g>
		<g>
			<path class="st16" d="M199.7,171c-1.2,0-2.2,1-2.2,2.2s1,2.2,2.2,2.2s2.2-1,2.2-2.2C202,172,201,171,199.7,171"/>
		</g>
		<g>
			<path class="st16" d="M199.7,155.2c-1.2,0-2.2,1-2.2,2.1c0,1.2,1,2.2,2.2,2.2s2.2-0.9,2.2-2.2C202,156.2,201,155.2,199.7,155.2"
				/>
		</g>
		<g>
			<path class="st16" d="M198.3,159c-0.1,2.5,0.2,3.2,1.3,4.3c1.2,1.2,2.4,1.7,2.8,3.7c0.4,1.6-0.1,3.5-1.1,4.5"/>
		</g>
		<g>
			<path class="st16" d="M201.2,171.6c0.2-0.8,0-2.9-0.6-3.7c-0.9-1.2-2.7-2.1-3.3-4c-0.9-2.8,0.7-4.6,1.1-5"/>
		</g>
	</g>
</g>
<g>
	<g>
		<polyline class="st17" points="199.7,175.4 199.7,193 199.7,195.9 		"/>
	</g>
</g>
<g>
	<g>
		<polyline class="st17" points="199.7,154.9 199.7,150.8 199.7,71 		"/>
	</g>
</g>
<g>
	<g>
		<line class="st17" x1="199.8" y1="204.5" x2="199.8" y2="196.2"/>
	</g>
	<g>
		<path class="st18" d="M199.9,207.5c-1.7,0-3-1.4-3-3c0-1.8,1.4-3.2,3-3.2c1.8,0,3.2,1.4,3.2,3.2
			C203,206.1,201.6,207.5,199.9,207.5z"/>
		<path d="M199.9,208.2c-2,0-3.7-1.6-3.7-3.7c0-2.2,1.7-3.8,3.7-3.8v1.1c-1.4,0-2.5,1.1-2.5,2.7c0,1.4,1.1,2.5,2.5,2.5V208.2
			L199.9,208.2z M199.9,200.7v1.1c1.5,0,2.7,1.1,2.7,2.7c0,1.4-1.1,2.5-2.7,2.5v1.1c2.2,0,3.8-1.6,3.8-3.7
			C203.7,202.3,202,200.7,199.9,200.7z"/>
	</g>
	<rect x="195.7" y="200.3" class="st18" width="8.5" height="4.1"/>
	<rect x="199.2" y="201.2" width="1" height="4.2"/>
	<rect x="199.2" y="201.2" class="st19" width="1" height="4.2"/>
</g>
<g>
	<g>
		<line class="st17" x1="200.1" y1="378.8" x2="200.1" y2="387"/>
	</g>
	<g>
		<path class="st18" d="M200,375.7c1.7,0,3,1.4,3,3c0,1.8-1.4,3.2-3,3.2c-1.8,0-3.2-1.4-3.2-3.2C196.8,377.1,198.2,375.7,200,375.7z
			"/>
		<path d="M200,375.1c2,0,3.7,1.7,3.7,3.7c0,2.2-1.7,3.8-3.7,3.8v-1.1c1.4,0,2.5-1.1,2.5-2.7c0-1.4-1.1-2.5-2.5-2.5V375.1L200,375.1
			z M200,382.6v-1.1c-1.5,0-2.7-1.1-2.7-2.7c0-1.4,1.1-2.5,2.7-2.5v-1.1c-2.2,0-3.8,1.7-3.8,3.7S197.8,382.6,200,382.6z"/>
	</g>
	<rect x="195.7" y="378.9" class="st18" width="8.5" height="4.1"/>
	<rect x="199.6" y="377.9" width="1" height="4.2"/>
	<rect x="199.6" y="377.9" class="st19" width="1" height="4.2"/>
</g>
<rect x="193.6" y="219.5" class="st18" width="12.5" height="6"/>
<g>
	<text transform="matrix(1 0 0 1 187.2392 224.2762)" class="st3 st4">R/Y 0.35</text>
</g>
<rect x="193.6" y="256.7" class="st18" width="12.5" height="6"/>
<g>
	<text transform="matrix(1 0 0 1 187.2392 261.5391)" class="st3 st4">R/Y 0.35</text>
</g>
<rect x="193.6" y="307" class="st18" width="12.5" height="6"/>
<g>
	<text transform="matrix(1 0 0 1 187.2392 311.7826)" class="st3 st4">R/Y 0.35</text>
</g>
<rect x="193.6" y="350" class="st18" width="12.5" height="6"/>
<g>
	<text transform="matrix(1 0 0 1 187.2392 355.0488)" class="st3 st4">R/Y 0.35</text>
</g>
<g>
	<path class="st20" d="M196.6,70.7c0-1.7,1.3-2.9,2.8-2.9c1.6,0,2.9,1.2,2.9,2.9c0,1.5-1.3,2.7-2.9,2.7
		C197.9,73.5,196.6,72.2,196.6,70.7z"/>
	<g>
		<path class="st21" d="M196.6,70.7c0-1.7,1.3-2.9,2.8-2.9c1.6,0,2.9,1.2,2.9,2.9c0,1.5-1.3,2.7-2.9,2.7
			C197.9,73.5,196.6,72.2,196.6,70.7"/>
	</g>
</g>
<g>
	<g>
		<text transform="matrix(1 0 0 1 204.0972 170.5938)" class="st3 st4">7.5A</text>
	</g>
</g>
<g id="REB_x2C_A3_1_">
	<rect x="74.4" y="139.7" class="st5" width="48.4" height="56.3"/>
</g>
<g id="RF22_x2C_A3_7_">
	<g>
		<g>
			<path class="st16" d="M96.4,171c-1.2,0-2.2,1-2.2,2.2s1,2.2,2.2,2.2s2.2-1,2.2-2.2S97.6,171,96.4,171"/>
		</g>
		<g>
			<path class="st16" d="M96.4,155.2c-1.2,0-2.2,1-2.2,2.1c0,1.2,1,2.2,2.2,2.2s2.2-0.9,2.2-2.2C98.6,156.2,97.6,155.2,96.4,155.2"
				/>
		</g>
		<g>
			<path class="st16" d="M94.9,159c-0.1,2.5,0.2,3.2,1.3,4.3c1.2,1.2,2.4,1.7,2.8,3.7c0.4,1.6-0.1,3.5-1.1,4.5"/>
		</g>
		<g>
			<path class="st16" d="M97.8,171.6c0.2-0.8,0-2.9-0.6-3.7c-0.9-1.2-2.7-2.1-3.3-4c-0.9-2.8,0.7-4.6,1.1-5"/>
		</g>
	</g>
</g>
<line class="st22" x1="96.5" y1="204.5" x2="96.5" y2="376.8"/>
<line class="st22" x1="96.5" y1="204.5" x2="96.5" y2="376.8"/>
<g>
	<g>
		<polyline class="st17" points="96.4,175.4 96.4,179.4 96.4,196 		"/>
	</g>
</g>
<g>
	<g>
		<polyline class="st17" points="96.4,154.9 96.4,150.8 96.4,48 		"/>
	</g>
</g>
<g>
	<g>
		<line class="st17" x1="96.4" y1="204.5" x2="96.4" y2="196.2"/>
	</g>
	<g>
		<path class="st18" d="M96.5,207.5c-1.7,0-3-1.4-3-3c0-1.8,1.4-3.2,3-3.2c1.8,0,3.2,1.4,3.2,3.2C99.7,206.1,98.3,207.5,96.5,207.5z
			"/>
		<path d="M96.5,208.2c-2,0-3.7-1.6-3.7-3.7c0-2.2,1.7-3.8,3.7-3.8v1.1c-1.4,0-2.5,1.1-2.5,2.7c0,1.4,1.1,2.5,2.5,2.5V208.2
			L96.5,208.2z M96.5,200.7v1.1c1.5,0,2.7,1.1,2.7,2.7c0,1.4-1.1,2.5-2.7,2.5v1.1c2.2,0,3.8-1.6,3.8-3.7
			C100.3,202.3,98.7,200.7,96.5,200.7z"/>
	</g>
	<rect x="92.3" y="200.3" class="st18" width="8.5" height="4.1"/>
	<rect x="95.9" y="201.2" width="1" height="4.2"/>
	<rect x="95.9" y="201.2" class="st19" width="1" height="4.2"/>
</g>
<g>
	<g>
		<line class="st17" x1="96.7" y1="378.8" x2="96.7" y2="387"/>
	</g>
	<g>
		<path class="st18" d="M96.6,375.7c1.7,0,3,1.4,3,3c0,1.8-1.4,3.2-3,3.2c-1.8,0-3.2-1.4-3.2-3.2C93.5,377.1,94.9,375.7,96.6,375.7z
			"/>
		<path d="M96.6,375.1c2,0,3.7,1.7,3.7,3.7c0,2.2-1.7,3.8-3.7,3.8v-1.1c1.4,0,2.5-1.1,2.5-2.7c0-1.4-1.1-2.5-2.5-2.5V375.1
			L96.6,375.1z M96.6,382.6v-1.1c-1.5,0-2.7-1.1-2.7-2.7c0-1.4,1.1-2.5,2.7-2.5v-1.1c-2.2,0-3.8,1.7-3.8,3.7
			C92.8,380.9,94.5,382.6,96.6,382.6z"/>
	</g>
	<rect x="92.3" y="378.9" class="st18" width="8.5" height="4.1"/>
	<rect x="96.3" y="377.9" width="1" height="4.2"/>
	<rect x="96.3" y="377.9" class="st19" width="1" height="4.2"/>
</g>
<g>
	<path class="st20" d="M93.3,47.7c0-1.7,1.3-2.9,2.8-2.9c1.6,0,2.9,1.2,2.9,2.9c0,1.5-1.3,2.7-2.9,2.7
		C94.6,50.5,93.3,49.2,93.3,47.7z"/>
	<g>
		<path class="st21" d="M93.3,47.7c0-1.7,1.3-2.9,2.8-2.9c1.6,0,2.9,1.2,2.9,2.9c0,1.5-1.3,2.7-2.9,2.7
			C94.6,50.5,93.3,49.2,93.3,47.7"/>
	</g>
</g>
<g>
	<g>
		<text transform="matrix(1 0 0 1 100.7559 170.5938)" class="st3 st4">100A</text>
	</g>
</g>
<g id="接地">
</g>
<line class="st23" x1="281" y1="426.3" x2="281" y2="715.4"/>
<line class="st24" x1="348.3" y1="425.8" x2="348.3" y2="716.4"/>
<g>
	<rect x="340.2" y="446.1" class="st18" width="13.9" height="6"/>
	<g>
		<text transform="matrix(1 0 0 1 338.5395 451.2375)" class="st3 st4">V 0.35</text>
	</g>
</g>
<g>
	<rect x="275.5" y="446.1" class="st18" width="13.9" height="6"/>
	<g>
		<text transform="matrix(1 0 0 1 271.8447 451.2375)" class="st3 st4">P 0.35</text>
	</g>
</g>
<path class="st25" d="M276.5,541.7c-1.8,0-3.2-1.5-3.2-3.5c0-1.9,1.4-3.5,3.2-3.5l78.9,6.9c1.8,0,3.2-1.5,3.2-3.5
	c0-1.9-1.4-3.5-3.2-3.5L276.5,541.7z"/>
<g>
	<g>
		<line class="st17" x1="280.9" y1="428.3" x2="280.9" y2="420.1"/>
	</g>
	<g>
		<path class="st18" d="M281,431.4c-1.7,0-3-1.4-3-3c0-1.8,1.4-3.2,3-3.2c1.8,0,3.2,1.4,3.2,3.2C284.1,430,282.7,431.4,281,431.4z"
			/>
		<path d="M281,432c-2,0-3.7-1.7-3.7-3.7c0-2.2,1.7-3.8,3.7-3.8v1.1c-1.4,0-2.5,1.1-2.5,2.7c0,1.4,1.1,2.5,2.5,2.5V432L281,432z
			 M281,424.5v1.1c1.5,0,2.7,1.1,2.7,2.7c0,1.4-1.1,2.5-2.7,2.5v1.1c2.2,0,3.8-1.7,3.8-3.7S283.1,424.5,281,424.5z"/>
	</g>
	<rect x="276.8" y="424.1" class="st18" width="8.5" height="4.1"/>
	<rect x="280.3" y="425" width="1" height="4.2"/>
	<rect x="280.3" y="425" class="st19" width="1" height="4.2"/>
</g>
<g>
	<g>
		<line class="st17" x1="348.2" y1="428.3" x2="348.2" y2="420.1"/>
	</g>
	<g>
		<path class="st18" d="M348.3,431.4c-1.7,0-3-1.4-3-3c0-1.8,1.4-3.2,3-3.2c1.8,0,3.2,1.4,3.2,3.2C351.4,430,350,431.4,348.3,431.4z
			"/>
		<path d="M348.3,432c-2,0-3.7-1.7-3.7-3.7c0-2.2,1.7-3.8,3.7-3.8v1.1c-1.4,0-2.5,1.1-2.5,2.7c0,1.4,1.1,2.5,2.5,2.5V432L348.3,432z
			 M348.3,424.5v1.1c1.5,0,2.7,1.1,2.7,2.7c0,1.4-1.1,2.5-2.7,2.5v1.1c2.2,0,3.8-1.7,3.8-3.7C352.1,426.2,350.4,424.5,348.3,424.5z"
			/>
	</g>
	<rect x="344.1" y="424.1" class="st18" width="8.5" height="4.1"/>
	<rect x="347.6" y="425" width="1" height="4.2"/>
	<rect x="347.6" y="425" class="st19" width="1" height="4.2"/>
</g>
<g>
	<rect x="195.6" y="274" class="st18" width="8.5" height="18.8"/>
	<g>
		<g>
			<line class="st26" x1="199.7" y1="282.7" x2="199.7" y2="274.5"/>
		</g>
		<g>
			<line class="st27" x1="199.8" y1="285.9" x2="199.8" y2="292.4"/>
		</g>
		<g>
			<g>
				<g>
					<path class="st18" d="M199.8,285.8c-1.7,0-3.2-1.4-3.2-3.2c0-1.8,1.5-3.2,3.2-3.2c1.8,0,3.2,1.4,3.2,3.2
						C202.9,284.4,201.5,285.8,199.8,285.8z"/>
					<path d="M199.8,286.4c-2,0-3.7-1.8-3.7-3.8h1.1c0,1.4,1.1,2.5,2.5,2.5c1.5,0,2.7-1.1,2.7-2.5h1.1
						C203.6,284.6,201.9,286.4,199.8,286.4L199.8,286.4z M196.1,282.6h1.1c0-1.4,1.1-2.5,2.5-2.5c1.5,0,2.7,1.1,2.7,2.5h1.1
						c0-2.2-1.6-3.8-3.8-3.8C197.7,278.8,196.1,280.4,196.1,282.6z"/>
				</g>
				<rect x="195.6" y="278.4" class="st18" width="8.5" height="4.1"/>
				<rect x="199.1" y="279.3" width="1" height="4.2"/>
				<rect x="199.1" y="279.3" class="st19" width="1" height="4.2"/>
			</g>
		</g>
	</g>
</g>
<g>
	<rect x="277.6" y="274" class="st18" width="8.5" height="18.8"/>
	<g>
		<g>
			<line class="st26" x1="281.7" y1="282.7" x2="281.7" y2="274.5"/>
		</g>
		<g>
			<line class="st27" x1="281.8" y1="285.9" x2="281.8" y2="292.4"/>
		</g>
		<g>
			<g>
				<g>
					<path class="st18" d="M281.8,285.8c-1.7,0-3.2-1.4-3.2-3.2c0-1.8,1.5-3.2,3.2-3.2c1.8,0,3.2,1.4,3.2,3.2
						C284.9,284.4,283.5,285.8,281.8,285.8z"/>
					<path d="M281.8,286.4c-2,0-3.7-1.8-3.7-3.8h1.1c0,1.4,1.1,2.5,2.5,2.5c1.5,0,2.7-1.1,2.7-2.5h1.1
						C285.6,284.6,283.9,286.4,281.8,286.4L281.8,286.4z M278.1,282.6h1.1c0-1.4,1.1-2.5,2.5-2.5c1.5,0,2.7,1.1,2.7,2.5h1.1
						c0-2.2-1.6-3.8-3.8-3.8C279.7,278.8,278.1,280.4,278.1,282.6z"/>
				</g>
				<rect x="277.6" y="278.4" class="st18" width="8.5" height="4.1"/>
				<rect x="281.1" y="279.3" width="1" height="4.2"/>
				<rect x="281.1" y="279.3" class="st19" width="1" height="4.2"/>
			</g>
		</g>
	</g>
</g>
<line class="st8" x1="149.5" y1="429.2" x2="149.5" y2="784.9"/>
<g>
	<line class="st17" x1="149.5" y1="428.3" x2="149.5" y2="420.1"/>
	<path class="st18" d="M149.6,431.4c-1.7,0-3-1.4-3-3c0-1.8,1.4-3.2,3-3.2c1.8,0,3.2,1.4,3.2,3.2C152.8,430,151.4,431.4,149.6,431.4
		"/>
	<path d="M149.6,432c-2,0-3.7-1.6-3.7-3.7c0-2.2,1.7-3.8,3.7-3.8v1.1c-1.4,0-2.5,1.1-2.5,2.7c0,1.4,1.1,2.5,2.5,2.5V432z
		 M149.6,424.5v1.1c1.5,0,2.7,1.1,2.7,2.7c0,1.4-1.1,2.5-2.7,2.5v1.1c2.2,0,3.8-1.6,3.8-3.7C153.4,426.2,151.8,424.5,149.6,424.5"/>
	<rect x="145.4" y="424.1" class="st18" width="8.5" height="4.1"/>
	<rect x="149" y="425" width="1" height="4.2"/>
	<rect x="149" y="425" class="st19" width="1" height="4.2"/>
</g>
<line class="st8" x1="199.6" y1="429.2" x2="199.6" y2="785.5"/>
<g>
	<line class="st17" x1="199.7" y1="428.3" x2="199.7" y2="420.1"/>
	<path class="st18" d="M199.8,431.4c-1.6,0-3-1.4-3-3c0-1.8,1.4-3.2,3-3.2c1.8,0,3.2,1.4,3.2,3.2C203,430,201.6,431.4,199.8,431.4"
		/>
	<path d="M199.8,432c-2,0-3.7-1.6-3.7-3.7c0-2.2,1.7-3.8,3.7-3.8v1.1c-1.4,0-2.5,1.1-2.5,2.7c0,1.4,1.1,2.5,2.5,2.5V432z
		 M199.8,424.5v1.1c1.5,0,2.7,1.1,2.7,2.7c0,1.4-1.1,2.5-2.7,2.5v1.1c2.2,0,3.8-1.6,3.8-3.7C203.6,426.2,202,424.5,199.8,424.5"/>
	<rect x="195.6" y="424.1" class="st18" width="8.5" height="4.1"/>
	<rect x="199.2" y="425" width="1" height="4.2"/>
	<rect x="199.2" y="425" class="st19" width="1" height="4.2"/>
</g>
<g id="GB031_8_">
	<g>
		<g>
			<line class="st28" x1="149.5" y1="783.7" x2="149.5" y2="786.4"/>
		</g>
		<g>
			<line class="st28" x1="142.5" y1="786.4" x2="156.3" y2="786.4"/>
		</g>
		<g>
			<line class="st28" x1="145.3" y1="788.6" x2="153.5" y2="788.6"/>
		</g>
		<g>
			<line class="st28" x1="151.8" y1="790.7" x2="147" y2="790.7"/>
		</g>
	</g>
	<g>
		<rect x="139.1" y="793.2" class="st18" width="20.3" height="8.2"/>
		<rect x="139.4" y="793.6" class="st29" width="19.7" height="7.6"/>
	</g>
</g>
<g id="GB031_7_">
	<g>
		<g>
			<line class="st28" x1="199.7" y1="783.7" x2="199.7" y2="786.4"/>
		</g>
		<g>
			<line class="st28" x1="192.7" y1="786.4" x2="206.5" y2="786.4"/>
		</g>
		<g>
			<line class="st28" x1="195.5" y1="788.6" x2="203.7" y2="788.6"/>
		</g>
		<g>
			<line class="st28" x1="202" y1="790.7" x2="197.2" y2="790.7"/>
		</g>
	</g>
	<g>
		<rect x="189.3" y="793.2" class="st18" width="20.3" height="8.2"/>
		<rect x="189.6" y="793.6" class="st29" width="19.7" height="7.6"/>
	</g>
</g>
<line class="st8" x1="96.5" y1="429.8" x2="96.5" y2="785.3"/>
<rect x="90.3" y="446.1" class="st18" width="12.5" height="6"/>
<text transform="matrix(1 0 0 1 89.0118 451.2729)" class="st3 st4">B 2.5</text>
<rect x="143.3" y="446.1" class="st18" width="12.5" height="6"/>
<text transform="matrix(1 0 0 1 142.012 451.2729)" class="st3 st4">B 2.5</text>
<rect x="193.4" y="446.1" class="st18" width="12.5" height="6"/>
<text transform="matrix(1 0 0 1 190.2518 451.2729)" class="st3 st4">B 0.75</text>
<rect x="90.3" y="758.9" class="st18" width="12.5" height="6"/>
<text transform="matrix(1 0 0 1 89.0118 764.0079)" class="st3 st4">B 2.5</text>
<rect x="143.3" y="758.9" class="st18" width="12.5" height="6"/>
<text transform="matrix(1 0 0 1 142.012 764.0079)" class="st3 st4">B 2.5</text>
<rect x="193.4" y="758.9" class="st18" width="12.5" height="6"/>
<text transform="matrix(1 0 0 1 190.2518 764.0079)" class="st3 st4">B 0.75</text>
<g>
	<line class="st17" x1="96.6" y1="428.2" x2="96.6" y2="420"/>
	<path class="st18" d="M96.7,431.3c-1.6,0-3-1.4-3-3c0-1.8,1.4-3.2,3-3.2c1.8,0,3.2,1.4,3.2,3.2C99.9,429.9,98.5,431.3,96.7,431.3"
		/>
	<path d="M96.7,431.9c-2,0-3.7-1.6-3.7-3.7c0-2.2,1.7-3.8,3.7-3.8v1.1c-1.4,0-2.5,1.1-2.5,2.7c0,1.4,1.1,2.5,2.5,2.5V431.9z
		 M96.7,424.4v1.1c1.5,0,2.7,1.1,2.7,2.7c0,1.4-1.1,2.5-2.7,2.5v1.1c2.2,0,3.8-1.6,3.8-3.7C100.5,426.1,98.9,424.4,96.7,424.4"/>
	<rect x="92.5" y="424" class="st18" width="8.5" height="4.1"/>
	<rect x="96.1" y="424.9" width="1" height="4.2"/>
	<rect x="96.1" y="424.9" class="st19" width="1" height="4.2"/>
</g>
<g id="GB031_3_">
	<g>
		<g>
			<line class="st28" x1="96.7" y1="783.7" x2="96.7" y2="786.4"/>
		</g>
		<g>
			<line class="st28" x1="89.7" y1="786.4" x2="103.5" y2="786.4"/>
		</g>
		<g>
			<line class="st28" x1="92.5" y1="788.6" x2="100.7" y2="788.6"/>
		</g>
		<g>
			<line class="st28" x1="99" y1="790.7" x2="94.2" y2="790.7"/>
		</g>
	</g>
	<g>
		<rect x="86.3" y="793.2" class="st18" width="20.3" height="8.2"/>
		<rect x="86.6" y="793.6" class="st29" width="19.7" height="7.6"/>
	</g>
</g>
<line class="st8" x1="539.6" y1="428.8" x2="539.6" y2="785.9"/>
<polyline class="st9" points="482.2,428.3 482.2,562 428.1,562 409.5,562 409.5,562 409.5,428.3 "/>
<polyline class="st30" points="482.2,428.3 482.2,562 428.1,562 409.5,562 409.5,562 409.5,428.3 "/>
<polyline class="st11" points="482,376.7 482,220.5 1059.2,220.5 1085,255.1 "/>
<polyline class="st9" points="1143,645.8 1217.1,645.8 1548.4,645.8 1548.4,430.9 "/>
<line class="st9" x1="1143.6" y1="428.8" x2="1143.8" y2="760.2"/>
<polyline class="st10" points="1143,645.8 1217.1,645.8 1548.4,645.8 1548.4,430.9 "/>
<line class="st10" x1="1143.6" y1="428.8" x2="1143.8" y2="760.2"/>
<polyline class="st11" points="1084.3,254.6 765.3,254.6 765.3,376.8 "/>
<line class="st11" x1="1240.7" y1="254.6" x2="1084.3" y2="254.6"/>
<polyline class="st11" points="1240.7,376.8 1240.7,308.3 1405.1,308.3 "/>
<polyline class="st31" points="348.5,378.8 348.5,190.1 1084.9,190.1 1084.9,375.5 "/>
<path class="st11" d="M1548.3,376.8V219.7h-307.6c0,0,0,34.6,0,34.7h164.1v122.3"/>
<polyline class="st12" points="1240.7,376.8 1240.7,308.3 1405.1,308.3 "/>
<path class="st12" d="M1548.3,376.8V219.7h-307.6c0,0,0,34.6,0,34.7h164.1v122.3"/>
<line class="st31" x1="1084.5" y1="376.8" x2="1084.5" y2="253.4"/>
<polyline class="st12" points="482,376.7 482,220.5 1059.2,220.5 1085,255.1 "/>
<polyline class="st32" points="1084.3,254.6 765.3,254.6 765.3,376.8 "/>
<line class="st12" x1="1240.7" y1="254.6" x2="1084.3" y2="254.6"/>
<polyline class="st33" points="348.5,378.8 348.5,190.1 1084.9,190.1 1084.9,375.5 "/>
<line class="st33" x1="1084.5" y1="376.8" x2="1084.5" y2="253.4"/>
<rect x="336.7" y="349.8" class="st18" width="18.7" height="6"/>
<rect x="336.7" y="349.8" class="st18" width="18.5" height="6"/>
<g>
	<text transform="matrix(1 0 0 1 338.6023 354.754)" class="st3 st4">R/L 0.35</text>
</g>
<rect x="1540.7" y="349.9" class="st18" width="14.3" height="6"/>
<text transform="matrix(1 0 0 1 1535.0405 354.754)" class="st3 st4">R/L 0.35</text>
<g>
	<g>
		<line class="st17" x1="1548.2" y1="378.9" x2="1548.2" y2="387.1"/>
	</g>
	<g>
		<path class="st18" d="M1548.1,375.8c1.7,0,3,1.4,3,3c0,1.8-1.4,3.2-3,3.2c-1.8,0-3.2-1.4-3.2-3.2
			C1544.9,377.2,1546.3,375.8,1548.1,375.8z"/>
		<path d="M1548.1,375.2c2,0,3.7,1.6,3.7,3.7c0,2.2-1.7,3.8-3.7,3.8v-1.1c1.4,0,2.5-1.1,2.5-2.7c0-1.4-1.1-2.5-2.5-2.5V375.2
			L1548.1,375.2z M1548.1,382.7v-1.1c-1.5,0-2.7-1.1-2.7-2.7c0-1.4,1.1-2.5,2.7-2.5v-1.1c-2.2,0-3.8,1.6-3.8,3.7
			C1544.3,381,1545.9,382.7,1548.1,382.7z"/>
	</g>
	<rect x="1543.8" y="379" class="st18" width="8.5" height="4.1"/>
	<rect x="1547.7" y="378" width="1" height="4.2"/>
	<rect x="1547.7" y="378" class="st19" width="1" height="4.2"/>
</g>
<rect x="1077.2" y="349.9" class="st18" width="14.3" height="6"/>
<text transform="matrix(1 0 0 1 1071.5732 354.754)" class="st3 st4">R/L 0.35</text>
<g>
	<g>
		<line class="st17" x1="765.7" y1="378.9" x2="765.7" y2="387.1"/>
	</g>
	<g>
		<path class="st18" d="M765.6,375.8c1.7,0,3,1.4,3,3c0,1.8-1.4,3.2-3,3.2c-1.8,0-3.2-1.4-3.2-3.2
			C762.5,377.2,763.9,375.8,765.6,375.8z"/>
		<path d="M765.6,375.2c2,0,3.7,1.6,3.7,3.7c0,2.2-1.7,3.8-3.7,3.8v-1.1c1.4,0,2.5-1.1,2.5-2.7c0-1.4-1.1-2.5-2.5-2.5V375.2
			L765.6,375.2z M765.6,382.7v-1.1c-1.5,0-2.7-1.1-2.7-2.7c0-1.4,1.1-2.5,2.7-2.5v-1.1c-2.2,0-3.8,1.6-3.8,3.7
			C761.8,381,763.5,382.7,765.6,382.7z"/>
	</g>
	<rect x="761.3" y="379" class="st18" width="8.5" height="4.1"/>
	<rect x="765.3" y="378" width="1" height="4.2"/>
	<rect x="765.3" y="378" class="st19" width="1" height="4.2"/>
</g>
<rect x="757.2" y="349.9" class="st18" width="14.3" height="6"/>
<text transform="matrix(1 0 0 1 751.5733 354.754)" class="st3 st4">R/L 0.35</text>
<polygon class="st34" points="1157.1,419.6 1073.7,419.6 1073.7,419.5 1073.7,387.1 1157.1,387.1 "/>
<g>
	<g>
		<line class="st17" x1="1084.6" y1="378.9" x2="1084.6" y2="387.1"/>
	</g>
	<g>
		<path class="st18" d="M1084.5,375.8c1.7,0,3,1.4,3,3c0,1.8-1.4,3.2-3,3.2c-1.8,0-3.2-1.4-3.2-3.2
			C1081.3,377.2,1082.7,375.8,1084.5,375.8z"/>
		<path d="M1084.5,375.2c2,0,3.7,1.6,3.7,3.7c0,2.2-1.7,3.8-3.7,3.8v-1.1c1.4,0,2.5-1.1,2.5-2.7c0-1.4-1.1-2.5-2.5-2.5V375.2
			L1084.5,375.2z M1084.5,382.7v-1.1c-1.5,0-2.7-1.1-2.7-2.7c0-1.4,1.1-2.5,2.7-2.5v-1.1c-2.2,0-3.8,1.6-3.8,3.7
			C1080.7,381,1082.3,382.7,1084.5,382.7z"/>
	</g>
	<rect x="1080.2" y="379" class="st18" width="8.5" height="4.1"/>
	<rect x="1084.1" y="378" width="1" height="4.2"/>
	<rect x="1084.1" y="378" class="st19" width="1" height="4.2"/>
</g>
<polygon class="st34" points="1317.3,419.6 1229.7,419.6 1229.7,419.5 1229.7,387.1 1317.3,387.1 "/>
<g>
	<g>
		<line class="st17" x1="1240.6" y1="378.9" x2="1240.6" y2="387.1"/>
	</g>
	<g>
		<path class="st18" d="M1240.5,375.8c1.7,0,3,1.4,3,3c0,1.8-1.4,3.2-3,3.2c-1.8,0-3.2-1.4-3.2-3.2
			C1237.3,377.2,1238.7,375.8,1240.5,375.8z"/>
		<path d="M1240.5,375.2c2,0,3.7,1.6,3.7,3.7c0,2.2-1.7,3.8-3.7,3.8v-1.1c1.4,0,2.5-1.1,2.5-2.7c0-1.4-1.1-2.5-2.5-2.5V375.2
			L1240.5,375.2z M1240.5,382.7v-1.1c-1.5,0-2.7-1.1-2.7-2.7c0-1.4,1.1-2.5,2.7-2.5v-1.1c-2.2,0-3.8,1.6-3.8,3.7
			C1236.7,381,1238.3,382.7,1240.5,382.7z"/>
	</g>
	<rect x="1236.2" y="379" class="st18" width="8.5" height="4.1"/>
	<rect x="1240.1" y="378" width="1" height="4.2"/>
	<rect x="1240.1" y="378" class="st19" width="1" height="4.2"/>
</g>
<g>
	<g>
		<line class="st17" x1="1548.2" y1="427.8" x2="1548.2" y2="419.6"/>
	</g>
	<g>
		<path class="st18" d="M1548.3,430.9c-1.7,0-3-1.4-3-3c0-1.8,1.4-3.2,3-3.2c1.8,0,3.2,1.4,3.2,3.2
			C1551.5,429.5,1550.1,430.9,1548.3,430.9z"/>
		<path d="M1548.3,431.5c-2,0-3.7-1.6-3.7-3.7c0-2.2,1.7-3.8,3.7-3.8v1.1c-1.4,0-2.5,1.1-2.5,2.7c0,1.4,1.1,2.5,2.5,2.5V431.5
			L1548.3,431.5z M1548.3,424v1.1c1.5,0,2.7,1.1,2.7,2.7c0,1.4-1.1,2.5-2.7,2.5v1.1c2.2,0,3.8-1.6,3.8-3.7
			C1552.1,425.7,1550.4,424,1548.3,424z"/>
	</g>
	<rect x="1544.1" y="423.6" class="st18" width="8.5" height="4.1"/>
	<rect x="1547.6" y="424.5" width="1" height="4.2"/>
	<rect x="1547.6" y="424.5" class="st19" width="1" height="4.2"/>
</g>
<rect x="1545.2" y="449" class="st18" width="6.4" height="6"/>
<g>
	<text transform="matrix(1 0 0 1 1534.821 453.7755)" class="st3 st4">G/Y 0.35</text>
</g>
<g>
	<g>
		<line class="st17" x1="348.5" y1="378.9" x2="348.5" y2="387.1"/>
	</g>
	<g>
		<path class="st18" d="M348.4,375.8c1.6,0,3,1.4,3,3c0,1.8-1.4,3.2-3,3.2c-1.8,0-3.2-1.4-3.2-3.2
			C345.2,377.2,346.6,375.8,348.4,375.8z"/>
		<path d="M348.4,375.2c2,0,3.7,1.6,3.7,3.7c0,2.2-1.7,3.8-3.7,3.8v-1.1c1.4,0,2.5-1.1,2.5-2.7c0-1.4-1.1-2.5-2.5-2.5V375.2
			L348.4,375.2z M348.4,382.7v-1.1c-1.5,0-2.7-1.1-2.7-2.7c0-1.4,1.1-2.5,2.7-2.5v-1.1c-2.2,0-3.8,1.6-3.8,3.7
			C344.6,381,346.2,382.7,348.4,382.7z"/>
	</g>
	<rect x="344.1" y="379" class="st18" width="8.5" height="4.1"/>
	<rect x="348" y="378" width="1" height="4.2"/>
	<rect x="348" y="378" class="st19" width="1" height="4.2"/>
</g>
<g>
	<g>
		<line class="st17" x1="281.8" y1="378.8" x2="281.8" y2="387"/>
	</g>
	<g>
		<path class="st18" d="M281.7,375.7c1.6,0,3,1.4,3,3c0,1.8-1.4,3.2-3,3.2c-1.8,0-3.2-1.4-3.2-3.2
			C278.5,377.1,279.9,375.7,281.7,375.7z"/>
		<path d="M281.7,375.1c2,0,3.7,1.6,3.7,3.7c0,2.2-1.7,3.8-3.7,3.8v-1.1c1.4,0,2.5-1.1,2.5-2.7c0-1.4-1.1-2.5-2.5-2.5V375.1
			L281.7,375.1z M281.7,382.6v-1.1c-1.5,0-2.7-1.1-2.7-2.7c0-1.4,1.1-2.5,2.7-2.5v-1.1c-2.2,0-3.8,1.6-3.8,3.7
			C277.9,380.9,279.5,382.6,281.7,382.6z"/>
	</g>
	<rect x="277.4" y="378.9" class="st18" width="8.5" height="4.1"/>
	<rect x="281.3" y="377.9" width="1" height="4.2"/>
	<rect x="281.3" y="377.9" class="st19" width="1" height="4.2"/>
</g>
<line class="st8" x1="765.6" y1="428.8" x2="765.5" y2="785"/>
<g>
	<g>
		<line class="st17" x1="765.6" y1="427.8" x2="765.6" y2="419.6"/>
	</g>
	<g>
		<path class="st18" d="M765.7,430.9c-1.7,0-3-1.4-3-3c0-1.8,1.4-3.2,3-3.2c1.8,0,3.2,1.4,3.2,3.2
			C768.8,429.5,767.4,430.9,765.7,430.9z"/>
		<path d="M765.7,431.5c-2,0-3.7-1.6-3.7-3.7c0-2.2,1.7-3.8,3.7-3.8v1.1c-1.4,0-2.5,1.1-2.5,2.7c0,1.4,1.1,2.5,2.5,2.5V431.5
			L765.7,431.5z M765.7,424v1.1c1.5,0,2.7,1.1,2.7,2.7c0,1.4-1.1,2.5-2.7,2.5v1.1c2.2,0,3.8-1.6,3.8-3.7
			C769.5,425.7,767.8,424,765.7,424z"/>
	</g>
	<rect x="761.5" y="423.6" class="st18" width="8.5" height="4.1"/>
	<rect x="765" y="424.5" width="1" height="4.2"/>
	<rect x="765" y="424.5" class="st19" width="1" height="4.2"/>
</g>
<rect x="762.6" y="448.8" class="st18" width="6.4" height="6"/>
<g>
	<text transform="matrix(1 0 0 1 758.1976 453.7755)" class="st3 st4">B 0.35</text>
</g>
<rect x="762.6" y="729.3" class="st18" width="6.4" height="6"/>
<g>
	<text transform="matrix(1 0 0 1 758.1973 734.3286)" class="st3 st4">B 1.0</text>
</g>
<g id="GB031_12_">
	<g>
		<g>
			<line class="st28" x1="765.4" y1="783.7" x2="765.4" y2="786.3"/>
		</g>
		<g>
			<line class="st28" x1="758.3" y1="786.3" x2="772.1" y2="786.3"/>
		</g>
		<g>
			<line class="st28" x1="761.1" y1="788.6" x2="769.3" y2="788.6"/>
		</g>
		<g>
			<line class="st28" x1="767.7" y1="790.7" x2="762.9" y2="790.7"/>
		</g>
	</g>
	<g>
		<rect x="754.9" y="793.1" class="st18" width="20.3" height="8.2"/>
		<rect x="755.2" y="793.5" class="st29" width="19.7" height="7.6"/>
	</g>
</g>
<line class="st8" x1="1085.6" y1="428.8" x2="1085.5" y2="786.5"/>
<g>
	<g>
		<line class="st17" x1="1085.6" y1="427.8" x2="1085.6" y2="419.6"/>
	</g>
	<g>
		<path class="st18" d="M1085.7,430.9c-1.7,0-3-1.4-3-3c0-1.8,1.4-3.2,3-3.2c1.8,0,3.2,1.4,3.2,3.2
			C1088.8,429.5,1087.4,430.9,1085.7,430.9z"/>
		<path d="M1085.7,431.5c-2,0-3.7-1.6-3.7-3.7c0-2.2,1.7-3.8,3.7-3.8v1.1c-1.4,0-2.5,1.1-2.5,2.7c0,1.4,1.1,2.5,2.5,2.5V431.5
			L1085.7,431.5z M1085.7,424v1.1c1.5,0,2.7,1.1,2.7,2.7c0,1.4-1.1,2.5-2.7,2.5v1.1c2.2,0,3.8-1.6,3.8-3.7
			C1089.5,425.7,1087.8,424,1085.7,424z"/>
	</g>
	<rect x="1081.5" y="423.6" class="st18" width="8.5" height="4.1"/>
	<rect x="1085" y="424.5" width="1" height="4.2"/>
	<rect x="1085" y="424.5" class="st19" width="1" height="4.2"/>
</g>
<rect x="1082.6" y="448.8" class="st18" width="6.4" height="6"/>
<g>
	<text transform="matrix(1 0 0 1 1078.1975 453.7755)" class="st3 st4">B 0.35</text>
</g>
<line class="st8" x1="1240.6" y1="428.8" x2="1240.5" y2="786"/>
<g>
	<g>
		<line class="st17" x1="1240.6" y1="427.8" x2="1240.6" y2="419.6"/>
	</g>
	<g>
		<path class="st18" d="M1240.7,430.9c-1.7,0-3-1.4-3-3c0-1.8,1.4-3.2,3-3.2c1.8,0,3.2,1.4,3.2,3.2
			C1243.8,429.5,1242.4,430.9,1240.7,430.9z"/>
		<path d="M1240.7,431.5c-2,0-3.7-1.6-3.7-3.7c0-2.2,1.7-3.8,3.7-3.8v1.1c-1.4,0-2.5,1.1-2.5,2.7c0,1.4,1.1,2.5,2.5,2.5V431.5
			L1240.7,431.5z M1240.7,424v1.1c1.5,0,2.7,1.1,2.7,2.7c0,1.4-1.1,2.5-2.7,2.5v1.1c2.2,0,3.8-1.6,3.8-3.7
			C1244.5,425.7,1242.8,424,1240.7,424z"/>
	</g>
	<rect x="1236.5" y="423.6" class="st18" width="8.5" height="4.1"/>
	<rect x="1240" y="424.5" width="1" height="4.2"/>
	<rect x="1240" y="424.5" class="st19" width="1" height="4.2"/>
</g>
<rect x="1237.6" y="448.8" class="st18" width="6.4" height="6"/>
<g>
	<text transform="matrix(1 0 0 1 1233.1975 453.7755)" class="st3 st4">B 0.35</text>
</g>
<rect x="1237.6" y="729.3" class="st18" width="6.4" height="6"/>
<g>
	<text transform="matrix(1 0 0 1 1233.1975 734.1201)" class="st3 st4">B 2.5</text>
</g>
<g id="GB031_6_">
	<g>
		<g>
			<line class="st28" x1="1240.4" y1="784.7" x2="1240.4" y2="787.3"/>
		</g>
		<g>
			<line class="st28" x1="1233.3" y1="787.3" x2="1247.1" y2="787.3"/>
		</g>
		<g>
			<line class="st28" x1="1236.1" y1="789.6" x2="1244.3" y2="789.6"/>
		</g>
		<g>
			<line class="st28" x1="1242.7" y1="791.7" x2="1237.9" y2="791.7"/>
		</g>
	</g>
	<g>
		<rect x="1229.9" y="794.1" class="st18" width="20.3" height="8.2"/>
		<rect x="1230.2" y="794.5" class="st29" width="19.7" height="7.6"/>
	</g>
</g>
<rect x="1246.7" y="693.9" class="st14" width="25.3" height="5.6"/>
<text transform="matrix(1 0 0 1 1247.4016 698.8237)" class="st3 st4">SP4854</text>
<path class="st15" d="M1243.3,696.8c0,1.7-1.3,2.9-2.8,2.9c-1.6,0-2.9-1.2-2.9-2.9c0-1.5,1.3-2.7,2.9-2.7
	C1242,694.1,1243.3,695.3,1243.3,696.8z"/>
<g>
	<g>
		<line class="st17" x1="822.6" y1="427.8" x2="822.6" y2="419.6"/>
	</g>
	<g>
		<path class="st18" d="M822.7,430.9c-1.7,0-3-1.4-3-3c0-1.8,1.4-3.2,3-3.2c1.8,0,3.2,1.4,3.2,3.2
			C825.8,429.5,824.4,430.9,822.7,430.9z"/>
		<path d="M822.7,431.5c-2,0-3.7-1.6-3.7-3.7c0-2.2,1.7-3.8,3.7-3.8v1.1c-1.4,0-2.5,1.1-2.5,2.7c0,1.4,1.1,2.5,2.5,2.5V431.5
			L822.7,431.5z M822.7,424v1.1c1.5,0,2.7,1.1,2.7,2.7c0,1.4-1.1,2.5-2.7,2.5v1.1c2.2,0,3.8-1.6,3.8-3.7
			C826.5,425.7,824.8,424,822.7,424z"/>
	</g>
	<rect x="818.5" y="423.6" class="st18" width="8.5" height="4.1"/>
	<rect x="822" y="424.5" width="1" height="4.2"/>
	<rect x="822" y="424.5" class="st19" width="1" height="4.2"/>
</g>
<rect x="819.6" y="448.8" class="st18" width="6.4" height="6"/>
<g>
	<text transform="matrix(1 0 0 1 809.1976 453.7755)" class="st3 st4">G/Y 0.35</text>
</g>
<g>
	<text transform="matrix(1 0 0 1 1081.7964 417.5457)" class="st3 st35">Ground</text>
</g>
<g>
	<g>
		<line class="st17" x1="1143.6" y1="427.8" x2="1143.6" y2="419.6"/>
	</g>
	<g>
		<path class="st18" d="M1143.7,430.9c-1.7,0-3-1.4-3-3c0-1.8,1.4-3.2,3-3.2c1.8,0,3.2,1.4,3.2,3.2
			C1146.8,429.5,1145.4,430.9,1143.7,430.9z"/>
		<path d="M1143.7,431.5c-2,0-3.7-1.6-3.7-3.7c0-2.2,1.7-3.8,3.7-3.8v1.1c-1.4,0-2.5,1.1-2.5,2.7c0,1.4,1.1,2.5,2.5,2.5V431.5
			L1143.7,431.5z M1143.7,424v1.1c1.5,0,2.7,1.1,2.7,2.7c0,1.4-1.1,2.5-2.7,2.5v1.1c2.2,0,3.8-1.6,3.8-3.7
			C1147.5,425.7,1145.8,424,1143.7,424z"/>
	</g>
	<rect x="1139.5" y="423.6" class="st18" width="8.5" height="4.1"/>
	<rect x="1143" y="424.5" width="1" height="4.2"/>
	<rect x="1143" y="424.5" class="st19" width="1" height="4.2"/>
</g>
<rect x="1140.6" y="448.8" class="st18" width="6.4" height="6"/>
<g>
	<text transform="matrix(1 0 0 1 1130.1975 453.7755)" class="st3 st4">G/Y 0.35</text>
</g>
<g>
	<text transform="matrix(1 0 0 1 1138.7964 417.5457)" class="st3 st35">LIN3</text>
</g>
<g>
	<text transform="matrix(1 0 0 1 1081.7969 391.9207)" class="st3 st35">Power supply</text>
</g>
<g>
	<text transform="matrix(1 0 0 1 1235.7964 417.5457)" class="st3 st35">Ground</text>
</g>
<g>
	<text transform="matrix(1 0 0 1 1294.3018 391.9208)" class="st3 st35">LIN1</text>
</g>
<g>
	<text transform="matrix(1 0 0 1 1235.7969 391.9207)" class="st3 st35">Power supply</text>
</g>
<g>
	<g>
		<line class="st17" x1="1297.6" y1="378.9" x2="1297.6" y2="387.1"/>
	</g>
	<g>
		<path class="st18" d="M1297.5,375.8c1.7,0,3,1.4,3,3c0,1.8-1.4,3.2-3,3.2c-1.8,0-3.2-1.4-3.2-3.2
			C1294.3,377.2,1295.7,375.8,1297.5,375.8z"/>
		<path d="M1297.5,375.2c2,0,3.7,1.6,3.7,3.7c0,2.2-1.7,3.8-3.7,3.8v-1.1c1.4,0,2.5-1.1,2.5-2.7c0-1.4-1.1-2.5-2.5-2.5V375.2
			L1297.5,375.2z M1297.5,382.7v-1.1c-1.5,0-2.7-1.1-2.7-2.7c0-1.4,1.1-2.5,2.7-2.5v-1.1c-2.2,0-3.8,1.6-3.8,3.7
			C1293.7,381,1295.3,382.7,1297.5,382.7z"/>
	</g>
	<rect x="1293.2" y="379" class="st18" width="8.5" height="4.1"/>
	<rect x="1297.1" y="378" width="1" height="4.2"/>
	<rect x="1297.1" y="378" class="st19" width="1" height="4.2"/>
</g>
<rect x="1089.3" y="244.8" class="st14" width="25.3" height="6"/>
<path class="st15" d="M1087.8,254.5c0,1.7-1.3,2.9-2.8,2.9c-1.6,0-2.9-1.2-2.9-2.9c0-1.5,1.3-2.7,2.9-2.7
	C1086.5,251.8,1087.8,253,1087.8,254.5z"/>
<rect x="1233.2" y="349.9" class="st18" width="14.3" height="6"/>
<text transform="matrix(1 0 0 1 1227.5732 354.754)" class="st3 st4">R/L 0.35</text>
<rect x="768.7" y="584" class="st14" width="25.3" height="5.6"/>
<text transform="matrix(1 0 0 1 769.4058 588.9175)" class="st3 st4">SP4849</text>
<path class="st15" d="M768.2,593.1c-0.2,1.5-1.4,2.5-2.8,2.5c-1.6,0-2.9-1.2-2.9-2.9c0-1.6,1.4-2.9,3.2-2.7
	C767.2,590.2,768.4,591.6,768.2,593.1z"/>
<rect x="1082.5" y="729.3" class="st18" width="6.4" height="6"/>
<g>
	<text transform="matrix(1 0 0 1 1078.1299 734.1205)" class="st3 st4">B 1.0</text>
</g>
<rect x="1091.6" y="492.1" class="st14" width="25.3" height="5.6"/>
<text transform="matrix(1 0 0 1 1092.334 496.9951)" class="st3 st4">SP5429</text>
<path class="st15" d="M1088.2,495c0,1.7-1.3,2.9-2.8,2.9c-1.6,0-2.9-1.2-2.9-2.9c0-1.5,1.3-2.7,2.9-2.7
	C1086.9,492.2,1088.2,493.5,1088.2,495z"/>
<g id="GB031_5_">
	<g>
		<g>
			<line class="st28" x1="1085.9" y1="785" x2="1085.9" y2="787.7"/>
		</g>
		<g>
			<line class="st28" x1="1078.8" y1="787.7" x2="1092.6" y2="787.7"/>
		</g>
		<g>
			<line class="st28" x1="1081.6" y1="789.9" x2="1089.8" y2="789.9"/>
		</g>
		<g>
			<line class="st28" x1="1088.2" y1="792" x2="1083.4" y2="792"/>
		</g>
	</g>
	<g>
		<rect x="1075.4" y="794.5" class="st18" width="20.3" height="8.2"/>
		<rect x="1075.7" y="794.8" class="st29" width="19.7" height="7.6"/>
	</g>
</g>
<rect x="1246" y="485.7" class="st14" width="25.3" height="5.6"/>
<text transform="matrix(1 0 0 1 1246.7366 490.5992)" class="st3 st4">SP4855</text>
<path class="st15" d="M1243.6,496.2c-0.2,1.5-1.4,2.5-2.8,2.5c-1.6,0-2.9-1.2-2.9-2.9c0-1.6,1.4-2.9,3.2-2.7
	C1242.6,493.2,1243.7,494.7,1243.6,496.2z"/>
<rect x="1237.2" y="525.2" class="st18" width="6.4" height="6"/>
<g>
	<text transform="matrix(1 0 0 1 1234.1842 530.0176)" class="st3 st4">B 1.0</text>
</g>
<rect x="1236.2" y="667.9" class="st18" width="6.4" height="6"/>
<g>
	<text transform="matrix(1 0 0 1 1233.1979 672.8541)" class="st3 st4">B 1.0</text>
</g>
<g>
	<rect x="1236.3" y="562" class="st18" width="8.5" height="18.8"/>
	<g>
		<g>
			<line class="st26" x1="1240.4" y1="570.7" x2="1240.4" y2="562.4"/>
		</g>
		<g>
			<line class="st27" x1="1240.5" y1="573.8" x2="1240.5" y2="580.3"/>
		</g>
		<g>
			<g>
				<g>
					<path class="st18" d="M1240.5,573.7c-1.7,0-3.2-1.4-3.2-3.2s1.5-3.2,3.2-3.2c1.8,0,3.2,1.4,3.2,3.2S1242.3,573.7,1240.5,573.7z
						"/>
					<path d="M1240.5,574.4c-2,0-3.7-1.8-3.7-3.8h1.1c0,1.4,1.1,2.5,2.5,2.5c1.5,0,2.7-1.1,2.7-2.5h1.1
						C1244.3,572.6,1242.6,574.4,1240.5,574.4L1240.5,574.4z M1236.8,570.5h1.1c0-1.4,1.1-2.5,2.5-2.5c1.5,0,2.7,1.1,2.7,2.5h1.1
						c0-2.2-1.6-3.8-3.8-3.8C1238.4,566.7,1236.8,568.4,1236.8,570.5z"/>
				</g>
				<rect x="1236.3" y="566.4" class="st18" width="8.5" height="4.1"/>
				<rect x="1239.8" y="567.2" width="1" height="4.2"/>
				<rect x="1239.8" y="567.2" class="st19" width="1" height="4.2"/>
			</g>
		</g>
	</g>
</g>
<g>
	<g>
		<line class="st17" x1="409.5" y1="428.3" x2="409.5" y2="420.1"/>
	</g>
	<g>
		<path class="st18" d="M409.6,431.4c-1.6,0-3-1.4-3-3c0-1.8,1.4-3.2,3-3.2c1.8,0,3.2,1.4,3.2,3.2
			C412.7,430,411.3,431.4,409.6,431.4z"/>
		<path d="M409.6,432c-2,0-3.7-1.6-3.7-3.7c0-2.2,1.7-3.8,3.7-3.8v1.1c-1.4,0-2.5,1.1-2.5,2.7c0,1.4,1.1,2.5,2.5,2.5V432L409.6,432z
			 M409.6,424.5v1.1c1.5,0,2.7,1.1,2.7,2.7c0,1.4-1.1,2.5-2.7,2.5v1.1c2.2,0,3.8-1.6,3.8-3.7C413.4,426.2,411.7,424.5,409.6,424.5z"
			/>
	</g>
	<rect x="405.4" y="424.1" class="st18" width="8.5" height="4.1"/>
	<rect x="408.9" y="425" width="1" height="4.2"/>
	<rect x="408.9" y="425" class="st19" width="1" height="4.2"/>
</g>
<rect x="407.4" y="446.5" class="st18" width="6.4" height="6"/>
<g>
	<text transform="matrix(1 0 0 1 396.9788 451.2372)" class="st3 st4">G/W 0.35</text>
</g>
<polygon class="st34" points="554.8,419.6 471.4,419.6 471.4,419.5 471.4,387.1 554.8,387.1 "/>
<g>
	<g>
		<line class="st17" x1="482.1" y1="378.8" x2="482.1" y2="387"/>
	</g>
	<g>
		<path class="st18" d="M482,375.7c1.7,0,3,1.4,3,3c0,1.8-1.4,3.2-3,3.2c-1.8,0-3.2-1.4-3.2-3.2C478.9,377.1,480.2,375.7,482,375.7z
			"/>
		<path d="M482,375.1c2,0,3.7,1.6,3.7,3.7c0,2.2-1.7,3.8-3.7,3.8v-1.1c1.4,0,2.5-1.1,2.5-2.7c0-1.4-1.1-2.5-2.5-2.5V375.1L482,375.1
			z M482,382.6v-1.1c-1.5,0-2.7-1.1-2.7-2.7c0-1.4,1.1-2.5,2.7-2.5v-1.1c-2.2,0-3.8,1.6-3.8,3.7C478.2,380.9,479.9,382.6,482,382.6z
			"/>
	</g>
	<rect x="477.7" y="378.9" class="st18" width="8.5" height="4.1"/>
	<rect x="481.6" y="377.9" width="1" height="4.2"/>
	<rect x="481.6" y="377.9" class="st19" width="1" height="4.2"/>
</g>
<rect x="474" y="349.8" class="st18" width="14.3" height="6"/>
<text transform="matrix(1 0 0 1 468.2817 354.6566)" class="st3 st4">R/L 0.35</text>
<g>
	<text transform="matrix(1 0 0 1 477.5043 391.8232)" class="st3 st35">Power supply</text>
</g>
<g>
	<g>
		<line class="st17" x1="482.2" y1="428.3" x2="482.2" y2="420.1"/>
	</g>
	<g>
		<path class="st18" d="M482.2,431.4c-1.7,0-3-1.4-3-3c0-1.8,1.4-3.2,3-3.2c1.8,0,3.2,1.4,3.2,3.2C485.4,430,484,431.4,482.2,431.4z
			"/>
		<path d="M482.2,432c-2,0-3.7-1.6-3.7-3.7c0-2.2,1.7-3.8,3.7-3.8v1.1c-1.4,0-2.5,1.1-2.5,2.7c0,1.4,1.1,2.5,2.5,2.5V432L482.2,432z
			 M482.2,424.5v1.1c1.5,0,2.7,1.1,2.7,2.7c0,1.4-1.1,2.5-2.7,2.5v1.1c2.2,0,3.8-1.6,3.8-3.7C486,426.2,484.4,424.5,482.2,424.5z"/>
	</g>
	<rect x="478.1" y="424.1" class="st18" width="8.5" height="4.1"/>
	<rect x="481.6" y="425" width="1" height="4.2"/>
	<rect x="481.6" y="425" class="st19" width="1" height="4.2"/>
</g>
<rect x="479.2" y="446.5" class="st18" width="6.4" height="6"/>
<g>
	<text transform="matrix(1 0 0 1 468.7809 451.2374)" class="st3 st4">G/W 0.35</text>
</g>
<g>
	<text transform="matrix(1 0 0 1 477.3797 418.1355)" class="st3 st35">LIN2</text>
</g>
<g>
	<rect x="405.4" y="488.5" class="st18" width="8.5" height="18.8"/>
	<g>
		<g>
			<line class="st26" x1="409.5" y1="497.3" x2="409.5" y2="489"/>
		</g>
		<g>
			<line class="st27" x1="409.6" y1="500.4" x2="409.6" y2="506.9"/>
		</g>
		<g>
			<g>
				<g>
					<path class="st18" d="M409.6,500.3c-1.7,0-3.2-1.4-3.2-3.2c0-1.8,1.5-3.2,3.2-3.2c1.8,0,3.2,1.4,3.2,3.2
						C412.7,498.9,411.3,500.3,409.6,500.3z"/>
					<path d="M409.6,500.9c-2,0-3.7-1.8-3.7-3.8h1.1c0,1.4,1.1,2.5,2.5,2.5c1.5,0,2.7-1.1,2.7-2.5h1.1
						C413.4,499.2,411.7,500.9,409.6,500.9L409.6,500.9z M405.9,497.1h1.1c0-1.4,1.1-2.5,2.5-2.5c1.5,0,2.7,1.1,2.7,2.5h1.1
						c0-2.2-1.6-3.8-3.8-3.8C407.5,493.3,405.9,495,405.9,497.1z"/>
				</g>
				<rect x="405.4" y="492.9" class="st18" width="8.5" height="4.1"/>
				<rect x="408.9" y="493.8" width="1" height="4.2"/>
				<rect x="408.9" y="493.8" class="st19" width="1" height="4.2"/>
			</g>
		</g>
	</g>
</g>
<g>
	<g>
		<line class="st17" x1="539.6" y1="427.8" x2="539.6" y2="419.6"/>
	</g>
	<g>
		<path class="st18" d="M539.7,430.9c-1.7,0-3-1.4-3-3c0-1.8,1.4-3.2,3-3.2c1.8,0,3.2,1.4,3.2,3.2
			C542.9,429.5,541.5,430.9,539.7,430.9z"/>
		<path d="M539.7,431.5c-2,0-3.7-1.6-3.7-3.7c0-2.2,1.7-3.8,3.7-3.8v1.1c-1.4,0-2.5,1.1-2.5,2.7c0,1.4,1.1,2.5,2.5,2.5V431.5
			L539.7,431.5z M539.7,424v1.1c1.5,0,2.7,1.1,2.7,2.7c0,1.4-1.1,2.5-2.7,2.5v1.1c2.2,0,3.8-1.6,3.8-3.7
			C543.5,425.7,541.9,424,539.7,424z"/>
	</g>
	<rect x="535.5" y="423.7" class="st18" width="8.5" height="4.1"/>
	<rect x="539.1" y="424.5" width="1" height="4.2"/>
	<rect x="539.1" y="424.5" class="st19" width="1" height="4.2"/>
</g>
<rect x="536.6" y="446.5" class="st18" width="6.4" height="6"/>
<g>
	<text transform="matrix(1 0 0 1 532.2537 451.2375)" class="st3 st4">B 0.35</text>
</g>
<g>
	<text transform="matrix(1 0 0 1 534.8525 417.5458)" class="st3 st35">Ground</text>
</g>
<rect x="543.9" y="583.1" class="st14" width="25.3" height="5.6"/>
<text transform="matrix(1 0 0 1 544.6318 587.9861)" class="st3 st4">SP4848</text>
<path class="st15" d="M542.2,593.1c-0.2,1.5-1.4,2.5-2.8,2.5c-1.6,0-2.9-1.2-2.9-2.9c0-1.6,1.4-2.9,3.2-2.7
	C541.2,590.2,542.3,591.6,542.2,593.1z"/>
<rect x="535.9" y="729.3" class="st18" width="6.4" height="6"/>
<g>
	<text transform="matrix(1 0 0 1 532.8859 734.1198)" class="st3 st4">B 0.5</text>
</g>
<rect x="1290.2" y="349.9" class="st18" width="14.3" height="6"/>
<text transform="matrix(1 0 0 1 1284.5732 354.754)" class="st3 st4">G/Y 0.35</text>
<text transform="matrix(1 0 0 1 1090.0132 250.1069)" class="st3 st4">SP4797</text>
<g id="GB031_9_">
	<g>
		<g>
			<line class="st28" x1="539.6" y1="784" x2="539.6" y2="786.7"/>
		</g>
		<g>
			<line class="st28" x1="532.6" y1="786.7" x2="546.4" y2="786.7"/>
		</g>
		<g>
			<line class="st28" x1="535.4" y1="788.9" x2="543.6" y2="788.9"/>
		</g>
		<g>
			<line class="st28" x1="541.9" y1="791" x2="537.1" y2="791"/>
		</g>
	</g>
	<g>
		<rect x="529.2" y="793.5" class="st18" width="20.3" height="8.2"/>
		<rect x="529.5" y="793.9" class="st29" width="19.7" height="7.6"/>
	</g>
</g>
<rect x="1147.9" y="635.8" class="st14" width="25.3" height="5.6"/>
<text transform="matrix(1 0 0 1 1148.6021 640.7073)" class="st3 st4">SP4896</text>
<path class="st15" d="M1146.5,645.8c0,1.7-1.3,2.9-2.8,2.9c-1.6,0-2.9-1.2-2.9-2.9c0-1.5,1.3-2.7,2.9-2.7
	C1145.2,643.1,1146.5,644.3,1146.5,645.8z"/>
<polygon class="st34" points="1499.3,419.6 1393.7,419.6 1393.7,419.5 1393.7,387.1 1499.3,387.1 "/>
<g>
	<g>
		<line class="st17" x1="1404.6" y1="378.9" x2="1404.6" y2="387.1"/>
	</g>
	<g>
		<path class="st18" d="M1404.5,375.8c1.7,0,3,1.4,3,3c0,1.8-1.4,3.2-3,3.2c-1.8,0-3.2-1.4-3.2-3.2
			C1401.3,377.2,1402.7,375.8,1404.5,375.8z"/>
		<path d="M1404.5,375.2c2,0,3.7,1.6,3.7,3.7c0,2.2-1.7,3.8-3.7,3.8v-1.1c1.4,0,2.5-1.1,2.5-2.7c0-1.4-1.1-2.5-2.5-2.5V375.2
			L1404.5,375.2z M1404.5,382.7v-1.1c-1.5,0-2.7-1.1-2.7-2.7c0-1.4,1.1-2.5,2.7-2.5v-1.1c-2.2,0-3.8,1.6-3.8,3.7
			C1400.7,381,1402.3,382.7,1404.5,382.7z"/>
	</g>
	<rect x="1400.2" y="379" class="st18" width="8.5" height="4.1"/>
	<rect x="1404.1" y="378" width="1" height="4.2"/>
	<rect x="1404.1" y="378" class="st19" width="1" height="4.2"/>
</g>
<g>
	<g>
		<line class="st17" x1="1404.6" y1="427.8" x2="1404.6" y2="419.6"/>
	</g>
	<g>
		<path class="st18" d="M1404.7,430.9c-1.7,0-3-1.4-3-3c0-1.8,1.4-3.2,3-3.2c1.8,0,3.2,1.4,3.2,3.2
			C1407.8,429.5,1406.4,430.9,1404.7,430.9z"/>
		<path d="M1404.7,431.5c-2,0-3.7-1.6-3.7-3.7c0-2.2,1.7-3.8,3.7-3.8v1.1c-1.4,0-2.5,1.1-2.5,2.7c0,1.4,1.1,2.5,2.5,2.5V431.5
			L1404.7,431.5z M1404.7,424v1.1c1.5,0,2.7,1.1,2.7,2.7c0,1.4-1.1,2.5-2.7,2.5v1.1c2.2,0,3.8-1.6,3.8-3.7
			C1408.5,425.7,1406.8,424,1404.7,424z"/>
	</g>
	<rect x="1400.5" y="423.6" class="st18" width="8.5" height="4.1"/>
	<rect x="1404" y="424.5" width="1" height="4.2"/>
	<rect x="1404" y="424.5" class="st19" width="1" height="4.2"/>
</g>
<rect x="1401.6" y="448.8" class="st18" width="6.4" height="6"/>
<g>
	<text transform="matrix(1 0 0 1 1397.1975 453.7755)" class="st3 st4">B 0.35</text>
</g>
<g>
	<text transform="matrix(1 0 0 1 1399.7964 417.5457)" class="st3 st35">Ground</text>
</g>
<g>
	<text transform="matrix(1 0 0 1 1458.3018 391.9208)" class="st3 st35">LIN1</text>
</g>
<g>
	<text transform="matrix(1 0 0 1 1399.7969 391.9207)" class="st3 st35">Power supply</text>
</g>
<g>
	<g>
		<line class="st17" x1="1461.6" y1="378.9" x2="1461.6" y2="387.1"/>
	</g>
	<g>
		<path class="st18" d="M1461.5,375.8c1.7,0,3,1.4,3,3c0,1.8-1.4,3.2-3,3.2c-1.8,0-3.2-1.4-3.2-3.2
			C1458.3,377.2,1459.7,375.8,1461.5,375.8z"/>
		<path d="M1461.5,375.2c2,0,3.7,1.6,3.7,3.7c0,2.2-1.7,3.8-3.7,3.8v-1.1c1.4,0,2.5-1.1,2.5-2.7c0-1.4-1.1-2.5-2.5-2.5V375.2
			L1461.5,375.2z M1461.5,382.7v-1.1c-1.5,0-2.7-1.1-2.7-2.7c0-1.4,1.1-2.5,2.7-2.5v-1.1c-2.2,0-3.8,1.6-3.8,3.7
			C1457.7,381,1459.3,382.7,1461.5,382.7z"/>
	</g>
	<rect x="1457.2" y="379" class="st18" width="8.5" height="4.1"/>
	<rect x="1461.1" y="378" width="1" height="4.2"/>
	<rect x="1461.1" y="378" class="st19" width="1" height="4.2"/>
</g>
<rect x="1397.2" y="349.9" class="st18" width="14.3" height="6"/>
<text transform="matrix(1 0 0 1 1391.5732 354.754)" class="st3 st4">R/L 0.35</text>
<rect x="1397.8" y="277.5" class="st18" width="14.3" height="6"/>
<text transform="matrix(1 0 0 1 1392.1047 282.4159)" class="st3 st4">R/L 0.35</text>
<rect x="1454.2" y="349.9" class="st18" width="14.3" height="6"/>
<text transform="matrix(1 0 0 1 1448.5732 354.754)" class="st3 st4">G/Y 0.35</text>
<rect x="1454.8" y="277.5" class="st18" width="14.3" height="6"/>
<text transform="matrix(1 0 0 1 1449.1047 282.4159)" class="st3 st4">G/Y 0.35</text>
<rect x="1227.6" y="259.9" class="st14" width="25.3" height="6"/>
<path class="st15" d="M1243.5,255c0,1.7-1.3,2.9-2.8,2.9c-1.6,0-2.9-1.2-2.9-2.9c0-1.5,1.3-2.7,2.9-2.7
	C1242.2,252.3,1243.5,253.5,1243.5,255z"/>
<text transform="matrix(1 0 0 1 1228.2855 265.1902)" class="st3 st4">SP4836</text>
<rect x="266.7" y="349.8" class="st18" width="18.7" height="6"/>
<rect x="266.7" y="349.8" class="st18" width="18.5" height="6"/>
<g>
	<text transform="matrix(1 0 0 1 268.6023 354.754)" class="st3 st4">G/Y 0.35</text>
</g>
<rect x="266.7" y="219.5" class="st18" width="18.7" height="6"/>
<rect x="266.7" y="219.5" class="st18" width="18.5" height="6"/>
<g>
	<text transform="matrix(1 0 0 1 268.6023 224.2765)" class="st3 st4">G/Y 0.35</text>
</g>
<rect x="1140.8" y="667.9" class="st18" width="6.4" height="6"/>
<g>
	<text transform="matrix(1 0 0 1 1130.3951 672.8545)" class="st3 st4">G/Y 0.35</text>
</g>
<rect x="1112.9" y="252.1" class="st18" width="25.9" height="6"/>
<text transform="matrix(1 0 0 1 1113.1782 257.0259)" class="st3 st4">R/L 0.35</text>
<rect x="1199.9" y="252.1" class="st18" width="25.9" height="6"/>
<text transform="matrix(1 0 0 1 1200.1782 257.0259)" class="st3 st4">R/L 0.35</text>
<g>
	<rect x="1160" y="250.3" class="st18" width="18.8" height="8.5"/>
	<g>
		<g>
			<line class="st26" x1="1170.1" y1="254.4" x2="1178.4" y2="254.4"/>
		</g>
		<g>
			<line class="st27" x1="1167" y1="254.6" x2="1160.5" y2="254.6"/>
		</g>
		<g>
			<g>
				<g>
					<path class="st18" d="M1167.1,254.5c0-1.7,1.4-3.2,3.2-3.2s3.2,1.5,3.2,3.2c0,1.8-1.4,3.2-3.2,3.2S1167.1,256.3,1167.1,254.5z"
						/>
					<path d="M1166.4,254.5c0-2,1.8-3.7,3.8-3.7v1.1c-1.4,0-2.5,1.1-2.5,2.5c0,1.5,1.1,2.7,2.5,2.7v1.1
						C1168.2,258.3,1166.4,256.7,1166.4,254.5L1166.4,254.5z M1170.3,250.9v1.1c1.4,0,2.5,1.1,2.5,2.5c0,1.5-1.1,2.7-2.5,2.7v1.1
						c2.2,0,3.8-1.6,3.8-3.8C1174.1,252.5,1172.4,250.9,1170.3,250.9z"/>
				</g>
				<rect x="1170.4" y="250.3" class="st18" width="4.1" height="8.5"/>
				<rect x="1169.4" y="253.9" width="4.2" height="1"/>
				<rect x="1169.4" y="253.9" class="st19" width="4.2" height="1"/>
			</g>
		</g>
	</g>
</g>
<g>
	<rect x="1307" y="250.3" class="st18" width="18.8" height="8.5"/>
	<g>
		<g>
			<line class="st26" x1="1317.1" y1="254.4" x2="1325.4" y2="254.4"/>
		</g>
		<g>
			<line class="st27" x1="1314" y1="254.6" x2="1307.5" y2="254.6"/>
		</g>
		<g>
			<g>
				<g>
					<path class="st18" d="M1314.1,254.5c0-1.7,1.4-3.2,3.2-3.2s3.2,1.5,3.2,3.2c0,1.8-1.4,3.2-3.2,3.2S1314.1,256.3,1314.1,254.5z"
						/>
					<path d="M1313.4,254.5c0-2,1.8-3.7,3.8-3.7v1.1c-1.4,0-2.5,1.1-2.5,2.5c0,1.5,1.1,2.7,2.5,2.7v1.1
						C1315.2,258.3,1313.4,256.7,1313.4,254.5L1313.4,254.5z M1317.3,250.9v1.1c1.4,0,2.5,1.1,2.5,2.5c0,1.5-1.1,2.7-2.5,2.7v1.1
						c2.2,0,3.8-1.6,3.8-3.8C1321.1,252.5,1319.4,250.9,1317.3,250.9z"/>
				</g>
				<rect x="1317.4" y="250.3" class="st18" width="4.1" height="8.5"/>
				<rect x="1316.4" y="253.9" width="4.2" height="1"/>
				<rect x="1316.4" y="253.9" class="st19" width="4.2" height="1"/>
			</g>
		</g>
	</g>
</g>
<g>
	<text transform="matrix(1 0 0 1 247.3026 735.2997)" class="st3 st4">See Intelligent Access Network - Circuit Diagram</text>
</g>
<path class="st36" d="M279.3,719.1l0.5,2.1c0,0,0.5,2.5,2.7,2.6h31.3l0,0l1.6,2.7l1.6-2.7c7.4,0,31.2,0,31.2,0
	c2.2-0.1,2.7-2.6,2.7-2.6l0.5-2.1"/>
<polyline class="st9" points="613.2,428.3 613.2,562 515.8,562 482.2,562 482.2,562 "/>
<polyline class="st30" points="613.2,428.3 613.2,562 515.8,562 482.2,562 482.2,562 "/>
<polygon class="st34" points="709.2,419.6 580.2,419.6 580.2,419.5 580.2,387.1 709.2,387.1 "/>
<g>
	<g>
		<line class="st17" x1="613.1" y1="378.8" x2="613.1" y2="387"/>
	</g>
	<g>
		<path class="st18" d="M613,375.7c1.7,0,3,1.4,3,3c0,1.8-1.4,3.2-3,3.2c-1.8,0-3.2-1.4-3.2-3.2C609.9,377.1,611.2,375.7,613,375.7z
			"/>
		<path d="M613,375.1c2,0,3.7,1.6,3.7,3.7c0,2.2-1.7,3.8-3.7,3.8v-1.1c1.4,0,2.5-1.1,2.5-2.7c0-1.4-1.1-2.5-2.5-2.5V375.1L613,375.1
			z M613,382.6v-1.1c-1.5,0-2.7-1.1-2.7-2.7c0-1.4,1.1-2.5,2.7-2.5v-1.1c-2.2,0-3.8,1.6-3.8,3.7C609.2,380.9,610.9,382.6,613,382.6z
			"/>
	</g>
	<rect x="608.7" y="378.9" class="st18" width="8.5" height="4.1"/>
	<rect x="612.6" y="377.9" width="1" height="4.2"/>
	<rect x="612.6" y="377.9" class="st19" width="1" height="4.2"/>
</g>
<line class="st11" x1="905.3" y1="254.6" x2="905.3" y2="376.8"/>
<line class="st12" x1="905.3" y1="254.6" x2="905.3" y2="376.8"/>
<polygon class="st34" points="1015,419.6 894.8,419.6 894.8,419.5 894.8,387.1 1015,387.1 "/>
<g>
	<g>
		<line class="st17" x1="905.7" y1="378.9" x2="905.7" y2="387.1"/>
	</g>
	<g>
		<path class="st18" d="M905.6,375.8c1.7,0,3,1.4,3,3c0,1.8-1.4,3.2-3,3.2c-1.8,0-3.2-1.4-3.2-3.2
			C902.5,377.2,903.9,375.8,905.6,375.8z"/>
		<path d="M905.6,375.2c2,0,3.7,1.6,3.7,3.7c0,2.2-1.7,3.8-3.7,3.8v-1.1c1.4,0,2.5-1.1,2.5-2.7c0-1.4-1.1-2.5-2.5-2.5V375.2
			L905.6,375.2z M905.6,382.7v-1.1c-1.5,0-2.7-1.1-2.7-2.7c0-1.4,1.1-2.5,2.7-2.5v-1.1c-2.2,0-3.8,1.6-3.8,3.7
			C901.8,381,903.5,382.7,905.6,382.7z"/>
	</g>
	<rect x="901.3" y="379" class="st18" width="8.5" height="4.1"/>
	<rect x="905.3" y="378" width="1" height="4.2"/>
	<rect x="905.3" y="378" class="st19" width="1" height="4.2"/>
</g>
<rect x="897.2" y="349.9" class="st18" width="14.3" height="6"/>
<text transform="matrix(1 0 0 1 891.5733 354.754)" class="st3 st4">R/L 0.35</text>
<g>
	<g>
		<line class="st17" x1="905.6" y1="427.8" x2="905.6" y2="419.6"/>
	</g>
	<g>
		<path class="st18" d="M905.7,430.9c-1.7,0-3-1.4-3-3c0-1.8,1.4-3.2,3-3.2c1.8,0,3.2,1.4,3.2,3.2
			C908.8,429.5,907.4,430.9,905.7,430.9z"/>
		<path d="M905.7,431.5c-2,0-3.7-1.6-3.7-3.7c0-2.2,1.7-3.8,3.7-3.8v1.1c-1.4,0-2.5,1.1-2.5,2.7c0,1.4,1.1,2.5,2.5,2.5V431.5
			L905.7,431.5z M905.7,424v1.1c1.5,0,2.7,1.1,2.7,2.7c0,1.4-1.1,2.5-2.7,2.5v1.1c2.2,0,3.8-1.6,3.8-3.7
			C909.5,425.7,907.8,424,905.7,424z"/>
	</g>
	<rect x="901.5" y="423.6" class="st18" width="8.5" height="4.1"/>
	<rect x="905" y="424.5" width="1" height="4.2"/>
	<rect x="905" y="424.5" class="st19" width="1" height="4.2"/>
</g>
<rect x="902.6" y="448.8" class="st18" width="6.4" height="6"/>
<g>
	<text transform="matrix(1 0 0 1 898.1976 453.7755)" class="st3 st4">B 0.35</text>
</g>
<g>
	<text transform="matrix(1 0 0 1 900.796 391.9207)" class="st3 st35">Power supply</text>
</g>
<g>
	<text transform="matrix(1 0 0 1 900.7964 417.5457)" class="st3 st35">Ground</text>
</g>
<g>
	<g>
		<line class="st17" x1="962.6" y1="427.8" x2="962.6" y2="419.6"/>
	</g>
	<g>
		<path class="st18" d="M962.7,430.9c-1.7,0-3-1.4-3-3c0-1.8,1.4-3.2,3-3.2c1.8,0,3.2,1.4,3.2,3.2
			C965.8,429.5,964.4,430.9,962.7,430.9z"/>
		<path d="M962.7,431.5c-2,0-3.7-1.6-3.7-3.7c0-2.2,1.7-3.8,3.7-3.8v1.1c-1.4,0-2.5,1.1-2.5,2.7c0,1.4,1.1,2.5,2.5,2.5V431.5
			L962.7,431.5z M962.7,424v1.1c1.5,0,2.7,1.1,2.7,2.7c0,1.4-1.1,2.5-2.7,2.5v1.1c2.2,0,3.8-1.6,3.8-3.7
			C966.5,425.7,964.8,424,962.7,424z"/>
	</g>
	<rect x="958.5" y="423.6" class="st18" width="8.5" height="4.1"/>
	<rect x="962" y="424.5" width="1" height="4.2"/>
	<rect x="962" y="424.5" class="st19" width="1" height="4.2"/>
</g>
<rect x="959.6" y="448.8" class="st18" width="6.4" height="6"/>
<g>
	<text transform="matrix(1 0 0 1 949.1976 453.7755)" class="st3 st4">G/Y 0.35</text>
</g>
<g>
	<text transform="matrix(1 0 0 1 957.7964 417.5457)" class="st3 st35">LIN3</text>
</g>
<rect x="605" y="349.8" class="st18" width="14.3" height="6"/>
<text transform="matrix(1 0 0 1 599.2817 354.6566)" class="st3 st4">R/L 0.35</text>
<g>
	<text transform="matrix(1 0 0 1 608.5043 391.8232)" class="st3 st35">Power supply</text>
</g>
<g>
	<g>
		<line class="st17" x1="613.2" y1="428.3" x2="613.2" y2="420.1"/>
	</g>
	<g>
		<path class="st18" d="M613.2,431.4c-1.7,0-3-1.4-3-3c0-1.8,1.4-3.2,3-3.2c1.8,0,3.2,1.4,3.2,3.2C616.4,430,615,431.4,613.2,431.4z
			"/>
		<path d="M613.2,432c-2,0-3.7-1.6-3.7-3.7c0-2.2,1.7-3.8,3.7-3.8v1.1c-1.4,0-2.5,1.1-2.5,2.7c0,1.4,1.1,2.5,2.5,2.5V432L613.2,432z
			 M613.2,424.5v1.1c1.5,0,2.7,1.1,2.7,2.7c0,1.4-1.1,2.5-2.7,2.5v1.1c2.2,0,3.8-1.6,3.8-3.7C617,426.2,615.4,424.5,613.2,424.5z"/>
	</g>
	<rect x="609.1" y="424.1" class="st18" width="8.5" height="4.1"/>
	<rect x="612.6" y="425" width="1" height="4.2"/>
	<rect x="612.6" y="425" class="st19" width="1" height="4.2"/>
</g>
<rect x="610.2" y="446.5" class="st18" width="6.4" height="6"/>
<g>
	<text transform="matrix(1 0 0 1 599.7809 451.2374)" class="st3 st4">G/W 0.35</text>
</g>
<g>
	<text transform="matrix(1 0 0 1 608.3797 418.1355)" class="st3 st35">LIN2</text>
</g>
<g>
	<g>
		<line class="st17" x1="670.6" y1="427.8" x2="670.6" y2="419.6"/>
	</g>
	<g>
		<path class="st18" d="M670.7,430.9c-1.7,0-3-1.4-3-3c0-1.8,1.4-3.2,3-3.2c1.8,0,3.2,1.4,3.2,3.2
			C673.9,429.5,672.5,430.9,670.7,430.9z"/>
		<path d="M670.7,431.5c-2,0-3.7-1.6-3.7-3.7c0-2.2,1.7-3.8,3.7-3.8v1.1c-1.4,0-2.5,1.1-2.5,2.7c0,1.4,1.1,2.5,2.5,2.5V431.5
			L670.7,431.5z M670.7,424v1.1c1.5,0,2.7,1.1,2.7,2.7c0,1.4-1.1,2.5-2.7,2.5v1.1c2.2,0,3.8-1.6,3.8-3.7
			C674.5,425.7,672.9,424,670.7,424z"/>
	</g>
	<rect x="666.5" y="423.7" class="st18" width="8.5" height="4.1"/>
	<rect x="670.1" y="424.5" width="1" height="4.2"/>
	<rect x="670.1" y="424.5" class="st19" width="1" height="4.2"/>
</g>
<rect x="667.6" y="446.5" class="st18" width="6.4" height="6"/>
<g>
	<text transform="matrix(1 0 0 1 663.2537 451.2375)" class="st3 st4">B 0.35</text>
</g>
<g>
	<text transform="matrix(1 0 0 1 665.8525 417.5458)" class="st3 st35">Ground</text>
</g>
<rect x="486.4" y="552.5" class="st14" width="25.3" height="5.6"/>
<text transform="matrix(1 0 0 1 487.1592 557.3651)" class="st3 st4">SP4830</text>
<path class="st15" d="M485.4,561.9c-0.2,1.5-1.4,2.5-2.8,2.5c-1.6,0-2.9-1.2-2.9-2.9c0-1.6,1.4-2.9,3.2-2.7
	C484.4,558.9,485.6,560.4,485.4,561.9z"/>
<rect x="405.8" y="529.1" class="st18" width="6.4" height="6"/>
<g>
	<text transform="matrix(1 0 0 1 395.4059 533.8624)" class="st3 st4">G/W 0.35</text>
</g>
<g>
	<rect x="676.3" y="216.3" class="st18" width="18.8" height="8.5"/>
	<g>
		<g>
			<line class="st26" x1="686.4" y1="220.4" x2="694.6" y2="220.4"/>
		</g>
		<g>
			<line class="st27" x1="683.2" y1="220.6" x2="676.7" y2="220.6"/>
		</g>
		<g>
			<g>
				<g>
					<path class="st18" d="M683.3,220.5c0-1.7,1.4-3.2,3.2-3.2s3.2,1.5,3.2,3.2c0,1.8-1.4,3.2-3.2,3.2S683.3,222.3,683.3,220.5z"/>
					<path d="M682.7,220.5c0-2,1.8-3.7,3.8-3.7v1.1c-1.4,0-2.5,1.1-2.5,2.5c0,1.5,1.1,2.7,2.5,2.7v1.1
						C684.5,224.3,682.7,222.6,682.7,220.5L682.7,220.5z M686.5,216.8v1.1c1.4,0,2.5,1.1,2.5,2.5c0,1.5-1.1,2.7-2.5,2.7v1.1
						c2.2,0,3.8-1.6,3.8-3.8C690.3,218.5,688.7,216.8,686.5,216.8z"/>
				</g>
				<rect x="686.6" y="216.3" class="st18" width="4.1" height="8.5"/>
				<rect x="685.6" y="219.9" width="4.2" height="1"/>
				<rect x="685.6" y="219.9" class="st19" width="4.2" height="1"/>
			</g>
		</g>
	</g>
</g>
<rect x="635.7" y="218.4" class="st18" width="27.2" height="6"/>
<text transform="matrix(1 0 0 1 636.6049 222.7418)" class="st3 st4">R/L 0.35</text>
<rect x="705.7" y="218.4" class="st18" width="27.2" height="6"/>
<text transform="matrix(1 0 0 1 706.6049 222.7418)" class="st3 st4">R/L 0.35</text>
<rect x="601.1" y="209.4" class="st14" width="25.3" height="6"/>
<text transform="matrix(1 0 0 1 601.6579 214.3466)" class="st3 st4">SP4829</text>
<path class="st15" d="M615.8,220.6c-0.2,1.5-1.4,2.5-2.8,2.5c-1.6,0-2.9-1.2-2.9-2.9c0-1.6,1.4-2.9,3.2-2.7
	C614.8,217.7,616,219.1,615.8,220.6z"/>
<g>
	<rect x="964.5" y="250.7" class="st18" width="18.8" height="8.5"/>
	<g>
		<g>
			<line class="st26" x1="974.6" y1="254.8" x2="982.9" y2="254.8"/>
		</g>
		<g>
			<line class="st27" x1="971.5" y1="255" x2="965" y2="255"/>
		</g>
		<g>
			<g>
				<g>
					<path class="st18" d="M971.6,254.9c0-1.7,1.4-3.2,3.2-3.2s3.2,1.5,3.2,3.2c0,1.8-1.4,3.2-3.2,3.2S971.6,256.7,971.6,254.9z"/>
					<path d="M971,254.9c0-2,1.8-3.7,3.8-3.7v1.1c-1.4,0-2.5,1.1-2.5,2.5c0,1.5,1.1,2.7,2.5,2.7v1.1
						C972.7,258.7,971,257.1,971,254.9L971,254.9z M974.8,251.2v1.1c1.4,0,2.5,1.1,2.5,2.5c0,1.5-1.1,2.7-2.5,2.7v1.1
						c2.2,0,3.8-1.6,3.8-3.8C978.6,252.9,976.9,251.2,974.8,251.2z"/>
				</g>
				<rect x="974.9" y="250.7" class="st18" width="4.1" height="8.5"/>
				<rect x="973.9" y="254.3" width="4.2" height="1"/>
				<rect x="973.9" y="254.3" class="st19" width="4.2" height="1"/>
			</g>
		</g>
	</g>
</g>
<rect x="923.9" y="252.9" class="st18" width="27.2" height="6"/>
<text transform="matrix(1 0 0 1 924.8549 257.1722)" class="st3 st4">R/L 0.35</text>
<rect x="993.9" y="252.9" class="st18" width="27.2" height="6"/>
<text transform="matrix(1 0 0 1 994.8548 257.1722)" class="st3 st4">R/L 0.35</text>
<rect x="893.3" y="243.9" class="st14" width="25.3" height="5.9"/>
<text transform="matrix(1 0 0 1 893.6944 248.8674)" class="st3 st4">SP4828</text>
<path class="st15" d="M908,255.1c-0.2,1.5-1.4,2.5-2.8,2.5c-1.6,0-2.9-1.2-2.9-2.9c0-1.6,1.4-2.9,3.2-2.7
	C907,252.2,908.1,253.6,908,255.1z"/>
<rect x="977.4" y="642.8" class="st18" width="27.1" height="6"/>
<g>
	<text transform="matrix(1 0 0 1 977.6559 647.8423)" class="st3 st4">G/Y 0.35</text>
</g>
<rect x="1052.4" y="642.8" class="st18" width="27.3" height="6"/>
<g>
	<rect x="1020.7" y="641.5" class="st18" width="18.8" height="8.5"/>
	<g>
		<g>
			<line class="st26" x1="1030.8" y1="645.6" x2="1039.1" y2="645.6"/>
		</g>
		<g>
			<line class="st27" x1="1027.7" y1="645.8" x2="1021.2" y2="645.8"/>
		</g>
		<g>
			<g>
				<g>
					<path class="st18" d="M1027.8,645.7c0-1.7,1.4-3.2,3.2-3.2c1.8,0,3.2,1.5,3.2,3.2c0,1.8-1.4,3.2-3.2,3.2
						C1029.2,648.9,1027.8,647.5,1027.8,645.7z"/>
					<path d="M1027.2,645.7c0-2,1.8-3.7,3.8-3.7v1.1c-1.4,0-2.5,1.1-2.5,2.5c0,1.5,1.1,2.7,2.5,2.7v1.1
						C1028.9,649.5,1027.2,647.9,1027.2,645.7L1027.2,645.7z M1031,642v1.1c1.4,0,2.5,1.1,2.5,2.5c0,1.5-1.1,2.7-2.5,2.7v1.1
						c2.2,0,3.8-1.6,3.8-3.8C1034.8,643.7,1033.1,642,1031,642z"/>
				</g>
				<rect x="1031.1" y="641.5" class="st18" width="4.1" height="8.5"/>
				<rect x="1030.1" y="645.1" width="4.2" height="1"/>
				<rect x="1030.1" y="645.1" class="st19" width="4.2" height="1"/>
			</g>
		</g>
	</g>
</g>
<rect x="950.1" y="649.5" class="st14" width="25.3" height="6.1"/>
<path class="st15" d="M965.6,645.9c-0.2,1.5-1.4,2.5-2.8,2.5c-1.6,0-2.9-1.2-2.9-2.9c0-1.6,1.4-2.9,3.2-2.7
	C964.6,643,965.8,644.4,965.6,645.9z"/>
<text transform="matrix(1 0 0 1 950.5313 654.6675)" class="st3 st4">SP4849</text>
<rect x="1266.6" y="251.6" class="st18" width="25.9" height="6"/>
<text transform="matrix(1 0 0 1 1266.9282 256.5259)" class="st3 st4">R/L 0.35</text>
<rect x="1344.7" y="251.6" class="st18" width="25.9" height="6"/>
<text transform="matrix(1 0 0 1 1344.9282 256.5259)" class="st3 st4">R/L 0.35</text>
<rect x="1408.5" y="304.7" class="st14" width="25.3" height="6"/>
<path class="st15" d="M1407.1,307.6c0,1.7-1.3,2.9-2.8,2.9c-1.6,0-2.9-1.2-2.9-2.9c0-1.5,1.3-2.7,2.9-2.7
	C1405.8,304.9,1407.1,306.1,1407.1,307.6z"/>
<text transform="matrix(1 0 0 1 1409.2423 309.9495)" class="st3 st4">SP4832</text>
<rect x="1465.4" y="322.7" class="st14" width="25.3" height="6"/>
<path class="st15" d="M1464,325.6c0,1.7-1.3,2.9-2.8,2.9c-1.6,0-2.9-1.2-2.9-2.9c0-1.5,1.3-2.7,2.9-2.7
	C1462.7,322.9,1464,324.1,1464,325.6z"/>
<text transform="matrix(1 0 0 1 1466.1307 327.9868)" class="st3 st4">SP4833</text>
<polyline class="st8" points="1605.1,428.8 1605,501.9 1754.7,501.9 "/>
<g>
	<g>
		<line class="st17" x1="1605.1" y1="427.8" x2="1605.1" y2="419.6"/>
	</g>
	<g>
		<path class="st18" d="M1605.2,430.9c-1.7,0-3-1.4-3-3c0-1.8,1.4-3.2,3-3.2c1.8,0,3.2,1.4,3.2,3.2
			C1608.3,429.5,1606.9,430.9,1605.2,430.9z"/>
		<path d="M1605.2,431.5c-2,0-3.7-1.6-3.7-3.7c0-2.2,1.7-3.8,3.7-3.8v1.1c-1.4,0-2.5,1.1-2.5,2.7c0,1.4,1.1,2.5,2.5,2.5V431.5
			L1605.2,431.5z M1605.2,424v1.1c1.5,0,2.7,1.1,2.7,2.7c0,1.4-1.1,2.5-2.7,2.5v1.1c2.2,0,3.8-1.6,3.8-3.7
			C1609,425.7,1607.3,424,1605.2,424z"/>
	</g>
	<rect x="1601" y="423.6" class="st18" width="8.5" height="4.1"/>
	<rect x="1604.5" y="424.5" width="1" height="4.2"/>
	<rect x="1604.5" y="424.5" class="st19" width="1" height="4.2"/>
</g>
<rect x="1602.1" y="449" class="st18" width="6.4" height="6"/>
<g>
	<text transform="matrix(1 0 0 1 1597.6937 453.7755)" class="st3 st4">B 0.35</text>
</g>
<polyline class="st9" points="1698.4,430.9 1698.4,645.6 1548.4,645.6 "/>
<polyline class="st10" points="1698.4,430.9 1698.4,645.6 1548.4,645.6 "/>
<polyline class="st11" points="1698.3,376.8 1698.3,219.7 1548.3,219.7 "/>
<polyline class="st12" points="1698.3,376.8 1698.3,219.7 1548.3,219.7 "/>
<rect x="1690.7" y="349.9" class="st18" width="14.3" height="6"/>
<text transform="matrix(1 0 0 1 1685.0405 354.754)" class="st3 st4">R/L 0.35</text>
<g>
	<g>
		<line class="st17" x1="1698.2" y1="378.9" x2="1698.2" y2="387.1"/>
	</g>
	<g>
		<path class="st18" d="M1698.1,375.8c1.7,0,3,1.4,3,3c0,1.8-1.4,3.2-3,3.2c-1.8,0-3.2-1.4-3.2-3.2
			C1694.9,377.2,1696.3,375.8,1698.1,375.8z"/>
		<path d="M1698.1,375.2c2,0,3.7,1.6,3.7,3.7c0,2.2-1.7,3.8-3.7,3.8v-1.1c1.4,0,2.5-1.1,2.5-2.7c0-1.4-1.1-2.5-2.5-2.5V375.2
			L1698.1,375.2z M1698.1,382.7v-1.1c-1.5,0-2.7-1.1-2.7-2.7c0-1.4,1.1-2.5,2.7-2.5v-1.1c-2.2,0-3.8,1.6-3.8,3.7
			C1694.3,381,1695.9,382.7,1698.1,382.7z"/>
	</g>
	<rect x="1693.8" y="379" class="st18" width="8.5" height="4.1"/>
	<rect x="1697.7" y="378" width="1" height="4.2"/>
	<rect x="1697.7" y="378" class="st19" width="1" height="4.2"/>
</g>
<g>
	<g>
		<line class="st17" x1="1698.2" y1="427.8" x2="1698.2" y2="419.6"/>
	</g>
	<g>
		<path class="st18" d="M1698.3,430.9c-1.7,0-3-1.4-3-3c0-1.8,1.4-3.2,3-3.2c1.8,0,3.2,1.4,3.2,3.2
			C1701.5,429.5,1700.1,430.9,1698.3,430.9z"/>
		<path d="M1698.3,431.5c-2,0-3.7-1.6-3.7-3.7c0-2.2,1.7-3.8,3.7-3.8v1.1c-1.4,0-2.5,1.1-2.5,2.7c0,1.4,1.1,2.5,2.5,2.5V431.5
			L1698.3,431.5z M1698.3,424v1.1c1.5,0,2.7,1.1,2.7,2.7c0,1.4-1.1,2.5-2.7,2.5v1.1c2.2,0,3.8-1.6,3.8-3.7
			C1702.1,425.7,1700.4,424,1698.3,424z"/>
	</g>
	<rect x="1694.1" y="423.6" class="st18" width="8.5" height="4.1"/>
	<rect x="1697.6" y="424.5" width="1" height="4.2"/>
	<rect x="1697.6" y="424.5" class="st19" width="1" height="4.2"/>
</g>
<rect x="1695.2" y="449" class="st18" width="6.4" height="6"/>
<g>
	<text transform="matrix(1 0 0 1 1684.821 453.7755)" class="st3 st4">G/Y 0.35</text>
</g>
<line class="st8" x1="1755.1" y1="428.8" x2="1755" y2="785"/>
<g>
	<g>
		<line class="st17" x1="1755.1" y1="427.8" x2="1755.1" y2="419.6"/>
	</g>
	<g>
		<path class="st18" d="M1755.2,430.9c-1.7,0-3-1.4-3-3c0-1.8,1.4-3.2,3-3.2c1.8,0,3.2,1.4,3.2,3.2
			C1758.3,429.5,1756.9,430.9,1755.2,430.9z"/>
		<path d="M1755.2,431.5c-2,0-3.7-1.6-3.7-3.7c0-2.2,1.7-3.8,3.7-3.8v1.1c-1.4,0-2.5,1.1-2.5,2.7c0,1.4,1.1,2.5,2.5,2.5V431.5
			L1755.2,431.5z M1755.2,424v1.1c1.5,0,2.7,1.1,2.7,2.7c0,1.4-1.1,2.5-2.7,2.5v1.1c2.2,0,3.8-1.6,3.8-3.7
			C1759,425.7,1757.3,424,1755.2,424z"/>
	</g>
	<rect x="1751" y="423.6" class="st18" width="8.5" height="4.1"/>
	<rect x="1754.5" y="424.5" width="1" height="4.2"/>
	<rect x="1754.5" y="424.5" class="st19" width="1" height="4.2"/>
</g>
<rect x="1752.1" y="449" class="st18" width="6.4" height="6"/>
<g>
	<text transform="matrix(1 0 0 1 1747.6937 453.7755)" class="st3 st4">B 0.35</text>
</g>
<rect x="1752.1" y="729.3" class="st18" width="6.4" height="6"/>
<g>
	<text transform="matrix(1 0 0 1 1747.6937 734.1202)" class="st3 st4">B 0.75</text>
</g>
<g id="GB031_4_">
	<g>
		<g>
			<line class="st28" x1="1754.9" y1="783.7" x2="1754.9" y2="786.3"/>
		</g>
		<g>
			<line class="st28" x1="1747.8" y1="786.3" x2="1761.6" y2="786.3"/>
		</g>
		<g>
			<line class="st28" x1="1750.6" y1="788.6" x2="1758.8" y2="788.6"/>
		</g>
		<g>
			<line class="st28" x1="1757.2" y1="790.7" x2="1752.4" y2="790.7"/>
		</g>
	</g>
	<g>
		<rect x="1744.4" y="793.1" class="st18" width="20.3" height="8.2"/>
		<rect x="1744.7" y="793.5" class="st29" width="19.7" height="7.6"/>
	</g>
</g>
<rect x="1761.2" y="498.9" class="st14" width="25.3" height="5.6"/>
<text transform="matrix(1 0 0 1 1761.8979 503.8237)" class="st3 st4">SP4860</text>
<path class="st15" d="M1757.8,501.8c0,1.7-1.3,2.9-2.8,2.9c-1.6,0-2.9-1.2-2.9-2.9c0-1.5,1.3-2.7,2.9-2.7
	C1756.5,499.1,1757.8,500.3,1757.8,501.8z"/>
<rect x="1761.6" y="693.9" class="st14" width="25.3" height="5.6"/>
<text transform="matrix(1 0 0 1 1762.2743 698.8237)" class="st3 st4">SP4862</text>
<path class="st15" d="M1758.1,696.8c0,1.7-1.3,2.9-2.8,2.9c-1.6,0-2.9-1.2-2.9-2.9c0-1.5,1.3-2.7,2.9-2.7
	C1756.8,694.1,1758.1,695.3,1758.1,696.8z"/>
<rect x="1752" y="525.2" class="st18" width="6.4" height="6"/>
<g>
	<text transform="matrix(1 0 0 1 1749.0569 530.0176)" class="st3 st4">B 1.0</text>
</g>
<rect x="1751" y="667.9" class="st18" width="6.4" height="6"/>
<g>
	<text transform="matrix(1 0 0 1 1748.0706 672.8541)" class="st3 st4">B 1.0</text>
</g>
<g>
	<rect x="1751.2" y="562" class="st18" width="8.5" height="18.8"/>
	<g>
		<g>
			<line class="st26" x1="1755.3" y1="570.7" x2="1755.3" y2="562.4"/>
		</g>
		<g>
			<line class="st27" x1="1755.4" y1="573.8" x2="1755.4" y2="580.3"/>
		</g>
		<g>
			<g>
				<g>
					<path class="st18" d="M1755.3,573.7c-1.7,0-3.2-1.4-3.2-3.2s1.5-3.2,3.2-3.2c1.8,0,3.2,1.4,3.2,3.2S1757.1,573.7,1755.3,573.7z
						"/>
					<path d="M1755.3,574.4c-2,0-3.7-1.8-3.7-3.8h1.1c0,1.4,1.1,2.5,2.5,2.5c1.5,0,2.7-1.1,2.7-2.5h1.1
						C1759.2,572.6,1757.5,574.4,1755.3,574.4L1755.3,574.4z M1751.7,570.5h1.1c0-1.4,1.1-2.5,2.5-2.5c1.5,0,2.7,1.1,2.7,2.5h1.1
						c0-2.2-1.6-3.8-3.8-3.8C1753.3,566.7,1751.7,568.4,1751.7,570.5z"/>
				</g>
				<rect x="1751.2" y="566.4" class="st18" width="8.5" height="4.1"/>
				<rect x="1754.7" y="567.2" width="1" height="4.2"/>
				<rect x="1754.7" y="567.2" class="st19" width="1" height="4.2"/>
			</g>
		</g>
	</g>
</g>
<rect x="1534.8" y="209.9" class="st14" width="25.3" height="6"/>
<path class="st15" d="M1551.1,220c0,1.7-1.3,2.9-2.8,2.9c-1.6,0-2.9-1.2-2.9-2.9c0-1.5,1.3-2.7,2.9-2.7
	C1549.8,217.3,1551.1,218.5,1551.1,220z"/>
<text transform="matrix(1 0 0 1 1535.5333 215.212)" class="st3 st4">SP4834</text>
<g>
	<rect x="1308" y="215.7" class="st18" width="18.8" height="8.5"/>
	<g>
		<g>
			<line class="st26" x1="1318.1" y1="219.7" x2="1326.4" y2="219.7"/>
		</g>
		<g>
			<line class="st27" x1="1315" y1="219.9" x2="1308.5" y2="219.9"/>
		</g>
		<g>
			<g>
				<g>
					<path class="st18" d="M1315.1,219.8c0-1.7,1.4-3.2,3.2-3.2s3.2,1.5,3.2,3.2c0,1.8-1.4,3.2-3.2,3.2S1315.1,221.6,1315.1,219.8z"
						/>
					<path d="M1314.4,219.8c0-2,1.8-3.7,3.8-3.7v1.1c-1.4,0-2.5,1.1-2.5,2.5c0,1.5,1.1,2.7,2.5,2.7v1.1
						C1316.2,223.7,1314.4,222,1314.4,219.8L1314.4,219.8z M1318.3,216.2v1.1c1.4,0,2.5,1.1,2.5,2.5c0,1.5-1.1,2.7-2.5,2.7v1.1
						c2.2,0,3.8-1.6,3.8-3.8C1322.1,217.8,1320.4,216.2,1318.3,216.2z"/>
				</g>
				<rect x="1318.4" y="215.7" class="st18" width="4.1" height="8.5"/>
				<rect x="1317.4" y="219.2" width="4.2" height="1"/>
				<rect x="1317.4" y="219.2" class="st19" width="4.2" height="1"/>
			</g>
		</g>
	</g>
</g>
<rect x="1266.6" y="217.2" class="st18" width="25.9" height="6"/>
<text transform="matrix(1 0 0 1 1266.9282 222.1648)" class="st3 st4">R/L 0.35</text>
<rect x="1344.7" y="216.9" class="st18" width="25.9" height="6"/>
<text transform="matrix(1 0 0 1 1344.9282 221.8342)" class="st3 st4">R/L 0.35</text>
<rect x="1274.1" y="642.8" class="st18" width="27.1" height="6"/>
<g>
	<text transform="matrix(1 0 0 1 1274.3163 647.8423)" class="st3 st4">G/Y 0.35</text>
</g>
<rect x="1349.1" y="642.8" class="st18" width="27.1" height="6"/>
<g>
	<text transform="matrix(1 0 0 1 1349.3163 647.8423)" class="st3 st4">G/Y 0.35</text>
</g>
<g>
	<rect x="1317.4" y="641.5" class="st18" width="18.8" height="8.5"/>
	<g>
		<g>
			<line class="st26" x1="1327.5" y1="645.6" x2="1335.8" y2="645.6"/>
		</g>
		<g>
			<line class="st27" x1="1324.3" y1="645.8" x2="1317.9" y2="645.8"/>
		</g>
		<g>
			<g>
				<g>
					<path class="st18" d="M1324.5,645.7c0-1.7,1.4-3.2,3.2-3.2c1.8,0,3.2,1.5,3.2,3.2c0,1.8-1.4,3.2-3.2,3.2
						S1324.5,647.5,1324.5,645.7z"/>
					<path d="M1323.8,645.7c0-2,1.8-3.7,3.8-3.7v1.1c-1.4,0-2.5,1.1-2.5,2.5c0,1.5,1.1,2.7,2.5,2.7v1.1
						C1325.6,649.5,1323.8,647.9,1323.8,645.7L1323.8,645.7z M1327.6,642v1.1c1.4,0,2.5,1.1,2.5,2.5c0,1.5-1.1,2.7-2.5,2.7v1.1
						c2.2,0,3.8-1.6,3.8-3.8C1331.4,643.7,1329.8,642,1327.6,642z"/>
				</g>
				<rect x="1327.8" y="641.5" class="st18" width="4.1" height="8.5"/>
				<rect x="1326.7" y="645.1" width="4.2" height="1"/>
				<rect x="1326.7" y="645.1" class="st19" width="4.2" height="1"/>
			</g>
		</g>
	</g>
</g>
<rect x="1439.1" y="642.8" class="st18" width="27.1" height="6"/>
<g>
	<text transform="matrix(1 0 0 1 1439.3163 647.8423)" class="st3 st4">G/Y 0.35</text>
</g>
<g>
	<rect x="1407.4" y="641.5" class="st18" width="18.8" height="8.5"/>
	<g>
		<g>
			<line class="st26" x1="1417.5" y1="645.6" x2="1425.8" y2="645.6"/>
		</g>
		<g>
			<line class="st27" x1="1414.3" y1="645.8" x2="1407.9" y2="645.8"/>
		</g>
		<g>
			<g>
				<g>
					<path class="st18" d="M1414.5,645.7c0-1.7,1.4-3.2,3.2-3.2c1.8,0,3.2,1.5,3.2,3.2c0,1.8-1.4,3.2-3.2,3.2
						S1414.5,647.5,1414.5,645.7z"/>
					<path d="M1413.8,645.7c0-2,1.8-3.7,3.8-3.7v1.1c-1.4,0-2.5,1.1-2.5,2.5c0,1.5,1.1,2.7,2.5,2.7v1.1
						C1415.6,649.5,1413.8,647.9,1413.8,645.7L1413.8,645.7z M1417.6,642v1.1c1.4,0,2.5,1.1,2.5,2.5c0,1.5-1.1,2.7-2.5,2.7v1.1
						c2.2,0,3.8-1.6,3.8-3.8C1421.4,643.7,1419.8,642,1417.6,642z"/>
				</g>
				<rect x="1417.8" y="641.5" class="st18" width="4.1" height="8.5"/>
				<rect x="1416.7" y="645.1" width="4.2" height="1"/>
				<rect x="1416.7" y="645.1" class="st19" width="4.2" height="1"/>
			</g>
		</g>
	</g>
</g>
<rect x="1553.9" y="635.4" class="st14" width="25.3" height="5.6"/>
<text transform="matrix(1 0 0 1 1554.6116 640.2866)" class="st3 st4">SP4835</text>
<path class="st15" d="M1551.4,645.9c-0.2,1.5-1.4,2.5-2.8,2.5c-1.6,0-2.9-1.2-2.9-2.9c0-1.6,1.4-2.9,3.2-2.7
	C1550.4,642.9,1551.6,644.3,1551.4,645.9z"/>
<g>
	<text transform="matrix(1 0 0 1 1053.057 647.8428)" class="st3 st4">G/Y 0.35</text>
</g>
<g>
	<path class="st34" d="M440,419.9H63V387h377c0,0-3.9,16.2,0,20.7S440,419.9,440,419.9z"/>
</g>
<g>
	<text transform="matrix(1 0 0 1 196.6758 392.0732)" class="st3 st35">IG3 power supply</text>
</g>
<g>
	<text transform="matrix(1 0 0 1 93.3345 392.0732)" class="st3 st35">Constant power</text>
</g>
<g>
	<text transform="matrix(1 0 0 1 343.6803 418.1353)" class="st3 st35">CAN_L</text>
</g>
<g>
	<text transform="matrix(1 0 0 1 273.9917 418.1351)" class="st3 st35">CAN_H</text>
</g>
<g>
	<text transform="matrix(1 0 0 1 88.7263 418.1824)" class="st3 st35">Power ground 1</text>
</g>
<g>
	<text transform="matrix(1 0 0 1 140.3929 418.1824)" class="st3 st35">Power ground 2</text>
</g>
<g>
	<text transform="matrix(1 0 0 1 192.6972 418.1824)" class="st3 st35">Signal ground</text>
</g>
<g>
	<g>
		<text transform="matrix(1 0 0 1 325.0218 392.1709)" class="st3 st35">Front ambient light power supply</text>
	</g>
</g>
<g>
	<g>
		<text transform="matrix(1 0 0 1 277.5521 391.9209)" class="st3 st35">LIN1</text>
	</g>
</g>
<g>
	<text transform="matrix(1 0 0 1 405.4191 418.1353)" class="st3 st35">LIN2</text>
</g>
<polygon class="st34" points="844.9,419.6 754.8,419.6 754.8,419.5 754.8,387.1 844.9,387.1 "/>
<g>
	<text transform="matrix(1 0 0 1 760.796 391.9207)" class="st3 st35">Power supply</text>
</g>
<g>
	<text transform="matrix(1 0 0 1 760.7964 417.5457)" class="st3 st35">Ground</text>
</g>
<g>
	<text transform="matrix(1 0 0 1 817.7964 417.5457)" class="st3 st35">LIN3</text>
</g>
<polygon class="st34" points="1770.7,419.6 1687.3,419.6 1687.3,419.5 1687.3,387.1 1770.7,387.1 "/>
<g>
	<text transform="matrix(1 0 0 1 1693.4194 391.9207)" class="st3 st35">Power supply</text>
</g>
<g>
	<text transform="matrix(1 0 0 1 1693.4198 417.5457)" class="st3 st35">LIN3</text>
</g>
<g>
	<text transform="matrix(1 0 0 1 1750.2925 417.5457)" class="st3 st35">Ground</text>
</g>
<polygon class="st34" points="1623.4,419.6 1537.3,419.6 1537.3,419.5 1537.3,387.1 1623.4,387.1 "/>
<g>
	<text transform="matrix(1 0 0 1 1543.4194 391.9207)" class="st3 st35">Power supply</text>
</g>
<g>
	<text transform="matrix(1 0 0 1 1543.4198 417.5457)" class="st3 st35">LIN3</text>
</g>
<g>
	<text transform="matrix(1 0 0 1 1600.2925 417.5457)" class="st3 st35">Ground</text>
</g>
<rect x="90.2" y="219" class="st18" width="12.7" height="6"/>
<g>
	<text transform="matrix(1 0 0 1 88.726 224.1873)" class="st3 st4">R 8.0</text>
</g>
<rect x="90.2" y="350" class="st18" width="12.7" height="6"/>
<rect x="90.3" y="350" class="st18" width="12.5" height="6"/>
<g>
	<text transform="matrix(1 0 0 1 88.7261 354.8298)" class="st3 st4">R 8.0</text>
</g>
<g>
	<text transform="matrix(1 0 0 1 203.8935 163.9756)" class="st37 st3 st4">F1/12</text>
</g>
<g>
	<text transform="matrix(1 0 0 1 101.0835 163.9756)" class="st37 st3 st4">F4/03</text>
</g>
<g>
	<text transform="matrix(1 0 0 1 24.3981 132.0326)" class="st37 st3 st4">Positive fuse box</text>
</g>
<g>
	<text transform="matrix(1 0 0 1 204.95 127.9597)" class="st38"><tspan x="0" y="0" class="st37 st3 st4">Front compartment</tspan><tspan x="0" y="7.2" class="st37 st3 st4"> electrical box</tspan></text>
</g>
<g>
	<text transform="matrix(1 0 0 1 204.0445 203.2333)" class="st37 st3 st4">B1D</text>
</g>
<g>
	<text transform="matrix(1 0 0 1 216.5445 203.2333)" class="st37 st3 st4">-9</text>
</g>
<g>
	<text transform="matrix(1 0 0 1 205.3873 384.4667)" class="st37 st3 st4">G64(G)</text>
</g>
<g>
	<text transform="matrix(1 0 0 1 226.6373 384.4667)" class="st37 st3 st4">-11</text>
</g>
<g>
	<text transform="matrix(1 0 0 1 100.7032 203.2333)" class="st37 st3 st4">B46_3</text>
</g>
<g>
	<text transform="matrix(1 0 0 1 119.2032 203.2333)" class="st37 st3 st4">-1</text>
</g>
<g>
	<text transform="matrix(1 0 0 1 286.4703 427.3477)" class="st37 st3 st4">G64(G)</text>
</g>
<g>
	<text transform="matrix(1 0 0 1 308.1578 427.3477)" class="st37 st3 st4">-52</text>
</g>
<g>
	<text transform="matrix(1 0 0 1 354.1387 427.3477)" class="st37 st3 st4">G64(G)</text>
</g>
<g>
	<text transform="matrix(1 0 0 1 375.8262 427.3477)" class="st37 st3 st4">-53</text>
</g>
<g>
	<text transform="matrix(1 0 0 1 205.3873 279.2958)" class="st37 st3 st4">BJG01</text>
</g>
<g>
	<text transform="matrix(1 0 0 1 205.3873 286.496)" class="st37 st3 st4">GJB01</text>
</g>
<g>
	<text transform="matrix(1 0 0 1 224.3873 286.496)" class="st37 st3 st4">-15</text>
</g>
<g>
	<text transform="matrix(1 0 0 1 287.3873 279.2958)" class="st37 st3 st4">VJK01</text>
</g>
<g>
	<text transform="matrix(1 0 0 1 287.3873 286.496)" class="st37 st3 st4">KJV01</text>
</g>
<g>
	<text transform="matrix(1 0 0 1 305.8873 286.496)" class="st37 st3 st4">-15</text>
</g>
<g>
	<text transform="matrix(1 0 0 1 155.5811 427.3477)" class="st37 st3 st4">KG64(E)</text>
</g>
<g>
	<text transform="matrix(1 0 0 1 180.8311 427.3477)" class="st37 st3 st4">-20</text>
</g>
<g>
	<text transform="matrix(1 0 0 1 205.7398 427.3477)" class="st37 st3 st4">BG64(B)</text>
</g>
<g>
	<text transform="matrix(1 0 0 1 230.8423 427.3477)" class="st37 st3 st4">-43</text>
</g>
<g>
	<text transform="matrix(1 0 0 1 102.6373 427.3477)" class="st37 st3 st4">KG64(E)</text>
</g>
<g>
	<text transform="matrix(1 0 0 1 127.8873 427.3477)" class="st37 st3 st4">-8</text>
</g>
<g>
	<text transform="matrix(1 0 0 1 141.8204 799.5302)" class="st37 st3 st4">Ek02</text>
</g>
<g>
	<text transform="matrix(1 0 0 1 192.0015 799.5302)" class="st37 st3 st4">Eb01</text>
</g>
<g>
	<text transform="matrix(1 0 0 1 88.9908 799.5302)" class="st37 st3 st4">Ek01</text>
</g>
<g>
	<text transform="matrix(1 0 0 1 1763.3032 567.373)" class="st37 st3 st4">WJK01</text>
</g>
<g>
	<text transform="matrix(1 0 0 1 1763.3032 574.5732)" class="st37 st3 st4">KJW01</text>
</g>
<g>
	<text transform="matrix(1 0 0 1 1312.1626 631.4355)" class="st37 st3 st4">GJK01</text>
</g>
<g>
	<text transform="matrix(1 0 0 1 1312.1626 638.6354)" class="st37 st3 st4">KJG01</text>
</g>
<g>
	<text transform="matrix(1 0 0 1 1402.1626 631.4355)" class="st37 st3 st4">KJW01</text>
</g>
<g>
	<text transform="matrix(1 0 0 1 1402.1626 638.6354)" class="st37 st3 st4">WJK01</text>
</g>
<g>
	<text transform="matrix(1 0 0 1 239.8965 405.314)" class="st37 st3 st4">Left domain control module</text>
</g>
<g>
	<text transform="matrix(1 0 0 1 1553.7593 384.4667)" class="st37 st3 st4">W13</text>
</g>
<g>
	<text transform="matrix(1 0 0 1 1566.6968 384.4667)" class="st37 st3 st4">-1</text>
</g>
<g>
	<text transform="matrix(1 0 0 1 771.2921 384.4667)" class="st37 st3 st4">U13</text>
</g>
<g>
	<text transform="matrix(1 0 0 1 782.7921 384.4667)" class="st37 st3 st4">-1</text>
</g>
<g>
	<text transform="matrix(1 0 0 1 1090.1357 384.4667)" class="st37 st3 st4">G13</text>
</g>
<g>
	<text transform="matrix(1 0 0 1 1101.7798 384.4667)" class="st37 st3 st4">-1</text>
</g>
<g>
	<text transform="matrix(1 0 0 1 1091.5005 405.314)" class="st37 st3 st4">PAD Ambient Light</text>
</g>
<g>
	<text transform="matrix(1 0 0 1 1246.1357 384.4667)" class="st37 st3 st4">V13</text>
</g>
<g>
	<text transform="matrix(1 0 0 1 1257.0522 384.4667)" class="st37 st3 st4">-1</text>
</g>
<g>
	<text transform="matrix(1 0 0 1 1552.4868 427.3477)" class="st37 st3 st4">W13</text>
</g>
<g>
	<text transform="matrix(1 0 0 1 1565.5703 427.3477)" class="st37 st3 st4">-3</text>
</g>
<g>
	<text transform="matrix(1 0 0 1 353.7979 384.4667)" class="st37 st3 st4">G64(G)</text>
</g>
<g>
	<text transform="matrix(1 0 0 1 375.1314 384.4667)" class="st37 st3 st4">-2</text>
</g>
<g>
	<text transform="matrix(1 0 0 1 287.0967 384.4667)" class="st37 st3 st4">KG64(D)</text>
</g>
<g>
	<text transform="matrix(1 0 0 1 312.4922 384.4667)" class="st37 st3 st4">-31</text>
</g>
<g>
	<text transform="matrix(1 0 0 1 769.8629 427.3477)" class="st37 st3 st4">U13</text>
</g>
<g>
	<text transform="matrix(1 0 0 1 781.2628 427.3477)" class="st37 st3 st4">-2</text>
</g>
<g>
	<text transform="matrix(1 0 0 1 757.6304 799.5097)" class="st37 st3 st4">Eu01</text>
</g>
<g>
	<text transform="matrix(1 0 0 1 1089.8628 427.3477)" class="st37 st3 st4">G13</text>
</g>
<g>
	<text transform="matrix(1 0 0 1 1101.7793 427.3477)" class="st37 st3 st4">-2</text>
</g>
<g>
	<text transform="matrix(1 0 0 1 1244.8628 427.3477)" class="st37 st3 st4">V13</text>
</g>
<g>
	<text transform="matrix(1 0 0 1 1256.0708 427.3477)" class="st37 st3 st4">-2</text>
</g>
<g>
	<text transform="matrix(1 0 0 1 1232.6304 800.5097)" class="st37 st3 st4">Ek02</text>
</g>
<g>
	<text transform="matrix(1 0 0 1 826.8629 427.3477)" class="st37 st3 st4">U13</text>
</g>
<g>
	<text transform="matrix(1 0 0 1 838.2628 427.3477)" class="st37 st3 st4">-3</text>
</g>
<g>
	<text transform="matrix(1 0 0 1 1147.8628 427.3477)" class="st37 st3 st4">G13</text>
</g>
<g>
	<text transform="matrix(1 0 0 1 1159.7793 427.3477)" class="st37 st3 st4">-3</text>
</g>
<g>
	<text transform="matrix(1 0 0 1 1303.1357 384.4667)" class="st37 st3 st4">V13</text>
</g>
<g>
	<text transform="matrix(1 0 0 1 1314.0522 384.4667)" class="st37 st3 st4">-3</text>
</g>
<g>
	<text transform="matrix(1 0 0 1 1077.7446 800.5097)" class="st37 st3 st4">Eg03</text>
</g>
<g>
	<text transform="matrix(1 0 0 1 413.5386 427.3477)" class="st37 st3 st4">G64(G)</text>
</g>
<g>
	<text transform="matrix(1 0 0 1 435.2261 427.3477)" class="st37 st3 st4">-13</text>
</g>
<g>
	<text transform="matrix(1 0 0 1 488.0005 384.4667)" class="st37 st3 st4">T13</text>
</g>
<g>
	<text transform="matrix(1 0 0 1 498.6671 384.4667)" class="st37 st3 st4">-1</text>
</g>
<g>
	<text transform="matrix(1 0 0 1 474 405.314)" class="st37 st3 st4">Left front door ambient light</text>
</g>
<g>
	<text transform="matrix(1 0 0 1 486.4464 427.3477)" class="st37 st3 st4">T13</text>
</g>
<g>
	<text transform="matrix(1 0 0 1 496.8629 427.3477)" class="st37 st3 st4">-3</text>
</g>
<g>
	<text transform="matrix(1 0 0 1 543.919 427.3477)" class="st37 st3 st4">T13</text>
</g>
<g>
	<text transform="matrix(1 0 0 1 554.3355 427.3477)" class="st37 st3 st4">-2</text>
</g>
<g>
	<text transform="matrix(1 0 0 1 1248.4302 567.373)" class="st37 st3 st4">VJK01</text>
</g>
<g>
	<text transform="matrix(1 0 0 1 1248.4302 574.5732)" class="st37 st3 st4">KJV01</text>
</g>
<g>
	<text transform="matrix(1 0 0 1 1266.9282 574.5732)" class="st37 st3 st4">-16</text>
</g>
<g>
	<text transform="matrix(1 0 0 1 416.4127 494.9746)" class="st37 st3 st4">TJG01</text>
</g>
<g>
	<text transform="matrix(1 0 0 1 416.4127 502.1748)" class="st37 st3 st4">GJT01</text>
</g>
<g>
	<text transform="matrix(1 0 0 1 434.9547 502.1748)" class="st37 st3 st4">-1</text>
</g>
<g>
	<text transform="matrix(1 0 0 1 531.8682 799.8769)" class="st37 st3 st4">Et01</text>
</g>
<g>
	<text transform="matrix(1 0 0 1 1235.7969 405.314)" class="st37 st3 st4">Left rear door ambient light</text>
</g>
<g>
	<text transform="matrix(1 0 0 1 1410.1357 384.4667)" class="st37 st3 st4">V13_1</text>
</g>
<g>
	<text transform="matrix(1 0 0 1 1428.9692 384.4667)" class="st37 st3 st4">-1</text>
</g>
<g>
	<text transform="matrix(1 0 0 1 1408.8628 427.3477)" class="st37 st3 st4">V13_1</text>
</g>
<g>
	<text transform="matrix(1 0 0 1 1427.1963 427.3477)" class="st37 st3 st4">-2</text>
</g>
<g>
	<text transform="matrix(1 0 0 1 1467.1357 384.4667)" class="st37 st3 st4">V13_1</text>
</g>
<g>
	<text transform="matrix(1 0 0 1 1485.9692 384.4667)" class="st37 st3 st4">-3</text>
</g>
<g>
	<text transform="matrix(1 0 0 1 1397.198 405.314)" class="st37 st3 st4">Left rear door handle ambient light</text>
</g>
<g>
	<text transform="matrix(1 0 0 1 1105.8582 777.326)" class="st37 st3 st4">Right domain control module</text>
</g>
<g>
	<text transform="matrix(1 0 0 1 1128.5679 768.0966)" class="st37 st3 st4">G86(G)</text>
</g>
<g>
	<text transform="matrix(1 0 0 1 1150.2344 768.0966)" class="st37 st3 st4">-2</text>
</g>
<g>
	<text transform="matrix(1 0 0 1 1158.1733 240.3804)" class="st37 st3 st4">GJK01</text>
</g>
<g>
	<text transform="matrix(1 0 0 1 1158.1733 247.5806)" class="st37 st3 st4">KJG01</text>
</g>
<g>
	<text transform="matrix(1 0 0 1 1177.3608 247.5806)" class="st37 st3 st4">-13</text>
</g>
<g>
	<text transform="matrix(1 0 0 1 1305.1733 240.3804)" class="st37 st3 st4">KJV01</text>
</g>
<g>
	<text transform="matrix(1 0 0 1 1305.1733 247.5806)" class="st37 st3 st4">VJK01</text>
</g>
<g>
	<text transform="matrix(1 0 0 1 1323.5278 247.5806)" class="st37 st3 st4">-13</text>
</g>
<g>
	<text transform="matrix(1 0 0 1 619.0005 384.4667)" class="st37 st3 st4">T13_1</text>
</g>
<g>
	<text transform="matrix(1 0 0 1 638.584 384.4667)" class="st37 st3 st4">-1</text>
</g>
<g>
	<text transform="matrix(1 0 0 1 585.8449 405.314)" class="st37 st3 st4">Left front door snap handle ambient light</text>
</g>
<g>
	<text transform="matrix(1 0 0 1 911.2921 384.4667)" class="st37 st3 st4">U13_1</text>
</g>
<g>
	<text transform="matrix(1 0 0 1 931.6255 384.4667)" class="st37 st3 st4">-1</text>
</g>
<g>
	<text transform="matrix(1 0 0 1 901.3 405.314)" class="st37 st3 st4">Ambient light of Right front door handle</text>
</g>
<g>
	<text transform="matrix(1 0 0 1 909.8629 427.3477)" class="st37 st3 st4">U13_1</text>
</g>
<g>
	<text transform="matrix(1 0 0 1 930.4781 427.3477)" class="st37 st3 st4">-2</text>
</g>
<g>
	<text transform="matrix(1 0 0 1 966.8629 427.3477)" class="st37 st3 st4">U13_1</text>
</g>
<g>
	<text transform="matrix(1 0 0 1 987.4781 427.3477)" class="st37 st3 st4">-3</text>
</g>
<g>
	<text transform="matrix(1 0 0 1 617.4464 427.3477)" class="st37 st3 st4">T13_1</text>
</g>
<g>
	<text transform="matrix(1 0 0 1 637.1168 427.3477)" class="st37 st3 st4">-3</text>
</g>
<g>
	<text transform="matrix(1 0 0 1 674.919 427.3477)" class="st37 st3 st4">T13_1</text>
</g>
<g>
	<text transform="matrix(1 0 0 1 694.5894 427.3477)" class="st37 st3 st4">-2</text>
</g>
<g>
	<text transform="matrix(1 0 0 1 671.6588 206.5479)" class="st37 st3 st4">TJG01</text>
</g>
<g>
	<text transform="matrix(1 0 0 1 671.6588 213.748)" class="st37 st3 st4">GJT01</text>
</g>
<g>
	<text transform="matrix(1 0 0 1 690.5181 213.748)" class="st37 st3 st4">-7</text>
</g>
<g>
	<text transform="matrix(1 0 0 1 959.9088 240.9785)" class="st37 st3 st4">UJG01</text>
</g>
<g>
	<text transform="matrix(1 0 0 1 959.9088 248.1787)" class="st37 st3 st4">GJU01</text>
</g>
<g>
	<text transform="matrix(1 0 0 1 979.5172 248.1787)" class="st37 st3 st4">-7</text>
</g>
<g>
	<text transform="matrix(1 0 0 1 1015.0338 632.7285)" class="st37 st3 st4">UJG01</text>
</g>
<g>
	<text transform="matrix(1 0 0 1 1015.0338 639.9287)" class="st37 st3 st4">GJU01</text>
</g>
<g>
	<text transform="matrix(1 0 0 1 1034.5386 639.754)" class="st37 st3 st4">-1</text>
</g>
<g>
	<text transform="matrix(1 0 0 1 1609.3594 427.3477)" class="st37 st3 st4">W13</text>
</g>
<g>
	<text transform="matrix(1 0 0 1 1622.4429 427.3477)" class="st37 st3 st4">-2</text>
</g>
<g>
	<text transform="matrix(1 0 0 1 1703.7593 384.4667)" class="st37 st3 st4">W13_1</text>
</g>
<g>
	<text transform="matrix(1 0 0 1 1725.5093 384.4667)" class="st37 st3 st4">-1</text>
</g>
<g>
	<text transform="matrix(1 0 0 1 1702.4868 427.3477)" class="st37 st3 st4">W13_1</text>
</g>
<g>
	<text transform="matrix(1 0 0 1 1724.4868 427.3477)" class="st37 st3 st4">-3</text>
</g>
<g>
	<text transform="matrix(1 0 0 1 1759.3594 427.3477)" class="st37 st3 st4">W13_1</text>
</g>
<g>
	<text transform="matrix(1 0 0 1 1781.3594 427.3477)" class="st37 st3 st4">-2</text>
</g>
<g>
	<text transform="matrix(1 0 0 1 1747.1265 799.5097)" class="st37 st3 st4">Ek09</text>
</g>
<g>
	<text transform="matrix(1 0 0 1 1783.4282 574.5732)" class="st37 st3 st4">-16</text>
</g>
<g>
	<text transform="matrix(1 0 0 1 1306.1733 205.689)" class="st37 st3 st4">KJW01</text>
</g>
<g>
	<text transform="matrix(1 0 0 1 1306.1733 212.8892)" class="st37 st3 st4">WJK01</text>
</g>
<g>
	<text transform="matrix(1 0 0 1 1326.1528 212.8892)" class="st37 st3 st4">-13</text>
</g>
<g>
	<text transform="matrix(1 0 0 1 1332.4282 638.6357)" class="st37 st3 st4">-14</text>
</g>
<g>
	<text transform="matrix(1 0 0 1 1423.2622 638.6357)" class="st37 st3 st4">-15</text>
</g>
<g>
	<text transform="matrix(1 0 0 1 758.1976 405.314)" class="st37 st3 st4">Right front door ambient light</text>
</g>
<g>
	<text transform="matrix(1 0 0 1 1693.4197 401.0559)" class="st38"><tspan x="0" y="0" class="st37 st3 st4">Ambient light of </tspan><tspan x="0" y="7.2" class="st37 st3 st4">Right rear door handle</tspan></text>
</g>
<g>
	<text transform="matrix(1 0 0 1 1540.7004 406.8314)" class="st37 st3 st4">Right rear door ambient light</text>
</g>
<g>
	<text transform="matrix(1 0 0 1 134.4273 384.467)" class="st37 st3 st4">-1</text>
</g>
<g>
	<text transform="matrix(1 0 0 1 101.6408 384.467)" class="st37 st3 st4">BG64(A)_4</text>
</g>
</svg>
