<?xml version="1.0" encoding="utf-8"?>
<!-- Generator: Adobe Illustrator 24.0.1, SVG Export Plug-In . SVG Version: 6.00 Build 0)  -->
<svg version="1.1" id="图层_1" xmlns="http://www.w3.org/2000/svg" xmlns:xlink="http://www.w3.org/1999/xlink" x="0px" y="0px"
	 viewBox="0 0 653 841.9" style="enable-background:new 0 0 653 841.9;" xml:space="preserve">
<style type="text/css">
	.st0{fill:none;stroke:#000000;stroke-width:3;stroke-miterlimit:10;}
	.st1{fill:#9FD9F6;}
	.st2{fill:#9FD9F6;stroke:#000000;stroke-width:0.5;stroke-linecap:round;stroke-miterlimit:10;}
	.st3{fill:#DCDDDD;stroke:#000000;stroke-width:0.5;stroke-miterlimit:10;}
	.st4{fill:none;stroke:#005EAD;stroke-width:3;stroke-miterlimit:10;}
	.st5{fill:#DCDDDD;}
	.st6{fill:none;stroke:#000000;stroke-width:0.5;}
	.st7{fill:none;stroke:#000000;}
	.st8{font-family:'FZLTHJW--GB1-0';}
	.st9{font-size:6px;}
	.st10{fill:#9FD9F6;stroke:#000000;stroke-width:0.5;stroke-miterlimit:10;}
	.st11{fill:none;stroke:#E60012;stroke-width:3;stroke-miterlimit:10;}
	.st12{fill:none;stroke:#FFF100;stroke-miterlimit:10;}
	.st13{fill:#FFFFFF;stroke:#000000;stroke-width:0.5;stroke-miterlimit:10;}
	.st14{fill:none;stroke:#E60012;stroke-miterlimit:10;}
	.st15{fill:none;stroke:#89438F;stroke-width:3;stroke-miterlimit:10;}
	.st16{fill:none;stroke:#F29C97;stroke-width:3;stroke-miterlimit:10;}
	.st17{fill:none;stroke:#FFFFFF;stroke-miterlimit:10;}
	.st18{fill:none;stroke:#000000;stroke-width:0.5;stroke-linejoin:round;}
	.st19{fill:none;stroke:#000000;stroke-width:0.75;}
	.st20{fill:#040000;stroke:#FFFFFF;}
	.st21{fill:none;stroke:#FFFFFF;stroke-width:1.0001;}
	.st22{fill:none;stroke:#000000;stroke-width:0.5;stroke-miterlimit:10;}
	.st23{fill:none;stroke:#070001;stroke-width:0.75;}
	.st24{fill:none;stroke:#000000;stroke-width:0.5;stroke-linecap:round;stroke-linejoin:round;stroke-miterlimit:10;}
	.st25{fill:none;stroke:#000000;stroke-width:1.3;}
	.st26{fill:#FFFFFF;}
	.st27{fill:#FFFFFF;stroke:#000000;stroke-width:0.25;stroke-linecap:round;stroke-linejoin:round;}
	.st28{fill:none;stroke:#000000;stroke-width:0.6;stroke-linejoin:round;}
	.st29{fill:none;stroke:#000000;stroke-width:0.72;stroke-linecap:round;stroke-linejoin:round;}
	.st30{fill:none;stroke:#070001;stroke-width:1.3;stroke-linecap:round;}
	.st31{fill:none;stroke:#000000;stroke-width:0.6;stroke-linecap:round;stroke-dasharray:3.001,1.8;}
	.st32{fill:#FFFFFF;stroke:#000000;stroke-miterlimit:10;}
	.st33{fill:none;stroke:#000000;stroke-width:0.6;stroke-linecap:round;stroke-linejoin:round;}
	.st34{fill:none;stroke:#070001;stroke-width:0.6;}
	.st35{fill:#FFFFFF;stroke:#070001;stroke-width:0.6;}
	.st36{fill:none;stroke:#231815;stroke-width:0.5;stroke-miterlimit:10;}
	.st37{fill:none;stroke:#000000;stroke-width:0.5;stroke-linecap:round;stroke-linejoin:round;}
	.st38{stroke:#FFFFFF;stroke-width:0.6;}
	.st39{fill:#FFFFFF;stroke:#231815;stroke-width:0.25;stroke-linecap:round;stroke-linejoin:round;}
	.st40{fill:#FFFFFF;stroke:#231815;stroke-width:0.25;}
	.st41{font-size:4px;}
	.st42{enable-background:new    ;}
	.st43{fill:#005EAD;}
</style>
<line class="st0" x1="437.9" y1="624.6" x2="437.9" y2="783.6"/>
<line class="st0" x1="437.9" y1="624.6" x2="437.9" y2="783.6"/>
<g>
	<path class="st1" d="M456.9,612.9h-37.6V587h37.6c0,0-5.4,7.6,0,13S456.9,612.9,456.9,612.9"/>
	<path class="st2" d="M456.9,612.9h-37.6V587h37.6c0,0-5.4,7.6,0,13S456.9,612.9,456.9,612.9z"/>
</g>
<g>
	<path class="st1" d="M566.4,612.9h-37.6V587h37.6c0,0-5.4,7.6,0,13C571.8,605.4,566.4,612.9,566.4,612.9"/>
	<path class="st2" d="M566.4,612.9h-37.6V587h37.6c0,0-5.4,7.6,0,13C571.8,605.4,566.4,612.9,566.4,612.9z"/>
</g>
<g>
	<path class="st1" d="M584.5,510.4h-55.7v-25.9h55.7c0,0-5.4,7.6,0,13S584.5,510.4,584.5,510.4"/>
	<path class="st2" d="M584.5,510.4h-55.7v-25.9h55.7c0,0-5.4,7.6,0,13S584.5,510.4,584.5,510.4z"/>
</g>
<rect id="电器盒" x="52.7" y="124" class="st3" width="323" height="65.5"/>
<rect id="电器盒_1_" x="408.6" y="124" class="st3" width="45.2" height="65.5"/>
<g>
	<path class="st1" d="M579.8,414.5H261v-25.9h318.8c0,0-5.4,7.6,0,13C585.1,407,579.8,414.5,579.8,414.5"/>
	<path class="st2" d="M579.8,414.5H261v-25.9h318.8c0,0-5.4,7.6,0,13C585.1,407,579.8,414.5,579.8,414.5z"/>
</g>
<line class="st4" x1="545.8" y1="425.8" x2="545.8" y2="475.4"/>
<line class="st4" x1="545.8" y1="521.2" x2="545.8" y2="575.5"/>
<line class="st4" x1="437.9" y1="425.8" x2="437.9" y2="575.6"/>
<line class="st0" x1="233.2" y1="200.4" x2="233.2" y2="783.6"/>
<line class="st0" x1="345.4" y1="425.4" x2="345.4" y2="783"/>
<line class="st0" x1="288.9" y1="425.2" x2="288.9" y2="782.4"/>
<polyline class="st5" points="42.3,43.6 594,43.6 594,89.8 42.3,89.8 "/>
<line class="st6" x1="42.3" y1="49.3" x2="594" y2="49.3"/>
<line class="st7" x1="42.3" y1="43.3" x2="594" y2="43.3"/>
<line class="st6" x1="42.3" y1="60.6" x2="594" y2="60.6"/>
<line class="st6" x1="42.3" y1="72.3" x2="594" y2="72.3"/>
<line class="st6" x1="42.3" y1="84" x2="594" y2="84"/>
<line class="st7" x1="42.3" y1="89.8" x2="594" y2="89.8"/>
<text transform="matrix(1 0 0 1 29.384 51.4375)" class="st8 st9">30</text>
<text transform="matrix(1 0 0 1 26.2199 62.6035)" class="st8 st9">IG1</text>
<text transform="matrix(1 0 0 1 26.2199 74.2285)" class="st8 st9">IG3</text>
<text transform="matrix(1 0 0 1 22.7279 85.7285)" class="st8 st9">ACC</text>
<path class="st6" d="M42.3,61"/>
<text transform="matrix(1 0 0 1 601 51.5779)" class="st8 st9">30</text>
<text transform="matrix(1 0 0 1 601 62.744)" class="st8 st9">IG1</text>
<text transform="matrix(1 0 0 1 601 74.369)" class="st8 st9">IG3</text>
<text transform="matrix(1 0 0 1 601 85.8728)" class="st8 st9">ACC</text>
<g>
	<rect x="99.6" y="587.2" class="st10" width="37.6" height="25.7"/>
</g>
<line class="st0" x1="118.2" y1="624.8" x2="118.2" y2="783.5"/>
<line class="st0" x1="118.2" y1="624.8" x2="118.2" y2="783.5"/>
<line class="st11" x1="424" y1="200.4" x2="424" y2="377.2"/>
<line class="st11" x1="345.8" y1="200.4" x2="345.8" y2="377.2"/>
<line class="st12" x1="345.8" y1="200.4" x2="345.8" y2="377.2"/>
<g>
	<rect x="288.4" y="200.4" class="st13" width="3" height="176.8"/>
</g>
<line class="st14" x1="289.9" y1="200.4" x2="289.9" y2="377.2"/>
<line class="st15" x1="546.8" y1="200.4" x2="546.8" y2="377.2"/>
<line class="st16" x1="490.1" y1="200.4" x2="490.1" y2="377.2"/>
<line class="st0" x1="545.7" y1="624.6" x2="545.7" y2="783.6"/>
<line class="st0" x1="545.7" y1="624.6" x2="545.7" y2="783.6"/>
<line class="st11" x1="118.2" y1="199.9" x2="118.2" y2="575.8"/>
<line class="st11" x1="118.2" y1="199.9" x2="118.2" y2="575.8"/>
<line class="st17" x1="118.2" y1="199.9" x2="118.2" y2="575.8"/>
<line class="st17" x1="118.2" y1="199.9" x2="118.2" y2="575.8"/>
<g>
	<polyline class="st18" points="424,166.8 424,171.1 424,189.5 	"/>
</g>
<g>
	<g>
		<path class="st19" d="M424,162.4c-1.2,0-2.2,1-2.2,2.2s1,2.2,2.2,2.2s2.2-1,2.2-2.2S425.2,162.4,424,162.4"/>
	</g>
	<g>
		<path class="st19" d="M424,146.6c-1.2,0-2.2,1-2.2,2.1c0,1.2,1,2.2,2.2,2.2s2.2-0.9,2.2-2.2C426.2,147.6,425.2,146.6,424,146.6"/>
	</g>
	<g>
		<path class="st19" d="M422.5,150.3c-0.1,2.5,0.2,3.2,1.3,4.3c1.2,1.2,2.4,1.7,2.8,3.7c0.4,1.6-0.1,3.5-1.1,4.5"/>
	</g>
	<g>
		<path class="st19" d="M425.4,162.9c0.2-0.8,0-2.9-0.6-3.7c-0.9-1.2-2.7-2.1-3.3-4c-0.9-2.8,0.7-4.6,1.1-5"/>
	</g>
</g>
<polyline class="st18" points="424,146.6 424,104.4 424,50.4 "/>
<path class="st20" d="M421.2,49.4c0-1.7,1.3-2.9,2.8-2.9c1.6,0,2.9,1.2,2.9,2.9c0,1.5-1.3,2.7-2.9,2.7
	C422.5,52.1,421.2,50.9,421.2,49.4z"/>
<g>
	<path class="st21" d="M421.2,49.4c0-1.7,1.3-2.9,2.8-2.9c1.6,0,2.9,1.2,2.9,2.9c0,1.5-1.3,2.7-2.9,2.7
		C422.5,52.1,421.2,50.9,421.2,49.4"/>
</g>
<polyline class="st18" points="201.5,167.8 201.5,181.9 233.2,181.9 233.2,189.1 233.2,197.3 "/>
<polyline class="st22" points="201.7,146.6 201.7,130.3 289.9,130.3 289.9,189.5 "/>
<g id="保险丝名称_9_">
	<g>
		<text transform="matrix(1 0 0 1 73.8809 162.0228)" class="st8 st9">30A</text>
	</g>
</g>
<g id="RF22_x2C_A3_1_">
	<g>
		<g>
			<path class="st23" d="M66.3,162.4c-1.2,0-2.2,1-2.2,2.2s1,2.2,2.2,2.2s2.2-1,2.2-2.2S67.5,162.4,66.3,162.4"/>
		</g>
		<g>
			<path class="st23" d="M66.3,146.6c-1.2,0-2.2,1-2.2,2.1c0,1.2,1,2.2,2.2,2.2s2.2-0.9,2.2-2.2C68.5,147.6,67.5,146.6,66.3,146.6"
				/>
		</g>
		<g>
			<path class="st23" d="M64.8,150.3c-0.1,2.5,0.2,3.2,1.3,4.3c1.2,1.2,2.4,1.7,2.8,3.7c0.4,1.6-0.1,3.5-1.1,4.5"/>
		</g>
		<g>
			<path class="st23" d="M67.7,162.9c0.2-0.8,0-2.9-0.6-3.7c-0.9-1.2-2.7-2.1-3.3-4c-0.9-2.8,0.7-4.6,1.1-5"/>
		</g>
	</g>
</g>
<g>
	<g>
		<polyline class="st18" points="66.3,166.9 66.3,169.8 66.3,177.2 102.8,177.2 102.8,130.3 160.9,130.3 160.9,149.3 		"/>
	</g>
</g>
<g>
	<g>
		<polyline class="st18" points="66.3,146.9 66.3,145.8 66.3,49.3 		"/>
	</g>
</g>
<path class="st22" d="M160.8,166"/>
<polyline class="st24" points="118.2,614.9 118.2,606.5 118.2,606.5 119.8,605.6 116.7,603.8 116.7,603.8 119.8,602 116.7,600.2 
	116.7,600.2 119.8,598.4 119.8,598.4 116.7,596.6 116.7,596.6 119.8,594.8 119.8,594.7 116.7,593 118.1,592.2 118.2,592.2 
	118.2,583.8 "/>
<polyline class="st24" points="437.7,615.6 437.7,607.2 437.7,607.2 439.3,606.3 436.2,604.5 436.2,604.5 439.3,602.7 436.2,600.9 
	436.2,600.9 439.3,599.1 439.3,599 436.2,597.3 436.2,597.2 439.3,595.5 439.3,595.4 436.2,593.6 437.6,592.8 437.7,592.8 
	437.7,584.5 "/>
<polyline class="st24" points="545.6,615.6 545.6,607.2 545.7,607.2 547.3,606.3 544.2,604.5 544.2,604.5 547.3,602.7 544.2,600.9 
	544.2,600.9 547.3,599.1 547.3,599 544.2,597.3 544.2,597.2 547.3,595.5 547.3,595.4 544.2,593.6 545.6,592.8 545.6,592.8 
	545.6,584.5 "/>
<g id="GB031_3_">
	<g>
		<g>
			<line class="st25" x1="345.1" y1="780.3" x2="345.1" y2="783"/>
		</g>
		<g>
			<line class="st25" x1="338.1" y1="783" x2="351.9" y2="783"/>
		</g>
		<g>
			<line class="st25" x1="340.9" y1="785.2" x2="349.1" y2="785.2"/>
		</g>
		<g>
			<line class="st25" x1="347.4" y1="787.3" x2="342.6" y2="787.3"/>
		</g>
	</g>
	<g>
		<rect x="334.7" y="789.8" class="st26" width="20.3" height="8.2"/>
		<rect x="335" y="790.2" class="st27" width="19.7" height="7.6"/>
	</g>
</g>
<path class="st20" d="M63.5,49.4c0-1.7,1.3-2.9,2.8-2.9c1.6,0,2.9,1.2,2.9,2.9c0,1.5-1.3,2.7-2.9,2.7C64.8,52.1,63.5,50.9,63.5,49.4
	z"/>
<g>
	<rect x="113.8" y="295.3" class="st26" width="8.9" height="18.8"/>
	<line class="st28" x1="118.2" y1="314" x2="118.2" y2="295.5"/>
	<path class="st26" d="M118.1,302.7c-1.7,0-3,1.4-3,3c0,1.8,1.4,3.2,3,3.2c1.8,0,3.2-1.4,3.2-3.2
		C121.3,304.1,119.9,302.7,118.1,302.7"/>
	<path d="M118.2,303.2c-1.4,0-2.5,1.2-2.5,2.5c0,1.6,1.1,2.7,2.5,2.7v1.2c-2,0-3.7-1.6-3.7-3.8c0-2.1,1.7-3.7,3.7-3.7V303.2z
		 M118.2,309.6c2.2,0,3.8-1.7,3.8-3.8c0-2.1-1.6-3.7-3.8-3.7v1.1c1.6,0,2.7,1.2,2.7,2.5c0,1.6-1.2,2.7-2.7,2.7V309.6"/>
	<rect x="113.8" y="305.9" class="st26" width="8.9" height="4.1"/>
	<rect x="117.7" y="304.9" width="1" height="4.2"/>
	<rect x="117.7" y="304.9" class="st29" width="1" height="4.2"/>
	<line class="st28" x1="118.2" y1="314" x2="118.2" y2="295.5"/>
	<path class="st26" d="M118.1,302.7c-1.7,0-3,1.4-3,3c0,1.8,1.4,3.2,3,3.2c1.8,0,3.2-1.4,3.2-3.2
		C121.3,304.1,119.9,302.7,118.1,302.7"/>
	<path d="M118.2,303.2c-1.4,0-2.5,1.2-2.5,2.5c0,1.6,1.1,2.7,2.5,2.7v1.2c-2,0-3.7-1.6-3.7-3.8c0-2.1,1.7-3.7,3.7-3.7V303.2z
		 M118.2,309.6c2.2,0,3.8-1.7,3.8-3.8c0-2.1-1.6-3.7-3.8-3.7v1.1c1.6,0,2.7,1.2,2.7,2.5c0,1.6-1.2,2.7-2.7,2.7V309.6"/>
	<rect x="113.8" y="305.9" class="st26" width="8.9" height="4.1"/>
	<rect x="117.7" y="304.9" width="1" height="4.2"/>
	<rect x="117.7" y="304.9" class="st29" width="1" height="4.2"/>
</g>
<g>
	<rect x="113.8" y="464.2" class="st26" width="8.9" height="18.8"/>
	<line class="st28" x1="118.2" y1="464.3" x2="118.2" y2="482.8"/>
	<path class="st26" d="M118.3,475.6c1.7,0,3-1.4,3-3c0-1.8-1.4-3.2-3-3.2c-1.8,0-3.2,1.4-3.2,3.2
		C115.1,474.2,116.5,475.6,118.3,475.6"/>
	<path d="M118.3,475.1c1.4,0,2.5-1.2,2.5-2.5c0-1.6-1.1-2.7-2.5-2.7v-1.2c2,0,3.7,1.6,3.7,3.8c0,2.1-1.7,3.7-3.7,3.7V475.1z
		 M118.3,468.7c-2.2,0-3.8,1.7-3.8,3.8c0,2.1,1.6,3.7,3.8,3.7v-1.1c-1.6,0-2.7-1.2-2.7-2.5c0-1.6,1.2-2.7,2.7-2.7V468.7"/>
	<rect x="113.8" y="468.3" class="st26" width="8.9" height="4.1"/>
	<rect x="117.7" y="469.2" width="1" height="4.2"/>
	<rect x="117.7" y="469.2" class="st29" width="1" height="4.2"/>
	<line class="st28" x1="118.2" y1="464.3" x2="118.2" y2="482.8"/>
	<path class="st26" d="M118.3,475.6c1.7,0,3-1.4,3-3c0-1.8-1.4-3.2-3-3.2c-1.8,0-3.2,1.4-3.2,3.2
		C115.1,474.2,116.5,475.6,118.3,475.6"/>
	<path d="M118.3,475.1c1.4,0,2.5-1.2,2.5-2.5c0-1.6-1.1-2.7-2.5-2.7v-1.2c2,0,3.7,1.6,3.7,3.8c0,2.1-1.7,3.7-3.7,3.7V475.1z
		 M118.3,468.7c-2.2,0-3.8,1.7-3.8,3.8c0,2.1,1.6,3.7,3.8,3.7v-1.1c-1.6,0-2.7-1.2-2.7-2.5c0-1.6,1.2-2.7,2.7-2.7V468.7"/>
	<rect x="113.8" y="468.3" class="st26" width="8.9" height="4.1"/>
	<rect x="117.7" y="469.2" width="1" height="4.2"/>
	<rect x="117.7" y="469.2" class="st29" width="1" height="4.2"/>
</g>
<g>
	<path class="st20" d="M115.4,674.8c0-1.7,1.3-2.9,2.8-2.9c1.6,0,2.9,1.2,2.9,2.9c0,1.5-1.3,2.7-2.9,2.7
		C116.7,677.5,115.4,676.3,115.4,674.8z"/>
	<g>
		<path class="st21" d="M115.4,674.8c0-1.7,1.3-2.9,2.8-2.9c1.6,0,2.9,1.2,2.9,2.9c0,1.5-1.3,2.7-2.9,2.7
			C116.7,677.5,115.4,676.3,115.4,674.8"/>
	</g>
</g>
<g>
	<path class="st20" d="M542.9,674.6c0-1.7,1.3-2.9,2.8-2.9c1.6,0,2.9,1.2,2.9,2.9c0,1.5-1.3,2.7-2.9,2.7
		C544.2,677.3,542.9,676.1,542.9,674.6z"/>
	<g>
		<path class="st21" d="M542.9,674.6c0-1.7,1.3-2.9,2.8-2.9c1.6,0,2.9,1.2,2.9,2.9c0,1.5-1.3,2.7-2.9,2.7
			C544.2,677.3,542.9,676.1,542.9,674.6"/>
	</g>
</g>
<line class="st22" x1="201.5" y1="146.6" x2="201.5" y2="154.3"/>
<line class="st22" x1="201.5" y1="159.9" x2="201.5" y2="167.6"/>
<rect x="136.6" y="138.1" class="st30" width="91.3" height="37.2"/>
<line class="st31" x1="213.9" y1="157.2" x2="160.9" y2="157.1"/>
<rect x="194.5" y="154.3" class="st32" width="14.2" height="5.5"/>
<rect x="213.9" y="152.7" class="st7" width="4" height="8.1"/>
<polyline class="st33" points="215.9,161.1 215.9,167.8 202.6,167.8 "/>
<polyline class="st33" points="215.9,152.7 215.9,146.6 201.7,146.6 "/>
<line class="st34" x1="160.8" y1="164.2" x2="155.5" y2="153.2"/>
<g>
	<g>
		<circle class="st35" cx="160.8" cy="164.7" r="1.3"/>
	</g>
	<g>
		<circle class="st35" cx="160.8" cy="150.6" r="1.3"/>
	</g>
</g>
<g>
	<rect x="194.5" y="154.3" class="st7" width="14.2" height="5.5"/>
	<line class="st7" x1="199.1" y1="154.3" x2="203.9" y2="159.8"/>
</g>
<g>
	<path class="st26" d="M233.1,201.4c-1.7,0-3-1.4-3-3c0-1.8,1.4-3.2,3-3.2c1.8,0,3.2,1.4,3.2,3.2C236.3,200,234.9,201.4,233.1,201.4
		"/>
	<path d="M233.2,202c-2,0-3.7-1.6-3.7-3.7c0-2.2,1.7-3.8,3.7-3.8v1.2c-1.4,0-2.5,1.1-2.5,2.7c0,1.3,1.1,2.5,2.5,2.5V202z
		 M233.2,194.5v1.2c1.5,0,2.7,1.1,2.7,2.7c0,1.3-1.1,2.5-2.7,2.5v1.1c2.2,0,3.8-1.6,3.8-3.7C237,196.2,235.4,194.5,233.2,194.5"/>
	<rect x="228.8" y="194.1" class="st26" width="8.9" height="4.1"/>
	<rect x="232.7" y="195" width="1" height="4.2"/>
	<rect x="232.7" y="195" class="st29" width="1" height="4.2"/>
</g>
<g>
	<line class="st28" x1="424" y1="197.7" x2="424" y2="189.5"/>
	<path class="st26" d="M423.9,200.8c-1.7,0-3-1.4-3-3c0-1.8,1.4-3.2,3-3.2c1.8,0,3.2,1.4,3.2,3.2
		C427.1,199.4,425.7,200.8,423.9,200.8"/>
	<path d="M424,201.4c-2,0-3.7-1.6-3.7-3.7c0-2.2,1.7-3.8,3.7-3.8v1.2c-1.4,0-2.5,1.1-2.5,2.7c0,1.3,1.1,2.5,2.5,2.5V201.4z
		 M424,193.9v1.2c1.5,0,2.7,1.1,2.7,2.7c0,1.3-1.1,2.5-2.7,2.5v1.1c2.2,0,3.8-1.6,3.8-3.7S426.2,193.9,424,193.9"/>
	<rect x="419.5" y="193.5" class="st26" width="8.9" height="4.1"/>
	<rect x="423.5" y="194.4" width="1" height="4.2"/>
	<rect x="423.5" y="194.4" class="st29" width="1" height="4.2"/>
</g>
<g>
	<line class="st28" x1="289.9" y1="197.7" x2="289.9" y2="189.5"/>
	<path class="st26" d="M289.8,200.8c-1.7,0-3-1.4-3-3c0-1.8,1.4-3.2,3-3.2c1.8,0,3.2,1.4,3.2,3.2C293,199.4,291.6,200.8,289.8,200.8
		"/>
	<path d="M289.9,201.4c-2,0-3.7-1.6-3.7-3.7c0-2.2,1.7-3.8,3.7-3.8v1.2c-1.4,0-2.5,1.1-2.5,2.7c0,1.3,1.1,2.5,2.5,2.5V201.4z
		 M289.9,193.9v1.2c1.5,0,2.7,1.1,2.7,2.7c0,1.3-1.1,2.5-2.7,2.5v1.1c2.2,0,3.8-1.6,3.8-3.7C293.7,195.6,292.1,193.9,289.9,193.9"/>
	<rect x="285.5" y="193.5" class="st26" width="8.9" height="4.1"/>
	<rect x="289.4" y="194.4" width="1" height="4.2"/>
	<rect x="289.4" y="194.4" class="st29" width="1" height="4.2"/>
</g>
<g>
	<line class="st28" x1="545.7" y1="422.7" x2="545.7" y2="414.5"/>
	<g>
		<path class="st26" d="M545.6,425.8c-1.7,0-3-1.4-3-3c0-1.8,1.4-3.2,3-3.2c1.8,0,3.2,1.4,3.2,3.2
			C548.8,424.4,547.4,425.8,545.6,425.8"/>
		<path d="M545.7,426.4c-2,0-3.7-1.6-3.7-3.7c0-2.2,1.7-3.8,3.7-3.8v1.2c-1.4,0-2.5,1.1-2.5,2.7c0,1.3,1.1,2.5,2.5,2.5V426.4z
			 M545.7,418.9v1.2c1.5,0,2.7,1.1,2.7,2.7c0,1.3-1.1,2.5-2.7,2.5v1.1c2.2,0,3.8-1.6,3.8-3.7S547.9,418.9,545.7,418.9"/>
		<rect x="541.2" y="418.5" class="st26" width="8.9" height="4.1"/>
		<rect x="545.2" y="419.4" width="1" height="4.2"/>
		<rect x="545.2" y="419.4" class="st29" width="1" height="4.2"/>
	</g>
</g>
<g>
	<line class="st28" x1="545.7" y1="578.7" x2="545.7" y2="586.9"/>
	<path class="st26" d="M545.6,575.6c-1.7,0-3,1.4-3,3c0,1.8,1.4,3.2,3,3.2c1.8,0,3.2-1.4,3.2-3.2C548.8,577,547.4,575.6,545.6,575.6
		"/>
	<path d="M545.7,576.1c-1.4,0-2.5,1.2-2.5,2.5c0,1.6,1.1,2.7,2.5,2.7v1.2c-2,0-3.7-1.6-3.7-3.8c0-2.1,1.7-3.7,3.7-3.7V576.1z
		 M545.7,582.5c2.2,0,3.8-1.7,3.8-3.8s-1.6-3.7-3.8-3.7v1.1c1.6,0,2.7,1.2,2.7,2.5c0,1.6-1.2,2.7-2.7,2.7V582.5"/>
	<rect x="541.2" y="578.8" class="st26" width="8.9" height="4.1"/>
	<rect x="545.2" y="577.8" width="1" height="4.2"/>
	<rect x="545.2" y="577.8" class="st29" width="1" height="4.2"/>
</g>
<g>
	<line class="st28" x1="437.7" y1="578.7" x2="437.7" y2="586.9"/>
	<path class="st26" d="M437.6,575.6c-1.7,0-3,1.4-3,3c0,1.8,1.4,3.2,3,3.2c1.8,0,3.2-1.4,3.2-3.2C440.8,577,439.4,575.6,437.6,575.6
		"/>
	<path d="M437.7,576.1c-1.4,0-2.5,1.2-2.5,2.5c0,1.6,1.1,2.7,2.5,2.7v1.2c-2,0-3.7-1.6-3.7-3.8c0-2.1,1.7-3.7,3.7-3.7V576.1z
		 M437.7,582.5c2.2,0,3.8-1.7,3.8-3.8s-1.6-3.7-3.8-3.7v1.1c1.6,0,2.7,1.2,2.7,2.5c0,1.6-1.2,2.7-2.7,2.7V582.5"/>
	<rect x="433.3" y="578.8" class="st26" width="8.9" height="4.1"/>
	<rect x="437.2" y="577.8" width="1" height="4.2"/>
	<rect x="437.2" y="577.8" class="st29" width="1" height="4.2"/>
</g>
<g>
	<g>
		<line class="st25" x1="111.3" y1="783.6" x2="125.2" y2="783.6"/>
	</g>
	<g>
		<line class="st25" x1="114.1" y1="785.7" x2="122.3" y2="785.7"/>
	</g>
	<g>
		<line class="st25" x1="120.6" y1="787.9" x2="115.8" y2="787.9"/>
	</g>
</g>
<g>
	<g>
		<line class="st28" x1="118.2" y1="621.5" x2="118.2" y2="612.9"/>
		<path class="st26" d="M118.1,624.8c-1.7,0-3-1.5-3-3.2c0-1.9,1.4-3.4,3-3.4c1.8,0,3.2,1.5,3.2,3.4
			C121.3,623.3,119.9,624.8,118.1,624.8"/>
		<path d="M118.2,625.4c-2,0-3.7-1.7-3.7-3.9c0-2.3,1.7-4,3.7-4v1.3c-1.4,0-2.5,1.2-2.5,2.8c0,1.4,1.1,2.6,2.5,2.6V625.4z
			 M118.2,617.5v1.3c1.5,0,2.7,1.2,2.7,2.8c0,1.4-1.1,2.6-2.7,2.6v1.2c2.2,0,3.8-1.7,3.8-3.9C122,619.3,120.4,617.5,118.2,617.5"/>
		<rect x="113.8" y="617.1" class="st26" width="8.9" height="4.3"/>
		<rect x="117.7" y="618" width="1" height="4.4"/>
		<rect x="117.7" y="618" class="st29" width="1" height="4.4"/>
	</g>
	<g>
		<line class="st28" x1="118.2" y1="621.5" x2="118.2" y2="612.9"/>
		<path class="st26" d="M118.1,624.8c-1.7,0-3-1.5-3-3.2c0-1.9,1.4-3.4,3-3.4c1.8,0,3.2,1.5,3.2,3.4
			C121.3,623.3,119.9,624.8,118.1,624.8"/>
		<path d="M118.2,625.4c-2,0-3.7-1.7-3.7-3.9c0-2.3,1.7-4,3.7-4v1.3c-1.4,0-2.5,1.2-2.5,2.8c0,1.4,1.1,2.6,2.5,2.6V625.4z
			 M118.2,617.5v1.3c1.5,0,2.7,1.2,2.7,2.8c0,1.4-1.1,2.6-2.7,2.6v1.2c2.2,0,3.8-1.7,3.8-3.9C122,619.3,120.4,617.5,118.2,617.5"/>
		<rect x="113.8" y="617.1" class="st26" width="8.9" height="4.3"/>
		<rect x="117.7" y="618" width="1" height="4.4"/>
		<rect x="117.7" y="618" class="st29" width="1" height="4.4"/>
	</g>
</g>
<g>
	<g>
		<line class="st28" x1="118.2" y1="621.5" x2="118.2" y2="612.9"/>
		<path class="st26" d="M118.1,624.8c-1.7,0-3-1.5-3-3.2c0-1.9,1.4-3.4,3-3.4c1.8,0,3.2,1.5,3.2,3.4
			C121.3,623.3,119.9,624.8,118.1,624.8"/>
		<path d="M118.2,625.4c-2,0-3.7-1.7-3.7-3.9c0-2.3,1.7-4,3.7-4v1.3c-1.4,0-2.5,1.2-2.5,2.8c0,1.4,1.1,2.6,2.5,2.6V625.4z
			 M118.2,617.5v1.3c1.5,0,2.7,1.2,2.7,2.8c0,1.4-1.1,2.6-2.7,2.6v1.2c2.2,0,3.8-1.7,3.8-3.9C122,619.3,120.4,617.5,118.2,617.5"/>
		<rect x="113.8" y="617.1" class="st26" width="8.9" height="4.3"/>
		<rect x="117.7" y="618" width="1" height="4.4"/>
		<rect x="117.7" y="618" class="st29" width="1" height="4.4"/>
	</g>
	<g>
		<line class="st28" x1="118.2" y1="621.5" x2="118.2" y2="612.9"/>
		<path class="st26" d="M118.1,624.8c-1.7,0-3-1.5-3-3.2c0-1.9,1.4-3.4,3-3.4c1.8,0,3.2,1.5,3.2,3.4
			C121.3,623.3,119.9,624.8,118.1,624.8"/>
		<path d="M118.2,625.4c-2,0-3.7-1.7-3.7-3.9c0-2.3,1.7-4,3.7-4v1.3c-1.4,0-2.5,1.2-2.5,2.8c0,1.4,1.1,2.6,2.5,2.6V625.4z
			 M118.2,617.5v1.3c1.5,0,2.7,1.2,2.7,2.8c0,1.4-1.1,2.6-2.7,2.6v1.2c2.2,0,3.8-1.7,3.8-3.9C122,619.3,120.4,617.5,118.2,617.5"/>
		<rect x="113.8" y="617.1" class="st26" width="8.9" height="4.3"/>
		<rect x="117.7" y="618" width="1" height="4.4"/>
		<rect x="117.7" y="618" class="st29" width="1" height="4.4"/>
	</g>
</g>
<g>
	<g>
		<line class="st28" x1="118.2" y1="198.1" x2="118.2" y2="189.5"/>
		<path class="st26" d="M118.1,201.4c-1.7,0-3-1.5-3-3.2c0-1.9,1.4-3.4,3-3.4c1.8,0,3.2,1.5,3.2,3.4
			C121.3,199.9,119.9,201.4,118.1,201.4"/>
		<path d="M118.2,202c-2,0-3.7-1.7-3.7-3.9c0-2.3,1.7-4,3.7-4v1.3c-1.4,0-2.5,1.2-2.5,2.8c0,1.4,1.1,2.6,2.5,2.6V202z M118.2,194.1
			v1.3c1.5,0,2.7,1.2,2.7,2.8c0,1.4-1.1,2.6-2.7,2.6v1.2c2.2,0,3.8-1.7,3.8-3.9C122,195.9,120.4,194.1,118.2,194.1"/>
		<rect x="113.8" y="193.7" class="st26" width="8.9" height="4.3"/>
		<rect x="117.7" y="194.6" width="1" height="4.4"/>
		<rect x="117.7" y="194.6" class="st29" width="1" height="4.4"/>
	</g>
	<g>
		<line class="st28" x1="118.2" y1="198.1" x2="118.2" y2="189.5"/>
		<path class="st26" d="M118.1,201.4c-1.7,0-3-1.5-3-3.2c0-1.9,1.4-3.4,3-3.4c1.8,0,3.2,1.5,3.2,3.4
			C121.3,199.9,119.9,201.4,118.1,201.4"/>
		<path d="M118.2,202c-2,0-3.7-1.7-3.7-3.9c0-2.3,1.7-4,3.7-4v1.3c-1.4,0-2.5,1.2-2.5,2.8c0,1.4,1.1,2.6,2.5,2.6V202z M118.2,194.1
			v1.3c1.5,0,2.7,1.2,2.7,2.8c0,1.4-1.1,2.6-2.7,2.6v1.2c2.2,0,3.8-1.7,3.8-3.9C122,195.9,120.4,194.1,118.2,194.1"/>
		<rect x="113.8" y="193.7" class="st26" width="8.9" height="4.3"/>
		<rect x="117.7" y="194.6" width="1" height="4.4"/>
		<rect x="117.7" y="194.6" class="st29" width="1" height="4.4"/>
	</g>
</g>
<g>
	<g>
		<line class="st28" x1="437.7" y1="621.3" x2="437.7" y2="612.7"/>
		<path class="st26" d="M437.6,624.6c-1.7,0-3-1.5-3-3.2c0-1.9,1.4-3.4,3-3.4c1.8,0,3.2,1.5,3.2,3.4
			C440.8,623.1,439.4,624.6,437.6,624.6"/>
		<path d="M437.7,625.2c-2,0-3.7-1.7-3.7-3.9c0-2.3,1.7-4,3.7-4v1.3c-1.4,0-2.5,1.2-2.5,2.8c0,1.4,1.1,2.6,2.5,2.6V625.2z
			 M437.7,617.3v1.3c1.5,0,2.7,1.2,2.7,2.8c0,1.4-1.1,2.6-2.7,2.6v1.2c2.2,0,3.8-1.7,3.8-3.9C441.5,619.1,439.9,617.3,437.7,617.3"
			/>
		<rect x="433.3" y="616.9" class="st26" width="8.9" height="4.3"/>
		<rect x="437.2" y="617.8" width="1" height="4.4"/>
		<rect x="437.2" y="617.8" class="st29" width="1" height="4.4"/>
	</g>
	<g>
		<line class="st28" x1="437.7" y1="621.3" x2="437.7" y2="612.7"/>
		<path class="st26" d="M437.6,624.6c-1.7,0-3-1.5-3-3.2c0-1.9,1.4-3.4,3-3.4c1.8,0,3.2,1.5,3.2,3.4
			C440.8,623.1,439.4,624.6,437.6,624.6"/>
		<path d="M437.7,625.2c-2,0-3.7-1.7-3.7-3.9c0-2.3,1.7-4,3.7-4v1.3c-1.4,0-2.5,1.2-2.5,2.8c0,1.4,1.1,2.6,2.5,2.6V625.2z
			 M437.7,617.3v1.3c1.5,0,2.7,1.2,2.7,2.8c0,1.4-1.1,2.6-2.7,2.6v1.2c2.2,0,3.8-1.7,3.8-3.9C441.5,619.1,439.9,617.3,437.7,617.3"
			/>
		<rect x="433.3" y="616.9" class="st26" width="8.9" height="4.3"/>
		<rect x="437.2" y="617.8" width="1" height="4.4"/>
		<rect x="437.2" y="617.8" class="st29" width="1" height="4.4"/>
	</g>
</g>
<g>
	<g>
		<line class="st28" x1="545.7" y1="621.3" x2="545.7" y2="612.7"/>
		<path class="st26" d="M545.6,624.6c-1.7,0-3-1.5-3-3.2c0-1.9,1.4-3.4,3-3.4c1.8,0,3.2,1.5,3.2,3.4
			C548.8,623.1,547.4,624.6,545.6,624.6"/>
		<path d="M545.7,625.2c-2,0-3.7-1.7-3.7-3.9c0-2.3,1.7-4,3.7-4v1.3c-1.4,0-2.5,1.2-2.5,2.8c0,1.4,1.1,2.6,2.5,2.6V625.2z
			 M545.7,617.3v1.3c1.5,0,2.7,1.2,2.7,2.8c0,1.4-1.1,2.6-2.7,2.6v1.2c2.2,0,3.8-1.7,3.8-3.9S547.9,617.3,545.7,617.3"/>
		<rect x="541.2" y="616.9" class="st26" width="8.9" height="4.3"/>
		<rect x="545.2" y="617.8" width="1" height="4.4"/>
		<rect x="545.2" y="617.8" class="st29" width="1" height="4.4"/>
	</g>
	<g>
		<line class="st28" x1="545.7" y1="621.3" x2="545.7" y2="612.7"/>
		<path class="st26" d="M545.6,624.6c-1.7,0-3-1.5-3-3.2c0-1.9,1.4-3.4,3-3.4c1.8,0,3.2,1.5,3.2,3.4
			C548.8,623.1,547.4,624.6,545.6,624.6"/>
		<path d="M545.7,625.2c-2,0-3.7-1.7-3.7-3.9c0-2.3,1.7-4,3.7-4v1.3c-1.4,0-2.5,1.2-2.5,2.8c0,1.4,1.1,2.6,2.5,2.6V625.2z
			 M545.7,617.3v1.3c1.5,0,2.7,1.2,2.7,2.8c0,1.4-1.1,2.6-2.7,2.6v1.2c2.2,0,3.8-1.7,3.8-3.9S547.9,617.3,545.7,617.3"/>
		<rect x="541.2" y="616.9" class="st26" width="8.9" height="4.3"/>
		<rect x="545.2" y="617.8" width="1" height="4.4"/>
		<rect x="545.2" y="617.8" class="st29" width="1" height="4.4"/>
	</g>
</g>
<g>
	<line class="st28" x1="118.2" y1="579" x2="118.2" y2="587.2"/>
	<path class="st26" d="M118.1,575.9c-1.7,0-3,1.4-3,3c0,1.8,1.4,3.2,3,3.2c1.8,0,3.2-1.4,3.2-3.2
		C121.3,577.3,119.9,575.9,118.1,575.9"/>
	<path d="M118.2,576.4c-1.4,0-2.5,1.2-2.5,2.5c0,1.6,1.1,2.7,2.5,2.7v1.2c-2,0-3.7-1.6-3.7-3.8c0-2.1,1.7-3.7,3.7-3.7V576.4z
		 M118.2,582.8c2.2,0,3.8-1.7,3.8-3.8s-1.6-3.7-3.8-3.7v1.1c1.6,0,2.7,1.2,2.7,2.5c0,1.6-1.2,2.7-2.7,2.7V582.8"/>
	<rect x="113.8" y="579.1" class="st26" width="8.9" height="4.1"/>
	<rect x="117.7" y="578.1" width="1" height="4.2"/>
	<rect x="117.7" y="578.1" class="st29" width="1" height="4.2"/>
	<line class="st28" x1="118.2" y1="579" x2="118.2" y2="587.2"/>
	<path class="st26" d="M118.1,575.9c-1.7,0-3,1.4-3,3c0,1.8,1.4,3.2,3,3.2c1.8,0,3.2-1.4,3.2-3.2
		C121.3,577.3,119.9,575.9,118.1,575.9"/>
	<path d="M118.2,576.4c-1.4,0-2.5,1.2-2.5,2.5c0,1.6,1.1,2.7,2.5,2.7v1.2c-2,0-3.7-1.6-3.7-3.8c0-2.1,1.7-3.7,3.7-3.7V576.4z
		 M118.2,582.8c2.2,0,3.8-1.7,3.8-3.8s-1.6-3.7-3.8-3.7v1.1c1.6,0,2.7,1.2,2.7,2.5c0,1.6-1.2,2.7-2.7,2.7V582.8"/>
	<rect x="113.8" y="579.1" class="st26" width="8.9" height="4.1"/>
	<rect x="117.7" y="578.1" width="1" height="4.2"/>
	<rect x="117.7" y="578.1" class="st29" width="1" height="4.2"/>
</g>
<g>
	<g>
		<line class="st25" x1="226.2" y1="783.6" x2="240.1" y2="783.6"/>
	</g>
	<g>
		<line class="st25" x1="229.1" y1="785.7" x2="237.3" y2="785.7"/>
	</g>
	<g>
		<line class="st25" x1="235.6" y1="787.9" x2="230.8" y2="787.9"/>
	</g>
</g>
<g>
	<line class="st28" x1="424" y1="380.3" x2="424" y2="388.5"/>
	<path class="st26" d="M423.9,377.2c-1.7,0-3,1.4-3,3c0,1.8,1.4,3.2,3,3.2c1.8,0,3.2-1.4,3.2-3.2
		C427.1,378.6,425.7,377.2,423.9,377.2"/>
	<path d="M424,377.7c-1.4,0-2.5,1.2-2.5,2.5c0,1.6,1.1,2.7,2.5,2.7v1.2c-2,0-3.7-1.6-3.7-3.8c0-2.1,1.7-3.7,3.7-3.7V377.7z
		 M424,384.1c2.2,0,3.8-1.7,3.8-3.8c0-2.1-1.6-3.7-3.8-3.7v1.1c1.6,0,2.7,1.2,2.7,2.5c0,1.6-1.2,2.7-2.7,2.7V384.1"/>
	<rect x="419.5" y="380.4" class="st26" width="8.9" height="4.1"/>
	<rect x="423.5" y="379.4" width="1" height="4.2"/>
	<rect x="423.5" y="379.4" class="st29" width="1" height="4.2"/>
</g>
<g>
	<path class="st20" d="M434.9,674.6c0-1.7,1.3-2.9,2.8-2.9c1.6,0,2.9,1.2,2.9,2.9c0,1.5-1.3,2.7-2.9,2.7
		C436.2,677.3,434.9,676.1,434.9,674.6z"/>
	<g>
		<path class="st21" d="M434.9,674.6c0-1.7,1.3-2.9,2.8-2.9c1.6,0,2.9,1.2,2.9,2.9c0,1.5-1.3,2.7-2.9,2.7
			C436.2,677.3,434.9,676.1,434.9,674.6"/>
	</g>
</g>
<g>
	<line class="st28" x1="289.9" y1="380.3" x2="289.9" y2="388.5"/>
	<path class="st26" d="M289.8,377.2c-1.7,0-3,1.4-3,3c0,1.8,1.4,3.2,3,3.2c1.8,0,3.2-1.4,3.2-3.2C293,378.6,291.6,377.2,289.8,377.2
		"/>
	<path d="M289.9,377.7c-1.4,0-2.5,1.2-2.5,2.5c0,1.6,1.1,2.7,2.5,2.7v1.2c-2,0-3.7-1.6-3.7-3.8c0-2.1,1.7-3.7,3.7-3.7V377.7z
		 M289.9,384.1c2.2,0,3.8-1.7,3.8-3.8c0-2.1-1.6-3.7-3.8-3.7v1.1c1.6,0,2.7,1.2,2.7,2.5c0,1.6-1.2,2.7-2.7,2.7V384.1"/>
	<rect x="285.5" y="380.4" class="st26" width="8.9" height="4.1"/>
	<rect x="289.4" y="379.4" width="1" height="4.2"/>
	<rect x="289.4" y="379.4" class="st29" width="1" height="4.2"/>
</g>
<g>
	<line class="st28" x1="546.7" y1="380.3" x2="546.7" y2="388.5"/>
	<path class="st26" d="M546.6,377.2c-1.7,0-3,1.4-3,3c0,1.8,1.4,3.2,3,3.2c1.8,0,3.2-1.4,3.2-3.2
		C549.8,378.6,548.4,377.2,546.6,377.2"/>
	<path d="M546.7,377.7c-1.4,0-2.5,1.2-2.5,2.5c0,1.6,1.1,2.7,2.5,2.7v1.2c-2,0-3.7-1.6-3.7-3.8c0-2.1,1.7-3.7,3.7-3.7V377.7z
		 M546.7,384.1c2.2,0,3.8-1.7,3.8-3.8c0-2.1-1.6-3.7-3.8-3.7v1.1c1.6,0,2.7,1.2,2.7,2.5c0,1.6-1.2,2.7-2.7,2.7V384.1"/>
	<rect x="542.2" y="380.4" class="st26" width="8.9" height="4.1"/>
	<rect x="546.2" y="379.4" width="1" height="4.2"/>
	<rect x="546.2" y="379.4" class="st29" width="1" height="4.2"/>
</g>
<g>
	<line class="st28" x1="490.1" y1="380.3" x2="490.1" y2="388.5"/>
	<path class="st26" d="M490,377.2c-1.7,0-3,1.4-3,3c0,1.8,1.4,3.2,3,3.2c1.8,0,3.2-1.4,3.2-3.2C493.2,378.6,491.8,377.2,490,377.2"
		/>
	<path d="M490,377.7c-1.4,0-2.5,1.2-2.5,2.5c0,1.6,1.1,2.7,2.5,2.7v1.2c-2,0-3.7-1.6-3.7-3.8c0-2.1,1.7-3.7,3.7-3.7V377.7z
		 M490,384.1c2.2,0,3.8-1.7,3.8-3.8c0-2.1-1.6-3.7-3.8-3.7v1.1c1.6,0,2.7,1.2,2.7,2.5c0,1.6-1.2,2.7-2.7,2.7V384.1"/>
	<rect x="485.6" y="380.4" class="st26" width="8.9" height="4.1"/>
	<rect x="489.6" y="379.4" width="1" height="4.2"/>
	<rect x="489.6" y="379.4" class="st29" width="1" height="4.2"/>
</g>
<g>
	<g>
		<line class="st25" x1="538.8" y1="783.6" x2="552.7" y2="783.6"/>
	</g>
	<g>
		<line class="st25" x1="541.6" y1="785.7" x2="549.8" y2="785.7"/>
	</g>
	<g>
		<line class="st25" x1="548.1" y1="787.9" x2="543.3" y2="787.9"/>
	</g>
</g>
<g>
	<rect x="437.3" y="419.3" class="st29" width="1" height="4.2"/>
	<line class="st28" x1="437.8" y1="422.6" x2="437.8" y2="414.4"/>
	<g>
		<path class="st26" d="M437.7,425.7c-1.7,0-3-1.4-3-3c0-1.8,1.4-3.2,3-3.2c1.8,0,3.2,1.4,3.2,3.2
			C440.9,424.3,439.5,425.7,437.7,425.7"/>
		<path d="M437.8,426.3c-2,0-3.7-1.6-3.7-3.7c0-2.2,1.7-3.8,3.7-3.8v1.2c-1.4,0-2.5,1.1-2.5,2.7c0,1.3,1.1,2.5,2.5,2.5V426.3z
			 M437.8,418.8v1.2c1.5,0,2.7,1.1,2.7,2.7c0,1.3-1.1,2.5-2.7,2.5v1.1c2.2,0,3.8-1.6,3.8-3.7C441.6,420.5,440,418.8,437.8,418.8"/>
		<rect x="433.4" y="418.4" class="st26" width="8.9" height="4.1"/>
	</g>
	<rect x="437.3" y="419.3" width="1" height="4.2"/>
</g>
<g>
	<rect x="344.8" y="419.3" class="st29" width="1" height="4.2"/>
	<line class="st28" x1="345.3" y1="422.6" x2="345.3" y2="414.4"/>
	<g>
		<path class="st26" d="M345.2,425.7c-1.7,0-3-1.4-3-3c0-1.8,1.4-3.2,3-3.2c1.8,0,3.2,1.4,3.2,3.2
			C348.4,424.3,347,425.7,345.2,425.7"/>
		<path d="M345.3,426.3c-2,0-3.7-1.6-3.7-3.7c0-2.2,1.7-3.8,3.7-3.8v1.2c-1.4,0-2.5,1.1-2.5,2.7c0,1.3,1.1,2.5,2.5,2.5V426.3z
			 M345.3,418.8v1.2c1.5,0,2.7,1.1,2.7,2.7c0,1.3-1.1,2.5-2.7,2.5v1.1c2.2,0,3.8-1.6,3.8-3.7C349.1,420.5,347.5,418.8,345.3,418.8"
			/>
		<rect x="340.9" y="418.4" class="st26" width="8.9" height="4.1"/>
	</g>
	<rect x="344.8" y="419.3" width="1" height="4.2"/>
</g>
<g>
	<rect x="288.1" y="419.3" class="st29" width="1" height="4.2"/>
	<line class="st28" x1="288.6" y1="422.6" x2="288.6" y2="414.4"/>
	<g>
		<path class="st26" d="M288.5,425.7c-1.7,0-3-1.4-3-3c0-1.8,1.4-3.2,3-3.2c1.8,0,3.2,1.4,3.2,3.2
			C291.7,424.3,290.3,425.7,288.5,425.7"/>
		<path d="M288.6,426.3c-2,0-3.7-1.6-3.7-3.7c0-2.2,1.7-3.8,3.7-3.8v1.2c-1.4,0-2.5,1.1-2.5,2.7c0,1.3,1.1,2.5,2.5,2.5V426.3z
			 M288.6,418.8v1.2c1.5,0,2.7,1.1,2.7,2.7c0,1.3-1.1,2.5-2.7,2.5v1.1c2.2,0,3.8-1.6,3.8-3.7S290.8,418.8,288.6,418.8"/>
		<rect x="284.1" y="418.4" class="st26" width="8.9" height="4.1"/>
	</g>
	<rect x="288.1" y="419.3" width="1" height="4.2"/>
</g>
<path class="st20" d="M230.3,304.8c0-1.7,1.3-2.9,2.8-2.9c1.6,0,2.9,1.2,2.9,2.9c0,1.5-1.3,2.7-2.9,2.7
	C231.6,307.5,230.3,306.3,230.3,304.8z"/>
<path class="st36" d="M547.9,242.9c2.2,0,4-1.9,4-4.3c0-2.4-1.7-4.3-3.9-4.3l-59.2,8.7c-2.2-0.1-3.9-2-3.9-4.3c0-2.4,1.8-4.3,4-4.3
	L547.9,242.9z"/>
<path class="st37" d="M485.9,196.3l0.7-2.3c0,0,0.7-2.7,3.8-2.8h25.2l0,0l2.2-2.9l2.2,2.9c10.3,0,25.2,0,25.2,0
	c3.1,0.1,3.8,2.8,3.8,2.8l0.7,2.3"/>
<g>
	<circle class="st38" cx="201.5" cy="167.8" r="2"/>
	<circle class="st38" cx="201.5" cy="146.6" r="2"/>
</g>
<polyline class="st18" points="160.8,166 160.8,182.3 118.2,182.3 118.2,189.1 "/>
<path class="st22" d="M463.6,152.4"/>
<g>
	<g>
		<rect x="108.1" y="790.4" class="st26" width="20.3" height="8.2"/>
		<rect x="108.4" y="790.8" class="st39" width="19.7" height="7.6"/>
	</g>
</g>
<g>
	<g>
		<rect x="536.9" y="790.4" class="st26" width="20.3" height="8.2"/>
		<rect x="537.2" y="790.8" class="st39" width="19.7" height="7.6"/>
	</g>
</g>
<g>
	<g>
		<line class="st25" x1="431" y1="783.6" x2="444.9" y2="783.6"/>
	</g>
	<g>
		<line class="st25" x1="433.8" y1="785.7" x2="442" y2="785.7"/>
	</g>
	<g>
		<line class="st25" x1="440.3" y1="787.9" x2="435.5" y2="787.9"/>
	</g>
</g>
<g>
	<g>
		<rect x="429.2" y="790.4" class="st26" width="20.3" height="8.2"/>
		<rect x="429.5" y="790.8" class="st39" width="19.7" height="7.6"/>
	</g>
</g>
<g>
	<g>
		<rect x="222.7" y="790.4" class="st26" width="20.3" height="8.2"/>
		<rect x="223" y="790.8" class="st39" width="19.7" height="7.6"/>
	</g>
</g>
<g>
	<line class="st28" x1="545.7" y1="518.6" x2="545.7" y2="510.4"/>
	<g>
		<path class="st26" d="M545.6,521.7c-1.7,0-3-1.4-3-3c0-1.8,1.4-3.2,3-3.2c1.8,0,3.2,1.4,3.2,3.2
			C548.8,520.3,547.4,521.7,545.6,521.7"/>
		<path d="M545.7,522.3c-2,0-3.7-1.6-3.7-3.7c0-2.2,1.7-3.8,3.7-3.8v1.2c-1.4,0-2.5,1.1-2.5,2.7c0,1.3,1.1,2.5,2.5,2.5V522.3z
			 M545.7,514.8v1.2c1.5,0,2.7,1.1,2.7,2.7c0,1.3-1.1,2.5-2.7,2.5v1.1c2.2,0,3.8-1.6,3.8-3.7C549.5,516.5,547.9,514.8,545.7,514.8"
			/>
		<rect x="541.2" y="514.4" class="st26" width="8.9" height="4.1"/>
		<rect x="545.2" y="515.3" width="1" height="4.2"/>
		<rect x="545.2" y="515.3" class="st29" width="1" height="4.2"/>
	</g>
</g>
<g>
	<line class="st28" x1="545.7" y1="476.3" x2="545.7" y2="484.5"/>
	<path class="st26" d="M545.6,473.2c-1.7,0-3,1.4-3,3c0,1.8,1.4,3.2,3,3.2c1.8,0,3.2-1.4,3.2-3.2
		C548.8,474.6,547.4,473.2,545.6,473.2"/>
	<path d="M545.7,473.7c-1.4,0-2.5,1.2-2.5,2.5c0,1.6,1.1,2.7,2.5,2.7v1.2c-2,0-3.7-1.6-3.7-3.8c0-2.1,1.7-3.7,3.7-3.7V473.7z
		 M545.7,480.1c2.2,0,3.8-1.7,3.8-3.8c0-2.1-1.6-3.7-3.8-3.7v1.1c1.6,0,2.7,1.2,2.7,2.5c0,1.6-1.2,2.7-2.7,2.7V480.1"/>
	<rect x="541.2" y="476.4" class="st26" width="8.9" height="4.1"/>
	<rect x="545.2" y="475.4" width="1" height="4.2"/>
	<rect x="545.2" y="475.4" class="st29" width="1" height="4.2"/>
</g>
<g>
	<rect x="341.5" y="275.8" class="st26" width="8.9" height="18.8"/>
	<line class="st28" x1="345.9" y1="275.9" x2="345.9" y2="294.4"/>
	<path class="st26" d="M346,287.2c1.7,0,3-1.4,3-3c0-1.8-1.4-3.2-3-3.2c-1.8,0-3.2,1.4-3.2,3.2C342.8,285.8,344.2,287.2,346,287.2"
		/>
	<path d="M346,286.7c1.4,0,2.5-1.2,2.5-2.5c0-1.6-1.1-2.7-2.5-2.7v-1.2c2,0,3.7,1.6,3.7,3.8c0,2.1-1.7,3.7-3.7,3.7V286.7z
		 M346,280.3c-2.2,0-3.8,1.7-3.8,3.8c0,2.1,1.6,3.7,3.8,3.7v-1.1c-1.6,0-2.7-1.2-2.7-2.5c0-1.6,1.2-2.7,2.7-2.7V280.3"/>
	<rect x="341.5" y="279.9" class="st26" width="8.9" height="4.1"/>
	<rect x="345.4" y="280.8" width="1" height="4.2"/>
	<rect x="345.4" y="280.8" class="st29" width="1" height="4.2"/>
	<line class="st28" x1="345.9" y1="275.9" x2="345.9" y2="294.4"/>
	<path class="st26" d="M346,287.2c1.7,0,3-1.4,3-3c0-1.8-1.4-3.2-3-3.2c-1.8,0-3.2,1.4-3.2,3.2C342.8,285.8,344.2,287.2,346,287.2"
		/>
	<path d="M346,286.7c1.4,0,2.5-1.2,2.5-2.5c0-1.6-1.1-2.7-2.5-2.7v-1.2c2,0,3.7,1.6,3.7,3.8c0,2.1-1.7,3.7-3.7,3.7V286.7z
		 M346,280.3c-2.2,0-3.8,1.7-3.8,3.8c0,2.1,1.6,3.7,3.8,3.7v-1.1c-1.6,0-2.7-1.2-2.7-2.5c0-1.6,1.2-2.7,2.7-2.7V280.3"/>
	<rect x="341.5" y="279.9" class="st26" width="8.9" height="4.1"/>
	<rect x="345.4" y="280.8" width="1" height="4.2"/>
	<rect x="345.4" y="280.8" class="st29" width="1" height="4.2"/>
</g>
<g>
	<rect x="238.6" y="301.6" class="st40" width="24.2" height="6.3"/>
</g>
<g>
	<rect x="125.2" y="671.4" class="st40" width="24.2" height="6.3"/>
</g>
<text transform="matrix(1 0 0 1 125.2198 676.356)" class="st8 st9">SP4846</text>
<g>
	<g>
		<rect x="444.3" y="671.4" class="st40" width="24.2" height="6.3"/>
	</g>
	<text transform="matrix(1 0 0 1 444.3032 676.3562)" class="st8 st9">SP4848</text>
</g>
<g>
	<g>
		<rect x="552.7" y="671.4" class="st40" width="24.2" height="6.3"/>
	</g>
	<text transform="matrix(1 0 0 1 552.7482 676.3552)" class="st8 st9">SP4849</text>
</g>
<text transform="matrix(1 0 0 1 238.6049 306.5319)" class="st8 st9">SP4878</text>
<path class="st20" d="M342.7,336.4c0-1.7,1.3-2.9,2.8-2.9c1.6,0,2.9,1.2,2.9,2.9c0,1.5-1.3,2.7-2.9,2.7
	C344,339.1,342.7,337.9,342.7,336.4z"/>
<g>
	<rect x="351" y="333.1" class="st40" width="24.2" height="6.3"/>
</g>
<text transform="matrix(1 0 0 1 351.0278 338.103)" class="st8 st9">SP6005</text>
<path class="st20" d="M342.7,238.1c0-1.7,1.3-2.9,2.8-2.9c1.6,0,2.9,1.2,2.9,2.9c0,1.5-1.3,2.7-2.9,2.7
	C344,240.8,342.7,239.6,342.7,238.1z"/>
<g>
	<rect x="351" y="234.9" class="st40" width="24.2" height="6.3"/>
</g>
<text transform="matrix(1 0 0 1 351.0278 239.8365)" class="st8 st9">SP4915</text>
<g>
	<rect x="103.3" y="643" class="st26" width="29.8" height="7.1"/>
	<text transform="matrix(1 0 0 1 110.7098 648.4055)" class="st8 st9">B 2.5</text>
</g>
<g>
	<rect x="103.3" y="698.9" class="st26" width="29.8" height="7.1"/>
	<text transform="matrix(1 0 0 1 110.7098 704.3069)" class="st8 st9">B 2.5</text>
</g>
<rect x="216.6" y="439.3" class="st26" width="29.8" height="7.1"/>
<text transform="matrix(1 0 0 1 222.1302 444.6519)" class="st8 st9">B 0.75</text>
<rect x="216.6" y="439.3" class="st26" width="29.8" height="7.1"/>
<text transform="matrix(1 0 0 1 222.1302 444.6519)" class="st8 st9">B 0.75</text>
<rect x="216.6" y="698.9" class="st26" width="29.8" height="7.1"/>
<text transform="matrix(1 0 0 1 222.1302 704.3069)" class="st8 st9">B 0.75</text>
<rect x="216.6" y="698.9" class="st26" width="29.8" height="7.1"/>
<text transform="matrix(1 0 0 1 222.1302 704.3069)" class="st8 st9">B 0.75</text>
<g>
	<rect x="530.8" y="643.2" class="st26" width="29.8" height="7.1"/>
	<text transform="matrix(1 0 0 1 536.3235 648.5591)" class="st8 st9">B 0.35</text>
</g>
<rect x="543.2" y="698.9" class="st26" width="5" height="7.1"/>
<text transform="matrix(1 0 0 1 538.1049 704.3069)" class="st8 st9">B 1.0</text>
<rect x="422.8" y="643.2" class="st26" width="29.8" height="7.1"/>
<text transform="matrix(1 0 0 1 428.3534 648.5585)" class="st8 st9">B 0.35</text>
<rect x="422.8" y="698.9" class="st26" width="29.8" height="7.1"/>
<text transform="matrix(1 0 0 1 430.1575 704.3068)" class="st8 st9">B 0.5</text>
<rect x="543" y="439.3" class="st26" width="5.5" height="7.1"/>
<text transform="matrix(1 0 0 1 536.7414 444.6747)" class="st8 st9">L 0.35</text>
<rect x="543" y="537.2" class="st26" width="5.5" height="7.1"/>
<text transform="matrix(1 0 0 1 536.7414 542.6177)" class="st8 st9">L 0.35</text>
<rect x="408.9" y="210.1" class="st26" width="29.8" height="7.1"/>
<text transform="matrix(1 0 0 1 415.9587 215.4634)" class="st8 st9">R 8.0</text>
<rect x="475.2" y="356.3" class="st26" width="29.8" height="7.1"/>
<text transform="matrix(1 0 0 1 480.6664 361.6597)" class="st8 st9">P 0.35</text>
<rect x="531.9" y="356.3" class="st26" width="29.8" height="7.1"/>
<text transform="matrix(1 0 0 1 537.3312 361.6597)" class="st8 st9">V 0.35</text>
<rect x="275" y="210.1" class="st26" width="29.8" height="7.1"/>
<text transform="matrix(1 0 0 1 276.0057 215.4634)" class="st8 st9">W/R 0.35</text>
<rect x="408.9" y="356.3" class="st26" width="29.8" height="7.1"/>
<text transform="matrix(1 0 0 1 415.9587 361.6594)" class="st8 st9">R 8.0</text>
<rect x="275" y="356.3" class="st26" width="29.8" height="7.1"/>
<text transform="matrix(1 0 0 1 276.0057 361.6594)" class="st8 st9">W/R 0.35</text>
<g>
	<line class="st28" x1="345.8" y1="197.7" x2="345.8" y2="189.5"/>
	<path class="st26" d="M345.7,200.8c-1.7,0-3-1.4-3-3c0-1.8,1.4-3.2,3-3.2c1.8,0,3.2,1.4,3.2,3.2
		C348.9,199.4,347.5,200.8,345.7,200.8"/>
	<path d="M345.8,201.4c-2,0-3.7-1.6-3.7-3.7c0-2.2,1.7-3.8,3.7-3.8v1.2c-1.4,0-2.5,1.1-2.5,2.7c0,1.3,1.1,2.5,2.5,2.5V201.4z
		 M345.8,193.9v1.2c1.5,0,2.7,1.1,2.7,2.7c0,1.3-1.1,2.5-2.7,2.5v1.1c2.2,0,3.8-1.6,3.8-3.7C349.6,195.6,348,193.9,345.8,193.9"/>
	<rect x="341.4" y="193.5" class="st26" width="8.9" height="4.1"/>
	<rect x="345.3" y="194.4" width="1" height="4.2"/>
	<rect x="345.3" y="194.4" class="st29" width="1" height="4.2"/>
</g>
<g>
	<line class="st28" x1="345.8" y1="380.3" x2="345.8" y2="388.5"/>
	<path class="st26" d="M345.7,377.2c-1.7,0-3,1.4-3,3c0,1.8,1.4,3.2,3,3.2c1.8,0,3.2-1.4,3.2-3.2
		C348.9,378.6,347.5,377.2,345.7,377.2"/>
	<path d="M345.8,377.7c-1.4,0-2.5,1.2-2.5,2.5c0,1.6,1.1,2.7,2.5,2.7v1.2c-2,0-3.7-1.6-3.7-3.8c0-2.1,1.7-3.7,3.7-3.7V377.7z
		 M345.8,384.1c2.2,0,3.8-1.7,3.8-3.8c0-2.1-1.6-3.7-3.8-3.7v1.1c1.6,0,2.7,1.2,2.7,2.5c0,1.6-1.2,2.7-2.7,2.7V384.1"/>
	<rect x="341.4" y="380.4" class="st26" width="8.9" height="4.1"/>
	<rect x="345.3" y="379.4" width="1" height="4.2"/>
	<rect x="345.3" y="379.4" class="st29" width="1" height="4.2"/>
</g>
<rect x="330.9" y="210.1" class="st26" width="29.8" height="7.1"/>
<text transform="matrix(1 0 0 1 331.9062 215.4634)" class="st8 st9">R/Y 0.35</text>
<rect x="330.9" y="252.6" class="st26" width="29.8" height="7.1"/>
<text transform="matrix(1 0 0 1 331.9062 257.9634)" class="st8 st9">R/Y 0.35</text>
<rect x="330.9" y="356.3" class="st26" width="29.8" height="7.1"/>
<text transform="matrix(1 0 0 1 333.2184 361.6594)" class="st8 st9">R/Y 0.35</text>
<rect x="330.9" y="314.4" class="st26" width="29.8" height="7.1"/>
<text transform="matrix(1 0 0 1 333.2184 319.8101)" class="st8 st9">R/Y 0.35</text>
<rect x="216.6" y="210.1" class="st26" width="29.8" height="7.1"/>
<text transform="matrix(1 0 0 1 222.1769 215.4633)" class="st8 st9">B 0.22</text>
<rect x="423" y="439.3" class="st26" width="29.8" height="7.1"/>
<text transform="matrix(1 0 0 1 428.8588 444.6516)" class="st8 st9">L 0.35</text>
<rect x="423" y="537.2" class="st26" width="29.8" height="7.1"/>
<text transform="matrix(1 0 0 1 428.8588 542.6169)" class="st8 st9">L 0.35</text>
<rect x="113.4" y="356.3" class="st26" width="9.6" height="7.1"/>
<text transform="matrix(1 0 0 1 106.5494 361.6597)" class="st8 st9">R/W 2.5</text>
<rect x="113.4" y="537.2" class="st26" width="9.6" height="7.1"/>
<text transform="matrix(1 0 0 1 106.5494 542.6174)" class="st8 st9">R/W 2.5</text>
<rect x="113.4" y="210.1" class="st26" width="9.6" height="7.1"/>
<text transform="matrix(1 0 0 1 106.5494 215.4634)" class="st8 st9">R/W 2.5</text>
<text transform="matrix(1 0 0 1 463.6002 184.6128)" class="st8 st9">See Body Network System - Circuit Diagram</text>
<text transform="matrix(1 0 0 1 267.9388 393.5526)" class="st8 st41">Rear windshield defrost drive</text>
<text transform="matrix(1 0 0 1 338.3156 393.5526)" class="st8 st41">IG3 power supply</text>
<text transform="matrix(1 0 0 1 432.0802 162.8405)" class="st8 st9">100A</text>
<g>
	<polyline class="st18" points="345.9,166.8 345.9,171.1 345.9,189.5 	"/>
</g>
<g>
	<g>
		<path class="st19" d="M346,162.4c-1.2,0-2.2,1-2.2,2.2s1,2.2,2.2,2.2s2.2-1,2.2-2.2S347.2,162.4,346,162.4"/>
	</g>
	<g>
		<path class="st19" d="M346,146.6c-1.2,0-2.2,1-2.2,2.1c0,1.2,1,2.2,2.2,2.2s2.2-0.9,2.2-2.2C348.2,147.6,347.2,146.6,346,146.6"/>
	</g>
	<g>
		<path class="st19" d="M344.5,150.3c-0.1,2.5,0.2,3.2,1.3,4.3c1.2,1.2,2.4,1.7,2.8,3.7c0.4,1.6-0.1,3.5-1.1,4.5"/>
	</g>
	<g>
		<path class="st19" d="M347.4,162.9c0.2-0.8,0-2.9-0.6-3.7c-0.9-1.2-2.7-2.1-3.3-4c-0.9-2.8,0.7-4.6,1.1-5"/>
	</g>
</g>
<polyline class="st18" points="345.9,146.6 345.9,104.4 345.9,73.4 "/>
<path class="st20" d="M343.1,72.4c0-1.7,1.3-2.9,2.8-2.9c1.6,0,2.9,1.2,2.9,2.9c0,1.5-1.3,2.7-2.9,2.7
	C344.4,75.1,343.1,73.9,343.1,72.4z"/>
<g>
	<path class="st21" d="M343.1,72.4c0-1.7,1.3-2.9,2.8-2.9c1.6,0,2.9,1.2,2.9,2.9c0,1.5-1.3,2.7-2.9,2.7
		C344.4,75.1,343.1,73.9,343.1,72.4"/>
</g>
<text transform="matrix(1 0 0 1 353.9877 162.8405)" class="st8 st9">7.5A</text>
<text transform="matrix(1 0 0 1 419.7517 393.5526)" class="st8 st41">Constant power</text>
<g>
	<text transform="matrix(1 0 0 1 399.1914 412.7404)" class="st8 st41">Left outside rearview mirror heating drive</text>
</g>
<g>
	<text transform="matrix(1 0 0 1 484.9128 393.5527)" class="st8 st41">CAN_H</text>
</g>
<g>
	<text transform="matrix(1 0 0 1 540.3745 393.5527)" class="st8 st41">CAN_L</text>
</g>
<g>
	<text transform="matrix(1 0 0 1 527.7088 406.7631)" class="st42"><tspan x="0" y="0" class="st8 st41">Right outside rearview </tspan><tspan x="0" y="4.8" class="st8 st41">mirror heating drive</tspan></text>
</g>
<text transform="matrix(1 0 0 1 231.8876 160.7617)" class="st42"><tspan x="0" y="0" class="st8 st9">Rear windshield </tspan><tspan x="0" y="7.2" class="st8 st9">defrost relay</tspan></text>
<rect x="335.5" y="439.8" class="st26" width="12.7" height="6"/>
<rect x="335.5" y="439.8" class="st26" width="12.5" height="6"/>
<text transform="matrix(1 0 0 1 336.3181 444.6519)" class="st8 st9">B 2.5</text>
<rect x="337.5" y="699.5" class="st26" width="12.7" height="6"/>
<rect x="337.6" y="699.5" class="st26" width="12.5" height="6"/>
<text transform="matrix(1 0 0 1 336.3176 704.3067)" class="st8 st9">B 2.5</text>
<g id="GB031_4_">
	<g>
		<g>
			<line class="st25" x1="288.7" y1="779.7" x2="288.7" y2="782.4"/>
		</g>
		<g>
			<line class="st25" x1="281.7" y1="782.4" x2="295.5" y2="782.4"/>
		</g>
		<g>
			<line class="st25" x1="284.5" y1="784.6" x2="292.7" y2="784.6"/>
		</g>
		<g>
			<line class="st25" x1="291" y1="786.7" x2="286.2" y2="786.7"/>
		</g>
	</g>
	<g>
		<rect x="278.3" y="789.2" class="st26" width="20.3" height="8.2"/>
		<rect x="278.6" y="789.6" class="st27" width="19.7" height="7.6"/>
	</g>
</g>
<rect x="281.4" y="439.8" class="st26" width="12.5" height="6"/>
<text transform="matrix(1 0 0 1 279.7674 444.6517)" class="st8 st9">B 2.5</text>
<rect x="281.4" y="699.9" class="st26" width="12.5" height="6"/>
<text transform="matrix(1 0 0 1 279.7674 705.0844)" class="st8 st9">B 2.5</text>
<g>
	<text transform="matrix(1 0 0 1 269.8141 406.5533)" class="st42"><tspan x="0" y="0" class="st8 st41">Left body control </tspan><tspan x="0" y="4.8" class="st8 st41">module power ground 1</tspan></text>
</g>
<g>
	<text transform="matrix(1 0 0 1 323.5434 406.5533)" class="st42"><tspan x="0" y="0" class="st8 st41">Left body control </tspan><tspan x="0" y="4.8" class="st8 st41">module power ground 2</tspan></text>
</g>
<line class="st22" x1="545.7" y1="484.5" x2="545.7" y2="510.4"/>
<g>
	<text transform="matrix(1 0 0 1 73.6772 155.4045)" class="st43 st8 st9">F1/20</text>
</g>
<g>
	<g>
		<g>
			<text transform="matrix(1 0 0 1 338.3158 796.0931)" class="st43 st8 st9">Ek02</text>
		</g>
	</g>
</g>
<g>
	<text transform="matrix(1 0 0 1 110.7801 796.292)" class="st43 st8 st9">Ey01</text>
</g>
<g>
	<text transform="matrix(1 0 0 1 539.6207 796.2921)" class="st43 st8 st9">Eu01</text>
</g>
<g>
	<text transform="matrix(1 0 0 1 431.8444 796.2921)" class="st43 st8 st9">Et01</text>
</g>
<g>
	<text transform="matrix(1 0 0 1 225.4269 796.292)" class="st43 st8 st9">Eb01</text>
</g>
<g>
	<text transform="matrix(1 0 0 1 461.1305 157.1361)" class="st43 st8 st9">Positive fuse box</text>
</g>
<g>
	<text transform="matrix(1 0 0 1 169.9837 115.3297)" class="st43 st8 st9">Front compartment fuse box</text>
</g>
<g>
	<text transform="matrix(1 0 0 1 432.0802 155.1396)" class="st43 st8 st9">F4/03</text>
</g>
<g>
	<text transform="matrix(1 0 0 1 353.9877 155.1396)" class="st43 st8 st9">F1/12</text>
</g>
<g>
	<text transform="matrix(1 0 0 1 431.6934 198.2363)" class="st43 st8 st9">B46_3</text>
</g>
<g>
	<text transform="matrix(1 0 0 1 450.6099 198.2363)" class="st43 st8 st9">-1</text>
</g>
<g>
	<text transform="matrix(1 0 0 1 551.4355 421.8242)" class="st43 st8 st9">G64(G)</text>
</g>
<g>
	<text transform="matrix(1 0 0 1 572.519 421.8242)" class="st43 st8 st9">-49</text>
</g>
<g>
	<text transform="matrix(1 0 0 1 551.4355 517.7949)" class="st43 st8 st9">UG86(H)</text>
</g>
<g>
	<text transform="matrix(1 0 0 1 577.019 517.7949)" class="st43 st8 st9">-35</text>
</g>
<g>
	<text transform="matrix(1 0 0 1 378.1968 404.0166)" class="st43 st8 st9">Left domain control module</text>
</g>
<g>
	<text transform="matrix(1 0 0 1 588.9102 497.4766)" class="st42"><tspan x="0" y="0" class="st43 st8 st9">Right domain </tspan><tspan x="0" y="7.2" class="st43 st8 st9">control module</tspan></text>
</g>
<g>
	<text transform="matrix(1 0 0 1 569.2456 599.4717)" class="st43 st8 st9">Right rearview mirror</text>
</g>
<g>
	<text transform="matrix(1 0 0 1 462.5249 599.9414)" class="st43 st8 st9">Left rearview mirror</text>
</g>
<g>
	<text transform="matrix(1 0 0 1 443.3022 421.8242)" class="st43 st8 st9">TG64(H)</text>
</g>
<g>
	<text transform="matrix(1 0 0 1 468.1147 421.8242)" class="st43 st8 st9">-54</text>
</g>
<g>
	<text transform="matrix(1 0 0 1 444.3027 584.4619)" class="st43 st8 st9">T03</text>
</g>
<g>
	<text transform="matrix(1 0 0 1 455.3862 584.4619)" class="st43 st8 st9">-4</text>
</g>
<g>
	<text transform="matrix(1 0 0 1 444.3027 622.248)" class="st43 st8 st9">T03</text>
</g>
<g>
	<text transform="matrix(1 0 0 1 455.3862 622.248)" class="st43 st8 st9">-12</text>
</g>
<g>
	<text transform="matrix(1 0 0 1 552.6602 584.4619)" class="st43 st8 st9">U03</text>
</g>
<g>
	<text transform="matrix(1 0 0 1 564.4102 584.4619)" class="st43 st8 st9">-4</text>
</g>
<g>
	<text transform="matrix(1 0 0 1 552.6602 480.126)" class="st43 st8 st9">G86(G)</text>
</g>
<g>
	<text transform="matrix(1 0 0 1 574.0767 480.126)" class="st43 st8 st9">-23</text>
</g>
<g>
	<text transform="matrix(1 0 0 1 552.6602 622.2471)" class="st43 st8 st9">U03</text>
</g>
<g>
	<text transform="matrix(1 0 0 1 564.4102 622.2471)" class="st43 st8 st9">-12</text>
</g>
<g>
	<text transform="matrix(1 0 0 1 238.335 198.2363)" class="st43 st8 st9">B1D</text>
</g>
<g>
	<text transform="matrix(1 0 0 1 250.6475 198.2363)" class="st43 st8 st9">-10</text>
</g>
<g>
	<text transform="matrix(1 0 0 1 125.2197 198.2363)" class="st43 st8 st9">B1D</text>
</g>
<g>
	<text transform="matrix(1 0 0 1 137.5322 198.2363)" class="st43 st8 st9">-29</text>
</g>
<g>
	<text transform="matrix(1 0 0 1 123.0322 584.3564)" class="st43 st8 st9">YK27(B)</text>
</g>
<g>
	<text transform="matrix(1 0 0 1 147.0947 584.3564)" class="st43 st8 st9">-1</text>
</g>
<g>
	<text transform="matrix(1 0 0 1 123.0322 620.252)" class="st43 st8 st9">YK27(A)</text>
</g>
<g>
	<text transform="matrix(1 0 0 1 147.0947 620.252)" class="st43 st8 st9">-1</text>
</g>
<g>
	<text transform="matrix(1 0 0 1 125.2197 300.5313)" class="st43 st8 st9">BJK01</text>
</g>
<g>
	<text transform="matrix(1 0 0 1 125.2197 306.5313)" class="st43 st8 st9">KJB01</text>
</g>
<g>
	<text transform="matrix(1 0 0 1 143.6362 306.5313)" class="st43 st8 st9">-1</text>
</g>
<g>
	<text transform="matrix(1 0 0 1 352.9082 281.0049)" class="st43 st8 st9">BJG01</text>
</g>
<g>
	<text transform="matrix(1 0 0 1 352.9082 287.0049)" class="st43 st8 st9">GJB01</text>
</g>
<g>
	<text transform="matrix(1 0 0 1 371.9917 287.0049)" class="st43 st8 st9">-15</text>
</g>
<g>
	<text transform="matrix(1 0 0 1 125.2197 469.418)" class="st43 st8 st9">KJY02</text>
</g>
<g>
	<text transform="matrix(1 0 0 1 125.2197 475.418)" class="st43 st8 st9">YJK02</text>
</g>
<g>
	<text transform="matrix(1 0 0 1 143.6362 475.418)" class="st43 st8 st9">-1</text>
</g>
<g>
	<text transform="matrix(1 0 0 1 295.8667 384.5313)" class="st43 st8 st9">BG64(B)</text>
</g>
<g>
	<text transform="matrix(1 0 0 1 320.9292 384.5313)" class="st43 st8 st9">-57</text>
</g>
<g>
	<text transform="matrix(1 0 0 1 495.748 384.5313)" class="st43 st8 st9">G64(G)</text>
</g>
<g>
	<text transform="matrix(1 0 0 1 517.1855 384.5313)" class="st43 st8 st9">-56</text>
</g>
<g>
	<text transform="matrix(1 0 0 1 554.0493 384.5313)" class="st43 st8 st9">G64(G)</text>
</g>
<g>
	<text transform="matrix(1 0 0 1 575.7158 384.5313)" class="st43 st8 st9">-57</text>
</g>
<g>
	<text transform="matrix(1 0 0 1 295.8672 198.2363)" class="st43 st8 st9">B1D</text>
</g>
<g>
	<text transform="matrix(1 0 0 1 308.1797 198.2363)" class="st43 st8 st9">-18</text>
</g>
<g>
	<text transform="matrix(1 0 0 1 351.7676 384.5313)" class="st43 st8 st9">G64(G)</text>
</g>
<g>
	<text transform="matrix(1 0 0 1 373.3926 384.5313)" class="st43 st8 st9">-11</text>
</g>
<g>
	<text transform="matrix(1 0 0 1 351.7676 198.2363)" class="st43 st8 st9">B1D</text>
</g>
<g>
	<text transform="matrix(1 0 0 1 364.0801 198.2363)" class="st43 st8 st9">-9</text>
</g>
<g>
	<text transform="matrix(1 0 0 1 141.1943 599.084)" class="st42"><tspan x="0" y="0" class="st43 st8 st9">Rear windshield</tspan><tspan x="0" y="7.2" class="st43 st8 st9"> defrost heating wire</tspan></text>
</g>
<g>
	<text transform="matrix(1 0 0 1 351.3555 421.8242)" class="st43 st8 st9">KG64(E)</text>
</g>
<g>
	<text transform="matrix(1 0 0 1 376.6055 421.8242)" class="st43 st8 st9">-20</text>
</g>
<g>
	<text transform="matrix(1 0 0 1 294.689 421.6709)" class="st43 st8 st9">KG64(E)</text>
</g>
<g>
	<text transform="matrix(1 0 0 1 319.9805 421.6709)" class="st43 st8 st9">-8</text>
</g>
<g>
	<g>
		<g>
			<text transform="matrix(1 0 0 1 280.9339 795.4665)" class="st43 st8 st9">Ek01</text>
		</g>
	</g>
</g>
<g>
	<text transform="matrix(1 0 0 1 462.9278 384.5316)" class="st43 st8 st9">-1</text>
</g>
<g>
	<text transform="matrix(1 0 0 1 430.1413 384.5316)" class="st43 st8 st9">BG64(A)_4</text>
</g>
</svg>
