<?xml version="1.0" encoding="utf-8"?>
<!-- Generator: Adobe Illustrator 24.0.1, SVG Export Plug-In . SVG Version: 6.00 Build 0)  -->
<svg version="1.1" id="图层_1" xmlns="http://www.w3.org/2000/svg" xmlns:xlink="http://www.w3.org/1999/xlink" x="0px" y="0px"
	 viewBox="0 0 647.4 841.9" style="enable-background:new 0 0 647.4 841.9;" xml:space="preserve">
<style type="text/css">
	.st0{fill:none;stroke:#E60012;stroke-width:3;stroke-miterlimit:10;}
	.st1{fill:none;stroke:#FFF100;stroke-miterlimit:10;}
	.st2{fill:none;stroke:#F29C97;stroke-width:3;stroke-miterlimit:10;}
	.st3{fill:none;stroke:#89438F;stroke-width:3;stroke-miterlimit:10;}
	.st4{fill:#FFFFFF;}
	.st5{font-family:'FZLTHJW--GB1-0';}
	.st6{font-size:6px;}
	.st7{fill:#FFFFFF;stroke:#000000;stroke-width:0.25;}
	.st8{stroke:#FFFFFF;stroke-width:0.5;}
	.st9{fill:none;stroke:#000000;stroke-width:0.6001;stroke-linecap:round;stroke-linejoin:round;}
	.st10{fill:none;stroke:#000000;stroke-width:0.6001;stroke-linecap:round;}
	.st11{fill:none;stroke:#000000;stroke-width:0.72;stroke-linecap:round;stroke-linejoin:round;}
	.st12{fill:none;stroke:#000000;stroke-width:0.6;}
	.st13{fill:none;stroke:#000000;stroke-width:0.5;stroke-miterlimit:10;}
	.st14{fill:#DCDDDD;stroke:#000000;stroke-width:0.5;stroke-miterlimit:10;}
	.st15{fill:#DCDDDD;}
	.st16{fill:none;stroke:#000000;stroke-width:0.5;}
	.st17{fill:none;stroke:#000000;}
	.st18{fill:#FFFFFF;stroke:#000000;stroke-width:0.5;stroke-miterlimit:10;}
	.st19{fill:none;stroke:#E60012;stroke-miterlimit:10;}
	.st20{fill:#9FD9F6;stroke:#000000;stroke-width:0.5;stroke-linecap:round;stroke-miterlimit:10;}
	.st21{font-size:4px;}
	.st22{fill:none;stroke:#000000;stroke-width:1.3;}
	.st23{fill:#FFFFFF;stroke:#000000;stroke-width:0.25;stroke-linecap:round;stroke-linejoin:round;}
	.st24{fill:none;stroke:#000000;stroke-width:3;stroke-miterlimit:10;}
	.st25{fill:none;stroke:#060001;stroke-width:0.75;}
	.st26{fill:none;stroke:#000000;stroke-width:0.6;stroke-linecap:round;stroke-linejoin:round;}
	.st27{fill:none;stroke:#005EAD;stroke-width:3;stroke-miterlimit:10;}
	.st28{fill:none;stroke:#F6AE6A;stroke-width:3;stroke-miterlimit:10;}
	.st29{stroke:#FFFFFF;stroke-width:0.5;stroke-linecap:round;}
	.st30{fill:none;stroke:#FFFFFF;stroke-width:1.0001;}
	.st31{enable-background:new    ;}
	.st32{fill:none;stroke:#000000;stroke-width:0.5;stroke-linecap:round;stroke-linejoin:round;}
	.st33{fill:none;stroke:#000000;stroke-width:3;stroke-linecap:round;stroke-miterlimit:10;}
	.st34{fill:#005EAD;}
</style>
<line class="st0" x1="398.5" y1="370.2" x2="398.5" y2="205"/>
<line class="st0" x1="300.7" y1="370.2" x2="300.7" y2="205"/>
<line class="st1" x1="300.7" y1="370.2" x2="300.7" y2="205"/>
<line class="st2" x1="465.2" y1="370" x2="465.2" y2="233.4"/>
<line class="st3" x1="515.6" y1="370" x2="515.6" y2="233.4"/>
<rect x="459" y="312.2" class="st4" width="12.5" height="6"/>
<g>
	<text transform="matrix(1 0 0 1 455.8257 317.366)" class="st5 st6">P 0.35</text>
</g>
<rect x="509" y="312.2" class="st4" width="12.5" height="6"/>
<g>
	<text transform="matrix(1 0 0 1 505.8257 317.366)" class="st5 st6">V 0.35</text>
</g>
<rect x="392.2" y="350" class="st4" width="12.5" height="6"/>
<g>
	<text transform="matrix(1 0 0 1 390.7042 355.2122)" class="st5 st6">R 8.0</text>
</g>
<rect x="294.4" y="350" class="st4" width="12.5" height="6"/>
<g>
	<text transform="matrix(1 0 0 1 288.0756 355.2122)" class="st5 st6">R/Y 0.35</text>
</g>
<rect x="294.4" y="312.5" class="st4" width="12.5" height="6"/>
<g>
	<text transform="matrix(1 0 0 1 288.0756 317.6575)" class="st5 st6">R/Y 0.35</text>
</g>
<rect x="305.8" y="332.5" class="st7" width="25.3" height="5.6"/>
<text transform="matrix(1 0 0 1 306.514 337.439)" class="st5 st6">SP6005</text>
<path class="st8" d="M303.5,335.3c0,1.7-1.3,2.9-2.8,2.9c-1.6,0-2.9-1.2-2.9-2.9c0-1.5,1.3-2.7,2.9-2.7
	C302.2,332.5,303.5,333.8,303.5,335.3z"/>
<g>
	<rect x="296.4" y="279.6" class="st4" width="8.5" height="18.8"/>
	<g>
		<g>
			<line class="st9" x1="300.5" y1="288.3" x2="300.5" y2="280.1"/>
		</g>
		<g>
			<line class="st10" x1="300.7" y1="291.5" x2="300.7" y2="298"/>
		</g>
		<g>
			<g>
				<g>
					<path class="st4" d="M300.6,291.4c-1.7,0-3.2-1.4-3.2-3.2c0-1.8,1.5-3.2,3.2-3.2c1.8,0,3.2,1.4,3.2,3.2
						S302.4,291.4,300.6,291.4z"/>
					<path d="M300.6,292c-2,0-3.7-1.8-3.7-3.8h1.1c0,1.4,1.1,2.5,2.5,2.5c1.5,0,2.7-1.1,2.7-2.5h1.1
						C304.4,290.2,302.8,292,300.6,292L300.6,292z M296.9,288.2h1.1c0-1.4,1.1-2.5,2.5-2.5c1.5,0,2.7,1.1,2.7,2.5h1.1
						c0-2.2-1.6-3.8-3.8-3.8C298.6,284.4,296.9,286,296.9,288.2z"/>
				</g>
				<rect x="296.4" y="284" class="st4" width="8.5" height="4.1"/>
				<rect x="300" y="284.9" width="1" height="4.2"/>
				<rect x="300" y="284.9" class="st11" width="1" height="4.2"/>
			</g>
		</g>
	</g>
</g>
<g>
	<g>
		<line class="st12" x1="465.2" y1="373" x2="465.2" y2="381.3"/>
	</g>
	<g>
		<path class="st4" d="M465.3,370c-1.7,0-3,1.4-3,3c0,1.8,1.4,3.2,3,3.2c1.8,0,3.2-1.4,3.2-3.2C468.5,371.4,467.1,370,465.3,370z"/>
		<path d="M465.3,369.3v1.1c-1.4,0-2.5,1.1-2.5,2.5c0,1.5,1.1,2.7,2.5,2.7v1.1c-2,0-3.7-1.7-3.7-3.8
			C461.6,371,463.3,369.3,465.3,369.3L465.3,369.3z M469.1,373c0-2-1.6-3.7-3.8-3.7v1.1c1.5,0,2.7,1.1,2.7,2.5
			c0,1.5-1.1,2.7-2.7,2.7v1.1C467.5,376.8,469.1,375.2,469.1,373z"/>
	</g>
	<rect x="461.1" y="373.1" class="st4" width="8.5" height="4.1"/>
	<rect x="464.7" y="372.1" width="1" height="4.2"/>
	<rect x="464.7" y="372.1" class="st11" width="1" height="4.2"/>
</g>
<g>
	<g>
		<line class="st12" x1="515.3" y1="373" x2="515.3" y2="381.3"/>
	</g>
	<g>
		<path class="st4" d="M515.4,370c-1.7,0-3,1.4-3,3c0,1.8,1.4,3.2,3,3.2c1.8,0,3.2-1.4,3.2-3.2C518.6,371.4,517.2,370,515.4,370z"/>
		<path d="M515.4,369.3v1.1c-1.4,0-2.5,1.1-2.5,2.5c0,1.5,1.1,2.7,2.5,2.7v1.1c-2,0-3.7-1.7-3.7-3.8
			C511.7,371,513.4,369.3,515.4,369.3L515.4,369.3z M519.2,373c0-2-1.6-3.7-3.8-3.7v1.1c1.5,0,2.7,1.1,2.7,2.5
			c0,1.5-1.1,2.7-2.7,2.7v1.1C517.6,376.8,519.2,375.2,519.2,373z"/>
	</g>
	<rect x="511.2" y="373.1" class="st4" width="8.5" height="4.1"/>
	<rect x="514.8" y="372.1" width="1" height="4.2"/>
	<rect x="514.8" y="372.1" class="st11" width="1" height="4.2"/>
</g>
<g>
	<g>
		<line class="st12" x1="300.4" y1="373.3" x2="300.4" y2="381.5"/>
	</g>
	<g>
		<path class="st4" d="M300.5,370.2c-1.7,0-3,1.4-3,3c0,1.8,1.4,3.2,3,3.2c1.8,0,3.2-1.4,3.2-3.2
			C303.7,371.6,302.3,370.2,300.5,370.2z"/>
		<path d="M300.5,369.6v1.1c-1.4,0-2.5,1.1-2.5,2.5c0,1.5,1.1,2.7,2.5,2.7v1.1c-2,0-3.7-1.7-3.7-3.8
			C296.8,371.3,298.5,369.6,300.5,369.6L300.5,369.6z M304.3,373.3c0-2-1.6-3.7-3.8-3.7v1.1c1.5,0,2.7,1.1,2.7,2.5
			c0,1.5-1.1,2.7-2.7,2.7v1.1C302.6,377.1,304.3,375.5,304.3,373.3z"/>
	</g>
	<rect x="296.3" y="373.4" class="st4" width="8.5" height="4.1"/>
	<rect x="299.8" y="372.4" width="1" height="4.2"/>
	<rect x="299.8" y="372.4" class="st11" width="1" height="4.2"/>
</g>
<g>
	<g>
		<line class="st12" x1="398.2" y1="373.3" x2="398.2" y2="381.5"/>
	</g>
	<g>
		<path class="st4" d="M398.3,370.2c-1.7,0-3,1.4-3,3c0,1.8,1.4,3.2,3,3.2c1.8,0,3.2-1.4,3.2-3.2
			C401.5,371.6,400.1,370.2,398.3,370.2z"/>
		<path d="M398.3,369.6v1.1c-1.4,0-2.5,1.1-2.5,2.5c0,1.5,1.1,2.7,2.5,2.7v1.1c-2,0-3.7-1.7-3.7-3.8
			C394.6,371.3,396.3,369.6,398.3,369.6L398.3,369.6z M402.1,373.3c0-2-1.6-3.7-3.8-3.7v1.1c1.5,0,2.7,1.1,2.7,2.5
			c0,1.5-1.1,2.7-2.7,2.7v1.1C400.4,377.1,402.1,375.5,402.1,373.3z"/>
	</g>
	<rect x="394.1" y="373.4" class="st4" width="8.5" height="4.1"/>
	<rect x="397.6" y="372.4" width="1" height="4.2"/>
	<rect x="397.6" y="372.4" class="st11" width="1" height="4.2"/>
</g>
<path class="st13" d="M460.2,358.7c-1.8,0-3.2-1.5-3.2-3.5c0-1.9,1.4-3.5,3.2-3.5l59.9,6.9c1.8,0,3.2-1.5,3.2-3.5
	c0-1.9-1.4-3.5-3.2-3.5L460.2,358.7z"/>
<g id="REB_x2C_A3_3_">
	<rect x="84.8" y="104.3" class="st14" width="58.7" height="91.7"/>
</g>
<polyline class="st15" points="35.4,41.9 617.4,41.9 617.4,88.1 35.4,88.1 "/>
<line class="st16" x1="35.4" y1="47.6" x2="617.4" y2="47.6"/>
<line class="st17" x1="35.4" y1="41.6" x2="617.4" y2="41.6"/>
<path class="st17" d="M34.4,59.3"/>
<line class="st16" x1="35.4" y1="58.9" x2="617.4" y2="58.9"/>
<line class="st16" x1="35.4" y1="70.6" x2="617.4" y2="70.6"/>
<line class="st16" x1="35.4" y1="82.3" x2="617.4" y2="82.3"/>
<line class="st17" x1="35.4" y1="88.1" x2="617.4" y2="88.1"/>
<text transform="matrix(1 0 0 1 619.6864 49.6299)" class="st5 st6">30</text>
<text transform="matrix(1 0 0 1 619.6864 60.7959)" class="st5 st6">IG1</text>
<text transform="matrix(1 0 0 1 619.6864 72.4209)" class="st5 st6">IG3</text>
<text transform="matrix(1 0 0 1 619.6864 83.9248)" class="st5 st6">ACC</text>
<text transform="matrix(1 0 0 1 26.4256 49.7119)" class="st5 st6">30</text>
<text transform="matrix(1 0 0 1 23.2616 60.8779)" class="st5 st6">IG1</text>
<text transform="matrix(1 0 0 1 23.3085 72.5029)" class="st5 st6">IG3</text>
<text transform="matrix(1 0 0 1 19.7696 84.0029)" class="st5 st6">ACC</text>
<g id="FB55">
</g>
<g>
	<rect x="113" y="206.8" class="st18" width="3" height="343"/>
</g>
<line class="st19" x1="114.5" y1="206.8" x2="114.5" y2="549.8"/>
<g>
	<rect x="91" y="560" class="st20" width="248.5" height="32.9"/>
</g>
<g>
	<text transform="matrix(1 0 0 1 110.4504 591.1218)" class="st5 st21">Ground</text>
</g>
<g id="GB031_8_">
	<g>
		<g>
			<line class="st22" x1="114.5" y1="783.6" x2="114.5" y2="786.3"/>
		</g>
		<g>
			<line class="st22" x1="107.4" y1="786.3" x2="121.2" y2="786.3"/>
		</g>
		<g>
			<line class="st22" x1="110.2" y1="788.5" x2="118.4" y2="788.5"/>
		</g>
		<g>
			<line class="st22" x1="116.8" y1="790.6" x2="111.9" y2="790.6"/>
		</g>
	</g>
	<g>
		<rect x="104" y="793.1" class="st4" width="20.3" height="8.2"/>
		<rect x="104.3" y="793.5" class="st23" width="19.7" height="7.6"/>
	</g>
</g>
<line class="st24" x1="114.5" y1="602.1" x2="114.5" y2="786"/>
<rect x="111.3" y="632.2" class="st4" width="6.4" height="6"/>
<g>
	<text transform="matrix(1 0 0 1 107.0107 637.127)" class="st5 st6">B 2.5</text>
</g>
<rect x="111.3" y="729.2" class="st4" width="6.4" height="6"/>
<g>
	<text transform="matrix(1 0 0 1 107.0107 734.127)" class="st5 st6">B 2.5</text>
</g>
<g id="RF22_x2C_A3_9_">
	<g>
		<g>
			<path class="st25" d="M114.3,155.9c-1.2,0-2.2,1-2.2,2.2s1,2.2,2.2,2.2s2.2-1,2.2-2.2C116.6,156.9,115.6,155.9,114.3,155.9"/>
		</g>
		<g>
			<path class="st25" d="M114.3,140c-1.2,0-2.2,1-2.2,2.1c0,1.2,1,2.2,2.2,2.2s2.2-0.9,2.2-2.2C116.6,141.1,115.6,140,114.3,140"/>
		</g>
		<g>
			<path class="st25" d="M112.9,143.8c-0.1,2.5,0.2,3.2,1.3,4.3c1.2,1.2,2.4,1.7,2.8,3.7c0.4,1.6-0.1,3.5-1.1,4.5"/>
		</g>
		<g>
			<path class="st25" d="M115.8,156.4c0.2-0.8,0-2.9-0.6-3.7c-0.9-1.2-2.7-2.1-3.3-4c-0.9-2.8,0.7-4.6,1.1-5"/>
		</g>
	</g>
</g>
<g>
	<text transform="matrix(1 0 0 1 110.3215 565.0732)" class="st5 st21">Constant power</text>
</g>
<g>
	<g>
		<polyline class="st26" points="114.3,160.3 114.3,193 114.3,195.9 		"/>
	</g>
</g>
<g>
	<g>
		<polyline class="st26" points="114.3,140.2 114.3,135.9 114.3,48 		"/>
	</g>
</g>
<rect x="108.2" y="518.7" class="st4" width="12.5" height="6"/>
<g>
	<text transform="matrix(1 0 0 1 102.8126 523.4724)" class="st5 st6">W/R 2.5</text>
</g>
<line class="st27" x1="192.2" y1="415.8" x2="192.2" y2="549.8"/>
<rect x="186" y="518.7" class="st4" width="12.5" height="6"/>
<g>
	<text transform="matrix(1 0 0 1 184.9938 523.4724)" class="st5 st6">L 1.5</text>
</g>
<rect x="186" y="441.6" class="st4" width="12.5" height="6"/>
<g>
	<text transform="matrix(1 0 0 1 184.9938 446.4224)" class="st5 st6">L 1.5</text>
</g>
<rect x="392.2" y="217.7" class="st4" width="12.5" height="6"/>
<g>
	<text transform="matrix(1 0 0 1 390.7042 222.8733)" class="st5 st6">R 8.0</text>
</g>
<rect x="294.4" y="255.3" class="st4" width="12.5" height="6"/>
<g>
	<text transform="matrix(1 0 0 1 288.0756 260.5024)" class="st5 st6">R/Y 0.35</text>
</g>
<rect x="294.4" y="217.7" class="st4" width="12.5" height="6"/>
<g>
	<text transform="matrix(1 0 0 1 288.0756 222.8733)" class="st5 st6">R/Y 0.35</text>
</g>
<line class="st28" x1="247.6" y1="420.8" x2="247.6" y2="549.8"/>
<rect x="241.4" y="441.6" class="st4" width="12.5" height="6"/>
<g>
	<text transform="matrix(1 0 0 1 237.865 446.4224)" class="st5 st6">O 0.35</text>
</g>
<rect x="241.4" y="518.7" class="st4" width="12.5" height="6"/>
<g>
	<text transform="matrix(1 0 0 1 237.865 523.5222)" class="st5 st6">O 0.35</text>
</g>
<rect x="108.2" y="312.5" class="st4" width="12.5" height="6"/>
<g>
	<text transform="matrix(1 0 0 1 102.8126 317.2407)" class="st5 st6">W/R 2.5</text>
</g>
<g>
	<path class="st29" d="M111.2,47.7c0-1.7,1.3-2.9,2.8-2.9c1.6,0,2.9,1.2,2.9,2.9c0,1.5-1.3,2.7-2.9,2.7
		C112.5,50.5,111.2,49.2,111.2,47.7z"/>
	<g>
		<path class="st30" d="M111.2,47.7c0-1.7,1.3-2.9,2.8-2.9c1.6,0,2.9,1.2,2.9,2.9c0,1.5-1.3,2.7-2.9,2.7
			C112.5,50.5,111.2,49.2,111.2,47.7"/>
	</g>
</g>
<g>
	<g>
		<text transform="matrix(1 0 0 1 121.7448 155.2402)" class="st5 st6">30A</text>
	</g>
</g>
<g id="REB_x2C_A3_2_">
	<rect x="267.1" y="104.3" class="st14" width="63.4" height="91.7"/>
</g>
<g id="接地">
</g>
<g id="节点_2">
</g>
<g id="节点">
</g>
<g id="节点_2_1_">
</g>
<g id="下排列">
</g>
<g>
	<text transform="matrix(1 0 0 1 238.6687 565.6112)" class="st5 st21">Cushion NTC+</text>
</g>
<g>
	<text transform="matrix(1 0 0 1 290.199 565.6112)" class="st5 st21"> NTC ground </text>
</g>
<g>
	<text transform="matrix(1 0 0 1 171.0823 565.1321)" class="st31"><tspan x="0" y="0" class="st5 st21">Seat cushion </tspan><tspan x="0" y="4.8" class="st5 st21">temperature control+</tspan></text>
</g>
<g>
	<g>
		<line class="st26" x1="247.9" y1="417.8" x2="247.9" y2="409.5"/>
	</g>
	<g>
		<path class="st4" d="M247.8,420.8c1.7,0,3-1.4,3-3c0-1.8-1.4-3.2-3-3.2c-1.8,0-3.2,1.4-3.2,3.2C244.6,419.4,246,420.8,247.8,420.8
			z"/>
		<path d="M247.8,421.5v-1.1c1.4,0,2.5-1.1,2.5-2.5c0-1.5-1.1-2.7-2.5-2.7V414c2,0,3.7,1.7,3.7,3.8
			C251.5,419.8,249.8,421.5,247.8,421.5L247.8,421.5z M244,417.8c0,2,1.6,3.7,3.8,3.7v-1.1c-1.5,0-2.7-1.1-2.7-2.5
			c0-1.5,1.1-2.7,2.7-2.7V414C245.6,414,244,415.6,244,417.8z"/>
	</g>
	<rect x="243.5" y="413.6" class="st4" width="8.5" height="4.1"/>
	<rect x="247.4" y="414.5" width="1" height="4.2"/>
	<rect x="247.4" y="414.5" class="st11" width="1" height="4.2"/>
</g>
<g>
	<g>
		<line class="st26" x1="192.2" y1="417.8" x2="192.2" y2="409.5"/>
	</g>
	<g>
		<path class="st4" d="M192.1,420.8c1.7,0,3-1.4,3-3c0-1.8-1.4-3.2-3-3.2c-1.8,0-3.2,1.4-3.2,3.2
			C188.9,419.4,190.3,420.8,192.1,420.8z"/>
		<path d="M192.1,421.5v-1.1c1.4,0,2.5-1.1,2.5-2.5c0-1.5-1.1-2.7-2.5-2.7V414c2,0,3.7,1.7,3.7,3.8
			C195.8,419.8,194.1,421.5,192.1,421.5L192.1,421.5z M188.3,417.8c0,2,1.6,3.7,3.8,3.7v-1.1c-1.5,0-2.7-1.1-2.7-2.5
			c0-1.5,1.1-2.7,2.7-2.7V414C189.9,414,188.3,415.6,188.3,417.8z"/>
	</g>
	<rect x="187.8" y="413.6" class="st4" width="8.5" height="4.1"/>
	<rect x="191.7" y="414.5" width="1" height="4.2"/>
	<rect x="191.7" y="414.5" class="st11" width="1" height="4.2"/>
</g>
<g>
	<rect x="110.4" y="393" class="st4" width="8.5" height="18.8"/>
	<g>
		<g>
			<line class="st9" x1="114.8" y1="403.1" x2="114.8" y2="411.3"/>
		</g>
		<g>
			<line class="st10" x1="114.7" y1="399.9" x2="114.7" y2="393.4"/>
		</g>
		<g>
			<g>
				<g>
					<path class="st4" d="M114.8,400c1.7,0,3.2,1.4,3.2,3.2c0,1.8-1.5,3.2-3.2,3.2c-1.8,0-3.2-1.4-3.2-3.2S113,400,114.8,400z"/>
					<path d="M114.8,399.4c2,0,3.7,1.8,3.7,3.8h-1.1c0-1.4-1.1-2.5-2.5-2.5c-1.5,0-2.7,1.1-2.7,2.5h-1.1
						C110.9,401.2,112.6,399.4,114.8,399.4L114.8,399.4z M118.4,403.2h-1.1c0,1.4-1.1,2.5-2.5,2.5c-1.5,0-2.7-1.1-2.7-2.5H111
						c0,2.2,1.6,3.8,3.8,3.8C116.8,407,118.4,405.4,118.4,403.2z"/>
				</g>
				<rect x="110.4" y="403.3" class="st4" width="8.5" height="4.1"/>
				<rect x="114.4" y="402.3" width="1" height="4.2"/>
				<rect x="114.4" y="402.3" class="st11" width="1" height="4.2"/>
			</g>
		</g>
	</g>
</g>
<rect x="120.6" y="670.9" class="st7" width="25.3" height="5.6"/>
<text transform="matrix(1 0 0 1 121.4046 675.7987)" class="st5 st6">SP4854</text>
<path class="st8" d="M117.2,673.7c0,1.7-1.3,2.9-2.8,2.9c-1.6,0-2.9-1.2-2.9-2.9c0-1.5,1.3-2.7,2.9-2.7
	C115.9,671,117.2,672.2,117.2,673.7z"/>
<rect x="305.8" y="233.6" class="st7" width="25.3" height="5.6"/>
<text transform="matrix(1 0 0 1 306.514 238.4611)" class="st5 st6">SP4915</text>
<path class="st8" d="M303.5,236.3c0,1.7-1.3,2.9-2.8,2.9c-1.6,0-2.9-1.2-2.9-2.9c0-1.5,1.3-2.7,2.9-2.7
	C302.2,233.6,303.5,234.8,303.5,236.3z"/>
<g>
	<text transform="matrix(1 0 0 1 432.9681 223.7)" class="st5 st6">See Energy Network - Circuit Diagram</text>
</g>
<path class="st32" d="M518.7,233.3l-0.5-2.1c0,0-0.5-2.5-2.7-2.6h-24.3l0,0l-1.6-2.7l-1.6,2.7c-7.4,0-23.2,0-23.2,0
	c-2.2,0.1-2.7,2.6-2.7,2.6l-0.5,2.1"/>
<path class="st20" d="M560.3,409.5H175.1v-28.2h385.2c0,0-6.5,8.3,0,14.1S560.3,409.5,560.3,409.5"/>
<path class="st20" d="M560.3,409.5H175.1v-28.2h385.2c0,0-6.5,8.3,0,14.1S560.3,409.5,560.3,409.5z"/>
<g id="RF22_x2C_A3_1_">
	<g>
		<g>
			<path class="st25" d="M300.9,155.9c-1.2,0-2.2,1-2.2,2.2s1,2.2,2.2,2.2s2.2-1,2.2-2.2C303.2,156.9,302.2,155.9,300.9,155.9"/>
		</g>
		<g>
			<path class="st25" d="M300.9,140c-1.2,0-2.2,1-2.2,2.1c0,1.2,1,2.2,2.2,2.2s2.2-0.9,2.2-2.2C303.2,141.1,302.2,140,300.9,140"/>
		</g>
		<g>
			<path class="st25" d="M299.5,143.8c-0.1,2.5,0.2,3.2,1.3,4.3c1.2,1.2,2.4,1.7,2.8,3.7c0.4,1.6-0.1,3.5-1.1,4.5"/>
		</g>
		<g>
			<path class="st25" d="M302.4,156.4c0.2-0.8,0-2.9-0.6-3.7c-0.9-1.2-2.7-2.1-3.3-4c-0.9-2.8,0.7-4.6,1.1-5"/>
		</g>
	</g>
</g>
<g>
	<g>
		<polyline class="st26" points="300.9,160.3 300.9,193 300.9,195.9 		"/>
	</g>
</g>
<g>
	<g>
		<polyline class="st26" points="300.9,140.2 300.9,135.9 300.9,71 		"/>
	</g>
</g>
<g>
	<path class="st29" d="M297.8,70.7c0-1.7,1.3-2.9,2.8-2.9c1.6,0,2.9,1.2,2.9,2.9c0,1.5-1.3,2.7-2.9,2.7
		C299.1,73.5,297.8,72.2,297.8,70.7z"/>
	<g>
		<path class="st30" d="M297.8,70.7c0-1.7,1.3-2.9,2.8-2.9c1.6,0,2.9,1.2,2.9,2.9c0,1.5-1.3,2.7-2.9,2.7
			C299.1,73.5,297.8,72.2,297.8,70.7"/>
	</g>
</g>
<g>
	<g>
		<text transform="matrix(1 0 0 1 308.2797 155.2402)" class="st5 st6">7.5A</text>
	</g>
</g>
<line class="st24" x1="297.8" y1="420.8" x2="297.8" y2="549.8"/>
<line class="st1" x1="297.8" y1="420.8" x2="297.8" y2="549.8"/>
<rect x="291.6" y="441.6" class="st4" width="12.5" height="6"/>
<g>
	<text transform="matrix(1 0 0 1 285.3672 446.4224)" class="st5 st6">B/Y 0.35</text>
</g>
<rect x="291.6" y="518.7" class="st4" width="12.5" height="6"/>
<g>
	<text transform="matrix(1 0 0 1 285.3672 523.5222)" class="st5 st6">B/Y 0.22</text>
</g>
<g>
	<g>
		<line class="st26" x1="298.1" y1="417.8" x2="298.1" y2="409.5"/>
	</g>
	<g>
		<path class="st4" d="M298,420.8c1.7,0,3-1.4,3-3c0-1.8-1.4-3.2-3-3.2c-1.8,0-3.2,1.4-3.2,3.2C294.8,419.4,296.2,420.8,298,420.8z"
			/>
		<path d="M298,421.5v-1.1c1.4,0,2.5-1.1,2.5-2.5c0-1.5-1.1-2.7-2.5-2.7V414c2,0,3.7,1.7,3.7,3.8C301.7,419.8,300,421.5,298,421.5
			L298,421.5z M294.2,417.8c0,2,1.6,3.7,3.8,3.7v-1.1c-1.5,0-2.7-1.1-2.7-2.5c0-1.5,1.1-2.7,2.7-2.7V414
			C295.8,414,294.2,415.6,294.2,417.8z"/>
	</g>
	<rect x="293.7" y="413.6" class="st4" width="8.5" height="4.1"/>
	<rect x="297.6" y="414.5" width="1" height="4.2"/>
	<rect x="297.6" y="414.5" class="st11" width="1" height="4.2"/>
</g>
<rect x="301.2" y="483.2" class="st7" width="25.3" height="5.6"/>
<text transform="matrix(1 0 0 1 301.9295 488.1189)" class="st5 st6">SP4898</text>
<path class="st8" d="M300.5,486.7c0,1.7-1.3,2.9-2.8,2.9c-1.6,0-2.9-1.2-2.9-2.9c0-1.5,1.3-2.7,2.9-2.7
	C299.2,484,300.5,485.2,300.5,486.7z"/>
<g>
	<g>
		<line class="st12" x1="114.7" y1="601.2" x2="114.7" y2="593"/>
	</g>
	<g>
		<path class="st4" d="M114.6,604.3c1.7,0,3-1.4,3-3c0-1.8-1.4-3.2-3-3.2c-1.8,0-3.2,1.4-3.2,3.2
			C111.4,602.9,112.8,604.3,114.6,604.3z"/>
		<path d="M114.6,604.9v-1.1c1.4,0,2.5-1.1,2.5-2.5c0-1.5-1.1-2.7-2.5-2.7v-1.1c2,0,3.7,1.7,3.7,3.8
			C118.3,603.2,116.6,604.9,114.6,604.9L114.6,604.9z M110.8,601.2c0,2,1.6,3.7,3.8,3.7v-1.1c-1.5,0-2.7-1.1-2.7-2.5
			c0-1.5,1.1-2.7,2.7-2.7v-1.1C112.5,597.4,110.8,599.1,110.8,601.2z"/>
	</g>
	<rect x="110.3" y="597" class="st4" width="8.5" height="4.1"/>
	<rect x="114.2" y="597.9" width="1" height="4.2"/>
	<rect x="114.2" y="597.9" class="st11" width="1" height="4.2"/>
</g>
<g>
	<g>
		<line class="st12" x1="114.4" y1="551.7" x2="114.4" y2="559.9"/>
	</g>
	<g>
		<path class="st4" d="M114.4,548.6c-1.7,0-3,1.4-3,3c0,1.8,1.4,3.2,3,3.2c1.8,0,3.2-1.4,3.2-3.2C117.6,550,116.2,548.6,114.4,548.6
			z"/>
		<path d="M114.4,548v1.1c-1.4,0-2.5,1.1-2.5,2.5c0,1.5,1.1,2.7,2.5,2.7v1.1c-2,0-3.7-1.7-3.7-3.8C110.8,549.6,112.4,548,114.4,548
			L114.4,548z M118.3,551.7c0-2-1.6-3.7-3.8-3.7v1.1c1.5,0,2.7,1.1,2.7,2.5c0,1.5-1.1,2.7-2.7,2.7v1.1
			C116.6,555.5,118.3,553.8,118.3,551.7z"/>
	</g>
	<rect x="110.3" y="551.8" class="st4" width="8.5" height="4.1"/>
	<rect x="113.8" y="550.8" width="1" height="4.2"/>
	<rect x="113.8" y="550.8" class="st11" width="1" height="4.2"/>
</g>
<g>
	<g>
		<line class="st12" x1="192.1" y1="551.7" x2="192.1" y2="559.9"/>
	</g>
	<g>
		<path class="st4" d="M192.2,548.6c-1.7,0-3,1.4-3,3c0,1.8,1.4,3.2,3,3.2c1.8,0,3.2-1.4,3.2-3.2C195.3,550,193.9,548.6,192.2,548.6
			z"/>
		<path d="M192.2,548v1.1c-1.4,0-2.5,1.1-2.5,2.5c0,1.5,1.1,2.7,2.5,2.7v1.1c-2,0-3.7-1.7-3.7-3.8C188.5,549.6,190.1,548,192.2,548
			L192.2,548z M196,551.7c0-2-1.6-3.7-3.8-3.7v1.1c1.5,0,2.7,1.1,2.7,2.5c0,1.5-1.1,2.7-2.7,2.7v1.1
			C194.3,555.5,196,553.8,196,551.7z"/>
	</g>
	<rect x="188" y="551.8" class="st4" width="8.5" height="4.1"/>
	<rect x="191.5" y="550.8" width="1" height="4.2"/>
	<rect x="191.5" y="550.8" class="st11" width="1" height="4.2"/>
</g>
<g>
	<g>
		<line class="st12" x1="247.2" y1="551.7" x2="247.2" y2="559.9"/>
	</g>
	<g>
		<path class="st4" d="M247.3,548.6c-1.7,0-3,1.4-3,3c0,1.8,1.4,3.2,3,3.2c1.8,0,3.2-1.4,3.2-3.2C250.5,550,249.1,548.6,247.3,548.6
			z"/>
		<path d="M247.3,548v1.1c-1.4,0-2.5,1.1-2.5,2.5c0,1.5,1.1,2.7,2.5,2.7v1.1c-2,0-3.7-1.7-3.7-3.8C243.6,549.6,245.3,548,247.3,548
			L247.3,548z M251.1,551.7c0-2-1.6-3.7-3.8-3.7v1.1c1.5,0,2.7,1.1,2.7,2.5c0,1.5-1.1,2.7-2.7,2.7v1.1
			C249.5,555.5,251.1,553.8,251.1,551.7z"/>
	</g>
	<rect x="243.1" y="551.8" class="st4" width="8.5" height="4.1"/>
	<rect x="246.7" y="550.8" width="1" height="4.2"/>
	<rect x="246.7" y="550.8" class="st11" width="1" height="4.2"/>
</g>
<g>
	<g>
		<line class="st12" x1="297.7" y1="551.7" x2="297.7" y2="559.9"/>
	</g>
	<g>
		<path class="st4" d="M297.7,548.6c-1.7,0-3,1.4-3,3c0,1.8,1.4,3.2,3,3.2c1.8,0,3.2-1.4,3.2-3.2C300.9,550,299.5,548.6,297.7,548.6
			z"/>
		<path d="M297.7,548v1.1c-1.4,0-2.5,1.1-2.5,2.5c0,1.5,1.1,2.7,2.5,2.7v1.1c-2,0-3.7-1.7-3.7-3.8C294.1,549.6,295.7,548,297.7,548
			L297.7,548z M301.6,551.7c0-2-1.6-3.7-3.8-3.7v1.1c1.5,0,2.7,1.1,2.7,2.5c0,1.5-1.1,2.7-2.7,2.7v1.1
			C299.9,555.5,301.6,553.8,301.6,551.7z"/>
	</g>
	<rect x="293.6" y="551.8" class="st4" width="8.5" height="4.1"/>
	<rect x="297.1" y="550.8" width="1" height="4.2"/>
	<rect x="297.1" y="550.8" class="st11" width="1" height="4.2"/>
</g>
<g>
	<g>
		<line class="st12" x1="114.4" y1="204.1" x2="114.4" y2="195.9"/>
	</g>
	<g>
		<path class="st4" d="M114.3,207.2c1.7,0,3-1.4,3-3c0-1.8-1.4-3.2-3-3.2c-1.8,0-3.2,1.4-3.2,3.2
			C111.1,205.8,112.5,207.2,114.3,207.2z"/>
		<path d="M114.3,207.8v-1.1c1.4,0,2.5-1.1,2.5-2.5c0-1.5-1.1-2.7-2.5-2.7v-1.1c2,0,3.7,1.7,3.7,3.8
			C117.9,206.2,116.3,207.8,114.3,207.8L114.3,207.8z M110.5,204.1c0,2,1.6,3.7,3.8,3.7v-1.1c-1.5,0-2.7-1.1-2.7-2.5
			c0-1.5,1.1-2.7,2.7-2.7v-1.1C112.1,200.3,110.5,202,110.5,204.1z"/>
	</g>
	<rect x="109.9" y="200" class="st4" width="8.5" height="4.1"/>
	<rect x="113.9" y="200.8" width="1" height="4.2"/>
	<rect x="113.9" y="200.8" class="st11" width="1" height="4.2"/>
</g>
<g id="REB_x2C_A3_1_">
	<rect x="379.8" y="104.3" class="st14" width="48" height="91.7"/>
</g>
<g id="RF22_x2C_A3_3_">
	<g>
		<g>
			<path class="st25" d="M398.7,155.9c-1.2,0-2.2,1-2.2,2.2s1,2.2,2.2,2.2s2.2-1,2.2-2.2C401,156.9,400,155.9,398.7,155.9"/>
		</g>
		<g>
			<path class="st25" d="M398.7,140c-1.2,0-2.2,1-2.2,2.1c0,1.2,1,2.2,2.2,2.2s2.2-0.9,2.2-2.2C401,141.1,400,140,398.7,140"/>
		</g>
		<g>
			<path class="st25" d="M397.3,143.8c-0.1,2.5,0.2,3.2,1.3,4.3c1.2,1.2,2.4,1.7,2.8,3.7c0.4,1.6-0.1,3.5-1.1,4.5"/>
		</g>
		<g>
			<path class="st25" d="M400.2,156.4c0.2-0.8,0-2.9-0.6-3.7c-0.9-1.2-2.7-2.1-3.3-4c-0.9-2.8,0.7-4.6,1.1-5"/>
		</g>
	</g>
</g>
<g>
	<g>
		<polyline class="st26" points="398.7,160.3 398.7,193 398.7,195.9 		"/>
	</g>
</g>
<g>
	<g>
		<polyline class="st26" points="398.7,140.2 398.7,135.9 398.7,48 		"/>
	</g>
</g>
<g>
	<path class="st29" d="M395.6,47.7c0-1.7,1.3-2.9,2.8-2.9c1.6,0,2.9,1.2,2.9,2.9c0,1.5-1.3,2.7-2.9,2.7
		C396.9,50.5,395.6,49.2,395.6,47.7z"/>
	<g>
		<path class="st30" d="M395.6,47.7c0-1.7,1.3-2.9,2.8-2.9c1.6,0,2.9,1.2,2.9,2.9c0,1.5-1.3,2.7-2.9,2.7
			C396.9,50.5,395.6,49.2,395.6,47.7"/>
	</g>
</g>
<g>
	<g>
		<text transform="matrix(1 0 0 1 406.0749 155.2402)" class="st5 st6">100A</text>
	</g>
</g>
<g>
	<g>
		<line class="st12" x1="398.7" y1="204.1" x2="398.7" y2="195.9"/>
	</g>
	<g>
		<path class="st4" d="M398.6,207.2c1.7,0,3-1.4,3-3c0-1.8-1.4-3.2-3-3.2c-1.8,0-3.2,1.4-3.2,3.2
			C395.4,205.8,396.8,207.2,398.6,207.2z"/>
		<path d="M398.6,207.8v-1.1c1.4,0,2.5-1.1,2.5-2.5c0-1.5-1.1-2.7-2.5-2.7v-1.1c2,0,3.7,1.7,3.7,3.8
			C402.3,206.2,400.6,207.8,398.6,207.8L398.6,207.8z M394.8,204.1c0,2,1.6,3.7,3.8,3.7v-1.1c-1.5,0-2.7-1.1-2.7-2.5
			c0-1.5,1.1-2.7,2.7-2.7v-1.1C396.4,200.3,394.8,202,394.8,204.1z"/>
	</g>
	<rect x="394.3" y="200" class="st4" width="8.5" height="4.1"/>
	<rect x="398.2" y="200.8" width="1" height="4.2"/>
	<rect x="398.2" y="200.8" class="st11" width="1" height="4.2"/>
</g>
<g>
	<g>
		<line class="st12" x1="300.9" y1="204.1" x2="300.9" y2="195.9"/>
	</g>
	<g>
		<path class="st4" d="M300.8,207.2c1.7,0,3-1.4,3-3c0-1.8-1.4-3.2-3-3.2c-1.8,0-3.2,1.4-3.2,3.2C297.6,205.8,299,207.2,300.8,207.2
			z"/>
		<path d="M300.8,207.8v-1.1c1.4,0,2.5-1.1,2.5-2.5c0-1.5-1.1-2.7-2.5-2.7v-1.1c2,0,3.7,1.7,3.7,3.8
			C304.5,206.2,302.8,207.8,300.8,207.8L300.8,207.8z M297,204.1c0,2,1.6,3.7,3.8,3.7v-1.1c-1.5,0-2.7-1.1-2.7-2.5
			c0-1.5,1.1-2.7,2.7-2.7v-1.1C298.6,200.3,297,202,297,204.1z"/>
	</g>
	<rect x="296.5" y="200" class="st4" width="8.5" height="4.1"/>
	<rect x="300.4" y="200.8" width="1" height="4.2"/>
	<rect x="300.4" y="200.8" class="st11" width="1" height="4.2"/>
</g>
<g>
	<text transform="matrix(1 0 0 1 235.752 402.3999)" class="st31"><tspan x="0" y="0" class="st5 st21">Driver seat </tspan><tspan x="0" y="4.8" class="st5 st21">cushion NTC</tspan></text>
</g>
<g>
	<text transform="matrix(1 0 0 1 284.4424 407.3999)" class="st5 st21">Local switch signal ground</text>
</g>
<g>
	<text transform="matrix(1 0 0 1 179.6092 402.3999)" class="st31"><tspan x="0" y="0" class="st5 st21">Driver seat cushion </tspan><tspan x="0" y="4.8" class="st5 st21">heating power supply</tspan></text>
</g>
<g>
	<text transform="matrix(1 0 0 1 458.2516 385.2751)" class="st5 st21">CAN_H</text>
</g>
<g>
	<text transform="matrix(1 0 0 1 509.2516 385.2751)" class="st5 st21">CAN_L</text>
</g>
<g>
	<text transform="matrix(1 0 0 1 293.0856 385.5665)" class="st5 st21">IG3 power supply</text>
</g>
<g>
	<text transform="matrix(1 0 0 1 394.2923 385.5665)" class="st5 st21">Constant power</text>
</g>
<line class="st33" x1="414.1" y1="418.8" x2="414.1" y2="784.8"/>
<g>
	<line class="st26" x1="414.1" y1="417.9" x2="414.1" y2="409.7"/>
	<path class="st4" d="M414.2,421c-1.7,0-3-1.4-3-3c0-1.8,1.4-3.2,3-3.2c1.8,0,3.2,1.4,3.2,3.2C417.4,419.6,416,421,414.2,421"/>
	<path d="M414.2,421.6c-2,0-3.7-1.6-3.7-3.7c0-2.2,1.7-3.8,3.7-3.8v1.1c-1.4,0-2.5,1.1-2.5,2.7c0,1.4,1.1,2.5,2.5,2.5V421.6z
		 M414.2,414.1v1.1c1.5,0,2.7,1.1,2.7,2.7c0,1.4-1.1,2.5-2.7,2.5v1.1c2.2,0,3.8-1.6,3.8-3.7C418,415.8,416.4,414.1,414.2,414.1"/>
	<rect x="410" y="413.7" class="st4" width="8.5" height="4.1"/>
	<rect x="413.6" y="414.6" width="1" height="4.2"/>
	<rect x="413.6" y="414.6" class="st11" width="1" height="4.2"/>
</g>
<line class="st33" x1="464.2" y1="418.8" x2="464.2" y2="785.4"/>
<g>
	<line class="st26" x1="464.3" y1="417.9" x2="464.3" y2="409.7"/>
	<path class="st4" d="M464.4,421c-1.6,0-3-1.4-3-3c0-1.8,1.4-3.2,3-3.2c1.8,0,3.2,1.4,3.2,3.2C467.6,419.6,466.2,421,464.4,421"/>
	<path d="M464.4,421.6c-2,0-3.7-1.6-3.7-3.7c0-2.2,1.7-3.8,3.7-3.8v1.1c-1.4,0-2.5,1.1-2.5,2.7c0,1.4,1.1,2.5,2.5,2.5V421.6z
		 M464.4,414.1v1.1c1.5,0,2.7,1.1,2.7,2.7c0,1.4-1.1,2.5-2.7,2.5v1.1c2.2,0,3.8-1.6,3.8-3.7C468.2,415.8,466.6,414.1,464.4,414.1"/>
	<rect x="460.2" y="413.7" class="st4" width="8.5" height="4.1"/>
	<rect x="463.8" y="414.6" width="1" height="4.2"/>
	<rect x="463.8" y="414.6" class="st11" width="1" height="4.2"/>
</g>
<g id="GB031_1_">
	<g>
		<g>
			<line class="st22" x1="414.1" y1="783.6" x2="414.1" y2="786.3"/>
		</g>
		<g>
			<line class="st22" x1="407.1" y1="786.3" x2="420.9" y2="786.3"/>
		</g>
		<g>
			<line class="st22" x1="409.9" y1="788.5" x2="418.1" y2="788.5"/>
		</g>
		<g>
			<line class="st22" x1="416.4" y1="790.6" x2="411.6" y2="790.6"/>
		</g>
	</g>
	<g>
		<rect x="403.7" y="793.1" class="st4" width="20.3" height="8.2"/>
		<rect x="404" y="793.5" class="st23" width="19.7" height="7.6"/>
	</g>
</g>
<g id="GB031_7_">
	<g>
		<g>
			<line class="st22" x1="464.3" y1="783.6" x2="464.3" y2="786.3"/>
		</g>
		<g>
			<line class="st22" x1="457.3" y1="786.3" x2="471.1" y2="786.3"/>
		</g>
		<g>
			<line class="st22" x1="460.1" y1="788.5" x2="468.3" y2="788.5"/>
		</g>
		<g>
			<line class="st22" x1="466.6" y1="790.6" x2="461.8" y2="790.6"/>
		</g>
	</g>
	<g>
		<rect x="453.9" y="793.1" class="st4" width="20.3" height="8.2"/>
		<rect x="454.2" y="793.5" class="st23" width="19.7" height="7.6"/>
	</g>
</g>
<line class="st33" x1="361.1" y1="419.5" x2="361.1" y2="785.2"/>
<rect x="354.8" y="441.6" class="st4" width="12.5" height="6"/>
<text transform="matrix(1 0 0 1 353.5411 446.7266)" class="st5 st6">B 2.5</text>
<rect x="407.8" y="441.6" class="st4" width="12.5" height="6"/>
<text transform="matrix(1 0 0 1 406.5413 446.7266)" class="st5 st6">B 2.5</text>
<rect x="457.9" y="441.6" class="st4" width="12.5" height="6"/>
<text transform="matrix(1 0 0 1 454.7812 446.7266)" class="st5 st6">B 0.75</text>
<rect x="354.8" y="729.2" class="st4" width="12.5" height="6"/>
<text transform="matrix(1 0 0 1 353.5411 734.3267)" class="st5 st6">B 2.5</text>
<rect x="407.8" y="729.2" class="st4" width="12.5" height="6"/>
<text transform="matrix(1 0 0 1 406.5413 734.3267)" class="st5 st6">B 2.5</text>
<rect x="457.9" y="729.2" class="st4" width="12.5" height="6"/>
<text transform="matrix(1 0 0 1 454.7812 734.3267)" class="st5 st6">B 0.75</text>
<g>
	<line class="st26" x1="361.2" y1="417.9" x2="361.2" y2="409.7"/>
	<path class="st4" d="M361.3,421c-1.6,0-3-1.4-3-3c0-1.8,1.4-3.2,3-3.2c1.8,0,3.2,1.4,3.2,3.2C364.5,419.6,363.1,421,361.3,421"/>
	<path d="M361.3,421.6c-2,0-3.7-1.6-3.7-3.7c0-2.2,1.7-3.8,3.7-3.8v1.1c-1.4,0-2.5,1.1-2.5,2.7c0,1.4,1.1,2.5,2.5,2.5V421.6z
		 M361.3,414.1v1.1c1.5,0,2.7,1.1,2.7,2.7c0,1.4-1.1,2.5-2.7,2.5v1.1c2.2,0,3.8-1.6,3.8-3.7C365.1,415.8,363.5,414.1,361.3,414.1"/>
	<rect x="357.1" y="413.7" class="st4" width="8.5" height="4.1"/>
	<rect x="360.7" y="414.6" width="1" height="4.2"/>
	<rect x="360.7" y="414.6" class="st11" width="1" height="4.2"/>
</g>
<g id="GB031_3_">
	<g>
		<g>
			<line class="st22" x1="361.3" y1="783.6" x2="361.3" y2="786.3"/>
		</g>
		<g>
			<line class="st22" x1="354.3" y1="786.3" x2="368.1" y2="786.3"/>
		</g>
		<g>
			<line class="st22" x1="357.1" y1="788.5" x2="365.3" y2="788.5"/>
		</g>
		<g>
			<line class="st22" x1="363.6" y1="790.6" x2="358.8" y2="790.6"/>
		</g>
	</g>
	<g>
		<rect x="350.9" y="793.1" class="st4" width="20.3" height="8.2"/>
		<rect x="351.2" y="793.5" class="st23" width="19.7" height="7.6"/>
	</g>
</g>
<g>
	<text transform="matrix(1 0 0 1 353.2556 407.8389)" class="st5 st21">Power ground 1</text>
</g>
<g>
	<text transform="matrix(1 0 0 1 404.9223 407.8389)" class="st5 st21">Power ground 2</text>
</g>
<g>
	<text transform="matrix(1 0 0 1 457.2265 407.8389)" class="st5 st21">Signal ground</text>
</g>
<g>
	<text transform="matrix(1 0 0 1 307.1202 293.2236)" class="st34 st5 st6">GJB01</text>
</g>
<g>
	<text transform="matrix(1 0 0 1 325.7652 293.2236)" class="st34 st5 st6">-15</text>
</g>
<g>
	<text transform="matrix(1 0 0 1 495.2227 378.9863)" class="st34 st5 st6">-13</text>
</g>
<g>
	<text transform="matrix(1 0 0 1 469.8687 378.9863)" class="st34 st5 st6">BG64(B)</text>
</g>
<g>
	<text transform="matrix(1 0 0 1 545.3046 378.9863)" class="st34 st5 st6">-14</text>
</g>
<g>
	<text transform="matrix(1 0 0 1 519.9506 378.9863)" class="st34 st5 st6">BG64(B)</text>
</g>
<g>
	<text transform="matrix(1 0 0 1 326.3886 379.2778)" class="st34 st5 st6">-11</text>
</g>
<g>
	<text transform="matrix(1 0 0 1 305.0346 379.2778)" class="st34 st5 st6">G64(G)</text>
</g>
<g>
	<g>
		<text transform="matrix(1 0 0 1 106.7664 799.4803)" class="st34 st5 st6">Ek02</text>
	</g>
</g>
<g>
	<g>
		<text transform="matrix(1 0 0 1 121.5412 148.6221)" class="st34 st5 st6">F2/21</text>
	</g>
</g>
<g>
	<g>
		<text transform="matrix(1 0 0 1 308.0761 148.6221)" class="st34 st5 st6">F1/12</text>
	</g>
</g>
<g>
	<g>
		<text transform="matrix(1 0 0 1 19.7695 142.1503)" class="st34 st5 st6">Instrument fuse box</text>
	</g>
</g>
<g>
	<g>
		<text transform="matrix(1 0 0 1 183.9135 145.5393)" class="st34 st5 st6">Front compartment fuse box</text>
	</g>
</g>
<g>
	<g>
		<text transform="matrix(1 0 0 1 345.564 397.228)" class="st34 st5 st6">Left domain control module</text>
	</g>
</g>
<g>
	<text transform="matrix(1 0 0 1 191.3183 579.314)" class="st34 st5 st6">Driver seat connector</text>
</g>
<g>
	<text transform="matrix(1 0 0 1 118.6921 203.5048)" class="st34 st5 st6">G82</text>
</g>
<g>
	<text transform="matrix(1 0 0 1 129.7961 203.5048)" class="st34 st5 st6">-22</text>
</g>
<g>
	<text transform="matrix(1 0 0 1 120.035 557.1641)" class="st34 st5 st6">K01(A)_1</text>
</g>
<g>
	<text transform="matrix(1 0 0 1 120.035 601.0999)" class="st34 st5 st6">K01(A)_1</text>
</g>
<g>
	<text transform="matrix(1 0 0 1 196.584 557.1641)" class="st34 st5 st6">K01(A)_1</text>
</g>
<g>
	<text transform="matrix(1 0 0 1 252.4461 557.1641)" class="st34 st5 st6">K01(A)_1</text>
</g>
<g>
	<text transform="matrix(1 0 0 1 252.5572 417.308)" class="st34 st5 st6">KG64(J)</text>
</g>
<g>
	<text transform="matrix(1 0 0 1 276.4322 417.308)" class="st34 st5 st6">-13</text>
</g>
<g>
	<text transform="matrix(1 0 0 1 302.6736 557.1641)" class="st34 st5 st6">K01(A)_1</text>
</g>
<g>
	<text transform="matrix(1 0 0 1 302.7847 417.308)" class="st34 st5 st6">KG64(D)</text>
</g>
<g>
	<text transform="matrix(1 0 0 1 328.2978 417.308)" class="st34 st5 st6">-32</text>
</g>
<g>
	<text transform="matrix(1 0 0 1 196.8631 417.308)" class="st34 st5 st6">KG64(J)</text>
</g>
<g>
	<text transform="matrix(1 0 0 1 220.7381 417.308)" class="st34 st5 st6">-3</text>
</g>
<g>
	<text transform="matrix(1 0 0 1 120.3851 399.4033)" class="st34 st5 st6">GJK01</text>
</g>
<g>
	<text transform="matrix(1 0 0 1 120.3851 406.6035)" class="st34 st5 st6">KJG01</text>
</g>
<g>
	<text transform="matrix(1 0 0 1 139.03 406.6035)" class="st34 st5 st6">-16</text>
</g>
<g>
	<text transform="matrix(1 0 0 1 307.1202 286.0234)" class="st34 st5 st6">BJG01</text>
</g>
<g>
	<g>
		<text transform="matrix(1 0 0 1 405.8713 148.6221)" class="st34 st5 st6">F4/03</text>
	</g>
</g>
<g>
	<g>
		<text transform="matrix(1 0 0 1 430.6462 146.8298)" class="st34 st5 st6">Positive fuse box</text>
	</g>
</g>
<g>
	<text transform="matrix(1 0 0 1 403.0223 203.5048)" class="st34 st5 st6">B46_3</text>
</g>
<g>
	<text transform="matrix(1 0 0 1 421.7095 203.5048)" class="st34 st5 st6">-1</text>
</g>
<g>
	<text transform="matrix(1 0 0 1 305.1358 203.5048)" class="st34 st5 st6">B1D</text>
</g>
<g>
	<text transform="matrix(1 0 0 1 317.4482 203.5048)" class="st34 st5 st6">-9</text>
</g>
<g>
	<text transform="matrix(1 0 0 1 420.1107 417.0038)" class="st34 st5 st6">KG64(E)</text>
</g>
<g>
	<text transform="matrix(1 0 0 1 445.3607 417.0038)" class="st34 st5 st6">-20</text>
</g>
<g>
	<text transform="matrix(1 0 0 1 470.2694 417.0038)" class="st34 st5 st6">BG64(B)</text>
</g>
<g>
	<text transform="matrix(1 0 0 1 495.3719 417.0038)" class="st34 st5 st6">-43</text>
</g>
<g>
	<text transform="matrix(1 0 0 1 367.1669 417.0038)" class="st34 st5 st6">KG64(E)</text>
</g>
<g>
	<text transform="matrix(1 0 0 1 392.4169 417.0038)" class="st34 st5 st6">-8</text>
</g>
<g>
	<text transform="matrix(1 0 0 1 406.35 799.3964)" class="st34 st5 st6">Ek02</text>
</g>
<g>
	<text transform="matrix(1 0 0 1 456.5311 799.3964)" class="st34 st5 st6">Eb01</text>
</g>
<g>
	<text transform="matrix(1 0 0 1 353.5204 799.3964)" class="st34 st5 st6">Ek01</text>
</g>
<g>
	<text transform="matrix(1 0 0 1 435.8087 378.9866)" class="st34 st5 st6">-1</text>
</g>
<g>
	<text transform="matrix(1 0 0 1 403.0223 378.9866)" class="st34 st5 st6">BG64(A)_4</text>
</g>
<text transform="matrix(1 0 0 1 146.9517 557.1641)" class="st34 st5 st6">-1</text>
<text transform="matrix(1 0 0 1 223.6673 557.1641)" class="st34 st5 st6">-8</text>
<text transform="matrix(1 0 0 1 279.1955 557.1641)" class="st34 st5 st6">-3</text>
<text transform="matrix(1 0 0 1 329.674 557.1641)" class="st34 st5 st6">-6</text>
<text transform="matrix(1 0 0 1 146.9517 601.0854)" class="st34 st5 st6">-7</text>
</svg>
