<?xml version="1.0" encoding="utf-8"?>
<!-- Generator: Adobe Illustrator 24.0.1, SVG Export Plug-In . SVG Version: 6.00 Build 0)  -->
<svg version="1.1" id="图层_1" xmlns="http://www.w3.org/2000/svg" xmlns:xlink="http://www.w3.org/1999/xlink" x="0px" y="0px"
	 viewBox="0 0 647.4 841.9" style="enable-background:new 0 0 647.4 841.9;" xml:space="preserve">
<style type="text/css">
	.st0{fill:none;stroke:#009944;stroke-width:3;stroke-miterlimit:10;}
	.st1{fill:none;stroke:#E60012;stroke-miterlimit:10;}
	.st2{fill:none;stroke:#E60012;stroke-width:3;stroke-miterlimit:10;}
	.st3{fill:none;stroke:#F29C97;stroke-width:3;stroke-miterlimit:10;}
	.st4{fill:none;stroke:#89438F;stroke-width:3;stroke-miterlimit:10;}
	.st5{fill:#FFFFFF;}
	.st6{font-family:'FZLTHJW--GB1-0';}
	.st7{font-size:6px;}
	.st8{fill:none;stroke:#000000;stroke-width:0.6;}
	.st9{fill:none;stroke:#000000;stroke-width:0.72;stroke-linecap:round;stroke-linejoin:round;}
	.st10{fill:none;stroke:#000000;stroke-width:0.5;stroke-miterlimit:10;}
	.st11{fill:#DCDDDD;stroke:#000000;stroke-width:0.5;stroke-miterlimit:10;}
	.st12{fill:#DCDDDD;}
	.st13{fill:none;stroke:#000000;stroke-width:0.5;}
	.st14{fill:none;stroke:#000000;}
	.st15{fill:#9FD9F6;stroke:#000000;stroke-width:0.5;stroke-linecap:round;stroke-miterlimit:10;}
	.st16{font-size:4px;}
	.st17{fill:none;stroke:#000000;stroke-width:3;stroke-miterlimit:10;}
	.st18{fill:none;stroke:#060001;stroke-width:0.75;}
	.st19{fill:none;stroke:#000000;stroke-width:0.6;stroke-linecap:round;stroke-linejoin:round;}
	.st20{fill:none;stroke:#005EAD;stroke-width:3;stroke-miterlimit:10;}
	.st21{fill:none;stroke:#F6AE6A;stroke-width:3;stroke-miterlimit:10;}
	.st22{stroke:#FFFFFF;stroke-width:0.5;stroke-linecap:round;}
	.st23{fill:none;stroke:#FFFFFF;stroke-width:1.0001;}
	.st24{fill:none;stroke:#000000;stroke-width:0.6001;stroke-linecap:round;stroke-linejoin:round;}
	.st25{fill:none;stroke:#000000;stroke-width:0.6001;stroke-linecap:round;}
	.st26{fill:#FFFFFF;stroke:#000000;stroke-width:0.25;}
	.st27{fill:none;stroke:#000000;stroke-width:0.5;stroke-linecap:round;stroke-linejoin:round;}
	.st28{fill:none;stroke:#FFF100;stroke-miterlimit:10;}
	.st29{fill:none;stroke:#000000;stroke-width:1.3;}
	.st30{fill:#FFFFFF;stroke:#000000;stroke-width:0.25;stroke-linecap:round;stroke-linejoin:round;}
	.st31{fill:#040000;}
	.st32{fill:none;stroke:#000000;stroke-width:3;}
	.st33{fill:none;stroke:#000000;stroke-width:0.6;stroke-linejoin:round;}
	.st34{stroke:#FFFFFF;stroke-width:0.5;}
	.st35{fill:#005EAD;}
</style>
<line class="st0" x1="100.6" y1="206.8" x2="100.6" y2="493.3"/>
<line class="st1" x1="100.6" y1="206.8" x2="100.6" y2="493.3"/>
<line class="st2" x1="425.8" y1="325.1" x2="425.8" y2="205"/>
<line class="st3" x1="528" y1="321.6" x2="528" y2="185"/>
<line class="st4" x1="578.4" y1="321.6" x2="578.4" y2="185"/>
<rect x="521.7" y="244.7" class="st5" width="12.5" height="6"/>
<g>
	<text transform="matrix(1 0 0 1 518.5802 249.8733)" class="st6 st7">P 0.35</text>
</g>
<rect x="571.7" y="244.7" class="st5" width="12.5" height="6"/>
<g>
	<text transform="matrix(1 0 0 1 568.5802 249.8733)" class="st6 st7">V 0.35</text>
</g>
<rect x="419.6" y="293" class="st5" width="12.5" height="6"/>
<g>
	<text transform="matrix(1 0 0 1 418.0239 298.2065)" class="st6 st7">R 8.0</text>
</g>
<g>
	<g>
		<line class="st8" x1="528" y1="324.7" x2="528" y2="332.9"/>
	</g>
	<g>
		<path class="st5" d="M528.1,321.6c-1.7,0-3,1.4-3,3c0,1.8,1.4,3.2,3,3.2c1.8,0,3.2-1.4,3.2-3.2C531.2,323,529.8,321.6,528.1,321.6
			z"/>
		<path d="M528.1,321v1.1c-1.4,0-2.5,1.1-2.5,2.5c0,1.5,1.1,2.7,2.5,2.7v1.1c-2,0-3.7-1.7-3.7-3.8C524.4,322.6,526,321,528.1,321
			L528.1,321z M531.9,324.7c0-2-1.6-3.7-3.8-3.7v1.1c1.5,0,2.7,1.1,2.7,2.5c0,1.5-1.1,2.7-2.7,2.7v1.1
			C530.2,328.5,531.9,326.8,531.9,324.7z"/>
	</g>
	<rect x="523.9" y="324.8" class="st5" width="8.5" height="4.1"/>
	<rect x="527.4" y="323.8" width="1" height="4.2"/>
	<rect x="527.4" y="323.8" class="st9" width="1" height="4.2"/>
</g>
<g>
	<g>
		<line class="st8" x1="578.1" y1="324.7" x2="578.1" y2="332.9"/>
	</g>
	<g>
		<path class="st5" d="M578.2,321.6c-1.7,0-3,1.4-3,3c0,1.8,1.4,3.2,3,3.2c1.8,0,3.2-1.4,3.2-3.2C581.3,323,579.9,321.6,578.2,321.6
			z"/>
		<path d="M578.2,321v1.1c-1.4,0-2.5,1.1-2.5,2.5c0,1.5,1.1,2.7,2.5,2.7v1.1c-2,0-3.7-1.7-3.7-3.8C574.5,322.6,576.1,321,578.2,321
			L578.2,321z M582,324.7c0-2-1.6-3.7-3.8-3.7v1.1c1.5,0,2.7,1.1,2.7,2.5c0,1.5-1.1,2.7-2.7,2.7v1.1
			C580.3,328.5,582,326.8,582,324.7z"/>
	</g>
	<rect x="574" y="324.8" class="st5" width="8.5" height="4.1"/>
	<rect x="577.5" y="323.8" width="1" height="4.2"/>
	<rect x="577.5" y="323.8" class="st9" width="1" height="4.2"/>
</g>
<g>
	<g>
		<line class="st8" x1="425.5" y1="325" x2="425.5" y2="333.2"/>
	</g>
	<g>
		<path class="st5" d="M425.6,321.9c-1.7,0-3,1.4-3,3c0,1.8,1.4,3.2,3,3.2c1.8,0,3.2-1.4,3.2-3.2
			C428.8,323.3,427.4,321.9,425.6,321.9z"/>
		<path d="M425.6,321.3v1.1c-1.4,0-2.5,1.1-2.5,2.5c0,1.5,1.1,2.7,2.5,2.7v1.1c-2,0-3.7-1.7-3.7-3.8
			C421.9,322.9,423.6,321.3,425.6,321.3L425.6,321.3z M429.4,325c0-2-1.6-3.7-3.8-3.7v1.1c1.5,0,2.7,1.1,2.7,2.5
			c0,1.5-1.1,2.7-2.7,2.7v1.1C427.8,328.8,429.4,327.1,429.4,325z"/>
	</g>
	<rect x="421.4" y="325.1" class="st5" width="8.5" height="4.1"/>
	<rect x="425" y="324.1" width="1" height="4.2"/>
	<rect x="425" y="324.1" class="st9" width="1" height="4.2"/>
</g>
<path class="st10" d="M522.9,310.4c-1.8,0-3.2-1.5-3.2-3.5c0-1.9,1.4-3.5,3.2-3.5l59.9,6.9c1.8,0,3.2-1.5,3.2-3.5
	c0-1.9-1.4-3.5-3.2-3.5L522.9,310.4z"/>
<g id="REB_x2C_A3_3_">
	<rect x="71.1" y="104.3" class="st11" width="58.7" height="91.7"/>
</g>
<polyline class="st12" points="35.4,41.9 617.4,41.9 617.4,88.1 35.4,88.1 "/>
<line class="st13" x1="35.4" y1="47.6" x2="617.4" y2="47.6"/>
<line class="st14" x1="35.4" y1="41.6" x2="617.4" y2="41.6"/>
<path class="st14" d="M34.4,59.3"/>
<line class="st13" x1="35.4" y1="58.9" x2="617.4" y2="58.9"/>
<line class="st13" x1="35.4" y1="70.6" x2="617.4" y2="70.6"/>
<line class="st13" x1="35.4" y1="82.3" x2="617.4" y2="82.3"/>
<line class="st14" x1="35.4" y1="88.1" x2="617.4" y2="88.1"/>
<text transform="matrix(1 0 0 1 619.6864 49.6299)" class="st6 st7">30</text>
<text transform="matrix(1 0 0 1 619.6864 60.7959)" class="st6 st7">IG1</text>
<text transform="matrix(1 0 0 1 619.6864 72.4209)" class="st6 st7">IG3</text>
<text transform="matrix(1 0 0 1 619.6864 83.9248)" class="st6 st7">ACC</text>
<text transform="matrix(1 0 0 1 26.4256 49.7119)" class="st6 st7">30</text>
<text transform="matrix(1 0 0 1 23.2616 60.8779)" class="st6 st7">IG1</text>
<text transform="matrix(1 0 0 1 23.3085 72.5029)" class="st6 st7">IG3</text>
<text transform="matrix(1 0 0 1 19.7696 84.0029)" class="st6 st7">ACC</text>
<g id="FB55">
</g>
<g>
	<rect x="77.3" y="503.5" class="st15" width="326.6" height="32.9"/>
</g>
<g>
	<text transform="matrix(1 0 0 1 96.7018 534.6248)" class="st6 st16">Ground</text>
</g>
<g>
	<text transform="matrix(1 0 0 1 162.9012 534.6248)" class="st6 st16">Front passenger seat belt buckle signal ground</text>
</g>
<polyline class="st17" points="100.8,545.6 100.8,727.1 180.9,727.1 "/>
<line class="st17" x1="182.2" y1="545.6" x2="182.2" y2="604.3"/>
<rect x="97.6" y="564.5" class="st5" width="6.4" height="6"/>
<g>
	<text transform="matrix(1 0 0 1 93.2621 569.4458)" class="st6 st7">B 2.5</text>
</g>
<g id="RF22_x2C_A3_9_">
	<g>
		<g>
			<path class="st18" d="M100.6,155.9c-1.2,0-2.2,1-2.2,2.2s1,2.2,2.2,2.2s2.2-1,2.2-2.2C102.9,156.9,101.9,155.9,100.6,155.9"/>
		</g>
		<g>
			<path class="st18" d="M100.6,140c-1.2,0-2.2,1-2.2,2.1c0,1.2,1,2.2,2.2,2.2s2.2-0.9,2.2-2.2C102.9,141.1,101.9,140,100.6,140"/>
		</g>
		<g>
			<path class="st18" d="M99.2,143.8c-0.1,2.5,0.2,3.2,1.3,4.3c1.2,1.2,2.4,1.7,2.8,3.7c0.4,1.6-0.1,3.5-1.1,4.5"/>
		</g>
		<g>
			<path class="st18" d="M102.1,156.4c0.2-0.8,0-2.9-0.6-3.7c-0.9-1.2-2.7-2.1-3.3-4c-0.9-2.8,0.7-4.6,1.1-5"/>
		</g>
	</g>
</g>
<g>
	<text transform="matrix(1 0 0 1 96.5729 508.5762)" class="st6 st16">Constant power</text>
</g>
<g>
	<g>
		<polyline class="st19" points="100.6,160.3 100.6,193 100.6,195.9 		"/>
	</g>
</g>
<g>
	<g>
		<polyline class="st19" points="100.6,140.2 100.6,135.9 100.6,48 		"/>
	</g>
</g>
<rect x="94.3" y="431.5" class="st5" width="12.5" height="6"/>
<g>
	<text transform="matrix(1 0 0 1 89.45 436.3087)" class="st6 st7">G/R 2.5</text>
</g>
<line class="st20" x1="183.5" y1="368.3" x2="183.5" y2="493.3"/>
<rect x="177.3" y="431.5" class="st5" width="12.5" height="6"/>
<g>
	<text transform="matrix(1 0 0 1 176.2694 436.3087)" class="st6 st7">L 1.5</text>
</g>
<line class="st21" x1="310.3" y1="370" x2="310.3" y2="493.3"/>
<rect x="304.1" y="431.5" class="st5" width="12.5" height="6"/>
<g>
	<text transform="matrix(1 0 0 1 300.6195 436.3586)" class="st6 st7">O 0.35</text>
</g>
<rect x="94.3" y="293" class="st5" width="12.5" height="6"/>
<g>
	<text transform="matrix(1 0 0 1 89.45 297.7899)" class="st6 st7">G/R 2.5</text>
</g>
<g>
	<path class="st22" d="M97.5,47.7c0-1.7,1.3-2.9,2.8-2.9c1.6,0,2.9,1.2,2.9,2.9c0,1.5-1.3,2.7-2.9,2.7
		C98.8,50.5,97.5,49.2,97.5,47.7z"/>
	<g>
		<path class="st23" d="M97.5,47.7c0-1.7,1.3-2.9,2.8-2.9c1.6,0,2.9,1.2,2.9,2.9c0,1.5-1.3,2.7-2.9,2.7
			C98.8,50.5,97.5,49.2,97.5,47.7"/>
	</g>
</g>
<g>
	<g>
		<text transform="matrix(1 0 0 1 107.9962 155.2402)" class="st6 st7">30A</text>
	</g>
</g>
<g id="接地">
</g>
<g id="节点_2">
</g>
<g id="节点">
</g>
<g id="节点_2_1_">
</g>
<g id="下排列">
</g>
<g>
	<text transform="matrix(1 0 0 1 301.4232 509.1143)" class="st6 st16">Cushion NTC+</text>
</g>
<g>
	<text transform="matrix(1 0 0 1 352.9535 509.1143)" class="st6 st16"> NTC Ground </text>
</g>
<g>
	<text transform="matrix(1 0 0 1 162.358 508.635)" class="st6 st16">Seat cushion temperature control+</text>
</g>
<g>
	<g>
		<line class="st19" x1="310.6" y1="369.5" x2="310.6" y2="361.2"/>
	</g>
	<g>
		<path class="st5" d="M310.5,372.5c1.7,0,3-1.4,3-3c0-1.8-1.4-3.2-3-3.2c-1.8,0-3.2,1.4-3.2,3.2
			C307.3,371.1,308.7,372.5,310.5,372.5z"/>
		<path d="M310.5,373.2v-1.1c1.4,0,2.5-1.1,2.5-2.5c0-1.5-1.1-2.7-2.5-2.7v-1.2c2,0,3.7,1.7,3.7,3.8
			C314.2,371.5,312.5,373.2,310.5,373.2L310.5,373.2z M306.7,369.5c0,2,1.6,3.7,3.8,3.7v-1.1c-1.5,0-2.7-1.1-2.7-2.5
			c0-1.5,1.1-2.7,2.7-2.7v-1.2C308.3,365.7,306.7,367.3,306.7,369.5z"/>
	</g>
	<rect x="306.2" y="365.3" class="st5" width="8.5" height="4.1"/>
	<rect x="310.1" y="366.2" width="1" height="4.2"/>
	<rect x="310.1" y="366.2" class="st9" width="1" height="4.2"/>
</g>
<g>
	<rect x="96.3" y="369.6" class="st5" width="8.5" height="18.8"/>
	<g>
		<g>
			<line class="st24" x1="100.7" y1="379.7" x2="100.7" y2="387.9"/>
		</g>
		<g>
			<line class="st25" x1="100.6" y1="376.5" x2="100.6" y2="370"/>
		</g>
		<g>
			<g>
				<g>
					<path class="st5" d="M100.7,376.6c1.7,0,3.2,1.4,3.2,3.2c0,1.8-1.5,3.2-3.2,3.2c-1.8,0-3.2-1.4-3.2-3.2S98.9,376.6,100.7,376.6
						z"/>
					<path d="M100.7,376c2,0,3.7,1.8,3.7,3.8h-1.1c0-1.4-1.1-2.5-2.5-2.5c-1.5,0-2.7,1.1-2.7,2.5H97C96.8,377.8,98.5,376,100.7,376
						L100.7,376z M104.3,379.8h-1.1c0,1.4-1.1,2.5-2.5,2.5c-1.5,0-2.7-1.1-2.7-2.5h-1.1c0,2.2,1.6,3.8,3.8,3.8
						C102.7,383.6,104.3,382,104.3,379.8z"/>
				</g>
				<rect x="96.3" y="379.9" class="st5" width="8.5" height="4.1"/>
				<rect x="100.3" y="378.9" width="1" height="4.2"/>
				<rect x="100.3" y="378.9" class="st9" width="1" height="4.2"/>
			</g>
		</g>
	</g>
</g>
<rect x="188.5" y="724.3" class="st26" width="25.3" height="5.6"/>
<text transform="matrix(1 0 0 1 189.2753 729.1467)" class="st6 st7">SP4862</text>
<rect x="365.4" y="453.5" class="st26" width="17.5" height="5.6"/>
<text transform="matrix(1 0 0 1 366.1447 458.3533)" class="st6 st7">SP81</text>
<g>
	<text transform="matrix(1 0 0 1 495.0954 172.0223)" class="st6 st7">See Energy Network - Circuit Diagram</text>
</g>
<path class="st27" d="M581.4,184.9l-0.5-2.1c0,0-0.5-2.5-2.7-2.6h-24.3l0,0l-1.6-2.7l-1.6,2.7c-7.4,0-23.2,0-23.2,0
	c-2.2,0.1-2.7,2.6-2.7,2.6l-0.5,2.1"/>
<path class="st15" d="M605.4,361.2H156.2V333h449.2c0,0-7.6,8.3,0,14.1S605.4,361.2,605.4,361.2"/>
<path class="st15" d="M605.4,361.2H156.2V333h449.2c0,0-7.6,8.3,0,14.1S605.4,361.2,605.4,361.2z"/>
<line class="st17" x1="360.6" y1="370" x2="360.6" y2="493.3"/>
<line class="st28" x1="360.6" y1="370" x2="360.6" y2="493.3"/>
<rect x="354.3" y="431.5" class="st5" width="12.5" height="6"/>
<g>
	<text transform="matrix(1 0 0 1 348.1218 436.3586)" class="st6 st7">B/Y 0.22</text>
</g>
<rect x="354.3" y="472.5" class="st5" width="12.5" height="6"/>
<g>
	<text transform="matrix(1 0 0 1 348.1218 477.3354)" class="st6 st7">B/Y 0.22</text>
</g>
<g>
	<g>
		<line class="st19" x1="360.9" y1="369.5" x2="360.9" y2="361.2"/>
	</g>
	<g>
		<path class="st5" d="M360.8,372.5c1.7,0,3-1.4,3-3c0-1.8-1.4-3.2-3-3.2c-1.8,0-3.2,1.4-3.2,3.2C357.6,371.1,359,372.5,360.8,372.5
			z"/>
		<path d="M360.8,373.2v-1.1c1.4,0,2.5-1.1,2.5-2.5c0-1.5-1.1-2.7-2.5-2.7v-1.2c2,0,3.7,1.7,3.7,3.8
			C364.5,371.5,362.8,373.2,360.8,373.2L360.8,373.2z M357,369.5c0,2,1.6,3.7,3.8,3.7v-1.1c-1.5,0-2.7-1.1-2.7-2.5
			c0-1.5,1.1-2.7,2.7-2.7v-1.2C358.6,365.7,357,367.3,357,369.5z"/>
	</g>
	<rect x="356.5" y="365.3" class="st5" width="8.5" height="4.1"/>
	<rect x="360.4" y="366.2" width="1" height="4.2"/>
	<rect x="360.4" y="366.2" class="st9" width="1" height="4.2"/>
</g>
<g>
	<g>
		<line class="st8" x1="101" y1="544.7" x2="101" y2="536.5"/>
	</g>
	<g>
		<path class="st5" d="M100.9,547.8c1.7,0,3-1.4,3-3c0-1.8-1.4-3.2-3-3.2c-1.8,0-3.2,1.4-3.2,3.2C97.7,546.4,99.1,547.8,100.9,547.8
			z"/>
		<path d="M100.9,548.4v-1.1c1.4,0,2.5-1.1,2.5-2.5c0-1.5-1.1-2.7-2.5-2.7V541c2,0,3.7,1.7,3.7,3.8
			C104.5,546.7,102.9,548.4,100.9,548.4L100.9,548.4z M97.1,544.7c0,2,1.6,3.7,3.8,3.7v-1.1c-1.5,0-2.7-1.1-2.7-2.5
			c0-1.5,1.1-2.7,2.7-2.7V541C98.7,540.9,97.1,542.6,97.1,544.7z"/>
	</g>
	<rect x="96.5" y="540.5" class="st5" width="8.5" height="4.1"/>
	<rect x="100.5" y="541.4" width="1" height="4.2"/>
	<rect x="100.5" y="541.4" class="st9" width="1" height="4.2"/>
</g>
<g>
	<g>
		<line class="st8" x1="100.6" y1="495.2" x2="100.6" y2="503.4"/>
	</g>
	<g>
		<path class="st5" d="M100.7,492.1c-1.7,0-3,1.4-3,3c0,1.8,1.4,3.2,3,3.2c1.8,0,3.2-1.4,3.2-3.2
			C103.9,493.5,102.5,492.1,100.7,492.1z"/>
		<path d="M100.7,491.5v1.1c-1.4,0-2.5,1.1-2.5,2.5c0,1.5,1.1,2.7,2.5,2.7v1.1c-2,0-3.7-1.7-3.7-3.8
			C97,493.1,98.7,491.5,100.7,491.5L100.7,491.5z M104.5,495.2c0-2-1.6-3.7-3.8-3.7v1.1c1.5,0,2.7,1.1,2.7,2.5
			c0,1.5-1.1,2.7-2.7,2.7v1.1C102.9,499,104.5,497.3,104.5,495.2z"/>
	</g>
	<rect x="96.5" y="495.3" class="st5" width="8.5" height="4.1"/>
	<rect x="100.1" y="494.3" width="1" height="4.2"/>
	<rect x="100.1" y="494.3" class="st9" width="1" height="4.2"/>
</g>
<g>
	<g>
		<line class="st8" x1="183.4" y1="495.2" x2="183.4" y2="503.4"/>
	</g>
	<g>
		<path class="st5" d="M183.4,492.1c-1.7,0-3,1.4-3,3c0,1.8,1.4,3.2,3,3.2c1.8,0,3.2-1.4,3.2-3.2
			C186.6,493.5,185.2,492.1,183.4,492.1z"/>
		<path d="M183.4,491.5v1.1c-1.4,0-2.5,1.1-2.5,2.5c0,1.5,1.1,2.7,2.5,2.7v1.1c-2,0-3.7-1.7-3.7-3.8
			C179.8,493.1,181.4,491.5,183.4,491.5L183.4,491.5z M187.3,495.2c0-2-1.6-3.7-3.8-3.7v1.1c1.5,0,2.7,1.1,2.7,2.5
			c0,1.5-1.1,2.7-2.7,2.7v1.1C185.6,499,187.3,497.3,187.3,495.2z"/>
	</g>
	<rect x="179.3" y="495.3" class="st5" width="8.5" height="4.1"/>
	<rect x="182.8" y="494.3" width="1" height="4.2"/>
	<rect x="182.8" y="494.3" class="st9" width="1" height="4.2"/>
</g>
<g>
	<g>
		<line class="st8" x1="310" y1="495.2" x2="310" y2="503.4"/>
	</g>
	<g>
		<path class="st5" d="M310.1,492.1c-1.7,0-3,1.4-3,3c0,1.8,1.4,3.2,3,3.2c1.8,0,3.2-1.4,3.2-3.2
			C313.3,493.5,311.9,492.1,310.1,492.1z"/>
		<path d="M310.1,491.5v1.1c-1.4,0-2.5,1.1-2.5,2.5c0,1.5,1.1,2.7,2.5,2.7v1.1c-2,0-3.7-1.7-3.7-3.8
			C306.4,493.1,308.1,491.5,310.1,491.5L310.1,491.5z M313.9,495.2c0-2-1.6-3.7-3.8-3.7v1.1c1.5,0,2.7,1.1,2.7,2.5
			c0,1.5-1.1,2.7-2.7,2.7v1.1C312.2,499,313.9,497.3,313.9,495.2z"/>
	</g>
	<rect x="305.9" y="495.3" class="st5" width="8.5" height="4.1"/>
	<rect x="309.4" y="494.3" width="1" height="4.2"/>
	<rect x="309.4" y="494.3" class="st9" width="1" height="4.2"/>
</g>
<line class="st0" x1="256.3" y1="370" x2="256.3" y2="493.3"/>
<rect x="250.1" y="431.5" class="st5" width="12.5" height="6"/>
<g>
	<text transform="matrix(1 0 0 1 246.5809 436.3586)" class="st6 st7">G 0.22</text>
</g>
<g>
	<g>
		<line class="st19" x1="256.6" y1="369.5" x2="256.6" y2="361.2"/>
	</g>
	<g>
		<path class="st5" d="M256.5,372.5c1.7,0,3-1.4,3-3c0-1.8-1.4-3.2-3-3.2c-1.8,0-3.2,1.4-3.2,3.2
			C253.3,371.1,254.7,372.5,256.5,372.5z"/>
		<path d="M256.5,373.2v-1.1c1.4,0,2.5-1.1,2.5-2.5c0-1.5-1.1-2.7-2.5-2.7v-1.2c2,0,3.7,1.7,3.7,3.8
			C260.2,371.5,258.5,373.2,256.5,373.2L256.5,373.2z M252.7,369.5c0,2,1.6,3.7,3.8,3.7v-1.1c-1.5,0-2.7-1.1-2.7-2.5
			c0-1.5,1.1-2.7,2.7-2.7v-1.2C254.3,365.7,252.7,367.3,252.7,369.5z"/>
	</g>
	<rect x="252.2" y="365.3" class="st5" width="8.5" height="4.1"/>
	<rect x="256.1" y="366.2" width="1" height="4.2"/>
	<rect x="256.1" y="366.2" class="st9" width="1" height="4.2"/>
</g>
<g>
	<g>
		<line class="st19" x1="183.5" y1="369.5" x2="183.5" y2="361.2"/>
	</g>
	<g>
		<path class="st5" d="M183.4,372.5c1.7,0,3-1.4,3-3c0-1.8-1.4-3.2-3-3.2c-1.8,0-3.2,1.4-3.2,3.2
			C180.2,371.1,181.6,372.5,183.4,372.5z"/>
		<path d="M183.4,373.2v-1.1c1.4,0,2.5-1.1,2.5-2.5c0-1.5-1.1-2.7-2.5-2.7v-1.2c2,0,3.7,1.7,3.7,3.8
			C187.1,371.5,185.4,373.2,183.4,373.2L183.4,373.2z M179.6,369.5c0,2,1.6,3.7,3.8,3.7v-1.1c-1.5,0-2.7-1.1-2.7-2.5
			c0-1.5,1.1-2.7,2.7-2.7v-1.2C181.2,365.7,179.6,367.3,179.6,369.5z"/>
	</g>
	<rect x="179.1" y="365.3" class="st5" width="8.5" height="4.1"/>
	<rect x="183" y="366.2" width="1" height="4.2"/>
	<rect x="183" y="366.2" class="st9" width="1" height="4.2"/>
</g>
<g>
	<g>
		<line class="st8" x1="256" y1="495.2" x2="256" y2="503.4"/>
	</g>
	<g>
		<path class="st5" d="M256,492.1c-1.7,0-3,1.4-3,3c0,1.8,1.4,3.2,3,3.2c1.8,0,3.2-1.4,3.2-3.2C259.2,493.5,257.8,492.1,256,492.1z"
			/>
		<path d="M256,491.5v1.1c-1.4,0-2.5,1.1-2.5,2.5c0,1.5,1.1,2.7,2.5,2.7v1.1c-2,0-3.7-1.7-3.7-3.8C252.4,493.1,254,491.5,256,491.5
			L256,491.5z M259.9,495.2c0-2-1.6-3.7-3.8-3.7v1.1c1.5,0,2.7,1.1,2.7,2.5c0,1.5-1.1,2.7-2.7,2.7v1.1
			C258.2,499,259.9,497.3,259.9,495.2z"/>
	</g>
	<rect x="251.9" y="495.3" class="st5" width="8.5" height="4.1"/>
	<rect x="255.4" y="494.3" width="1" height="4.2"/>
	<rect x="255.4" y="494.3" class="st9" width="1" height="4.2"/>
</g>
<g>
	<g>
		<line class="st8" x1="360.4" y1="495.2" x2="360.4" y2="503.4"/>
	</g>
	<g>
		<path class="st5" d="M360.5,492.1c-1.7,0-3,1.4-3,3c0,1.8,1.4,3.2,3,3.2c1.8,0,3.2-1.4,3.2-3.2
			C363.7,493.5,362.3,492.1,360.5,492.1z"/>
		<path d="M360.5,491.5v1.1c-1.4,0-2.5,1.1-2.5,2.5c0,1.5,1.1,2.7,2.5,2.7v1.1c-2,0-3.7-1.7-3.7-3.8
			C356.8,493.1,358.5,491.5,360.5,491.5L360.5,491.5z M364.3,495.2c0-2-1.6-3.7-3.8-3.7v1.1c1.5,0,2.7,1.1,2.7,2.5
			c0,1.5-1.1,2.7-2.7,2.7v1.1C362.7,499,364.3,497.3,364.3,495.2z"/>
	</g>
	<rect x="356.3" y="495.3" class="st5" width="8.5" height="4.1"/>
	<rect x="359.9" y="494.3" width="1" height="4.2"/>
	<rect x="359.9" y="494.3" class="st9" width="1" height="4.2"/>
</g>
<g>
	<g>
		<line class="st8" x1="100.6" y1="204.1" x2="100.6" y2="195.9"/>
	</g>
	<g>
		<path class="st5" d="M100.5,207.2c1.7,0,3-1.4,3-3c0-1.8-1.4-3.2-3-3.2c-1.8,0-3.2,1.4-3.2,3.2C97.3,205.8,98.7,207.2,100.5,207.2
			z"/>
		<path d="M100.5,207.8v-1.1c1.4,0,2.5-1.1,2.5-2.5c0-1.5-1.1-2.7-2.5-2.7v-1.1c2,0,3.7,1.7,3.7,3.8
			C104.2,206.2,102.5,207.8,100.5,207.8L100.5,207.8z M96.7,204.1c0,2,1.6,3.7,3.8,3.7v-1.1c-1.5,0-2.7-1.1-2.7-2.5
			c0-1.5,1.1-2.7,2.7-2.7v-1.1C98.4,200.3,96.7,202,96.7,204.1z"/>
	</g>
	<rect x="96.2" y="200" class="st5" width="8.5" height="4.1"/>
	<rect x="100.1" y="200.8" width="1" height="4.2"/>
	<rect x="100.1" y="200.8" class="st9" width="1" height="4.2"/>
</g>
<g id="REB_x2C_A3_1_">
	<rect x="396.5" y="104.3" class="st11" width="58.7" height="91.7"/>
</g>
<g id="RF22_x2C_A3_3_">
	<g>
		<g>
			<path class="st18" d="M426,155.9c-1.2,0-2.2,1-2.2,2.2s1,2.2,2.2,2.2s2.2-1,2.2-2.2C428.3,156.9,427.3,155.9,426,155.9"/>
		</g>
		<g>
			<path class="st18" d="M426,140c-1.2,0-2.2,1-2.2,2.1c0,1.2,1,2.2,2.2,2.2s2.2-0.9,2.2-2.2C428.3,141.1,427.3,140,426,140"/>
		</g>
		<g>
			<path class="st18" d="M424.6,143.8c-0.1,2.5,0.2,3.2,1.3,4.3c1.2,1.2,2.4,1.7,2.8,3.7c0.4,1.6-0.1,3.5-1.1,4.5"/>
		</g>
		<g>
			<path class="st18" d="M427.5,156.4c0.2-0.8,0-2.9-0.6-3.7c-0.9-1.2-2.7-2.1-3.3-4c-0.9-2.8,0.7-4.6,1.1-5"/>
		</g>
	</g>
</g>
<g>
	<g>
		<polyline class="st19" points="426,160.3 426,193 426,195.9 		"/>
	</g>
</g>
<g>
	<g>
		<polyline class="st19" points="426,140.2 426,135.9 426,48 		"/>
	</g>
</g>
<g>
	<path class="st22" d="M422.9,47.7c0-1.7,1.3-2.9,2.8-2.9c1.6,0,2.9,1.2,2.9,2.9c0,1.5-1.3,2.7-2.9,2.7
		C424.2,50.5,422.9,49.2,422.9,47.7z"/>
	<g>
		<path class="st23" d="M422.9,47.7c0-1.7,1.3-2.9,2.8-2.9c1.6,0,2.9,1.2,2.9,2.9c0,1.5-1.3,2.7-2.9,2.7
			C424.2,50.5,422.9,49.2,422.9,47.7"/>
	</g>
</g>
<g>
	<g>
		<text transform="matrix(1 0 0 1 433.3946 155.2402)" class="st6 st7">100A</text>
	</g>
</g>
<g>
	<g>
		<line class="st8" x1="426" y1="204.1" x2="426" y2="195.9"/>
	</g>
	<g>
		<path class="st5" d="M425.9,207.2c1.7,0,3-1.4,3-3c0-1.8-1.4-3.2-3-3.2c-1.8,0-3.2,1.4-3.2,3.2
			C422.7,205.8,424.1,207.2,425.9,207.2z"/>
		<path d="M425.9,207.8v-1.1c1.4,0,2.5-1.1,2.5-2.5c0-1.5-1.1-2.7-2.5-2.7v-1.1c2,0,3.7,1.7,3.7,3.8
			C429.6,206.2,427.9,207.8,425.9,207.8L425.9,207.8z M422.1,204.1c0,2,1.6,3.7,3.8,3.7v-1.1c-1.5,0-2.7-1.1-2.7-2.5
			c0-1.5,1.1-2.7,2.7-2.7v-1.1C423.8,200.3,422.1,202,422.1,204.1z"/>
	</g>
	<rect x="421.6" y="200" class="st5" width="8.5" height="4.1"/>
	<rect x="425.5" y="200.8" width="1" height="4.2"/>
	<rect x="425.5" y="200.8" class="st9" width="1" height="4.2"/>
</g>
<g>
	<text transform="matrix(1 0 0 1 300.319 359.0665)" class="st6 st16">Cushion NTC+</text>
</g>
<g>
	<text transform="matrix(1 0 0 1 245.9232 354.0665)" class="st6 st16">Seat belt alarm </text>
	<text transform="matrix(1 0 0 1 245.9232 358.8665)" class="st6 st16">sensor signal</text>
</g>
<g>
	<text transform="matrix(1 0 0 1 238.6141 508.5762)" class="st6 st16">Seat belt alarm sensor signal</text>
</g>
<g>
	<text transform="matrix(1 0 0 1 343.4498 359.0667)" class="st6 st16">Right rear window signal ground</text>
</g>
<g>
	<text transform="matrix(1 0 0 1 158.084 353.1503)" class="st6 st16">Front passenger seat </text>
	<text transform="matrix(1 0 0 1 158.084 357.9503)" class="st6 st16">cushion heating power</text>
</g>
<g>
	<text transform="matrix(1 0 0 1 521.0061 336.9417)" class="st6 st16">CAN_H</text>
</g>
<g>
	<text transform="matrix(1 0 0 1 572.0061 336.9417)" class="st6 st16">CAN_L</text>
</g>
<g>
	<text transform="matrix(1 0 0 1 421.612 337.2332)" class="st6 st16">Constant power</text>
</g>
<line class="st17" x1="476.8" y1="369.6" x2="476.8" y2="785.6"/>
<g>
	<line class="st19" x1="476.8" y1="369.6" x2="476.8" y2="361.4"/>
	<path class="st5" d="M476.9,372.7c-1.7,0-3-1.4-3-3c0-1.8,1.4-3.2,3-3.2c1.8,0,3.2,1.4,3.2,3.2
		C480.1,371.3,478.7,372.7,476.9,372.7"/>
	<path d="M476.9,373.3c-2,0-3.7-1.6-3.7-3.7c0-2.2,1.7-3.8,3.7-3.8v1.1c-1.4,0-2.5,1.1-2.5,2.7c0,1.4,1.1,2.5,2.5,2.5V373.3z
		 M476.9,365.8v1.1c1.5,0,2.7,1.1,2.7,2.7c0,1.4-1.1,2.5-2.7,2.5v1.1c2.2,0,3.8-1.6,3.8-3.7C480.7,367.5,479.1,365.8,476.9,365.8"/>
	<rect x="472.7" y="365.4" class="st5" width="8.5" height="4.1"/>
	<rect x="476.3" y="366.3" width="1" height="4.2"/>
	<rect x="476.3" y="366.3" class="st9" width="1" height="4.2"/>
</g>
<line class="st17" x1="526.9" y1="369.6" x2="526.9" y2="786.3"/>
<g>
	<line class="st19" x1="527" y1="369.6" x2="527" y2="361.4"/>
	<path class="st5" d="M527.1,372.7c-1.6,0-3-1.4-3-3c0-1.8,1.4-3.2,3-3.2c1.8,0,3.2,1.4,3.2,3.2
		C530.3,371.3,528.9,372.7,527.1,372.7"/>
	<path d="M527.1,373.3c-2,0-3.7-1.6-3.7-3.7c0-2.2,1.7-3.8,3.7-3.8v1.1c-1.4,0-2.5,1.1-2.5,2.7c0,1.4,1.1,2.5,2.5,2.5V373.3z
		 M527.1,365.8v1.1c1.5,0,2.7,1.1,2.7,2.7c0,1.4-1.1,2.5-2.7,2.5v1.1c2.2,0,3.8-1.6,3.8-3.7C530.9,367.5,529.3,365.8,527.1,365.8"/>
	<rect x="522.9" y="365.4" class="st5" width="8.5" height="4.1"/>
	<rect x="526.5" y="366.3" width="1" height="4.2"/>
	<rect x="526.5" y="366.3" class="st9" width="1" height="4.2"/>
</g>
<g id="GB031_1_">
	<g>
		<g>
			<line class="st29" x1="476.8" y1="783.6" x2="476.8" y2="786.3"/>
		</g>
		<g>
			<line class="st29" x1="469.8" y1="786.3" x2="483.6" y2="786.3"/>
		</g>
		<g>
			<line class="st29" x1="472.6" y1="788.5" x2="480.8" y2="788.5"/>
		</g>
		<g>
			<line class="st29" x1="479.1" y1="790.6" x2="474.3" y2="790.6"/>
		</g>
	</g>
	<g>
		<rect x="466.4" y="793.1" class="st5" width="20.3" height="8.2"/>
		<rect x="466.7" y="793.5" class="st30" width="19.7" height="7.6"/>
	</g>
</g>
<g id="GB031_7_">
	<g>
		<g>
			<line class="st29" x1="527" y1="783.6" x2="527" y2="786.3"/>
		</g>
		<g>
			<line class="st29" x1="520" y1="786.3" x2="533.8" y2="786.3"/>
		</g>
		<g>
			<line class="st29" x1="522.8" y1="788.5" x2="531" y2="788.5"/>
		</g>
		<g>
			<line class="st29" x1="529.3" y1="790.6" x2="524.5" y2="790.6"/>
		</g>
	</g>
	<g>
		<rect x="516.6" y="793.1" class="st5" width="20.3" height="8.2"/>
		<rect x="516.9" y="793.5" class="st30" width="19.7" height="7.6"/>
	</g>
</g>
<line class="st17" x1="423.8" y1="370.3" x2="423.8" y2="786"/>
<rect x="417.6" y="562.9" class="st5" width="12.5" height="6"/>
<text transform="matrix(1 0 0 1 416.2956 568.0271)" class="st6 st7">B 1.5</text>
<rect x="470.6" y="562.9" class="st5" width="12.5" height="6"/>
<text transform="matrix(1 0 0 1 469.2958 568.0271)" class="st6 st7">B 1.5</text>
<rect x="520.7" y="562.9" class="st5" width="12.5" height="6"/>
<text transform="matrix(1 0 0 1 519.3868 568.0271)" class="st6 st7">B 2.5</text>
<g>
	<line class="st19" x1="423.9" y1="369.6" x2="423.9" y2="361.4"/>
	<path class="st5" d="M424,372.7c-1.6,0-3-1.4-3-3c0-1.8,1.4-3.2,3-3.2c1.8,0,3.2,1.4,3.2,3.2C427.2,371.3,425.8,372.7,424,372.7"/>
	<path d="M424,373.3c-2,0-3.7-1.6-3.7-3.7c0-2.2,1.7-3.8,3.7-3.8v1.1c-1.4,0-2.5,1.1-2.5,2.7c0,1.4,1.1,2.5,2.5,2.5V373.3z
		 M424,365.8v1.1c1.5,0,2.7,1.1,2.7,2.7c0,1.4-1.1,2.5-2.7,2.5v1.1c2.2,0,3.8-1.6,3.8-3.7C427.8,367.5,426.2,365.8,424,365.8"/>
	<rect x="419.8" y="365.4" class="st5" width="8.5" height="4.1"/>
	<rect x="423.4" y="366.3" width="1" height="4.2"/>
	<rect x="423.4" y="366.3" class="st9" width="1" height="4.2"/>
</g>
<g id="GB031_3_">
	<g>
		<g>
			<line class="st29" x1="424" y1="783.6" x2="424" y2="786.3"/>
		</g>
		<g>
			<line class="st29" x1="417" y1="786.3" x2="430.8" y2="786.3"/>
		</g>
		<g>
			<line class="st29" x1="419.8" y1="788.5" x2="428" y2="788.5"/>
		</g>
		<g>
			<line class="st29" x1="426.3" y1="790.6" x2="421.5" y2="790.6"/>
		</g>
	</g>
	<g>
		<rect x="413.6" y="793.1" class="st5" width="20.3" height="8.2"/>
		<rect x="413.9" y="793.5" class="st30" width="19.7" height="7.6"/>
	</g>
</g>
<g>
	<text transform="matrix(1 0 0 1 416.0101 359.5055)" class="st6 st16">Power ground 1</text>
</g>
<g>
	<text transform="matrix(1 0 0 1 467.6768 359.5055)" class="st6 st16">Power ground 2</text>
</g>
<g>
	<text transform="matrix(1 0 0 1 519.981 359.5055)" class="st6 st16">Power ground 3</text>
</g>
<g>
	<rect x="165.5" y="612.6" class="st15" width="34.1" height="35.7"/>
	<rect x="165.5" y="612.6" class="st15" width="34.1" height="35.7"/>
</g>
<rect x="170.8" y="615.6" class="st15" width="22.9" height="29.7"/>
<line class="st13" x1="182.4" y1="648.4" x2="182.4" y2="638.6"/>
<polyline class="st13" points="182.3,622.6 179.4,636.2 182.1,636.2 "/>
<path class="st12" d="M182.3,621c-0.8,0-1.5,0.7-1.5,1.6c0,1,0.6,1.7,1.5,1.7c0.8,0,1.4-0.7,1.4-1.7
	C183.7,621.7,183.1,621,182.3,621"/>
<path class="st13" d="M182.3,621c-0.8,0-1.5,0.7-1.5,1.6c0,1,0.6,1.7,1.5,1.7c0.8,0,1.4-0.7,1.4-1.7
	C183.7,621.7,183.1,621,182.3,621"/>
<path class="st12" d="M182.3,635.8c-0.7,0-1.2,0.6-1.2,1.4s0.5,1.5,1.2,1.5s1.2-0.6,1.2-1.5C183.5,636.4,183,635.8,182.3,635.8"/>
<path class="st13" d="M182.3,635.8c-0.7,0-1.2,0.6-1.2,1.4s0.5,1.5,1.2,1.5s1.2-0.6,1.2-1.5C183.5,636.4,183,635.8,182.3,635.8"/>
<line class="st13" x1="182.4" y1="621" x2="182.4" y2="612.6"/>
<polyline class="st13" points="177.7,634 176.7,634 176.7,629.7 177.7,629.7 "/>
<line class="st13" x1="176.8" y1="631.8" x2="180.4" y2="631.8"/>
<text transform="matrix(1 0 0 1 185.6987 621.3701)" class="st31 st6 st16">+</text>
<text transform="matrix(1 0 0 1 184.8809 642.7206)" class="st31 st6 st16">-</text>
<line class="st32" x1="182.2" y1="659.7" x2="182.2" y2="786.4"/>
<g id="_x30_2-上针脚_26_">
	<line class="st33" x1="182.2" y1="604.4" x2="182.2" y2="612.6"/>
	<path class="st5" d="M182.1,601.3c-1.7,0-3,1.4-3,3c0,1.8,1.4,3.2,3,3.2c1.8,0,3.2-1.4,3.2-3.2
		C185.3,602.7,183.9,601.3,182.1,601.3"/>
	<path d="M182.2,601.8c-1.4,0-2.5,1.2-2.5,2.5c0,1.6,1.1,2.7,2.5,2.7v1.2c-2,0-3.7-1.6-3.7-3.8c0-2.1,1.7-3.7,3.7-3.7V601.8z
		 M182.2,608.2c2.2,0,3.8-1.7,3.8-3.8s-1.6-3.7-3.8-3.7v1.1c1.6,0,2.7,1.2,2.7,2.5c0,1.6-1.2,2.7-2.7,2.7V608.2"/>
	<rect x="178.2" y="604.5" class="st5" width="8.1" height="4.1"/>
	<rect x="181.7" y="603.5" width="1" height="4.2"/>
	<rect x="181.7" y="603.5" class="st9" width="1" height="4.2"/>
</g>
<g id="_x30_2-上针脚_23_">
	<line class="st33" x1="182.2" y1="544.7" x2="182.2" y2="536.5"/>
	<path class="st5" d="M182.1,547.8c-1.7,0-3-1.4-3-3c0-1.8,1.4-3.2,3-3.2c1.8,0,3.2,1.4,3.2,3.2
		C185.3,546.4,183.9,547.8,182.1,547.8"/>
	<path d="M182.2,548.4c-2,0-3.7-1.6-3.7-3.7c0-2.2,1.7-3.8,3.7-3.8v1.2c-1.4,0-2.5,1.1-2.5,2.7c0,1.3,1.1,2.5,2.5,2.5V548.4z
		 M182.2,540.9v1.2c1.5,0,2.7,1.1,2.7,2.7c0,1.3-1.1,2.5-2.7,2.5v1.1c2.2,0,3.8-1.6,3.8-3.7S184.4,540.9,182.2,540.9"/>
	<rect x="178.2" y="540.5" class="st5" width="8.1" height="4.1"/>
	<rect x="181.7" y="541.4" width="1" height="4.2"/>
	<rect x="181.7" y="541.4" class="st9" width="1" height="4.2"/>
</g>
<g id="_x30_2-上针脚_21_">
	<line class="st33" x1="182.2" y1="656.5" x2="182.2" y2="648.3"/>
	<path class="st5" d="M182.1,659.6c-1.7,0-3-1.4-3-3c0-1.8,1.4-3.2,3-3.2c1.8,0,3.2,1.4,3.2,3.2
		C185.3,658.2,183.9,659.6,182.1,659.6"/>
	<path d="M182.2,660.2c-2,0-3.7-1.6-3.7-3.7c0-2.2,1.7-3.8,3.7-3.8v1.2c-1.4,0-2.5,1.1-2.5,2.7c0,1.3,1.1,2.5,2.5,2.5V660.2z
		 M182.2,652.7v1.2c1.5,0,2.7,1.1,2.7,2.7c0,1.3-1.1,2.5-2.7,2.5v1.1c2.2,0,3.8-1.6,3.8-3.7C186,654.4,184.4,652.7,182.2,652.7"/>
	<rect x="178.2" y="652.3" class="st5" width="8.1" height="4.1"/>
	<rect x="181.7" y="653.2" width="1" height="4.2"/>
	<rect x="181.7" y="653.2" class="st9" width="1" height="4.2"/>
</g>
<g>
	<g>
		<line class="st29" x1="182.4" y1="783.7" x2="182.4" y2="786.3"/>
	</g>
	<g>
		<line class="st29" x1="175.3" y1="786.3" x2="189.2" y2="786.3"/>
	</g>
	<g>
		<line class="st29" x1="178.1" y1="788.6" x2="186.3" y2="788.6"/>
	</g>
	<g>
		<line class="st29" x1="184.7" y1="790.6" x2="179.9" y2="790.6"/>
	</g>
</g>
<g>
	<rect x="171.9" y="793.1" class="st5" width="20.3" height="8.2"/>
	<rect x="172.2" y="793.5" class="st30" width="19.7" height="7.6"/>
</g>
<rect x="175.9" y="562.9" class="st5" width="12.7" height="6"/>
<rect x="176" y="562.9" class="st5" width="12.5" height="6"/>
<g>
	<text transform="matrix(1 0 0 1 171.8921 567.728)" class="st6 st7">B 0.35</text>
</g>
<rect x="175" y="686.1" class="st5" width="12.5" height="6"/>
<text transform="matrix(1 0 0 1 172.8178 690.9314)" class="st6 st7">B 0.35</text>
<path class="st34" d="M185.1,727.1c0,1.7-1.3,2.9-2.8,2.9c-1.6,0-2.9-1.2-2.9-2.9c0-1.5,1.3-2.7,2.9-2.7
	C183.8,724.4,185.1,725.6,185.1,727.1z"/>
<rect x="179" y="758.3" class="st5" width="6.4" height="6"/>
<g>
	<text transform="matrix(1 0 0 1 174.6693 763.2502)" class="st6 st7">B 2.5</text>
</g>
<path class="st34" d="M363.2,456.6c0,1.7-1.3,2.9-2.8,2.9c-1.6,0-2.9-1.2-2.9-2.9c0-1.5,1.3-2.7,2.9-2.7
	C361.9,453.9,363.2,455.1,363.2,456.6z"/>
<g>
	<text transform="matrix(1 0 0 1 557.9772 330.6531)" class="st35 st6 st7">-25</text>
</g>
<g>
	<text transform="matrix(1 0 0 1 532.6232 330.6531)" class="st35 st6 st7">BG86(B)</text>
</g>
<g>
	<text transform="matrix(1 0 0 1 608.0591 330.6531)" class="st35 st6 st7">-26</text>
</g>
<g>
	<text transform="matrix(1 0 0 1 582.7051 330.6531)" class="st35 st6 st7">BG86(B)</text>
</g>
<g>
	<text transform="matrix(1 0 0 1 455.1025 330.9445)" class="st35 st6 st7">-1</text>
</g>
<g>
	<text transform="matrix(1 0 0 1 430.1547 330.9445)" class="st35 st6 st7">BG86(A)</text>
</g>
<g>
	<g>
		<text transform="matrix(1 0 0 1 107.7926 148.6221)" class="st35 st6 st7">F2/22</text>
	</g>
</g>
<g>
	<g>
		<text transform="matrix(1 0 0 1 132.5672 148.3782)" class="st35 st6 st7">Instrument fuse box</text>
	</g>
</g>
<g>
	<g>
		<text transform="matrix(1 0 0 1 338.0604 346.1851)" class="st35 st6 st7">Right domain control module</text>
	</g>
</g>
<g>
	<text transform="matrix(1 0 0 1 216.5972 521.8169)" class="st35 st6 st7">Front Passenger Seat Connector</text>
</g>
<g>
	<text transform="matrix(1 0 0 1 104.9435 203.5048)" class="st35 st6 st7">G82</text>
</g>
<g>
	<text transform="matrix(1 0 0 1 116.0475 203.5048)" class="st35 st6 st7">-23</text>
</g>
<g>
	<text transform="matrix(1 0 0 1 106.2864 500.667)" class="st35 st6 st7">K02(A)_2</text>
</g>
<g>
	<text transform="matrix(1 0 0 1 106.2864 544.6029)" class="st35 st6 st7">K02(A)_2</text>
</g>
<g>
	<text transform="matrix(1 0 0 1 188.4545 544.6029)" class="st35 st6 st7">K02(A)_2</text>
</g>
<g>
	<text transform="matrix(1 0 0 1 187.8596 500.667)" class="st35 st6 st7">K02(A)_2</text>
</g>
<g>
	<text transform="matrix(1 0 0 1 315.2006 500.667)" class="st35 st6 st7">K02(A)_2</text>
</g>
<g>
	<text transform="matrix(1 0 0 1 315.3116 368.9747)" class="st35 st6 st7">KG86(E)</text>
</g>
<g>
	<text transform="matrix(1 0 0 1 340.395 368.9747)" class="st35 st6 st7">-16</text>
</g>
<g>
	<text transform="matrix(1 0 0 1 286.5616 368.9747)" class="st35 st6 st7">-14</text>
</g>
<g>
	<text transform="matrix(1 0 0 1 365.4282 500.667)" class="st35 st6 st7">K02(A)_2</text>
</g>
<g>
	<text transform="matrix(1 0 0 1 365.5392 368.9747)" class="st35 st6 st7">KG86(E)</text>
</g>
<g>
	<text transform="matrix(1 0 0 1 391.0523 368.9747)" class="st35 st6 st7">-8</text>
</g>
<g>
	<text transform="matrix(1 0 0 1 106.6365 375.9897)" class="st35 st6 st7">GJK01</text>
</g>
<g>
	<text transform="matrix(1 0 0 1 106.6365 383.1899)" class="st35 st6 st7">KJG01</text>
</g>
<g>
	<text transform="matrix(1 0 0 1 125.2814 383.1899)" class="st35 st6 st7">-17</text>
</g>
<g>
	<text transform="matrix(1 0 0 1 261.162 500.667)" class="st35 st6 st7">K02(A)_2</text>
</g>
<g>
	<text transform="matrix(1 0 0 1 261.2731 368.9747)" class="st35 st6 st7">KG86(E)</text>
</g>
<g>
	<text transform="matrix(1 0 0 1 213.4201 368.9747)" class="st35 st6 st7">-2</text>
</g>
<g>
	<text transform="matrix(1 0 0 1 188.1315 368.9747)" class="st35 st6 st7">KG86(D)</text>
</g>
<g>
	<g>
		<text transform="matrix(1 0 0 1 433.191 148.6221)" class="st35 st6 st7">F4/05</text>
	</g>
</g>
<g>
	<g>
		<text transform="matrix(1 0 0 1 457.9656 148.3782)" class="st35 st6 st7">Positive fuse box</text>
	</g>
</g>
<g>
	<text transform="matrix(1 0 0 1 430.3419 203.5048)" class="st35 st6 st7">B46_5</text>
</g>
<g>
	<text transform="matrix(1 0 0 1 449.0292 203.5048)" class="st35 st6 st7">-1</text>
</g>
<g>
	<text transform="matrix(1 0 0 1 482.8646 368.6703)" class="st35 st6 st7">BG86(B) </text>
</g>
<g>
	<text transform="matrix(1 0 0 1 508.1146 368.6703)" class="st35 st6 st7">-43</text>
</g>
<g>
	<text transform="matrix(1 0 0 1 533.0233 368.6703)" class="st35 st6 st7">KG86(D)</text>
</g>
<g>
	<text transform="matrix(1 0 0 1 558.1259 368.6703)" class="st35 st6 st7">-1</text>
</g>
<g>
	<text transform="matrix(1 0 0 1 429.9208 368.6703)" class="st35 st6 st7">BG86(B)</text>
</g>
<g>
	<text transform="matrix(1 0 0 1 455.1708 368.6703)" class="st35 st6 st7">-1</text>
</g>
<g>
	<text transform="matrix(1 0 0 1 469.1039 799.3964)" class="st35 st6 st7">Eb08</text>
</g>
<g>
	<text transform="matrix(1 0 0 1 519.285 799.3964)" class="st35 st6 st7">Ek11</text>
</g>
<g>
	<text transform="matrix(1 0 0 1 416.2743 799.3964)" class="st35 st6 st7">Eb04</text>
</g>
<g>
	<g>
		<g id="FB103_16_">
			<g>
				<g id="FB103_17_">
					<g>
						<text transform="matrix(1 0 0 1 203.9689 630.603)" class="st35 st6 st7">Front passenger seat belt buckle</text>
					</g>
				</g>
			</g>
		</g>
	</g>
</g>
<g>
	<g>
		<g>
			<text transform="matrix(1 0 0 1 174.6914 799.4958)" class="st35 st6 st7">Ek09</text>
		</g>
	</g>
</g>
<g>
	<g>
		<g>
			<text transform="matrix(1 0 0 1 207.6014 609.7466)" class="st35 st6 st7">-1</text>
		</g>
	</g>
</g>
<g>
	<g>
		<g>
			<text transform="matrix(1 0 0 1 187.3045 609.7466)" class="st35 st6 st7">K02(A)</text>
		</g>
	</g>
</g>
<g>
	<g>
		<g>
			<text transform="matrix(1 0 0 1 207.6014 656.4966)" class="st35 st6 st7">-2</text>
		</g>
	</g>
</g>
<g>
	<g>
		<g>
			<text transform="matrix(1 0 0 1 187.3045 656.4966)" class="st35 st6 st7">K02(A)</text>
		</g>
	</g>
</g>
<text transform="matrix(1 0 0 1 133.7865 500.667)" class="st35 st6 st7">-1</text>
<text transform="matrix(1 0 0 1 215.5264 500.667)" class="st35 st6 st7">-8</text>
<text transform="matrix(1 0 0 1 288.7453 500.667)" class="st35 st6 st7">-11</text>
<text transform="matrix(1 0 0 1 343.4501 500.667)" class="st35 st6 st7">-3</text>
<text transform="matrix(1 0 0 1 392.8661 500.667)" class="st35 st6 st7">-6</text>
<text transform="matrix(1 0 0 1 133.5365 544.6029)" class="st35 st6 st7">-7</text>
<text transform="matrix(1 0 0 1 216.142 544.681)" class="st35 st6 st7">-12</text>
</svg>
