<?xml version="1.0" encoding="utf-8"?>
<!-- Generator: Adobe Illustrator 24.0.1, SVG Export Plug-In . SVG Version: 6.00 Build 0)  -->
<svg version="1.1" id="图层_1" xmlns="http://www.w3.org/2000/svg" xmlns:xlink="http://www.w3.org/1999/xlink" x="0px" y="0px"
	 viewBox="0 0 1142.2 841.9" style="enable-background:new 0 0 1142.2 841.9;" xml:space="preserve">
<style type="text/css">
	.st0{fill:none;stroke:#E60012;stroke-width:3;stroke-miterlimit:10;}
	.st1{fill:none;stroke:#FFF100;stroke-miterlimit:10;}
	.st2{fill:#DCDDDD;}
	.st3{fill:none;stroke:#000000;stroke-width:0.5;}
	.st4{fill:none;stroke:#000000;}
	.st5{font-family:'FZLTHJW--GB1-0';}
	.st6{font-size:6px;}
	.st7{fill:none;stroke:#000000;stroke-width:3;stroke-linecap:round;stroke-miterlimit:10;}
	.st8{fill:#9FD9F6;stroke:#000000;stroke-width:0.5;stroke-linecap:round;stroke-miterlimit:10;}
	.st9{font-size:4px;}
	.st10{fill:none;stroke:#000000;stroke-width:0.6;stroke-linecap:round;stroke-linejoin:round;}
	.st11{fill:#FFFFFF;}
	.st12{fill:none;stroke:#000000;stroke-width:0.72;stroke-linecap:round;stroke-linejoin:round;}
	.st13{fill:none;stroke:#000000;stroke-width:1.3;}
	.st14{fill:#FFFFFF;stroke:#000000;stroke-width:0.25;stroke-linecap:round;stroke-linejoin:round;}
	.st15{fill:#DCDDDD;stroke:#000000;stroke-width:0.5;stroke-linecap:round;stroke-miterlimit:10;}
	.st16{fill:none;stroke:#040000;stroke-width:0.75;}
	.st17{stroke:#FFFFFF;stroke-width:0.5;stroke-linecap:round;}
	.st18{fill:none;stroke:#FFFFFF;stroke-width:1.0001;}
	.st19{fill:none;stroke:#000000;stroke-width:3;stroke-linecap:round;stroke-linejoin:round;stroke-miterlimit:10;}
	.st20{fill:none;stroke:#FFF100;stroke-linecap:round;stroke-linejoin:round;stroke-miterlimit:10;}
	.st21{fill:none;stroke:#009944;stroke-width:3;stroke-linecap:round;stroke-linejoin:round;stroke-miterlimit:10;}
	.st22{fill:none;stroke:#005EAD;stroke-width:3;}
	.st23{fill:none;stroke:#FFFFFF;}
	.st24{fill:none;stroke:#E60012;stroke-width:3;stroke-linecap:round;stroke-linejoin:round;stroke-miterlimit:10;}
	.st25{fill:none;stroke:#005EAD;stroke-linecap:round;stroke-linejoin:round;stroke-miterlimit:10;}
	.st26{fill:none;stroke:#898989;stroke-width:3;stroke-linecap:round;stroke-linejoin:round;stroke-miterlimit:10;}
	.st27{fill:none;stroke:#E60012;stroke-linecap:round;stroke-linejoin:round;stroke-miterlimit:10;}
	.st28{fill:none;stroke:#005EAD;stroke-width:3;stroke-linecap:round;stroke-linejoin:round;stroke-miterlimit:10;}
	.st29{enable-background:new    ;}
	.st30{fill:none;stroke:#000000;stroke-width:0.6001;stroke-linecap:round;stroke-linejoin:round;}
	.st31{fill:none;stroke:#000000;stroke-width:0.6001;stroke-linecap:round;}
	.st32{fill:#FFFFFF;stroke:#000000;stroke-width:0.25;}
	.st33{stroke:#FFFFFF;stroke-width:0.5;}
	.st34{fill:none;stroke:#FFFFFF;stroke-linecap:round;stroke-linejoin:round;stroke-miterlimit:10;}
	.st35{fill:none;stroke:#F29C97;stroke-width:3;stroke-linecap:round;stroke-miterlimit:10;}
	.st36{fill:none;stroke:#89438F;stroke-width:3;stroke-linecap:round;stroke-miterlimit:10;}
	.st37{fill:none;stroke:#000000;stroke-width:0.5;stroke-miterlimit:10;}
	.st38{fill:none;stroke:#000000;stroke-width:0.5;stroke-linecap:round;stroke-linejoin:round;}
	.st39{fill:#005EAD;}
</style>
<line class="st0" x1="164.6" y1="204.5" x2="164.6" y2="436.8"/>
<line class="st0" x1="164.6" y1="204.5" x2="164.6" y2="436.8"/>
<line class="st1" x1="164.6" y1="204.5" x2="164.6" y2="436.8"/>
<line class="st1" x1="164.6" y1="204.5" x2="164.6" y2="436.8"/>
<polyline class="st2" points="53,41.9 1107.5,41.9 1107.5,88.1 53,88.1 "/>
<g>
	<line class="st3" x1="53" y1="47.6" x2="1107.5" y2="47.6"/>
	<line class="st4" x1="53" y1="41.6" x2="1107.5" y2="41.6"/>
	<path class="st4" d="M1130.5,59.3"/>
	<path class="st4" d="M52,59.3"/>
	<line class="st3" x1="53" y1="58.9" x2="1107.5" y2="58.9"/>
	<line class="st3" x1="53" y1="70.6" x2="1107.5" y2="70.6"/>
	<line class="st3" x1="53" y1="82.3" x2="1107.5" y2="82.3"/>
	<line class="st4" x1="53" y1="88.1" x2="1107.5" y2="88.1"/>
</g>
<text transform="matrix(1 0 0 1 1111.583 49.6299)" class="st5 st6">30</text>
<text transform="matrix(1 0 0 1 1111.583 60.7959)" class="st5 st6">IG1</text>
<text transform="matrix(1 0 0 1 1111.583 72.4209)" class="st5 st6">IG3</text>
<text transform="matrix(1 0 0 1 1111.583 83.9248)" class="st5 st6">ACC</text>
<text transform="matrix(1 0 0 1 42.7851 49.7119)" class="st5 st6">30</text>
<text transform="matrix(1 0 0 1 39.6211 60.8779)" class="st5 st6">IG1</text>
<text transform="matrix(1 0 0 1 39.6679 72.5029)" class="st5 st6">IG3</text>
<text transform="matrix(1 0 0 1 36.1289 84.0029)" class="st5 st6">ACC</text>
<g id="FB55">
</g>
<line class="st7" x1="88.6" y1="491.3" x2="88.6" y2="785.5"/>
<line class="st7" x1="164.6" y1="491.3" x2="164.6" y2="785.5"/>
<line class="st7" x1="233.7" y1="491.3" x2="233.7" y2="785.5"/>
<g>
	<path class="st8" d="M1062.9,479.9H54.9V447h1008c0,0-3.8,16.2,0,20.7S1062.9,479.9,1062.9,479.9z"/>
</g>
<g>
	<text transform="matrix(1 0 0 1 84.5004 478.1847)" class="st5 st9">Power ground 1</text>
</g>
<g>
	<g>
		<line class="st10" x1="88.6" y1="488.3" x2="88.6" y2="480"/>
	</g>
	<g>
		<path class="st11" d="M88.7,491.3c-1.7,0-3-1.4-3-3c0-1.8,1.4-3.2,3-3.2c1.8,0,3.2,1.4,3.2,3.2C91.9,489.9,90.5,491.3,88.7,491.3z
			"/>
		<path d="M88.7,491.9c-2,0-3.7-1.6-3.7-3.7c0-2.2,1.7-3.8,3.7-3.8v1.1c-1.4,0-2.5,1.1-2.5,2.7c0,1.4,1.1,2.5,2.5,2.5V491.9
			L88.7,491.9z M88.7,484.4v1.1c1.5,0,2.7,1.1,2.7,2.7c0,1.4-1.1,2.5-2.7,2.5v1.1c2.2,0,3.8-1.6,3.8-3.7
			C92.5,486.1,90.9,484.4,88.7,484.4z"/>
	</g>
	<rect x="84.5" y="484.1" class="st11" width="8.5" height="4.1"/>
	<rect x="88.1" y="485" width="1" height="4.2"/>
	<rect x="88.1" y="485" class="st12" width="1" height="4.2"/>
</g>
<rect x="85.4" y="504.3" class="st11" width="6.4" height="6"/>
<g>
	<text transform="matrix(1 0 0 1 81.0502 509.1898)" class="st5 st6">B 2.5</text>
</g>
<g>
	<text transform="matrix(1 0 0 1 156.8163 478.1847)" class="st5 st9">Power ground 2</text>
</g>
<g id="GB031_8_">
	<g>
		<g>
			<line class="st13" x1="164.6" y1="783.7" x2="164.6" y2="786.4"/>
		</g>
		<g>
			<line class="st13" x1="157.5" y1="786.4" x2="171.3" y2="786.4"/>
		</g>
		<g>
			<line class="st13" x1="160.3" y1="788.6" x2="168.5" y2="788.6"/>
		</g>
		<g>
			<line class="st13" x1="166.9" y1="790.7" x2="162" y2="790.7"/>
		</g>
	</g>
	<g>
		<rect x="154.1" y="793.2" class="st11" width="20.3" height="8.2"/>
		<rect x="154.4" y="793.5" class="st14" width="19.7" height="7.6"/>
	</g>
</g>
<g>
	<g>
		<line class="st10" x1="164.6" y1="488.3" x2="164.6" y2="480"/>
	</g>
	<g>
		<path class="st11" d="M164.7,491.3c-1.7,0-3-1.4-3-3c0-1.8,1.4-3.2,3-3.2c1.8,0,3.2,1.4,3.2,3.2
			C167.9,489.9,166.5,491.3,164.7,491.3z"/>
		<path d="M164.7,491.9c-2,0-3.7-1.6-3.7-3.7c0-2.2,1.7-3.8,3.7-3.8v1.1c-1.4,0-2.5,1.1-2.5,2.7c0,1.4,1.1,2.5,2.5,2.5V491.9
			L164.7,491.9z M164.7,484.4v1.1c1.5,0,2.7,1.1,2.7,2.7c0,1.4-1.1,2.5-2.7,2.5v1.1c2.2,0,3.8-1.6,3.8-3.7
			C168.5,486.1,166.9,484.4,164.7,484.4z"/>
	</g>
	<rect x="160.5" y="484.1" class="st11" width="8.5" height="4.1"/>
	<rect x="164.1" y="485" width="1" height="4.2"/>
	<rect x="164.1" y="485" class="st12" width="1" height="4.2"/>
</g>
<rect x="161.4" y="504.3" class="st11" width="6.4" height="6"/>
<g>
	<text transform="matrix(1 0 0 1 157.056 509.1899)" class="st5 st6">B 2.5</text>
</g>
<g id="GB031_1_">
	<g>
		<g>
			<line class="st13" x1="88.6" y1="783.7" x2="88.6" y2="786.4"/>
		</g>
		<g>
			<line class="st13" x1="81.6" y1="786.4" x2="95.4" y2="786.4"/>
		</g>
		<g>
			<line class="st13" x1="84.4" y1="788.6" x2="92.6" y2="788.6"/>
		</g>
		<g>
			<line class="st13" x1="90.9" y1="790.7" x2="86.1" y2="790.7"/>
		</g>
	</g>
	<g>
		<rect x="78.2" y="793.2" class="st11" width="20.3" height="8.2"/>
		<rect x="78.5" y="793.5" class="st14" width="19.7" height="7.6"/>
	</g>
</g>
<g>
	<text transform="matrix(1 0 0 1 224.3295 478.1838)" class="st5 st9">Signal ground</text>
</g>
<g id="GB031_7_">
	<g>
		<g>
			<line class="st13" x1="233.7" y1="783.7" x2="233.7" y2="786.4"/>
		</g>
		<g>
			<line class="st13" x1="226.6" y1="786.4" x2="240.5" y2="786.4"/>
		</g>
		<g>
			<line class="st13" x1="229.4" y1="788.6" x2="237.6" y2="788.6"/>
		</g>
		<g>
			<line class="st13" x1="236" y1="790.7" x2="231.2" y2="790.7"/>
		</g>
	</g>
	<g>
		<rect x="223.2" y="793.2" class="st11" width="20.3" height="8.2"/>
		<rect x="223.5" y="793.5" class="st14" width="19.7" height="7.6"/>
	</g>
</g>
<g>
	<g>
		<line class="st10" x1="233.7" y1="488.3" x2="233.7" y2="480"/>
	</g>
	<g>
		<path class="st11" d="M233.8,491.3c-1.7,0-3-1.4-3-3c0-1.8,1.4-3.2,3-3.2c1.8,0,3.2,1.4,3.2,3.2
			C237,489.9,235.6,491.3,233.8,491.3z"/>
		<path d="M233.8,491.9c-2,0-3.7-1.6-3.7-3.7c0-2.2,1.7-3.8,3.7-3.8v1.1c-1.4,0-2.5,1.1-2.5,2.7c0,1.4,1.1,2.5,2.5,2.5V491.9
			L233.8,491.9z M233.8,484.4v1.1c1.5,0,2.7,1.1,2.7,2.7c0,1.4-1.1,2.5-2.7,2.5v1.1c2.2,0,3.8-1.6,3.8-3.7
			C237.6,486.1,236,484.4,233.8,484.4z"/>
	</g>
	<rect x="229.6" y="484.1" class="st11" width="8.5" height="4.1"/>
	<rect x="233.2" y="485" width="1" height="4.2"/>
	<rect x="233.2" y="485" class="st12" width="1" height="4.2"/>
</g>
<rect x="230.5" y="504.3" class="st11" width="6.4" height="6"/>
<g>
	<text transform="matrix(1 0 0 1 224.3294 509.189)" class="st5 st6">B 0.75</text>
</g>
<rect x="85.4" y="676.9" class="st11" width="6.4" height="6"/>
<g>
	<text transform="matrix(1 0 0 1 81.0502 681.8735)" class="st5 st6">B 2.5</text>
</g>
<rect x="161.4" y="676.9" class="st11" width="6.4" height="6"/>
<g>
	<text transform="matrix(1 0 0 1 157.056 681.8735)" class="st5 st6">B 2.5</text>
</g>
<rect x="230.5" y="676.9" class="st11" width="6.4" height="6"/>
<g>
	<text transform="matrix(1 0 0 1 224.3294 681.8727)" class="st5 st6">B 0.75</text>
</g>
<g id="REB_x2C_A3_1_">
	<rect x="69" y="139.7" class="st15" width="45.6" height="56.3"/>
</g>
<g id="RF22_x2C_A3_7_">
	<g>
		<g>
			<path class="st16" d="M88.2,171c-1.2,0-2.2,1-2.2,2.2s1,2.2,2.2,2.2s2.2-1,2.2-2.2C90.4,172,89.4,171,88.2,171"/>
		</g>
		<g>
			<path class="st16" d="M88.2,155.2c-1.2,0-2.2,1-2.2,2.1c0,1.2,1,2.2,2.2,2.2s2.2-0.9,2.2-2.2C90.4,156.2,89.4,155.2,88.2,155.2"
				/>
		</g>
		<g>
			<path class="st16" d="M86.7,159c-0.1,2.5,0.2,3.2,1.3,4.3c1.2,1.2,2.4,1.7,2.8,3.7c0.4,1.6-0.1,3.5-1.1,4.5"/>
		</g>
		<g>
			<path class="st16" d="M89.6,171.6c0.2-0.8,0-2.9-0.6-3.7c-0.9-1.2-2.7-2.1-3.3-4c-0.9-2.8,0.7-4.6,1.1-5"/>
		</g>
	</g>
</g>
<g>
	<text transform="matrix(1 0 0 1 85.1429 452.0732)" class="st5 st9">Constant power</text>
</g>
<line class="st0" x1="88.3" y1="204.5" x2="88.3" y2="436.8"/>
<line class="st0" x1="88.3" y1="204.5" x2="88.3" y2="436.8"/>
<g>
	<g>
		<polyline class="st10" points="88.2,175.4 88.2,179.4 88.2,196 		"/>
	</g>
</g>
<g>
	<g>
		<polyline class="st10" points="88.2,154.9 88.2,150.8 88.2,48 		"/>
	</g>
</g>
<g>
	<g>
		<line class="st10" x1="88.2" y1="204.5" x2="88.2" y2="196.2"/>
	</g>
	<g>
		<path class="st11" d="M88.3,207.5c-1.7,0-3-1.4-3-3c0-1.8,1.4-3.2,3-3.2c1.8,0,3.2,1.4,3.2,3.2C91.5,206.1,90.1,207.5,88.3,207.5z
			"/>
		<path d="M88.3,208.2c-2,0-3.7-1.6-3.7-3.7c0-2.2,1.7-3.8,3.7-3.8v1.1c-1.4,0-2.5,1.1-2.5,2.7c0,1.4,1.1,2.5,2.5,2.5V208.2
			L88.3,208.2z M88.3,200.7v1.1c1.5,0,2.7,1.1,2.7,2.7c0,1.4-1.1,2.5-2.7,2.5v1.1c2.2,0,3.8-1.6,3.8-3.7
			C92.1,202.3,90.5,200.7,88.3,200.7z"/>
	</g>
	<rect x="84.1" y="200.3" class="st11" width="8.5" height="4.1"/>
	<rect x="87.7" y="201.2" width="1" height="4.2"/>
	<rect x="87.7" y="201.2" class="st12" width="1" height="4.2"/>
</g>
<g>
	<g>
		<line class="st10" x1="88.5" y1="438.8" x2="88.5" y2="447"/>
	</g>
	<g>
		<path class="st11" d="M88.5,435.7c1.7,0,3,1.4,3,3c0,1.8-1.4,3.2-3,3.2c-1.8,0-3.2-1.4-3.2-3.2C85.3,437.1,86.7,435.7,88.5,435.7z
			"/>
		<path d="M88.5,435.1c2,0,3.7,1.7,3.7,3.7c0,2.2-1.7,3.8-3.7,3.8v-1.1c1.4,0,2.5-1.1,2.5-2.7c0-1.4-1.1-2.5-2.5-2.5V435.1
			L88.5,435.1z M88.5,442.6v-1.1c-1.5,0-2.7-1.1-2.7-2.7c0-1.4,1.1-2.5,2.7-2.5v-1.1c-2.2,0-3.8,1.7-3.8,3.7S86.3,442.6,88.5,442.6z
			"/>
	</g>
	<rect x="84.1" y="438.9" class="st11" width="8.5" height="4.1"/>
	<rect x="88.1" y="437.9" width="1" height="4.2"/>
	<rect x="88.1" y="437.9" class="st12" width="1" height="4.2"/>
</g>
<g>
	<path class="st17" d="M85.1,47.7c0-1.7,1.3-2.9,2.8-2.9c1.6,0,2.9,1.2,2.9,2.9c0,1.5-1.3,2.7-2.9,2.7
		C86.4,50.5,85.1,49.2,85.1,47.7z"/>
	<g>
		<path class="st18" d="M85.1,47.7c0-1.7,1.3-2.9,2.8-2.9c1.6,0,2.9,1.2,2.9,2.9c0,1.5-1.3,2.7-2.9,2.7
			C86.4,50.5,85.1,49.2,85.1,47.7"/>
	</g>
</g>
<rect x="82" y="407.1" class="st11" width="12.7" height="6"/>
<rect x="82.1" y="407.1" class="st11" width="12.5" height="6"/>
<g>
	<text transform="matrix(1 0 0 1 80.5345 412.0392)" class="st5 st6">R 8.0</text>
</g>
<rect x="82" y="244.1" class="st11" width="12.7" height="6"/>
<rect x="82.1" y="244.1" class="st11" width="12.5" height="6"/>
<g>
	<text transform="matrix(1 0 0 1 80.5345 249.0391)" class="st5 st6">R 8.0</text>
</g>
<g>
	<g>
		<text transform="matrix(1 0 0 1 92.5644 170.5938)" class="st5 st6">100A</text>
	</g>
</g>
<g id="REB_x2C_A3_2_">
	<rect x="145.2" y="139.7" class="st15" width="45.6" height="56.3"/>
</g>
<g id="RF22_x2C_A3_1_">
	<g>
		<g>
			<path class="st16" d="M164.5,171c-1.2,0-2.2,1-2.2,2.2s1,2.2,2.2,2.2s2.2-1,2.2-2.2S165.7,171,164.5,171"/>
		</g>
		<g>
			<path class="st16" d="M164.5,155.2c-1.2,0-2.2,1-2.2,2.1c0,1.2,1,2.2,2.2,2.2s2.2-0.9,2.2-2.2
				C166.7,156.2,165.7,155.2,164.5,155.2"/>
		</g>
		<g>
			<path class="st16" d="M163,159c-0.1,2.5,0.2,3.2,1.3,4.3c1.2,1.2,2.4,1.7,2.8,3.7c0.4,1.6-0.1,3.5-1.1,4.5"/>
		</g>
		<g>
			<path class="st16" d="M165.9,171.6c0.2-0.8,0-2.9-0.6-3.7c-0.9-1.2-2.7-2.1-3.3-4c-0.9-2.8,0.7-4.6,1.1-5"/>
		</g>
	</g>
</g>
<g>
	<text transform="matrix(1 0 0 1 157.8452 452.0732)" class="st5 st9">IG3 power supply</text>
</g>
<g>
	<g>
		<polyline class="st10" points="164.5,175.4 164.5,179.4 164.5,196 		"/>
	</g>
</g>
<g>
	<g>
		<polyline class="st10" points="164.5,154.9 164.5,151.6 164.5,70.6 		"/>
	</g>
</g>
<g>
	<g>
		<line class="st10" x1="164.5" y1="204.5" x2="164.5" y2="196.2"/>
	</g>
	<g>
		<path class="st11" d="M164.6,207.5c-1.7,0-3-1.4-3-3c0-1.8,1.4-3.2,3-3.2c1.8,0,3.2,1.4,3.2,3.2
			C167.8,206.1,166.4,207.5,164.6,207.5z"/>
		<path d="M164.6,208.2c-2,0-3.7-1.6-3.7-3.7c0-2.2,1.7-3.8,3.7-3.8v1.1c-1.4,0-2.5,1.1-2.5,2.7c0,1.4,1.1,2.5,2.5,2.5V208.2
			L164.6,208.2z M164.6,200.7v1.1c1.5,0,2.7,1.1,2.7,2.7c0,1.4-1.1,2.5-2.7,2.5v1.1c2.2,0,3.8-1.6,3.8-3.7
			C168.4,202.3,166.7,200.7,164.6,200.7z"/>
	</g>
	<rect x="160.4" y="200.3" class="st11" width="8.5" height="4.1"/>
	<rect x="164" y="201.2" width="1" height="4.2"/>
	<rect x="164" y="201.2" class="st12" width="1" height="4.2"/>
</g>
<g>
	<g>
		<line class="st10" x1="164.8" y1="438.8" x2="164.8" y2="447"/>
	</g>
	<g>
		<path class="st11" d="M164.7,435.7c1.7,0,3,1.4,3,3c0,1.8-1.4,3.2-3,3.2c-1.8,0-3.2-1.4-3.2-3.2
			C161.5,437.1,162.9,435.7,164.7,435.7z"/>
		<path d="M164.7,435.1c2,0,3.7,1.7,3.7,3.7c0,2.2-1.7,3.8-3.7,3.8v-1.1c1.4,0,2.5-1.1,2.5-2.7c0-1.4-1.1-2.5-2.5-2.5V435.1
			L164.7,435.1z M164.7,442.6v-1.1c-1.5,0-2.7-1.1-2.7-2.7c0-1.4,1.1-2.5,2.7-2.5v-1.1c-2.2,0-3.8,1.7-3.8,3.7
			S162.6,442.6,164.7,442.6z"/>
	</g>
	<rect x="160.4" y="438.9" class="st11" width="8.5" height="4.1"/>
	<rect x="164.3" y="437.9" width="1" height="4.2"/>
	<rect x="164.3" y="437.9" class="st12" width="1" height="4.2"/>
</g>
<g>
	<path class="st17" d="M161.6,70.9c0-1.7,1.3-2.9,2.8-2.9c1.6,0,2.9,1.2,2.9,2.9c0,1.5-1.3,2.7-2.9,2.7
		C162.9,73.6,161.6,72.4,161.6,70.9z"/>
	<g>
		<path class="st18" d="M161.6,70.9c0-1.7,1.3-2.9,2.8-2.9c1.6,0,2.9,1.2,2.9,2.9c0,1.5-1.3,2.7-2.9,2.7
			C162.9,73.6,161.6,72.4,161.6,70.9"/>
	</g>
</g>
<rect x="158.2" y="407.1" class="st11" width="12.7" height="6"/>
<rect x="158.3" y="407.1" class="st11" width="12.5" height="6"/>
<g>
	<text transform="matrix(1 0 0 1 151.5979 412.0392)" class="st5 st6">R/Y 0.35</text>
</g>
<rect x="158.2" y="244.1" class="st11" width="12.7" height="6"/>
<rect x="158.3" y="244.1" class="st11" width="12.5" height="6"/>
<g>
	<text transform="matrix(1 0 0 1 151.5979 249.0391)" class="st5 st6">R/Y 0.35</text>
</g>
<rect x="158.2" y="281.2" class="st11" width="12.7" height="6"/>
<rect x="158.3" y="281.2" class="st11" width="12.5" height="6"/>
<g>
	<text transform="matrix(1 0 0 1 151.5979 286.1503)" class="st5 st6">R/Y 0.35</text>
</g>
<g>
	<g>
		<text transform="matrix(1 0 0 1 168.8222 170.5938)" class="st5 st6">7.5A</text>
	</g>
</g>
<g id="接地">
</g>
<polyline class="st19" points="355.9,704.4 355.9,606.6 547.9,606.6 "/>
<polyline class="st20" points="355.9,704.4 355.9,606.6 547.9,606.6 "/>
<line class="st21" x1="1003.2" y1="701.7" x2="1003.2" y2="489.1"/>
<polyline class="st19" points="950.7,701.7 950.7,606.5 549.4,606.5 "/>
<polyline class="st20" points="950.7,701.7 950.7,606.5 549.4,606.5 "/>
<line class="st19" x1="803.3" y1="704.4" x2="803.3" y2="491.9"/>
<line class="st20" x1="803.3" y1="704.4" x2="803.3" y2="491.9"/>
<polyline class="st19" points="601.3,704.4 601.3,648.3 791.4,648.3 803.4,635.3 408.3,635.3 408.3,704.4 "/>
<polyline class="st20" points="601.3,704.4 601.3,648.3 791.4,648.3 803.4,635.3 408.3,635.3 408.3,704.4 "/>
<line class="st22" x1="307.5" y1="223.6" x2="307.5" y2="437.9"/>
<line class="st23" x1="307.5" y1="223.6" x2="307.5" y2="437.9"/>
<line class="st24" x1="377.5" y1="222.6" x2="377.5" y2="435.1"/>
<line class="st25" x1="377.5" y1="222.6" x2="377.5" y2="435.1"/>
<polyline class="st24" points="622.4,222.6 622.4,292.3 377.4,292.3 "/>
<polyline class="st25" points="622.4,222.6 622.4,292.3 377.4,292.3 "/>
<line class="st26" x1="447.2" y1="222.6" x2="447.2" y2="435.1"/>
<line class="st27" x1="447.2" y1="222.6" x2="447.2" y2="435.1"/>
<line class="st28" x1="692.4" y1="225.4" x2="692.4" y2="437.9"/>
<line class="st20" x1="692.4" y1="225.4" x2="692.4" y2="437.9"/>
<g>
	<g>
		<line class="st10" x1="307.6" y1="221.7" x2="307.6" y2="213.4"/>
	</g>
	<g>
		<path class="st11" d="M307.5,224.7c1.7,0,3-1.4,3-3c0-1.8-1.4-3.2-3-3.2c-1.8,0-3.2,1.4-3.2,3.2
			C304.4,223.3,305.8,224.7,307.5,224.7z"/>
		<path d="M307.5,225.4v-1.1c1.4,0,2.5-1.1,2.5-2.5c0-1.5-1.1-2.7-2.5-2.7V218c2,0,3.7,1.7,3.7,3.8
			C311.2,223.7,309.6,225.4,307.5,225.4L307.5,225.4z M303.7,221.7c0,2,1.6,3.7,3.8,3.7v-1.1c-1.5,0-2.7-1.1-2.7-2.5
			c0-1.5,1.1-2.7,2.7-2.7V218C305.4,217.9,303.7,219.5,303.7,221.7z"/>
	</g>
	<rect x="303.2" y="217.5" class="st11" width="8.5" height="4.1"/>
	<rect x="307.2" y="218.4" width="1" height="4.2"/>
	<rect x="307.2" y="218.4" class="st12" width="1" height="4.2"/>
</g>
<g>
	<g>
		<line class="st10" x1="377.5" y1="221.7" x2="377.5" y2="213.4"/>
	</g>
	<g>
		<path class="st11" d="M377.4,224.7c1.7,0,3-1.4,3-3c0-1.8-1.4-3.2-3-3.2c-1.8,0-3.2,1.4-3.2,3.2
			C374.3,223.3,375.7,224.7,377.4,224.7z"/>
		<path d="M377.4,225.4v-1.1c1.4,0,2.5-1.1,2.5-2.5c0-1.5-1.1-2.7-2.5-2.7V218c2,0,3.7,1.7,3.7,3.8
			C381.1,223.7,379.5,225.4,377.4,225.4L377.4,225.4z M373.6,221.7c0,2,1.6,3.7,3.8,3.7v-1.1c-1.5,0-2.7-1.1-2.7-2.5
			c0-1.5,1.1-2.7,2.7-2.7V218C375.3,217.9,373.6,219.5,373.6,221.7z"/>
	</g>
	<rect x="373.1" y="217.5" class="st11" width="8.5" height="4.1"/>
	<rect x="377" y="218.4" width="1" height="4.2"/>
	<rect x="377" y="218.4" class="st12" width="1" height="4.2"/>
</g>
<g>
	<g>
		<line class="st10" x1="447.2" y1="221.7" x2="447.2" y2="213.4"/>
	</g>
	<g>
		<path class="st11" d="M447.1,224.7c1.7,0,3-1.4,3-3c0-1.8-1.4-3.2-3-3.2c-1.8,0-3.2,1.4-3.2,3.2
			C444,223.3,445.4,224.7,447.1,224.7z"/>
		<path d="M447.1,225.4v-1.1c1.4,0,2.5-1.1,2.5-2.5c0-1.5-1.1-2.7-2.5-2.7V218c2,0,3.7,1.7,3.7,3.8
			C450.8,223.7,449.2,225.4,447.1,225.4L447.1,225.4z M443.3,221.7c0,2,1.6,3.7,3.8,3.7v-1.1c-1.5,0-2.7-1.1-2.7-2.5
			c0-1.5,1.1-2.7,2.7-2.7V218C445,217.9,443.3,219.5,443.3,221.7z"/>
	</g>
	<rect x="442.8" y="217.5" class="st11" width="8.5" height="4.1"/>
	<rect x="446.8" y="218.4" width="1" height="4.2"/>
	<rect x="446.8" y="218.4" class="st12" width="1" height="4.2"/>
</g>
<polygon class="st8" points="486.1,213.4 290.6,213.4 290.6,213.4 290.6,180.5 486.1,180.5 "/>
<g>
	<g>
		<line class="st10" x1="377.5" y1="438.8" x2="377.5" y2="447"/>
	</g>
	<g>
		<path class="st11" d="M377.5,435.7c1.7,0,3,1.4,3,3c0,1.8-1.4,3.2-3,3.2c-1.8,0-3.2-1.4-3.2-3.2
			C374.3,437.1,375.7,435.7,377.5,435.7z"/>
		<path d="M377.5,435.1c2,0,3.7,1.7,3.7,3.7c0,2.2-1.7,3.8-3.7,3.8v-1.1c1.4,0,2.5-1.1,2.5-2.7c0-1.4-1.1-2.5-2.5-2.5V435.1
			L377.5,435.1z M377.5,442.6v-1.1c-1.5,0-2.7-1.1-2.7-2.7c0-1.4,1.1-2.5,2.7-2.5v-1.1c-2.2,0-3.8,1.7-3.8,3.7
			C373.6,440.9,375.3,442.6,377.5,442.6z"/>
	</g>
	<rect x="373.1" y="438.9" class="st11" width="8.5" height="4.1"/>
	<rect x="377.1" y="437.9" width="1" height="4.2"/>
	<rect x="377.1" y="437.9" class="st12" width="1" height="4.2"/>
</g>
<g>
	<g>
		<line class="st10" x1="447.2" y1="438.8" x2="447.2" y2="447"/>
	</g>
	<g>
		<path class="st11" d="M447.1,435.7c1.7,0,3,1.4,3,3c0,1.8-1.4,3.2-3,3.2c-1.8,0-3.2-1.4-3.2-3.2
			C444,437.1,445.4,435.7,447.1,435.7z"/>
		<path d="M447.1,435.1c2,0,3.7,1.7,3.7,3.7c0,2.2-1.7,3.8-3.7,3.8v-1.1c1.4,0,2.5-1.1,2.5-2.7c0-1.4-1.1-2.5-2.5-2.5V435.1
			L447.1,435.1z M447.1,442.6v-1.1c-1.5,0-2.7-1.1-2.7-2.7c0-1.4,1.1-2.5,2.7-2.5v-1.1c-2.2,0-3.8,1.7-3.8,3.7
			C443.3,440.9,445,442.6,447.1,442.6z"/>
	</g>
	<rect x="442.8" y="438.9" class="st11" width="8.5" height="4.1"/>
	<rect x="446.8" y="437.9" width="1" height="4.2"/>
	<rect x="446.8" y="437.9" class="st12" width="1" height="4.2"/>
</g>
<rect x="370.3" y="407.1" class="st11" width="14.3" height="6"/>
<text transform="matrix(1 0 0 1 365.2312 412.04)" class="st5 st6">R/L 0.22</text>
<rect x="440" y="407.1" class="st11" width="14.3" height="6"/>
<text transform="matrix(1 0 0 1 433.1292 412.04)" class="st5 st6">Gr/R 0.22</text>
<rect x="370.3" y="337.1" class="st11" width="14.3" height="6"/>
<text transform="matrix(1 0 0 1 365.2312 342.04)" class="st5 st6">R/L 0.22</text>
<rect x="440" y="337.1" class="st11" width="14.3" height="6"/>
<text transform="matrix(1 0 0 1 433.1292 342.04)" class="st5 st6">Gr/R 0.22</text>
<rect x="370.3" y="244.1" class="st11" width="14.3" height="6"/>
<text transform="matrix(1 0 0 1 365.2312 249.04)" class="st5 st6">R/L 0.22</text>
<rect x="440" y="244.1" class="st11" width="14.3" height="6"/>
<text transform="matrix(1 0 0 1 433.1292 249.04)" class="st5 st6">Gr/R 0.22</text>
<g>
	<text transform="matrix(1 0 0 1 367.2427 452.521)" class="st5 st9">Front sensor power supply</text>
</g>
<g>
	<text transform="matrix(1 0 0 1 435.832 451.958)" class="st5 st9">Front sensor ground</text>
</g>
<g>
	<text transform="matrix(1 0 0 1 295.6559 211.521)" class="st5 st9">Left front sensor signal</text>
</g>
<g>
	<text transform="matrix(1 0 0 1 366.9789 210.9585)" class="st5 st9">Left front sensor power supply</text>
</g>
<g>
	<text transform="matrix(1 0 0 1 435.705 210.9585)" class="st5 st9">Left front sensor ground</text>
</g>
<polyline class="st26" points="552.2,222.6 552.2,266.7 446.6,266.7 "/>
<polyline class="st27" points="552.2,222.6 552.2,266.7 446.6,266.7 "/>
<rect x="541" y="244.1" class="st11" width="14.3" height="6"/>
<text transform="matrix(1 0 0 1 538.2242 249.04)" class="st5 st6">Gr/R 0.22</text>
<rect x="613.7" y="244.1" class="st11" width="14.3" height="6"/>
<text transform="matrix(1 0 0 1 610.0685 249.04)" class="st5 st6">R/L 0.22</text>
<rect x="685.2" y="244.1" class="st11" width="14.3" height="6"/>
<text transform="matrix(1 0 0 1 680.3139 249.04)" class="st5 st6">L/Y 0.22</text>
<g>
	<g>
		<line class="st10" x1="692.5" y1="438.8" x2="692.5" y2="447"/>
	</g>
	<g>
		<path class="st11" d="M692.4,435.7c1.7,0,3,1.4,3,3c0,1.8-1.4,3.2-3,3.2c-1.8,0-3.2-1.4-3.2-3.2
			C689.2,437.1,690.6,435.7,692.4,435.7z"/>
		<path d="M692.4,435.1c2,0,3.7,1.7,3.7,3.7c0,2.2-1.7,3.8-3.7,3.8v-1.1c1.4,0,2.5-1.1,2.5-2.7c0-1.4-1.1-2.5-2.5-2.5V435.1
			L692.4,435.1z M692.4,442.6v-1.1c-1.5,0-2.7-1.1-2.7-2.7c0-1.4,1.1-2.5,2.7-2.5v-1.1c-2.2,0-3.8,1.7-3.8,3.7
			C688.6,440.9,690.2,442.6,692.4,442.6z"/>
	</g>
	<rect x="688" y="438.9" class="st11" width="8.5" height="4.1"/>
	<rect x="692" y="437.9" width="1" height="4.2"/>
	<rect x="692" y="437.9" class="st12" width="1" height="4.2"/>
</g>
<rect x="685.2" y="407.1" class="st11" width="14.3" height="6"/>
<text transform="matrix(1 0 0 1 680.3143 412.04)" class="st5 st6">L/Y 0.22</text>
<g>
	<text transform="matrix(1 0 0 1 672.0515 451.958)" class="st5 st9">Right front sensor signal</text>
</g>
<g>
	<g>
		<line class="st10" x1="552.4" y1="221.7" x2="552.4" y2="213.4"/>
	</g>
	<g>
		<path class="st11" d="M552.3,224.7c1.7,0,3-1.4,3-3c0-1.8-1.4-3.2-3-3.2c-1.8,0-3.2,1.4-3.2,3.2
			C549.2,223.3,550.6,224.7,552.3,224.7z"/>
		<path d="M552.3,225.4v-1.1c1.4,0,2.5-1.1,2.5-2.5c0-1.5-1.1-2.7-2.5-2.7V218c2,0,3.7,1.7,3.7,3.8
			C556,223.7,554.4,225.4,552.3,225.4L552.3,225.4z M548.5,221.7c0,2,1.6,3.7,3.8,3.7v-1.1c-1.5,0-2.7-1.1-2.7-2.5
			c0-1.5,1.1-2.7,2.7-2.7V218C550.2,217.9,548.5,219.5,548.5,221.7z"/>
	</g>
	<rect x="548" y="217.5" class="st11" width="8.5" height="4.1"/>
	<rect x="552" y="218.4" width="1" height="4.2"/>
	<rect x="552" y="218.4" class="st12" width="1" height="4.2"/>
</g>
<g>
	<g>
		<line class="st10" x1="622.3" y1="221.7" x2="622.3" y2="213.4"/>
	</g>
	<g>
		<path class="st11" d="M622.2,224.7c1.7,0,3-1.4,3-3c0-1.8-1.4-3.2-3-3.2c-1.8,0-3.2,1.4-3.2,3.2
			C619.1,223.3,620.5,224.7,622.2,224.7z"/>
		<path d="M622.2,225.4v-1.1c1.4,0,2.5-1.1,2.5-2.5c0-1.5-1.1-2.7-2.5-2.7V218c2,0,3.7,1.7,3.7,3.8
			C625.9,223.7,624.3,225.4,622.2,225.4L622.2,225.4z M618.4,221.7c0,2,1.6,3.7,3.8,3.7v-1.1c-1.5,0-2.7-1.1-2.7-2.5
			c0-1.5,1.1-2.7,2.7-2.7V218C620.1,217.9,618.4,219.5,618.4,221.7z"/>
	</g>
	<rect x="617.9" y="217.5" class="st11" width="8.5" height="4.1"/>
	<rect x="621.9" y="218.4" width="1" height="4.2"/>
	<rect x="621.9" y="218.4" class="st12" width="1" height="4.2"/>
</g>
<g>
	<g>
		<line class="st10" x1="692" y1="221.7" x2="692" y2="213.4"/>
	</g>
	<g>
		<path class="st11" d="M692,224.7c1.7,0,3-1.4,3-3c0-1.8-1.4-3.2-3-3.2c-1.8,0-3.2,1.4-3.2,3.2C688.8,223.3,690.2,224.7,692,224.7z
			"/>
		<path d="M692,225.4v-1.1c1.4,0,2.5-1.1,2.5-2.5c0-1.5-1.1-2.7-2.5-2.7V218c2,0,3.7,1.7,3.7,3.8C695.6,223.7,694,225.4,692,225.4
			L692,225.4z M688.1,221.7c0,2,1.6,3.7,3.8,3.7v-1.1c-1.5,0-2.7-1.1-2.7-2.5c0-1.5,1.1-2.7,2.7-2.7V218
			C689.8,217.9,688.1,219.5,688.1,221.7z"/>
	</g>
	<rect x="687.6" y="217.5" class="st11" width="8.5" height="4.1"/>
	<rect x="691.6" y="218.4" width="1" height="4.2"/>
	<rect x="691.6" y="218.4" class="st12" width="1" height="4.2"/>
</g>
<polygon class="st8" points="731,213.4 535.4,213.4 535.4,213.4 535.4,180.5 731,180.5 "/>
<g>
	<text transform="matrix(1 0 0 1 540.4658 211.521)" class="st5 st9">Right front sensor ground</text>
</g>
<g>
	<text transform="matrix(1 0 0 1 611.7888 210.9585)" class="st5 st9">Right front sensor power supply</text>
</g>
<g>
	<text transform="matrix(1 0 0 1 680.5149 210.9585)" class="st5 st9">Right front sensor signal</text>
</g>
<line class="st19" x1="698.3" y1="704.4" x2="698.3" y2="491.9"/>
<line class="st25" x1="698.3" y1="704.4" x2="698.3" y2="491.9"/>
<polyline class="st19" points="750.9,704.4 750.9,620 564.3,620 548.8,606.6 "/>
<polyline class="st20" points="750.9,704.4 750.9,620 564.3,620 548.8,606.6 "/>
<g>
	<g>
		<line class="st10" x1="698.4" y1="705.3" x2="698.4" y2="713.6"/>
	</g>
	<g>
		<path class="st11" d="M698.3,702.3c1.7,0,3,1.4,3,3c0,1.8-1.4,3.2-3,3.2c-1.8,0-3.2-1.4-3.2-3.2
			C695.1,703.7,696.5,702.3,698.3,702.3z"/>
		<path d="M698.3,701.7c2,0,3.7,1.7,3.7,3.7c0,2.2-1.7,3.8-3.7,3.8V708c1.4,0,2.5-1.1,2.5-2.7c0-1.4-1.1-2.5-2.5-2.5V701.7
			L698.3,701.7z M698.3,709.1V708c-1.5,0-2.7-1.1-2.7-2.7c0-1.4,1.1-2.5,2.7-2.5v-1.1c-2.2,0-3.8,1.7-3.8,3.7
			C694.5,707.5,696.1,709.1,698.3,709.1z"/>
	</g>
	<rect x="694" y="705.5" class="st11" width="8.5" height="4.1"/>
	<rect x="697.9" y="704.4" width="1" height="4.2"/>
	<rect x="697.9" y="704.4" class="st12" width="1" height="4.2"/>
</g>
<g>
	<g>
		<line class="st10" x1="750.8" y1="705.3" x2="750.8" y2="713.6"/>
	</g>
	<g>
		<path class="st11" d="M750.8,702.3c1.7,0,3,1.4,3,3c0,1.8-1.4,3.2-3,3.2c-1.8,0-3.2-1.4-3.2-3.2
			C747.6,703.7,749,702.3,750.8,702.3z"/>
		<path d="M750.8,701.7c2,0,3.7,1.7,3.7,3.7c0,2.2-1.7,3.8-3.7,3.8V708c1.4,0,2.5-1.1,2.5-2.7c0-1.4-1.1-2.5-2.5-2.5V701.7
			L750.8,701.7z M750.8,709.1V708c-1.5,0-2.7-1.1-2.7-2.7c0-1.4,1.1-2.5,2.7-2.5v-1.1c-2.2,0-3.8,1.7-3.8,3.7
			C747,707.5,748.6,709.1,750.8,709.1z"/>
	</g>
	<rect x="746.4" y="705.5" class="st11" width="8.5" height="4.1"/>
	<rect x="750.4" y="704.4" width="1" height="4.2"/>
	<rect x="750.4" y="704.4" class="st12" width="1" height="4.2"/>
</g>
<g>
	<g>
		<line class="st10" x1="803.3" y1="705.3" x2="803.3" y2="713.6"/>
	</g>
	<g>
		<path class="st11" d="M803.2,702.3c1.7,0,3,1.4,3,3c0,1.8-1.4,3.2-3,3.2c-1.8,0-3.2-1.4-3.2-3.2
			C800.1,703.7,801.5,702.3,803.2,702.3z"/>
		<path d="M803.2,701.7c2,0,3.7,1.7,3.7,3.7c0,2.2-1.7,3.8-3.7,3.8V708c1.4,0,2.5-1.1,2.5-2.7c0-1.4-1.1-2.5-2.5-2.5V701.7
			L803.2,701.7z M803.2,709.1V708c-1.5,0-2.7-1.1-2.7-2.7c0-1.4,1.1-2.5,2.7-2.5v-1.1c-2.2,0-3.8,1.7-3.8,3.7
			C799.4,707.5,801.1,709.1,803.2,709.1z"/>
	</g>
	<rect x="798.9" y="705.5" class="st11" width="8.5" height="4.1"/>
	<rect x="802.9" y="704.4" width="1" height="4.2"/>
	<rect x="802.9" y="704.4" class="st12" width="1" height="4.2"/>
</g>
<polygon class="st8" points="826,713.6 681.4,713.6 681.4,713.7 681.4,746.6 826,746.6 "/>
<g>
	<g>
		<line class="st10" x1="803.3" y1="488.3" x2="803.3" y2="480"/>
	</g>
	<g>
		<path class="st11" d="M803.2,491.3c1.7,0,3-1.4,3-3c0-1.8-1.4-3.2-3-3.2c-1.8,0-3.2,1.4-3.2,3.2
			C800.1,489.9,801.5,491.3,803.2,491.3z"/>
		<path d="M803.2,491.9v-1.1c1.4,0,2.5-1.1,2.5-2.5c0-1.5-1.1-2.7-2.5-2.7v-1.1c2,0,3.7,1.7,3.7,3.8
			C806.9,490.3,805.3,491.9,803.2,491.9L803.2,491.9z M799.4,488.3c0,2,1.6,3.7,3.8,3.7v-1.1c-1.5,0-2.7-1.1-2.7-2.5
			c0-1.5,1.1-2.7,2.7-2.7v-1.1C801.1,484.4,799.4,486.1,799.4,488.3z"/>
	</g>
	<rect x="798.9" y="484.1" class="st11" width="8.5" height="4.1"/>
	<rect x="802.9" y="485" width="1" height="4.2"/>
	<rect x="802.9" y="485" class="st12" width="1" height="4.2"/>
</g>
<rect x="795.1" y="503.9" class="st11" width="14.3" height="6"/>
<text transform="matrix(1 0 0 1 791.3979 509.1895)" class="st5 st6">B/Y 0.22</text>
<rect x="793.1" y="583.9" class="st11" width="14.3" height="6"/>
<text transform="matrix(1 0 0 1 791.808 588.8254)" class="st5 st6">B/Y 0.22</text>
<rect x="741.1" y="676.9" class="st11" width="14.3" height="6"/>
<text transform="matrix(1 0 0 1 737.4442 682.0547)" class="st5 st6">B/Y 0.22</text>
<rect x="793.1" y="676.9" class="st11" width="14.3" height="6"/>
<text transform="matrix(1 0 0 1 791.3978 682.0547)" class="st5 st6">B/Y 0.22</text>
<g>
	<text transform="matrix(1 0 0 1 793.8725 478.1836)" class="st5 st9">Rear sensor ground</text>
</g>
<g>
	<text transform="matrix(1 0 0 1 686.308 719.1169)" class="st5 st9">Right rear sensor signal</text>
</g>
<g>
	<text transform="matrix(1 0 0 1 740.2247 718.5544)" class="st29"><tspan x="0" y="0" class="st5 st9">Right rear </tspan><tspan x="0" y="4.8" class="st5 st9">sensor power supply</tspan></text>
</g>
<g>
	<text transform="matrix(1 0 0 1 791.7247 718.5544)" class="st29"><tspan x="0" y="0" class="st5 st9">Right rear </tspan><tspan x="0" y="4.8" class="st5 st9">sensor ground</tspan></text>
</g>
<polyline class="st19" points="898.3,704.4 898.3,635.3 802.7,635.3 "/>
<polyline class="st20" points="898.3,704.4 898.3,635.3 802.7,635.3 "/>
<g>
	<g>
		<line class="st10" x1="898.4" y1="705.3" x2="898.4" y2="713.6"/>
	</g>
	<g>
		<path class="st11" d="M898.3,702.3c1.7,0,3,1.4,3,3c0,1.8-1.4,3.2-3,3.2c-1.8,0-3.2-1.4-3.2-3.2
			C895.1,703.7,896.5,702.3,898.3,702.3z"/>
		<path d="M898.3,701.7c2,0,3.7,1.7,3.7,3.7c0,2.2-1.7,3.8-3.7,3.8V708c1.4,0,2.5-1.1,2.5-2.7c0-1.4-1.1-2.5-2.5-2.5V701.7
			L898.3,701.7z M898.3,709.1V708c-1.5,0-2.7-1.1-2.7-2.7c0-1.4,1.1-2.5,2.7-2.5v-1.1c-2.2,0-3.8,1.7-3.8,3.7
			C894.5,707.5,896.1,709.1,898.3,709.1z"/>
	</g>
	<rect x="894" y="705.5" class="st11" width="8.5" height="4.1"/>
	<rect x="897.9" y="704.4" width="1" height="4.2"/>
	<rect x="897.9" y="704.4" class="st12" width="1" height="4.2"/>
</g>
<g>
	<g>
		<line class="st10" x1="950.8" y1="705.3" x2="950.8" y2="713.6"/>
	</g>
	<g>
		<path class="st11" d="M950.8,702.3c1.7,0,3,1.4,3,3c0,1.8-1.4,3.2-3,3.2c-1.8,0-3.2-1.4-3.2-3.2
			C947.6,703.7,949,702.3,950.8,702.3z"/>
		<path d="M950.8,701.7c2,0,3.7,1.7,3.7,3.7c0,2.2-1.7,3.8-3.7,3.8V708c1.4,0,2.5-1.1,2.5-2.7c0-1.4-1.1-2.5-2.5-2.5V701.7
			L950.8,701.7z M950.8,709.1V708c-1.5,0-2.7-1.1-2.7-2.7c0-1.4,1.1-2.5,2.7-2.5v-1.1c-2.2,0-3.8,1.7-3.8,3.7
			C947,707.5,948.6,709.1,950.8,709.1z"/>
	</g>
	<rect x="946.4" y="705.5" class="st11" width="8.5" height="4.1"/>
	<rect x="950.4" y="704.4" width="1" height="4.2"/>
	<rect x="950.4" y="704.4" class="st12" width="1" height="4.2"/>
</g>
<g>
	<g>
		<line class="st10" x1="1003.3" y1="705.3" x2="1003.3" y2="713.6"/>
	</g>
	<g>
		<path class="st11" d="M1003.2,702.3c1.7,0,3,1.4,3,3c0,1.8-1.4,3.2-3,3.2c-1.8,0-3.2-1.4-3.2-3.2
			C1000.1,703.7,1001.5,702.3,1003.2,702.3z"/>
		<path d="M1003.2,701.7c2,0,3.7,1.7,3.7,3.7c0,2.2-1.7,3.8-3.7,3.8V708c1.4,0,2.5-1.1,2.5-2.7c0-1.4-1.1-2.5-2.5-2.5V701.7
			L1003.2,701.7z M1003.2,709.1V708c-1.5,0-2.7-1.1-2.7-2.7c0-1.4,1.1-2.5,2.7-2.5v-1.1c-2.2,0-3.8,1.7-3.8,3.7
			C999.4,707.5,1001.1,709.1,1003.2,709.1z"/>
	</g>
	<rect x="998.9" y="705.5" class="st11" width="8.5" height="4.1"/>
	<rect x="1002.9" y="704.4" width="1" height="4.2"/>
	<rect x="1002.9" y="704.4" class="st12" width="1" height="4.2"/>
</g>
<polygon class="st8" points="1026,713.6 881.4,713.6 881.4,713.7 881.4,746.6 1026,746.6 "/>
<g>
	<text transform="matrix(1 0 0 1 888.8497 719.1169)" class="st29"><tspan x="0" y="0" class="st5 st9">Right rear center</tspan><tspan x="0" y="4.8" class="st5 st9"> sensor ground</tspan></text>
</g>
<g>
	<text transform="matrix(1 0 0 1 940.2247 718.5544)" class="st29"><tspan x="0" y="0" class="st5 st9">Right rear center </tspan><tspan x="0" y="4.8" class="st5 st9">sensor power supply</tspan></text>
</g>
<g>
	<text transform="matrix(1 0 0 1 990.9746 718.554)" class="st29"><tspan x="0" y="0" class="st5 st9">Right rear center</tspan><tspan x="0" y="4.8" class="st5 st9"> sensor signal</tspan></text>
</g>
<rect x="887.1" y="676.9" class="st11" width="14.3" height="6"/>
<text transform="matrix(1 0 0 1 885.3978 682.0547)" class="st5 st6">B/Y 0.22</text>
<rect x="942.1" y="676.9" class="st11" width="14.3" height="6"/>
<text transform="matrix(1 0 0 1 938.4443 682.0547)" class="st5 st6">B/Y 0.22</text>
<rect x="995.1" y="676.9" class="st11" width="14.3" height="6"/>
<text transform="matrix(1 0 0 1 991.4443 682.0547)" class="st5 st6">G 0.22</text>
<g>
	<g>
		<line class="st10" x1="1003.3" y1="488.3" x2="1003.3" y2="480"/>
	</g>
	<g>
		<path class="st11" d="M1003.2,491.3c1.7,0,3-1.4,3-3c0-1.8-1.4-3.2-3-3.2c-1.8,0-3.2,1.4-3.2,3.2
			C1000.1,489.9,1001.5,491.3,1003.2,491.3z"/>
		<path d="M1003.2,491.9v-1.1c1.4,0,2.5-1.1,2.5-2.5c0-1.5-1.1-2.7-2.5-2.7v-1.1c2,0,3.7,1.7,3.7,3.8
			C1006.9,490.3,1005.3,491.9,1003.2,491.9L1003.2,491.9z M999.4,488.3c0,2,1.6,3.7,3.8,3.7v-1.1c-1.5,0-2.7-1.1-2.7-2.5
			c0-1.5,1.1-2.7,2.7-2.7v-1.1C1001.1,484.4,999.4,486.1,999.4,488.3z"/>
	</g>
	<rect x="998.9" y="484.1" class="st11" width="8.5" height="4.1"/>
	<rect x="1002.9" y="485" width="1" height="4.2"/>
	<rect x="1002.9" y="485" class="st12" width="1" height="4.2"/>
</g>
<rect x="995.1" y="503.9" class="st11" width="14.3" height="6"/>
<text transform="matrix(1 0 0 1 991.3979 509.1895)" class="st5 st6">G 0.22</text>
<g>
	<text transform="matrix(1 0 0 1 979.9351 478.1836)" class="st5 st9">Right rear sensor signal</text>
</g>
<g>
	<g>
		<line class="st10" x1="698.4" y1="488.3" x2="698.4" y2="480"/>
	</g>
	<g>
		<path class="st11" d="M698.3,491.3c1.7,0,3-1.4,3-3c0-1.8-1.4-3.2-3-3.2c-1.8,0-3.2,1.4-3.2,3.2
			C695.1,489.9,696.5,491.3,698.3,491.3z"/>
		<path d="M698.3,491.9v-1.1c1.4,0,2.5-1.1,2.5-2.5c0-1.5-1.1-2.7-2.5-2.7v-1.1c2,0,3.7,1.7,3.7,3.8
			C702,490.3,700.3,491.9,698.3,491.9L698.3,491.9z M694.5,488.3c0,2,1.6,3.7,3.8,3.7v-1.1c-1.5,0-2.7-1.1-2.7-2.5
			c0-1.5,1.1-2.7,2.7-2.7v-1.1C696.1,484.4,694.5,486.1,694.5,488.3z"/>
	</g>
	<rect x="694" y="484.1" class="st11" width="8.5" height="4.1"/>
	<rect x="697.9" y="485" width="1" height="4.2"/>
	<rect x="697.9" y="485" class="st12" width="1" height="4.2"/>
</g>
<rect x="690.1" y="503.9" class="st11" width="14.3" height="6"/>
<text transform="matrix(1 0 0 1 684.4251 509.1895)" class="st5 st6">B/L 0.22</text>
<rect x="688.1" y="676.9" class="st11" width="14.3" height="6"/>
<text transform="matrix(1 0 0 1 684.425 682.0547)" class="st5 st6">B/L 0.22</text>
<g>
	<text transform="matrix(1 0 0 1 685.9486 478.1836)" class="st5 st9">Right rear center sensor signal</text>
</g>
<g>
	<rect x="693.9" y="545.2" class="st11" width="8.5" height="18.8"/>
	<g>
		<g>
			<line class="st30" x1="698.3" y1="555.3" x2="698.3" y2="563.6"/>
		</g>
		<g>
			<line class="st31" x1="698.1" y1="552.2" x2="698.1" y2="545.7"/>
		</g>
		<g>
			<g>
				<g>
					<path class="st11" d="M698.2,552.3c1.7,0,3.2,1.4,3.2,3.2s-1.5,3.2-3.2,3.2c-1.8,0-3.2-1.4-3.2-3.2S696.4,552.3,698.2,552.3z"
						/>
					<path d="M698.2,551.7c2,0,3.7,1.8,3.7,3.8h-1.1c0-1.4-1.1-2.5-2.5-2.5c-1.5,0-2.7,1.1-2.7,2.5h-1.1
						C694.4,553.4,696,551.7,698.2,551.7L698.2,551.7z M701.8,555.5h-1.1c0,1.4-1.1,2.5-2.5,2.5c-1.5,0-2.7-1.1-2.7-2.5h-1.1
						c0,2.2,1.6,3.8,3.8,3.8C700.2,559.3,701.8,557.6,701.8,555.5z"/>
				</g>
				<rect x="693.9" y="555.6" class="st11" width="8.5" height="4.1"/>
				<rect x="697.8" y="554.6" width="1" height="4.2"/>
				<rect x="697.8" y="554.6" class="st12" width="1" height="4.2"/>
			</g>
		</g>
	</g>
</g>
<g>
	<rect x="799.2" y="545.2" class="st11" width="8.5" height="18.8"/>
	<g>
		<g>
			<line class="st30" x1="803.6" y1="555.3" x2="803.6" y2="563.6"/>
		</g>
		<g>
			<line class="st31" x1="803.4" y1="552.2" x2="803.4" y2="545.7"/>
		</g>
		<g>
			<g>
				<g>
					<path class="st11" d="M803.5,552.3c1.7,0,3.2,1.4,3.2,3.2s-1.5,3.2-3.2,3.2c-1.8,0-3.2-1.4-3.2-3.2S801.7,552.3,803.5,552.3z"
						/>
					<path d="M803.5,551.7c2,0,3.7,1.8,3.7,3.8H806c0-1.4-1.1-2.5-2.5-2.5c-1.5,0-2.7,1.1-2.7,2.5h-1.1
						C799.7,553.4,801.3,551.7,803.5,551.7L803.5,551.7z M807.2,555.5H806c0,1.4-1.1,2.5-2.5,2.5c-1.5,0-2.7-1.1-2.7-2.5h-1.1
						c0,2.2,1.6,3.8,3.8,3.8C805.5,559.3,807.2,557.6,807.2,555.5z"/>
				</g>
				<rect x="799.2" y="555.6" class="st11" width="8.5" height="4.1"/>
				<rect x="803.1" y="554.6" width="1" height="4.2"/>
				<rect x="803.1" y="554.6" class="st12" width="1" height="4.2"/>
			</g>
		</g>
	</g>
</g>
<rect x="806.2" y="626.3" class="st32" width="21.6" height="5.6"/>
<text transform="matrix(1 0 0 1 807.0998 631.2706)" class="st5 st6">SP342</text>
<path class="st33" d="M806.2,635.7c0-1.7-1.3-2.9-2.8-2.9c-1.6,0-2.9,1.2-2.9,2.9c0,1.5,1.3,2.7,2.9,2.7
	C804.9,638.4,806.2,637.2,806.2,635.7z"/>
<rect x="809" y="519" class="st32" width="25.3" height="5.6"/>
<text transform="matrix(1 0 0 1 809.9051 524.0269)" class="st5 st6">SP4898</text>
<path class="st33" d="M806.2,521.9c0-1.7-1.3-2.9-2.8-2.9c-1.6,0-2.9,1.2-2.9,2.9c0,1.5,1.3,2.7,2.9,2.7
	C804.9,524.7,806.2,523.4,806.2,521.9z"/>
<g>
	<rect x="998.8" y="545.2" class="st11" width="8.5" height="18.8"/>
	<g>
		<g>
			<line class="st30" x1="1003.3" y1="555.3" x2="1003.3" y2="563.6"/>
		</g>
		<g>
			<line class="st31" x1="1003.1" y1="552.2" x2="1003.1" y2="545.7"/>
		</g>
		<g>
			<g>
				<g>
					<path class="st11" d="M1003.2,552.3c1.7,0,3.2,1.4,3.2,3.2s-1.5,3.2-3.2,3.2c-1.8,0-3.2-1.4-3.2-3.2S1001.4,552.3,1003.2,552.3
						z"/>
					<path d="M1003.2,551.7c2,0,3.7,1.8,3.7,3.8h-1.1c0-1.4-1.1-2.5-2.5-2.5c-1.5,0-2.7,1.1-2.7,2.5h-1.1
						C999.4,553.4,1001,551.7,1003.2,551.7L1003.2,551.7z M1006.8,555.5h-1.1c0,1.4-1.1,2.5-2.5,2.5c-1.5,0-2.7-1.1-2.7-2.5h-1.1
						c0,2.2,1.6,3.8,3.8,3.8C1005.2,559.3,1006.8,557.6,1006.8,555.5z"/>
				</g>
				<rect x="998.8" y="555.6" class="st11" width="8.5" height="4.1"/>
				<rect x="1002.8" y="554.6" width="1" height="4.2"/>
				<rect x="1002.8" y="554.6" class="st12" width="1" height="4.2"/>
			</g>
		</g>
	</g>
</g>
<line class="st19" x1="303.3" y1="704.4" x2="303.3" y2="491.9"/>
<line class="st27" x1="303.3" y1="704.4" x2="303.3" y2="491.9"/>
<g>
	<g>
		<line class="st10" x1="303.4" y1="705.3" x2="303.4" y2="713.6"/>
	</g>
	<g>
		<path class="st11" d="M303.3,702.3c1.7,0,3,1.4,3,3c0,1.8-1.4,3.2-3,3.2c-1.8,0-3.2-1.4-3.2-3.2
			C300.1,703.7,301.5,702.3,303.3,702.3z"/>
		<path d="M303.3,701.7c2,0,3.7,1.7,3.7,3.7c0,2.2-1.7,3.8-3.7,3.8V708c1.4,0,2.5-1.1,2.5-2.7c0-1.4-1.1-2.5-2.5-2.5V701.7
			L303.3,701.7z M303.3,709.1V708c-1.5,0-2.7-1.1-2.7-2.7c0-1.4,1.1-2.5,2.7-2.5v-1.1c-2.2,0-3.8,1.7-3.8,3.7
			C299.5,707.5,301.1,709.1,303.3,709.1z"/>
	</g>
	<rect x="299" y="705.5" class="st11" width="8.5" height="4.1"/>
	<rect x="302.9" y="704.4" width="1" height="4.2"/>
	<rect x="302.9" y="704.4" class="st12" width="1" height="4.2"/>
</g>
<g>
	<g>
		<line class="st10" x1="355.8" y1="705.3" x2="355.8" y2="713.6"/>
	</g>
	<g>
		<path class="st11" d="M355.8,702.3c1.7,0,3,1.4,3,3c0,1.8-1.4,3.2-3,3.2c-1.8,0-3.2-1.4-3.2-3.2
			C352.6,703.7,354,702.3,355.8,702.3z"/>
		<path d="M355.8,701.7c2,0,3.7,1.7,3.7,3.7c0,2.2-1.7,3.8-3.7,3.8V708c1.4,0,2.5-1.1,2.5-2.7c0-1.4-1.1-2.5-2.5-2.5V701.7
			L355.8,701.7z M355.8,709.1V708c-1.5,0-2.7-1.1-2.7-2.7c0-1.4,1.1-2.5,2.7-2.5v-1.1c-2.2,0-3.8,1.7-3.8,3.7
			C352,707.5,353.6,709.1,355.8,709.1z"/>
	</g>
	<rect x="351.4" y="705.5" class="st11" width="8.5" height="4.1"/>
	<rect x="355.4" y="704.4" width="1" height="4.2"/>
	<rect x="355.4" y="704.4" class="st12" width="1" height="4.2"/>
</g>
<g>
	<g>
		<line class="st10" x1="408.3" y1="705.3" x2="408.3" y2="713.6"/>
	</g>
	<g>
		<path class="st11" d="M408.2,702.3c1.7,0,3,1.4,3,3c0,1.8-1.4,3.2-3,3.2c-1.8,0-3.2-1.4-3.2-3.2
			C405.1,703.7,406.5,702.3,408.2,702.3z"/>
		<path d="M408.2,701.7c2,0,3.7,1.7,3.7,3.7c0,2.2-1.7,3.8-3.7,3.8V708c1.4,0,2.5-1.1,2.5-2.7c0-1.4-1.1-2.5-2.5-2.5V701.7
			L408.2,701.7z M408.2,709.1V708c-1.5,0-2.7-1.1-2.7-2.7c0-1.4,1.1-2.5,2.7-2.5v-1.1c-2.2,0-3.8,1.7-3.8,3.7
			C404.4,707.5,406.1,709.1,408.2,709.1z"/>
	</g>
	<rect x="403.9" y="705.5" class="st11" width="8.5" height="4.1"/>
	<rect x="407.9" y="704.4" width="1" height="4.2"/>
	<rect x="407.9" y="704.4" class="st12" width="1" height="4.2"/>
</g>
<polygon class="st8" points="431,713.6 286.4,713.6 286.4,713.7 286.4,746.6 431,746.6 "/>
<rect x="346.1" y="676.9" class="st11" width="14.3" height="6"/>
<text transform="matrix(1 0 0 1 342.4442 682.0547)" class="st5 st6">B/Y 0.22</text>
<rect x="398.1" y="676.9" class="st11" width="14.3" height="6"/>
<text transform="matrix(1 0 0 1 396.3978 682.0547)" class="st5 st6">B/Y 0.22</text>
<g>
	<text transform="matrix(1 0 0 1 291.308 719.1169)" class="st5 st9">Left rear sensor signal</text>
</g>
<g>
	<text transform="matrix(1 0 0 1 345.2247 718.5544)" class="st29"><tspan x="0" y="0" class="st5 st9">Left rear sensor</tspan><tspan x="0" y="4.8" class="st5 st9"> power supply</tspan></text>
</g>
<g>
	<text transform="matrix(1 0 0 1 383.6631 719.1166)" class="st5 st9">Left rear sensor ground</text>
</g>
<g>
	<g>
		<line class="st10" x1="303.4" y1="488.3" x2="303.4" y2="480"/>
	</g>
	<g>
		<path class="st11" d="M303.3,491.3c1.7,0,3-1.4,3-3c0-1.8-1.4-3.2-3-3.2c-1.8,0-3.2,1.4-3.2,3.2
			C300.1,489.9,301.5,491.3,303.3,491.3z"/>
		<path d="M303.3,491.9v-1.1c1.4,0,2.5-1.1,2.5-2.5c0-1.5-1.1-2.7-2.5-2.7v-1.1c2,0,3.7,1.7,3.7,3.8
			C307,490.3,305.3,491.9,303.3,491.9L303.3,491.9z M299.5,488.3c0,2,1.6,3.7,3.8,3.7v-1.1c-1.5,0-2.7-1.1-2.7-2.5
			c0-1.5,1.1-2.7,2.7-2.7v-1.1C301.1,484.4,299.5,486.1,299.5,488.3z"/>
	</g>
	<rect x="299" y="484.1" class="st11" width="8.5" height="4.1"/>
	<rect x="302.9" y="485" width="1" height="4.2"/>
	<rect x="302.9" y="485" class="st12" width="1" height="4.2"/>
</g>
<rect x="295.1" y="503.9" class="st11" width="14.3" height="6"/>
<text transform="matrix(1 0 0 1 287.4251 509.1895)" class="st5 st6">B/R 0.22</text>
<rect x="293.1" y="676.9" class="st11" width="14.3" height="6"/>
<text transform="matrix(1 0 0 1 287.425 682.0547)" class="st5 st6">B/R 0.22</text>
<g>
	<text transform="matrix(1 0 0 1 290.9486 478.1836)" class="st5 st9">Left rear sensor signal</text>
</g>
<g>
	<rect x="299.2" y="545.2" class="st11" width="8.5" height="18.8"/>
	<g>
		<g>
			<line class="st30" x1="303.6" y1="555.3" x2="303.6" y2="563.6"/>
		</g>
		<g>
			<line class="st31" x1="303.4" y1="552.2" x2="303.4" y2="545.7"/>
		</g>
		<g>
			<g>
				<g>
					<path class="st11" d="M303.5,552.3c1.7,0,3.2,1.4,3.2,3.2s-1.5,3.2-3.2,3.2c-1.8,0-3.2-1.4-3.2-3.2S301.7,552.3,303.5,552.3z"
						/>
					<path d="M303.5,551.7c2,0,3.7,1.8,3.7,3.8H306c0-1.4-1.1-2.5-2.5-2.5c-1.5,0-2.7,1.1-2.7,2.5h-1.1
						C299.7,553.4,301.3,551.7,303.5,551.7L303.5,551.7z M307.2,555.5H306c0,1.4-1.1,2.5-2.5,2.5c-1.5,0-2.7-1.1-2.7-2.5h-1.1
						c0,2.2,1.6,3.8,3.8,3.8C305.5,559.3,307.2,557.6,307.2,555.5z"/>
				</g>
				<rect x="299.2" y="555.6" class="st11" width="8.5" height="4.1"/>
				<rect x="303.1" y="554.6" width="1" height="4.2"/>
				<rect x="303.1" y="554.6" class="st12" width="1" height="4.2"/>
			</g>
		</g>
	</g>
</g>
<line class="st19" x1="496.3" y1="704.4" x2="496.3" y2="491.9"/>
<line class="st34" x1="496.3" y1="704.4" x2="496.3" y2="491.9"/>
<line class="st19" x1="548.5" y1="704.4" x2="548.5" y2="491.9"/>
<line class="st20" x1="548.5" y1="704.4" x2="548.5" y2="491.9"/>
<g>
	<g>
		<line class="st10" x1="496.4" y1="705.3" x2="496.4" y2="713.6"/>
	</g>
	<g>
		<path class="st11" d="M496.3,702.3c1.7,0,3,1.4,3,3c0,1.8-1.4,3.2-3,3.2c-1.8,0-3.2-1.4-3.2-3.2
			C493.1,703.7,494.5,702.3,496.3,702.3z"/>
		<path d="M496.3,701.7c2,0,3.7,1.7,3.7,3.7c0,2.2-1.7,3.8-3.7,3.8V708c1.4,0,2.5-1.1,2.5-2.7c0-1.4-1.1-2.5-2.5-2.5V701.7
			L496.3,701.7z M496.3,709.1V708c-1.5,0-2.7-1.1-2.7-2.7c0-1.4,1.1-2.5,2.7-2.5v-1.1c-2.2,0-3.8,1.7-3.8,3.7
			C492.5,707.5,494.1,709.1,496.3,709.1z"/>
	</g>
	<rect x="492" y="705.5" class="st11" width="8.5" height="4.1"/>
	<rect x="495.9" y="704.4" width="1" height="4.2"/>
	<rect x="495.9" y="704.4" class="st12" width="1" height="4.2"/>
</g>
<g>
	<g>
		<line class="st10" x1="548.8" y1="705.3" x2="548.8" y2="713.6"/>
	</g>
	<g>
		<path class="st11" d="M548.8,702.3c1.7,0,3,1.4,3,3c0,1.8-1.4,3.2-3,3.2c-1.8,0-3.2-1.4-3.2-3.2
			C545.6,703.7,547,702.3,548.8,702.3z"/>
		<path d="M548.8,701.7c2,0,3.7,1.7,3.7,3.7c0,2.2-1.7,3.8-3.7,3.8V708c1.4,0,2.5-1.1,2.5-2.7c0-1.4-1.1-2.5-2.5-2.5V701.7
			L548.8,701.7z M548.8,709.1V708c-1.5,0-2.7-1.1-2.7-2.7c0-1.4,1.1-2.5,2.7-2.5v-1.1c-2.2,0-3.8,1.7-3.8,3.7
			C545,707.5,546.6,709.1,548.8,709.1z"/>
	</g>
	<rect x="544.4" y="705.5" class="st11" width="8.5" height="4.1"/>
	<rect x="548.4" y="704.4" width="1" height="4.2"/>
	<rect x="548.4" y="704.4" class="st12" width="1" height="4.2"/>
</g>
<g>
	<g>
		<line class="st10" x1="601.3" y1="705.3" x2="601.3" y2="713.6"/>
	</g>
	<g>
		<path class="st11" d="M601.2,702.3c1.7,0,3,1.4,3,3c0,1.8-1.4,3.2-3,3.2c-1.8,0-3.2-1.4-3.2-3.2
			C598.1,703.7,599.5,702.3,601.2,702.3z"/>
		<path d="M601.2,701.7c2,0,3.7,1.7,3.7,3.7c0,2.2-1.7,3.8-3.7,3.8V708c1.4,0,2.5-1.1,2.5-2.7c0-1.4-1.1-2.5-2.5-2.5V701.7
			L601.2,701.7z M601.2,709.1V708c-1.5,0-2.7-1.1-2.7-2.7c0-1.4,1.1-2.5,2.7-2.5v-1.1c-2.2,0-3.8,1.7-3.8,3.7
			C597.4,707.5,599.1,709.1,601.2,709.1z"/>
	</g>
	<rect x="596.9" y="705.5" class="st11" width="8.5" height="4.1"/>
	<rect x="600.9" y="704.4" width="1" height="4.2"/>
	<rect x="600.9" y="704.4" class="st12" width="1" height="4.2"/>
</g>
<polygon class="st8" points="624,713.6 479.4,713.6 479.4,713.7 479.4,746.6 624,746.6 "/>
<g>
	<g>
		<line class="st10" x1="548.9" y1="488.3" x2="548.9" y2="480"/>
	</g>
	<g>
		<path class="st11" d="M548.8,491.3c1.7,0,3-1.4,3-3c0-1.8-1.4-3.2-3-3.2c-1.8,0-3.2,1.4-3.2,3.2
			C545.6,489.9,547,491.3,548.8,491.3z"/>
		<path d="M548.8,491.9v-1.1c1.4,0,2.5-1.1,2.5-2.5c0-1.5-1.1-2.7-2.5-2.7v-1.1c2,0,3.7,1.7,3.7,3.8
			C552.5,490.3,550.8,491.9,548.8,491.9L548.8,491.9z M545,488.3c0,2,1.6,3.7,3.8,3.7v-1.1c-1.5,0-2.7-1.1-2.7-2.5
			c0-1.5,1.1-2.7,2.7-2.7v-1.1C546.6,484.4,545,486.1,545,488.3z"/>
	</g>
	<rect x="544.5" y="484.1" class="st11" width="8.5" height="4.1"/>
	<rect x="548.4" y="485" width="1" height="4.2"/>
	<rect x="548.4" y="485" class="st12" width="1" height="4.2"/>
</g>
<rect x="541.1" y="503.9" class="st11" width="14.3" height="6"/>
<text transform="matrix(1 0 0 1 535.4443 509.1895)" class="st5 st6">B/Y 0.22</text>
<rect x="539.1" y="583.9" class="st11" width="14.3" height="6"/>
<text transform="matrix(1 0 0 1 535.8544 588.8254)" class="st5 st6">B/Y 0.22</text>
<rect x="539.1" y="676.9" class="st11" width="14.3" height="6"/>
<text transform="matrix(1 0 0 1 535.4442 682.0547)" class="st5 st6">B/Y 0.22</text>
<rect x="591.1" y="676.9" class="st11" width="14.3" height="6"/>
<text transform="matrix(1 0 0 1 589.3978 682.0547)" class="st5 st6">B/Y 0.22</text>
<g>
	<text transform="matrix(1 0 0 1 538.5718 478.1836)" class="st5 st9">Rear sensor power supply</text>
</g>
<g>
	<text transform="matrix(1 0 0 1 484.308 719.1169)" class="st29"><tspan x="0" y="0" class="st5 st9">Left rear center </tspan><tspan x="0" y="4.8" class="st5 st9">sensor signal</tspan></text>
</g>
<g>
	<text transform="matrix(1 0 0 1 538.2247 718.5544)" class="st29"><tspan x="0" y="0" class="st5 st9">Left rear center </tspan><tspan x="0" y="4.8" class="st5 st9">sensor power supply</tspan></text>
</g>
<g>
	<text transform="matrix(1 0 0 1 589.7247 718.5544)" class="st29"><tspan x="0" y="0" class="st5 st9">Left rear center </tspan><tspan x="0" y="4.8" class="st5 st9">sensor ground</tspan></text>
</g>
<g>
	<rect x="544" y="545.2" class="st11" width="8.5" height="18.8"/>
	<g>
		<g>
			<line class="st30" x1="548.4" y1="555.3" x2="548.4" y2="563.6"/>
		</g>
		<g>
			<line class="st31" x1="548.3" y1="552.2" x2="548.3" y2="545.7"/>
		</g>
		<g>
			<g>
				<g>
					<path class="st11" d="M548.3,552.3c1.7,0,3.2,1.4,3.2,3.2s-1.5,3.2-3.2,3.2c-1.8,0-3.2-1.4-3.2-3.2
						C545.2,553.7,546.6,552.3,548.3,552.3z"/>
					<path d="M548.3,551.7c2,0,3.7,1.8,3.7,3.8h-1.1c0-1.4-1.1-2.5-2.5-2.5c-1.5,0-2.7,1.1-2.7,2.5h-1.1
						C544.5,553.4,546.2,551.7,548.3,551.7L548.3,551.7z M552,555.5h-1.1c0,1.4-1.1,2.5-2.5,2.5c-1.5,0-2.7-1.1-2.7-2.5h-1.1
						c0,2.2,1.6,3.8,3.8,3.8C550.4,559.3,552,557.6,552,555.5z"/>
				</g>
				<rect x="544" y="555.6" class="st11" width="8.5" height="4.1"/>
				<rect x="547.9" y="554.6" width="1" height="4.2"/>
				<rect x="547.9" y="554.6" class="st12" width="1" height="4.2"/>
			</g>
		</g>
	</g>
</g>
<g>
	<g>
		<line class="st10" x1="496.4" y1="488.3" x2="496.4" y2="480"/>
	</g>
	<g>
		<path class="st11" d="M496.3,491.3c1.7,0,3-1.4,3-3c0-1.8-1.4-3.2-3-3.2c-1.8,0-3.2,1.4-3.2,3.2
			C493.1,489.9,494.5,491.3,496.3,491.3z"/>
		<path d="M496.3,491.9v-1.1c1.4,0,2.5-1.1,2.5-2.5c0-1.5-1.1-2.7-2.5-2.7v-1.1c2,0,3.7,1.7,3.7,3.8
			C500,490.3,498.3,491.9,496.3,491.9L496.3,491.9z M492.5,488.3c0,2,1.6,3.7,3.8,3.7v-1.1c-1.5,0-2.7-1.1-2.7-2.5
			c0-1.5,1.1-2.7,2.7-2.7v-1.1C494.1,484.4,492.5,486.1,492.5,488.3z"/>
	</g>
	<rect x="492" y="484.1" class="st11" width="8.5" height="4.1"/>
	<rect x="495.9" y="485" width="1" height="4.2"/>
	<rect x="495.9" y="485" class="st12" width="1" height="4.2"/>
</g>
<rect x="488.1" y="503.9" class="st11" width="14.3" height="6"/>
<text transform="matrix(1 0 0 1 480.4251 509.1895)" class="st5 st6">B/W 0.22</text>
<rect x="486.1" y="676.9" class="st11" width="14.3" height="6"/>
<text transform="matrix(1 0 0 1 483.425 682.0547)" class="st5 st6">B/W 0.22</text>
<g>
	<text transform="matrix(1 0 0 1 466.9486 478.1836)" class="st5 st9">Left rear center sensor signal</text>
</g>
<g>
	<rect x="492.2" y="545.2" class="st11" width="8.5" height="18.8"/>
	<g>
		<g>
			<line class="st30" x1="496.6" y1="555.3" x2="496.6" y2="563.6"/>
		</g>
		<g>
			<line class="st31" x1="496.4" y1="552.2" x2="496.4" y2="545.7"/>
		</g>
		<g>
			<g>
				<g>
					<path class="st11" d="M496.5,552.3c1.7,0,3.2,1.4,3.2,3.2s-1.5,3.2-3.2,3.2c-1.8,0-3.2-1.4-3.2-3.2S494.7,552.3,496.5,552.3z"
						/>
					<path d="M496.5,551.7c2,0,3.7,1.8,3.7,3.8H499c0-1.4-1.1-2.5-2.5-2.5c-1.5,0-2.7,1.1-2.7,2.5h-1.1
						C492.7,553.4,494.3,551.7,496.5,551.7L496.5,551.7z M500.2,555.5H499c0,1.4-1.1,2.5-2.5,2.5c-1.5,0-2.7-1.1-2.7-2.5h-1.1
						c0,2.2,1.6,3.8,3.8,3.8C498.5,559.3,500.2,557.6,500.2,555.5z"/>
				</g>
				<rect x="492.2" y="555.6" class="st11" width="8.5" height="4.1"/>
				<rect x="496.1" y="554.6" width="1" height="4.2"/>
				<rect x="496.1" y="554.6" class="st12" width="1" height="4.2"/>
			</g>
		</g>
	</g>
</g>
<rect x="551.6" y="598.2" class="st32" width="25.3" height="5.6"/>
<text transform="matrix(1 0 0 1 552.5165 603.1727)" class="st5 st6">SP4507</text>
<path class="st33" d="M551.6,606.7c0-1.7-1.3-2.9-2.8-2.9c-1.6,0-2.9,1.2-2.9,2.9c0,1.5,1.3,2.7,2.9,2.7
	C550.3,609.4,551.6,608.2,551.6,606.7z"/>
<g id="节点">
</g>
<g id="节点_2_1_">
</g>
<g id="下排列">
</g>
<line class="st35" x1="851" y1="200.3" x2="851" y2="439.7"/>
<line class="st36" x1="901.5" y1="201.3" x2="901.5" y2="440.8"/>
<g>
	<rect x="894.8" y="406.6" class="st11" width="13.9" height="6"/>
	<g>
		<text transform="matrix(1 0 0 1 893.0972 411.7208)" class="st5 st6">V 0.35</text>
	</g>
</g>
<g>
	<rect x="845.7" y="406.6" class="st11" width="13.9" height="6"/>
	<g>
		<text transform="matrix(1 0 0 1 841.9547 411.7208)" class="st5 st6">P 0.35</text>
	</g>
</g>
<path class="st37" d="M846.6,377.7c-1.8,0-3.2-1.5-3.2-3.5c0-1.9,1.4-3.5,3.2-3.5l59.9,6.9c1.8,0,3.2-1.5,3.2-3.5
	c0-1.9-1.4-3.5-3.2-3.5L846.6,377.7z"/>
<g>
	<text transform="matrix(1 0 0 1 894.7939 452.6113)" class="st5 st9">CAN_L</text>
</g>
<g>
	<text transform="matrix(1 0 0 1 841.9549 452.132)" class="st5 st9">CAN_H</text>
</g>
<g>
	<text transform="matrix(1 0 0 1 801.3 185.7002)" class="st5 st6">See Intelligent Access Network - Circuit Diagram</text>
</g>
<g>
	<g>
		<line class="st10" x1="851" y1="438.8" x2="851" y2="447"/>
	</g>
	<g>
		<path class="st11" d="M850.9,435.7c1.7,0,3,1.4,3,3c0,1.8-1.4,3.2-3,3.2c-1.8,0-3.2-1.4-3.2-3.2
			C847.7,437.1,849.1,435.7,850.9,435.7z"/>
		<path d="M850.9,435.1c2,0,3.7,1.7,3.7,3.7c0,2.2-1.7,3.8-3.7,3.8v-1.1c1.4,0,2.5-1.1,2.5-2.7c0-1.4-1.1-2.5-2.5-2.5V435.1
			L850.9,435.1z M850.9,442.6v-1.1c-1.5,0-2.7-1.1-2.7-2.7c0-1.4,1.1-2.5,2.7-2.5v-1.1c-2.2,0-3.8,1.7-3.8,3.7
			C847.1,440.9,848.7,442.6,850.9,442.6z"/>
	</g>
	<rect x="846.5" y="438.9" class="st11" width="8.5" height="4.1"/>
	<rect x="850.5" y="437.9" width="1" height="4.2"/>
	<rect x="850.5" y="437.9" class="st12" width="1" height="4.2"/>
</g>
<g>
	<g>
		<line class="st10" x1="901.4" y1="438.8" x2="901.4" y2="447"/>
	</g>
	<g>
		<path class="st11" d="M901.4,435.7c1.7,0,3,1.4,3,3c0,1.8-1.4,3.2-3,3.2c-1.8,0-3.2-1.4-3.2-3.2
			C898.2,437.1,899.6,435.7,901.4,435.7z"/>
		<path d="M901.4,435.1c2,0,3.7,1.7,3.7,3.7c0,2.2-1.7,3.8-3.7,3.8v-1.1c1.4,0,2.5-1.1,2.5-2.7c0-1.4-1.1-2.5-2.5-2.5V435.1
			L901.4,435.1z M901.4,442.6v-1.1c-1.5,0-2.7-1.1-2.7-2.7c0-1.4,1.1-2.5,2.7-2.5v-1.1c-2.2,0-3.8,1.7-3.8,3.7
			C897.5,440.9,899.2,442.6,901.4,442.6z"/>
	</g>
	<rect x="897" y="438.9" class="st11" width="8.5" height="4.1"/>
	<rect x="901" y="437.9" width="1" height="4.2"/>
	<rect x="901" y="437.9" class="st12" width="1" height="4.2"/>
</g>
<path class="st38" d="M907.8,197.8l-0.5-2.1c0,0-0.5-2.5-2.7-2.6h-28.3l0,0l-1.6-2.7l-1.6,2.7c-7.4,0-28.2,0-28.2,0
	c-2.2,0.1-2.7,2.6-2.7,2.6l-0.5,2.1"/>
<g>
	<rect x="373.8" y="365.4" class="st11" width="8.5" height="18.8"/>
	<g>
		<g>
			<line class="st30" x1="377.9" y1="374.2" x2="377.9" y2="365.9"/>
		</g>
		<g>
			<line class="st31" x1="378.1" y1="377.3" x2="378.1" y2="383.8"/>
		</g>
		<g>
			<g>
				<g>
					<path class="st11" d="M378,377.2c-1.7,0-3.2-1.4-3.2-3.2c0-1.8,1.5-3.2,3.2-3.2c1.8,0,3.2,1.4,3.2,3.2
						C381.2,375.8,379.8,377.2,378,377.2z"/>
					<path d="M378,377.8c-2,0-3.7-1.8-3.7-3.8h1.1c0,1.4,1.1,2.5,2.5,2.5c1.5,0,2.7-1.1,2.7-2.5h1.1
						C381.8,376.1,380.2,377.8,378,377.8L378,377.8z M374.3,374h1.1c0-1.4,1.1-2.5,2.5-2.5c1.5,0,2.7,1.1,2.7,2.5h1.1
						c0-2.2-1.6-3.8-3.8-3.8C376,370.2,374.3,371.9,374.3,374z"/>
				</g>
				<rect x="373.8" y="369.8" class="st11" width="8.5" height="4.1"/>
				<rect x="377.4" y="370.7" width="1" height="4.2"/>
				<rect x="377.4" y="370.7" class="st12" width="1" height="4.2"/>
			</g>
		</g>
	</g>
</g>
<g>
	<g>
		<line class="st10" x1="307.6" y1="438.8" x2="307.6" y2="447"/>
	</g>
	<g>
		<path class="st11" d="M307.5,435.7c1.7,0,3,1.4,3,3c0,1.8-1.4,3.2-3,3.2c-1.8,0-3.2-1.4-3.2-3.2
			C304.4,437.1,305.8,435.7,307.5,435.7z"/>
		<path d="M307.5,435.1c2,0,3.7,1.7,3.7,3.7c0,2.2-1.7,3.8-3.7,3.8v-1.1c1.4,0,2.5-1.1,2.5-2.7c0-1.4-1.1-2.5-2.5-2.5V435.1
			L307.5,435.1z M307.5,442.6v-1.1c-1.5,0-2.7-1.1-2.7-2.7c0-1.4,1.1-2.5,2.7-2.5v-1.1c-2.2,0-3.8,1.7-3.8,3.7
			S305.4,442.6,307.5,442.6z"/>
	</g>
	<rect x="303.2" y="438.9" class="st11" width="8.5" height="4.1"/>
	<rect x="307.2" y="437.9" width="1" height="4.2"/>
	<rect x="307.2" y="437.9" class="st12" width="1" height="4.2"/>
</g>
<rect x="300.3" y="407.1" class="st11" width="14.3" height="6"/>
<text transform="matrix(1 0 0 1 294.4987 412.04)" class="st5 st6">L/W 0.22</text>
<rect x="300.3" y="244.1" class="st11" width="14.3" height="6"/>
<text transform="matrix(1 0 0 1 294.4987 249.04)" class="st5 st6">L/W 0.22</text>
<g>
	<text transform="matrix(1 0 0 1 286.2131 451.9585)" class="st5 st9">Left front sensor signal</text>
</g>
<g>
	<rect x="303.4" y="365.4" class="st11" width="8.5" height="18.8"/>
	<g>
		<g>
			<line class="st30" x1="307.5" y1="374.2" x2="307.5" y2="365.9"/>
		</g>
		<g>
			<line class="st31" x1="307.7" y1="377.3" x2="307.7" y2="383.8"/>
		</g>
		<g>
			<g>
				<g>
					<path class="st11" d="M307.6,377.2c-1.7,0-3.2-1.4-3.2-3.2c0-1.8,1.5-3.2,3.2-3.2c1.8,0,3.2,1.4,3.2,3.2
						C310.8,375.8,309.4,377.2,307.6,377.2z"/>
					<path d="M307.6,377.8c-2,0-3.7-1.8-3.7-3.8h1.1c0,1.4,1.1,2.5,2.5,2.5c1.5,0,2.7-1.1,2.7-2.5h1.1
						C311.4,376.1,309.8,377.8,307.6,377.8L307.6,377.8z M303.9,374h1.1c0-1.4,1.1-2.5,2.5-2.5c1.5,0,2.7,1.1,2.7,2.5h1.1
						c0-2.2-1.6-3.8-3.8-3.8C305.6,370.2,303.9,371.9,303.9,374z"/>
				</g>
				<rect x="303.4" y="369.8" class="st11" width="8.5" height="4.1"/>
				<rect x="307" y="370.7" width="1" height="4.2"/>
				<rect x="307" y="370.7" class="st12" width="1" height="4.2"/>
			</g>
		</g>
	</g>
</g>
<g>
	<rect x="160.3" y="298.9" class="st11" width="8.5" height="18.8"/>
	<g>
		<g>
			<line class="st30" x1="164.4" y1="307.6" x2="164.4" y2="299.3"/>
		</g>
		<g>
			<line class="st31" x1="164.5" y1="310.8" x2="164.5" y2="317.2"/>
		</g>
		<g>
			<g>
				<g>
					<path class="st11" d="M164.5,310.6c-1.7,0-3.2-1.4-3.2-3.2c0-1.8,1.5-3.2,3.2-3.2c1.8,0,3.2,1.4,3.2,3.2
						C167.6,309.2,166.2,310.6,164.5,310.6z"/>
					<path d="M164.5,311.3c-2,0-3.7-1.8-3.7-3.8h1.1c0,1.4,1.1,2.5,2.5,2.5c1.5,0,2.7-1.1,2.7-2.5h1.1
						C168.3,309.5,166.6,311.3,164.5,311.3L164.5,311.3z M160.8,307.5h1.1c0-1.4,1.1-2.5,2.5-2.5c1.5,0,2.7,1.1,2.7,2.5h1.1
						c0-2.2-1.6-3.8-3.8-3.8C162.4,303.7,160.8,305.3,160.8,307.5z"/>
				</g>
				<rect x="160.3" y="303.3" class="st11" width="8.5" height="4.1"/>
				<rect x="163.8" y="304.2" width="1" height="4.2"/>
				<rect x="163.8" y="304.2" class="st12" width="1" height="4.2"/>
			</g>
		</g>
	</g>
</g>
<g>
	<rect x="443.1" y="365.4" class="st11" width="8.5" height="18.8"/>
	<g>
		<g>
			<line class="st30" x1="447.2" y1="374.2" x2="447.2" y2="365.9"/>
		</g>
		<g>
			<line class="st31" x1="447.3" y1="377.3" x2="447.3" y2="383.8"/>
		</g>
		<g>
			<g>
				<g>
					<path class="st11" d="M447.3,377.2c-1.7,0-3.2-1.4-3.2-3.2c0-1.8,1.5-3.2,3.2-3.2c1.8,0,3.2,1.4,3.2,3.2
						C450.4,375.8,449,377.2,447.3,377.2z"/>
					<path d="M447.3,377.8c-2,0-3.7-1.8-3.7-3.8h1.1c0,1.4,1.1,2.5,2.5,2.5c1.5,0,2.7-1.1,2.7-2.5h1.1
						C451.1,376.1,449.4,377.8,447.3,377.8L447.3,377.8z M443.6,374h1.1c0-1.4,1.1-2.5,2.5-2.5c1.5,0,2.7,1.1,2.7,2.5h1.1
						c0-2.2-1.6-3.8-3.8-3.8C445.2,370.2,443.6,371.9,443.6,374z"/>
				</g>
				<rect x="443.1" y="369.8" class="st11" width="8.5" height="4.1"/>
				<rect x="446.6" y="370.7" width="1" height="4.2"/>
				<rect x="446.6" y="370.7" class="st12" width="1" height="4.2"/>
			</g>
		</g>
	</g>
</g>
<rect x="381.1" y="283.6" class="st32" width="21.5" height="5.6"/>
<text transform="matrix(1 0 0 1 381.7985 288.4612)" class="st5 st6">SP300</text>
<path class="st33" d="M380.5,292.2c0,1.7-1.3,2.9-2.8,2.9c-1.6,0-2.9-1.2-2.9-2.9c0-1.5,1.3-2.7,2.9-2.7
	C379.2,289.5,380.5,290.7,380.5,292.2z"/>
<rect x="450.6" y="258" class="st32" width="20.3" height="5.6"/>
<text transform="matrix(1 0 0 1 451.337 262.8433)" class="st5 st6">SP301</text>
<path class="st33" d="M450.1,266.6c0,1.7-1.3,2.9-2.8,2.9c-1.6,0-2.9-1.2-2.9-2.9c0-1.5,1.3-2.7,2.9-2.7
	C448.8,263.8,450.1,265.1,450.1,266.6z"/>
<g>
	<rect x="688.3" y="365.4" class="st11" width="8.5" height="18.8"/>
	<g>
		<g>
			<line class="st30" x1="692.4" y1="374.2" x2="692.4" y2="365.9"/>
		</g>
		<g>
			<line class="st31" x1="692.5" y1="377.3" x2="692.5" y2="383.8"/>
		</g>
		<g>
			<g>
				<g>
					<path class="st11" d="M692.5,377.2c-1.7,0-3.2-1.4-3.2-3.2c0-1.8,1.5-3.2,3.2-3.2c1.8,0,3.2,1.4,3.2,3.2
						C695.6,375.8,694.2,377.2,692.5,377.2z"/>
					<path d="M692.5,377.8c-2,0-3.7-1.8-3.7-3.8h1.1c0,1.4,1.1,2.5,2.5,2.5c1.5,0,2.7-1.1,2.7-2.5h1.1
						C696.3,376.1,694.6,377.8,692.5,377.8L692.5,377.8z M688.8,374h1.1c0-1.4,1.1-2.5,2.5-2.5c1.5,0,2.7,1.1,2.7,2.5h1.1
						c0-2.2-1.6-3.8-3.8-3.8C690.4,370.2,688.8,371.9,688.8,374z"/>
				</g>
				<rect x="688.3" y="369.8" class="st11" width="8.5" height="4.1"/>
				<rect x="691.8" y="370.7" width="1" height="4.2"/>
				<rect x="691.8" y="370.7" class="st12" width="1" height="4.2"/>
			</g>
		</g>
	</g>
</g>
<rect x="168.8" y="259.3" class="st32" width="25" height="7.1"/>
<text transform="matrix(1 0 0 1 169.5384 264.946)" class="st5 st6">SP4915</text>
<path class="st33" d="M167.4,263.2c0,1.7-1.3,2.9-2.8,2.9c-1.6,0-2.9-1.2-2.9-2.9c0-1.5,1.3-2.7,2.9-2.7
	C166.2,260.5,167.4,261.7,167.4,263.2z"/>
<rect x="158.2" y="358.7" class="st11" width="12.7" height="6"/>
<rect x="158.3" y="358.7" class="st11" width="12.5" height="6"/>
<g>
	<text transform="matrix(1 0 0 1 151.5979 363.624)" class="st5 st6">R/Y 0.35</text>
</g>
<rect x="168.8" y="373.9" class="st32" width="25" height="7.1"/>
<text transform="matrix(1 0 0 1 169.5384 379.5309)" class="st5 st6">SP6005</text>
<path class="st33" d="M167.4,377.8c0,1.7-1.3,2.9-2.8,2.9c-1.6,0-2.9-1.2-2.9-2.9c0-1.5,1.3-2.7,2.9-2.7
	C166.2,375.1,167.4,376.3,167.4,377.8z"/>
<g>
	<text transform="matrix(1 0 0 1 92.892 163.9756)" class="st39 st5 st6">F4/03</text>
</g>
<g>
	<text transform="matrix(1 0 0 1 14.4502 161.4562)" class="st39 st5 st6">Positive fuse box</text>
</g>
<g>
	<text transform="matrix(1 0 0 1 541.7182 465.314)" class="st39 st5 st6">Left domain control module</text>
</g>
<g>
	<text transform="matrix(1 0 0 1 93.8544 488.7617)" class="st39 st5 st6">KG64(E)</text>
</g>
<g>
	<text transform="matrix(1 0 0 1 119.2856 488.7617)" class="st39 st5 st6">-8</text>
</g>
<g>
	<text transform="matrix(1 0 0 1 168.916 488.7617)" class="st39 st5 st6">KG64(E)</text>
</g>
<g>
	<text transform="matrix(1 0 0 1 194.3471 488.7617)" class="st39 st5 st6">-20</text>
</g>
<g>
	<text transform="matrix(1 0 0 1 156.8164 799.5429)" class="st39 st5 st6">Ek02</text>
</g>
<g>
	<text transform="matrix(1 0 0 1 80.8823 799.5429)" class="st39 st5 st6">Ek01</text>
</g>
<g>
	<text transform="matrix(1 0 0 1 238.041 487.7607)" class="st39 st5 st6">BG64(B)</text>
</g>
<g>
	<text transform="matrix(1 0 0 1 263.3325 487.7607)" class="st39 st5 st6">-43</text>
</g>
<g>
	<text transform="matrix(1 0 0 1 225.9414 799.5419)" class="st39 st5 st6">Eb01</text>
</g>
<g>
	<text transform="matrix(1 0 0 1 92.5117 203.2333)" class="st39 st5 st6">B46_3</text>
</g>
<g>
	<text transform="matrix(1 0 0 1 110.9282 203.2333)" class="st39 st5 st6">-1</text>
</g>
<g>
	<text transform="matrix(1 0 0 1 93.8544 444.1641)" class="st39 st5 st6">BG64(A)</text>
</g>
<g>
	<text transform="matrix(1 0 0 1 118.6044 444.1641)" class="st39 st5 st6">-4</text>
</g>
<g>
	<text transform="matrix(1 0 0 1 169.1498 163.9756)" class="st39 st5 st6">F1/12</text>
</g>
<g>
	<text transform="matrix(1 0 0 1 194.3981 164.9401)" class="st39 st5 st6">Front compartment fuse box</text>
</g>
<g>
	<text transform="matrix(1 0 0 1 168.7695 203.2333)" class="st39 st5 st6">B1D</text>
</g>
<g>
	<text transform="matrix(1 0 0 1 181.6445 203.2333)" class="st39 st5 st6">-9</text>
</g>
<g>
	<text transform="matrix(1 0 0 1 170.1123 444.1641)" class="st39 st5 st6">G64(G)</text>
</g>
<g>
	<text transform="matrix(1 0 0 1 191.6123 444.1641)" class="st39 st5 st6">-11</text>
</g>
<g>
	<text transform="matrix(1 0 0 1 314.5092 221.207)" class="st39 st5 st6">DB11(C)_1</text>
</g>
<g>
	<text transform="matrix(1 0 0 1 347.1342 221.207)" class="st39 st5 st6">-2</text>
</g>
<g>
	<text transform="matrix(1 0 0 1 384.353 221.207)" class="st39 st5 st6">DB11(C)_1</text>
</g>
<g>
	<text transform="matrix(1 0 0 1 416.978 221.207)" class="st39 st5 st6">-3</text>
</g>
<g>
	<text transform="matrix(1 0 0 1 452.6445 221.207)" class="st39 st5 st6">DB11(C)_1</text>
</g>
<g>
	<text transform="matrix(1 0 0 1 485.2695 221.207)" class="st39 st5 st6">-1</text>
</g>
<g>
	<text transform="matrix(1 0 0 1 384.4272 444.4882)" class="st39 st5 st6">BG64(B)</text>
</g>
<g>
	<text transform="matrix(1 0 0 1 409.5937 444.4882)" class="st39 st5 st6">-22</text>
</g>
<g>
	<text transform="matrix(1 0 0 1 452.6445 444.4882)" class="st39 st5 st6">BG64(B)</text>
</g>
<g>
	<text transform="matrix(1 0 0 1 477.811 444.4882)" class="st39 st5 st6">-8</text>
</g>
<g>
	<text transform="matrix(1 0 0 1 367.3915 198.7919)" class="st39 st5 st6">Left front radar sensor</text>
</g>
<g>
	<text transform="matrix(1 0 0 1 697.8642 444.4882)" class="st39 st5 st6">BG64(B)</text>
</g>
<g>
	<text transform="matrix(1 0 0 1 723.1039 444.4882)" class="st39 st5 st6">-23</text>
</g>
<g>
	<text transform="matrix(1 0 0 1 559.3188 221.207)" class="st39 st5 st6">DB11(D)_1</text>
</g>
<g>
	<text transform="matrix(1 0 0 1 592.1523 221.207)" class="st39 st5 st6">-1</text>
</g>
<g>
	<text transform="matrix(1 0 0 1 629.163 221.207)" class="st39 st5 st6">DB11(D)_1</text>
</g>
<g>
	<text transform="matrix(1 0 0 1 661.9965 221.207)" class="st39 st5 st6">-3</text>
</g>
<g>
	<text transform="matrix(1 0 0 1 697.4545 221.207)" class="st39 st5 st6">DB11(D)_1</text>
</g>
<g>
	<text transform="matrix(1 0 0 1 730.288 221.207)" class="st39 st5 st6">-2</text>
</g>
<g>
	<text transform="matrix(1 0 0 1 612.2011 198.7919)" class="st39 st5 st6">Right front radar sensor</text>
</g>
<g>
	<text transform="matrix(1 0 0 1 704.8696 711.4609)" class="st39 st5 st6">R03</text>
</g>
<g>
	<text transform="matrix(1 0 0 1 715.9946 711.4609)" class="st39 st5 st6">-2</text>
</g>
<g>
	<text transform="matrix(1 0 0 1 757.3071 711.4609)" class="st39 st5 st6">R03</text>
</g>
<g>
	<text transform="matrix(1 0 0 1 768.4321 711.4609)" class="st39 st5 st6">-3</text>
</g>
<g>
	<text transform="matrix(1 0 0 1 808.3725 711.4609)" class="st39 st5 st6">R03</text>
</g>
<g>
	<text transform="matrix(1 0 0 1 819.4975 711.4609)" class="st39 st5 st6">-1</text>
</g>
<g>
	<text transform="matrix(1 0 0 1 808.7475 487.7607)" class="st39 st5 st6">KG64(D)</text>
</g>
<g>
	<text transform="matrix(1 0 0 1 834.3124 487.7607)" class="st39 st5 st6">-32</text>
</g>
<g>
	<text transform="matrix(1 0 0 1 904.8696 711.4609)" class="st39 st5 st6">R04</text>
</g>
<g>
	<text transform="matrix(1 0 0 1 915.9321 711.4609)" class="st39 st5 st6">-1</text>
</g>
<g>
	<text transform="matrix(1 0 0 1 957.3071 711.4609)" class="st39 st5 st6">R04</text>
</g>
<g>
	<text transform="matrix(1 0 0 1 968.3696 711.4609)" class="st39 st5 st6">-3</text>
</g>
<g>
	<text transform="matrix(1 0 0 1 1008.3726 711.4609)" class="st39 st5 st6">R04</text>
</g>
<g>
	<text transform="matrix(1 0 0 1 1019.4351 711.4609)" class="st39 st5 st6">-2</text>
</g>
<g>
	<text transform="matrix(1 0 0 1 717.9725 735.7841)" class="st39 st5 st6">Right rear radar sensor</text>
</g>
<g>
	<text transform="matrix(1 0 0 1 1008.7476 487.7607)" class="st39 st5 st6">KG64(D)</text>
</g>
<g>
	<text transform="matrix(1 0 0 1 1034.4141 487.7607)" class="st39 st5 st6">-53</text>
</g>
<g>
	<text transform="matrix(1 0 0 1 705.1957 487.7607)" class="st39 st5 st6">KG64(D)</text>
</g>
<g>
	<text transform="matrix(1 0 0 1 731.6957 487.7607)" class="st39 st5 st6">-22</text>
</g>
<g>
	<text transform="matrix(1 0 0 1 703.9936 552.2997)" class="st39 st5 st6">KJR01</text>
</g>
<g>
	<text transform="matrix(1 0 0 1 703.9936 559.4999)" class="st39 st5 st6">RJK01</text>
</g>
<g>
	<text transform="matrix(1 0 0 1 723.2436 559.4999)" class="st39 st5 st6">-13</text>
</g>
<g>
	<text transform="matrix(1 0 0 1 808.9882 552.2997)" class="st39 st5 st6">KJR01</text>
</g>
<g>
	<text transform="matrix(1 0 0 1 808.9882 559.4999)" class="st39 st5 st6">RJK01</text>
</g>
<g>
	<text transform="matrix(1 0 0 1 828.2382 559.4999)" class="st39 st5 st6">-9</text>
</g>
<g>
	<text transform="matrix(1 0 0 1 1008.9877 552.2997)" class="st39 st5 st6">KJR01</text>
</g>
<g>
	<text transform="matrix(1 0 0 1 1008.9877 559.5005)" class="st39 st5 st6">RJK01</text>
</g>
<g>
	<text transform="matrix(1 0 0 1 1028.1543 559.5005)" class="st39 st5 st6">-14</text>
</g>
<g>
	<text transform="matrix(1 0 0 1 309.8696 711.4609)" class="st39 st5 st6">R01</text>
</g>
<g>
	<text transform="matrix(1 0 0 1 320.9946 711.4609)" class="st39 st5 st6">-2</text>
</g>
<g>
	<text transform="matrix(1 0 0 1 362.3071 711.4609)" class="st39 st5 st6">R01</text>
</g>
<g>
	<text transform="matrix(1 0 0 1 373.4321 711.4609)" class="st39 st5 st6">-3</text>
</g>
<g>
	<text transform="matrix(1 0 0 1 413.3725 711.4609)" class="st39 st5 st6">R01</text>
</g>
<g>
	<text transform="matrix(1 0 0 1 424.4975 711.4609)" class="st39 st5 st6">-1</text>
</g>
<g>
	<text transform="matrix(1 0 0 1 307.4 733.8329)" class="st39 st5 st6">Left rear reversing radar sensor</text>
</g>
<g>
	<text transform="matrix(1 0 0 1 310.1957 487.7607)" class="st39 st5 st6">KG64(D)</text>
</g>
<g>
	<text transform="matrix(1 0 0 1 335.3622 487.7607)" class="st39 st5 st6">-21</text>
</g>
<g>
	<text transform="matrix(1 0 0 1 308.9936 552.2997)" class="st39 st5 st6">KJR01</text>
</g>
<g>
	<text transform="matrix(1 0 0 1 308.9936 559.4999)" class="st39 st5 st6">RJK01</text>
</g>
<g>
	<text transform="matrix(1 0 0 1 328.2436 559.4999)" class="st39 st5 st6">-12</text>
</g>
<g>
	<text transform="matrix(1 0 0 1 502.8696 711.4609)" class="st39 st5 st6">R02</text>
</g>
<g>
	<text transform="matrix(1 0 0 1 514.1406 711.4609)" class="st39 st5 st6">-2</text>
</g>
<g>
	<text transform="matrix(1 0 0 1 555.3071 711.4609)" class="st39 st5 st6">R02</text>
</g>
<g>
	<text transform="matrix(1 0 0 1 566.5781 711.4609)" class="st39 st5 st6">-3</text>
</g>
<g>
	<text transform="matrix(1 0 0 1 606.3725 711.4609)" class="st39 st5 st6">R02</text>
</g>
<g>
	<text transform="matrix(1 0 0 1 617.6435 711.4609)" class="st39 st5 st6">-1</text>
</g>
<g>
	<text transform="matrix(1 0 0 1 555.7563 487.7607)" class="st39 st5 st6">KG64(D)</text>
</g>
<g>
	<text transform="matrix(1 0 0 1 581.2719 487.7607)" class="st39 st5 st6">-11</text>
</g>
<g>
	<text transform="matrix(1 0 0 1 514.1406 735.7841)" class="st39 st5 st6">Left rear center radar sensor</text>
</g>
<g>
	<text transform="matrix(1 0 0 1 554.9916 552.2997)" class="st39 st5 st6">KJR01</text>
</g>
<g>
	<text transform="matrix(1 0 0 1 554.9916 559.4999)" class="st39 st5 st6">RJK01</text>
</g>
<g>
	<text transform="matrix(1 0 0 1 574.2416 559.4999)" class="st39 st5 st6">-23</text>
</g>
<g>
	<text transform="matrix(1 0 0 1 503.1957 487.7607)" class="st39 st5 st6">KG64(D)</text>
</g>
<g>
	<text transform="matrix(1 0 0 1 528.7114 487.7607)" class="st39 st5 st6">-4</text>
</g>
<g>
	<text transform="matrix(1 0 0 1 501.9936 552.2997)" class="st39 st5 st6">KJR01</text>
</g>
<g>
	<text transform="matrix(1 0 0 1 501.9936 559.4999)" class="st39 st5 st6">RJK01</text>
</g>
<g>
	<text transform="matrix(1 0 0 1 521.2436 559.4999)" class="st39 st5 st6">-10</text>
</g>
<g>
	<text transform="matrix(1 0 0 1 913.4246 735.7841)" class="st39 st5 st6">Right rear center radar sensor</text>
</g>
<g>
	<text transform="matrix(1 0 0 1 856.2319 444.1641)" class="st39 st5 st6">G64(G)</text>
</g>
<g>
	<text transform="matrix(1 0 0 1 877.7319 444.1641)" class="st39 st5 st6">-52</text>
</g>
<g>
	<text transform="matrix(1 0 0 1 907.9003 444.1641)" class="st39 st5 st6">G64(G)</text>
</g>
<g>
	<text transform="matrix(1 0 0 1 929.4003 444.1641)" class="st39 st5 st6">-53</text>
</g>
<g>
	<text transform="matrix(1 0 0 1 383.663 373.9667)" class="st39 st5 st6">DJB01</text>
</g>
<g>
	<text transform="matrix(1 0 0 1 383.663 381.1669)" class="st39 st5 st6">BJD01</text>
</g>
<g>
	<text transform="matrix(1 0 0 1 402.288 381.1669)" class="st39 st5 st6">-14</text>
</g>
<g>
	<text transform="matrix(1 0 0 1 314.4599 444.4882)" class="st39 st5 st6">BG64(B)</text>
</g>
<g>
	<text transform="matrix(1 0 0 1 339.6264 444.4882)" class="st39 st5 st6">-9</text>
</g>
<g>
	<text transform="matrix(1 0 0 1 313.2582 373.9667)" class="st39 st5 st6">DJB01</text>
</g>
<g>
	<text transform="matrix(1 0 0 1 313.2582 381.1669)" class="st39 st5 st6">BJD01</text>
</g>
<g>
	<text transform="matrix(1 0 0 1 331.8832 381.1669)" class="st39 st5 st6">-12</text>
</g>
<g>
	<text transform="matrix(1 0 0 1 170.0976 307.3906)" class="st39 st5 st6">BJG01</text>
</g>
<g>
	<text transform="matrix(1 0 0 1 170.0976 314.5908)" class="st39 st5 st6">GJB01</text>
</g>
<g>
	<text transform="matrix(1 0 0 1 188.7226 314.5908)" class="st39 st5 st6">-15</text>
</g>
<g>
	<text transform="matrix(1 0 0 1 452.8852 373.9667)" class="st39 st5 st6">DJB01</text>
</g>
<g>
	<text transform="matrix(1 0 0 1 452.8852 381.1669)" class="st39 st5 st6">BJD01</text>
</g>
<g>
	<text transform="matrix(1 0 0 1 471.5102 381.1669)" class="st39 st5 st6">-11</text>
</g>
<g>
	<text transform="matrix(1 0 0 1 698.1044 373.9667)" class="st39 st5 st6">DJB01</text>
</g>
<g>
	<text transform="matrix(1 0 0 1 698.1044 381.1669)" class="st39 st5 st6">BJD01</text>
</g>
<g>
	<text transform="matrix(1 0 0 1 717.0209 381.1669)" class="st39 st5 st6">-13</text>
</g>
</svg>
