<?xml version="1.0" encoding="utf-8"?>
<!-- Generator: Adobe Illustrator 24.0.1, SVG Export Plug-In . SVG Version: 6.00 Build 0)  -->
<svg version="1.1" id="图层_1" xmlns="http://www.w3.org/2000/svg" xmlns:xlink="http://www.w3.org/1999/xlink" x="0px" y="0px"
	 viewBox="0 0 1174.3 841.9" style="enable-background:new 0 0 1174.3 841.9;" xml:space="preserve">
<style type="text/css">
	.st0{fill:none;stroke:#0D59A5;stroke-width:3;stroke-miterlimit:10;}
	.st1{fill:none;stroke:#E60012;stroke-miterlimit:10;}
	.st2{fill:none;stroke:#FFF100;stroke-width:3;stroke-miterlimit:10;}
	.st3{fill:none;stroke:#E60012;stroke-width:3;stroke-miterlimit:10;}
	.st4{fill:none;stroke:#FFFFFF;stroke-miterlimit:10;}
	.st5{fill:none;stroke:#FFF100;stroke-miterlimit:10;}
	.st6{fill:none;stroke:#009745;stroke-width:3;stroke-miterlimit:10;}
	.st7{fill:#E0E1E0;}
	.st8{fill:none;stroke:#000000;stroke-width:0.5;}
	.st9{fill:none;stroke:#000000;}
	.st10{fill:#060004;}
	.st11{font-family:'FZLTHJW--GB1-0';}
	.st12{font-size:6px;}
	.st13{fill:#AAD7F0;stroke:#000000;stroke-width:0.5;stroke-linecap:round;stroke-miterlimit:10;}
	.st14{fill:#E0E1E0;stroke:#000000;stroke-width:0.5;stroke-miterlimit:10;}
	.st15{fill:#FFFFFF;stroke:#000000;stroke-width:0.5;}
	.st16{fill:none;stroke:#009745;stroke-miterlimit:10;}
	.st17{fill:none;stroke:#000000;stroke-width:0.6;stroke-linecap:round;stroke-linejoin:round;}
	.st18{fill:#060004;stroke:#FFFFFF;stroke-width:0.5;stroke-linecap:round;}
	.st19{fill:none;stroke:#FFFFFF;}
	.st20{fill:none;stroke:#000000;stroke-width:0.75;}
	.st21{fill:none;stroke:#060004;stroke-width:0.6;stroke-linecap:round;stroke-linejoin:round;}
	.st22{fill:none;stroke:#89438F;stroke-width:3;stroke-miterlimit:10;}
	.st23{fill:none;stroke:#F29C97;stroke-width:3;stroke-miterlimit:10;}
	.st24{fill:#FFFFFF;stroke:#000000;stroke-width:0.5;stroke-miterlimit:10;}
	.st25{fill:none;stroke:#0D59A5;stroke-miterlimit:10;}
	.st26{fill:none;stroke:#000000;stroke-width:3;stroke-miterlimit:10;}
	.st27{fill:none;stroke:#ABD5BE;stroke-width:3;stroke-miterlimit:10;}
	.st28{fill:none;stroke:#000000;stroke-width:0.6;stroke-linejoin:round;}
	.st29{fill:none;stroke:#000000;stroke-width:3;stroke-linejoin:round;}
	.st30{fill:none;stroke:#000000;stroke-width:0.5;stroke-miterlimit:10;}
	.st31{fill:#FFFFFF;}
	.st32{fill:none;stroke:#000000;stroke-width:0.72;stroke-linecap:round;stroke-linejoin:round;}
	.st33{fill:none;stroke:#000000;stroke-width:0.6;stroke-linecap:round;}
	.st34{fill:none;stroke:#000000;stroke-width:0.5;stroke-linecap:round;stroke-linejoin:round;}
	.st35{fill:#060004;stroke:#FFFFFF;stroke-width:0.5;}
	.st36{fill:none;stroke:#000000;stroke-width:1.3;}
	.st37{fill:#FFFFFF;stroke:#000000;stroke-width:0.25;stroke-linecap:round;stroke-linejoin:round;}
	.st38{font-size:4px;}
	.st39{enable-background:new    ;}
	.st40{font-size:6.08px;}
	.st41{fill:#FFFFFF;stroke:#000000;stroke-width:0.25;}
	.st42{font-size:5.87px;}
	.st43{font-size:5.99px;}
	.st44{fill:none;stroke:#1C1312;stroke-width:0.5;stroke-miterlimit:10;}
	.st45{fill:#1C1312;}
	.st46{stroke:#1D1413;stroke-width:0.5;stroke-miterlimit:10;}
	.st47{fill:#FFFFFF;stroke:#1D1413;stroke-width:0.5;stroke-miterlimit:10;}
	.st48{fill:#FFFFFF;stroke:#1D1413;stroke-width:0.5;stroke-miterlimit:9.9998;}
	.st49{fill:none;stroke:#FFFFFF;stroke-width:2.5;stroke-miterlimit:10;}
	.st50{fill:#9AC2D8;stroke:#1D1413;stroke-width:0.5;stroke-linecap:round;stroke-miterlimit:10;}
	.st51{fill:#005EAD;}
	.st52{font-size:8px;}
</style>
<line class="st0" x1="854.9" y1="184.8" x2="854.9" y2="299.2"/>
<line class="st1" x1="854.9" y1="184.8" x2="854.9" y2="299.2"/>
<line class="st2" x1="802.8" y1="346.6" x2="802.8" y2="410.4"/>
<line class="st1" x1="802.8" y1="346.6" x2="802.8" y2="410.4"/>
<line class="st2" x1="802.8" y1="185.4" x2="802.8" y2="298.3"/>
<line class="st1" x1="802.8" y1="185.4" x2="802.8" y2="298.3"/>
<line class="st3" x1="706.7" y1="185.4" x2="706.7" y2="409.5"/>
<line class="st4" x1="706.7" y1="185.4" x2="706.7" y2="409.5"/>
<line class="st0" x1="1004.9" y1="347.7" x2="1004.9" y2="409.5"/>
<line class="st5" x1="1004.9" y1="347.7" x2="1004.9" y2="409.5"/>
<line class="st6" x1="952.5" y1="347.7" x2="952.5" y2="409.5"/>
<line class="st5" x1="952.5" y1="347.7" x2="952.5" y2="409.5"/>
<line class="st6" x1="952.5" y1="185.4" x2="952.5" y2="299.3"/>
<line class="st5" x1="952.5" y1="185.4" x2="952.5" y2="299.3"/>
<line class="st2" x1="142.8" y1="183.8" x2="142.8" y2="414.2"/>
<line class="st3" x1="142.8" y1="183.8" x2="142.8" y2="414.2"/>
<g id="_04-取电">
	<polyline class="st7" points="45.5,22.4 1137.1,22.4 1137.1,68.6 45.5,68.6 	"/>
	<line class="st8" x1="45.5" y1="28.1" x2="1137.1" y2="28.1"/>
	<line class="st9" x1="45.5" y1="22.1" x2="1137.1" y2="22.1"/>
	<line class="st8" x1="45.5" y1="39.4" x2="1137.1" y2="39.4"/>
	<line class="st8" x1="45.5" y1="51.1" x2="1137.1" y2="51.1"/>
	<line class="st8" x1="45.5" y1="62.8" x2="1137.1" y2="62.8"/>
	<line class="st9" x1="45.5" y1="68.6" x2="1137.1" y2="68.6"/>
	<text transform="matrix(1 0 0 1 1142.2195 30.1749)" class="st10 st11 st12">30</text>
	<text transform="matrix(1 0 0 1 1142.2195 41.3448)" class="st10 st11 st12">IG1</text>
	<text transform="matrix(1 0 0 1 1142.2195 52.9648)" class="st10 st11 st12">IG3</text>
	<text transform="matrix(1 0 0 1 1142.2195 64.4648)" class="st10 st11 st12">ACC</text>
	<text transform="matrix(1 0 0 1 33.5396 30.2549)" class="st10 st11 st12">30</text>
	<text transform="matrix(1 0 0 1 30.3696 41.4249)" class="st10 st11 st12">IG1</text>
	<text transform="matrix(1 0 0 1 30.3696 53.0449)" class="st10 st11 st12">IG3</text>
	<text transform="matrix(1 0 0 1 26.8796 64.5449)" class="st10 st11 st12">ACC</text>
</g>
<path class="st13" d="M613.2,174.7h-123v-25.9h123c0,0-5.6,7.6,0,13S613.2,174.7,613.2,174.7z"/>
<path class="st13" d="M892.3,336H786.1v-25.9h106.2c0,0-4.6,7,0,13C897.4,329.8,892.3,336,892.3,336z"/>
<path class="st13" d="M1037.2,336H934.9v-25.9h102.4c0,0-4.1,7.8,0,13C1042.2,329.4,1037.2,336,1037.2,336z"/>
<g id="REB_A3">
	<rect x="117.3" y="123.4" class="st14" width="329.9" height="51.3"/>
</g>
<rect x="264.8" y="421.2" class="st13" width="789.4" height="25.9"/>
<rect x="74.3" y="421.2" class="st13" width="137.8" height="25.9"/>
<rect x="556" y="569.7" class="st13" width="25.9" height="43.5"/>
<line class="st8" x1="568.9" y1="612.9" x2="568.9" y2="569.7"/>
<rect x="566.6" y="581.9" class="st15" width="4.6" height="18.9"/>
<polyline class="st3" points="143.3,300.3 299,300.3 299,412 "/>
<line class="st16" x1="142.8" y1="183.8" x2="142.8" y2="414.2"/>
<polyline class="st16" points="143.3,300.3 299,300.3 299,412 "/>
<polyline class="st17" points="418.8,138.5 418.8,134 418.8,28.1 "/>
<polyline class="st17" points="358.8,138.5 358.8,134 358.8,28.1 "/>
<path class="st18" d="M356,28.6c-0.1-1.6,1.1-2.9,2.7-3s2.9,1.1,3,2.7s-1.1,2.9-2.7,3h-0.2C357.3,31.4,356.1,30.2,356,28.6
	C356,28.7,356,28.7,356,28.6C356,28.7,356,28.7,356,28.6z"/>
<path class="st19" d="M356,28.6c-0.1-1.6,1.1-2.9,2.7-3s2.9,1.1,3,2.7s-1.1,2.9-2.7,3h-0.2C357.3,31.4,356.1,30.2,356,28.6
	C356,28.7,356,28.7,356,28.6C356,28.7,356,28.7,356,28.6"/>
<path class="st18" d="M416,28.6c-0.1-1.6,1.1-2.9,2.7-3s2.9,1.1,3,2.7s-1.1,2.9-2.7,3h-0.2C417.3,31.4,416.1,30.2,416,28.6
	C416,28.7,416,28.7,416,28.6C416,28.7,416,28.7,416,28.6z"/>
<path class="st19" d="M416,28.6c-0.1-1.6,1.1-2.9,2.7-3s2.9,1.1,3,2.7s-1.1,2.9-2.7,3h-0.2C417.3,31.4,416.1,30.2,416,28.6
	C416,28.7,416,28.7,416,28.6C416,28.7,416,28.7,416,28.6"/>
<polyline class="st17" points="142.9,138.5 142.9,134.4 142.9,39.6 "/>
<path class="st18" d="M140.1,39.5c-0.1-1.6,1.1-2.9,2.7-3c1.6-0.1,2.9,1.1,3,2.7c0.1,1.6-1.1,2.9-2.7,3h-0.2
	C141.4,42.3,140.2,41.1,140.1,39.5z"/>
<path class="st19" d="M140.1,39.5c-0.1-1.6,1.1-2.9,2.7-3c1.6-0.1,2.9,1.1,3,2.7c0.1,1.6-1.1,2.9-2.7,3h-0.2
	C141.4,42.3,140.1,41.1,140.1,39.5"/>
<g id="保险丝">
	<g id="RF22_A3">
		<path class="st20" d="M358.8,154.7c-1.2,0-2.2,1-2.2,2.2s1,2.2,2.2,2.2s2.2-1,2.2-2.2S360,154.7,358.8,154.7L358.8,154.7"/>
		<path class="st20" d="M358.8,138.9c-1.2,0-2.1,1-2.1,2.1c0,1.2,1,2.2,2.1,2.2l0,0c1.2,0,2.2-0.9,2.2-2.1l0,0V141
			C361,139.8,360,138.9,358.8,138.9"/>
		<path class="st20" d="M357.3,142.6c-0.1,2.5,0.2,3.2,1.3,4.3s2.4,1.7,2.8,3.7c0.4,1.6,0,3.3-1.1,4.5"/>
		<path class="st20" d="M360.2,155.2c0.2-1.3,0-2.6-0.6-3.7c-0.9-1.2-2.7-2.1-3.3-4c-0.6-1.7-0.2-3.7,1.1-5"/>
	</g>
</g>
<g id="RF22_A3-2">
	<path class="st20" d="M418.8,154.7c-1.2,0-2.2,1-2.2,2.2s1,2.2,2.2,2.2s2.2-1,2.2-2.2S420,154.7,418.8,154.7L418.8,154.7"/>
	<path class="st20" d="M418.8,138.9c-1.2,0-2.1,1-2.1,2.2s1,2.1,2.2,2.1s2.1-1,2.1-2.1V141C421,139.8,420,138.9,418.8,138.9"/>
	<path class="st20" d="M417.3,142.6c-0.1,2.5,0.2,3.2,1.3,4.3s2.4,1.7,2.8,3.7c0.4,1.6,0,3.3-1.1,4.5"/>
	<path class="st20" d="M420.2,155.2c0.2-1.3,0-2.6-0.6-3.7c-0.9-1.2-2.7-2.1-3.3-4c-0.6-1.7-0.2-3.7,1.1-5"/>
</g>
<polyline class="st17" points="418.8,159.2 418.8,162.1 418.8,174.4 "/>
<polyline class="st17" points="358.8,159.2 358.8,162.1 358.8,174.4 "/>
<g id="保险丝2">
	<g id="RF22_A3-3_2_">
		<path class="st20" d="M143.1,154.7c-1.2,0-2.2,1-2.2,2.2s1,2.2,2.2,2.2l0,0l0,0c1.2,0,2.2-1,2.2-2.2S144.3,154.7,143.1,154.7
			L143.1,154.7L143.1,154.7"/>
		<path class="st20" d="M143.1,138.9c-1.2,0-2.2,1-2.2,2.1c0,1.2,1,2.2,2.1,2.2l0,0c1.2,0,2.2-0.9,2.2-2.1l0,0c0,0,0,0,0-0.1
			C145.2,139.8,144.3,138.9,143.1,138.9"/>
		<path class="st20" d="M141.6,142.6c-0.1,2.5,0.2,3.2,1.3,4.3s2.4,1.7,2.8,3.7c0.4,1.6,0,3.3-1.1,4.5"/>
		<path class="st20" d="M144.5,155.2c0.2-1.3,0-2.6-0.6-3.7c-0.9-1.2-2.7-2.1-3.3-4c-0.6-1.7-0.2-3.7,1.1-5"/>
	</g>
	<polyline class="st21" points="143.1,159.2 143.1,162.1 143.1,174.4 	"/>
</g>
<line class="st3" x1="418.8" y1="185.9" x2="418.8" y2="409.7"/>
<line class="st3" x1="418.8" y1="185.9" x2="418.8" y2="409.7"/>
<line class="st3" x1="358.6" y1="185.9" x2="358.6" y2="409.7"/>
<line class="st3" x1="358.6" y1="185.9" x2="358.6" y2="409.7"/>
<line class="st22" x1="661.3" y1="458.4" x2="661.3" y2="725.1"/>
<line class="st23" x1="706.6" y1="457.9" x2="706.6" y2="724.1"/>
<polyline class="st23" points="142.8,457.9 142.8,640.6 358.6,640.6 358.6,457.4 "/>
<polyline class="st22" points="194.4,458.5 194.4,606.6 299,606.6 299,458.7 "/>
<g>
	<rect x="801.2" y="458.5" class="st24" width="3" height="251.9"/>
</g>
<line class="st25" x1="802.7" y1="458.5" x2="802.7" y2="710.4"/>
<g>
	<rect x="952.6" y="458.5" class="st24" width="3" height="251.6"/>
</g>
<line class="st26" x1="91.9" y1="458.4" x2="91.9" y2="765.8"/>
<line class="st26" x1="569" y1="624.9" x2="568.9" y2="765.9"/>
<line class="st2" x1="568.9" y1="457.9" x2="568.9" y2="559.1"/>
<line class="st4" x1="568.9" y1="457.9" x2="568.9" y2="559.1"/>
<line class="st27" x1="508.6" y1="185.8" x2="508.6" y2="409.8"/>
<line class="st28" x1="952.5" y1="310.3" x2="952.5" y2="336.2"/>
<line class="st28" x1="1004.9" y1="310.3" x2="1004.9" y2="336.2"/>
<line class="st28" x1="802.7" y1="309.2" x2="802.7" y2="336.2"/>
<line class="st28" x1="854.9" y1="309.2" x2="854.9" y2="336.2"/>
<polyline class="st29" points="418.7,458.4 418.7,747.6 442,747.6 464.9,764.4 465.6,764.7 465.6,457.9 "/>
<path class="st30" d="M139.3,522.3c-1.9,0.1-3.5-1.5-3.6-3.4l0,0v-0.1c0-2,1.6-3.5,3.6-3.5l59.4,6.9c1.9,0.1,3.5-1.5,3.6-3.4l0,0
	v-0.1c0-2-1.6-3.5-3.6-3.5L139.3,522.3z"/>
<path class="st30" d="M295.4,522.3c-1.9,0.1-3.5-1.5-3.6-3.4l0,0v-0.1c0-2,1.6-3.5,3.6-3.5l65.4,6.9c1.9,0.1,3.5-1.5,3.6-3.4l0,0
	v-0.1c0-2-1.6-3.5-3.6-3.5L295.4,522.3z"/>
<path class="st30" d="M658,522.3c-1.9,0-3.3-1.6-3.3-3.5l0,0l0,0c0-1.9,1.4-3.4,3.3-3.5l53.6,6.9c1.9,0,3.3-1.6,3.3-3.5l0,0l0,0
	c0-1.9-1.4-3.4-3.3-3.5L658,522.3z"/>
<line class="st17" x1="568.9" y1="561.4" x2="568.9" y2="569.7"/>
<path class="st31" d="M568.8,558.4c1.7,0,3,1.3,3,3s-1.3,3.1-3,3.2c-1.7,0-3.2-1.4-3.2-3.1l0,0c0,0,0,0,0-0.1
	C565.8,559.8,567.1,558.5,568.8,558.4z"/>
<path class="st10" d="M568.8,557.7c2,0,3.7,1.7,3.7,3.7c0.1,2-1.6,3.7-3.6,3.8l0,0h-0.1v-1.1c1.4,0,2.5-1.2,2.5-2.5l0,0
	c0,0,0-0.1,0-0.2c0-1.4-1.1-2.5-2.5-2.5l0,0l0,0L568.8,557.7z M568.8,565.2v-1.1c-1.5,0-2.7-1.1-2.7-2.6l0,0v-0.1
	c0-1.4,1.2-2.5,2.5-2.5l0,0h0.2v-1c-2,0-3.7,1.7-3.7,3.7S566.8,565.3,568.8,565.2L568.8,565.2z"/>
<rect x="564.5" y="561.6" class="st31" width="8.5" height="4.1"/>
<rect x="568.5" y="560.6" class="st10" width="1" height="4.2"/>
<rect x="568.5" y="560.6" class="st32" width="1" height="4.2"/>
<line class="st17" x1="568.9" y1="621.2" x2="568.9" y2="612.9"/>
<path class="st31" d="M569,624.2c-1.7,0-3-1.3-3-3s1.3-3.1,3-3.2c1.7,0,3.2,1.4,3.2,3.1l0,0c0,0,0,0,0,0.1
	C572.2,623,570.7,624.3,569,624.2z"/>
<path class="st10" d="M569,624.9c-2.1,0-3.8-1.7-3.8-3.8s1.7-3.8,3.8-3.8v1.1c-1.4,0-2.5,1.2-2.5,2.5l0,0c0,0,0,0.1,0,0.2
	c0,1.4,1.1,2.5,2.5,2.5l0,0l0,0V624.9z M569,617.4v1.1c1.5,0,2.7,1.1,2.7,2.6l0,0v0.1c0,1.4-1.2,2.5-2.5,2.5l0,0H569v1.1
	c2,0,3.7-1.7,3.7-3.7S571.1,617.4,569,617.4L569,617.4L569,617.4L569,617.4z"/>
<rect x="564.8" y="616.9" class="st31" width="8.5" height="4.1"/>
<rect x="568.4" y="617.9" class="st10" width="1" height="4.2"/>
<rect x="568.4" y="617.9" class="st32" width="1" height="4.2"/>
<g>
	<rect x="234.6" y="602.2" class="st31" width="18.8" height="8.5"/>
	<line class="st17" x1="244.7" y1="606.2" x2="252.9" y2="606.2"/>
	<line class="st33" x1="241.5" y1="606.3" x2="235" y2="606.3"/>
	<path class="st31" d="M241.6,606.2c0-1.8,1.4-3.2,3.2-3.2s3.2,1.4,3.2,3.2l0,0c0,1.8-1.4,3.2-3.2,3.2S241.6,608,241.6,606.2z"/>
	<path class="st10" d="M241,606.2c0.1-2,1.8-3.7,3.8-3.7v1.1c-1.4,0-2.5,1.1-2.5,2.5l0,0l0,0c-0.1,1.4,1,2.6,2.5,2.7l0,0l0,0v1.1
		c-2,0.1-3.7-1.5-3.8-3.5l0,0C241,606.3,241,606.3,241,606.2L241,606.2z M244.8,602.7v1.1c1.4,0,2.5,1.1,2.5,2.5l0,0l0,0
		c0.1,1.4-1,2.6-2.5,2.7l0,0l0,0v1c2,0.1,3.7-1.5,3.8-3.6l0,0c0-0.1,0-0.2,0-0.2c0-2-1.7-3.6-3.7-3.6l0,0L244.8,602.7L244.8,602.7z"
		/>
	<rect x="244.8" y="602.2" class="st31" width="4.2" height="8.5"/>
	<rect x="243.9" y="605.7" class="st10" width="4.2" height="1"/>
	<rect x="243.9" y="605.7" class="st32" width="4.2" height="1"/>
</g>
<g>
	<rect x="234.6" y="636.4" class="st31" width="18.8" height="8.5"/>
	<line class="st17" x1="244.7" y1="640.4" x2="252.9" y2="640.4"/>
	<line class="st33" x1="241.5" y1="640.5" x2="235" y2="640.5"/>
	<path class="st31" d="M241.6,640.4c0-1.8,1.4-3.2,3.2-3.2s3.2,1.4,3.2,3.2l0,0c0,1.8-1.4,3.2-3.2,3.2S241.6,642.2,241.6,640.4z"/>
	<path class="st10" d="M241,640.4c0.1-2,1.8-3.7,3.8-3.7v1.1c-1.4,0-2.5,1.1-2.5,2.5l0,0l0,0c-0.1,1.4,1,2.6,2.5,2.7l0,0l0,0v1.1
		c-2,0.1-3.7-1.5-3.8-3.5l0,0C241,640.5,241,640.5,241,640.4L241,640.4z M244.8,636.9v1.1c1.4,0,2.5,1.1,2.5,2.5l0,0l0,0
		c0.1,1.4-1,2.6-2.5,2.7l0,0l0,0v1c2,0.1,3.7-1.5,3.8-3.6l0,0c0-0.1,0-0.2,0-0.2c0-2-1.7-3.6-3.7-3.6l0,0L244.8,636.9L244.8,636.9z"
		/>
	<rect x="244.8" y="636.4" class="st31" width="4.2" height="8.5"/>
	<rect x="243.9" y="639.9" class="st10" width="4.2" height="1"/>
	<rect x="243.9" y="639.9" class="st32" width="4.2" height="1"/>
</g>
<rect x="138.7" y="346" class="st31" width="8.5" height="18.8"/>
<line class="st17" x1="142.8" y1="354.8" x2="142.8" y2="346.5"/>
<line class="st33" x1="142.9" y1="357.9" x2="142.9" y2="364.4"/>
<path class="st31" d="M142.9,357.9c-1.8,0-3.2-1.4-3.2-3.2c0-1.8,1.4-3.2,3.2-3.2c1.7,0,3.2,1.4,3.2,3.1l0,0c0,0,0,0,0,0.1
	C146.1,356.4,144.6,357.8,142.9,357.9z"/>
<path class="st10" d="M142.9,358.4c-2-0.1-3.7-1.8-3.7-3.8h1.1c0,1.4,1.1,2.5,2.5,2.5l0,0l0,0c1.4,0.1,2.6-1,2.7-2.5l0,0l0,0h1.1
	C146.6,356.7,145,358.4,142.9,358.4C142.9,358.5,142.9,358.5,142.9,358.4L142.9,358.4L142.9,358.4z M139.2,354.7h1.1
	c0-1.4,1.1-2.5,2.5-2.5l0,0l0,0c1.4-0.1,2.6,1,2.7,2.5l0,0l0,0h1.1c0.1-2-1.5-3.7-3.6-3.8l0,0h-0.2
	C140.8,350.9,139.2,352.6,139.2,354.7L139.2,354.7C139.2,354.5,139.2,354.6,139.2,354.7L139.2,354.7z"/>
<rect x="138.7" y="350.4" class="st31" width="8.5" height="4.1"/>
<rect x="142.2" y="351.4" class="st10" width="1" height="4.2"/>
<rect x="142.2" y="351.4" class="st32" width="1" height="4.2"/>
<path class="st34" d="M657.4,727.4l0.6,2.1c0.4,1.5,1.7,2.5,3.2,2.6h21.3l1.9,2.7l1.9-2.7h21.2c1.5-0.1,2.8-1.1,3.2-2.6l0.6-2.1"/>
<g id="交点">
	<path class="st35" d="M94.8,602.9c0.1,1.6-1.1,2.9-2.7,3s-2.9-1.1-3-2.7c-0.1-1.6,1.1-2.9,2.7-3H92
		C93.5,600.1,94.8,601.3,94.8,602.9C94.8,602.8,94.8,602.8,94.8,602.9C94.8,602.8,94.8,602.8,94.8,602.9z"/>
</g>
<g>
	<rect x="504.6" y="312.7" class="st31" width="8.5" height="18.8"/>
	<line class="st17" x1="509" y1="322.8" x2="509" y2="331"/>
	<line class="st33" x1="508.9" y1="319.7" x2="508.9" y2="313.2"/>
	<path class="st31" d="M508.9,319.8c1.8,0,3.2,1.4,3.2,3.2c0,1.8-1.4,3.2-3.2,3.2l0,0c-1.7,0-3.2-1.4-3.2-3.1l0,0c0,0,0,0,0-0.1
		C505.7,321.2,507.1,319.8,508.9,319.8z"/>
	<path class="st10" d="M508.9,319.2c2,0.1,3.7,1.8,3.7,3.8h-1.1c0-1.4-1.1-2.5-2.5-2.5l0,0l0,0c-1.4-0.1-2.6,1-2.7,2.5l0,0l0,0h-1.1
		C505.2,320.9,506.8,319.2,508.9,319.2C508.8,319.1,508.8,319.1,508.9,319.2L508.9,319.2z M512.6,322.9h-1.1c0,1.4-1.1,2.5-2.5,2.5
		l0,0l0,0c-1.4,0.1-2.6-1-2.7-2.5l0,0l0,0h-1.1c-0.1,2,1.5,3.7,3.6,3.8l0,0h0.2C511,326.7,512.6,325,512.6,322.9L512.6,322.9
		C512.6,323.1,512.6,323,512.6,322.9L512.6,322.9z"/>
	<rect x="504.6" y="323.1" class="st31" width="8.5" height="4.1"/>
	<rect x="508.6" y="322.1" class="st10" width="1" height="4.2"/>
	<rect x="508.6" y="322.1" class="st32" width="1" height="4.2"/>
</g>
<line class="st36" x1="568.9" y1="763.2" x2="568.9" y2="765.9"/>
<line class="st36" x1="561.9" y1="765.9" x2="575.7" y2="765.9"/>
<line class="st36" x1="564.7" y1="768.1" x2="572.9" y2="768.1"/>
<line class="st36" x1="571.3" y1="770.2" x2="566.4" y2="770.2"/>
<line class="st36" x1="91.9" y1="763.4" x2="91.9" y2="766.1"/>
<line class="st36" x1="84.8" y1="766.1" x2="98.6" y2="766.1"/>
<line class="st36" x1="87.6" y1="768.4" x2="95.8" y2="768.4"/>
<line class="st36" x1="94.2" y1="770.4" x2="89.4" y2="770.4"/>
<line class="st36" x1="466" y1="763.2" x2="466" y2="765.9"/>
<line class="st36" x1="458.9" y1="765.9" x2="472.7" y2="765.9"/>
<line class="st36" x1="461.7" y1="768.1" x2="469.9" y2="768.1"/>
<line class="st36" x1="468.3" y1="770.2" x2="463.5" y2="770.2"/>
<g id="交点-9">
	<path class="st35" d="M145.8,300.2c0.1,1.6-1.1,2.9-2.7,3c-1.6,0.1-2.9-1.1-3-2.7s1.1-2.9,2.7-3h0.2
		C144.5,297.4,145.8,298.6,145.8,300.2C145.8,300.1,145.8,300.1,145.8,300.2C145.8,300.1,145.8,300.1,145.8,300.2z"/>
</g>
<g id="_02-上针脚">
	<line class="st28" x1="91.9" y1="455.3" x2="91.9" y2="447"/>
	<path class="st31" d="M91.8,458.4c-1.7,0-3-1.3-3-3l0,0c0-1.7,1.3-3.1,3-3.2c1.7,0,3.2,1.4,3.2,3.1l0,0c0,0,0,0,0,0.1
		C95,457.1,93.5,458.4,91.8,458.4"/>
	<path d="M91.8,458.9c-2.1,0-3.8-1.7-3.8-3.8s1.7-3.8,3.8-3.8v1.2c-1.4,0-2.6,1.2-2.6,2.6s1.2,2.6,2.6,2.6V458.9z M91.8,451.4v1.2
		c1.5,0,2.7,1.1,2.7,2.6l0,0v0.1c0,1.4-1.2,2.5-2.7,2.5l0,0l0,0v1.1c2.1,0,3.8-1.7,3.8-3.8S93.9,451.4,91.8,451.4"/>
	<rect x="87.8" y="451" class="st31" width="8.1" height="4.1"/>
	<rect x="91.4" y="451.9" width="1" height="4.2"/>
	<rect x="91.4" y="451.9" class="st32" width="1" height="4.2"/>
</g>
<g id="_02-上针脚-2">
	<line class="st28" x1="142.8" y1="455.3" x2="142.8" y2="447"/>
	<path class="st31" d="M142.7,458.4c-1.7,0-3-1.3-3-3l0,0c0-1.7,1.3-3.1,3-3.2c1.7,0,3.2,1.4,3.2,3.1l0,0c0,0,0,0,0,0.1
		C145.9,457.1,144.4,458.4,142.7,458.4"/>
	<path d="M142.8,458.9c-2.1,0-3.8-1.7-3.8-3.8s1.7-3.8,3.8-3.8v1.2c-1.4,0-2.6,1.2-2.6,2.6s1.2,2.6,2.6,2.6l0,0V458.9z M142.8,451.4
		v1.2c1.5,0,2.7,1.1,2.7,2.6l0,0v0.1c0,1.4-1.2,2.5-2.7,2.5l0,0l0,0v1.1c2,0.1,3.7-1.5,3.8-3.5l0,0c0-0.1,0-0.1,0-0.2
		C146.6,453.1,144.9,451.4,142.8,451.4"/>
	<rect x="138.7" y="451" class="st31" width="8.1" height="4.1"/>
	<rect x="142.3" y="451.9" width="1" height="4.2"/>
	<rect x="142.3" y="451.9" class="st32" width="1" height="4.2"/>
</g>
<g id="_02-上针脚-3">
	<line class="st28" x1="194.4" y1="455.3" x2="194.4" y2="447"/>
	<path class="st31" d="M194.3,458.4c-1.7,0-3-1.3-3-3l0,0c0-1.7,1.3-3.1,3-3.2c1.7,0,3.2,1.4,3.2,3.1l0,0c0,0,0,0,0,0.1
		C197.5,457.1,196,458.4,194.3,458.4"/>
	<path d="M194.3,458.9c-2.1,0-3.8-1.7-3.8-3.8s1.7-3.8,3.8-3.8v1.2c-1.4,0-2.6,1.2-2.6,2.6s1.2,2.6,2.6,2.6V458.9z M194.3,451.4v1.2
		c1.5,0,2.7,1.1,2.7,2.6l0,0v0.1c0,1.4-1.2,2.5-2.7,2.5l0,0l0,0v1.1c2,0.1,3.7-1.5,3.8-3.5l0,0c0-0.1,0-0.1,0-0.2
		c0-2.1-1.6-3.8-3.7-3.8l0,0L194.3,451.4"/>
	<rect x="190.3" y="451" class="st31" width="8.1" height="4.1"/>
	<rect x="193.9" y="451.9" width="1" height="4.2"/>
	<rect x="193.9" y="451.9" class="st32" width="1" height="4.2"/>
</g>
<g id="_02-上针脚-4">
	<line class="st28" x1="298.9" y1="455.3" x2="298.9" y2="447"/>
	<path class="st31" d="M298.8,458.4c-1.7,0-3-1.3-3-3l0,0c0-1.7,1.3-3.1,3-3.2c1.7,0,3.2,1.4,3.2,3.1l0,0c0,0,0,0,0,0.1
		C302,457.1,300.5,458.4,298.8,458.4"/>
	<path d="M298.9,458.9c-2.1,0-3.8-1.7-3.8-3.8s1.7-3.8,3.8-3.8v1.2c-1.4,0-2.6,1.2-2.6,2.6s1.2,2.6,2.6,2.6l0,0V458.9z M298.9,451.4
		v1.2c1.5,0,2.7,1.1,2.7,2.6l0,0v0.1c0,1.4-1.1,2.6-2.6,2.6h-0.1l0,0v1.1c2,0.1,3.7-1.5,3.8-3.5l0,0c0-0.1,0-0.1,0-0.2
		c0-2.1-1.7-3.8-3.8-3.8"/>
	<rect x="294.8" y="451" class="st31" width="8.1" height="4.1"/>
	<rect x="298.4" y="451.9" width="1" height="4.2"/>
	<rect x="298.4" y="451.9" class="st32" width="1" height="4.2"/>
</g>
<g id="_02-上针脚-5">
	<line class="st28" x1="358.6" y1="455.3" x2="358.6" y2="447"/>
	<path class="st31" d="M358.5,458.4c-1.7,0-3-1.3-3-3l0,0c0-1.7,1.3-3.1,3-3.2c1.7,0,3.2,1.4,3.2,3.1l0,0c0,0,0,0,0,0.1
		C361.7,457.1,360.2,458.4,358.5,458.4"/>
	<path d="M358.6,458.9c-2.1,0-3.8-1.7-3.8-3.8s1.7-3.8,3.8-3.8v1.2c-1.4,0-2.6,1.2-2.6,2.6s1.2,2.6,2.6,2.6V458.9z M358.6,451.4v1.2
		c1.5,0,2.7,1.1,2.7,2.6l0,0v0.1c0,1.4-1.2,2.5-2.7,2.5l0,0l0,0v1.1c2,0.1,3.7-1.5,3.8-3.5l0,0c0-0.1,0-0.1,0-0.2
		C362.4,453.1,360.8,451.4,358.6,451.4L358.6,451.4L358.6,451.4"/>
	<rect x="354.5" y="451" class="st31" width="8.1" height="4.1"/>
	<rect x="358.1" y="451.9" width="1" height="4.2"/>
	<rect x="358.1" y="451.9" class="st32" width="1" height="4.2"/>
</g>
<g id="_02-上针脚-6">
	<line class="st28" x1="418.8" y1="455.3" x2="418.8" y2="447"/>
	<path class="st31" d="M418.7,458.4c-1.7,0-3-1.3-3-3l0,0c0-1.7,1.3-3.1,3-3.2c1.7,0,3.2,1.4,3.2,3.1l0,0c0,0,0,0,0,0.1
		C421.9,457.1,420.4,458.4,418.7,458.4"/>
	<path d="M418.8,458.9c-2.1,0-3.8-1.7-3.8-3.8s1.7-3.8,3.8-3.8v1.2c-1.4,0-2.6,1.2-2.6,2.6s1.2,2.6,2.6,2.6l0,0l0,0V458.9z
		 M418.8,451.4v1.2c1.5,0,2.7,1.1,2.7,2.6l0,0v0.1c0,1.4-1.2,2.5-2.7,2.5l0,0l0,0v1.1c2,0.1,3.7-1.5,3.8-3.5l0,0c0-0.1,0-0.1,0-0.2
		C422.6,453.1,420.9,451.4,418.8,451.4"/>
	<rect x="414.7" y="451" class="st31" width="8.1" height="4.1"/>
	<rect x="418.3" y="451.9" width="1" height="4.2"/>
	<rect x="418.3" y="451.9" class="st32" width="1" height="4.2"/>
</g>
<g id="_02-上针脚-7">
	<line class="st28" x1="142.9" y1="182.9" x2="142.9" y2="174.7"/>
	<path class="st31" d="M142.8,186c-1.7,0-3-1.3-3-3l0,0c0-1.7,1.3-3.1,3-3.2c1.7,0,3.2,1.4,3.2,3.1l0,0v0.1
		C146,184.7,144.6,186.1,142.8,186C142.9,186,142.9,186,142.8,186L142.8,186"/>
	<path d="M142.9,186.6c-2.1,0-3.8-1.7-3.8-3.8s1.7-3.8,3.8-3.8v1.2c-1.4,0-2.6,1.2-2.6,2.6c0,1.4,1.2,2.6,2.6,2.6V186.6z
		 M142.9,179.1v1.2c1.5,0,2.7,1.1,2.7,2.6l0,0v0.1c0,1.4-1.2,2.5-2.7,2.5l0,0l0,0v1.1c2,0.1,3.7-1.5,3.8-3.5l0,0c0-0.1,0-0.1,0-0.2
		c0-2.1-1.6-3.8-3.7-3.8l0,0L142.9,179.1"/>
	<rect x="138.9" y="178.7" class="st31" width="8.1" height="4.1"/>
	<rect x="142.4" y="179.6" width="1" height="4.2"/>
	<rect x="142.4" y="179.6" class="st32" width="1" height="4.2"/>
</g>
<g id="_02-上针脚-8">
	<line class="st28" x1="358.6" y1="182.9" x2="358.6" y2="174.7"/>
	<path class="st31" d="M358.5,186c-1.7,0-3-1.3-3-3l0,0c0-1.7,1.3-3.1,3-3.2c1.7,0,3.2,1.4,3.2,3.1l0,0v0.1
		C361.7,184.8,360.2,186.1,358.5,186"/>
	<path d="M358.6,186.6c-2.1,0-3.8-1.7-3.8-3.8s1.7-3.8,3.8-3.8v1.2c-1.4,0-2.6,1.2-2.6,2.6c0,1.4,1.2,2.6,2.6,2.6V186.6z
		 M358.6,179.1v1.2c1.5,0,2.7,1.1,2.7,2.6l0,0v0.1c0,1.4-1.2,2.5-2.7,2.5l0,0l0,0v1.1c2,0.1,3.7-1.5,3.8-3.5l0,0c0-0.1,0-0.1,0-0.2
		C362.4,180.8,360.8,179.1,358.6,179.1L358.6,179.1L358.6,179.1"/>
	<rect x="354.5" y="178.7" class="st31" width="8.1" height="4.1"/>
	<rect x="358.1" y="179.6" width="1" height="4.2"/>
	<rect x="358.1" y="179.6" class="st32" width="1" height="4.2"/>
</g>
<g id="_02-上针脚-9">
	<line class="st28" x1="418.8" y1="182.9" x2="418.8" y2="174.7"/>
	<path class="st31" d="M418.7,186c-1.7,0-3-1.3-3-3l0,0c0-1.7,1.3-3.1,3-3.2c1.7,0,3.2,1.4,3.2,3.1l0,0v0.1
		C421.9,184.8,420.4,186.1,418.7,186"/>
	<path d="M418.8,186.6c-2.1,0-3.8-1.7-3.8-3.8s1.7-3.8,3.8-3.8v1.2c-1.4,0-2.6,1.2-2.6,2.6c0,1.4,1.2,2.6,2.6,2.6V186.6z
		 M418.8,179.1v1.2c1.5,0,2.7,1.1,2.7,2.6l0,0v0.1c0,1.4-1.2,2.5-2.7,2.5l0,0l0,0v1.1c2,0.1,3.7-1.5,3.8-3.5l0,0c0-0.1,0-0.1,0-0.2
		C422.6,180.9,420.9,179.2,418.8,179.1"/>
	<rect x="414.7" y="178.7" class="st31" width="8.1" height="4.1"/>
	<rect x="418.3" y="179.6" width="1" height="4.2"/>
	<rect x="418.3" y="179.6" class="st32" width="1" height="4.2"/>
</g>
<g id="_02-上针脚-10">
	<line class="st28" x1="298.9" y1="412.9" x2="298.9" y2="421.2"/>
	<path class="st31" d="M298.8,409.9c-1.7,0-3,1.3-3,3s1.3,3.1,3,3.2c1.7,0,3.2-1.4,3.2-3.1l0,0c0,0,0,0,0-0.1
		C302,411.1,300.5,409.8,298.8,409.9"/>
	<path d="M298.9,410.4c-1.4,0-2.6,1.2-2.6,2.6s1.2,2.6,2.6,2.6l0,0v1.2c-2.1,0-3.8-1.7-3.8-3.8s1.7-3.8,3.8-3.8V410.4z M298.9,416.8
		c2.1,0,3.8-1.6,3.8-3.7l0,0V413c0-2-1.6-3.7-3.6-3.7l0,0h-0.2v1.1c1.4-0.1,2.6,1,2.7,2.5l0,0l0,0c0,1.5-1.1,2.7-2.6,2.7l0,0h-0.1
		L298.9,416.8"/>
	<rect x="294.8" y="413" class="st31" width="8.1" height="4.1"/>
	<rect x="298.4" y="412" width="1" height="4.2"/>
	<rect x="298.4" y="412" class="st32" width="1" height="4.2"/>
</g>
<g id="_02-上针脚-11">
	<line class="st28" x1="358.6" y1="412.9" x2="358.6" y2="421.2"/>
	<path class="st31" d="M358.5,409.9c-1.7,0-3,1.3-3,3s1.3,3.1,3,3.2c1.7,0,3.2-1.4,3.2-3.1l0,0c0,0,0,0,0-0.1
		C361.7,411.1,360.2,409.8,358.5,409.9"/>
	<path d="M358.6,410.4c-1.4,0-2.6,1.2-2.6,2.6s1.2,2.6,2.6,2.6v1.2c-2.1,0-3.8-1.7-3.8-3.8s1.7-3.8,3.8-3.8V410.4z M358.6,416.8
		c2.1,0,3.8-1.6,3.8-3.7l0,0V413c0-2-1.6-3.7-3.6-3.7l0,0h-0.2v1.1c1.4-0.1,2.6,1,2.7,2.5l0,0l0,0c0,1.5-1.1,2.7-2.6,2.7l0,0h-0.1
		L358.6,416.8"/>
	<rect x="354.5" y="413" class="st31" width="8.1" height="4.1"/>
	<rect x="358.1" y="412" width="1" height="4.2"/>
	<rect x="358.1" y="412" class="st32" width="1" height="4.2"/>
</g>
<g id="_02-上针脚-12">
	<line class="st28" x1="418.8" y1="412.9" x2="418.8" y2="421.2"/>
	<path class="st31" d="M418.7,409.9c-1.7,0-3,1.3-3,3s1.3,3.1,3,3.2c1.7,0,3.2-1.4,3.2-3.1l0,0c0,0,0,0,0-0.1
		C421.8,411.1,420.4,409.8,418.7,409.9"/>
	<path d="M418.8,410.4c-1.4,0-2.6,1.2-2.6,2.6s1.2,2.6,2.6,2.6l0,0l0,0v1.2c-2.1,0-3.8-1.7-3.8-3.8s1.7-3.8,3.8-3.8V410.4z
		 M418.8,416.8c2.1,0,3.8-1.6,3.8-3.7l0,0V413c0-2-1.6-3.7-3.6-3.7l0,0h-0.2v1.1c1.4-0.1,2.6,1,2.7,2.5l0,0l0,0
		c0,1.5-1.1,2.7-2.6,2.7l0,0h-0.1L418.8,416.8"/>
	<rect x="414.7" y="413" class="st31" width="8.1" height="4.1"/>
	<rect x="418.3" y="412" width="1" height="4.2"/>
	<rect x="418.3" y="412" class="st32" width="1" height="4.2"/>
</g>
<g id="_02-上针脚-13">
	<line class="st28" x1="465.6" y1="455.3" x2="465.6" y2="447"/>
	<path class="st31" d="M465.5,458.4c-1.7,0-3-1.3-3-3l0,0c0-1.7,1.3-3.1,3-3.2c1.7,0,3.2,1.4,3.2,3.1l0,0c0,0,0,0,0,0.1
		C468.7,457.1,467.2,458.4,465.5,458.4"/>
	<path d="M465.6,458.9c-2.1,0-3.8-1.7-3.8-3.8s1.7-3.8,3.8-3.8v1.2c-1.4,0-2.6,1.2-2.6,2.6s1.2,2.6,2.6,2.6V458.9z M465.6,451.4v1.2
		c1.5,0,2.7,1.1,2.7,2.6l0,0v0.1c0,1.4-1.2,2.5-2.7,2.5l0,0l0,0v1.1c2,0.1,3.7-1.5,3.8-3.5l0,0c0-0.1,0-0.1,0-0.2
		C469.4,453.1,467.8,451.4,465.6,451.4L465.6,451.4L465.6,451.4"/>
	<rect x="461.5" y="451" class="st31" width="8.1" height="4.1"/>
	<rect x="465.1" y="451.9" width="1" height="4.2"/>
	<rect x="465.1" y="451.9" class="st32" width="1" height="4.2"/>
</g>
<g id="_02-上针脚-14">
	<line class="st28" x1="568.9" y1="455.3" x2="568.9" y2="447"/>
	<path class="st31" d="M568.8,458.4c-1.7,0-3-1.3-3-3l0,0c0-1.7,1.3-3.1,3-3.2c1.7,0,3.2,1.4,3.2,3.1l0,0c0,0,0,0,0,0.1
		C572,457.1,570.5,458.4,568.8,458.4"/>
	<path d="M568.9,458.9c-2.1,0-3.8-1.7-3.8-3.8s1.7-3.8,3.8-3.8v1.2c-1.4,0-2.6,1.2-2.6,2.6s1.2,2.6,2.6,2.6V458.9z M568.9,451.4v1.2
		c1.5,0,2.7,1.1,2.7,2.6l0,0v0.1c0,1.4-1.1,2.6-2.6,2.6h-0.1l0,0v1.1c2,0.1,3.7-1.5,3.8-3.5l0,0c0-0.1,0-0.1,0-0.2
		c0-2.1-1.6-3.8-3.7-3.8l0,0h-0.1"/>
	<rect x="564.8" y="451" class="st31" width="8.1" height="4.1"/>
	<rect x="568.4" y="451.9" width="1" height="4.2"/>
	<rect x="568.4" y="451.9" class="st32" width="1" height="4.2"/>
</g>
<g id="_02-上针脚-15">
	<line class="st28" x1="661.3" y1="455.3" x2="661.3" y2="447"/>
	<path class="st31" d="M661.2,458.4c-1.7,0-3-1.3-3-3l0,0c0-1.7,1.3-3.1,3-3.2c1.7,0,3.2,1.4,3.2,3.1l0,0c0,0,0,0,0,0.1
		C664.4,457.1,662.9,458.4,661.2,458.4"/>
	<path d="M661.3,458.9c-2.1,0-3.8-1.7-3.8-3.8s1.7-3.8,3.8-3.8v1.2c-1.4,0-2.6,1.2-2.6,2.6s1.2,2.6,2.6,2.6V458.9z M661.3,451.4v1.2
		c1.5,0,2.7,1.1,2.7,2.6l0,0v0.1c0,1.4-1.2,2.5-2.7,2.5l0,0l0,0v1.1c2,0.1,3.7-1.5,3.8-3.5l0,0c0-0.1,0-0.1,0-0.2
		C665.1,453.1,663.4,451.4,661.3,451.4"/>
	<rect x="657.2" y="451" class="st31" width="8.1" height="4.1"/>
	<rect x="660.8" y="451.9" width="1" height="4.2"/>
	<rect x="660.8" y="451.9" class="st32" width="1" height="4.2"/>
</g>
<g id="_02-上针脚-16">
	<line class="st28" x1="706.7" y1="455.3" x2="706.7" y2="447"/>
	<path class="st31" d="M706.6,458.4c-1.7,0-3-1.3-3-3l0,0c0-1.7,1.3-3.1,3-3.2c1.7,0,3.2,1.4,3.2,3.1l0,0c0,0,0,0,0,0.1
		C709.8,457.1,708.3,458.4,706.6,458.4"/>
	<path d="M706.6,458.9c-2.1,0-3.8-1.7-3.8-3.8s1.7-3.8,3.8-3.8v1.2c-1.4,0-2.6,1.2-2.6,2.6s1.2,2.6,2.6,2.6l0,0V458.9z M706.6,451.4
		v1.2c1.5,0,2.7,1.1,2.7,2.6l0,0v0.1c0,1.4-1.2,2.5-2.7,2.5l0,0l0,0v1.1c2,0.1,3.7-1.5,3.8-3.5l0,0c0-0.1,0-0.1,0-0.2
		C710.4,453.1,708.8,451.4,706.6,451.4L706.6,451.4L706.6,451.4"/>
	<rect x="702.6" y="451" class="st31" width="8.1" height="4.1"/>
	<rect x="706.2" y="451.9" width="1" height="4.2"/>
	<rect x="706.2" y="451.9" class="st32" width="1" height="4.2"/>
</g>
<g id="_02-上针脚-17">
	<line class="st28" x1="802.7" y1="455.3" x2="802.7" y2="447"/>
	<path class="st31" d="M802.5,458.4c-1.7,0-3-1.3-3-3l0,0c0-1.7,1.3-3.1,3-3.2c1.7,0,3.2,1.4,3.2,3.1l0,0c0,0,0,0,0,0.1
		C805.7,457.1,804.2,458.4,802.5,458.4"/>
	<path d="M802.7,458.9c-2.1,0-3.8-1.7-3.8-3.8s1.7-3.8,3.8-3.8v1.2c-1.4,0-2.6,1.2-2.6,2.6s1.2,2.6,2.6,2.6l0,0V458.9z M802.7,451.4
		v1.2c1.5,0,2.7,1.1,2.7,2.6l0,0v0.1c0,1.4-1.2,2.5-2.7,2.5l0,0l0,0v1.1c2,0.1,3.7-1.5,3.8-3.5l0,0c0-0.1,0-0.1,0-0.2
		C806.5,453.1,804.9,451.4,802.7,451.4L802.7,451.4L802.7,451.4"/>
	<rect x="798.6" y="451" class="st31" width="8.1" height="4.1"/>
	<rect x="802.2" y="451.9" width="1" height="4.2"/>
	<rect x="802.2" y="451.9" class="st32" width="1" height="4.2"/>
</g>
<g id="_02-上针脚-18">
	<line class="st28" x1="954" y1="455.3" x2="954" y2="447"/>
	<path class="st31" d="M953.9,458.4c-1.7,0-3-1.3-3-3l0,0c0-1.7,1.3-3.1,3-3.1s3.1,1.3,3.1,3C957,456.9,955.7,458.3,953.9,458.4
		C954,458.4,953.9,458.4,953.9,458.4L953.9,458.4"/>
	<path d="M953.9,458.9c-2.1,0-3.8-1.7-3.8-3.8s1.7-3.8,3.8-3.8v1.2c-1.4,0-2.6,1.2-2.6,2.6s1.2,2.6,2.6,2.6l0,0l0,0V458.9z
		 M953.9,451.4v1.2c1.5,0,2.7,1.1,2.7,2.6l0,0v0.1c0,1.4-1.1,2.6-2.6,2.6h-0.1l0,0v1.1c2,0.1,3.7-1.5,3.8-3.5l0,0c0-0.1,0-0.1,0-0.2
		c0-2.1-1.6-3.8-3.7-3.8l0,0h-0.1"/>
	<rect x="949.9" y="451" class="st31" width="8.1" height="4.1"/>
	<rect x="953.5" y="451.9" width="1" height="4.2"/>
	<rect x="953.5" y="451.9" class="st32" width="1" height="4.2"/>
</g>
<g id="_02-上针脚-23">
	<line class="st28" x1="508.6" y1="182.9" x2="508.6" y2="174.7"/>
	<path class="st31" d="M508.5,186c-1.7,0-3-1.3-3-3s1.3-3.1,3-3.2c1.7,0,3.2,1.4,3.2,3.1l0,0v0.1C511.7,184.8,510.2,186.1,508.5,186
		"/>
	<path d="M508.6,186.6c-2.1,0-3.8-1.7-3.8-3.8s1.7-3.8,3.8-3.8v1.2c-1.4,0-2.6,1.2-2.6,2.6c0,1.4,1.2,2.6,2.6,2.6V186.6z
		 M508.6,179.1v1.2c1.5,0,2.7,1.1,2.7,2.6l0,0v0.1c0,1.4-1.2,2.5-2.7,2.5l0,0l0,0v1.1c2,0.1,3.7-1.5,3.8-3.5l0,0c0-0.1,0-0.1,0-0.2
		C512.4,180.8,510.8,179.1,508.6,179.1L508.6,179.1L508.6,179.1"/>
	<rect x="504.5" y="178.7" class="st31" width="8.1" height="4.1"/>
	<rect x="508.1" y="179.6" width="1" height="4.2"/>
	<rect x="508.1" y="179.6" class="st32" width="1" height="4.2"/>
</g>
<g id="_02-上针脚-26">
	<line class="st28" x1="802.7" y1="344.3" x2="802.7" y2="336"/>
	<path class="st31" d="M802.6,347.4c-1.7,0-3-1.3-3-3s1.3-3.1,3-3.2c1.7,0,3.2,1.4,3.2,3.1l0,0c0,0,0,0,0,0.1
		C805.8,346.1,804.3,347.4,802.6,347.4"/>
	<path d="M802.7,347.9c-2.1,0-3.8-1.7-3.8-3.8s1.7-3.8,3.8-3.8v1.2c-1.4,0-2.6,1.2-2.6,2.6s1.2,2.6,2.6,2.6l0,0V347.9z M802.7,340.4
		v1.2c1.5,0,2.7,1.1,2.7,2.6l0,0v0.1c0,1.4-1.2,2.5-2.7,2.5l0,0l0,0v1.1c2,0.1,3.7-1.5,3.8-3.5l0,0c0-0.1,0-0.1,0-0.2
		C806.5,342.1,804.9,340.4,802.7,340.4L802.7,340.4L802.7,340.4"/>
	<rect x="798.6" y="340" class="st31" width="8.1" height="4.1"/>
	<rect x="802.2" y="340.9" width="1" height="4.2"/>
	<rect x="802.2" y="340.9" class="st32" width="1" height="4.2"/>
</g>
<g id="_02-上针脚-27">
	<line class="st28" x1="802.7" y1="183" x2="802.7" y2="174.8"/>
	<path class="st31" d="M802.5,186.1c-1.7,0-3-1.3-3-3s1.3-3.1,3-3.2c1.7,0,3.2,1.4,3.2,3.1l0,0v0.1
		C805.7,184.9,804.2,186.2,802.5,186.1"/>
	<path d="M802.7,186.7c-2.1,0-3.8-1.7-3.8-3.8s1.7-3.8,3.8-3.8v1.2c-1.4,0-2.6,1.2-2.6,2.6c0,1.4,1.2,2.6,2.6,2.6V186.7z
		 M802.7,179.2v1.2c1.5,0,2.7,1.1,2.7,2.6l0,0v0.1c0,1.4-1.2,2.5-2.7,2.5l0,0l0,0v1.1c2,0.1,3.7-1.5,3.8-3.5l0,0c0-0.1,0-0.1,0-0.2
		C806.5,180.9,804.9,179.2,802.7,179.2L802.7,179.2L802.7,179.2"/>
	<rect x="798.6" y="178.8" class="st31" width="8.1" height="4.1"/>
	<rect x="802.2" y="179.7" width="1" height="4.2"/>
	<rect x="802.2" y="179.7" class="st32" width="1" height="4.2"/>
</g>
<g id="_02-上针脚-28">
	<line class="st28" x1="952.5" y1="344.3" x2="952.5" y2="336"/>
	<path class="st31" d="M952.4,347.4c-1.7,0-3-1.3-3-3s1.3-3.1,3-3.2c1.7,0,3.2,1.4,3.2,3.1l0,0c0,0,0,0,0,0.1
		C955.6,346.1,954.1,347.4,952.4,347.4"/>
	<path d="M952.5,347.9c-2.1,0-3.8-1.7-3.8-3.8c0-2.1,1.7-3.8,3.8-3.8v1.2c-1.4,0-2.6,1.2-2.6,2.6s1.2,2.6,2.6,2.6l0,0l0,0V347.9z
		 M952.5,340.4v1.2c1.5,0,2.7,1.1,2.7,2.6l0,0v0.1c0,1.4-1.2,2.5-2.7,2.5l0,0l0,0v1.1c2,0.1,3.7-1.5,3.8-3.5l0,0c0-0.1,0-0.1,0-0.2
		C956.3,342.1,954.7,340.4,952.5,340.4L952.5,340.4L952.5,340.4"/>
	<rect x="948.4" y="340" class="st31" width="8.1" height="4.1"/>
	<rect x="952" y="340.9" width="1" height="4.2"/>
	<rect x="952" y="340.9" class="st32" width="1" height="4.2"/>
</g>
<g id="_02-上针脚-29">
	<line class="st28" x1="952.5" y1="183.1" x2="952.5" y2="174.9"/>
	<path class="st31" d="M952.4,186.2c-1.7,0-3-1.3-3-3s1.3-3.1,3-3.2c1.7,0,3.2,1.4,3.2,3.1l0,0v0.1
		C955.6,185,954.1,186.3,952.4,186.2"/>
	<path d="M952.5,186.8c-2.1,0-3.8-1.7-3.8-3.7c0-2.1,1.7-3.8,3.8-3.8l0,0v1.2c-1.4,0-2.6,1.2-2.6,2.6c0,1.4,1.2,2.6,2.6,2.6V186.8z
		 M952.5,179.3v1.2c1.5,0,2.7,1.1,2.7,2.6l0,0v0.1c0,1.4-1.2,2.5-2.7,2.5l0,0l0,0v1.1c2,0.1,3.7-1.5,3.8-3.5l0,0c0-0.1,0-0.1,0-0.2
		C956.3,181,954.7,179.3,952.5,179.3L952.5,179.3L952.5,179.3"/>
	<rect x="948.4" y="178.9" class="st31" width="8.1" height="4.1"/>
	<rect x="952" y="179.8" width="1" height="4.2"/>
	<rect x="952" y="179.8" class="st32" width="1" height="4.2"/>
</g>
<g id="_02-上针脚-30">
	<line class="st28" x1="802.7" y1="301.9" x2="802.7" y2="310.2"/>
	<path class="st31" d="M802.5,298.9c-1.7,0-3,1.3-3,3s1.3,3.1,3,3.2c1.7,0,3.2-1.4,3.2-3.1l0,0c0,0,0,0,0-0.1
		C805.7,300.1,804.2,298.8,802.5,298.9"/>
	<path d="M802.7,299.4c-1.4,0-2.6,1.2-2.6,2.6s1.2,2.6,2.6,2.6l0,0v1.2c-2.1,0-3.8-1.7-3.8-3.8s1.7-3.8,3.8-3.8V299.4z M802.7,305.8
		c2.1,0,3.8-1.6,3.8-3.7l0,0V302c0-2-1.6-3.7-3.6-3.7l0,0h-0.2v1.1c1.4-0.1,2.6,1,2.7,2.5l0,0l0,0c0,1.5-1.1,2.7-2.6,2.7l0,0h-0.1
		L802.7,305.8"/>
	<rect x="798.6" y="302" class="st31" width="8.1" height="4.1"/>
	<rect x="802.2" y="301" width="1" height="4.2"/>
	<rect x="802.2" y="301" class="st32" width="1" height="4.2"/>
</g>
<g id="_02-上针脚-31">
	<line class="st28" x1="952.5" y1="301.9" x2="952.5" y2="310"/>
	<path class="st31" d="M952.4,298.8c-1.7,0-3,1.3-3,3s1.3,3.1,3,3.2c1.7,0,3.2-1.4,3.2-3.1l0,0c0,0,0,0,0-0.1
		C955.6,300,954.1,298.7,952.4,298.8"/>
	<path d="M952.5,299.3c-1.4,0-2.6,1.2-2.6,2.6s1.2,2.6,2.6,2.6l0,0l0,0v1.2c-2.1,0-3.8-1.7-3.8-3.8c0-2.1,1.7-3.8,3.8-3.8l0,0V299.3
		z M952.5,305.7c2.1,0,3.8-1.6,3.8-3.7l0,0v-0.1c0-2-1.6-3.7-3.6-3.7l0,0h-0.2v1.1c1.4-0.1,2.6,1,2.7,2.5l0,0l0,0
		c0,1.5-1.1,2.7-2.6,2.7l0,0h-0.1L952.5,305.7"/>
	<rect x="948.4" y="301.9" class="st31" width="8.1" height="4.1"/>
	<rect x="952" y="300.9" width="1" height="4.2"/>
	<rect x="952" y="300.9" class="st32" width="1" height="4.2"/>
</g>
<g id="_02-上针脚-33">
	<line class="st28" x1="508.6" y1="412.9" x2="508.6" y2="421.2"/>
	<path class="st31" d="M508.5,409.9c-1.7,0-3,1.3-3,3s1.3,3.1,3,3.2c1.7,0,3.2-1.4,3.2-3.1l0,0c0,0,0,0,0-0.1
		C511.7,411.1,510.2,409.8,508.5,409.9"/>
	<path d="M508.6,410.4c-1.4,0-2.6,1.2-2.6,2.6s1.2,2.6,2.6,2.6l0,0v1.2c-2.1,0-3.8-1.7-3.8-3.8s1.7-3.8,3.8-3.8V410.4z M508.6,416.8
		c2.1,0,3.8-1.6,3.8-3.7l0,0V413c0-2-1.6-3.7-3.6-3.7l0,0h-0.2v1.1c1.4-0.1,2.6,1,2.7,2.5l0,0l0,0c0,1.5-1.1,2.7-2.6,2.7l0,0h-0.1
		V416.8"/>
	<rect x="504.5" y="413" class="st31" width="8.1" height="4.1"/>
	<rect x="508.1" y="412" width="1" height="4.2"/>
	<rect x="508.1" y="412" class="st32" width="1" height="4.2"/>
</g>
<g id="_02-上针脚-34">
	<line class="st28" x1="568.9" y1="621.4" x2="568.9" y2="613.2"/>
	<path class="st31" d="M568.8,624.6c-1.7,0-3-1.3-3-3s1.3-3.1,3-3.2c1.7,0,3.2,1.4,3.2,3.1l0,0c0,0,0,0,0,0.1
		C572,623.3,570.5,624.6,568.8,624.6"/>
	<path d="M568.9,625.2c-2.1,0-3.8-1.7-3.8-3.8s1.7-3.8,3.8-3.8v1.2c-1.4,0-2.6,1.2-2.6,2.6c0,1.4,1.2,2.6,2.6,2.6V625.2z
		 M568.9,617.7v1.2c1.5,0,2.7,1.1,2.7,2.6l0,0v0.1c0,1.4-1.2,2.5-2.7,2.5l0,0l0,0v1.1c2,0.1,3.7-1.5,3.8-3.5l0,0c0-0.1,0-0.1,0-0.2
		C572.7,619.4,571.1,617.7,568.9,617.7L568.9,617.7L568.9,617.7"/>
	<rect x="564.8" y="617.2" class="st31" width="8.1" height="4.1"/>
	<rect x="568.4" y="618.2" width="1" height="4.2"/>
	<rect x="568.4" y="618.2" class="st32" width="1" height="4.2"/>
</g>
<g id="_02-上针脚-35">
	<line class="st28" x1="568.9" y1="561.6" x2="568.9" y2="569.7"/>
	<path class="st31" d="M568.8,558.4c-1.7,0-3,1.3-3,3s1.3,3.1,3,3.2c1.7,0,3.2-1.4,3.2-3.1l0,0c0,0,0,0,0-0.1
		C572,559.7,570.5,558.4,568.8,558.4"/>
	<path d="M568.9,558.9c-1.4,0-2.6,1.2-2.6,2.6c0,1.4,1.2,2.6,2.6,2.6v1.2c-2.1,0-3.8-1.7-3.8-3.8s1.7-3.8,3.8-3.8V558.9z
		 M568.9,565.4c2.1,0,3.8-1.6,3.8-3.7l0,0v-0.1c0-2-1.6-3.7-3.6-3.7l0,0h-0.2v1.1c1.4-0.1,2.6,1,2.7,2.5l0,0l0,0
		c0,1.5-1.1,2.7-2.6,2.7l0,0h-0.1L568.9,565.4"/>
	<rect x="564.8" y="561.7" class="st31" width="8.1" height="4.1"/>
	<rect x="568.4" y="560.7" width="1" height="4.2"/>
	<rect x="568.4" y="560.7" class="st32" width="1" height="4.2"/>
</g>
<g id="_02-上针脚-36">
	<line class="st28" x1="706.7" y1="412.9" x2="706.7" y2="421.2"/>
	<path class="st31" d="M706.6,409.9c-1.7,0-3,1.3-3,3s1.3,3.1,3,3.2c1.7,0,3.2-1.4,3.2-3.1l0,0c0,0,0,0,0-0.1
		C709.8,411.1,708.3,409.8,706.6,409.9"/>
	<path d="M706.6,410.4c-1.4,0-2.6,1.2-2.6,2.6s1.2,2.6,2.6,2.6l0,0v1.2c-2.1,0-3.8-1.7-3.8-3.8s1.7-3.8,3.8-3.8V410.4z M706.6,416.8
		c2.1,0,3.8-1.6,3.8-3.7l0,0V413c0-2-1.6-3.7-3.6-3.7l0,0h-0.2v1.1c1.4-0.1,2.6,1,2.7,2.5l0,0l0,0c0,1.5-1.1,2.7-2.6,2.7l0,0h-0.1
		L706.6,416.8"/>
	<rect x="702.6" y="413" class="st31" width="8.1" height="4.1"/>
	<rect x="706.2" y="412" width="1" height="4.2"/>
	<rect x="706.2" y="412" class="st32" width="1" height="4.2"/>
</g>
<g id="_02-上针脚-39">
	<line class="st28" x1="802.7" y1="412.9" x2="802.7" y2="421.2"/>
	<path class="st31" d="M802.6,409.9c-1.7,0-3,1.3-3,3s1.3,3.1,3,3.2c1.7,0,3.2-1.4,3.2-3.1l0,0c0,0,0,0,0-0.1
		C805.8,411.1,804.3,409.8,802.6,409.9"/>
	<path d="M802.7,410.4c-1.4,0-2.6,1.2-2.6,2.6s1.2,2.6,2.6,2.6l0,0v1.2c-2.1,0-3.8-1.7-3.8-3.8s1.7-3.8,3.8-3.8V410.4z M802.7,416.8
		c2.1,0,3.8-1.6,3.8-3.7l0,0V413c0-2-1.6-3.7-3.6-3.7l0,0h-0.2v1.1c1.4-0.1,2.6,1,2.7,2.5l0,0l0,0c0,1.5-1.1,2.7-2.6,2.7l0,0h-0.1
		L802.7,416.8"/>
	<rect x="798.6" y="413" class="st31" width="8.1" height="4.1"/>
	<rect x="802.2" y="412" width="1" height="4.2"/>
	<rect x="802.2" y="412" class="st32" width="1" height="4.2"/>
</g>
<g id="_02-上针脚-40">
	<line class="st28" x1="803.1" y1="713.4" x2="803.1" y2="721.6"/>
	<path class="st31" d="M803,710.2c-1.7,0-3,1.3-3,3s1.3,3.1,3,3.2c1.7,0,3.2-1.4,3.2-3.1l0,0c0,0,0,0,0-0.1
		C806.1,711.5,804.7,710.2,803,710.2"/>
	<path d="M803.1,710.7c-1.4,0-2.6,1.2-2.6,2.6c0,1.4,1.2,2.6,2.6,2.6l0,0v1.2c-2.1,0-3.8-1.7-3.8-3.8s1.7-3.8,3.8-3.8V710.7z
		 M803.1,717.2c2.1,0,3.8-1.6,3.8-3.7l0,0v-0.1c0-2-1.6-3.7-3.6-3.7l0,0h-0.2v1.1c1.4-0.1,2.6,1,2.7,2.5l0,0l0,0
		c0,1.5-1.1,2.7-2.6,2.7l0,0h-0.1L803.1,717.2"/>
	<rect x="799" y="713.4" class="st31" width="8.1" height="4.1"/>
	<rect x="802.6" y="712.4" width="1" height="4.2"/>
	<rect x="802.6" y="712.4" class="st32" width="1" height="4.2"/>
</g>
<g id="_02-上针脚-41">
	<line class="st28" x1="954" y1="713.4" x2="954" y2="721.6"/>
	<path class="st31" d="M953.9,710.2c-1.7,0-3,1.3-3,3s1.3,3.1,3,3.2c1.7,0,3.2-1.4,3.2-3.1l0,0c0,0,0,0,0-0.1
		C957,711.5,955.6,710.2,953.9,710.2"/>
	<path d="M954,710.7c-1.4,0-2.6,1.2-2.6,2.6c0,1.4,1.2,2.6,2.6,2.6l0,0v1.2c-2.1,0-3.8-1.7-3.8-3.8s1.7-3.8,3.8-3.8l0,0l0,0V710.7z
		 M954,717.2c2.1,0,3.8-1.6,3.8-3.7l0,0v-0.1c0-2-1.6-3.7-3.6-3.7l0,0H954v1.1c1.4-0.1,2.6,1,2.7,2.5l0,0l0,0c0,1.5-1.1,2.7-2.6,2.7
		l0,0H954V717.2"/>
	<rect x="949.9" y="713.4" class="st31" width="8.1" height="4.1"/>
	<rect x="953.5" y="712.4" width="1" height="4.2"/>
	<rect x="953.5" y="712.4" class="st32" width="1" height="4.2"/>
</g>
<g id="_02-上针脚-42">
	<line class="st28" x1="952.5" y1="412.9" x2="952.5" y2="421.2"/>
	<path class="st31" d="M952.4,409.9c-1.7,0-3,1.3-3,3s1.3,3.1,3,3.2c1.7,0,3.2-1.4,3.2-3.1l0,0c0,0,0,0,0-0.1
		C955.6,411.1,954.1,409.8,952.4,409.9"/>
	<path d="M952.5,410.4c-1.4,0-2.6,1.2-2.6,2.6s1.2,2.6,2.6,2.6l0,0l0,0v1.2c-2.1,0-3.8-1.7-3.8-3.8c0-2.1,1.7-3.8,3.8-3.8V410.4z
		 M952.5,416.8c2.1,0,3.8-1.6,3.8-3.7l0,0V413c0-2-1.6-3.7-3.6-3.7l0,0h-0.2v1.1c1.4-0.1,2.6,1,2.7,2.5l0,0l0,0
		c0,1.5-1.1,2.7-2.6,2.7l0,0h-0.1L952.5,416.8"/>
	<rect x="948.4" y="413" class="st31" width="8.1" height="4.1"/>
	<rect x="952" y="412" width="1" height="4.2"/>
	<rect x="952" y="412" class="st32" width="1" height="4.2"/>
</g>
<g id="_02-上针脚-43">
	<line class="st28" x1="142.8" y1="412.9" x2="142.8" y2="421.2"/>
	<path class="st31" d="M142.7,409.9c-1.7,0-3,1.3-3,3s1.3,3.1,3,3.2c1.7,0,3.2-1.4,3.2-3.1l0,0c0,0,0,0,0-0.1
		C145.8,411.1,144.4,409.8,142.7,409.9"/>
	<path d="M142.8,410.4c-1.4,0-2.6,1.2-2.6,2.6s1.2,2.6,2.6,2.6l0,0v1.2c-2.1,0-3.8-1.7-3.8-3.8s1.7-3.8,3.8-3.8V410.4z M142.8,416.8
		c2.1,0,3.8-1.6,3.8-3.7l0,0V413c0-2-1.6-3.7-3.6-3.7l0,0h-0.2v1.1c1.4-0.1,2.6,1,2.7,2.5l0,0l0,0c0,1.5-1.1,2.7-2.6,2.7l0,0h-0.1
		L142.8,416.8"/>
	<rect x="138.7" y="413" class="st31" width="8.1" height="4.1"/>
	<rect x="142.3" y="412" width="1" height="4.2"/>
	<rect x="142.3" y="412" class="st32" width="1" height="4.2"/>
</g>
<rect x="558.5" y="772.7" class="st31" width="20.3" height="8.2"/>
<rect x="558.8" y="773.1" class="st37" width="19.7" height="7.6"/>
<text transform="matrix(1 0 0 1 354.6 426.6249)" class="st11 st38">Constant power</text>
<text transform="matrix(1 0 0 1 414.5396 444.7916)" class="st11 st38">Ground</text>
<text transform="matrix(1 0 0 1 461.2896 444.7916)" class="st11 st38">Ground</text>
<text transform="matrix(1 0 0 1 365.1195 154.2749)" class="st11 st12">60A</text>
<text transform="matrix(1 0 0 1 414.8 426.6249)" class="st11 st38">Constant power</text>
<rect x="412.4" y="199" class="st31" width="12.7" height="6"/>
<rect x="412.5" y="199" class="st31" width="12.5" height="6"/>
<text transform="matrix(1 0 0 1 411.0196 204.2949)" class="st11 st12">R 6.0</text>
<rect x="412.4" y="387.4" class="st31" width="12.7" height="6"/>
<rect x="412.5" y="387.4" class="st31" width="12.5" height="6"/>
<text transform="matrix(1 0 0 1 410.1895 392.3749)" class="st11 st12">R 6.0</text>
<text transform="matrix(1 0 0 1 425.1595 154.2749)" class="st11 st12">60A</text>
<text transform="matrix(1 0 0 1 292.22 426.6249)" class="st11 st38">IG1 power supply</text>
<text transform="matrix(1 0 0 1 556.0297 444.7916)" class="st11 st38">Liquid level alarm signal</text>
<rect x="562" y="473.3" class="st31" width="13.9" height="6"/>
<text transform="matrix(1 0 0 1 556.4596 478.4548)" class="st11 st12">Y/W 0.35</text>
<rect x="352.3" y="199" class="st31" width="12.7" height="6"/>
<rect x="352.4" y="199" class="st31" width="12.5" height="6"/>
<text transform="matrix(1 0 0 1 350.8195 204.265)" class="st11 st12">R 6.0</text>
<rect x="415.8" y="473.4" class="st31" width="6.4" height="6"/>
<rect x="352.3" y="387.4" class="st31" width="12.7" height="6"/>
<rect x="352.4" y="387.4" class="st31" width="12.5" height="6"/>
<text transform="matrix(1 0 0 1 350.8195 392.4949)" class="st11 st12">R 6.0</text>
<rect x="560.2" y="650.1" class="st31" width="15.6" height="6"/>
<text transform="matrix(1 0 0 1 560.5096 654.9548)" class="st11 st12">B 0.35</text>
<text transform="matrix(1 0 0 1 785.7097 439.7916)" class="st39"><tspan x="0" y="0" class="st11 st38">Left front wheel </tspan><tspan x="0" y="4.8" class="st11 st38">speed sensor power line</tspan></text>
<rect x="795.7" y="473.3" class="st31" width="13.9" height="6"/>
<text transform="matrix(1 0 0 1 791.4644 478.4249)" class="st11 st12">W/L 0.5</text>
<text transform="matrix(1 0 0 1 935.6796 439.7916)" class="st39"><tspan x="0" y="0" class="st11 st38">Right front wheel </tspan><tspan x="0" y="4.8" class="st11 st38">speed sensor power line</tspan></text>
<rect x="947.1" y="473.3" class="st31" width="13.9" height="6"/>
<text transform="matrix(1 0 0 1 945.572 478.4249)" class="st11 st12">W 0.5</text>
<rect x="136.6" y="198.5" class="st31" width="12.5" height="6"/>
<text transform="matrix(1 0 0 1 129.8276 203.8549)" class="st11 st12">R/G 0.35</text>
<rect x="292.5" y="387.4" class="st31" width="12.7" height="6"/>
<rect x="292.6" y="387.4" class="st31" width="12.5" height="6"/>
<text transform="matrix(1 0 0 1 286.8095 392.335)" class="st11 st12">R/G 0.35</text>
<text transform="matrix(1 0 0 1 135.33 425.5313)" class="st11 st38">IG1 power supply</text>
<rect x="136.5" y="387.4" class="st31" width="12.7" height="6"/>
<rect x="136.6" y="387.4" class="st31" width="12.5" height="6"/>
<text transform="matrix(1 0 0 1 130.7096 392.335)" class="st11 st12">R/G 0.35</text>
<rect x="136.5" y="322.4" class="st31" width="12.7" height="6"/>
<rect x="136.6" y="322.4" class="st31" width="12.5" height="6"/>
<text transform="matrix(1 0 0 1 131.3496 327.3348)" class="st11 st12">R/G 0.35</text>
<text transform="matrix(1 0 0 1 151.8096 154.2749)" class="st11 st12">5A</text>
<text transform="matrix(1 0 0 1 352.1196 444.7916)" class="st11 st38">CAN_H</text>
<text transform="matrix(1 0 0 1 293.4296 444.7916)" class="st11 st38">CAN_L</text>
<text transform="matrix(1 0 0 1 187.0796 444.7916)" class="st11 st38">CAN_L</text>
<text transform="matrix(1 0 0 1 135.2996 445.3749)" class="st11 st38">CAN_H</text>
<rect x="352.9" y="473.3" class="st31" width="11.5" height="6"/>
<text transform="matrix(1 0 0 1 349.2195 478.4249)" class="st11 st12">P 0.35</text>
<rect x="292" y="473.3" class="st31" width="13.7" height="6"/>
<text transform="matrix(1 0 0 1 289.4796 478.4548)" class="st11 st12">V 0.35</text>
<rect x="187.4" y="473.3" class="st31" width="13.9" height="6"/>
<text transform="matrix(1 0 0 1 184.9796 478.4249)" class="st11 st12">V 0.35</text>
<rect x="135.8" y="473" class="st31" width="14.1" height="6.1"/>
<text transform="matrix(1 0 0 1 133.2796 477.9949)" class="st11 st40">P 0.35</text>
<text transform="matrix(1 0 0 1 87.8996 445.3749)" class="st11 st38">Ground</text>
<rect x="81.4" y="772.9" class="st31" width="20.3" height="8.2"/>
<rect x="81.7" y="773.2" class="st37" width="19.7" height="7.6"/>
<rect x="147.2" y="289.2" class="st41" width="24.8" height="6.8"/>
<text transform="matrix(1 0 0 1 147.797 294.4901)" class="st11 st42">SP4596</text>
<text transform="matrix(1 0 0 1 626.2917 743.7049)" class="st11 st12">See Chassis Network - Circuit Diagram</text>
<text transform="matrix(1 0 0 1 698.1996 444.7916)" class="st11 st38">CAN_H</text>
<text transform="matrix(1 0 0 1 652.7097 444.7916)" class="st11 st38">CAN_L</text>
<rect x="703.7" y="473.3" class="st31" width="5.9" height="6"/>
<text transform="matrix(1 0 0 1 697.4896 478.4249)" class="st11 st12">P 0.35</text>
<rect x="653.6" y="473.3" class="st31" width="13.7" height="6"/>
<text transform="matrix(1 0 0 1 651.8796 478.4249)" class="st11 st12">V 0.35</text>
<rect x="97.2" y="598.7" class="st41" width="25.3" height="6.8"/>
<text transform="matrix(1 0 0 1 98.1844 604.3315)" class="st11 st43">SP5426</text>
<rect x="85.4" y="705.2" class="st31" width="13.9" height="6"/>
<text transform="matrix(1 0 0 1 84.1296 710.5149)" class="st11 st12">B 0.5</text>
<rect x="84.9" y="473.5" class="st31" width="13.9" height="6"/>
<text transform="matrix(1 0 0 1 82.5196 478.4249)" class="st11 st12">B 0.35</text>
<rect x="456.8" y="473.4" class="st31" width="17.8" height="6"/>
<text transform="matrix(1 0 0 1 459.5295 478.4249)" class="st11 st12">B 6.0</text>
<text transform="matrix(1 0 0 1 936.7001 426.6249)" class="st39"><tspan x="0" y="0" class="st11 st38">Right rear wheel </tspan><tspan x="0" y="4.8" class="st11 st38">speed sensor power line</tspan></text>
<rect x="945.6" y="388.9" class="st31" width="13.9" height="6"/>
<text transform="matrix(1 0 0 1 939.7331 394.0449)" class="st11 st12">G/Y 0.35</text>
<rect x="945.6" y="278.8" class="st31" width="13.9" height="6"/>
<text transform="matrix(1 0 0 1 941.5374 283.9448)" class="st11 st12">G/Y 0.5</text>
<rect x="945.6" y="198.8" class="st31" width="13.9" height="6"/>
<text transform="matrix(1 0 0 1 941.5374 203.9449)" class="st11 st12">G/Y 0.5</text>
<text transform="matrix(1 0 0 1 787.0201 426.6249)" class="st39"><tspan x="0" y="0" class="st11 st38">Left rear wheel speed </tspan><tspan x="0" y="4.8" class="st11 st38">sensor power supply line</tspan></text>
<rect x="795.9" y="388.9" class="st31" width="13.9" height="6"/>
<text transform="matrix(1 0 0 1 790.2172 394.1851)" class="st11 st12">Y/R 0.35</text>
<rect x="795.9" y="278.9" class="st31" width="13.9" height="6"/>
<text transform="matrix(1 0 0 1 792.0212 284.1851)" class="st11 st12">Y/R 0.5</text>
<rect x="795.9" y="198.5" class="st31" width="13.9" height="6"/>
<text transform="matrix(1 0 0 1 792.0212 203.785)" class="st11 st12">Y/R 0.5</text>
<text transform="matrix(1 0 0 1 698.6501 426.6249)" class="st11 st38">Door light wake up</text>
<text transform="matrix(1 0 0 1 494.8755 426.3944)" class="st11 st38">AUTO switch signal</text>
<text transform="matrix(1 0 0 1 495.6468 172.8549)" class="st11 st38">AUTO switch</text>
<rect x="501.7" y="198.8" class="st31" width="13.9" height="6"/>
<rect x="501.8" y="388.9" class="st31" width="13.9" height="6"/>
<text transform="matrix(1 0 0 1 495.8326 394.0449)" class="st11 st12">Lg 0.22</text>
<rect x="699.7" y="388.9" class="st31" width="13.9" height="6"/>
<text transform="matrix(1 0 0 1 693.6796 394.0449)" class="st11 st12">R/W 0.35</text>
<text transform="matrix(1 0 0 1 495.7725 203.6849)" class="st11 st12">Lg 0.22</text>
<rect x="455.5" y="772.7" class="st31" width="20.3" height="8.2"/>
<rect x="455.8" y="773.1" class="st37" width="19.7" height="7.6"/>
<rect x="411.2" y="473.4" class="st31" width="12.1" height="6"/>
<rect x="456.8" y="473.4" class="st31" width="17.8" height="6"/>
<text transform="matrix(1 0 0 1 459.5295 478.4249)" class="st11 st12">B 6.0</text>
<rect x="411.2" y="473.4" class="st31" width="12.1" height="6"/>
<text transform="matrix(1 0 0 1 411.2296 478.4249)" class="st11 st12">B 6.0</text>
<rect x="944.4" y="123.1" class="st13" width="67.9" height="51.6"/>
<text transform="matrix(1 0 0 1 1006.1096 173.2449)" class="st10 st11 st38">-</text>
<text transform="matrix(1 0 0 1 948.7996 173.2449)" class="st10 st11 st38">+</text>
<path class="st44" d="M952.5,174.7v-13.1h8.7l2.5,2.5l4.2-5.3l4.1,5.7l4.5-5.7l4.5,5.7l4.3-5.7c0,0,3.7,5.7,4.1,5.7s4.2-5.9,4.2-5.9
	l1.7,3h9.6v13.1"/>
<polygon class="st45" points="965.9,141.8 965.9,145.6 966.6,143.9 966.7,143.7 968,144.9 "/>
<path class="st45" d="M965.9,145.7v-4l2.2,3.3l-1.5-1.3l-0.1,0.2L965.9,145.7z M965.9,141.9v3.5l0.7-1.8l0,0l1.2,1.1L965.9,141.9z"
	/>
<path class="st45" d="M979.3,154.6c-6.8,0-12.4-4.8-12.8-10.9c0-0.1,0-0.1,0.1-0.1l0,0l0,0c0.1,0,0.1,0.1,0.1,0.1
	c0.4,6,5.9,10.7,12.5,10.7s12.2-4.7,12.5-10.8c0-0.1,0.1-0.1,0.1-0.1l0,0l0,0c0.1,0,0.1,0.1,0.1,0.1l0,0l0,0
	C991.7,149.8,986.1,154.6,979.3,154.6z"/>
<rect x="794.4" y="123.1" class="st13" width="67.9" height="51.6"/>
<text transform="matrix(1 0 0 1 856.0496 173.2449)" class="st10 st11 st38">-</text>
<text transform="matrix(1 0 0 1 798.5995 173.2449)" class="st10 st11 st38">+</text>
<path class="st44" d="M802.7,174.7v-13.1h8.7l2.5,2.5l4.1-5.3l4.1,5.7l4.5-5.7l4.5,5.7l4.3-5.7c0,0,3.7,5.7,4.1,5.7s4.2-5.9,4.2-5.9
	l1.7,3h9.6v13.1"/>
<polygon class="st45" points="815.9,141.8 815.9,145.6 816.6,143.9 816.7,143.7 818,144.9 "/>
<path class="st45" d="M815.9,145.7v-4l2.2,3.3l-1.5-1.3l-0.1,0.2L815.9,145.7z M815.9,141.9v3.5l0.7-1.8l0,0l1.2,1.1L815.9,141.9z"
	/>
<path class="st45" d="M829.3,154.6c-6.8,0-12.4-4.8-12.8-10.9c0-0.1,0-0.1,0.1-0.1l0,0l0,0c0.1,0,0.1,0.1,0.1,0.1
	c0.4,6,5.9,10.7,12.5,10.7s12.2-4.7,12.5-10.8c0-0.1,0.1-0.1,0.1-0.1l0,0l0,0c0.1,0,0.1,0.1,0.1,0.1l0,0l0,0
	C841.7,149.8,836.1,154.6,829.3,154.6z"/>
<rect x="794.7" y="721.6" class="st13" width="67.9" height="51.6"/>
<text transform="matrix(1 0 0 -1 856.4896 723.0469)" class="st10 st11 st38">-</text>
<text transform="matrix(1 0 0 -1 799.1996 723.0469)" class="st10 st11 st38">+</text>
<path class="st44" d="M802.9,721.6v13.1h8.7l2.5-2.5l4.1,5.3l4.1-5.7l4.5,5.7l4.5-5.7l4.3,5.7c0,0,3.7-5.7,4.1-5.7s4.2,5.9,4.2,5.9
	l1.7-3h9.6v-13.1"/>
<polygon class="st45" points="816.3,754.5 816.3,750.7 816.9,752.4 817,752.6 818.4,751.4 "/>
<path class="st45" d="M816.9,752.4l0.1,0.2l1.5-1.3l-2.2,3.3v-4L816.9,752.4z M818.2,751.5l-1.2,1.1l0,0l-0.7-1.8v3.5L818.2,751.5z"
	/>
<path class="st45" d="M829.7,741.7c-6.8,0-12.4,4.8-12.8,10.9c0,0.1,0,0.1,0.1,0.1l0,0l0,0c0.1,0,0.1-0.1,0.1-0.1
	c0.4-6,5.9-10.7,12.5-10.7s12.2,4.7,12.5,10.8c0,0.1,0.1,0.1,0.1,0.1l0,0l0,0c0.1,0,0.1-0.1,0.1-0.1l0,0l0,0
	C842.1,746.5,836.5,741.7,829.7,741.7z"/>
<text transform="matrix(1 0 0 -1 1008.2396 723.1055)" class="st10 st11 st38">-</text>
<rect x="945.9" y="721.6" class="st13" width="67.9" height="51.6"/>
<text transform="matrix(1 0 0 -1 949.7996 723.1055)" class="st10 st11 st38">+</text>
<path class="st44" d="M954,721.6v13.1h8.7l2.5-2.5l4.1,5.3l4.1-5.7l4.5,5.7l4.5-5.7l4.3,5.7c0,0,3.7-5.7,4.1-5.7s4.2,5.9,4.2,5.9
	l1.7-3h9.6v-13.1"/>
<polygon class="st45" points="967.4,754.5 967.4,750.8 968.1,752.4 968.2,752.7 969.5,751.4 "/>
<path class="st45" d="M968.1,752.4l0.1,0.2l1.5-1.3l-2.2,3.3v-4L968.1,752.4z M969.4,751.6l-1.2,1.1l0,0l-0.7-1.8v3.5L969.4,751.6z"
	/>
<path class="st45" d="M980.8,741.7c-6.8,0-12.4,4.8-12.8,10.9c0,0.1,0,0.1,0.1,0.1l0,0l0,0c0.1,0,0.1-0.1,0.1-0.1
	c0.4-6,5.9-10.7,12.5-10.7s12.2,4.7,12.5,10.8c0,0.1,0.1,0.1,0.1,0.1l0,0l0,0c0.1,0,0.1-0.1,0.1-0.1l0,0l0,0
	C993.2,746.6,987.6,741.7,980.8,741.7z"/>
<g id="_02-上针脚-44">
	<line class="st28" x1="854.9" y1="182.9" x2="854.9" y2="174.7"/>
	<path class="st31" d="M854.8,186c-1.7,0-3-1.3-3-3s1.3-3.1,3-3.2c1.7,0,3.2,1.4,3.2,3.1l0,0v0.1C858,184.8,856.5,186.1,854.8,186"
		/>
	<path d="M854.9,186.6c-2.1,0-3.8-1.7-3.8-3.8s1.7-3.8,3.8-3.8v1.2c-1.4,0-2.6,1.2-2.6,2.6c0,1.4,1.2,2.6,2.6,2.6V186.6z
		 M854.9,179.1v1.2c1.5,0,2.7,1.1,2.7,2.6l0,0v0.1c0,1.4-1.2,2.5-2.7,2.5l0,0l0,0v1.1c2,0.1,3.7-1.5,3.8-3.5l0,0c0-0.1,0-0.1,0-0.2
		C858.7,180.8,857.1,179.1,854.9,179.1L854.9,179.1L854.9,179.1"/>
	<rect x="850.8" y="178.7" class="st31" width="8.1" height="4.1"/>
	<rect x="854.4" y="179.6" width="1" height="4.2"/>
	<rect x="854.4" y="179.6" class="st32" width="1" height="4.2"/>
</g>
<g id="_02-上针脚-45">
	<line class="st28" x1="854.9" y1="301.9" x2="854.9" y2="310"/>
	<path class="st31" d="M854.8,298.8c-1.7,0-3,1.3-3,3s1.3,3.1,3,3.2c1.7,0,3.2-1.4,3.2-3.1l0,0c0,0,0,0,0-0.1
		C858,300,856.5,298.7,854.8,298.8"/>
	<path d="M854.9,299.3c-1.4,0-2.6,1.2-2.6,2.6s1.2,2.6,2.6,2.6v1.2c-2.1,0-3.8-1.7-3.8-3.8s1.7-3.8,3.8-3.8V299.3z M854.9,305.7
		c2.1,0,3.8-1.6,3.8-3.7l0,0v-0.1c0-2-1.6-3.7-3.6-3.7l0,0h-0.2v1.1c1.4-0.1,2.6,1,2.7,2.5l0,0l0,0c0,1.5-1.1,2.7-2.6,2.7l0,0h-0.1
		L854.9,305.7"/>
	<rect x="850.8" y="301.9" class="st31" width="8.1" height="4.1"/>
	<rect x="854.4" y="300.9" width="1" height="4.2"/>
	<rect x="854.4" y="300.9" class="st32" width="1" height="4.2"/>
</g>
<line class="st0" x1="1004.9" y1="186.3" x2="1004.9" y2="298.3"/>
<line class="st5" x1="1004.9" y1="186.3" x2="1004.9" y2="298.3"/>
<g id="_02-上针脚-46">
	<line class="st28" x1="1004.9" y1="182.9" x2="1004.9" y2="174.7"/>
	<path class="st31" d="M1004.8,186c-1.7,0-3-1.3-3-3s1.3-3.1,3-3.2c1.7,0,3.2,1.4,3.2,3.1l0,0v0.1
		C1008,184.8,1006.5,186.1,1004.8,186"/>
	<path d="M1004.9,186.6c-2.1,0-3.8-1.7-3.8-3.8s1.7-3.8,3.8-3.8v1.2c-1.4,0-2.6,1.2-2.6,2.6c0,1.4,1.2,2.6,2.6,2.6V186.6z
		 M1004.9,179.1v1.2c1.5,0,2.7,1.1,2.7,2.6l0,0v0.1c0,1.4-1.2,2.5-2.7,2.5l0,0l0,0v1.1c2,0.1,3.7-1.5,3.8-3.5l0,0c0-0.1,0-0.1,0-0.2
		C1008.7,180.8,1007.1,179.1,1004.9,179.1L1004.9,179.1L1004.9,179.1"/>
	<rect x="1000.8" y="178.7" class="st31" width="8.1" height="4.1"/>
	<rect x="1004.4" y="179.6" width="1" height="4.2"/>
	<rect x="1004.4" y="179.6" class="st32" width="1" height="4.2"/>
</g>
<g id="_02-上针脚-47">
	<line class="st28" x1="1004.9" y1="301.7" x2="1004.9" y2="309.9"/>
	<path class="st31" d="M1004.8,298.5c-1.7,0-3,1.3-3,3s1.3,3.1,3,3.2c1.7,0,3.2-1.4,3.2-3.1l0,0c0,0,0,0,0-0.1
		C1008,299.8,1006.5,298.5,1004.8,298.5"/>
	<path d="M1004.9,299c-1.4,0-2.6,1.2-2.6,2.6s1.2,2.6,2.6,2.6l0,0v1.2c-2.1,0-3.8-1.7-3.8-3.8s1.7-3.8,3.8-3.8V299z M1004.9,305.4
		c2.1,0,3.8-1.6,3.8-3.7l0,0v-0.1c0-2-1.6-3.7-3.6-3.7l0,0h-0.2v1.1c1.4-0.1,2.6,1,2.7,2.5l0,0l0,0c0,1.5-1.1,2.7-2.6,2.7l0,0h-0.1
		L1004.9,305.4"/>
	<rect x="1000.8" y="301.8" class="st31" width="8.1" height="4.1"/>
	<rect x="1004.4" y="300.8" width="1" height="4.2"/>
	<rect x="1004.4" y="300.8" class="st32" width="1" height="4.2"/>
</g>
<rect x="1001.5" y="198.3" class="st31" width="6.8" height="6"/>
<text transform="matrix(1 0 0 1 994.5908 203.5049)" class="st11 st12">L/Y 0.5</text>
<rect x="1001.5" y="278.8" class="st31" width="6.8" height="6"/>
<text transform="matrix(1 0 0 1 994.5903 283.965)" class="st11 st12">L/Y 0.5</text>
<line class="st0" x1="854.9" y1="346.6" x2="854.9" y2="409.2"/>
<line class="st1" x1="854.9" y1="346.6" x2="854.9" y2="409.2"/>
<g id="_02-上针脚-48">
	<line class="st28" x1="854.9" y1="344" x2="854.9" y2="335.8"/>
	<path class="st31" d="M854.8,347.1c-1.7,0-3-1.3-3-3s1.3-3.1,3-3.2c1.7,0,3.2,1.4,3.2,3.1l0,0c0,0,0,0,0,0.1
		C858,345.8,856.5,347.2,854.8,347.1"/>
	<path d="M854.9,347.7c-2.1,0-3.8-1.7-3.8-3.8s1.7-3.8,3.8-3.8v1.2c-1.4,0-2.6,1.2-2.6,2.6s1.2,2.6,2.6,2.6V347.7z M854.9,340.2v1.2
		c1.5,0,2.7,1.1,2.7,2.6l0,0v0.1c0,1.4-1.2,2.5-2.7,2.5l0,0l0,0v1.1c2,0.1,3.7-1.5,3.8-3.5l0,0c0-0.1,0-0.1,0-0.2
		C858.7,341.9,857.1,340.2,854.9,340.2L854.9,340.2L854.9,340.2"/>
	<rect x="850.8" y="339.8" class="st31" width="8.1" height="4.1"/>
	<rect x="854.4" y="340.7" width="1" height="4.2"/>
	<rect x="854.4" y="340.7" class="st32" width="1" height="4.2"/>
</g>
<g id="_02-上针脚-49">
	<line class="st28" x1="854.9" y1="412.7" x2="854.9" y2="420.9"/>
	<path class="st31" d="M854.8,409.6c-1.7,0-3,1.3-3,3l0,0c0,1.7,1.3,3.1,3,3.2c1.7,0,3.2-1.4,3.2-3.1l0,0c0,0,0,0,0-0.1
		C858,410.9,856.5,409.6,854.8,409.6"/>
	<path d="M854.9,410.1c-1.4,0-2.6,1.2-2.6,2.6s1.2,2.6,2.6,2.6v1.2c-2.1,0-3.8-1.7-3.8-3.8s1.7-3.8,3.8-3.8V410.1z M854.9,416.5
		c2.1,0,3.8-1.6,3.8-3.7l0,0v-0.1c0-2-1.6-3.7-3.6-3.7l0,0h-0.2v1.1c1.4-0.1,2.6,1,2.7,2.5l0,0l0,0c0,1.5-1.1,2.7-2.6,2.7l0,0h-0.1
		L854.9,416.5"/>
	<rect x="850.8" y="412.8" class="st31" width="8.1" height="4.1"/>
	<rect x="854.4" y="411.8" width="1" height="4.2"/>
	<rect x="854.4" y="411.8" class="st32" width="1" height="4.2"/>
</g>
<text transform="matrix(1 0 0 1 836.9001 426.3949)" class="st39"><tspan x="0" y="0" class="st11 st38">Left rear wheel </tspan><tspan x="0" y="4.8" class="st11 st38">speed sensor signal line</tspan></text>
<rect x="847.2" y="389" class="st31" width="17.4" height="6"/>
<text transform="matrix(1 0 0 1 841.5296 393.825)" class="st11 st12">L/R 0.35</text>
<rect x="846.2" y="278.8" class="st31" width="17.4" height="6"/>
<text transform="matrix(1 0 0 1 844.4144 283.6249)" class="st11 st12">L/R 0.5</text>
<rect x="846.2" y="198.8" class="st31" width="17.4" height="6"/>
<text transform="matrix(1 0 0 1 844.4144 203.6249)" class="st11 st12">L/R 0.5</text>
<g id="_02-上针脚-50">
	<line class="st28" x1="1004.9" y1="344.4" x2="1004.9" y2="336.2"/>
	<path class="st31" d="M1004.8,347.4c-1.7,0-3-1.3-3-3s1.3-3.1,3-3.2c1.7,0,3.2,1.4,3.2,3.1l0,0c0,0,0,0,0,0.1
		C1008,346.2,1006.5,347.5,1004.8,347.4"/>
	<path d="M1004.9,348c-2.1,0-3.8-1.7-3.8-3.8s1.7-3.8,3.8-3.8v1.2c-1.4,0-2.6,1.2-2.6,2.6s1.2,2.6,2.6,2.6l0,0V348z M1004.9,340.5
		v1.2c1.5,0,2.7,1.1,2.7,2.6l0,0v0.1c0,1.4-1.2,2.5-2.7,2.5l0,0l0,0v1.1c2,0.1,3.7-1.5,3.8-3.5l0,0c0-0.1,0-0.1,0-0.2
		C1008.7,342.2,1007.1,340.5,1004.9,340.5L1004.9,340.5L1004.9,340.5"/>
	<rect x="1000.8" y="340.2" class="st31" width="8.1" height="4.1"/>
	<rect x="1004.4" y="341" width="1" height="4.2"/>
	<rect x="1004.4" y="341" class="st32" width="1" height="4.2"/>
</g>
<g id="_02-上针脚-51">
	<line class="st28" x1="1004.9" y1="413" x2="1004.9" y2="421.3"/>
	<path class="st31" d="M1004.8,409.9c-1.7,0-3,1.3-3,3s1.3,3.1,3,3.2c1.7,0,3.2-1.4,3.2-3.1l0,0c0,0,0,0,0-0.1
		C1008,411.2,1006.5,409.9,1004.8,409.9"/>
	<path d="M1004.9,410.4c-1.4,0-2.6,1.2-2.6,2.6s1.2,2.6,2.6,2.6l0,0v1.3c-2.1,0-3.8-1.7-3.8-3.8s1.7-3.8,3.8-3.8V410.4z
		 M1004.9,416.8c2.1,0,3.8-1.6,3.8-3.7l0,0V413c0-2-1.6-3.7-3.6-3.7l0,0h-0.2v1.1c1.4-0.1,2.6,1,2.7,2.5l0,0l0,0
		c0,1.5-1.1,2.7-2.6,2.7l0,0h-0.1L1004.9,416.8"/>
	<rect x="1000.8" y="413.2" class="st31" width="8.1" height="4.1"/>
	<rect x="1004.4" y="412.2" width="1" height="4.2"/>
	<rect x="1004.4" y="412.2" class="st32" width="1" height="4.2"/>
</g>
<text transform="matrix(1 0 0 1 986.9001 426.7249)" class="st39"><tspan x="0" y="0" class="st11 st38">Right rear wheel</tspan><tspan x="0" y="4.8" class="st11 st38"> speed sensor signal line</tspan></text>
<rect x="1001.5" y="388.9" class="st31" width="6.8" height="6"/>
<text transform="matrix(1 0 0 1 992.7861 394.1849)" class="st11 st12">L/Y 0.35</text>
<line class="st2" x1="855.3" y1="458.7" x2="855.3" y2="710.5"/>
<line class="st25" x1="855.3" y1="458.7" x2="855.3" y2="710.5"/>
<g id="_02-上针脚-52">
	<line class="st28" x1="855.3" y1="455.4" x2="855.3" y2="447.2"/>
	<path class="st31" d="M855.2,458.5c-1.7,0-3-1.3-3-3s1.3-3.1,3-3.2c1.7,0,3.2,1.4,3.2,3.1l0,0c0,0,0,0,0,0.1
		C858.3,457.3,856.9,458.6,855.2,458.5"/>
	<path d="M855.3,459.1c-2.1,0-3.8-1.7-3.8-3.8c0-2.1,1.7-3.8,3.8-3.8l0,0v1.2c-1.4,0-2.6,1.2-2.6,2.6s1.2,2.6,2.6,2.6l0,0V459.1z
		 M855.3,451.6v1.2c1.5,0,2.7,1.1,2.7,2.6l0,0v0.1c0,1.4-1.2,2.5-2.7,2.5l0,0l0,0v1.1c2,0.1,3.7-1.5,3.8-3.5l0,0c0-0.1,0-0.1,0-0.2
		C859.1,453.3,857.5,451.6,855.3,451.6L855.3,451.6L855.3,451.6"/>
	<rect x="851.2" y="451.2" class="st31" width="8.1" height="4.1"/>
	<rect x="854.8" y="452.1" width="1" height="4.2"/>
	<rect x="854.8" y="452.1" class="st32" width="1" height="4.2"/>
</g>
<g id="_02-上针脚-53">
	<line class="st28" x1="855.3" y1="713.5" x2="855.3" y2="721.7"/>
	<path class="st31" d="M855.2,710.4c-1.7,0-3,1.3-3,3s1.3,3.1,3,3.2c1.7,0,3.2-1.4,3.2-3.1l0,0c0,0,0,0,0-0.1
		C858.3,711.7,856.9,710.4,855.2,710.4"/>
	<path d="M855.3,710.9c-1.4,0-2.6,1.2-2.6,2.6c0,1.4,1.2,2.6,2.6,2.6l0,0v1.2c-2.1,0-3.8-1.7-3.8-3.8s1.7-3.8,3.8-3.8l0,0V710.9z
		 M855.3,717.3c2.1,0,3.8-1.6,3.8-3.7l0,0v-0.1c0-2-1.6-3.7-3.6-3.7l0,0h-0.2v1.1c1.4-0.1,2.6,1,2.7,2.5l0,0l0,0
		c0,1.5-1.1,2.7-2.6,2.7l0,0h-0.1L855.3,717.3"/>
	<rect x="851.2" y="713.6" class="st31" width="8.1" height="4.1"/>
	<rect x="854.8" y="712.6" width="1" height="4.2"/>
	<rect x="854.8" y="712.6" class="st32" width="1" height="4.2"/>
</g>
<text transform="matrix(1 0 0 1 838.2997 439.7919)" class="st39"><tspan x="0" y="0" class="st11 st38">Left front wheel </tspan><tspan x="0" y="4.8" class="st11 st38">speed sensor signal line</tspan></text>
<rect x="848.3" y="473.5" class="st31" width="13.9" height="6"/>
<text transform="matrix(1 0 0 1 844.9909 478.6049)" class="st11 st12">Y/L 0.5</text>
<rect x="795.7" y="689.5" class="st31" width="13.9" height="6"/>
<text transform="matrix(1 0 0 1 791.4644 694.6249)" class="st11 st12">W/L 0.5</text>
<rect x="848.3" y="689.7" class="st31" width="13.9" height="6"/>
<text transform="matrix(1 0 0 1 844.9909 694.8049)" class="st11 st12">Y/L 0.5</text>
<line class="st2" x1="1006.5" y1="458.6" x2="1006.5" y2="710.4"/>
<g id="_02-上针脚-54">
	<line class="st28" x1="1006.4" y1="455.3" x2="1006.4" y2="447.1"/>
	<path class="st31" d="M1006.3,458.4c-1.7,0-3-1.3-3-3l0,0c0-1.7,1.3-3.1,3-3.2c1.7,0,3.2,1.4,3.2,3.1l0,0c0,0,0,0,0,0.1
		C1009.5,457.1,1008,458.5,1006.3,458.4"/>
	<path d="M1006.3,459c-2.1,0-3.8-1.7-3.8-3.8c0-2.1,1.7-3.8,3.8-3.8v1.2c-1.4,0-2.6,1.2-2.6,2.6s1.2,2.6,2.6,2.6l0,0V459z
		 M1006.3,451.5v1.2c1.5,0,2.7,1.1,2.7,2.6l0,0v0.1c0,1.4-1.2,2.5-2.7,2.5l0,0l0,0v1.1c2,0.1,3.7-1.5,3.8-3.5l0,0c0-0.1,0-0.1,0-0.2
		C1010.1,453.2,1008.5,451.5,1006.3,451.5L1006.3,451.5L1006.3,451.5"/>
	<rect x="1002.3" y="451.1" class="st31" width="8.1" height="4.1"/>
	<rect x="1005.9" y="452" width="1" height="4.2"/>
	<rect x="1005.9" y="452" class="st32" width="1" height="4.2"/>
</g>
<g id="_02-上针脚-55">
	<line class="st28" x1="1006.4" y1="713.4" x2="1006.4" y2="721.6"/>
	<path class="st31" d="M1006.3,710.3c-1.7,0-3,1.3-3,3s1.3,3.1,3,3.2c1.7,0,3.2-1.4,3.2-3.1l0,0c0,0,0,0,0-0.1
		C1009.5,711.6,1008,710.3,1006.3,710.3"/>
	<path d="M1006.4,710.8c-1.4,0-2.6,1.2-2.6,2.6c0,1.4,1.2,2.6,2.6,2.6l0,0v1.2c-2.1,0-3.8-1.7-3.8-3.8s1.7-3.8,3.8-3.8V710.8z
		 M1006.4,717.2c2.1,0,3.8-1.6,3.8-3.7l0,0v-0.1c0-2-1.6-3.7-3.6-3.7l0,0h-0.2v1.1c1.4-0.1,2.6,1,2.7,2.5l0,0l0,0
		c0,1.5-1.1,2.7-2.6,2.7l0,0h-0.1L1006.4,717.2"/>
	<rect x="1002.3" y="713.5" class="st31" width="8.1" height="4.1"/>
	<rect x="1005.9" y="712.5" width="1" height="4.2"/>
	<rect x="1005.9" y="712.5" class="st32" width="1" height="4.2"/>
</g>
<text transform="matrix(1 0 0 1 986.8997 439.7921)" class="st39"><tspan x="0" y="0" class="st11 st38">Right front wheel </tspan><tspan x="0" y="4.8" class="st11 st38">speed sensor signal line</tspan></text>
<rect x="999.5" y="473.4" class="st31" width="13.9" height="6"/>
<text transform="matrix(1 0 0 1 998.8975 478.4849)" class="st11 st12">Y 0.5</text>
<rect x="947.1" y="689.6" class="st31" width="13.9" height="6"/>
<text transform="matrix(1 0 0 1 945.572 694.775)" class="st11 st12">W 0.5</text>
<rect x="999.5" y="689.7" class="st31" width="13.9" height="6"/>
<text transform="matrix(1 0 0 1 998.8975 694.835)" class="st11 st12">Y 0.5</text>
<path class="st30" d="M799.8,522.3c-1.9,0.1-3.5-1.5-3.6-3.4l0,0v-0.1c0-2,1.6-3.5,3.6-3.5l59.4,6.9c1.9,0.1,3.5-1.5,3.6-3.4l0,0
	v-0.1c0-2-1.6-3.5-3.6-3.5L799.8,522.3z"/>
<path class="st30" d="M799.8,635.2c-1.9,0.1-3.5-1.5-3.6-3.4l0,0v-0.1c0-2,1.6-3.5,3.6-3.5l59.4,6.9c1.9,0.1,3.5-1.5,3.6-3.4l0,0
	v-0.1c0-2-1.6-3.5-3.6-3.5L799.8,635.2z"/>
<path class="st30" d="M950.8,522.3c-1.9,0.1-3.5-1.5-3.6-3.4l0,0v-0.1c0-2,1.6-3.5,3.6-3.5l59.4,6.9c1.9,0.1,3.5-1.5,3.6-3.4l0,0
	v-0.1c0-2-1.6-3.5-3.6-3.5L950.8,522.3z"/>
<path class="st30" d="M950.8,635.2c-1.9,0.1-3.5-1.5-3.6-3.4l0,0v-0.1c0-2,1.6-3.5,3.6-3.5l59.4,6.9c1.9,0.1,3.5-1.5,3.6-3.4l0,0
	v-0.1c0-2-1.6-3.5-3.6-3.5L950.8,635.2z"/>
<path class="st30" d="M949.7,244.8c-1.9,0.1-3.5-1.5-3.6-3.4l0,0v-0.1c0-2,1.6-3.5,3.6-3.5l59.4,6.9c1.9,0.1,3.5-1.5,3.6-3.4l0,0
	v-0.1c0-2-1.6-3.5-3.6-3.5L949.7,244.8z"/>
<path class="st30" d="M799.9,244.8c-1.9,0.1-3.5-1.5-3.6-3.4l0,0v-0.1c0-2,1.6-3.5,3.6-3.5l59.4,6.9c1.9,0.1,3.5-1.5,3.6-3.4l0,0
	v-0.1c0-2-1.6-3.5-3.6-3.5L799.9,244.8z"/>
<path class="st30" d="M799.9,371.3c-1.9,0.1-3.5-1.5-3.6-3.4l0,0v-0.1c0-2,1.6-3.5,3.6-3.5l59.4,6.9c1.9,0.1,3.5-1.5,3.6-3.4l0,0
	v-0.1c0-2-1.6-3.5-3.6-3.5L799.9,371.3z"/>
<circle class="st46" cx="829.3" cy="139.3" r="7.4"/>
<rect x="827.9" y="128.6" class="st47" width="2.7" height="21.4"/>
<rect x="818.6" y="138" class="st47" width="21.4" height="2.7"/>
<rect x="818.6" y="138" transform="matrix(0.7071 -0.7071 0.7071 0.7071 144.3582 627.217)" class="st48" width="21.4" height="2.7"/>
<rect x="827.9" y="128.6" transform="matrix(0.7071 -0.7071 0.7071 0.7071 144.3717 627.1484)" class="st48" width="2.7" height="21.4"/>
<circle class="st49" cx="829.3" cy="139.3" r="6"/>
<circle class="st50" cx="829.3" cy="139.3" r="4.6"/>
<circle class="st46" cx="829.3" cy="757" r="7.4"/>
<rect x="827.9" y="746.3" class="st47" width="2.7" height="21.4"/>
<rect x="818.6" y="755.7" class="st47" width="21.4" height="2.7"/>
<rect x="818.6" y="755.7" transform="matrix(0.7071 -0.7071 0.7071 0.7071 -292.4211 808.1277)" class="st48" width="21.4" height="2.7"/>
<rect x="828" y="746.3" transform="matrix(0.7071 -0.7071 0.7071 0.7071 -292.3776 808.1657)" class="st48" width="2.7" height="21.4"/>
<circle class="st49" cx="829.3" cy="757" r="6"/>
<circle class="st50" cx="829.3" cy="757" r="4.6"/>
<circle class="st46" cx="980.8" cy="757" r="7.4"/>
<rect x="979.4" y="746.3" class="st47" width="2.7" height="21.4"/>
<rect x="970.1" y="755.7" class="st47" width="21.4" height="2.7"/>
<rect x="970.1" y="755.7" transform="matrix(0.7071 -0.7071 0.7071 0.7071 -248.0491 915.2527)" class="st48" width="21.4" height="2.7"/>
<rect x="979.4" y="746.3" transform="matrix(0.7071 -0.7071 0.7071 0.7071 -248.0112 915.2104)" class="st48" width="2.7" height="21.4"/>
<circle class="st49" cx="980.8" cy="757" r="6"/>
<circle class="st50" cx="980.8" cy="757" r="4.6"/>
<circle class="st46" cx="979.3" cy="139.3" r="7.4"/>
<rect x="977.9" y="128.6" class="st47" width="2.7" height="21.4"/>
<rect x="968.6" y="138" class="st47" width="21.4" height="2.7"/>
<rect x="968.6" y="138" transform="matrix(0.7071 -0.7071 0.7071 0.7071 188.2907 733.2813)" class="st48" width="21.4" height="2.7"/>
<rect x="977.9" y="128.6" transform="matrix(0.7071 -0.7071 0.7071 0.7071 188.3281 733.2372)" class="st48" width="2.7" height="21.4"/>
<circle class="st49" cx="979.3" cy="139.3" r="6"/>
<circle class="st50" cx="979.3" cy="139.3" r="4.6"/>
<path class="st30" d="M949.7,371.3c-1.9,0.1-3.5-1.5-3.6-3.4l0,0v-0.1c0-2,1.6-3.5,3.6-3.5l59.4,6.9c1.9,0.1,3.5-1.5,3.6-3.4l0,0
	v-0.1c0-2-1.6-3.5-3.6-3.5L949.7,371.3z"/>
<polyline class="st26" points="605.1,185.7 605.1,323.7 559.1,323.7 "/>
<line class="st26" x1="558.5" y1="185.7" x2="558.5" y2="379.2"/>
<g id="交点-3_2_">
	<path class="st35" d="M561.1,248.4c0.1,1.6-1.1,2.9-2.7,3c-1.6,0.1-2.9-1.1-3-2.7s1.1-2.9,2.7-3h0.2
		C559.8,245.6,561,246.8,561.1,248.4C561.1,248.3,561.1,248.3,561.1,248.4C561.1,248.3,561.1,248.3,561.1,248.4z"/>
</g>
<g id="交点-6_2_">
	<path class="st35" d="M561.1,323.5c0.1,1.6-1.1,2.9-2.7,3c-1.6,0.1-2.9-1.1-3-2.7s1.1-2.9,2.7-3h0.2
		C559.8,320.7,561,321.9,561.1,323.5C561.1,323.4,561.1,323.4,561.1,323.5C561.1,323.4,561.1,323.4,561.1,323.5z"/>
</g>
<line class="st36" x1="558.6" y1="376.7" x2="558.6" y2="379.4"/>
<line class="st36" x1="551.5" y1="379.4" x2="565.4" y2="379.4"/>
<line class="st36" x1="554.4" y1="381.5" x2="562.5" y2="381.5"/>
<line class="st36" x1="561" y1="383.7" x2="556.1" y2="383.7"/>
<g id="_02-上针脚-22_2_">
	<line class="st28" x1="558.5" y1="182.9" x2="558.5" y2="174.7"/>
	<path class="st31" d="M558.4,186c-1.7,0-3-1.3-3-3s1.3-3.1,3-3.2c1.7,0,3.2,1.4,3.2,3.1l0,0v0.1C561.6,184.8,560.1,186.1,558.4,186
		"/>
	<path d="M558.5,186.6c-2.1,0-3.8-1.7-3.8-3.8s1.7-3.8,3.8-3.8v1.2c-1.4,0-2.6,1.2-2.6,2.6c0,1.4,1.2,2.6,2.6,2.6V186.6z
		 M558.5,179.1v1.2c1.5,0,2.7,1.1,2.7,2.6l0,0v0.1c0,1.4-1.2,2.5-2.7,2.5l0,0l0,0v1.1c2,0.1,3.7-1.5,3.8-3.5l0,0c0-0.1,0-0.1,0-0.2
		C562.3,180.9,560.6,179.1,558.5,179.1"/>
	<rect x="554.4" y="178.7" class="st31" width="8.1" height="4.1"/>
	<rect x="558" y="179.6" width="1" height="4.2"/>
	<rect x="558" y="179.6" class="st32" width="1" height="4.2"/>
</g>
<rect x="548.1" y="387.4" class="st31" width="20.3" height="8.2"/>
<rect x="548.5" y="387.8" class="st37" width="19.7" height="7.6"/>
<text transform="matrix(1 0 0 1 552.4725 172.8549)" class="st11 st38">Ground</text>
<text transform="matrix(1 0 0 1 597.686 172.8549)" class="st11 st38">Ground</text>
<rect x="563" y="244.2" class="st41" width="25.3" height="6.8"/>
<text transform="matrix(1 0 0 1 563.6227 249.8574)" class="st11 st12">SP4892</text>
<rect x="563" y="312" class="st41" width="25.3" height="6.8"/>
<text transform="matrix(1 0 0 1 563.8827 317.5974)" class="st11 st12">SP5426</text>
<rect x="550.9" y="358.5" class="st31" width="13.9" height="7.7"/>
<text transform="matrix(1 0 0 1 550.8126 364.595)" class="st11 st12">B 0.35</text>
<rect x="553.7" y="198.8" class="st31" width="13.9" height="6"/>
<text transform="matrix(1 0 0 1 547.7725 203.6849)" class="st11 st12">B 0.35</text>
<rect x="600.3" y="198.8" class="st31" width="13.9" height="6"/>
<text transform="matrix(1 0 0 1 594.3958 203.6849)" class="st11 st12">B 0.35</text>
<rect x="553.7" y="278.8" class="st31" width="13.9" height="6"/>
<text transform="matrix(1 0 0 1 547.7725 283.6849)" class="st11 st12">B 0.35</text>
<g id="_02-上针脚-22_1_">
	<line class="st28" x1="604.8" y1="182.9" x2="604.8" y2="174.7"/>
	<path class="st31" d="M604.7,186c-1.7,0-3-1.3-3-3s1.3-3.1,3-3.2c1.7,0,3.2,1.4,3.2,3.1l0,0v0.1C607.9,184.8,606.4,186.1,604.7,186
		"/>
	<path d="M604.8,186.6c-2.1,0-3.8-1.7-3.8-3.8s1.7-3.8,3.8-3.8v1.2c-1.4,0-2.6,1.2-2.6,2.6c0,1.4,1.2,2.6,2.6,2.6V186.6z
		 M604.8,179.1v1.2c1.5,0,2.7,1.1,2.7,2.6l0,0v0.1c0,1.4-1.2,2.5-2.7,2.5l0,0l0,0v1.1c2,0.1,3.7-1.5,3.8-3.5l0,0c0-0.1,0-0.1,0-0.2
		C608.6,180.9,606.9,179.1,604.8,179.1"/>
	<rect x="600.7" y="178.7" class="st31" width="8.1" height="4.1"/>
	<rect x="604.3" y="179.6" width="1" height="4.2"/>
	<rect x="604.3" y="179.6" class="st32" width="1" height="4.2"/>
</g>
<g>
	<text transform="matrix(1 0 0 1 585.1196 592.2932)" class="st51 st11 st12">Brake fluid level switch</text>
</g>
<g>
	<text transform="matrix(1 0 0 1 471.0995 455.3549)" class="st51 st11 st12">B03</text>
</g>
<g>
	<text transform="matrix(1 0 0 1 930.0775 117.7911)" class="st51 st11 st12">Right rear wheel speed sensor</text>
</g>
<g>
	<text transform="matrix(1 0 0 1 561.0396 779.0649)" class="st51 st11 st12">Eb06</text>
</g>
<g id="FB103">
	<g>
		<g id="FB103-2_8_">
			<text transform="matrix(1 0 0 1 627.4996 436.5349)" class="st51 st11 st52">Intelligent power brake control module</text>
		</g>
	</g>
</g>
<g>
	<text transform="matrix(1 0 0 1 238.2501 113.0879)" class="st51 st11 st12">Front compartment fuse box</text>
</g>
<g>
	<text transform="matrix(1 0 0 1 436.0158 181.9149)" class="st51 st11 st12">-1</text>
</g>
<g>
	<text transform="matrix(1 0 0 1 377.8361 181.9149)" class="st51 st11 st12">-4</text>
</g>
<g>
	<text transform="matrix(1 0 0 1 163.7033 181.9149)" class="st51 st11 st12">-10</text>
</g>
<g>
	<text transform="matrix(1 0 0 1 423.1096 181.9149)" class="st51 st11 st12">B1C</text>
</g>
<g>
	<text transform="matrix(1 0 0 1 585.0211 566.8849)" class="st51 st11 st12">-1</text>
</g>
<g>
	<text transform="matrix(1 0 0 1 829.3555 718.5249)" class="st51 st11 st12">-2</text>
</g>
<g>
	<text transform="matrix(1 0 0 1 980.3755 719.0049)" class="st51 st11 st12">-2</text>
</g>
<g>
	<text transform="matrix(1 0 0 1 881.8352 718.7049)" class="st51 st11 st12">-1</text>
</g>
<g>
	<text transform="matrix(1 0 0 1 1033.0652 719.0649)" class="st51 st11 st12">-1</text>
</g>
<g>
	<text transform="matrix(1 0 0 1 574.1696 566.8849)" class="st51 st11 st12">B17</text>
</g>
<g>
	<text transform="matrix(1 0 0 1 365.1096 181.9149)" class="st51 st11 st12">B1C</text>
</g>
<g>
	<text transform="matrix(1 0 0 1 586.5214 620.585)" class="st51 st11 st12">-2</text>
</g>
<g>
	<text transform="matrix(1 0 0 1 574.8495 620.585)" class="st51 st11 st12">B17</text>
</g>
<g>
	<text transform="matrix(1 0 0 1 819.3389 455.3549)" class="st51 st11 st12">-21</text>
</g>
<g>
	<text transform="matrix(1 0 0 1 971.4092 455.3549)" class="st51 st11 st12">-42</text>
</g>
<g>
	<text transform="matrix(1 0 0 1 588.4327 455.3549)" class="st51 st11 st12">-38</text>
</g>
<g>
	<text transform="matrix(1 0 0 1 679.6089 455.3549)" class="st51 st11 st12">-19</text>
</g>
<g>
	<text transform="matrix(1 0 0 1 727.3352 455.3549)" class="st51 st11 st12">-5</text>
</g>
<g>
	<text transform="matrix(1 0 0 1 984.4031 343.835)" class="st51 st11 st12">-15</text>
</g>
<g>
	<text transform="matrix(1 0 0 1 835.5199 343.835)" class="st51 st11 st12">-55</text>
</g>
<g>
	<text transform="matrix(1 0 0 1 887.9164 343.6049)" class="st51 st11 st12">-54</text>
</g>
<g>
	<text transform="matrix(1 0 0 1 1037.1996 343.9349)" class="st51 st11 st12">-14</text>
</g>
<g>
	<text transform="matrix(1 0 0 1 871.6418 455.5349)" class="st51 st11 st12">-7</text>
</g>
<g>
	<text transform="matrix(1 0 0 1 1023.8058 455.4249)" class="st51 st11 st12">-26</text>
</g>
<g>
	<text transform="matrix(1 0 0 1 979.5427 182.8649)" class="st51 st11 st12">-2</text>
</g>
<g>
	<text transform="matrix(1 0 0 1 829.8127 182.8649)" class="st51 st11 st12">-2</text>
</g>
<g>
	<text transform="matrix(1 0 0 1 525.6813 182.8649)" class="st51 st11 st12">-18</text>
</g>
<g>
	<text transform="matrix(1 0 0 1 576.2107 182.8649)" class="st51 st11 st12">-4</text>
</g>
<g>
	<text transform="matrix(1 0 0 1 880.1324 182.7649)" class="st51 st11 st12">-1</text>
</g>
<g>
	<text transform="matrix(1 0 0 1 1030.2124 182.6649)" class="st51 st11 st12">-1</text>
</g>
<g>
	<text transform="matrix(1 0 0 1 713.3611 182.665)" class="st51 st11 st12">-26</text>
</g>
<g>
	<text transform="matrix(1 0 0 1 807.4796 455.3549)" class="st51 st11 st12">B03</text>
</g>
<g>
	<text transform="matrix(1 0 0 1 958.7296 455.3549)" class="st51 st11 st12">B03</text>
</g>
<g>
	<text transform="matrix(1 0 0 1 777.8491 780.8701)" class="st51 st11 st12">Left front wheel speed sensor</text>
</g>
<g>
	<text transform="matrix(1 0 0 1 808.5196 718.5249)" class="st51 st11 st12">B01(A)</text>
</g>
<g>
	<text transform="matrix(1 0 0 1 928.9291 780.9301)" class="st51 st11 st12">Right front wheel speed sensor</text>
</g>
<g>
	<text transform="matrix(1 0 0 1 959.5396 719.0049)" class="st51 st11 st12">B01(B)</text>
</g>
<g>
	<text transform="matrix(1 0 0 1 151.6096 181.9149)" class="st51 st11 st12">B1C</text>
</g>
<g>
	<text transform="matrix(1 0 0 1 575.7296 455.3549)" class="st51 st11 st12">B03</text>
</g>
<g>
	<text transform="matrix(1 0 0 1 231.3296 599.9883)" class="st51 st11 st12">BJG01</text>
</g>
<g>
	<text transform="matrix(1 0 0 1 250.6794 599.9879)" class="st51 st11 st12">-26</text>
</g>
<g>
	<text transform="matrix(1 0 0 1 667.7496 455.3549)" class="st51 st11 st12">B03</text>
</g>
<g>
	<text transform="matrix(1 0 0 1 714.8196 455.3549)" class="st51 st11 st12">B03</text>
</g>
<g>
	<text transform="matrix(1 0 0 1 970.8093 418.845)" class="st51 st11 st12">-20</text>
</g>
<g>
	<text transform="matrix(1 0 0 1 984.5436 307.0549)" class="st51 st11 st12">-2</text>
</g>
<g>
	<text transform="matrix(1 0 0 1 821.5292 417.845)" class="st51 st11 st12">-39</text>
</g>
<g>
	<text transform="matrix(1 0 0 1 835.7043 307.0549)" class="st51 st11 st12">-48</text>
</g>
<g>
	<text transform="matrix(1 0 0 1 727.2657 417.845)" class="st51 st11 st12">-8</text>
</g>
<g>
	<text transform="matrix(1 0 0 1 525.5123 417.845)" class="st51 st11 st12">-40</text>
</g>
<g>
	<text transform="matrix(1 0 0 1 886.9708 306.955)" class="st51 st11 st12">-49</text>
</g>
<g>
	<text transform="matrix(1 0 0 1 1035.3633 306.8549)" class="st51 st11 st12">-1</text>
</g>
<g>
	<text transform="matrix(1 0 0 1 872.7693 417.6149)" class="st51 st11 st12">-23</text>
</g>
<g>
	<text transform="matrix(1 0 0 1 1022.8491 417.9448)" class="st51 st11 st12">-37</text>
</g>
<g>
	<text transform="matrix(1 0 0 1 958.1296 418.845)" class="st51 st11 st12">B03</text>
</g>
<g>
	<text transform="matrix(1 0 0 1 958.1296 307.0549)" class="st51 st11 st12">KG86(E)</text>
</g>
<g>
	<text transform="matrix(1 0 0 1 958.1296 343.835)" class="st51 st11 st12">BG86(B)</text>
</g>
<g>
	<text transform="matrix(1 0 0 1 808.8495 417.845)" class="st51 st11 st12">B03</text>
</g>
<g>
	<text transform="matrix(1 0 0 1 808.3996 307.0549)" class="st51 st11 st12">KG64(D)</text>
</g>
<g>
	<text transform="matrix(1 0 0 1 808.4496 343.835)" class="st51 st11 st12">BG64(B)</text>
</g>
<g>
	<text transform="matrix(1 0 0 1 714.8204 417.845)" class="st51 st11 st12">B03</text>
</g>
<g>
	<text transform="matrix(1 0 0 1 512.8326 417.845)" class="st51 st11 st12">B03</text>
</g>
<g>
	<text transform="matrix(1 0 0 1 858.6606 354.8651)" class="st51 st11 st12">Left domain control module</text>
</g>
<g>
	<text transform="matrix(1 0 0 1 1013.7998 355.2045)" class="st51 st11 st12">Right domain control module</text>
</g>
<g>
	<text transform="matrix(1 0 0 1 514.5022 318.5201)" class="st51 st11 st12">GJB01</text>
</g>
<g>
	<text transform="matrix(1 0 0 1 514.5024 324.5701)" class="st51 st11 st12">BJG01</text>
</g>
<g>
	<text transform="matrix(1 0 0 1 533.4399 324.5701)" class="st51 st11 st12">-33</text>
</g>
<g>
	<text transform="matrix(1 0 0 1 458.1996 779.0149)" class="st51 st11 st12">Eb04</text>
</g>
<g>
	<text transform="matrix(1 0 0 1 231.3296 592.7083)" class="st51 st11 st12">GJB01</text>
</g>
<g>
	<text transform="matrix(1 0 0 1 231.3296 634.3201)" class="st51 st11 st12">BJG01</text>
</g>
<g>
	<text transform="matrix(1 0 0 1 250.6794 634.3198)" class="st51 st11 st12">-25</text>
</g>
<g>
	<text transform="matrix(1 0 0 1 231.3296 627.04)" class="st51 st11 st12">GJB01</text>
</g>
<g>
	<text transform="matrix(1 0 0 1 859.6896 306.955)" class="st51 st11 st12">KG64(D)</text>
</g>
<g>
	<text transform="matrix(1 0 0 1 1009.7695 306.8549)" class="st51 st11 st12">KG86(E)</text>
</g>
<g>
	<text transform="matrix(1 0 0 1 860.0896 417.6149)" class="st51 st11 st12">B03</text>
</g>
<g>
	<text transform="matrix(1 0 0 1 860.8696 343.6049)" class="st51 st11 st12">BG64(B)</text>
</g>
<g>
	<text transform="matrix(1 0 0 1 1010.1697 417.9448)" class="st51 st11 st12">B03</text>
</g>
<g>
	<text transform="matrix(1 0 0 1 1010.9496 343.9349)" class="st51 st11 st12">BG86(B)</text>
</g>
<g>
	<text transform="matrix(1 0 0 1 859.1496 455.5349)" class="st51 st11 st12">B03</text>
</g>
<g>
	<text transform="matrix(1 0 0 1 861.8196 718.7049)" class="st51 st11 st12">B01(A)</text>
</g>
<g>
	<text transform="matrix(1 0 0 1 1011.1497 455.4249)" class="st51 st11 st12">B03</text>
</g>
<g>
	<text transform="matrix(1 0 0 1 1013.0496 719.0649)" class="st51 st11 st12">B01(B)</text>
</g>
<g>
	<text transform="matrix(1 0 0 1 364.9196 147.6549)" class="st51 st11 st12">F1/44</text>
</g>
<g>
	<text transform="matrix(1 0 0 1 424.9496 147.6549)" class="st51 st11 st12">F1/30</text>
</g>
<g>
	<text transform="matrix(1 0 0 1 317.1058 417.845)" class="st51 st11 st12">-36</text>
</g>
<g>
	<text transform="matrix(1 0 0 1 376.1322 417.845)" class="st51 st11 st12">-14</text>
</g>
<g>
	<text transform="matrix(1 0 0 1 434.7449 417.845)" class="st51 st11 st12">-46</text>
</g>
<g>
	<text transform="matrix(1 0 0 1 166.1214 418.845)" class="st51 st11 st12">-4</text>
</g>
<g>
	<text transform="matrix(1 0 0 1 304.4496 417.845)" class="st51 st11 st12">B03</text>
</g>
<g>
	<text transform="matrix(1 0 0 1 364.2729 417.845)" class="st51 st11 st12">B03</text>
</g>
<g>
	<text transform="matrix(1 0 0 1 423.1095 417.845)" class="st51 st11 st12">B03</text>
</g>
<g>
	<text transform="matrix(1 0 0 1 148.4496 418.845)" class="st51 st11 st12">GB76</text>
</g>
<g>
	<text transform="matrix(1 0 0 1 151.6096 147.6549)" class="st51 st11 st12">F1/42</text>
</g>
<g>
	<text transform="matrix(1 0 0 1 482.7714 455.3549)" class="st51 st11 st12">-1</text>
</g>
<g>
	<text transform="matrix(1 0 0 1 374.5586 455.3549)" class="st51 st11 st12">-11</text>
</g>
<g>
	<text transform="matrix(1 0 0 1 437.1692 455.3549)" class="st51 st11 st12">-30</text>
</g>
<g>
	<text transform="matrix(1 0 0 1 317.1627 455.3549)" class="st51 st11 st12">-25</text>
</g>
<g>
	<text transform="matrix(1 0 0 1 166.0214 455.3549)" class="st51 st11 st12">-3</text>
</g>
<g>
	<text transform="matrix(1 0 0 1 217.2614 455.3549)" class="st51 st11 st12">-2</text>
</g>
<g>
	<text transform="matrix(1 0 0 1 113.0811 455.3549)" class="st51 st11 st12">-1</text>
</g>
<g>
	<text transform="matrix(1 0 0 1 363.5196 455.3549)" class="st51 st11 st12">B03</text>
</g>
<g>
	<text transform="matrix(1 0 0 1 424.4895 455.3549)" class="st51 st11 st12">B03</text>
</g>
<g>
	<text transform="matrix(1 0 0 1 304.4595 455.3549)" class="st51 st11 st12">B03</text>
</g>
<g>
	<text transform="matrix(1 0 0 1 148.3496 455.3549)" class="st51 st11 st12">GB76</text>
</g>
<g>
	<text transform="matrix(1 0 0 1 199.5896 455.3549)" class="st51 st11 st12">GB76</text>
</g>
<g id="FB103-3">
	<g>
		<g id="FB103-4_8_">
			<text transform="matrix(1 0 0 1 124.1996 435.9249)" class="st51 st11 st12">Yaw rate sensor</text>
		</g>
	</g>
</g>
<g>
	<text transform="matrix(1 0 0 1 96.2296 455.3549)" class="st51 st11 st12">GB76</text>
</g>
<g>
	<text transform="matrix(1 0 0 1 148.6296 353.4448)" class="st51 st11 st12">BJG01</text>
</g>
<g>
	<text transform="matrix(1 0 0 1 148.6296 359.4448)" class="st51 st11 st12">GJB01</text>
</g>
<g>
	<text transform="matrix(1 0 0 1 168.1296 359.4448)" class="st51 st11 st12">-9</text>
</g>
<g>
	<text transform="matrix(1 0 0 1 957.8396 182.8649)" class="st51 st11 st12">K08(B)</text>
</g>
<g>
	<text transform="matrix(1 0 0 1 780.1874 117.7911)" class="st51 st11 st12">Left rear wheel speed sensor</text>
</g>
<text transform="matrix(1 0 0 1 503.1017 145.7913)" class="st51 st11 st12">Shift control panel (AUTOswitch) </text>
<g>
	<text transform="matrix(1 0 0 1 808.1096 182.8649)" class="st51 st11 st12">K08(A)</text>
</g>
<g>
	<text transform="matrix(1 0 0 1 513.9625 182.8649)" class="st51 st11 st12">G16</text>
</g>
<g>
	<text transform="matrix(1 0 0 1 550.8127 393.5249)" class="st51 st11 st12">Eg04</text>
</g>
<g>
	<text transform="matrix(1 0 0 1 563.8826 182.8649)" class="st51 st11 st12">G16</text>
</g>
<g>
	<text transform="matrix(1 0 0 1 622.544 182.8649)" class="st51 st11 st12">-1</text>
</g>
<g>
	<text transform="matrix(1 0 0 1 610.2159 182.8649)" class="st51 st11 st12">G16</text>
</g>
<g>
	<text transform="matrix(1 0 0 1 859.2496 182.7649)" class="st51 st11 st12">K08(A)</text>
</g>
<g>
	<text transform="matrix(1 0 0 1 1009.3296 182.6649)" class="st51 st11 st12">K08(B)</text>
</g>
<g>
	<text transform="matrix(1 0 0 1 687.8194 182.665)" class="st51 st11 st12">BG64(B)</text>
</g>
<text transform="matrix(1 0 0 1 666.9716 174.7032)" class="st51 st11 st12">Left domain control module</text>
<g>
	<text transform="matrix(1 0 0 1 83.9212 778.7132)" class="st51 st11 st12">Eg04</text>
</g>
</svg>
