<?xml version="1.0" encoding="utf-8"?>
<!-- Generator: Adobe Illustrator 24.0.1, SVG Export Plug-In . SVG Version: 6.00 Build 0)  -->
<svg version="1.1" id="图层_1" xmlns="http://www.w3.org/2000/svg" xmlns:xlink="http://www.w3.org/1999/xlink" x="0px" y="0px"
	 viewBox="0 0 860 841.9" style="enable-background:new 0 0 860 841.9;" xml:space="preserve">
<style type="text/css">
	.st0{fill:none;stroke:#FFF100;stroke-width:3;stroke-linecap:round;stroke-miterlimit:10;}
	.st1{fill:none;stroke:#E60012;stroke-linecap:round;stroke-miterlimit:10;}
	.st2{fill:none;stroke:#005EAD;stroke-width:3;stroke-linecap:round;stroke-miterlimit:10;}
	.st3{fill:none;stroke:#FFF100;stroke-linecap:round;stroke-miterlimit:10;}
	.st4{fill:none;stroke:#F29C97;stroke-width:3;stroke-linecap:round;stroke-miterlimit:10;}
	.st5{fill:none;stroke:#89438F;stroke-width:3;stroke-linecap:round;stroke-miterlimit:10;}
	.st6{fill:none;stroke:#000000;stroke-width:3;stroke-linecap:round;stroke-miterlimit:10;}
	.st7{fill:#FFFFFF;}
	.st8{font-family:'FZLTHJW--GB1-0';}
	.st9{font-size:6px;}
	.st10{fill:#FFFFFF;stroke:#000000;stroke-width:0.25;}
	.st11{stroke:#FFFFFF;stroke-width:0.5;}
	.st12{fill:none;stroke:#000000;stroke-width:1.3;}
	.st13{fill:#FFFFFF;stroke:#000000;stroke-width:0.25;stroke-linecap:round;stroke-linejoin:round;}
	.st14{fill:#FFFFFF;stroke:#000000;stroke-width:0.5;stroke-miterlimit:10;}
	.st15{fill:none;stroke:#000000;stroke-linecap:round;stroke-miterlimit:10;}
	.st16{fill:none;stroke:#E60012;stroke-width:3;stroke-linecap:round;stroke-miterlimit:10;}
	.st17{fill:none;stroke:#FFFFFF;stroke-linecap:round;stroke-miterlimit:10;}
	.st18{fill:#DCDDDD;stroke:#000000;stroke-width:0.5;stroke-miterlimit:10;}
	.st19{fill:#DCDDDD;}
	.st20{fill:none;stroke:#000000;stroke-width:0.5;}
	.st21{fill:none;stroke:#000000;}
	.st22{fill:none;stroke:#000000;stroke-width:0.6;stroke-linecap:round;stroke-linejoin:round;}
	.st23{fill:none;stroke:#000000;stroke-width:0.72;stroke-linecap:round;stroke-linejoin:round;}
	.st24{fill:none;stroke:#070102;stroke-width:0.75;}
	.st25{stroke:#FFFFFF;stroke-width:0.5;stroke-linecap:round;}
	.st26{fill:none;stroke:#FFFFFF;stroke-width:1.0001;}
	.st27{fill:#9FD9F6;stroke:#000000;stroke-width:0.5;stroke-linecap:round;stroke-miterlimit:10;}
	.st28{font-size:4px;}
	.st29{enable-background:new    ;}
	.st30{fill:none;stroke:#000000;stroke-width:0.5;stroke-miterlimit:10;}
	.st31{fill:none;stroke:#040000;stroke-width:0.75;}
	.st32{fill:none;stroke:#000000;stroke-width:0.6001;stroke-linecap:round;stroke-linejoin:round;}
	.st33{fill:none;stroke:#000000;stroke-width:0.6001;stroke-linecap:round;}
	.st34{fill:none;stroke:#000000;stroke-width:0.5;stroke-linecap:round;stroke-linejoin:round;}
	.st35{fill:none;}
	.st36{fill:#005EAD;}
	.st37{font-size:8px;}
	.st38{fill:none;stroke:#000000;stroke-width:0.5;stroke-linecap:round;}
	.st39{fill:#201512;}
	.st40{fill:none;stroke:#000000;stroke-width:0.5;stroke-linecap:round;stroke-linejoin:round;stroke-miterlimit:10;}
</style>
<polyline class="st0" points="680,300.7 775,300.7 775,477.6 595.6,477.6 595.6,535.6 "/>
<polyline class="st1" points="680,300.7 775,300.7 775,477.6 595.6,477.6 595.6,535.6 "/>
<polyline class="st2" points="637.5,188.5 637.5,248.3 521.5,248.3 "/>
<polyline class="st3" points="637.5,188.5 637.5,248.3 521.5,248.3 "/>
<line class="st4" x1="388.8" y1="459.9" x2="388.8" y2="735.5"/>
<line class="st5" x1="439.3" y1="457.9" x2="439.3" y2="738.3"/>
<line class="st6" x1="478.1" y1="188.5" x2="478.1" y2="368.8"/>
<rect x="469.4" y="215" class="st7" width="12.7" height="6"/>
<rect x="469.4" y="215" class="st7" width="12.5" height="6"/>
<text transform="matrix(1 0 0 1 468.6943 219.8812)" class="st8 st9">B 0.35</text>
<rect x="471.8" y="326.4" class="st7" width="12.7" height="6"/>
<text transform="matrix(1 0 0 1 470.582 331.5508)" class="st8 st9">B 2.5</text>
<rect x="484.5" y="243.6" class="st10" width="24.7" height="6.8"/>
<text transform="matrix(1 0 0 1 485.1421 249.0161)" class="st8 st9">SP4856</text>
<path class="st11" d="M481,247.5c0,1.7-1.3,2.9-2.8,2.9c-1.6,0-2.9-1.2-2.9-2.9c0-1.5,1.3-2.7,2.9-2.7
	C479.7,244.8,481,246,481,247.5z"/>
<g id="GB031_1_">
	<g>
		<g>
			<line class="st12" x1="478.4" y1="367.1" x2="478.4" y2="369.8"/>
		</g>
		<g>
			<line class="st12" x1="471.4" y1="369.8" x2="485.2" y2="369.8"/>
		</g>
		<g>
			<line class="st12" x1="474.2" y1="372" x2="482.4" y2="372"/>
		</g>
		<g>
			<line class="st12" x1="480.7" y1="374.1" x2="475.9" y2="374.1"/>
		</g>
	</g>
	<g>
		<rect x="468" y="376.6" class="st7" width="20.3" height="8.2"/>
		<rect x="468.3" y="377" class="st13" width="19.7" height="7.6"/>
	</g>
</g>
<line class="st2" x1="521.3" y1="188.5" x2="521.3" y2="393.3"/>
<line class="st3" x1="521.3" y1="188.5" x2="521.3" y2="393.3"/>
<g>
	<path class="st14" d="M274.1,395.9c-0.8,0-1.5-0.7-1.5-1.5v-79.1c0-0.8,0.7-1.5,1.5-1.5s1.5,0.7,1.5,1.5v79.1
		C275.6,395.2,274.9,395.9,274.1,395.9z"/>
</g>
<line class="st15" x1="274.1" y1="315.3" x2="274.1" y2="394.4"/>
<line class="st6" x1="722.2" y1="188.5" x2="722.2" y2="368.6"/>
<rect x="715.9" y="215" class="st7" width="12.7" height="6"/>
<rect x="716" y="215" class="st7" width="12.5" height="6"/>
<text transform="matrix(1 0 0 1 715.1404 219.8812)" class="st8 st9">B 0.5</text>
<rect x="715.9" y="351.1" class="st7" width="12.7" height="6"/>
<rect x="716" y="351.1" class="st7" width="12.5" height="6"/>
<text transform="matrix(1 0 0 1 714.6792 355.9414)" class="st8 st9">B 2.5</text>
<line class="st16" x1="273.6" y1="188.6" x2="273.6" y2="249.1"/>
<line class="st17" x1="273.6" y1="188.6" x2="273.6" y2="249.1"/>
<polyline class="st6" points="326.4,249.1 326.4,199.7 388.5,199.7 388.5,368.9 "/>
<rect x="267.2" y="215" class="st7" width="12.7" height="6"/>
<rect x="267.3" y="215" class="st7" width="12.5" height="6"/>
<text transform="matrix(1 0 0 1 260.0128 219.8812)" class="st8 st9">R/W 0.35</text>
<rect x="319.5" y="215" class="st7" width="12.7" height="6"/>
<rect x="319.6" y="215" class="st7" width="12.5" height="6"/>
<text transform="matrix(1 0 0 1 316.4645 219.8812)" class="st8 st9">B 0.35</text>
<g id="REB_x2C_A3_3_">
	<rect x="179" y="109.7" class="st18" width="123.5" height="67.4"/>
</g>
<g id="REB_x2C_A3_2_">
	<rect x="81.4" y="109.7" class="st18" width="55.8" height="67.4"/>
</g>
<g id="FB55">
</g>
<g>
	<polyline class="st19" points="35.2,41.9 834,41.9 834,88.1 35.2,88.1 	"/>
	<g>
		<line class="st20" x1="35.2" y1="47.6" x2="834" y2="47.6"/>
		<line class="st21" x1="35.2" y1="41.6" x2="834" y2="41.6"/>
		<path class="st20" d="M834,59.3"/>
		<path class="st20" d="M35.2,59.3"/>
		<line class="st20" x1="35.2" y1="58.9" x2="834" y2="58.9"/>
		<line class="st20" x1="35.2" y1="70.6" x2="834" y2="70.6"/>
		<line class="st20" x1="35.2" y1="82.3" x2="834" y2="82.3"/>
		<line class="st21" x1="35.3" y1="88.1" x2="834" y2="88.1"/>
	</g>
	<text transform="matrix(1 0 0 1 835.2197 49.6299)" class="st8 st9">30</text>
	<text transform="matrix(1 0 0 1 835.2197 60.7959)" class="st8 st9">IG1</text>
	<text transform="matrix(1 0 0 1 835.2197 72.4209)" class="st8 st9">IG3</text>
	<text transform="matrix(1 0 0 1 835.2197 83.9248)" class="st8 st9">ACC</text>
	<text transform="matrix(1 0 0 1 24.6769 49.7119)" class="st8 st9">30</text>
	<text transform="matrix(1 0 0 1 21.5128 60.8779)" class="st8 st9">IG1</text>
	<text transform="matrix(1 0 0 1 21.5128 72.5029)" class="st8 st9">IG3</text>
	<text transform="matrix(1 0 0 1 18.0203 84.0029)" class="st8 st9">ACC</text>
</g>
<g id="对接插头">
</g>
<line class="st16" x1="110.7" y1="188.5" x2="110.7" y2="394.4"/>
<line class="st6" x1="325.9" y1="315.1" x2="325.9" y2="394.2"/>
<line class="st1" x1="325.9" y1="315.1" x2="325.9" y2="394.2"/>
<g>
	<line class="st22" x1="110.7" y1="395.8" x2="110.7" y2="404"/>
	<path class="st7" d="M110.6,392.7c1.6,0,3,1.4,3,3c0,1.8-1.4,3.2-3,3.2c-1.8,0-3.2-1.4-3.2-3.2
		C107.4,394.1,108.8,392.7,110.6,392.7"/>
	<path d="M110.6,392.1c2,0,3.7,1.6,3.7,3.7c0,2.2-1.7,3.8-3.7,3.8v-1.1c1.4,0,2.5-1.1,2.5-2.7c0-1.4-1.1-2.5-2.5-2.5V392.1z
		 M110.6,399.6v-1.1c-1.5,0-2.7-1.1-2.7-2.7c0-1.4,1.1-2.5,2.7-2.5v-1.1c-2.2,0-3.8,1.6-3.8,3.7
		C106.8,397.9,108.5,399.6,110.6,399.6"/>
	<rect x="106.3" y="395.9" class="st7" width="8.5" height="4.1"/>
	<rect x="110.2" y="394.9" width="1" height="4.2"/>
	<rect x="110.2" y="394.9" class="st23" width="1" height="4.2"/>
</g>
<g>
	<line class="st22" x1="274.2" y1="395.8" x2="274.2" y2="404"/>
	<path class="st7" d="M274.1,392.7c1.6,0,3,1.4,3,3c0,1.8-1.4,3.2-3,3.2c-1.8,0-3.2-1.4-3.2-3.2C271,394.1,272.4,392.7,274.1,392.7"
		/>
	<path d="M274.1,392.1c2,0,3.7,1.6,3.7,3.7c0,2.2-1.7,3.8-3.7,3.8v-1.1c1.4,0,2.5-1.1,2.5-2.7c0-1.4-1.1-2.5-2.5-2.5V392.1z
		 M274.1,399.6v-1.1c-1.5,0-2.7-1.1-2.7-2.7c0-1.4,1.1-2.5,2.7-2.5v-1.1c-2.2,0-3.8,1.6-3.8,3.7C270.3,397.9,272,399.6,274.1,399.6"
		/>
	<rect x="269.8" y="395.9" class="st7" width="8.5" height="4.1"/>
	<rect x="273.8" y="394.9" width="1" height="4.2"/>
	<rect x="273.8" y="394.9" class="st23" width="1" height="4.2"/>
</g>
<g>
	<line class="st22" x1="521.1" y1="395.8" x2="521.1" y2="404"/>
	<path class="st7" d="M521,392.7c1.6,0,3,1.4,3,3c0,1.8-1.4,3.2-3,3.2c-1.8,0-3.2-1.4-3.2-3.2C517.8,394.1,519.2,392.7,521,392.7"/>
	<path d="M521,392.1c2,0,3.7,1.6,3.7,3.7c0,2.2-1.7,3.8-3.7,3.8v-1.1c1.4,0,2.5-1.1,2.5-2.7c0-1.4-1.1-2.5-2.5-2.5V392.1z
		 M521,399.6v-1.1c-1.5,0-2.7-1.1-2.7-2.7c0-1.4,1.1-2.5,2.7-2.5v-1.1c-2.2,0-3.8,1.6-3.8,3.7C517.2,397.9,518.8,399.6,521,399.6"/>
	<rect x="516.7" y="395.9" class="st7" width="8.5" height="4.1"/>
	<rect x="520.6" y="394.9" width="1" height="4.2"/>
	<rect x="520.6" y="394.9" class="st23" width="1" height="4.2"/>
</g>
<rect x="104.4" y="215" class="st7" width="12.7" height="6"/>
<rect x="104.5" y="215" class="st7" width="12.5" height="6"/>
<text transform="matrix(1 0 0 1 102.8998 219.8812)" class="st8 st9">R 8.0</text>
<rect x="104.4" y="371" class="st7" width="12.7" height="6"/>
<rect x="104.5" y="371" class="st7" width="12.5" height="6"/>
<text transform="matrix(1 0 0 1 102.8998 375.8842)" class="st8 st9">R 8.0</text>
<rect x="267.7" y="371" class="st7" width="12.7" height="6"/>
<rect x="267.8" y="371" class="st7" width="12.5" height="6"/>
<text transform="matrix(1 0 0 1 261.9861 375.8842)" class="st8 st9">W/B 0.35</text>
<rect x="515.5" y="371" class="st7" width="12.7" height="6"/>
<rect x="515.6" y="371" class="st7" width="12.5" height="6"/>
<text transform="matrix(1 0 0 1 508.6675 375.8842)" class="st8 st9">L/Y 0.35</text>
<rect x="267.7" y="326.7" class="st7" width="12.7" height="6"/>
<rect x="267.8" y="326.7" class="st7" width="12.5" height="6"/>
<text transform="matrix(1 0 0 1 261.9861 331.5509)" class="st8 st9">W/B 0.35</text>
<g id="FF09_x2C_A1_1_">
	<rect x="107" y="130.9" class="st19" width="7.7" height="21.1"/>
	<g>
		<g>
			<path class="st24" d="M110.8,147.2c-1.2,0-2.2,1-2.2,2.2s1,2.2,2.2,2.2s2.2-1,2.2-2.2S112,147.2,110.8,147.2"/>
		</g>
		<g>
			<path class="st24" d="M110.8,131.4c-1.2,0-2.2,1-2.2,2.1c0,1.2,1,2.2,2.2,2.2s2.2-0.9,2.2-2.2C113,132.4,112,131.4,110.8,131.4"
				/>
		</g>
		<g>
			<path class="st24" d="M109.3,135.2c-0.1,2.5,0.2,3.2,1.3,4.3c1.2,1.2,2.4,1.7,2.8,3.7c0.4,1.6-0.1,3.5-1.1,4.5"/>
		</g>
		<g>
			<path class="st24" d="M112.2,147.8c0.2-0.8,0-2.9-0.7-3.7c-0.9-1.2-2.7-2.1-3.3-4c-0.9-2.8,0.7-4.6,1.1-5"/>
		</g>
	</g>
</g>
<g>
	<g>
		<line class="st22" x1="110.8" y1="131.4" x2="110.8" y2="47.7"/>
	</g>
</g>
<polygon class="st19" points="127.6,142 127.6,148.3 115.4,148.3 115.4,135.5 130.5,135.5 130.5,142 "/>
<g>
	<text transform="matrix(1 0 0 1 116.1038 147.6041)" class="st8 st9">100A</text>
</g>
<g>
	<g>
		<polyline class="st22" points="110.6,151.8 110.6,164.7 110.6,177.1 		"/>
	</g>
</g>
<g>
	<line class="st22" x1="110.6" y1="185.4" x2="110.6" y2="177.2"/>
	<path class="st7" d="M110.7,188.5c-1.6,0-3-1.4-3-3c0-1.8,1.4-3.2,3-3.2c1.8,0,3.2,1.4,3.2,3.2
		C113.8,187.1,112.4,188.5,110.7,188.5"/>
	<path d="M110.7,189.1c-2,0-3.7-1.6-3.7-3.7c0-2.2,1.7-3.8,3.7-3.8v1.1c-1.4,0-2.5,1.1-2.5,2.7c0,1.4,1.1,2.5,2.5,2.5V189.1z
		 M110.7,181.6v1.1c1.5,0,2.7,1.1,2.7,2.7c0,1.4-1.1,2.5-2.7,2.5v1.1c2.2,0,3.8-1.6,3.8-3.7C114.5,183.3,112.8,181.6,110.7,181.6"/>
	<rect x="106.5" y="181.2" class="st7" width="8.5" height="4.1"/>
	<rect x="110" y="182.1" width="1" height="4.2"/>
	<rect x="110" y="182.1" class="st23" width="1" height="4.2"/>
</g>
<g>
	<line class="st22" x1="273.3" y1="185.4" x2="273.3" y2="177.2"/>
	<path class="st7" d="M273.4,188.5c-1.6,0-3-1.4-3-3c0-1.8,1.4-3.2,3-3.2c1.8,0,3.2,1.4,3.2,3.2
		C276.6,187.1,275.2,188.5,273.4,188.5"/>
	<path d="M273.4,189.1c-2,0-3.7-1.6-3.7-3.7c0-2.2,1.7-3.8,3.7-3.8v1.1c-1.4,0-2.5,1.1-2.5,2.7c0,1.4,1.1,2.5,2.5,2.5V189.1z
		 M273.4,181.6v1.1c1.5,0,2.7,1.1,2.7,2.7c0,1.4-1.1,2.5-2.7,2.5v1.1c2.2,0,3.8-1.6,3.8-3.7C277.2,183.3,275.6,181.6,273.4,181.6"/>
	<rect x="269.2" y="181.2" class="st7" width="8.5" height="4.1"/>
	<rect x="272.8" y="182.1" width="1" height="4.2"/>
	<rect x="272.8" y="182.1" class="st23" width="1" height="4.2"/>
</g>
<g>
	<line class="st22" x1="722" y1="185.4" x2="722" y2="177.2"/>
	<path class="st7" d="M722.1,188.5c-1.6,0-3-1.4-3-3c0-1.8,1.4-3.2,3-3.2c1.8,0,3.2,1.4,3.2,3.2
		C725.3,187.1,723.9,188.5,722.1,188.5"/>
	<path d="M722.1,189.1c-2,0-3.7-1.6-3.7-3.7c0-2.2,1.7-3.8,3.7-3.8v1.1c-1.4,0-2.5,1.1-2.5,2.7c0,1.4,1.1,2.5,2.5,2.5V189.1z
		 M722.1,181.6v1.1c1.5,0,2.7,1.1,2.7,2.7c0,1.4-1.1,2.5-2.7,2.5v1.1c2.2,0,3.8-1.6,3.8-3.7C725.9,183.3,724.2,181.6,722.1,181.6"/>
	<rect x="717.9" y="181.2" class="st7" width="8.5" height="4.1"/>
	<rect x="721.4" y="182.1" width="1" height="4.2"/>
	<rect x="721.4" y="182.1" class="st23" width="1" height="4.2"/>
</g>
<g>
	<line class="st22" x1="637.3" y1="185.4" x2="637.3" y2="177.2"/>
	<path class="st7" d="M637.4,188.5c-1.6,0-3-1.4-3-3c0-1.8,1.4-3.2,3-3.2c1.8,0,3.2,1.4,3.2,3.2
		C640.6,187.1,639.2,188.5,637.4,188.5"/>
	<path d="M637.4,189.1c-2,0-3.7-1.6-3.7-3.7c0-2.2,1.7-3.8,3.7-3.8v1.1c-1.4,0-2.5,1.1-2.5,2.7c0,1.4,1.1,2.5,2.5,2.5V189.1z
		 M637.4,181.6v1.1c1.5,0,2.7,1.1,2.7,2.7c0,1.4-1.1,2.5-2.7,2.5v1.1c2.2,0,3.8-1.6,3.8-3.7C641.2,183.3,639.5,181.6,637.4,181.6"/>
	<rect x="633.2" y="181.2" class="st7" width="8.5" height="4.1"/>
	<rect x="636.7" y="182.1" width="1" height="4.2"/>
	<rect x="636.7" y="182.1" class="st23" width="1" height="4.2"/>
</g>
<g>
	<line class="st22" x1="274.1" y1="252.8" x2="274.1" y2="261.1"/>
	<path class="st7" d="M274,249.8c1.6,0,3,1.4,3,3c0,1.8-1.4,3.2-3,3.2c-1.8,0-3.2-1.4-3.2-3.2C270.8,251.2,272.2,249.8,274,249.8"/>
	<path d="M274,249.1c2,0,3.7,1.6,3.7,3.7c0,2.2-1.7,3.8-3.7,3.8v-1.1c1.4,0,2.5-1.1,2.5-2.7c0-1.4-1.1-2.5-2.5-2.5V249.1z
		 M274,256.6v-1.1c-1.5,0-2.7-1.1-2.7-2.7c0-1.4,1.1-2.5,2.7-2.5v-1.1c-2.2,0-3.8,1.6-3.8,3.7C270.2,255,271.8,256.6,274,256.6"/>
	<rect x="269.6" y="252.9" class="st7" width="8.5" height="4.1"/>
	<rect x="273.6" y="251.9" width="1" height="4.2"/>
	<rect x="273.6" y="251.9" class="st23" width="1" height="4.2"/>
</g>
<g>
	<line class="st22" x1="326.4" y1="252.8" x2="326.4" y2="261.1"/>
	<path class="st7" d="M326.3,249.8c1.6,0,3,1.4,3,3c0,1.8-1.4,3.2-3,3.2c-1.8,0-3.2-1.4-3.2-3.2
		C323.1,251.2,324.5,249.8,326.3,249.8"/>
	<path d="M326.3,249.1c2,0,3.7,1.6,3.7,3.7c0,2.2-1.7,3.8-3.7,3.8v-1.1c1.4,0,2.5-1.1,2.5-2.7c0-1.4-1.1-2.5-2.5-2.5V249.1z
		 M326.3,256.6v-1.1c-1.5,0-2.7-1.1-2.7-2.7c0-1.4,1.1-2.5,2.7-2.5v-1.1c-2.2,0-3.8,1.6-3.8,3.7C322.5,255,324.1,256.6,326.3,256.6"
		/>
	<rect x="322" y="252.9" class="st7" width="8.5" height="4.1"/>
	<rect x="325.9" y="251.9" width="1" height="4.2"/>
	<rect x="325.9" y="251.9" class="st23" width="1" height="4.2"/>
</g>
<g>
	<line class="st22" x1="273.9" y1="312.2" x2="273.9" y2="304"/>
	<path class="st7" d="M274,315.3c-1.6,0-3-1.4-3-3c0-1.8,1.4-3.2,3-3.2c1.8,0,3.2,1.4,3.2,3.2C277.2,313.9,275.8,315.3,274,315.3"/>
	<path d="M274,315.9c-2,0-3.7-1.6-3.7-3.7c0-2.2,1.7-3.8,3.7-3.8v1.1c-1.4,0-2.5,1.1-2.5,2.7c0,1.4,1.1,2.5,2.5,2.5V315.9z
		 M274,308.4v1.1c1.5,0,2.7,1.1,2.7,2.7c0,1.4-1.1,2.5-2.7,2.5v1.1c2.2,0,3.8-1.6,3.8-3.7C277.8,310.1,276.2,308.4,274,308.4"/>
	<rect x="269.8" y="308.1" class="st7" width="8.5" height="4.1"/>
	<rect x="273.4" y="308.9" width="1" height="4.2"/>
	<rect x="273.4" y="308.9" class="st23" width="1" height="4.2"/>
</g>
<g>
	<line class="st22" x1="325.9" y1="395.9" x2="325.9" y2="404.2"/>
	<path class="st7" d="M325.8,392.9c1.6,0,3,1.4,3,3c0,1.8-1.4,3.2-3,3.2c-1.8,0-3.2-1.4-3.2-3.2C322.6,394.3,324,392.9,325.8,392.9"
		/>
	<path d="M325.8,392.3c2,0,3.7,1.6,3.7,3.7c0,2.2-1.7,3.8-3.7,3.8v-1.1c1.4,0,2.5-1.1,2.5-2.7c0-1.4-1.1-2.5-2.5-2.5V392.3z
		 M325.8,399.7v-1.1c-1.5,0-2.7-1.1-2.7-2.7c0-1.4,1.1-2.5,2.7-2.5v-1.1c-2.2,0-3.8,1.6-3.8,3.7S323.6,399.7,325.8,399.7"/>
	<rect x="321.5" y="396.1" class="st7" width="8.5" height="4.1"/>
	<rect x="325.4" y="395.1" width="1" height="4.2"/>
	<rect x="325.4" y="395.1" class="st23" width="1" height="4.2"/>
</g>
<g>
	<line class="st22" x1="326.1" y1="312.4" x2="326.1" y2="304.2"/>
	<path class="st7" d="M326.2,315.5c-1.6,0-3-1.4-3-3c0-1.8,1.4-3.2,3-3.2c1.8,0,3.2,1.4,3.2,3.2
		C329.3,314.1,327.9,315.5,326.2,315.5"/>
	<path d="M326.2,316.1c-2,0-3.7-1.6-3.7-3.7c0-2.2,1.7-3.8,3.7-3.8v1.1c-1.4,0-2.5,1.1-2.5,2.7c0,1.4,1.1,2.5,2.5,2.5V316.1z
		 M326.2,308.6v1.1c1.5,0,2.7,1.1,2.7,2.7c0,1.4-1.1,2.5-2.7,2.5v1.1c2.2,0,3.8-1.6,3.8-3.7C330,310.3,328.3,308.6,326.2,308.6"/>
	<rect x="322" y="308.2" class="st7" width="8.5" height="4.1"/>
	<rect x="325.5" y="309.1" width="1" height="4.2"/>
	<rect x="325.5" y="309.1" class="st23" width="1" height="4.2"/>
</g>
<g>
	<path class="st25" d="M107.9,47.1c0-1.7,1.3-2.9,2.8-2.9c1.6,0,2.9,1.2,2.9,2.9c0,1.5-1.3,2.7-2.9,2.7
		C109.2,49.9,107.9,48.7,107.9,47.1z"/>
	<g>
		<path class="st26" d="M107.9,47.1c0-1.7,1.3-2.9,2.8-2.9c1.6,0,2.9,1.2,2.9,2.9c0,1.5-1.3,2.7-2.9,2.7
			C109.2,49.9,107.9,48.7,107.9,47.1"/>
	</g>
</g>
<g id="FF09_x2C_A1_2_">
	<rect x="269.7" y="130.9" class="st19" width="7.7" height="21.1"/>
	<g>
		<g>
			<path class="st24" d="M273.5,147.2c-1.2,0-2.2,1-2.2,2.2s1,2.2,2.2,2.2s2.2-1,2.2-2.2S274.7,147.2,273.5,147.2"/>
		</g>
		<g>
			<path class="st24" d="M273.5,131.4c-1.2,0-2.2,1-2.2,2.1c0,1.2,1,2.2,2.2,2.2s2.2-0.9,2.2-2.2
				C275.7,132.4,274.7,131.4,273.5,131.4"/>
		</g>
		<g>
			<path class="st24" d="M272,135.2c-0.1,2.5,0.2,3.2,1.3,4.3c1.2,1.2,2.4,1.7,2.8,3.7c0.4,1.6-0.1,3.5-1.1,4.5"/>
		</g>
		<g>
			<path class="st24" d="M274.9,147.8c0.2-0.8,0-2.9-0.7-3.7c-0.9-1.2-2.7-2.1-3.3-4c-0.9-2.8,0.7-4.6,1.1-5"/>
		</g>
	</g>
</g>
<g>
	<g>
		<line class="st22" x1="273.5" y1="131.4" x2="273.5" y2="47.7"/>
	</g>
</g>
<polygon class="st19" points="290.3,142 290.3,148.3 278.1,148.3 278.1,135.5 293.2,135.5 293.2,142 "/>
<g>
	<text transform="matrix(1 0 0 1 278.791 147.6041)" class="st8 st9">5A</text>
</g>
<g>
	<g>
		<polyline class="st22" points="273.3,151.8 273.3,164.7 273.3,177.1 		"/>
	</g>
</g>
<g>
	<path class="st25" d="M270.6,47.1c0-1.7,1.3-2.9,2.8-2.9c1.6,0,2.9,1.2,2.9,2.9c0,1.5-1.3,2.7-2.9,2.7
		C271.9,49.9,270.6,48.7,270.6,47.1z"/>
	<g>
		<path class="st26" d="M270.6,47.1c0-1.7,1.3-2.9,2.8-2.9c1.6,0,2.9,1.2,2.9,2.9c0,1.5-1.3,2.7-2.9,2.7
			C271.9,49.9,270.6,48.7,270.6,47.1"/>
	</g>
</g>
<g id="GB031_2_">
	<g>
		<g>
			<line class="st12" x1="388.5" y1="367.1" x2="388.5" y2="369.8"/>
		</g>
		<g>
			<line class="st12" x1="381.5" y1="369.8" x2="395.3" y2="369.8"/>
		</g>
		<g>
			<line class="st12" x1="384.3" y1="372" x2="392.5" y2="372"/>
		</g>
		<g>
			<line class="st12" x1="390.8" y1="374.1" x2="386" y2="374.1"/>
		</g>
	</g>
	<g>
		<rect x="378.1" y="376.6" class="st7" width="20.3" height="8.2"/>
		<rect x="378.4" y="377" class="st13" width="19.7" height="7.6"/>
	</g>
</g>
<rect x="277.8" y="347.1" class="st10" width="24.7" height="6.8"/>
<text transform="matrix(1 0 0 1 278.7096 352.7815)" class="st8 st9">SP4738</text>
<path class="st11" d="M276.6,351c0,1.7-1.3,2.9-2.8,2.9c-1.6,0-2.9-1.2-2.9-2.9c0-1.5,1.3-2.7,2.9-2.7
	C275.3,348.3,276.6,349.5,276.6,351z"/>
<g>
	<path class="st27" d="M734.7,446.9H100.2V404h634.5c0,0-5.9,6.3,0,15.3S734.7,446.9,734.7,446.9z"/>
</g>
<g>
	<text transform="matrix(1 0 0 1 106.7845 409.0449)" class="st8 st28">Constant power</text>
</g>
<g>
	<text transform="matrix(1 0 0 1 261.1057 409.0449)" class="st8 st28">12V braking signal</text>
</g>
<g>
	<text transform="matrix(1 0 0 1 315.085 409.2307)" class="st8 st28">0V braking signal</text>
</g>
<g id="REB_x2C_A3_1_">
	<rect x="257.2" y="261.1" class="st27" width="95" height="42.9"/>
</g>
<rect x="319.6" y="371.2" class="st7" width="12.7" height="6"/>
<rect x="319.7" y="371.2" class="st7" width="12.5" height="6"/>
<text transform="matrix(1 0 0 1 312.5308 376.0701)" class="st8 st9">B/R 0.35</text>
<rect x="319.6" y="326.8" class="st7" width="12.7" height="6"/>
<rect x="319.7" y="326.8" class="st7" width="12.5" height="6"/>
<text transform="matrix(1 0 0 1 312.5308 331.7367)" class="st8 st9">B/R 0.35</text>
<rect x="514.9" y="215" class="st7" width="12.7" height="6"/>
<rect x="515" y="215" class="st7" width="12.5" height="6"/>
<text transform="matrix(1 0 0 1 508.579 219.8812)" class="st8 st9">L/Y 0.35</text>
<rect x="631.5" y="215" class="st7" width="12.7" height="6"/>
<rect x="631.6" y="215" class="st7" width="12.5" height="6"/>
<text transform="matrix(1 0 0 1 625.2131 219.881)" class="st8 st9">L/Y 0.35</text>
<g>
	<path class="st27" d="M742.5,177.2h-121v-32.1h121c0,0-3.9,4.7,0,11.4C746.4,163.3,742.5,177.2,742.5,177.2z"/>
</g>
<g>
	<line class="st22" x1="478.1" y1="185.4" x2="478.1" y2="177.2"/>
	<path class="st7" d="M478.2,188.5c-1.6,0-3-1.4-3-3c0-1.8,1.4-3.2,3-3.2c1.8,0,3.2,1.4,3.2,3.2C481.4,187.1,480,188.5,478.2,188.5"
		/>
	<path d="M478.2,189.1c-2,0-3.7-1.6-3.7-3.7c0-2.2,1.7-3.8,3.7-3.8v1.1c-1.4,0-2.5,1.1-2.5,2.7c0,1.4,1.1,2.5,2.5,2.5V189.1z
		 M478.2,181.6v1.1c1.5,0,2.7,1.1,2.7,2.7c0,1.4-1.1,2.5-2.7,2.5v1.1c2.2,0,3.8-1.6,3.8-3.7C482,183.3,480.4,181.6,478.2,181.6"/>
	<rect x="474" y="181.2" class="st7" width="8.5" height="4.1"/>
	<rect x="477.6" y="182.1" width="1" height="4.2"/>
	<rect x="477.6" y="182.1" class="st23" width="1" height="4.2"/>
</g>
<g>
	<line class="st22" x1="521" y1="185.4" x2="521" y2="177.2"/>
	<path class="st7" d="M521.1,188.5c-1.6,0-3-1.4-3-3c0-1.8,1.4-3.2,3-3.2c1.8,0,3.2,1.4,3.2,3.2
		C524.3,187.1,522.9,188.5,521.1,188.5"/>
	<path d="M521.1,189.1c-2,0-3.7-1.6-3.7-3.7c0-2.2,1.7-3.8,3.7-3.8v1.1c-1.4,0-2.5,1.1-2.5,2.7c0,1.4,1.1,2.5,2.5,2.5V189.1z
		 M521.1,181.6v1.1c1.5,0,2.7,1.1,2.7,2.7c0,1.4-1.1,2.5-2.7,2.5v1.1c2.2,0,3.8-1.6,3.8-3.7C524.9,183.3,523.3,181.6,521.1,181.6"/>
	<rect x="516.9" y="181.2" class="st7" width="8.5" height="4.1"/>
	<rect x="520.5" y="182.1" width="1" height="4.2"/>
	<rect x="520.5" y="182.1" class="st23" width="1" height="4.2"/>
</g>
<g>
	<path class="st27" d="M593.6,177.2h-128v-32.1h127.9c0,0-3.9,4.7,0,11.4C597.6,163.3,593.6,177.2,593.6,177.2z"/>
</g>
<g>
	<text transform="matrix(1 0 0 1 472.7379 174.6306)" class="st8 st28">Ground</text>
</g>
<g>
	<text transform="matrix(1 0 0 1 717.8212 174.6306)" class="st8 st28">Ground</text>
</g>
<g>
	<text transform="matrix(1 0 0 1 499.634 170.3726)" class="st29"><tspan x="0" y="0" class="st8 st28">Low brightness</tspan><tspan x="0" y="4.8" class="st8 st28"> power supply of brake light</tspan></text>
</g>
<g>
	<text transform="matrix(1 0 0 1 625.0996 165.9852)" class="st29"><tspan x="0" y="0" class="st8 st28">Low brightness </tspan><tspan x="0" y="4.8" class="st8 st28">power supply </tspan><tspan x="0" y="9.6" class="st8 st28">of brake light</tspan></text>
</g>
<g>
	<text transform="matrix(1 0 0 1 480.7003 409.0446)" class="st8 st28">Low brightness power supply of brake light</text>
</g>
<line class="st30" x1="274.1" y1="261.1" x2="274.1" y2="274.8"/>
<polyline class="st30" points="274.1,303.9 274.1,290.1 272.8,274.7 "/>
<path class="st7" d="M275.3,290.1c0,0.7-0.6,1.3-1.3,1.3c-0.7,0-1.3-0.6-1.3-1.3c0-0.7,0.6-1.3,1.3-1.3
	C274.8,288.8,275.3,289.4,275.3,290.1"/>
<circle class="st30" cx="274.1" cy="290.1" r="1.3"/>
<path class="st7" d="M275.3,274.8c0,0.7-0.6,1.3-1.3,1.3c-0.7,0-1.3-0.6-1.3-1.3c0-0.7,0.6-1.3,1.3-1.3
	C274.8,273.5,275.3,274,275.3,274.8"/>
<circle class="st30" cx="274.1" cy="274.8" r="1.3"/>
<line class="st30" x1="326.3" y1="261.1" x2="326.3" y2="274.8"/>
<polyline class="st30" points="326.1,303.9 326.1,290.1 317.2,274.8 "/>
<path class="st7" d="M327.6,290.1c0,0.7-0.6,1.3-1.3,1.3c-0.7,0-1.3-0.6-1.3-1.3c0-0.7,0.6-1.3,1.3-1.3
	C327,288.8,327.6,289.4,327.6,290.1"/>
<circle class="st30" cx="326.3" cy="290.1" r="1.3"/>
<path class="st7" d="M327.6,274.8c0,0.7-0.6,1.3-1.3,1.3c-0.7,0-1.3-0.6-1.3-1.3c0-0.7,0.6-1.3,1.3-1.3S327.6,274,327.6,274.8"/>
<circle class="st30" cx="326.3" cy="274.8" r="1.3"/>
<rect x="728.5" y="243.6" class="st10" width="24.7" height="6.8"/>
<text transform="matrix(1 0 0 1 729.1943 249.2036)" class="st8 st9">SP4862</text>
<path class="st11" d="M725,247.5c0,1.7-1.3,2.9-2.8,2.9c-1.6,0-2.9-1.2-2.9-2.9c0-1.5,1.3-2.7,2.9-2.7
	C723.7,244.8,725,246,725,247.5z"/>
<rect x="524.9" y="239" class="st10" width="24.7" height="5.6"/>
<text transform="matrix(1 0 0 1 525.5643 243.9036)" class="st8 st9">SP4931</text>
<path class="st11" d="M524.6,248.2c0,1.7-1.3,2.9-2.8,2.9c-1.6,0-2.9-1.2-2.9-2.9c0-1.5,1.3-2.7,2.9-2.7
	C523.3,245.5,524.6,246.7,524.6,248.2z"/>
<g id="GB031_3_">
	<g>
		<g>
			<line class="st12" x1="722.4" y1="367.1" x2="722.4" y2="369.8"/>
		</g>
		<g>
			<line class="st12" x1="715.4" y1="369.8" x2="729.2" y2="369.8"/>
		</g>
		<g>
			<line class="st12" x1="718.2" y1="372" x2="726.4" y2="372"/>
		</g>
		<g>
			<line class="st12" x1="724.7" y1="374.1" x2="719.9" y2="374.1"/>
		</g>
	</g>
	<g>
		<rect x="712" y="376.6" class="st7" width="20.3" height="8.2"/>
		<rect x="712.3" y="377" class="st13" width="19.7" height="7.6"/>
	</g>
</g>
<line class="st6" x1="247.4" y1="458.2" x2="247.4" y2="768.2"/>
<g>
	<line class="st22" x1="247.4" y1="455.3" x2="247.4" y2="447.1"/>
	<path class="st7" d="M247.5,458.4c-1.7,0-3-1.4-3-3c0-1.8,1.4-3.2,3-3.2c1.8,0,3.2,1.4,3.2,3.2C250.7,457,249.3,458.4,247.5,458.4"
		/>
	<path d="M247.5,459c-2,0-3.7-1.6-3.7-3.7c0-2.2,1.7-3.8,3.7-3.8v1.1c-1.4,0-2.5,1.1-2.5,2.7c0,1.4,1.1,2.5,2.5,2.5V459z
		 M247.5,451.5v1.1c1.5,0,2.7,1.1,2.7,2.7c0,1.4-1.1,2.5-2.7,2.5v1.1c2.2,0,3.8-1.6,3.8-3.7C251.3,453.2,249.7,451.5,247.5,451.5"/>
	<rect x="243.3" y="451.1" class="st7" width="8.5" height="4.1"/>
	<rect x="246.9" y="452" width="1" height="4.2"/>
	<rect x="246.9" y="452" class="st23" width="1" height="4.2"/>
</g>
<line class="st6" x1="297.5" y1="458.2" x2="297.5" y2="768.7"/>
<g>
	<line class="st22" x1="297.6" y1="455.3" x2="297.6" y2="447.1"/>
	<path class="st7" d="M297.7,458.4c-1.6,0-3-1.4-3-3c0-1.8,1.4-3.2,3-3.2c1.8,0,3.2,1.4,3.2,3.2C300.9,457,299.5,458.4,297.7,458.4"
		/>
	<path d="M297.7,459c-2,0-3.7-1.6-3.7-3.7c0-2.2,1.7-3.8,3.7-3.8v1.1c-1.4,0-2.5,1.1-2.5,2.7c0,1.4,1.1,2.5,2.5,2.5V459z
		 M297.7,451.5v1.1c1.5,0,2.7,1.1,2.7,2.7c0,1.4-1.1,2.5-2.7,2.5v1.1c2.2,0,3.8-1.6,3.8-3.7C301.5,453.2,299.9,451.5,297.7,451.5"/>
	<rect x="293.5" y="451.1" class="st7" width="8.5" height="4.1"/>
	<rect x="297.1" y="452" width="1" height="4.2"/>
	<rect x="297.1" y="452" class="st23" width="1" height="4.2"/>
</g>
<g>
	<line class="st22" x1="388.6" y1="455.3" x2="388.6" y2="447.1"/>
	<path class="st7" d="M388.7,458.4c-1.6,0-3-1.4-3-3c0-1.8,1.4-3.2,3-3.2c1.8,0,3.2,1.4,3.2,3.2C391.9,457,390.5,458.4,388.7,458.4"
		/>
	<path d="M388.7,459c-2,0-3.7-1.6-3.7-3.7c0-2.2,1.7-3.8,3.7-3.8v1.1c-1.4,0-2.5,1.1-2.5,2.7c0,1.4,1.1,2.5,2.5,2.5V459z
		 M388.7,451.5v1.1c1.5,0,2.7,1.1,2.7,2.7c0,1.4-1.1,2.5-2.7,2.5v1.1c2.2,0,3.8-1.6,3.8-3.7C392.5,453.2,390.9,451.5,388.7,451.5"/>
	<rect x="384.5" y="451.1" class="st7" width="8.5" height="4.1"/>
	<rect x="388.1" y="452" width="1" height="4.2"/>
	<rect x="388.1" y="452" class="st23" width="1" height="4.2"/>
</g>
<g>
	<line class="st22" x1="439.2" y1="455.3" x2="439.2" y2="447.1"/>
	<path class="st7" d="M439.3,458.4c-1.6,0-3-1.4-3-3c0-1.8,1.4-3.2,3-3.2c1.8,0,3.2,1.4,3.2,3.2C442.5,457,441.1,458.4,439.3,458.4"
		/>
	<path d="M439.3,459c-2,0-3.7-1.6-3.7-3.7c0-2.2,1.7-3.8,3.7-3.8v1.1c-1.4,0-2.5,1.1-2.5,2.7c0,1.4,1.1,2.5,2.5,2.5V459z
		 M439.3,451.5v1.1c1.5,0,2.7,1.1,2.7,2.7c0,1.4-1.1,2.5-2.7,2.5v1.1c2.2,0,3.8-1.6,3.8-3.7C443.1,453.2,441.5,451.5,439.3,451.5"/>
	<rect x="435.1" y="451.1" class="st7" width="8.5" height="4.1"/>
	<rect x="438.7" y="452" width="1" height="4.2"/>
	<rect x="438.7" y="452" class="st23" width="1" height="4.2"/>
</g>
<g id="GB031_8_">
	<g>
		<g>
			<line class="st12" x1="247.4" y1="766.9" x2="247.4" y2="769.6"/>
		</g>
		<g>
			<line class="st12" x1="240.4" y1="769.6" x2="254.2" y2="769.6"/>
		</g>
		<g>
			<line class="st12" x1="243.2" y1="771.8" x2="251.4" y2="771.8"/>
		</g>
		<g>
			<line class="st12" x1="249.7" y1="773.9" x2="244.9" y2="773.9"/>
		</g>
	</g>
	<g>
		<rect x="237" y="776.4" class="st7" width="20.3" height="8.2"/>
		<rect x="237.3" y="776.8" class="st13" width="19.7" height="7.6"/>
	</g>
</g>
<g id="GB031_6_">
	<g>
		<g>
			<line class="st12" x1="297.6" y1="766.9" x2="297.6" y2="769.6"/>
		</g>
		<g>
			<line class="st12" x1="290.6" y1="769.6" x2="304.4" y2="769.6"/>
		</g>
		<g>
			<line class="st12" x1="293.4" y1="771.8" x2="301.6" y2="771.8"/>
		</g>
		<g>
			<line class="st12" x1="299.9" y1="773.9" x2="295.1" y2="773.9"/>
		</g>
	</g>
	<g>
		<rect x="287.2" y="776.4" class="st7" width="20.3" height="8.2"/>
		<rect x="287.5" y="776.8" class="st13" width="19.7" height="7.6"/>
	</g>
</g>
<line class="st6" x1="194.4" y1="458.7" x2="194.4" y2="768.5"/>
<rect x="188.2" y="471.6" class="st7" width="12.5" height="6"/>
<text transform="matrix(1 0 0 1 186.8902 476.6873)" class="st8 st9">B 2.5</text>
<rect x="241.2" y="471.6" class="st7" width="12.5" height="6"/>
<text transform="matrix(1 0 0 1 239.8903 476.6873)" class="st8 st9">B 2.5</text>
<rect x="291.3" y="471.6" class="st7" width="12.5" height="6"/>
<text transform="matrix(1 0 0 1 288.1301 476.6873)" class="st8 st9">B 0.75</text>
<g>
	<line class="st22" x1="194.5" y1="455.4" x2="194.5" y2="447.2"/>
	<path class="st7" d="M194.6,458.5c-1.6,0-3-1.4-3-3c0-1.8,1.4-3.2,3-3.2c1.8,0,3.2,1.4,3.2,3.2
		C197.8,457.1,196.4,458.5,194.6,458.5"/>
	<path d="M194.6,459.1c-2,0-3.7-1.6-3.7-3.7c0-2.2,1.7-3.8,3.7-3.8v1.1c-1.4,0-2.5,1.1-2.5,2.7c0,1.4,1.1,2.5,2.5,2.5V459.1z
		 M194.6,451.6v1.1c1.5,0,2.7,1.1,2.7,2.7c0,1.4-1.1,2.5-2.7,2.5v1.1c2.2,0,3.8-1.6,3.8-3.7C198.4,453.3,196.8,451.6,194.6,451.6"/>
	<rect x="190.4" y="451.2" class="st7" width="8.5" height="4.1"/>
	<rect x="194" y="452.1" width="1" height="4.2"/>
	<rect x="194" y="452.1" class="st23" width="1" height="4.2"/>
</g>
<g id="GB031_5_">
	<g>
		<g>
			<line class="st12" x1="194.6" y1="766.9" x2="194.6" y2="769.6"/>
		</g>
		<g>
			<line class="st12" x1="187.6" y1="769.6" x2="201.4" y2="769.6"/>
		</g>
		<g>
			<line class="st12" x1="190.4" y1="771.8" x2="198.6" y2="771.8"/>
		</g>
		<g>
			<line class="st12" x1="196.9" y1="773.9" x2="192.1" y2="773.9"/>
		</g>
	</g>
	<g>
		<rect x="184.2" y="776.4" class="st7" width="20.3" height="8.2"/>
		<rect x="184.5" y="776.8" class="st13" width="19.7" height="7.6"/>
	</g>
</g>
<g>
	<text transform="matrix(1 0 0 1 237.0522 445.1498)" class="st8 st28">Power ground 2</text>
</g>
<g>
	<text transform="matrix(1 0 0 1 185.0998 445.1498)" class="st8 st28">Power ground 1</text>
</g>
<g>
	<text transform="matrix(1 0 0 1 289.2513 445.1498)" class="st8 st28">Signal ground</text>
</g>
<g>
	<text transform="matrix(1 0 0 1 379.5964 445.1498)" class="st8 st28">CAN_H</text>
</g>
<g>
	<text transform="matrix(1 0 0 1 432.0131 445.1498)" class="st8 st28">CAN_L</text>
</g>
<line class="st16" x1="195.1" y1="187.6" x2="195.1" y2="393.5"/>
<line class="st16" x1="195.1" y1="187.6" x2="195.1" y2="393.5"/>
<line class="st3" x1="195.1" y1="187.6" x2="195.1" y2="393.5"/>
<line class="st3" x1="195.1" y1="187.6" x2="195.1" y2="393.5"/>
<rect x="201.6" y="347" class="st10" width="25.3" height="6.8"/>
<text transform="matrix(1 0 0 1 202.5879 352.6472)" class="st8 st9">SP6005</text>
<path class="st11" d="M198.2,351.1c0,1.7-1.3,2.9-2.8,2.9c-1.6,0-2.9-1.2-2.9-2.9c0-1.5,1.3-2.7,2.9-2.7
	C196.9,348.4,198.2,349.6,198.2,351.1z"/>
<rect x="201.6" y="238.9" class="st10" width="25.3" height="6.8"/>
<text transform="matrix(1 0 0 1 202.5879 244.4757)" class="st8 st9">SP4915</text>
<path class="st11" d="M198.2,242.9c0,1.7-1.3,2.9-2.8,2.9c-1.6,0-2.9-1.2-2.9-2.9c0-1.5,1.3-2.7,2.9-2.7
	C196.9,240.2,198.2,241.4,198.2,242.9z"/>
<g id="RF22_x2C_A3_9_">
	<g>
		<g>
			<path class="st31" d="M195,146.7c-1.2,0-2.2,1-2.2,2.2s1,2.2,2.2,2.2s2.2-1,2.2-2.2C197.3,147.7,196.3,146.7,195,146.7"/>
		</g>
		<g>
			<path class="st31" d="M195,130.9c-1.2,0-2.2,1-2.2,2.1c0,1.2,1,2.2,2.2,2.2s2.2-0.9,2.2-2.2C197.3,131.9,196.3,130.9,195,130.9"
				/>
		</g>
		<g>
			<path class="st31" d="M193.5,134.7c-0.1,2.5,0.2,3.2,1.3,4.3c1.2,1.2,2.4,1.7,2.8,3.7c0.4,1.6-0.1,3.5-1.1,4.5"/>
		</g>
		<g>
			<path class="st31" d="M196.4,147.3c0.2-0.8,0-2.9-0.6-3.7c-0.9-1.2-2.7-2.1-3.3-4c-0.9-2.8,0.7-4.6,1.1-5"/>
		</g>
	</g>
</g>
<g>
	<g>
		<polyline class="st22" points="195,151.4 195,173.4 195,177.1 		"/>
	</g>
</g>
<g>
	<g>
		<polyline class="st22" points="195,130.9 195,127.9 195,70.6 		"/>
	</g>
</g>
<g>
	<g>
		<line class="st22" x1="195.1" y1="185.3" x2="195.1" y2="177.1"/>
	</g>
	<g>
		<path class="st7" d="M195.1,188.4c-1.7,0-3-1.4-3-3c0-1.8,1.4-3.2,3-3.2c1.8,0,3.2,1.4,3.2,3.2C198.3,187,196.9,188.4,195.1,188.4
			z"/>
		<path d="M195.1,189c-2,0-3.7-1.6-3.7-3.7c0-2.2,1.7-3.8,3.7-3.8v1.1c-1.4,0-2.5,1.1-2.5,2.7c0,1.4,1.1,2.5,2.5,2.5V189L195.1,189z
			 M195.1,181.5v1.1c1.5,0,2.7,1.1,2.7,2.7c0,1.4-1.1,2.5-2.7,2.5v1.1c2.2,0,3.8-1.6,3.8-3.7C198.9,183.2,197.3,181.5,195.1,181.5z"
			/>
	</g>
	<rect x="191" y="181.2" class="st7" width="8.5" height="4.1"/>
	<rect x="194.5" y="182" width="1" height="4.2"/>
	<rect x="194.5" y="182" class="st23" width="1" height="4.2"/>
</g>
<g>
	<g>
		<line class="st22" x1="195.4" y1="395.5" x2="195.4" y2="403.8"/>
	</g>
	<g>
		<path class="st7" d="M195.3,392.5c1.7,0,3,1.4,3,3c0,1.8-1.4,3.2-3,3.2c-1.8,0-3.2-1.4-3.2-3.2
			C192.1,393.9,193.5,392.5,195.3,392.5z"/>
		<path d="M195.3,391.9c2,0,3.7,1.7,3.7,3.7c0,2.2-1.7,3.8-3.7,3.8v-1.1c1.4,0,2.5-1.1,2.5-2.7c0-1.4-1.1-2.5-2.5-2.5V391.9
			L195.3,391.9z M195.3,399.3v-1.1c-1.5,0-2.7-1.1-2.7-2.7c0-1.4,1.1-2.5,2.7-2.5v-1.1c-2.2,0-3.8,1.7-3.8,3.7
			C191.5,397.7,193.1,399.3,195.3,399.3z"/>
	</g>
	<rect x="191" y="395.7" class="st7" width="8.5" height="4.1"/>
	<rect x="194.9" y="394.6" width="1" height="4.2"/>
	<rect x="194.9" y="394.6" class="st23" width="1" height="4.2"/>
</g>
<rect x="188.9" y="215" class="st7" width="12.5" height="6"/>
<g>
	<text transform="matrix(1 0 0 1 182.5209 219.8042)" class="st8 st9">R/Y 0.35</text>
</g>
<rect x="188.9" y="261.1" class="st7" width="12.5" height="6"/>
<g>
	<text transform="matrix(1 0 0 1 182.5209 265.8925)" class="st8 st9">R/Y 0.35</text>
</g>
<rect x="188.9" y="326.8" class="st7" width="12.5" height="6"/>
<g>
	<text transform="matrix(1 0 0 1 182.5209 331.6167)" class="st8 st9">R/Y 0.35</text>
</g>
<rect x="188.9" y="371.2" class="st7" width="12.5" height="6"/>
<g>
	<text transform="matrix(1 0 0 1 182.5209 376.2596)" class="st8 st9">R/Y 0.35</text>
</g>
<g>
	<path class="st25" d="M191.9,70.7c0-1.7,1.3-2.9,2.8-2.9c1.6,0,2.9,1.2,2.9,2.9c0,1.5-1.3,2.7-2.9,2.7
		C193.2,73.4,191.9,72.2,191.9,70.7z"/>
	<g>
		<path class="st26" d="M191.9,70.7c0-1.7,1.3-2.9,2.8-2.9c1.6,0,2.9,1.2,2.9,2.9c0,1.5-1.3,2.7-2.9,2.7
			C193.2,73.4,191.9,72.2,191.9,70.7"/>
	</g>
</g>
<g>
	<g>
		<text transform="matrix(1 0 0 1 199.3788 146.7089)" class="st8 st9">7.5A</text>
	</g>
</g>
<g>
	<rect x="190.8" y="285.8" class="st7" width="8.5" height="18.8"/>
	<g>
		<g>
			<line class="st32" x1="194.9" y1="294.5" x2="194.9" y2="286.2"/>
		</g>
		<g>
			<line class="st33" x1="195.1" y1="297.6" x2="195.1" y2="304.1"/>
		</g>
		<g>
			<g>
				<g>
					<path class="st7" d="M195,297.5c-1.7,0-3.2-1.4-3.2-3.2c0-1.8,1.5-3.2,3.2-3.2c1.8,0,3.2,1.4,3.2,3.2S196.8,297.5,195,297.5z"
						/>
					<path d="M195,298.1c-2,0-3.7-1.8-3.7-3.8h1.1c0,1.4,1.1,2.5,2.5,2.5c1.5,0,2.7-1.1,2.7-2.5h1.1
						C198.8,296.4,197.2,298.1,195,298.1L195,298.1z M191.4,294.3h1.1c0-1.4,1.1-2.5,2.5-2.5c1.5,0,2.7,1.1,2.7,2.5h1.1
						c0-2.2-1.6-3.8-3.8-3.8C193,290.5,191.4,292.2,191.4,294.3z"/>
				</g>
				<rect x="190.8" y="290.2" class="st7" width="8.5" height="4.1"/>
				<rect x="194.4" y="291" width="1" height="4.2"/>
				<rect x="194.4" y="291" class="st23" width="1" height="4.2"/>
			</g>
		</g>
	</g>
</g>
<g>
	<text transform="matrix(1 0 0 1 187.3948 409.0447)" class="st8 st28">IG3 power supply</text>
</g>
<g>
	<text transform="matrix(1 0 0 1 362.2229 752.4669)" class="st8 st9">See Energy Network - Circuit Diagram</text>
</g>
<path class="st34" d="M382.3,739.3l0.5,2.1c0,0,0.5,2.5,2.7,2.6h28.3l0,0l1.6,2.7l1.6-2.7c7.4,0,28.2,0,28.2,0
	c2.2-0.1,2.7-2.6,2.7-2.6l0.5-2.1"/>
<polygon class="st35" points="724.7,173.4 718,173.4 718,173.4 "/>
<line class="st0" x1="680.1" y1="300.7" x2="680.1" y2="397"/>
<line class="st1" x1="680.1" y1="300.7" x2="680.1" y2="397"/>
<g>
	<line class="st22" x1="679.8" y1="395.8" x2="679.8" y2="404"/>
	<path class="st7" d="M679.7,392.7c1.6,0,3,1.4,3,3c0,1.8-1.4,3.2-3,3.2c-1.8,0-3.2-1.4-3.2-3.2
		C676.5,394.1,677.9,392.7,679.7,392.7"/>
	<path d="M679.7,392.1c2,0,3.7,1.6,3.7,3.7c0,2.2-1.7,3.8-3.7,3.8v-1.1c1.4,0,2.5-1.1,2.5-2.7c0-1.4-1.1-2.5-2.5-2.5V392.1z
		 M679.7,399.6v-1.1c-1.5,0-2.7-1.1-2.7-2.7c0-1.4,1.1-2.5,2.7-2.5v-1.1c-2.2,0-3.8,1.6-3.8,3.7
		C675.9,397.9,677.5,399.6,679.7,399.6"/>
	<rect x="675.4" y="395.9" class="st7" width="8.5" height="4.1"/>
	<rect x="679.3" y="394.9" width="1" height="4.2"/>
	<rect x="679.3" y="394.9" class="st23" width="1" height="4.2"/>
</g>
<rect x="673.3" y="371" class="st7" width="12.7" height="6"/>
<rect x="673.4" y="371" class="st7" width="12.5" height="6"/>
<text transform="matrix(1 0 0 1 666.4548 375.8842)" class="st8 st9">Y/R 0.35</text>
<g>
	<text transform="matrix(1 0 0 1 664.6915 409.0449)" class="st8 st28">Brake light drive</text>
</g>
<rect x="684.2" y="289.9" class="st10" width="24.7" height="6.8"/>
<text transform="matrix(1 0 0 1 684.8716 295.3124)" class="st8 st9">SP4768</text>
<g>
	<line class="st22" x1="595.8" y1="539.2" x2="595.8" y2="547.4"/>
	<path class="st7" d="M595.7,536.1c1.6,0,3,1.4,3,3c0,1.8-1.4,3.2-3,3.2c-1.8,0-3.2-1.4-3.2-3.2
		C592.5,537.5,593.9,536.1,595.7,536.1"/>
	<path d="M595.7,535.5c2,0,3.7,1.6,3.7,3.7c0,2.2-1.7,3.8-3.7,3.8v-1.1c1.4,0,2.5-1.1,2.5-2.7c0-1.4-1.1-2.5-2.5-2.5V535.5z
		 M595.7,543v-1.1c-1.5,0-2.7-1.1-2.7-2.7c0-1.4,1.1-2.5,2.7-2.5v-1.1c-2.2,0-3.8,1.6-3.8,3.7C591.9,541.3,593.5,543,595.7,543"/>
	<rect x="591.4" y="539.3" class="st7" width="8.5" height="4.1"/>
	<rect x="595.3" y="538.3" width="1" height="4.2"/>
	<rect x="595.3" y="538.3" class="st23" width="1" height="4.2"/>
</g>
<g>
	<g>
		<g>
			<text transform="matrix(1 0 0 1 470.5825 382.949)" class="st36 st8 st9">Ek05</text>
		</g>
	</g>
</g>
<g>
	<g id="FB103_19_">
		<g>
			<g id="FB103_20_">
				<g>
					<g>
						<text transform="matrix(1 0 0 1 429.5139 427.9072)" class="st36 st8 st37">Left domain control module</text>
					</g>
				</g>
			</g>
		</g>
	</g>
</g>
<g>
	<g>
		<text transform="matrix(1 0 0 1 115.8992 140.986)" class="st36 st8 st9">F4/03</text>
	</g>
</g>
<g>
	<g>
		<text transform="matrix(1 0 0 1 278.5865 140.986)" class="st36 st8 st9">F1/15</text>
	</g>
</g>
<g>
	<g>
		<text transform="matrix(1 0 0 1 278.9571 400.568)" class="st36 st8 st9">BG64(B)</text>
	</g>
</g>
<g>
	<g>
		<text transform="matrix(1 0 0 1 304.1065 400.568)" class="st36 st8 st9">-36</text>
	</g>
</g>
<g>
	<g>
		<text transform="matrix(1 0 0 1 525.7424 400.568)" class="st36 st8 st9">KG64(D)</text>
	</g>
</g>
<g>
	<g>
		<text transform="matrix(1 0 0 1 552.2423 400.568)" class="st36 st8 st9">-8</text>
	</g>
</g>
<g>
	<g>
		<text transform="matrix(1 0 0 1 711.6586 400.568)" class="st36 st8 st9">-42</text>
	</g>
</g>
<g>
	<g>
		<text transform="matrix(1 0 0 1 116.5176 184.317)" class="st36 st8 st9">B46_3</text>
	</g>
</g>
<g>
	<g>
		<text transform="matrix(1 0 0 1 135.6011 184.317)" class="st36 st8 st9">-1</text>
	</g>
</g>
<g>
	<g>
		<text transform="matrix(1 0 0 1 279.2637 184.317)" class="st36 st8 st9">B1D</text>
	</g>
</g>
<g>
	<g>
		<text transform="matrix(1 0 0 1 291.8472 184.317)" class="st36 st8 st9">-37</text>
	</g>
</g>
<g>
	<g>
		<text transform="matrix(1 0 0 1 727.9756 184.317)" class="st36 st8 st9">K18</text>
	</g>
</g>
<g>
	<g>
		<text transform="matrix(1 0 0 1 739.4067 184.317)" class="st36 st8 st9">-1</text>
	</g>
</g>
<g>
	<g>
		<text transform="matrix(1 0 0 1 643.2979 184.3168)" class="st36 st8 st9">K18</text>
	</g>
</g>
<g>
	<g>
		<text transform="matrix(1 0 0 1 654.2039 184.3168)" class="st36 st8 st9">-9</text>
	</g>
</g>
<g>
	<g>
		<text transform="matrix(1 0 0 1 279.2637 257.0084)" class="st36 st8 st9">BG28</text>
	</g>
</g>
<g>
	<g>
		<text transform="matrix(1 0 0 1 295.7837 256.9459)" class="st36 st8 st9">-4</text>
	</g>
</g>
<g>
	<g>
		<text transform="matrix(1 0 0 1 331.5728 257.0084)" class="st36 st8 st9">BG28</text>
	</g>
</g>
<g>
	<g>
		<text transform="matrix(1 0 0 1 348.0928 256.9459)" class="st36 st8 st9">-2</text>
	</g>
</g>
<g>
	<g>
		<text transform="matrix(1 0 0 1 279.8956 311.151)" class="st36 st8 st9">BG28</text>
	</g>
</g>
<g>
	<g>
		<text transform="matrix(1 0 0 1 296.3575 310.9645)" class="st36 st8 st9">-3</text>
	</g>
</g>
<g>
	<g>
		<text transform="matrix(1 0 0 1 330.5798 400.3805)" class="st36 st8 st9">BG64(B)</text>
	</g>
</g>
<g>
	<g>
		<text transform="matrix(1 0 0 1 355.7292 400.3805)" class="st36 st8 st9">-32</text>
	</g>
</g>
<g>
	<g>
		<text transform="matrix(1 0 0 1 332.0149 311.3364)" class="st36 st8 st9">BG28</text>
	</g>
</g>
<g>
	<g>
		<text transform="matrix(1 0 0 1 348.4769 311.15)" class="st36 st8 st9">-1</text>
	</g>
</g>
<g>
	<g>
		<g>
			<text transform="matrix(1 0 0 1 381.004 382.8306)" class="st36 st8 st9">Eb06</text>
		</g>
	</g>
</g>
<g>
	<g>
		<text transform="matrix(1 0 0 1 484.1074 184.317)" class="st36 st8 st9">K17</text>
	</g>
</g>
<g>
	<g>
		<text transform="matrix(1 0 0 1 495.1635 184.317)" class="st36 st8 st9">-1</text>
	</g>
</g>
<g>
	<g>
		<text transform="matrix(1 0 0 1 526.9854 184.317)" class="st36 st8 st9">K17</text>
	</g>
</g>
<g>
	<g>
		<text transform="matrix(1 0 0 1 538.0414 184.317)" class="st36 st8 st9">-9</text>
	</g>
</g>
<g>
	<g id="FB103_9_">
		<g>
			<g id="FB103_10_">
				<g>
					<g>
						<text transform="matrix(1 0 0 1 490.0819 162.9778)" class="st36 st8 st9">Left rear combination light</text>
					</g>
				</g>
			</g>
		</g>
	</g>
</g>
<g>
	<g id="FB103_5_">
		<g>
			<g id="FB103_6_">
				<g>
					<g>
						<text transform="matrix(1 0 0 1 643.2981 157.7952)" class="st36 st8 st9">Right rear combination light</text>
					</g>
				</g>
			</g>
		</g>
	</g>
</g>
<g>
	<g id="FB103_13_">
		<g>
			<g id="FB103_14_">
				<g>
					<g>
						<text transform="matrix(1 0 0 1 278.2999 284.2997)" class="st36 st8 st9">Brake switch</text>
					</g>
				</g>
			</g>
		</g>
	</g>
</g>
<g>
	<g>
		<text transform="matrix(1 0 0 1 307.152 142.3562)" class="st36 st8 st9">Front compartment fuse box</text>
	</g>
</g>
<g>
	<g>
		<text transform="matrix(1 0 0 1 24.677 134.5997)" class="st36 st8 st9">Positive fuse box</text>
	</g>
</g>
<g>
	<g>
		<g>
			<text transform="matrix(1 0 0 1 714.6366 382.949)" class="st36 st8 st9">Ek09</text>
		</g>
	</g>
</g>
<g>
	<g>
		<text transform="matrix(1 0 0 1 253.4596 455.5499)" class="st36 st8 st9">KG64(E)</text>
	</g>
</g>
<g>
	<g>
		<text transform="matrix(1 0 0 1 278.7096 455.5499)" class="st36 st8 st9">-20</text>
	</g>
</g>
<g>
	<g>
		<text transform="matrix(1 0 0 1 328.8346 455.5499)" class="st36 st8 st9">-43</text>
	</g>
</g>
<g>
	<g>
		<text transform="matrix(1 0 0 1 303.618 455.5499)" class="st36 st8 st9">BG64(B)</text>
	</g>
</g>
<g>
	<g>
		<text transform="matrix(1 0 0 1 419.8346 455.5499)" class="st36 st8 st9">-13</text>
	</g>
</g>
<g>
	<g>
		<text transform="matrix(1 0 0 1 394.618 455.5499)" class="st36 st8 st9">BG64(B)</text>
	</g>
</g>
<g>
	<g>
		<text transform="matrix(1 0 0 1 470.4596 455.5499)" class="st36 st8 st9">-14</text>
	</g>
</g>
<g>
	<g>
		<text transform="matrix(1 0 0 1 445.243 455.5499)" class="st36 st8 st9">BG64(B)</text>
	</g>
</g>
<g>
	<g>
		<text transform="matrix(1 0 0 1 200.5157 455.5499)" class="st36 st8 st9">KG64(E)</text>
	</g>
</g>
<g>
	<g>
		<text transform="matrix(1 0 0 1 225.7656 455.5499)" class="st36 st8 st9">-8</text>
	</g>
</g>
<g>
	<g>
		<g>
			<text transform="matrix(1 0 0 1 239.6987 782.6798)" class="st36 st8 st9">Ek02</text>
		</g>
	</g>
</g>
<g>
	<g>
		<g>
			<text transform="matrix(1 0 0 1 289.8796 782.6798)" class="st36 st8 st9">Eb01</text>
		</g>
	</g>
</g>
<g>
	<g>
		<g>
			<text transform="matrix(1 0 0 1 186.8693 782.6798)" class="st36 st8 st9">Ek01</text>
		</g>
	</g>
</g>
<g>
	<text transform="matrix(1 0 0 1 199.3261 184.1127)" class="st36 st8 st9">B1D</text>
</g>
<text transform="matrix(1 0 0 1 211.6595 184.1129)" class="st36 st8 st9">-9</text>
<g>
	<text transform="matrix(1 0 0 1 200.6689 400.9183)" class="st36 st8 st9">G64(G)</text>
</g>
<g>
	<text transform="matrix(1 0 0 1 199.1752 140.0908)" class="st36 st8 st9">F1/12</text>
</g>
<text transform="matrix(1 0 0 1 200.6689 292.6862)" class="st36 st8 st9">BJG01</text>
<text transform="matrix(1 0 0 1 200.6689 299.8865)" class="st36 st8 st9">GJB01</text>
<text transform="matrix(1 0 0 1 220.0024 299.8865)" class="st36 st8 st9">-15</text>
<text transform="matrix(1 0 0 1 222.5856 400.9186)" class="st36 st8 st9">-11</text>
<g>
	<rect x="431.2" y="471.6" class="st7" width="13.9" height="6"/>
	<g>
		<text transform="matrix(1 0 0 1 429.5074 476.6814)" class="st8 st9">V 0.35</text>
	</g>
</g>
<g>
	<rect x="382" y="471.6" class="st7" width="13.9" height="6"/>
	<g>
		<text transform="matrix(1 0 0 1 378.3649 476.6814)" class="st8 st9">P 0.35</text>
	</g>
</g>
<path class="st30" d="M384.4,493.3c-1.8,0-3.2-1.5-3.2-3.5c0-1.9,1.4-3.5,3.2-3.5l59.9,6.9c1.8,0,3.2-1.5,3.2-3.5
	c0-1.9-1.4-3.5-3.2-3.5L384.4,493.3z"/>
<g>
	<text transform="matrix(1 0 0 1 149.7709 400.9185)" class="st36 st8 st9">-1</text>
</g>
<g>
	<text transform="matrix(1 0 0 1 116.9844 400.9185)" class="st36 st8 st9">BG64(A)_4</text>
</g>
<polyline class="st0" points="680,188.5 680,300.7 570.2,300.7 570.2,188.5 "/>
<polyline class="st1" points="680,188.5 680,300.7 570.2,300.7 570.2,188.5 "/>
<rect x="563.9" y="215" class="st7" width="12.7" height="6"/>
<rect x="564" y="215" class="st7" width="12.5" height="6"/>
<text transform="matrix(1 0 0 1 557.6223 219.8812)" class="st8 st9">Y/R 0.35</text>
<g>
	<line class="st22" x1="570.2" y1="185.4" x2="570.2" y2="177.2"/>
	<path class="st7" d="M570.3,188.5c-1.6,0-3-1.4-3-3c0-1.8,1.4-3.2,3-3.2c1.8,0,3.2,1.4,3.2,3.2
		C573.5,187.1,572.1,188.5,570.3,188.5"/>
	<path d="M570.3,189.1c-2,0-3.7-1.6-3.7-3.7c0-2.2,1.7-3.8,3.7-3.8v1.1c-1.4,0-2.5,1.1-2.5,2.7c0,1.4,1.1,2.5,2.5,2.5V189.1z
		 M570.3,181.6v1.1c1.5,0,2.7,1.1,2.7,2.7c0,1.4-1.1,2.5-2.7,2.5v1.1c2.2,0,3.8-1.6,3.8-3.7C574.1,183.3,572.5,181.6,570.3,181.6"/>
	<rect x="566.1" y="181.2" class="st7" width="8.5" height="4.1"/>
	<rect x="569.7" y="182.1" width="1" height="4.2"/>
	<rect x="569.7" y="182.1" class="st23" width="1" height="4.2"/>
</g>
<g>
	<text transform="matrix(1 0 0 1 555.5568 175.2113)" class="st8 st28">Left rear brake light</text>
</g>
<g>
	<text transform="matrix(1 0 0 1 663.4773 174.6306)" class="st8 st28">Right rear brake light</text>
</g>
<g>
	<g>
		<text transform="matrix(1 0 0 1 576.2295 184.317)" class="st36 st8 st9">K17</text>
	</g>
</g>
<g>
	<g>
		<text transform="matrix(1 0 0 1 587.2856 184.317)" class="st36 st8 st9">-4</text>
	</g>
</g>
<g>
	<line class="st22" x1="680" y1="185.4" x2="680" y2="177.2"/>
	<path class="st7" d="M680.1,188.5c-1.6,0-3-1.4-3-3c0-1.8,1.4-3.2,3-3.2c1.8,0,3.2,1.4,3.2,3.2
		C683.3,187.1,681.9,188.5,680.1,188.5"/>
	<path d="M680.1,189.1c-2,0-3.7-1.6-3.7-3.7c0-2.2,1.7-3.8,3.7-3.8v1.1c-1.4,0-2.5,1.1-2.5,2.7c0,1.4,1.1,2.5,2.5,2.5V189.1z
		 M680.1,181.6v1.1c1.5,0,2.7,1.1,2.7,2.7c0,1.4-1.1,2.5-2.7,2.5v1.1c2.2,0,3.8-1.6,3.8-3.7C683.9,183.3,682.3,181.6,680.1,181.6"/>
	<rect x="675.9" y="181.2" class="st7" width="8.5" height="4.1"/>
	<rect x="679.5" y="182.1" width="1" height="4.2"/>
	<rect x="679.5" y="182.1" class="st23" width="1" height="4.2"/>
</g>
<rect x="671.8" y="215" class="st7" width="12.7" height="6"/>
<rect x="671.8" y="215" class="st7" width="12.5" height="6"/>
<text transform="matrix(1 0 0 1 667.6844 219.8807)" class="st8 st9">Y/R 0.35</text>
<g>
	<g>
		<text transform="matrix(1 0 0 1 685.9847 184.3165)" class="st36 st8 st9">K18</text>
	</g>
</g>
<g>
	<g>
		<text transform="matrix(1 0 0 1 697.0408 184.3165)" class="st36 st8 st9">-4</text>
	</g>
</g>
<g>
	<g>
		<text transform="matrix(1 0 0 1 684.4674 400.568)" class="st36 st8 st9">KG64(D)</text>
	</g>
</g>
<path class="st11" d="M682.4,300.7c0,1.7-1.3,2.9-2.8,2.9c-1.6,0-2.9-1.2-2.9-2.9c0-1.5,1.3-2.7,2.9-2.7
	C681.1,298,682.4,299.2,682.4,300.7z"/>
<g>
	<rect x="770.7" y="384.3" class="st7" width="8.5" height="18.8"/>
	<g>
		<g>
			<line class="st32" x1="774.8" y1="393" x2="774.8" y2="384.7"/>
		</g>
		<g>
			<line class="st33" x1="774.9" y1="396.2" x2="774.9" y2="402.6"/>
		</g>
		<g>
			<g>
				<g>
					<path class="st7" d="M774.8,396c-1.7,0-3.2-1.4-3.2-3.2c0-1.8,1.5-3.2,3.2-3.2c1.8,0,3.2,1.4,3.2,3.2S776.6,396,774.8,396z"/>
					<path d="M774.8,396.7c-2,0-3.7-1.8-3.7-3.8h1.1c0,1.4,1.1,2.5,2.5,2.5c1.5,0,2.7-1.1,2.7-2.5h1.1
						C778.7,394.9,777,396.7,774.8,396.7L774.8,396.7z M771.2,392.9h1.1c0-1.4,1.1-2.5,2.5-2.5c1.5,0,2.7,1.1,2.7,2.5h1.1
						c0-2.2-1.6-3.8-3.8-3.8C772.8,389,771.2,390.7,771.2,392.9z"/>
				</g>
				<rect x="770.7" y="388.7" class="st7" width="8.5" height="4.1"/>
				<rect x="774.2" y="389.6" width="1" height="4.2"/>
				<rect x="774.2" y="389.6" class="st23" width="1" height="4.2"/>
			</g>
		</g>
	</g>
</g>
<rect x="589.2" y="519" class="st7" width="12.7" height="6"/>
<rect x="589.3" y="519" class="st7" width="12.5" height="6"/>
<text transform="matrix(1 0 0 1 582.8636 523.9277)" class="st8 st9">Y/R 0.35</text>
<line class="st6" x1="594.6" y1="590.5" x2="594.6" y2="770.9"/>
<g>
	<line class="st22" x1="594.8" y1="587.4" x2="594.8" y2="579.2"/>
	<path class="st7" d="M594.9,590.5c-1.6,0-3-1.4-3-3c0-1.8,1.4-3.2,3-3.2c1.8,0,3.2,1.4,3.2,3.2C598,589.1,596.6,590.5,594.9,590.5"
		/>
	<path d="M594.9,591.1c-2,0-3.7-1.6-3.7-3.7c0-2.2,1.7-3.8,3.7-3.8v1.1c-1.4,0-2.5,1.1-2.5,2.7c0,1.4,1.1,2.5,2.5,2.5V591.1z
		 M594.9,583.6v1.1c1.5,0,2.7,1.1,2.7,2.7c0,1.4-1.1,2.5-2.7,2.5v1.1c2.2,0,3.8-1.6,3.8-3.7C598.7,585.3,597,583.6,594.9,583.6"/>
	<rect x="590.7" y="583.2" class="st7" width="8.5" height="4.1"/>
	<rect x="594.2" y="584.1" width="1" height="4.2"/>
	<rect x="594.2" y="584.1" class="st23" width="1" height="4.2"/>
</g>
<rect x="585.9" y="617" class="st7" width="12.7" height="6"/>
<rect x="585.9" y="617" class="st7" width="12.5" height="6"/>
<text transform="matrix(1 0 0 1 585.2214 621.9277)" class="st8 st9">B 0.35</text>
<rect x="588.3" y="728.4" class="st7" width="12.7" height="6"/>
<polygon class="st27" points="622.7,579 575.9,579 575.9,578.9 575.9,547.4 622.7,547.4 "/>
<text transform="matrix(1 0 0 1 587.1091 733.5974)" class="st8 st9">B 2.5</text>
<rect x="601" y="645.6" class="st10" width="24.7" height="6.8"/>
<text transform="matrix(1 0 0 1 601.9026 651.1877)" class="st8 st9">SP4846</text>
<path class="st11" d="M597.5,649.5c0,1.7-1.3,2.9-2.8,2.9c-1.6,0-2.9-1.2-2.9-2.9c0-1.5,1.3-2.7,2.9-2.7
	C596.2,646.8,597.5,648,597.5,649.5z"/>
<g id="GB031_7_">
	<g>
		<g>
			<line class="st12" x1="594.9" y1="769.1" x2="594.9" y2="771.8"/>
		</g>
		<g>
			<line class="st12" x1="587.9" y1="771.8" x2="601.7" y2="771.8"/>
		</g>
		<g>
			<line class="st12" x1="590.7" y1="774" x2="598.9" y2="774"/>
		</g>
		<g>
			<line class="st12" x1="597.2" y1="776.1" x2="592.4" y2="776.1"/>
		</g>
	</g>
	<g>
		<rect x="584.5" y="778.6" class="st7" width="20.3" height="8.2"/>
		<rect x="584.8" y="779" class="st13" width="19.7" height="7.6"/>
	</g>
</g>
<g>
	<g>
		<g>
			<text transform="matrix(1 0 0 1 781.2612 389.0493)" class="st36 st8 st9">KJY01</text>
		</g>
	</g>
</g>
<g>
	<g>
		<g>
			<text transform="matrix(1 0 0 1 781.2612 395.8278)" class="st36 st8 st9">YJK01</text>
		</g>
	</g>
</g>
<g>
	<g>
		<g>
			<text transform="matrix(1 0 0 1 799.5112 395.8276)" class="st36 st8 st9">-16</text>
		</g>
	</g>
</g>
<g>
	<g>
		<text transform="matrix(1 0 0 1 600.7778 586.3635)" class="st36 st8 st9">YK20</text>
	</g>
</g>
<g>
	<g>
		<text transform="matrix(1 0 0 1 616.3557 586.2562)" class="st36 st8 st9">-1</text>
	</g>
</g>
<g>
	<g>
		<g>
			<text transform="matrix(1 0 0 1 601.9028 544.9351)" class="st36 st8 st9">YK20</text>
		</g>
	</g>
</g>
<g>
	<g>
		<g>
			<text transform="matrix(1 0 0 1 617.8139 544.8276)" class="st36 st8 st9">-2</text>
		</g>
	</g>
</g>
<g>
	<g id="FB103_3_">
		<g>
			<g id="FB103_4_">
				<g>
					<g>
						<text transform="matrix(1 0 0 1 627.7758 565.3995)" class="st36 st8 st9">High-mount Stop Light</text>
					</g>
				</g>
			</g>
		</g>
	</g>
</g>
<g>
	<g>
		<g>
			<text transform="matrix(1 0 0 1 587.1096 784.9954)" class="st36 st8 st9">Ey01</text>
		</g>
	</g>
</g>
<g>
	<g>
		<polygon class="st27" points="595.1,570.7 603.7,557.9 586.6,557.9 		"/>
		<polygon class="st38" points="595.1,570.7 603.7,557.9 586.6,557.9 		"/>
		<line class="st30" x1="602.3" y1="570.7" x2="587.8" y2="570.7"/>
		<polyline class="st30" points="595.1,570.7 595.1,578.4 595.1,579.2 		"/>
		<polygon class="st39" points="602.2,569.7 607.6,568.2 605.8,565.4 		"/>
		<polygon class="st40" points="602.2,569.7 607.6,568.2 605.8,565.4 		"/>
		<line class="st35" x1="602.2" y1="569.7" x2="610.6" y2="564.5"/>
		<line class="st40" x1="602.2" y1="569.7" x2="610.6" y2="564.5"/>
		<polygon class="st39" points="601.4,564 606.8,562.5 605,559.7 		"/>
		<polygon class="st40" points="601.4,564 606.8,562.5 605,559.7 		"/>
		<line class="st40" x1="601.4" y1="564" x2="609.8" y2="558.8"/>
	</g>
	<polyline class="st30" points="595.8,547.4 595.8,557 595.8,557.9 	"/>
</g>
<rect x="768.1" y="351.1" class="st7" width="12.7" height="6"/>
<rect x="768.2" y="351.1" class="st7" width="12.5" height="6"/>
<text transform="matrix(1 0 0 1 761.7952 355.9812)" class="st8 st9">Y/R 0.35</text>
</svg>
