<?xml version="1.0" encoding="utf-8"?>
<!-- Generator: Adobe Illustrator 24.0.1, SVG Export Plug-In . SVG Version: 6.00 Build 0)  -->
<svg version="1.1" id="图层_1" xmlns="http://www.w3.org/2000/svg" xmlns:xlink="http://www.w3.org/1999/xlink" x="0px" y="0px"
	 viewBox="0 0 1157.9 841.9" style="enable-background:new 0 0 1157.9 841.9;" xml:space="preserve">
<style type="text/css">
	.st0{fill:none;stroke:#E60012;stroke-width:3;stroke-linecap:round;stroke-miterlimit:10;}
	.st1{fill:none;stroke:#005EAD;stroke-linecap:round;stroke-miterlimit:10;}
	.st2{fill:none;stroke:#005EAD;stroke-width:3;stroke-miterlimit:10;}
	.st3{fill:none;stroke:#FFFFFF;stroke-miterlimit:10;}
	.st4{fill:#9FD9F6;stroke:#000000;stroke-width:0.5;stroke-linecap:round;stroke-miterlimit:10;}
	.st5{fill:none;stroke:#F29C97;stroke-width:3;stroke-linecap:round;stroke-miterlimit:10;}
	.st6{fill:none;stroke:#89438F;stroke-width:3;stroke-linecap:round;stroke-miterlimit:10;}
	.st7{fill:none;stroke:#000000;stroke-width:3;stroke-linecap:round;stroke-linejoin:round;stroke-miterlimit:10;}
	.st8{fill:#DCDDDD;stroke:#000000;stroke-width:0.5;stroke-linecap:round;stroke-miterlimit:10;}
	.st9{font-family:'FZLTHJW--GB1-0';}
	.st10{font-size:4px;}
	.st11{fill:none;stroke:#040000;stroke-width:0.75;}
	.st12{font-size:6px;}
	.st13{fill:#DCDDDD;}
	.st14{fill:none;stroke:#000000;stroke-width:0.5;}
	.st15{fill:none;stroke:#000000;}
	.st16{fill:#FFFFFF;}
	.st17{fill:none;stroke:#000000;stroke-width:0.6;stroke-linecap:round;stroke-linejoin:round;}
	.st18{fill:none;stroke:#000000;stroke-width:0.72;stroke-linecap:round;stroke-linejoin:round;}
	.st19{stroke:#FFFFFF;}
	.st20{fill:none;stroke:#FFFFFF;stroke-width:1.0001;}
	.st21{fill:none;stroke:#000000;stroke-width:0.6001;stroke-linecap:round;stroke-linejoin:round;}
	.st22{fill:none;stroke:#000000;stroke-width:0.6001;stroke-linecap:round;}
	.st23{fill:#FFFFFF;stroke:#000000;stroke-width:0.25;}
	.st24{stroke:#FFFFFF;stroke-width:0.5;}
	.st25{fill:none;stroke:#000000;stroke-width:1.3;}
	.st26{fill:none;stroke:#000000;stroke-width:0.25;stroke-linecap:round;stroke-linejoin:round;}
	.st27{fill:none;stroke:#000000;stroke-width:0.5;stroke-miterlimit:10;}
	.st28{fill:none;stroke:#000000;stroke-width:0.5;stroke-linecap:round;stroke-linejoin:round;}
	.st29{fill:#FFFFFF;stroke:#000000;stroke-width:0.25;stroke-linecap:round;stroke-linejoin:round;}
	.st30{fill:none;stroke:#E60012;stroke-width:3;stroke-miterlimit:10;}
	.st31{stroke:#FFFFFF;stroke-width:0.5;stroke-linecap:round;}
	.st32{fill:none;stroke:#000000;stroke-width:3;stroke-miterlimit:10;}
	.st33{fill:none;stroke:#000000;stroke-width:0.5;stroke-linecap:round;}
	.st34{fill:none;stroke:#231815;stroke-width:0.5;stroke-miterlimit:10;}
	.st35{fill:#231815;}
	.st36{fill:none;stroke:#231815;stroke-width:0.5;stroke-linecap:round;stroke-linejoin:round;stroke-miterlimit:10;}
	.st37{fill:none;}
	.st38{fill:none;stroke:#000000;stroke-width:3;stroke-linecap:round;stroke-miterlimit:10;}
	.st39{enable-background:new    ;}
	.st40{fill:none;stroke:#FFF100;stroke-miterlimit:10;}
	.st41{fill:#005EAD;}
</style>
<polyline class="st0" points="281.4,430.7 281.4,373.3 105.4,373.3 "/>
<polyline class="st1" points="281.4,430.7 281.4,373.3 105.4,373.3 "/>
<line class="st2" x1="673.9" y1="478.5" x2="673.9" y2="548.5"/>
<line class="st3" x1="673.9" y1="478.5" x2="673.9" y2="548.5"/>
<polygon class="st4" points="419.5,467 266.4,467 266.4,467 266.4,441.1 419.5,441.1 "/>
<path class="st4" d="M757.4,467h-311l0,0v-25.8h311c0,0-2.9,7.2,0,13C760.3,459.8,757.4,467,757.4,467z"/>
<polyline class="st5" points="168.4,433.8 168.4,291.1 330,291.1 "/>
<polyline class="st6" points="219,434.5 219,316.7 379.4,316.7 "/>
<polyline class="st7" points="327.8,477.7 327.8,570.1 283.2,570.1 "/>
<g id="UB01_x2C_A1_1_">
	<rect x="85.4" y="136.7" class="st8" width="52.4" height="51.3"/>
</g>
<polygon class="st4" points="234.4,467 87,467 87,467 87,441.1 234.4,441.1 "/>
<g>
	<text transform="matrix(1 0 0 1 101.7411 446.1611)" class="st9 st10">Constant power</text>
</g>
<g id="FF16_x2C_A1_1_">
	<g>
		<g>
			<path class="st11" d="M105.2,168c-1.2,0-2.2,1-2.2,2.2s1,2.2,2.2,2.2s2.2-1,2.2-2.2C107.4,169,106.4,168,105.2,168"/>
		</g>
		<g>
			<path class="st11" d="M105.2,152.2c-1.2,0-2.2,1-2.2,2.1c0,1.2,1,2.2,2.2,2.2s2.2-0.9,2.2-2.2
				C107.4,153.2,106.4,152.2,105.2,152.2"/>
		</g>
		<g>
			<path class="st11" d="M103.7,156c-0.1,2.5,0.2,3.2,1.3,4.3c1.2,1.2,2.4,1.7,2.8,3.7c0.4,1.6-0.1,3.5-1.1,4.5"/>
		</g>
		<g>
			<path class="st11" d="M106.6,168.6c0.2-0.8,0-2.9-0.7-3.7c-0.9-1.2-2.7-2.1-3.3-4c-0.9-2.8,0.7-4.6,1.1-5"/>
		</g>
	</g>
</g>
<g id="FF16_x2C_A1">
	<g>
		<g>
			<text transform="matrix(1 0 0 1 109.5189 167.5869)" class="st9 st12">5A</text>
		</g>
	</g>
</g>
<line class="st0" x1="105.3" y1="196.8" x2="105.3" y2="430.7"/>
<line class="st1" x1="105.3" y1="196.8" x2="105.3" y2="430.7"/>
<polyline class="st13" points="48.7,41.9 1106.9,41.9 1106.9,88.1 48.7,88.1 "/>
<line class="st14" x1="48.7" y1="47.6" x2="1106.9" y2="47.6"/>
<line class="st15" x1="48.7" y1="41.6" x2="1106.9" y2="41.6"/>
<path class="st15" d="M1106.9,59.3"/>
<path class="st15" d="M48.7,59.3"/>
<line class="st14" x1="48.7" y1="58.9" x2="1106.9" y2="58.9"/>
<line class="st14" x1="48.7" y1="70.6" x2="1106.9" y2="70.6"/>
<line class="st14" x1="48.7" y1="82.3" x2="1106.9" y2="82.3"/>
<line class="st15" x1="48.7" y1="88.1" x2="1106.9" y2="88.1"/>
<text transform="matrix(1 0 0 1 1108.0243 49.6299)" class="st9 st12">30</text>
<text transform="matrix(1 0 0 1 1108.0243 60.7959)" class="st9 st12">IG1</text>
<text transform="matrix(1 0 0 1 1108.0243 72.4209)" class="st9 st12">IG3</text>
<text transform="matrix(1 0 0 1 1108.0243 83.9248)" class="st9 st12">ACC</text>
<text transform="matrix(1 0 0 1 39.4748 49.7119)" class="st9 st12">30</text>
<text transform="matrix(1 0 0 1 36.3108 60.8779)" class="st9 st12">IG1</text>
<text transform="matrix(1 0 0 1 36.3576 72.5029)" class="st9 st12">IG3</text>
<text transform="matrix(1 0 0 1 32.8186 84.0029)" class="st9 st12">ACC</text>
<g>
	<rect x="95.4" y="211.1" class="st16" width="19.8" height="6"/>
</g>
<g>
	<g>
		<line class="st17" x1="105.1" y1="432.9" x2="105.1" y2="441.1"/>
	</g>
	<g>
		<path class="st16" d="M105,429.8c1.7,0,3,1.4,3,3c0,1.8-1.4,3.2-3,3.2c-1.8,0-3.2-1.4-3.2-3.2C101.9,431.2,103.3,429.8,105,429.8z
			"/>
		<path d="M105,429.2c2,0,3.7,1.7,3.7,3.7c0,2.2-1.7,3.8-3.7,3.8v-1.1c1.4,0,2.5-1.1,2.5-2.7c0-1.4-1.1-2.5-2.5-2.5V429.2L105,429.2
			z M105,436.7v-1.1c-1.5,0-2.7-1.1-2.7-2.7c0-1.4,1.1-2.5,2.7-2.5v-1.1c-2.2,0-3.8,1.7-3.8,3.7S102.9,436.7,105,436.7z"/>
	</g>
	<rect x="100.7" y="433" class="st16" width="8.5" height="4.1"/>
	<rect x="104.7" y="432" width="1" height="4.2"/>
	<rect x="104.7" y="432" class="st18" width="1" height="4.2"/>
</g>
<g>
	<g>
		<line class="st17" x1="105.1" y1="196.2" x2="105.1" y2="187.9"/>
	</g>
	<g>
		<path class="st16" d="M105.2,199.2c-1.7,0-3-1.4-3-3c0-1.8,1.4-3.2,3-3.2c1.8,0,3.2,1.4,3.2,3.2
			C108.4,197.8,107,199.2,105.2,199.2z"/>
		<path d="M105.2,199.9c-2,0-3.7-1.7-3.7-3.7c0-2.2,1.7-3.8,3.7-3.8v1.1c-1.4,0-2.5,1.1-2.5,2.7c0,1.4,1.1,2.5,2.5,2.5V199.9
			L105.2,199.9z M105.2,192.4v1.1c1.5,0,2.7,1.1,2.7,2.7c0,1.4-1.1,2.5-2.7,2.5v1.1c2.2,0,3.8-1.7,3.8-3.7
			C109,194,107.4,192.4,105.2,192.4z"/>
	</g>
	<rect x="101" y="192" class="st16" width="8.5" height="4.1"/>
	<rect x="104.6" y="192.9" width="1" height="4.2"/>
	<rect x="104.6" y="192.9" class="st18" width="1" height="4.2"/>
</g>
<g>
	<text transform="matrix(1 0 0 1 278.7411 446.1611)" class="st9 st10">IGN</text>
</g>
<g>
	<g>
		<line class="st17" x1="282.1" y1="432.9" x2="282.1" y2="441.1"/>
	</g>
	<g>
		<path class="st16" d="M282,429.8c1.7,0,3,1.4,3,3c0,1.8-1.4,3.2-3,3.2c-1.8,0-3.2-1.4-3.2-3.2C278.9,431.2,280.3,429.8,282,429.8z
			"/>
		<path d="M282,429.2c2,0,3.7,1.7,3.7,3.7c0,2.2-1.7,3.8-3.7,3.8v-1.1c1.4,0,2.5-1.1,2.5-2.7c0-1.4-1.1-2.5-2.5-2.5V429.2L282,429.2
			z M282,436.7v-1.1c-1.5,0-2.7-1.1-2.7-2.7c0-1.4,1.1-2.5,2.7-2.5v-1.1c-2.2,0-3.8,1.7-3.8,3.7S279.9,436.7,282,436.7z"/>
	</g>
	<rect x="277.7" y="433" class="st16" width="8.5" height="4.1"/>
	<rect x="281.7" y="432" width="1" height="4.2"/>
	<rect x="281.7" y="432" class="st18" width="1" height="4.2"/>
</g>
<g>
	<rect x="267.8" y="413.8" class="st16" width="19.8" height="6"/>
</g>
<text transform="matrix(1 0 0 1 269.8739 418.7043)" class="st9 st12">R/L 0.35</text>
<g>
	<g>
		<polyline class="st17" points="105.1,187.9 105.1,178.2 105.1,173 		"/>
	</g>
</g>
<g>
	<g>
		<polyline class="st17" points="105.2,152.2 105.2,132.2 105.2,47.6 		"/>
	</g>
</g>
<text transform="matrix(1 0 0 1 93.0692 216.2783)" class="st9 st12">R/L 0.35</text>
<g>
	<rect x="95.4" y="271.4" class="st16" width="19.8" height="6"/>
</g>
<text transform="matrix(1 0 0 1 93.0692 276.5433)" class="st9 st12">R/L 0.35</text>
<g>
	<rect x="95.4" y="339" class="st16" width="19.8" height="6"/>
</g>
<text transform="matrix(1 0 0 1 93.0692 344.1322)" class="st9 st12">R/L 0.35</text>
<g>
	<rect x="95.4" y="414.1" class="st16" width="19.8" height="6"/>
</g>
<text transform="matrix(1 0 0 1 93.0692 419.0754)" class="st9 st12">R/L 0.35</text>
<g>
	<path class="st19" d="M102.3,48.1c0-1.7,1.3-2.9,2.8-2.9c1.6,0,2.9,1.2,2.9,2.9c0,1.5-1.3,2.7-2.9,2.7
		C103.6,50.8,102.3,49.6,102.3,48.1z"/>
	<g>
		<path class="st20" d="M102.3,48.1c0-1.7,1.3-2.9,2.8-2.9c1.6,0,2.9,1.2,2.9,2.9c0,1.5-1.3,2.7-2.9,2.7
			C103.6,50.8,102.3,49.6,102.3,48.1"/>
	</g>
</g>
<g>
	<rect x="100.9" y="228.7" class="st16" width="8.5" height="18.8"/>
	<g>
		<g>
			<line class="st21" x1="105.3" y1="238.8" x2="105.3" y2="247"/>
		</g>
		<g>
			<line class="st22" x1="105.1" y1="235.6" x2="105.1" y2="229.1"/>
		</g>
		<g>
			<g>
				<g>
					<path class="st16" d="M105.2,235.7c1.7,0,3.2,1.4,3.2,3.2s-1.5,3.2-3.2,3.2c-1.8,0-3.2-1.4-3.2-3.2
						C102,237.1,103.4,235.7,105.2,235.7z"/>
					<path d="M105.2,235.1c2,0,3.7,1.8,3.7,3.8h-1.1c0-1.4-1.1-2.5-2.5-2.5c-1.5,0-2.7,1.1-2.7,2.5h-1.1
						C101.4,236.9,103,235.1,105.2,235.1L105.2,235.1z M108.9,238.9h-1.1c0,1.4-1.1,2.5-2.5,2.5c-1.5,0-2.7-1.1-2.7-2.5h-1.1
						c0,2.2,1.6,3.8,3.8,3.8C107.2,242.7,108.9,241.1,108.9,238.9z"/>
				</g>
				<rect x="100.9" y="239" class="st16" width="8.5" height="4.1"/>
				<rect x="104.8" y="238" width="1" height="4.2"/>
				<rect x="104.8" y="238" class="st18" width="1" height="4.2"/>
			</g>
		</g>
	</g>
</g>
<g>
	<rect x="100.9" y="295.9" class="st16" width="8.5" height="18.8"/>
	<g>
		<g>
			<line class="st21" x1="105.3" y1="306" x2="105.3" y2="314.2"/>
		</g>
		<g>
			<line class="st22" x1="105.1" y1="302.8" x2="105.1" y2="296.4"/>
		</g>
		<g>
			<g>
				<g>
					<path class="st16" d="M105.2,302.9c1.7,0,3.2,1.4,3.2,3.2c0,1.8-1.5,3.2-3.2,3.2c-1.8,0-3.2-1.4-3.2-3.2
						S103.4,302.9,105.2,302.9z"/>
					<path d="M105.2,302.3c2,0,3.7,1.8,3.7,3.8h-1.1c0-1.4-1.1-2.5-2.5-2.5c-1.5,0-2.7,1.1-2.7,2.5h-1.1
						C101.4,304.1,103,302.3,105.2,302.3L105.2,302.3z M108.9,306.1h-1.1c0,1.4-1.1,2.5-2.5,2.5c-1.5,0-2.7-1.1-2.7-2.5h-1.1
						c0,2.2,1.6,3.8,3.8,3.8C107.2,309.9,108.9,308.3,108.9,306.1z"/>
				</g>
				<rect x="100.9" y="306.3" class="st16" width="8.5" height="4.1"/>
				<rect x="104.8" y="305.2" width="1" height="4.2"/>
				<rect x="104.8" y="305.2" class="st18" width="1" height="4.2"/>
			</g>
		</g>
	</g>
</g>
<rect x="109.3" y="363.3" class="st23" width="25.3" height="5.6"/>
<text transform="matrix(1 0 0 1 110.0267 368.1483)" class="st9 st12">SP4814</text>
<path class="st24" d="M108.3,373.4c0,1.7-1.3,2.9-2.8,2.9c-1.6,0-2.9-1.2-2.9-2.9c0-1.5,1.3-2.7,2.9-2.7
	C107,370.7,108.3,371.9,108.3,373.4z"/>
<g>
	<text transform="matrix(1 0 0 1 161.6815 465.1241)" class="st9 st10">Ground</text>
</g>
<polyline class="st7" points="167.4,477.9 167.4,569.9 283.7,569.9 "/>
<g>
	<g>
		<line class="st17" x1="167.4" y1="475.5" x2="167.4" y2="467.2"/>
	</g>
	<g>
		<path class="st16" d="M167.5,478.5c-1.6,0-3-1.4-3-3c0-1.8,1.4-3.2,3-3.2c1.8,0,3.2,1.4,3.2,3.2
			C170.7,477.1,169.3,478.5,167.5,478.5z"/>
		<path d="M167.5,479.2c-2,0-3.7-1.6-3.7-3.7c0-2.2,1.7-3.8,3.7-3.8v1.1c-1.4,0-2.5,1.1-2.5,2.7c0,1.4,1.1,2.5,2.5,2.5V479.2
			L167.5,479.2z M167.5,471.7v1.1c1.5,0,2.7,1.1,2.7,2.7c0,1.4-1.1,2.5-2.7,2.5v1.1c2.2,0,3.8-1.6,3.8-3.7
			C171.3,473.3,169.6,471.7,167.5,471.7z"/>
	</g>
	<rect x="163.3" y="471.3" class="st16" width="8.5" height="4.1"/>
	<rect x="166.9" y="472.2" width="1" height="4.2"/>
	<rect x="166.9" y="472.2" class="st18" width="1" height="4.2"/>
</g>
<g>
	<rect x="163" y="491.5" class="st16" width="8.7" height="6"/>
	<g>
		<text transform="matrix(1 0 0 1 157.9275 496.7003)" class="st9 st12">B 0.35</text>
	</g>
</g>
<g>
	<text transform="matrix(1 0 0 1 278.0149 464.9365)" class="st9 st10">GND</text>
</g>
<line class="st7" x1="283.8" y1="771.8" x2="283.8" y2="477.7"/>
<g>
	<g>
		<line class="st17" x1="283.7" y1="475.3" x2="283.7" y2="467"/>
	</g>
	<g>
		<path class="st16" d="M283.8,478.3c-1.6,0-3-1.4-3-3c0-1.8,1.4-3.2,3-3.2c1.8,0,3.2,1.4,3.2,3.2
			C287,476.9,285.6,478.3,283.8,478.3z"/>
		<path d="M283.8,479c-2,0-3.7-1.6-3.7-3.7c0-2.2,1.7-3.8,3.7-3.8v1.1c-1.4,0-2.5,1.1-2.5,2.7c0,1.4,1.1,2.5,2.5,2.5V479L283.8,479z
			 M283.8,471.5v1.1c1.5,0,2.7,1.1,2.7,2.7c0,1.4-1.1,2.5-2.7,2.5v1.1c2.2,0,3.8-1.6,3.8-3.7C287.6,473.1,286,471.5,283.8,471.5z"/>
	</g>
	<rect x="279.6" y="471.1" class="st16" width="8.5" height="4.1"/>
	<rect x="283.2" y="472" width="1" height="4.2"/>
	<rect x="283.2" y="472" class="st18" width="1" height="4.2"/>
</g>
<rect x="276.4" y="491.4" class="st16" width="11.6" height="6"/>
<g id="GE01_2_">
	<g>
		<g>
			<line class="st25" x1="283.7" y1="769.5" x2="283.7" y2="773.1"/>
		</g>
		<g>
			<line class="st25" x1="276.7" y1="773.1" x2="290.5" y2="773.1"/>
		</g>
		<g>
			<line class="st25" x1="279.5" y1="775.4" x2="287.7" y2="775.4"/>
		</g>
		<g>
			<line class="st25" x1="286" y1="777.5" x2="281.2" y2="777.5"/>
		</g>
	</g>
	<g>
		<polygon class="st16" points="281.1,780.1 274.7,780.1 274.7,788.3 293.4,788.3 293.4,780.1 286.3,780.1 		"/>
		<rect x="275" y="780.4" class="st26" width="18.1" height="7.6"/>
	</g>
</g>
<g>
	<text transform="matrix(1 0 0 1 322.0149 464.9365)" class="st9 st10">GND</text>
</g>
<g>
	<g>
		<line class="st17" x1="327.7" y1="475.3" x2="327.7" y2="467"/>
	</g>
	<g>
		<path class="st16" d="M327.8,478.3c-1.6,0-3-1.4-3-3c0-1.8,1.4-3.2,3-3.2c1.8,0,3.2,1.4,3.2,3.2
			C331,476.9,329.6,478.3,327.8,478.3z"/>
		<path d="M327.8,479c-2,0-3.7-1.6-3.7-3.7c0-2.2,1.7-3.8,3.7-3.8v1.1c-1.4,0-2.5,1.1-2.5,2.7c0,1.4,1.1,2.5,2.5,2.5V479L327.8,479z
			 M327.8,471.5v1.1c1.5,0,2.7,1.1,2.7,2.7c0,1.4-1.1,2.5-2.7,2.5v1.1c2.2,0,3.8-1.6,3.8-3.7C331.6,473.1,330,471.5,327.8,471.5z"/>
	</g>
	<rect x="323.6" y="471.1" class="st16" width="8.5" height="4.1"/>
	<rect x="327.2" y="472" width="1" height="4.2"/>
	<rect x="327.2" y="472" class="st18" width="1" height="4.2"/>
</g>
<g>
	<text transform="matrix(1 0 0 1 211.6299 446.1611)" class="st9 st10">CAN-L</text>
</g>
<line class="st5" x1="329.4" y1="433.8" x2="329.4" y2="218.8"/>
<line class="st6" x1="379.9" y1="434.5" x2="379.9" y2="217.7"/>
<g>
	<rect x="211.2" y="414.7" class="st16" width="13.9" height="6"/>
	<g>
		<text transform="matrix(1 0 0 1 209.0701 419.7542)" class="st9 st12">V 0.35</text>
	</g>
</g>
<g>
	<rect x="162.1" y="414.7" class="st16" width="13.9" height="6"/>
	<g>
		<text transform="matrix(1 0 0 1 157.9274 419.7542)" class="st9 st12">P 0.35</text>
	</g>
</g>
<path class="st27" d="M164,386.7c-1.8,0-3.2,1.5-3.2,3.5c0,1.9,1.4,3.5,3.2,3.5l59.9-6.9c1.8,0,3.2,1.5,3.2,3.5
	c0,1.9-1.4,3.5-3.2,3.5L164,386.7z"/>
<g>
	<rect x="372.2" y="249.6" class="st16" width="13.9" height="6"/>
	<g>
		<text transform="matrix(1 0 0 1 370.2576 254.5573)" class="st9 st12">V 0.35</text>
	</g>
</g>
<g>
	<rect x="323.1" y="249.6" class="st16" width="13.9" height="6"/>
	<g>
		<text transform="matrix(1 0 0 1 319.115 254.5573)" class="st9 st12">P 0.35</text>
	</g>
</g>
<path class="st27" d="M325,262.7c-1.8,0-3.2,1.5-3.2,3.5c0,1.9,1.4,3.5,3.2,3.5l59.9-6.9c1.8,0,3.2,1.5,3.2,3.5
	c0,1.9-1.4,3.5-3.2,3.5L325,262.7z"/>
<g>
	<text transform="matrix(1 0 0 1 159.3106 446.1611)" class="st9 st10">CAN_H</text>
</g>
<g>
	<text transform="matrix(1 0 0 1 297.134 201.6)" class="st9 st12">See Chassis Network - Circuit Diagram</text>
</g>
<path class="st28" d="M322,214.7l0.5-2.1c0,0,0.5-2.5,2.7-2.6h28.3l0,0l1.6-2.7l1.6,2.7c7.4,0,28.2,0,28.2,0
	c2.2,0.1,2.7,2.6,2.7,2.6l0.5,2.1"/>
<g>
	<g>
		<line class="st17" x1="168.4" y1="432.9" x2="168.4" y2="441.2"/>
	</g>
	<g>
		<path class="st16" d="M168.5,429.9c-1.6,0-3,1.4-3,3c0,1.8,1.4,3.2,3,3.2c1.8,0,3.2-1.4,3.2-3.2
			C171.7,431.3,170.3,429.9,168.5,429.9z"/>
		<path d="M168.5,429.3v1.1c-1.4,0-2.5,1.1-2.5,2.5c0,1.5,1.1,2.7,2.5,2.7v1.1c-2,0-3.7-1.7-3.7-3.8
			C164.8,430.9,166.5,429.3,168.5,429.3L168.5,429.3z M172.3,432.9c0-2-1.7-3.7-3.8-3.7v1.1c1.5,0,2.7,1.1,2.7,2.5
			c0,1.5-1.1,2.7-2.7,2.7v1.1C170.6,436.7,172.3,435.1,172.3,432.9z"/>
	</g>
	<rect x="164.3" y="433.1" class="st16" width="8.5" height="4.1"/>
	<rect x="167.9" y="432" width="1" height="4.2"/>
	<rect x="167.9" y="432" class="st18" width="1" height="4.2"/>
</g>
<g>
	<text transform="matrix(1 0 0 1 372.0944 446.1611)" class="st9 st10">CAN-L</text>
</g>
<g>
	<rect x="371.7" y="414.7" class="st16" width="13.9" height="6"/>
	<g>
		<text transform="matrix(1 0 0 1 369.5346 419.7542)" class="st9 st12">V 0.35</text>
	</g>
</g>
<g>
	<rect x="322.5" y="414.7" class="st16" width="13.9" height="6"/>
	<g>
		<text transform="matrix(1 0 0 1 318.392 419.7542)" class="st9 st12">P 0.35</text>
	</g>
</g>
<path class="st27" d="M324.4,386.7c-1.8,0-3.2,1.5-3.2,3.5c0,1.9,1.4,3.5,3.2,3.5l59.9-6.9c1.8,0,3.2,1.5,3.2,3.5
	c0,1.9-1.4,3.5-3.2,3.5L324.4,386.7z"/>
<g>
	<text transform="matrix(1 0 0 1 319.7751 446.1611)" class="st9 st10">CAN_H</text>
</g>
<g>
	<g>
		<line class="st17" x1="328.9" y1="432.9" x2="328.9" y2="441.2"/>
	</g>
	<g>
		<path class="st16" d="M329,429.9c-1.6,0-3,1.4-3,3c0,1.8,1.4,3.2,3,3.2c1.8,0,3.2-1.4,3.2-3.2C332.1,431.3,330.7,429.9,329,429.9z
			"/>
		<path d="M329,429.3v1.1c-1.4,0-2.5,1.1-2.5,2.5c0,1.5,1.1,2.7,2.5,2.7v1.1c-2,0-3.7-1.7-3.7-3.8
			C325.3,430.9,326.9,429.3,329,429.3L329,429.3z M332.8,432.9c0-2-1.7-3.7-3.8-3.7v1.1c1.5,0,2.7,1.1,2.7,2.5
			c0,1.5-1.1,2.7-2.7,2.7v1.1C331.1,436.7,332.8,435.1,332.8,432.9z"/>
	</g>
	<rect x="324.8" y="433.1" class="st16" width="8.5" height="4.1"/>
	<rect x="328.3" y="432" width="1" height="4.2"/>
	<rect x="328.3" y="432" class="st18" width="1" height="4.2"/>
</g>
<g>
	<g>
		<line class="st17" x1="379.4" y1="432.7" x2="379.4" y2="441"/>
	</g>
	<g>
		<path class="st16" d="M379.4,429.7c-1.6,0-3,1.4-3,3c0,1.8,1.4,3.2,3,3.2c1.8,0,3.2-1.4,3.2-3.2
			C382.6,431.1,381.2,429.7,379.4,429.7z"/>
		<path d="M379.4,429.1v1.1c-1.4,0-2.5,1.1-2.5,2.5c0,1.5,1.1,2.7,2.5,2.7v1.1c-2,0-3.7-1.7-3.7-3.8
			C375.8,430.7,377.4,429.1,379.4,429.1L379.4,429.1z M383.3,432.7c0-2-1.7-3.7-3.8-3.7v1.1c1.5,0,2.7,1.1,2.7,2.5
			c0,1.5-1.1,2.7-2.7,2.7v1.1C381.6,436.6,383.3,434.9,383.3,432.7z"/>
	</g>
	<rect x="375.3" y="432.9" class="st16" width="8.5" height="4.1"/>
	<rect x="378.8" y="431.9" width="1" height="4.2"/>
	<rect x="378.8" y="431.9" class="st18" width="1" height="4.2"/>
</g>
<g>
	<g>
		<line class="st17" x1="218.9" y1="432.7" x2="218.9" y2="441"/>
	</g>
	<g>
		<path class="st16" d="M219,429.7c-1.6,0-3,1.4-3,3c0,1.8,1.4,3.2,3,3.2c1.8,0,3.2-1.4,3.2-3.2C222.2,431.1,220.8,429.7,219,429.7z
			"/>
		<path d="M219,429.1v1.1c-1.4,0-2.5,1.1-2.5,2.5c0,1.5,1.1,2.7,2.5,2.7v1.1c-2,0-3.7-1.7-3.7-3.8
			C215.3,430.7,216.9,429.1,219,429.1L219,429.1z M222.8,432.7c0-2-1.7-3.7-3.8-3.7v1.1c1.5,0,2.7,1.1,2.7,2.5
			c0,1.5-1.1,2.7-2.7,2.7v1.1C221.1,436.6,222.8,434.9,222.8,432.7z"/>
	</g>
	<rect x="214.8" y="432.9" class="st16" width="8.5" height="4.1"/>
	<rect x="218.3" y="431.9" width="1" height="4.2"/>
	<rect x="218.3" y="431.9" class="st18" width="1" height="4.2"/>
</g>
<rect x="384.4" y="313.3" class="st23" width="25.3" height="5.6"/>
<text transform="matrix(1 0 0 1 385.9027 318.1396)" class="st9 st12">SP4815</text>
<path class="st24" d="M382.7,316.5c0-1.7-1.3-2.9-2.8-2.9c-1.6,0-2.9,1.2-2.9,2.9c0,1.5,1.3,2.7,2.9,2.7
	C381.4,319.3,382.7,318,382.7,316.5z"/>
<rect x="334.1" y="288.5" class="st23" width="25.3" height="5.6"/>
<text transform="matrix(1 0 0 1 335.011 293.3979)" class="st9 st12">SP4816</text>
<path class="st24" d="M332.2,290.8c0-1.7-1.3-2.9-2.8-2.9c-1.6,0-2.9,1.2-2.9,2.9c0,1.5,1.3,2.7,2.9,2.7
	C330.9,293.5,332.2,292.3,332.2,290.8z"/>
<g>
	<rect x="279" y="593.2" class="st16" width="8.7" height="6"/>
	<g>
		<text transform="matrix(1 0 0 1 274.0437 598.3568)" class="st9 st12">B 0.35</text>
	</g>
</g>
<g>
	<rect x="279" y="664.6" class="st16" width="8.7" height="6"/>
	<g>
		<text transform="matrix(1 0 0 1 274.0437 669.7388)" class="st9 st12">B 0.35</text>
	</g>
</g>
<g>
	<rect x="279" y="734.1" class="st16" width="8.7" height="6"/>
	<g>
		<text transform="matrix(1 0 0 1 274.0437 739.265)" class="st9 st12">B 0.35</text>
	</g>
</g>
<rect x="289.9" y="699" class="st23" width="25.3" height="5.6"/>
<text transform="matrix(1 0 0 1 290.5885 703.8539)" class="st9 st12">SP4859</text>
<path class="st24" d="M286.2,701.8c0,1.7-1.3,2.9-2.8,2.9c-1.6,0-2.9-1.2-2.9-2.9c0-1.5,1.3-2.7,2.9-2.7
	C284.9,699.1,286.2,700.3,286.2,701.8z"/>
<g>
	<rect x="279.7" y="617.2" class="st16" width="8.5" height="18.8"/>
	<g>
		<g>
			<line class="st21" x1="283.8" y1="625.9" x2="283.8" y2="617.7"/>
		</g>
		<g>
			<line class="st22" x1="283.9" y1="629.1" x2="283.9" y2="635.6"/>
		</g>
		<g>
			<g>
				<g>
					<path class="st16" d="M283.8,629c-1.7,0-3.2-1.4-3.2-3.2s1.5-3.2,3.2-3.2c1.8,0,3.2,1.4,3.2,3.2S285.6,629,283.8,629z"/>
					<path d="M283.8,629.6c-2,0-3.7-1.8-3.7-3.8h1.1c0,1.4,1.1,2.5,2.5,2.5c1.5,0,2.7-1.1,2.7-2.5h1.1
						C287.7,627.8,286,629.6,283.8,629.6L283.8,629.6z M280.2,625.8h1.1c0-1.4,1.1-2.5,2.5-2.5c1.5,0,2.7,1.1,2.7,2.5h1.1
						c0-2.2-1.6-3.8-3.8-3.8C281.8,622,280.2,623.6,280.2,625.8z"/>
				</g>
				<rect x="279.7" y="621.6" class="st16" width="8.5" height="4.1"/>
				<rect x="283.2" y="622.5" width="1" height="4.2"/>
				<rect x="283.2" y="622.5" class="st18" width="1" height="4.2"/>
			</g>
		</g>
	</g>
</g>
<rect x="289.2" y="559.6" class="st23" width="25.3" height="5.6"/>
<text transform="matrix(1 0 0 1 289.8647 564.5156)" class="st9 st12">SP4857</text>
<path class="st24" d="M286.5,570c0,1.7-1.3,2.9-2.8,2.9c-1.6,0-2.9-1.2-2.9-2.9c0-1.5,1.3-2.7,2.9-2.7
	C285.2,567.3,286.5,568.5,286.5,570z"/>
<g id="GB031_3_">
	<g>
		<g>
			<line class="st25" x1="673.7" y1="770.4" x2="673.7" y2="773"/>
		</g>
		<g>
			<line class="st25" x1="666.7" y1="773" x2="680.5" y2="773"/>
		</g>
		<g>
			<line class="st25" x1="669.5" y1="775.3" x2="677.7" y2="775.3"/>
		</g>
		<g>
			<line class="st25" x1="676" y1="777.3" x2="671.2" y2="777.3"/>
		</g>
	</g>
	<g>
		<rect x="663.3" y="779.8" class="st16" width="20.3" height="8.2"/>
		<rect x="663.6" y="780.2" class="st29" width="19.7" height="7.6"/>
	</g>
</g>
<g id="REB_x2C_A3_1_">
	<rect x="443.4" y="136.7" class="st8" width="46.5" height="52.8"/>
</g>
<g id="REB_x2C_A3_3_">
	<rect x="526.8" y="136.7" class="st8" width="46.5" height="52.8"/>
</g>
<g id="RF22_x2C_A3_7_">
	<g>
		<g>
			<path class="st11" d="M465.4,164.6c-1.2,0-2.2,1-2.2,2.2s1,2.2,2.2,2.2s2.2-1,2.2-2.2S466.6,164.6,465.4,164.6"/>
		</g>
		<g>
			<path class="st11" d="M465.4,148.8c-1.2,0-2.2,1-2.2,2.1c0,1.2,1,2.2,2.2,2.2s2.2-0.9,2.2-2.2
				C467.6,149.8,466.6,148.8,465.4,148.8"/>
		</g>
		<g>
			<path class="st11" d="M463.9,152.5c-0.1,2.5,0.2,3.2,1.3,4.3c1.2,1.2,2.4,1.7,2.8,3.7c0.4,1.6-0.1,3.5-1.1,4.5"/>
		</g>
		<g>
			<path class="st11" d="M466.8,165.1c0.2-0.8,0-2.9-0.6-3.7c-0.9-1.2-2.7-2.1-3.3-4c-0.9-2.8,0.7-4.6,1.1-5"/>
		</g>
	</g>
</g>
<g>
	<text transform="matrix(1 0 0 1 462.3179 445.6067)" class="st9 st10">Constant power</text>
</g>
<g>
	<text transform="matrix(1 0 0 1 659.7749 465.3752)" class="st9 st10">Left Blind spot warning light+</text>
</g>
<line class="st30" x1="465.5" y1="198" x2="465.5" y2="430.3"/>
<g>
	<g>
		<polyline class="st17" points="465.4,168.9 465.4,172.9 465.4,189.6 		"/>
	</g>
</g>
<g>
	<g>
		<polyline class="st17" points="465.4,148.4 465.4,144.3 465.4,46.5 		"/>
	</g>
</g>
<g>
	<g>
		<line class="st17" x1="465.4" y1="198" x2="465.4" y2="189.8"/>
	</g>
	<g>
		<path class="st16" d="M465.5,201.1c-1.7,0-3-1.4-3-3c0-1.8,1.4-3.2,3-3.2c1.8,0,3.2,1.4,3.2,3.2
			C468.7,199.7,467.3,201.1,465.5,201.1z"/>
		<path d="M465.5,201.7c-2,0-3.7-1.6-3.7-3.7c0-2.2,1.7-3.8,3.7-3.8v1.1c-1.4,0-2.5,1.1-2.5,2.7c0,1.4,1.1,2.5,2.5,2.5V201.7
			L465.5,201.7z M465.5,194.2v1.1c1.5,0,2.7,1.1,2.7,2.7c0,1.4-1.1,2.5-2.7,2.5v1.1c2.2,0,3.8-1.6,3.8-3.7
			C469.3,195.8,467.7,194.2,465.5,194.2z"/>
	</g>
	<rect x="461.3" y="193.8" class="st16" width="8.5" height="4.1"/>
	<rect x="464.9" y="194.7" width="1" height="4.2"/>
	<rect x="464.9" y="194.7" class="st18" width="1" height="4.2"/>
</g>
<g>
	<g>
		<line class="st17" x1="465.7" y1="432.8" x2="465.7" y2="441.1"/>
	</g>
	<g>
		<path class="st16" d="M465.6,429.8c1.7,0,3,1.4,3,3c0,1.8-1.4,3.2-3,3.2c-1.8,0-3.2-1.4-3.2-3.2
			C462.5,431.2,463.9,429.8,465.6,429.8z"/>
		<path d="M465.6,429.1c2,0,3.7,1.7,3.7,3.7c0,2.2-1.7,3.8-3.7,3.8v-1.1c1.4,0,2.5-1.1,2.5-2.7c0-1.4-1.1-2.5-2.5-2.5V429.1
			L465.6,429.1z M465.6,436.6v-1.1c-1.5,0-2.7-1.1-2.7-2.7c0-1.4,1.1-2.5,2.7-2.5v-1.1c-2.2,0-3.8,1.7-3.8,3.7
			C461.8,435,463.5,436.6,465.6,436.6z"/>
	</g>
	<rect x="461.3" y="433" class="st16" width="8.5" height="4.1"/>
	<rect x="465.3" y="431.9" width="1" height="4.2"/>
	<rect x="465.3" y="431.9" class="st18" width="1" height="4.2"/>
</g>
<rect x="459.2" y="249.6" class="st16" width="12.7" height="6"/>
<g>
	<path class="st31" d="M462.3,46.3c0-1.7,1.3-2.9,2.8-2.9c1.6,0,2.9,1.2,2.9,2.9c0,1.5-1.3,2.7-2.9,2.7
		C463.6,49,462.3,47.8,462.3,46.3z"/>
	<g>
		<path class="st20" d="M462.3,46.3c0-1.7,1.3-2.9,2.8-2.9c1.6,0,2.9,1.2,2.9,2.9c0,1.5-1.3,2.7-2.9,2.7
			C463.6,49,462.3,47.8,462.3,46.3"/>
	</g>
</g>
<rect x="459.2" y="414.3" class="st16" width="12.7" height="6"/>
<rect x="459.3" y="414.3" class="st16" width="12.5" height="6"/>
<g>
	<text transform="matrix(1 0 0 1 457.7097 419.1897)" class="st9 st12">R 8.0</text>
</g>
<g>
	<text transform="matrix(1 0 0 1 457.7092 254.7554)" class="st9 st12">R 8.0</text>
</g>
<rect x="667" y="491.5" class="st16" width="12.7" height="6"/>
<rect x="667.1" y="491.5" class="st16" width="12.5" height="6"/>
<g>
	<text transform="matrix(1 0 0 1 660.3256 496.38)" class="st9 st12">L/W 0.35</text>
</g>
<line class="st32" x1="673.7" y1="599.2" x2="673.7" y2="772.5"/>
<line class="st32" x1="673.7" y1="599.2" x2="673.7" y2="772.5"/>
<g>
	<g>
		<line class="st17" x1="674" y1="599.2" x2="674" y2="591"/>
	</g>
	<g>
		<path class="st16" d="M674,602.3c-1.7,0-3-1.4-3-3c0-1.8,1.4-3.2,3-3.2c1.8,0,3.2,1.4,3.2,3.2C677.2,600.9,675.8,602.3,674,602.3z
			"/>
		<path d="M674,602.9c-2,0-3.7-1.6-3.7-3.7c0-2.2,1.7-3.8,3.7-3.8v1.1c-1.4,0-2.5,1.1-2.5,2.7c0,1.4,1.1,2.5,2.5,2.5V602.9
			L674,602.9z M674,595.4v1.1c1.5,0,2.7,1.1,2.7,2.7c0,1.4-1.1,2.5-2.7,2.5v1.1c2.2,0,3.8-1.6,3.8-3.7
			C677.9,597.1,676.2,595.4,674,595.4z"/>
	</g>
	<rect x="669.9" y="595.1" class="st16" width="8.5" height="4.1"/>
	<rect x="673.4" y="595.9" width="1" height="4.2"/>
	<rect x="673.4" y="595.9" class="st18" width="1" height="4.2"/>
</g>
<rect x="667.8" y="618.7" class="st16" width="12.7" height="6"/>
<rect x="667.9" y="618.7" class="st16" width="12.5" height="6"/>
<g>
	<text transform="matrix(1 0 0 1 664.751 623.6345)" class="st9 st12">B 0.35</text>
</g>
<rect x="667.4" y="734.1" class="st16" width="12.7" height="6"/>
<rect x="667.5" y="734.1" class="st16" width="12.5" height="6"/>
<g>
	<text transform="matrix(1 0 0 1 666.1315 739.0384)" class="st9 st12">B 0.5</text>
</g>
<g>
	<g>
		<line class="st17" x1="674" y1="550.1" x2="674" y2="558.4"/>
	</g>
	<g>
		<path class="st16" d="M673.9,547.1c1.7,0,3,1.4,3,3c0,1.8-1.4,3.2-3,3.2c-1.8,0-3.2-1.4-3.2-3.2
			C670.8,548.5,672.2,547.1,673.9,547.1z"/>
		<path d="M673.9,546.5c2,0,3.7,1.7,3.7,3.7c0,2.2-1.7,3.8-3.7,3.8v-1.1c1.4,0,2.5-1.1,2.5-2.7c0-1.4-1.1-2.5-2.5-2.5V546.5
			L673.9,546.5z M673.9,554v-1.1c-1.5,0-2.7-1.1-2.7-2.7c0-1.4,1.1-2.5,2.7-2.5v-1.1c-2.2,0-3.8,1.7-3.8,3.7
			C670.1,552.3,671.8,554,673.9,554z"/>
	</g>
	<rect x="669.6" y="550.3" class="st16" width="8.5" height="4.1"/>
	<rect x="673.5" y="549.3" width="1" height="4.2"/>
	<rect x="673.5" y="549.3" class="st18" width="1" height="4.2"/>
</g>
<g>
	<g>
		<text transform="matrix(1 0 0 1 469.7393 164.1272)" class="st9 st12">100A</text>
	</g>
</g>
<path class="st4" d="M705.9,591h-63.7v-0.1v-32.5h63.7c0,0-4.6,7.7,0,17.2C710.5,585,705.9,591,705.9,591z"/>
<g>
	<polygon class="st4" points="673.9,579 668.1,570.4 679.7,570.4 	"/>
	<polygon class="st33" points="673.9,579 668.1,570.4 679.7,570.4 	"/>
	<line class="st34" x1="669" y1="579" x2="678.9" y2="579"/>
	<polygon class="st35" points="670,575.7 667.6,578.7 666.4,576.8 	"/>
	<polygon class="st36" points="670,575.7 667.6,578.7 666.4,576.8 	"/>
	<line class="st37" x1="670" y1="575.7" x2="664.5" y2="579.5"/>
	<line class="st36" x1="670" y1="575.7" x2="664.5" y2="579.5"/>
	<polygon class="st35" points="666.7,573.7 664.3,576.6 663,574.7 	"/>
	<polygon class="st36" points="666.7,573.7 664.3,576.6 663,574.7 	"/>
	<line class="st36" x1="666.7" y1="573.7" x2="661.2" y2="577.5"/>
	<line class="st34" x1="673.9" y1="579" x2="673.9" y2="591"/>
	<line class="st34" x1="673.9" y1="570.4" x2="673.9" y2="558.4"/>
</g>
<rect x="677.7" y="682.5" class="st23" width="25.3" height="5.6"/>
<text transform="matrix(1 0 0 1 679.1753 687.2764)" class="st9 st12">SP4848</text>
<path class="st24" d="M676.6,685.4c0-1.7-1.3-2.9-2.8-2.9c-1.6,0-2.9,1.2-2.9,2.9c0,1.5,1.3,2.7,2.9,2.7
	C675.3,688.1,676.6,686.9,676.6,685.4z"/>
<line class="st38" x1="465.8" y1="478.5" x2="465.8" y2="772.7"/>
<line class="st38" x1="547.4" y1="478.5" x2="547.4" y2="772.7"/>
<line class="st38" x1="610.8" y1="478.5" x2="610.8" y2="772.7"/>
<g>
	<text transform="matrix(1 0 0 1 461.7186 465.3748)" class="st9 st10">Power ground 1</text>
</g>
<g>
	<g>
		<line class="st17" x1="465.8" y1="475.4" x2="465.8" y2="467.2"/>
	</g>
	<g>
		<path class="st16" d="M465.9,478.5c-1.7,0-3-1.4-3-3c0-1.8,1.4-3.2,3-3.2c1.8,0,3.2,1.4,3.2,3.2
			C469.1,477.1,467.7,478.5,465.9,478.5z"/>
		<path d="M465.9,479.1c-2,0-3.7-1.6-3.7-3.7c0-2.2,1.7-3.8,3.7-3.8v1.1c-1.4,0-2.5,1.1-2.5,2.7c0,1.4,1.1,2.5,2.5,2.5V479.1
			L465.9,479.1z M465.9,471.6v1.1c1.5,0,2.7,1.1,2.7,2.7c0,1.4-1.1,2.5-2.7,2.5v1.1c2.2,0,3.8-1.6,3.8-3.7
			C469.7,473.3,468.1,471.6,465.9,471.6z"/>
	</g>
	<rect x="461.7" y="471.3" class="st16" width="8.5" height="4.1"/>
	<rect x="465.3" y="472.1" width="1" height="4.2"/>
	<rect x="465.3" y="472.1" class="st18" width="1" height="4.2"/>
</g>
<rect x="462.6" y="491.5" class="st16" width="6.4" height="6"/>
<g>
	<text transform="matrix(1 0 0 1 458.2684 496.38)" class="st9 st12">B 2.5</text>
</g>
<g>
	<text transform="matrix(1 0 0 1 539.6321 465.3749)" class="st9 st10">Power ground 2</text>
</g>
<g id="GB031_8_">
	<g>
		<g>
			<line class="st25" x1="547.4" y1="770.9" x2="547.4" y2="773.6"/>
		</g>
		<g>
			<line class="st25" x1="540.3" y1="773.6" x2="554.1" y2="773.6"/>
		</g>
		<g>
			<line class="st25" x1="543.1" y1="775.8" x2="551.3" y2="775.8"/>
		</g>
		<g>
			<line class="st25" x1="549.7" y1="777.9" x2="544.9" y2="777.9"/>
		</g>
	</g>
	<g>
		<rect x="536.9" y="780.4" class="st16" width="20.3" height="8.2"/>
		<rect x="537.2" y="780.7" class="st29" width="19.7" height="7.6"/>
	</g>
</g>
<g>
	<g>
		<line class="st17" x1="547.4" y1="475.4" x2="547.4" y2="467.2"/>
	</g>
	<g>
		<path class="st16" d="M547.5,478.5c-1.7,0-3-1.4-3-3c0-1.8,1.4-3.2,3-3.2c1.8,0,3.2,1.4,3.2,3.2
			C550.7,477.1,549.3,478.5,547.5,478.5z"/>
		<path d="M547.5,479.1c-2,0-3.7-1.6-3.7-3.7c0-2.2,1.7-3.8,3.7-3.8v1.1c-1.4,0-2.5,1.1-2.5,2.7c0,1.4,1.1,2.5,2.5,2.5V479.1
			L547.5,479.1z M547.5,471.6v1.1c1.5,0,2.7,1.1,2.7,2.7c0,1.4-1.1,2.5-2.7,2.5v1.1c2.2,0,3.8-1.6,3.8-3.7
			C551.3,473.3,549.7,471.6,547.5,471.6z"/>
	</g>
	<rect x="543.3" y="471.3" class="st16" width="8.5" height="4.1"/>
	<rect x="546.9" y="472.1" width="1" height="4.2"/>
	<rect x="546.9" y="472.1" class="st18" width="1" height="4.2"/>
</g>
<rect x="544.2" y="491.5" class="st16" width="6.4" height="6"/>
<g>
	<text transform="matrix(1 0 0 1 539.8719 496.3801)" class="st9 st12">B 2.5</text>
</g>
<g id="GB031_4_">
	<g>
		<g>
			<line class="st25" x1="465.8" y1="770.9" x2="465.8" y2="773.6"/>
		</g>
		<g>
			<line class="st25" x1="458.8" y1="773.6" x2="472.6" y2="773.6"/>
		</g>
		<g>
			<line class="st25" x1="461.6" y1="775.8" x2="469.8" y2="775.8"/>
		</g>
		<g>
			<line class="st25" x1="468.2" y1="777.9" x2="463.3" y2="777.9"/>
		</g>
	</g>
	<g>
		<rect x="455.4" y="780.4" class="st16" width="20.3" height="8.2"/>
		<rect x="455.7" y="780.7" class="st29" width="19.7" height="7.6"/>
	</g>
</g>
<g>
	<text transform="matrix(1 0 0 1 604.6798 465.374)" class="st9 st10">Signal ground</text>
</g>
<g id="GB031_7_">
	<g>
		<g>
			<line class="st25" x1="610.7" y1="770.9" x2="610.7" y2="773.6"/>
		</g>
		<g>
			<line class="st25" x1="603.7" y1="773.6" x2="617.5" y2="773.6"/>
		</g>
		<g>
			<line class="st25" x1="606.5" y1="775.8" x2="614.7" y2="775.8"/>
		</g>
		<g>
			<line class="st25" x1="613" y1="777.9" x2="608.2" y2="777.9"/>
		</g>
	</g>
	<g>
		<rect x="600.3" y="780.4" class="st16" width="20.3" height="8.2"/>
		<rect x="600.6" y="780.7" class="st29" width="19.7" height="7.6"/>
	</g>
</g>
<g>
	<g>
		<line class="st17" x1="610.8" y1="475.4" x2="610.8" y2="467.2"/>
	</g>
	<g>
		<path class="st16" d="M610.9,478.5c-1.7,0-3-1.4-3-3c0-1.8,1.4-3.2,3-3.2c1.8,0,3.2,1.4,3.2,3.2
			C614.1,477.1,612.7,478.5,610.9,478.5z"/>
		<path d="M610.9,479.1c-2,0-3.7-1.6-3.7-3.7c0-2.2,1.7-3.8,3.7-3.8v1.1c-1.4,0-2.5,1.1-2.5,2.7c0,1.4,1.1,2.5,2.5,2.5V479.1
			L610.9,479.1z M610.9,471.6v1.1c1.5,0,2.7,1.1,2.7,2.7c0,1.4-1.1,2.5-2.7,2.5v1.1c2.2,0,3.8-1.6,3.8-3.7
			C614.7,473.3,613,471.6,610.9,471.6z"/>
	</g>
	<rect x="606.7" y="471.3" class="st16" width="8.5" height="4.1"/>
	<rect x="610.3" y="472.1" width="1" height="4.2"/>
	<rect x="610.3" y="472.1" class="st18" width="1" height="4.2"/>
</g>
<g>
	<g>
		<line class="st17" x1="673.7" y1="475.4" x2="673.7" y2="467.2"/>
	</g>
	<g>
		<path class="st16" d="M673.8,478.5c-1.7,0-3-1.4-3-3c0-1.8,1.4-3.2,3-3.2c1.8,0,3.2,1.4,3.2,3.2
			C677,477.1,675.6,478.5,673.8,478.5z"/>
		<path d="M673.8,479.1c-2,0-3.7-1.6-3.7-3.7c0-2.2,1.7-3.8,3.7-3.8v1.1c-1.4,0-2.5,1.1-2.5,2.7c0,1.4,1.1,2.5,2.5,2.5V479.1
			L673.8,479.1z M673.8,471.6v1.1c1.5,0,2.7,1.1,2.7,2.7c0,1.4-1.1,2.5-2.7,2.5v1.1c2.2,0,3.8-1.6,3.8-3.7
			C677.6,473.3,676,471.6,673.8,471.6z"/>
	</g>
	<rect x="669.6" y="471.3" class="st16" width="8.5" height="4.1"/>
	<rect x="673.2" y="472.1" width="1" height="4.2"/>
	<rect x="673.2" y="472.1" class="st18" width="1" height="4.2"/>
</g>
<line class="st2" x1="1020.9" y1="478.5" x2="1020.9" y2="548.5"/>
<line class="st3" x1="1020.9" y1="478.5" x2="1020.9" y2="548.5"/>
<g id="GB031_2_">
	<g>
		<g>
			<line class="st25" x1="1020.8" y1="770.4" x2="1020.8" y2="773"/>
		</g>
		<g>
			<line class="st25" x1="1013.7" y1="773" x2="1027.5" y2="773"/>
		</g>
		<g>
			<line class="st25" x1="1016.5" y1="775.3" x2="1024.7" y2="775.3"/>
		</g>
		<g>
			<line class="st25" x1="1023.1" y1="777.3" x2="1018.2" y2="777.3"/>
		</g>
	</g>
	<g>
		<rect x="1010.3" y="779.8" class="st16" width="20.3" height="8.2"/>
		<rect x="1010.6" y="780.2" class="st29" width="19.7" height="7.6"/>
	</g>
</g>
<rect x="1014" y="491.5" class="st16" width="12.7" height="6"/>
<rect x="1014.1" y="491.5" class="st16" width="12.5" height="6"/>
<g>
	<text transform="matrix(1 0 0 1 1007.3656 496.3805)" class="st9 st12">L/W 0.35</text>
</g>
<line class="st32" x1="1020.8" y1="599.2" x2="1020.8" y2="772.5"/>
<line class="st32" x1="1020.8" y1="599.2" x2="1020.8" y2="772.5"/>
<g>
	<g>
		<line class="st17" x1="1021" y1="599.2" x2="1021" y2="591"/>
	</g>
	<g>
		<path class="st16" d="M1021.1,602.3c-1.7,0-3-1.4-3-3c0-1.8,1.4-3.2,3-3.2c1.8,0,3.2,1.4,3.2,3.2
			C1024.3,600.9,1022.9,602.3,1021.1,602.3z"/>
		<path d="M1021.1,602.9c-2,0-3.7-1.6-3.7-3.7c0-2.2,1.7-3.8,3.7-3.8v1.1c-1.4,0-2.5,1.1-2.5,2.7c0,1.4,1.1,2.5,2.5,2.5V602.9
			L1021.1,602.9z M1021.1,595.4v1.1c1.5,0,2.7,1.1,2.7,2.7c0,1.4-1.1,2.5-2.7,2.5v1.1c2.2,0,3.8-1.6,3.8-3.7
			C1024.9,597.1,1023.2,595.4,1021.1,595.4z"/>
	</g>
	<rect x="1016.9" y="595.1" class="st16" width="8.5" height="4.1"/>
	<rect x="1020.5" y="595.9" width="1" height="4.2"/>
	<rect x="1020.5" y="595.9" class="st18" width="1" height="4.2"/>
</g>
<rect x="1014.8" y="618.7" class="st16" width="12.7" height="6"/>
<rect x="1014.9" y="618.7" class="st16" width="12.5" height="6"/>
<g>
	<text transform="matrix(1 0 0 1 1011.791 623.6345)" class="st9 st12">B 0.35</text>
</g>
<rect x="1014.4" y="734.1" class="st16" width="12.7" height="6"/>
<rect x="1014.5" y="734.1" class="st16" width="12.5" height="6"/>
<g>
	<text transform="matrix(1 0 0 1 1013.1715 739.0384)" class="st9 st12">B 1.0</text>
</g>
<g>
	<g>
		<line class="st17" x1="1021.1" y1="550.1" x2="1021.1" y2="558.4"/>
	</g>
	<g>
		<path class="st16" d="M1021,547.1c1.7,0,3,1.4,3,3c0,1.8-1.4,3.2-3,3.2c-1.8,0-3.2-1.4-3.2-3.2
			C1017.8,548.5,1019.2,547.1,1021,547.1z"/>
		<path d="M1021,546.5c2,0,3.7,1.7,3.7,3.7c0,2.2-1.7,3.8-3.7,3.8v-1.1c1.4,0,2.5-1.1,2.5-2.7c0-1.4-1.1-2.5-2.5-2.5L1021,546.5
			L1021,546.5z M1021,554v-1.1c-1.5,0-2.7-1.1-2.7-2.7c0-1.4,1.1-2.5,2.7-2.5v-1.1c-2.2,0-3.8,1.7-3.8,3.7
			C1017.2,552.3,1018.8,554,1021,554z"/>
	</g>
	<rect x="1016.7" y="550.3" class="st16" width="8.5" height="4.1"/>
	<rect x="1020.6" y="549.3" width="1" height="4.2"/>
	<rect x="1020.6" y="549.3" class="st18" width="1" height="4.2"/>
</g>
<path class="st4" d="M1053,591h-63.7v-0.1v-32.5h63.7c0,0-4.6,7.7,0,17.2C1057.5,585,1053,591,1053,591z"/>
<g>
	<text transform="matrix(1 0 0 1 991.9872 563.1489)" class="st39"><tspan x="0" y="0" class="st9 st10">Blind spot </tspan><tspan x="0" y="4.8" class="st9 st10">warning light</tspan></text>
</g>
<g>
	<polygon class="st4" points="1021,579 1015.2,570.4 1026.7,570.4 	"/>
	<polygon class="st33" points="1021,579 1015.2,570.4 1026.7,570.4 	"/>
	<line class="st34" x1="1016.1" y1="579" x2="1025.9" y2="579"/>
	<polygon class="st35" points="1017,575.7 1014.7,578.7 1013.4,576.8 	"/>
	<polygon class="st36" points="1017,575.7 1014.7,578.7 1013.4,576.8 	"/>
	<line class="st37" x1="1017" y1="575.7" x2="1011.6" y2="579.5"/>
	<line class="st36" x1="1017" y1="575.7" x2="1011.6" y2="579.5"/>
	<polygon class="st35" points="1013.7,573.7 1011.3,576.6 1010,574.7 	"/>
	<polygon class="st36" points="1013.7,573.7 1011.3,576.6 1010,574.7 	"/>
	<line class="st36" x1="1013.7" y1="573.7" x2="1008.2" y2="577.5"/>
	<line class="st34" x1="1021" y1="579" x2="1021" y2="591"/>
	<line class="st34" x1="1021" y1="570.4" x2="1021" y2="558.4"/>
</g>
<rect x="1024.7" y="682.5" class="st23" width="25.3" height="5.6"/>
<text transform="matrix(1 0 0 1 1026.2153 687.2764)" class="st9 st12">SP4849</text>
<path class="st24" d="M1023.6,685.4c0-1.7-1.3-2.9-2.8-2.9c-1.6,0-2.9,1.2-2.9,2.9c0,1.5,1.3,2.7,2.9,2.7
	C1022.3,688.1,1023.6,686.9,1023.6,685.4z"/>
<g>
	<g>
		<line class="st17" x1="1020.7" y1="475.4" x2="1020.7" y2="467.2"/>
	</g>
	<g>
		<path class="st16" d="M1020.8,478.5c-1.7,0-3-1.4-3-3c0-1.8,1.4-3.2,3-3.2c1.8,0,3.2,1.4,3.2,3.2
			C1024,477.1,1022.6,478.5,1020.8,478.5z"/>
		<path d="M1020.8,479.1c-2,0-3.7-1.6-3.7-3.7c0-2.2,1.7-3.8,3.7-3.8v1.1c-1.4,0-2.5,1.1-2.5,2.7c0,1.4,1.1,2.5,2.5,2.5V479.1
			L1020.8,479.1z M1020.8,471.6v1.1c1.5,0,2.7,1.1,2.7,2.7c0,1.4-1.1,2.5-2.7,2.5v1.1c2.2,0,3.8-1.6,3.8-3.7
			C1024.6,473.3,1023,471.6,1020.8,471.6z"/>
	</g>
	<rect x="1016.7" y="471.3" class="st16" width="8.5" height="4.1"/>
	<rect x="1020.2" y="472.1" width="1" height="4.2"/>
	<rect x="1020.2" y="472.1" class="st18" width="1" height="4.2"/>
</g>
<rect x="607.6" y="491.5" class="st16" width="6.4" height="6"/>
<g>
	<text transform="matrix(1 0 0 1 601.3839 496.3792)" class="st9 st12">B 0.75</text>
</g>
<rect x="462.6" y="734.1" class="st16" width="6.4" height="6"/>
<g>
	<text transform="matrix(1 0 0 1 458.2684 739.0388)" class="st9 st12">B 2.5</text>
</g>
<rect x="544.2" y="734.1" class="st16" width="6.4" height="6"/>
<g>
	<text transform="matrix(1 0 0 1 539.8719 739.0389)" class="st9 st12">B 2.5</text>
</g>
<rect x="607.6" y="734.1" class="st16" width="6.4" height="6"/>
<g>
	<text transform="matrix(1 0 0 1 601.3839 739.038)" class="st9 st12">B 0.75</text>
</g>
<path class="st4" d="M1069.1,467H792.6l0,0v-25.8H1069c0,0-2.9,7.2,0,13C1071.9,459.8,1069.1,467,1069.1,467z"/>
<g id="REB_x2C_A3_2_">
	<rect x="933.3" y="136.7" class="st8" width="46.5" height="52.8"/>
</g>
<g id="RF22_x2C_A3_1_">
	<g>
		<g>
			<path class="st11" d="M955.3,164.6c-1.2,0-2.2,1-2.2,2.2s1,2.2,2.2,2.2s2.2-1,2.2-2.2S956.5,164.6,955.3,164.6"/>
		</g>
		<g>
			<path class="st11" d="M955.3,148.8c-1.2,0-2.2,1-2.2,2.1c0,1.2,1,2.2,2.2,2.2s2.2-0.9,2.2-2.2
				C957.5,149.8,956.5,148.8,955.3,148.8"/>
		</g>
		<g>
			<path class="st11" d="M953.8,152.5c-0.1,2.5,0.2,3.2,1.3,4.3c1.2,1.2,2.4,1.7,2.8,3.7c0.4,1.6-0.1,3.5-1.1,4.5"/>
		</g>
		<g>
			<path class="st11" d="M956.7,165.1c0.2-0.8,0-2.9-0.6-3.7c-0.9-1.2-2.7-2.1-3.3-4c-0.9-2.8,0.7-4.6,1.1-5"/>
		</g>
	</g>
</g>
<g>
	<text transform="matrix(1 0 0 1 952.2151 445.6067)" class="st9 st10">Constant power</text>
</g>
<line class="st30" x1="955.4" y1="198" x2="955.4" y2="430.3"/>
<g>
	<g>
		<polyline class="st17" points="955.3,168.9 955.3,172.9 955.3,189.6 		"/>
	</g>
</g>
<g>
	<g>
		<polyline class="st17" points="955.3,148.4 955.3,144.3 955.3,46.5 		"/>
	</g>
</g>
<g>
	<g>
		<line class="st17" x1="955.3" y1="198" x2="955.3" y2="189.8"/>
	</g>
	<g>
		<path class="st16" d="M955.4,201.1c-1.7,0-3-1.4-3-3c0-1.8,1.4-3.2,3-3.2c1.8,0,3.2,1.4,3.2,3.2
			C958.6,199.7,957.2,201.1,955.4,201.1z"/>
		<path d="M955.4,201.7c-2,0-3.7-1.6-3.7-3.7c0-2.2,1.7-3.8,3.7-3.8v1.1c-1.4,0-2.5,1.1-2.5,2.7c0,1.4,1.1,2.5,2.5,2.5V201.7
			L955.4,201.7z M955.4,194.2v1.1c1.5,0,2.7,1.1,2.7,2.7c0,1.4-1.1,2.5-2.7,2.5v1.1c2.2,0,3.8-1.6,3.8-3.7
			C959.2,195.8,957.6,194.2,955.4,194.2z"/>
	</g>
	<rect x="951.2" y="193.8" class="st16" width="8.5" height="4.1"/>
	<rect x="954.8" y="194.7" width="1" height="4.2"/>
	<rect x="954.8" y="194.7" class="st18" width="1" height="4.2"/>
</g>
<g>
	<g>
		<line class="st17" x1="955.6" y1="432.8" x2="955.6" y2="441.1"/>
	</g>
	<g>
		<path class="st16" d="M955.5,429.8c1.7,0,3,1.4,3,3c0,1.8-1.4,3.2-3,3.2c-1.8,0-3.2-1.4-3.2-3.2
			C952.4,431.2,953.8,429.8,955.5,429.8z"/>
		<path d="M955.5,429.1c2,0,3.7,1.7,3.7,3.7c0,2.2-1.7,3.8-3.7,3.8v-1.1c1.4,0,2.5-1.1,2.5-2.7c0-1.4-1.1-2.5-2.5-2.5V429.1
			L955.5,429.1z M955.5,436.6v-1.1c-1.5,0-2.7-1.1-2.7-2.7c0-1.4,1.1-2.5,2.7-2.5v-1.1c-2.2,0-3.8,1.7-3.8,3.7
			C951.7,435,953.4,436.6,955.5,436.6z"/>
	</g>
	<rect x="951.2" y="433" class="st16" width="8.5" height="4.1"/>
	<rect x="955.1" y="431.9" width="1" height="4.2"/>
	<rect x="955.1" y="431.9" class="st18" width="1" height="4.2"/>
</g>
<rect x="949.1" y="249.6" class="st16" width="12.7" height="6"/>
<g>
	<path class="st31" d="M952.2,46.3c0-1.7,1.3-2.9,2.8-2.9c1.6,0,2.9,1.2,2.9,2.9c0,1.5-1.3,2.7-2.9,2.7
		C953.5,49,952.2,47.8,952.2,46.3z"/>
	<g>
		<path class="st20" d="M952.2,46.3c0-1.7,1.3-2.9,2.8-2.9c1.6,0,2.9,1.2,2.9,2.9c0,1.5-1.3,2.7-2.9,2.7
			C953.5,49,952.2,47.8,952.2,46.3"/>
	</g>
</g>
<rect x="949.1" y="414.3" class="st16" width="12.7" height="6"/>
<rect x="949.2" y="414.3" class="st16" width="12.5" height="6"/>
<g>
	<text transform="matrix(1 0 0 1 947.6068 419.1897)" class="st9 st12">R 8.0</text>
</g>
<g>
	<text transform="matrix(1 0 0 1 947.6063 254.7554)" class="st9 st12">R 8.0</text>
</g>
<g>
	<g>
		<text transform="matrix(1 0 0 1 959.6365 164.1272)" class="st9 st12">100A</text>
	</g>
</g>
<line class="st38" x1="812" y1="478.5" x2="812" y2="772.7"/>
<line class="st38" x1="888" y1="478.5" x2="888" y2="772.7"/>
<line class="st38" x1="957.2" y1="478.5" x2="957.2" y2="772.7"/>
<g>
	<text transform="matrix(1 0 0 1 807.9618 465.3748)" class="st9 st10">Power ground 1</text>
</g>
<g>
	<g>
		<line class="st17" x1="812.1" y1="475.4" x2="812.1" y2="467.2"/>
	</g>
	<g>
		<path class="st16" d="M812.2,478.5c-1.7,0-3-1.4-3-3c0-1.8,1.4-3.2,3-3.2c1.8,0,3.2,1.4,3.2,3.2
			C815.3,477.1,813.9,478.5,812.2,478.5z"/>
		<path d="M812.2,479.1c-2,0-3.7-1.6-3.7-3.7c0-2.2,1.7-3.8,3.7-3.8v1.1c-1.4,0-2.5,1.1-2.5,2.7c0,1.4,1.1,2.5,2.5,2.5V479.1
			L812.2,479.1z M812.2,471.6v1.1c1.5,0,2.7,1.1,2.7,2.7c0,1.4-1.1,2.5-2.7,2.5v1.1c2.2,0,3.8-1.6,3.8-3.7
			C816,473.3,814.3,471.6,812.2,471.6z"/>
	</g>
	<rect x="808" y="471.3" class="st16" width="8.5" height="4.1"/>
	<rect x="811.5" y="472.1" width="1" height="4.2"/>
	<rect x="811.5" y="472.1" class="st18" width="1" height="4.2"/>
</g>
<rect x="808.8" y="491.5" class="st16" width="6.4" height="6"/>
<g>
	<text transform="matrix(1 0 0 1 804.4648 496.3805)" class="st9 st12">B 1.5</text>
</g>
<g>
	<text transform="matrix(1 0 0 1 880.2777 465.3749)" class="st9 st10">Power ground 2</text>
</g>
<g id="GB031_6_">
	<g>
		<g>
			<line class="st25" x1="888" y1="770.9" x2="888" y2="773.6"/>
		</g>
		<g>
			<line class="st25" x1="881" y1="773.6" x2="894.8" y2="773.6"/>
		</g>
		<g>
			<line class="st25" x1="883.8" y1="775.8" x2="892" y2="775.8"/>
		</g>
		<g>
			<line class="st25" x1="890.3" y1="777.9" x2="885.5" y2="777.9"/>
		</g>
	</g>
	<g>
		<rect x="877.6" y="780.4" class="st16" width="20.3" height="8.2"/>
		<rect x="877.9" y="780.7" class="st29" width="19.7" height="7.6"/>
	</g>
</g>
<g>
	<g>
		<line class="st17" x1="888.1" y1="475.4" x2="888.1" y2="467.2"/>
	</g>
	<g>
		<path class="st16" d="M888.2,478.5c-1.7,0-3-1.4-3-3c0-1.8,1.4-3.2,3-3.2c1.8,0,3.2,1.4,3.2,3.2
			C891.3,477.1,889.9,478.5,888.2,478.5z"/>
		<path d="M888.2,479.1c-2,0-3.7-1.6-3.7-3.7c0-2.2,1.7-3.8,3.7-3.8v1.1c-1.4,0-2.5,1.1-2.5,2.7c0,1.4,1.1,2.5,2.5,2.5V479.1
			L888.2,479.1z M888.2,471.6v1.1c1.5,0,2.7,1.1,2.7,2.7c0,1.4-1.1,2.5-2.7,2.5v1.1c2.2,0,3.8-1.6,3.8-3.7
			C892,473.3,890.3,471.6,888.2,471.6z"/>
	</g>
	<rect x="884" y="471.3" class="st16" width="8.5" height="4.1"/>
	<rect x="887.5" y="472.1" width="1" height="4.2"/>
	<rect x="887.5" y="472.1" class="st18" width="1" height="4.2"/>
</g>
<rect x="884.8" y="491.5" class="st16" width="6.4" height="6"/>
<g>
	<text transform="matrix(1 0 0 1 880.4648 496.3805)" class="st9 st12">B 1.5</text>
</g>
<g id="GB031_5_">
	<g>
		<g>
			<line class="st25" x1="812.1" y1="770.9" x2="812.1" y2="773.6"/>
		</g>
		<g>
			<line class="st25" x1="805" y1="773.6" x2="818.9" y2="773.6"/>
		</g>
		<g>
			<line class="st25" x1="807.8" y1="775.8" x2="816.1" y2="775.8"/>
		</g>
		<g>
			<line class="st25" x1="814.4" y1="777.9" x2="809.6" y2="777.9"/>
		</g>
	</g>
	<g>
		<rect x="801.6" y="780.4" class="st16" width="20.3" height="8.2"/>
		<rect x="801.9" y="780.7" class="st29" width="19.7" height="7.6"/>
	</g>
</g>
<g>
	<text transform="matrix(1 0 0 1 949.6364 465.374)" class="st9 st10">Power ground 3</text>
</g>
<g id="GB031_1_">
	<g>
		<g>
			<line class="st25" x1="957.2" y1="770.9" x2="957.2" y2="773.6"/>
		</g>
		<g>
			<line class="st25" x1="950.1" y1="773.6" x2="963.9" y2="773.6"/>
		</g>
		<g>
			<line class="st25" x1="952.9" y1="775.8" x2="961.1" y2="775.8"/>
		</g>
		<g>
			<line class="st25" x1="959.5" y1="777.9" x2="954.6" y2="777.9"/>
		</g>
	</g>
	<g>
		<rect x="946.7" y="780.4" class="st16" width="20.3" height="8.2"/>
		<rect x="947" y="780.7" class="st29" width="19.7" height="7.6"/>
	</g>
</g>
<g>
	<g>
		<line class="st17" x1="957.2" y1="475.4" x2="957.2" y2="467.2"/>
	</g>
	<g>
		<path class="st16" d="M957.3,478.5c-1.7,0-3-1.4-3-3c0-1.8,1.4-3.2,3-3.2c1.8,0,3.2,1.4,3.2,3.2
			C960.5,477.1,959.1,478.5,957.3,478.5z"/>
		<path d="M957.3,479.1c-2,0-3.7-1.6-3.7-3.7c0-2.2,1.7-3.8,3.7-3.8v1.1c-1.4,0-2.5,1.1-2.5,2.7c0,1.4,1.1,2.5,2.5,2.5V479.1
			L957.3,479.1z M957.3,471.6v1.1c1.5,0,2.7,1.1,2.7,2.7c0,1.4-1.1,2.5-2.7,2.5v1.1c2.2,0,3.8-1.6,3.8-3.7
			C961.1,473.3,959.5,471.6,957.3,471.6z"/>
	</g>
	<rect x="953.1" y="471.3" class="st16" width="8.5" height="4.1"/>
	<rect x="956.7" y="472.1" width="1" height="4.2"/>
	<rect x="956.7" y="472.1" class="st18" width="1" height="4.2"/>
</g>
<rect x="954" y="491.5" class="st16" width="6.4" height="6"/>
<g>
	<text transform="matrix(1 0 0 1 949.6367 496.3796)" class="st9 st12">B 2.5</text>
</g>
<rect x="808.8" y="734.1" class="st16" width="6.4" height="6"/>
<g>
	<text transform="matrix(1 0 0 1 804.4648 739.0383)" class="st9 st12">B 1.5</text>
</g>
<rect x="884.8" y="734.1" class="st16" width="6.4" height="6"/>
<g>
	<text transform="matrix(1 0 0 1 880.4648 739.0384)" class="st9 st12">B 1.5</text>
</g>
<rect x="954" y="734.1" class="st16" width="6.4" height="6"/>
<g>
	<text transform="matrix(1 0 0 1 949.6367 739.0375)" class="st9 st12">B 2.5</text>
</g>
<polyline class="st16" points="684.5,431.3 658.8,431.3 658.8,425.4 684.5,425.4 "/>
<line class="st5" x1="674" y1="433.5" x2="674" y2="218.4"/>
<line class="st6" x1="724.5" y1="434.2" x2="724.5" y2="217.4"/>
<g>
	<text transform="matrix(1 0 0 1 634.3614 198.5536)" class="st9 st12">See Body Network System - Circuit Diagram</text>
</g>
<path class="st28" d="M666.6,214.4l0.5-2.1c0,0,0.5-2.5,2.7-2.6H698l0,0l1.6-2.7l1.6,2.7c7.4,0,28.2,0,28.2,0
	c2.2,0.1,2.7,2.6,2.7,2.6l0.5,2.1"/>
<g>
	<text transform="matrix(1 0 0 1 716.7289 445.8486)" class="st9 st10">CAN-L</text>
</g>
<g>
	<rect x="716.3" y="415.3" class="st16" width="13.9" height="6"/>
	<g>
		<text transform="matrix(1 0 0 1 714.1691 420.2656)" class="st9 st12">V 0.35</text>
	</g>
</g>
<g>
	<rect x="667.2" y="415.3" class="st16" width="13.9" height="6"/>
	<g>
		<text transform="matrix(1 0 0 1 663.0265 420.2656)" class="st9 st12">P 0.35</text>
	</g>
</g>
<path class="st27" d="M669.1,386.4c-1.8,0-3.2,1.5-3.2,3.5c0,1.9,1.4,3.5,3.2,3.5l59.9-6.9c1.8,0,3.2,1.5,3.2,3.5
	c0,1.9-1.4,3.5-3.2,3.5L669.1,386.4z"/>
<g>
	<rect x="716.3" y="249.6" class="st16" width="13.9" height="6"/>
	<g>
		<text transform="matrix(1 0 0 1 714.1691 254.5781)" class="st9 st12">V 0.35</text>
	</g>
</g>
<g>
	<rect x="667.2" y="249.6" class="st16" width="13.9" height="6"/>
	<g>
		<text transform="matrix(1 0 0 1 663.0265 254.5781)" class="st9 st12">P 0.35</text>
	</g>
</g>
<path class="st27" d="M669.1,267.1c-1.8,0-3.2,1.5-3.2,3.5c0,1.9,1.4,3.5,3.2,3.5l59.9-6.9c1.8,0,3.2,1.5,3.2,3.5
	c0,1.9-1.4,3.5-3.2,3.5L669.1,267.1z"/>
<g>
	<text transform="matrix(1 0 0 1 664.4096 445.8486)" class="st9 st10">CAN_H</text>
</g>
<g>
	<g>
		<line class="st17" x1="673.5" y1="432.6" x2="673.5" y2="440.9"/>
	</g>
	<g>
		<path class="st16" d="M673.6,429.6c-1.6,0-3,1.4-3,3c0,1.8,1.4,3.2,3,3.2c1.8,0,3.2-1.4,3.2-3.2
			C676.8,431,675.4,429.6,673.6,429.6z"/>
		<path d="M673.6,428.9v1.1c-1.4,0-2.5,1.1-2.5,2.5c0,1.5,1.1,2.7,2.5,2.7v1.1c-2,0-3.7-1.7-3.7-3.8
			C669.9,430.6,671.6,428.9,673.6,428.9L673.6,428.9z M677.4,432.6c0-2-1.7-3.7-3.8-3.7v1.1c1.5,0,2.7,1.1,2.7,2.5
			c0,1.5-1.1,2.7-2.7,2.7v1.1C675.7,436.4,677.4,434.8,677.4,432.6z"/>
	</g>
	<rect x="669.4" y="432.7" class="st16" width="8.5" height="4.1"/>
	<rect x="673" y="431.7" width="1" height="4.2"/>
	<rect x="673" y="431.7" class="st18" width="1" height="4.2"/>
</g>
<g>
	<g>
		<line class="st17" x1="724" y1="432.4" x2="724" y2="440.7"/>
	</g>
	<g>
		<path class="st16" d="M724.1,429.4c-1.6,0-3,1.4-3,3c0,1.8,1.4,3.2,3,3.2c1.8,0,3.2-1.4,3.2-3.2
			C727.3,430.8,725.9,429.4,724.1,429.4z"/>
		<path d="M724.1,428.8v1.1c-1.4,0-2.5,1.1-2.5,2.5c0,1.5,1.1,2.7,2.5,2.7v1.1c-2,0-3.7-1.7-3.7-3.8
			C720.4,430.4,722,428.8,724.1,428.8L724.1,428.8z M727.9,432.4c0-2-1.7-3.7-3.8-3.7v1.1c1.5,0,2.7,1.1,2.7,2.5
			c0,1.5-1.1,2.7-2.7,2.7v1.1C726.2,436.2,727.9,434.6,727.9,432.4z"/>
	</g>
	<rect x="719.9" y="432.6" class="st16" width="8.5" height="4.1"/>
	<rect x="723.4" y="431.5" width="1" height="4.2"/>
	<rect x="723.4" y="431.5" class="st18" width="1" height="4.2"/>
</g>
<polyline class="st16" points="824.1,431.3 798.4,431.3 798.4,425.4 824.1,425.4 "/>
<polyline class="st5" points="813.7,433.5 813.7,316.1 674,316.1 "/>
<polyline class="st6" points="864.2,434.2 864.2,293.4 724.5,293.4 "/>
<g>
	<text transform="matrix(1 0 0 1 856.3792 445.8486)" class="st9 st10">CAN-L</text>
</g>
<g>
	<rect x="856" y="415.3" class="st16" width="13.9" height="6"/>
	<g>
		<text transform="matrix(1 0 0 1 853.8193 420.2656)" class="st9 st12">V 0.35</text>
	</g>
</g>
<g>
	<rect x="806.8" y="415.3" class="st16" width="13.9" height="6"/>
	<g>
		<text transform="matrix(1 0 0 1 802.6768 420.2656)" class="st9 st12">P 0.35</text>
	</g>
</g>
<path class="st27" d="M808.7,386.4c-1.8,0-3.2,1.5-3.2,3.5c0,1.9,1.4,3.5,3.2,3.5l59.9-6.9c1.8,0,3.2,1.5,3.2,3.5
	c0,1.9-1.4,3.5-3.2,3.5L808.7,386.4z"/>
<g>
	<text transform="matrix(1 0 0 1 804.0599 445.8486)" class="st9 st10">CAN_H</text>
</g>
<g>
	<g>
		<line class="st17" x1="813.2" y1="432.6" x2="813.2" y2="440.9"/>
	</g>
	<g>
		<path class="st16" d="M813.2,429.6c-1.6,0-3,1.4-3,3c0,1.8,1.4,3.2,3,3.2c1.8,0,3.2-1.4,3.2-3.2C816.4,431,815,429.6,813.2,429.6z
			"/>
		<path d="M813.2,428.9v1.1c-1.4,0-2.5,1.1-2.5,2.5c0,1.5,1.1,2.7,2.5,2.7v1.1c-2,0-3.7-1.7-3.7-3.8
			C809.6,430.6,811.2,428.9,813.2,428.9L813.2,428.9z M817,432.6c0-2-1.7-3.7-3.8-3.7v1.1c1.5,0,2.7,1.1,2.7,2.5
			c0,1.5-1.1,2.7-2.7,2.7v1.1C815.4,436.4,817,434.8,817,432.6z"/>
	</g>
	<rect x="809.1" y="432.7" class="st16" width="8.5" height="4.1"/>
	<rect x="812.6" y="431.7" width="1" height="4.2"/>
	<rect x="812.6" y="431.7" class="st18" width="1" height="4.2"/>
</g>
<g>
	<g>
		<line class="st17" x1="863.6" y1="432.4" x2="863.6" y2="440.7"/>
	</g>
	<g>
		<path class="st16" d="M863.7,429.4c-1.6,0-3,1.4-3,3c0,1.8,1.4,3.2,3,3.2c1.8,0,3.2-1.4,3.2-3.2
			C866.9,430.8,865.5,429.4,863.7,429.4z"/>
		<path d="M863.7,428.8v1.1c-1.4,0-2.5,1.1-2.5,2.5c0,1.5,1.1,2.7,2.5,2.7v1.1c-2,0-3.7-1.7-3.7-3.8
			C860,430.4,861.7,428.8,863.7,428.8L863.7,428.8z M867.5,432.4c0-2-1.7-3.7-3.8-3.7v1.1c1.5,0,2.7,1.1,2.7,2.5
			c0,1.5-1.1,2.7-2.7,2.7v1.1C865.9,436.2,867.5,434.6,867.5,432.4z"/>
	</g>
	<rect x="859.5" y="432.6" class="st16" width="8.5" height="4.1"/>
	<rect x="863.1" y="431.5" width="1" height="4.2"/>
	<rect x="863.1" y="431.5" class="st18" width="1" height="4.2"/>
</g>
<rect x="678.6" y="306.3" class="st23" width="25.3" height="5.6"/>
<text transform="matrix(1 0 0 1 680.1056 311.1396)" class="st9 st12">SP4839</text>
<path class="st24" d="M676.9,316.2c0-1.7-1.3-2.9-2.8-2.9c-1.6,0-2.9,1.2-2.9,2.9c0,1.5,1.3,2.7,2.9,2.7
	C675.6,319,676.9,317.7,676.9,316.2z"/>
<rect x="729.2" y="283.7" class="st23" width="25.3" height="5.6"/>
<text transform="matrix(1 0 0 1 730.7604 288.4731)" class="st9 st12">SP4682</text>
<path class="st24" d="M727.5,293.6c0-1.7-1.3-2.9-2.8-2.9c-1.6,0-2.9,1.2-2.9,2.9c0,1.5,1.3,2.7,2.9,2.7
	C726.2,296.3,727.5,295.1,727.5,293.6z"/>
<g>
	<text transform="matrix(1 0 0 1 274.379 496.5128)" class="st9 st12">B 0.35</text>
</g>
<rect x="321.1" y="491.4" class="st16" width="11.6" height="6"/>
<g>
	<text transform="matrix(1 0 0 1 319.1152 496.5128)" class="st9 st12">B 0.35</text>
</g>
<g>
	<text transform="matrix(1 0 0 1 1008.0249 465.3754)" class="st9 st10">Right blind area warning light+</text>
</g>
<g id="RF22_x2C_A3_2_">
	<g>
		<g>
			<path class="st11" d="M546.1,164.6c-1.2,0-2.2,1-2.2,2.2s1,2.2,2.2,2.2s2.2-1,2.2-2.2C548.4,165.6,547.4,164.6,546.1,164.6"/>
		</g>
		<g>
			<path class="st11" d="M546.1,148.8c-1.2,0-2.2,1-2.2,2.1c0,1.2,1,2.2,2.2,2.2s2.2-0.9,2.2-2.2
				C548.4,149.8,547.4,148.8,546.1,148.8"/>
		</g>
		<g>
			<path class="st11" d="M544.7,152.5c-0.1,2.5,0.2,3.2,1.3,4.3c1.2,1.2,2.4,1.7,2.8,3.7c0.4,1.6-0.1,3.5-1.1,4.5"/>
		</g>
		<g>
			<path class="st11" d="M547.5,165.1c0.2-0.8,0-2.9-0.6-3.7c-0.9-1.2-2.7-2.1-3.3-4c-0.9-2.8,0.7-4.6,1.1-5"/>
		</g>
	</g>
</g>
<line class="st30" x1="546.2" y1="198.1" x2="546.2" y2="430.5"/>
<line class="st40" x1="546.2" y1="198.1" x2="546.2" y2="430.5"/>
<g>
	<g>
		<polyline class="st17" points="546.1,168.9 546.1,172.9 546.1,189.6 		"/>
	</g>
</g>
<g>
	<g>
		<polyline class="st17" points="546.1,148.8 546.1,144.9 546.1,71.5 		"/>
	</g>
</g>
<g>
	<g>
		<line class="st17" x1="546.2" y1="198.1" x2="546.2" y2="189.9"/>
	</g>
	<g>
		<path class="st16" d="M546.2,201.2c-1.7,0-3-1.4-3-3c0-1.8,1.4-3.2,3-3.2c1.8,0,3.2,1.4,3.2,3.2
			C549.4,199.8,548,201.2,546.2,201.2z"/>
		<path d="M546.2,201.8c-2,0-3.7-1.6-3.7-3.7c0-2.2,1.7-3.8,3.7-3.8v1.1c-1.4,0-2.5,1.1-2.5,2.7c0,1.4,1.1,2.5,2.5,2.5V201.8
			L546.2,201.8z M546.2,194.3v1.1c1.5,0,2.7,1.1,2.7,2.7c0,1.4-1.1,2.5-2.7,2.5v1.1c2.2,0,3.8-1.6,3.8-3.7
			C550.1,196,548.4,194.3,546.2,194.3z"/>
	</g>
	<rect x="542.1" y="193.9" class="st16" width="8.5" height="4.1"/>
	<rect x="545.6" y="194.8" width="1" height="4.2"/>
	<rect x="545.6" y="194.8" class="st18" width="1" height="4.2"/>
</g>
<g>
	<g>
		<line class="st17" x1="546.5" y1="432.5" x2="546.5" y2="440.7"/>
	</g>
	<g>
		<path class="st16" d="M546.4,429.4c1.7,0,3,1.4,3,3c0,1.8-1.4,3.2-3,3.2c-1.8,0-3.2-1.4-3.2-3.2
			C543.2,430.8,544.6,429.4,546.4,429.4z"/>
		<path d="M546.4,428.8c2,0,3.7,1.7,3.7,3.7c0,2.2-1.7,3.8-3.7,3.8v-1.1c1.4,0,2.5-1.1,2.5-2.7c0-1.4-1.1-2.5-2.5-2.5V428.8
			L546.4,428.8z M546.4,436.3v-1.1c-1.5,0-2.7-1.1-2.7-2.7c0-1.4,1.1-2.5,2.7-2.5v-1.1c-2.2,0-3.8,1.7-3.8,3.7
			C542.6,434.7,544.2,436.3,546.4,436.3z"/>
	</g>
	<rect x="542.1" y="432.6" class="st16" width="8.5" height="4.1"/>
	<rect x="546" y="431.6" width="1" height="4.2"/>
	<rect x="546" y="431.6" class="st18" width="1" height="4.2"/>
</g>
<g>
	<path class="st31" d="M543,71.2c0-1.7,1.3-2.9,2.8-2.9c1.6,0,2.9,1.2,2.9,2.9c0,1.5-1.3,2.7-2.9,2.7C544.3,73.9,543,72.7,543,71.2z
		"/>
	<g>
		<path class="st20" d="M543,71.2c0-1.7,1.3-2.9,2.8-2.9c1.6,0,2.9,1.2,2.9,2.9c0,1.5-1.3,2.7-2.9,2.7C544.3,73.9,543,72.7,543,71.2
			"/>
	</g>
</g>
<rect x="539.9" y="414.3" class="st16" width="12.7" height="6"/>
<rect x="540" y="414.3" class="st16" width="12.5" height="6"/>
<g>
	<text transform="matrix(1 0 0 1 533.6277 419.1897)" class="st9 st12">R/Y 0.35</text>
</g>
<rect x="539.9" y="368.1" class="st16" width="12.7" height="6"/>
<rect x="540" y="368.1" class="st16" width="12.5" height="6"/>
<g>
	<text transform="matrix(1 0 0 1 533.6277 373.0762)" class="st9 st12">R/Y 0.35</text>
</g>
<rect x="539.9" y="302.2" class="st16" width="12.7" height="6"/>
<rect x="540" y="302.2" class="st16" width="12.5" height="6"/>
<g>
	<text transform="matrix(1 0 0 1 533.6277 307.1165)" class="st9 st12">R/Y 0.35</text>
</g>
<rect x="539.9" y="249.6" class="st16" width="12.7" height="6"/>
<rect x="540" y="249.6" class="st16" width="12.5" height="6"/>
<g>
	<text transform="matrix(1 0 0 1 533.6277 254.498)" class="st9 st12">R/Y 0.35</text>
</g>
<g>
	<g>
		<text transform="matrix(1 0 0 1 550.4856 164.2778)" class="st9 st12">7.5A</text>
	</g>
</g>
<rect x="552.6" y="393.3" class="st23" width="24.8" height="5.6"/>
<text transform="matrix(1 0 0 1 553.3128 398.1948)" class="st9 st12">SP6005</text>
<path class="st24" d="M549,396.2c0,1.7-1.3,2.9-2.8,2.9c-1.6,0-2.9-1.2-2.9-2.9c0-1.5,1.3-2.7,2.9-2.7
	C547.7,393.4,549,394.7,549,396.2z"/>
<rect x="552.6" y="273.7" class="st23" width="24.8" height="5.6"/>
<text transform="matrix(1 0 0 1 553.3128 278.5488)" class="st9 st12">SP4915</text>
<path class="st24" d="M549,276.5c0,1.7-1.3,2.9-2.8,2.9c-1.6,0-2.9-1.2-2.9-2.9c0-1.5,1.3-2.7,2.9-2.7
	C547.7,273.8,549,275,549,276.5z"/>
<g>
	<text transform="matrix(1 0 0 1 539.4442 445.7856)" class="st9 st10">IG3 power supply</text>
</g>
<g>
	<rect x="542.1" y="328.1" class="st16" width="8.5" height="18.8"/>
	<g>
		<g>
			<line class="st21" x1="546.2" y1="336.8" x2="546.2" y2="328.5"/>
		</g>
		<g>
			<line class="st22" x1="546.4" y1="339.9" x2="546.4" y2="346.4"/>
		</g>
		<g>
			<g>
				<g>
					<path class="st16" d="M546.3,339.8c-1.7,0-3.2-1.4-3.2-3.2c0-1.8,1.5-3.2,3.2-3.2c1.8,0,3.2,1.4,3.2,3.2
						S548.1,339.8,546.3,339.8z"/>
					<path d="M546.3,340.5c-2,0-3.7-1.8-3.7-3.8h1.1c0,1.4,1.1,2.5,2.5,2.5c1.5,0,2.7-1.1,2.7-2.5h1.1
						C550.1,338.7,548.5,340.5,546.3,340.5L546.3,340.5z M542.6,336.6h1.1c0-1.4,1.1-2.5,2.5-2.5c1.5,0,2.7,1.1,2.7,2.5h1.1
						c0-2.2-1.6-3.8-3.8-3.8C544.3,332.8,542.6,334.5,542.6,336.6z"/>
				</g>
				<rect x="542.1" y="332.5" class="st16" width="8.5" height="4.1"/>
				<rect x="545.7" y="333.3" width="1" height="4.2"/>
				<rect x="545.7" y="333.3" class="st18" width="1" height="4.2"/>
			</g>
		</g>
	</g>
</g>
<g>
	<text transform="matrix(1 0 0 1 109.3143 160.9688)" class="st41 st9 st12">F2/10</text>
</g>
<g>
	<text transform="matrix(1 0 0 1 143.224 163.2031)" class="st41 st9 st12">Instrument fuse box</text>
</g>
<g>
	<text transform="matrix(1 0 0 1 276.1076 786.4316)" class="st41 st9 st12">Ek06</text>
</g>
<g>
	<text transform="matrix(1 0 0 1 665.9659 786.1948)" class="st41 st9 st12">Et01</text>
</g>
<g>
	<text transform="matrix(1 0 0 1 470.067 157.509)" class="st41 st9 st12">F4/03</text>
</g>
<g>
	<text transform="matrix(1 0 0 1 383.7999 162.3497)" class="st41 st9 st12">Positive fuse box</text>
</g>
<g>
	<text transform="matrix(1 0 0 1 539.6322 786.7333)" class="st41 st9 st12">Ek02</text>
</g>
<g>
	<text transform="matrix(1 0 0 1 458.1004 786.7333)" class="st41 st9 st12">Ek01</text>
</g>
<g>
	<text transform="matrix(1 0 0 1 1013.006 786.1948)" class="st41 st9 st12">Eu01</text>
</g>
<g>
	<text transform="matrix(1 0 0 1 602.9958 786.7324)" class="st41 st9 st12">Eb01</text>
</g>
<g>
	<text transform="matrix(1 0 0 1 959.9641 157.509)" class="st41 st9 st12">F4/05</text>
</g>
<g>
	<text transform="matrix(1 0 0 1 985.532 158.821)" class="st41 st9 st12">Positive fuse box</text>
</g>
<g>
	<text transform="matrix(1 0 0 1 880.2778 786.7333)" class="st41 st9 st12">Eb08</text>
</g>
<g>
	<text transform="matrix(1 0 0 1 804.3436 786.7333)" class="st41 st9 st12">Eb04</text>
</g>
<g>
	<text transform="matrix(1 0 0 1 949.4028 786.7324)" class="st41 st9 st12">Ek11</text>
</g>
<g>
	<text transform="matrix(1 0 0 1 550.8132 157.6598)" class="st41 st9 st12">F1/12</text>
</g>
<g>
	<text transform="matrix(1 0 0 1 579.8257 164.6)" class="st41 st9 st12">Front compartment fuse box</text>
</g>
<g>
	<text transform="matrix(1 0 0 1 288.9637 455.9208)" class="st41 st9 st12">Right rear millimeter wave radar module</text>
</g>
<g>
	<text transform="matrix(1 0 0 1 110.6341 438.5956)" class="st41 st9 st12">R06</text>
</g>
<g>
	<text transform="matrix(1 0 0 1 122.9676 438.5961)" class="st41 st9 st12">-5</text>
</g>
<g>
	<text transform="matrix(1 0 0 1 111.6781 195.6913)" class="st41 st9 st12">G82</text>
</g>
<g>
	<text transform="matrix(1 0 0 1 123.9281 195.6913)" class="st41 st9 st12">-11</text>
</g>
<g>
	<text transform="matrix(1 0 0 1 386.8597 438.5956)" class="st41 st9 st12">R07</text>
</g>
<g>
	<text transform="matrix(1 0 0 1 398.3597 438.5961)" class="st41 st9 st12">-4</text>
</g>
<g>
	<text transform="matrix(1 0 0 1 285.6342 438.5956)" class="st41 st9 st12">R07</text>
</g>
<g>
	<text transform="matrix(1 0 0 1 297.1342 438.5961)" class="st41 st9 st12">-5</text>
</g>
<g>
	<text transform="matrix(1 0 0 1 111.5184 234.076)" class="st41 st9 st12">GJK01</text>
</g>
<g>
	<text transform="matrix(1 0 0 1 111.5184 241.2764)" class="st41 st9 st12">KJG01</text>
</g>
<g>
	<text transform="matrix(1 0 0 1 130.6849 241.2764)" class="st41 st9 st12">-6</text>
</g>
<g>
	<text transform="matrix(1 0 0 1 111.5184 301.3027)" class="st41 st9 st12">KJR01</text>
</g>
<g>
	<text transform="matrix(1 0 0 1 111.5184 308.5029)" class="st41 st9 st12">RJK01</text>
</g>
<g>
	<text transform="matrix(1 0 0 1 130.6849 308.5029)" class="st41 st9 st12">-25</text>
</g>
<g>
	<text transform="matrix(1 0 0 1 170.4686 473.6249)" class="st41 st9 st12">R06</text>
</g>
<g>
	<text transform="matrix(1 0 0 1 182.3436 473.6249)" class="st41 st9 st12">-8</text>
</g>
<g>
	<text transform="matrix(1 0 0 1 286.8021 473.4374)" class="st41 st9 st12">R07</text>
</g>
<g>
	<text transform="matrix(1 0 0 1 297.7758 473.4374)" class="st41 st9 st12">-7</text>
</g>
<g>
	<text transform="matrix(1 0 0 1 330.8021 473.4374)" class="st41 st9 st12">R07</text>
</g>
<g>
	<text transform="matrix(1 0 0 1 341.7758 473.4374)" class="st41 st9 st12">-8</text>
</g>
<g>
	<text transform="matrix(1 0 0 1 106.7147 455.9208)" class="st41 st9 st12">Left rear millimeter wave radar module</text>
</g>
<g>
	<text transform="matrix(1 0 0 1 174.7269 438.5956)" class="st41 st9 st12">R06</text>
</g>
<g>
	<text transform="matrix(1 0 0 1 187.0604 438.5961)" class="st41 st9 st12">-3</text>
</g>
<g>
	<text transform="matrix(1 0 0 1 226.3954 438.5956)" class="st41 st9 st12">R06</text>
</g>
<g>
	<text transform="matrix(1 0 0 1 238.7289 438.5961)" class="st41 st9 st12">-4</text>
</g>
<g>
	<text transform="matrix(1 0 0 1 335.1913 438.5956)" class="st41 st9 st12">R07</text>
</g>
<g>
	<text transform="matrix(1 0 0 1 346.6913 438.5961)" class="st41 st9 st12">-3</text>
</g>
<g>
	<text transform="matrix(1 0 0 1 289.9916 622.6299)" class="st41 st9 st12">RJK01</text>
</g>
<g>
	<text transform="matrix(1 0 0 1 289.9916 629.8301)" class="st41 st9 st12">KJR01</text>
</g>
<g>
	<text transform="matrix(1 0 0 1 308.6166 629.8301)" class="st41 st9 st12">-24</text>
</g>
<g>
	<text transform="matrix(1 0 0 1 587.5404 455.9208)" class="st41 st9 st12">Left domain control module</text>
</g>
<g>
	<text transform="matrix(1 0 0 1 469.6864 196.7665)" class="st41 st9 st12">B46_3</text>
</g>
<g>
	<text transform="matrix(1 0 0 1 488.6029 196.7665)" class="st41 st9 st12">-1</text>
</g>
<g>
	<text transform="matrix(1 0 0 1 678.8729 555.3506)" class="st41 st9 st12">T03</text>
</g>
<g>
	<text transform="matrix(1 0 0 1 689.8729 555.3506)" class="st41 st9 st12">-7</text>
</g>
<g>
	<text transform="matrix(1 0 0 1 678.2303 598.0098)" class="st41 st9 st12">T03</text>
</g>
<g>
	<text transform="matrix(1 0 0 1 689.2303 598.0098)" class="st41 st9 st12">-16</text>
</g>
<g>
	<text transform="matrix(1 0 0 1 679.7001 474.9512)" class="st41 st9 st12">TG64(H)</text>
</g>
<g>
	<text transform="matrix(1 0 0 1 704.7001 474.9512)" class="st41 st9 st12">-36</text>
</g>
<g>
	<text transform="matrix(1 0 0 1 710.7352 576.5234)" class="st41 st9 st12">Left rearview mirror</text>
</g>
<g>
	<text transform="matrix(1 0 0 1 471.0726 475.9521)" class="st41 st9 st12">KG64(E)</text>
</g>
<g>
	<text transform="matrix(1 0 0 1 496.1537 475.9521)" class="st41 st9 st12">-8</text>
</g>
<g>
	<text transform="matrix(1 0 0 1 551.7318 474.9521)" class="st41 st9 st12">KG64(E)</text>
</g>
<g>
	<text transform="matrix(1 0 0 1 576.8129 474.9521)" class="st41 st9 st12">-20</text>
</g>
<g>
	<text transform="matrix(1 0 0 1 1025.913 555.3506)" class="st41 st9 st12">U03</text>
</g>
<g>
	<text transform="matrix(1 0 0 1 1037.538 555.3506)" class="st41 st9 st12">-7</text>
</g>
<g>
	<text transform="matrix(1 0 0 1 1025.2704 598.0098)" class="st41 st9 st12">U03</text>
</g>
<g>
	<text transform="matrix(1 0 0 1 1036.788 598.0098)" class="st41 st9 st12">-16</text>
</g>
<g>
	<text transform="matrix(1 0 0 1 1057.7753 576.5234)" class="st41 st9 st12">Right rearview mirror</text>
</g>
<g>
	<text transform="matrix(1 0 0 1 615.0956 474.9521)" class="st41 st9 st12">BG64(B)</text>
</g>
<g>
	<text transform="matrix(1 0 0 1 640.2206 474.9512)" class="st41 st9 st12">-43</text>
</g>
<g>
	<text transform="matrix(1 0 0 1 913.495 455.9208)" class="st41 st9 st12">Right domain control module</text>
</g>
<g>
	<text transform="matrix(1 0 0 1 959.584 196.7665)" class="st41 st9 st12">B46_5</text>
</g>
<g>
	<text transform="matrix(1 0 0 1 979.084 196.7665)" class="st41 st9 st12">-1</text>
</g>
<g>
	<text transform="matrix(1 0 0 1 960.9265 437.6973)" class="st41 st9 st12">BG86(A)</text>
</g>
<g>
	<text transform="matrix(1 0 0 1 985.9265 437.6978)" class="st41 st9 st12">-1</text>
</g>
<g>
	<text transform="matrix(1 0 0 1 1025.9135 474.9512)" class="st41 st9 st12">UG86(H)</text>
</g>
<g>
	<text transform="matrix(1 0 0 1 1052.1635 474.9517)" class="st41 st9 st12">-23</text>
</g>
<g>
	<text transform="matrix(1 0 0 1 817.3158 475.9521)" class="st41 st9 st12">BG86(B)</text>
</g>
<g>
	<text transform="matrix(1 0 0 1 842.4408 475.9521)" class="st41 st9 st12">-1</text>
</g>
<g>
	<text transform="matrix(1 0 0 1 892.3773 474.9521)" class="st41 st9 st12"> BG86(B)</text>
</g>
<g>
	<text transform="matrix(1 0 0 1 919.1273 474.9521)" class="st41 st9 st12">-43</text>
</g>
<g>
	<text transform="matrix(1 0 0 1 961.5023 474.9512)" class="st41 st9 st12">KG86(D)</text>
</g>
<g>
	<text transform="matrix(1 0 0 1 986.7523 474.9512)" class="st41 st9 st12">-1</text>
</g>
<g>
	<text transform="matrix(1 0 0 1 731.4945 438.2831)" class="st41 st9 st12">G64(G)</text>
</g>
<g>
	<text transform="matrix(1 0 0 1 752.7445 438.2831)" class="st41 st9 st12">-57</text>
</g>
<g>
	<text transform="matrix(1 0 0 1 679.826 438.2831)" class="st41 st9 st12">G64(G)</text>
</g>
<g>
	<text transform="matrix(1 0 0 1 701.076 438.2831)" class="st41 st9 st12">-56</text>
</g>
<g>
	<text transform="matrix(1 0 0 1 871.1444 438.2831)" class="st41 st9 st12">G86(G)</text>
</g>
<g>
	<text transform="matrix(1 0 0 1 892.7352 438.2831)" class="st41 st9 st12">-5</text>
</g>
<g>
	<text transform="matrix(1 0 0 1 819.476 438.2831)" class="st41 st9 st12">G86(G)</text>
</g>
<g>
	<text transform="matrix(1 0 0 1 841.0668 438.2831)" class="st41 st9 st12">-4</text>
</g>
<g>
	<text transform="matrix(1 0 0 1 550.433 196.8936)" class="st41 st9 st12">B1D</text>
</g>
<g>
	<text transform="matrix(1 0 0 1 562.9955 196.8936)" class="st41 st9 st12">-9</text>
</g>
<g>
	<text transform="matrix(1 0 0 1 551.7758 437.877)" class="st41 st9 st12">G64(G)</text>
</g>
<g>
	<text transform="matrix(1 0 0 1 573.1508 437.877)" class="st41 st9 st12">-11</text>
</g>
<g>
	<text transform="matrix(1 0 0 1 551.9242 336.5781)" class="st41 st9 st12">BJG01</text>
</g>
<g>
	<text transform="matrix(1 0 0 1 551.9242 343.7783)" class="st41 st9 st12">GJB01</text>
</g>
<g>
	<text transform="matrix(1 0 0 1 570.9242 343.7783)" class="st41 st9 st12">-15</text>
</g>
<g>
	<text transform="matrix(1 0 0 1 504.9963 437.8768)" class="st41 st9 st12">-1</text>
</g>
<g>
	<text transform="matrix(1 0 0 1 472.2098 437.8768)" class="st41 st9 st12">BG64(A)_4</text>
</g>
<g>
	<text transform="matrix(1 0 0 1 645.6676 563.1484)" class="st39"><tspan x="0" y="0" class="st9 st10">Blind spot </tspan><tspan x="0" y="4.8" class="st9 st10">warning light</tspan></text>
</g>
</svg>
