<?xml version="1.0" encoding="utf-8"?>
<!-- Generator: Adobe Illustrator 24.0.1, SVG Export Plug-In . SVG Version: 6.00 Build 0)  -->
<svg version="1.1" id="图层_1" xmlns="http://www.w3.org/2000/svg" xmlns:xlink="http://www.w3.org/1999/xlink" x="0px" y="0px"
	 viewBox="0 0 797.4 841.9" style="enable-background:new 0 0 797.4 841.9;" xml:space="preserve">
<style type="text/css">
	.st0{fill:#9FD9F6;stroke:#000000;stroke-width:0.5;stroke-linecap:round;stroke-miterlimit:10;}
	.st1{fill:#DCDDDD;}
	.st2{fill:none;stroke:#000000;stroke-width:0.5;}
	.st3{fill:none;stroke:#000000;}
	.st4{font-family:'FZLTHJW--GB1-0';}
	.st5{font-size:6px;}
	.st6{fill:none;stroke:#000000;stroke-width:3;stroke-miterlimit:10;}
	.st7{fill:none;stroke:#E60012;stroke-width:3;stroke-linecap:round;stroke-miterlimit:10;}
	.st8{fill:none;stroke:#FFFFFF;stroke-linecap:round;stroke-miterlimit:10;}
	.st9{fill:none;stroke:#F29C97;stroke-width:3;stroke-miterlimit:10;}
	.st10{fill:none;stroke:#89438F;stroke-width:3;stroke-miterlimit:10;}
	.st11{fill:#FFFFFF;}
	.st12{fill:none;stroke:#000000;stroke-width:0.5;stroke-linecap:round;stroke-linejoin:round;}
	.st13{fill:none;stroke:#000000;stroke-width:1.3;}
	.st14{fill:#FFFFFF;stroke:#000000;stroke-width:0.25;stroke-linecap:round;stroke-linejoin:round;}
	.st15{fill:none;stroke:#000000;stroke-width:0.6;stroke-linecap:round;stroke-linejoin:round;}
	.st16{fill:none;stroke:#000000;stroke-width:0.72;stroke-linecap:round;stroke-linejoin:round;}
	.st17{fill:#FFFFFF;stroke:#000000;stroke-width:0.25;}
	.st18{stroke:#FFFFFF;stroke-width:0.5;}
	.st19{font-size:4px;}
	.st20{fill:#DCDDDD;stroke:#000000;stroke-width:0.5;stroke-linecap:round;stroke-miterlimit:10;}
	.st21{fill:none;stroke:#040000;stroke-width:0.75;}
	.st22{stroke:#FFFFFF;stroke-width:0.5;stroke-linecap:round;}
	.st23{fill:none;stroke:#FFFFFF;stroke-width:1.0001;}
	.st24{fill:none;stroke:#000000;stroke-linecap:round;stroke-miterlimit:10;}
	.st25{fill:none;stroke:#F6AE6A;stroke-width:3;stroke-linecap:round;stroke-miterlimit:10;}
	.st26{fill:none;stroke:#000000;stroke-width:3;stroke-linecap:round;stroke-miterlimit:10;}
	.st27{fill:none;stroke:#B29763;stroke-width:3;stroke-linecap:round;stroke-miterlimit:10;}
	.st28{fill:none;stroke:#A4D6C1;stroke-width:3;stroke-linecap:round;stroke-miterlimit:10;}
	.st29{fill:none;stroke:#F29C97;stroke-width:3;stroke-linecap:round;stroke-miterlimit:10;}
	.st30{fill:none;stroke:#005EAD;stroke-linecap:round;stroke-miterlimit:10;}
	.st31{fill:none;stroke:#009944;stroke-width:3;stroke-linecap:round;stroke-miterlimit:10;}
	.st32{fill:none;stroke:#E60012;stroke-width:3;stroke-miterlimit:10;}
	.st33{fill:none;stroke:#FFFFFF;stroke-miterlimit:10;}
	.st34{fill:none;stroke:#000000;stroke-width:0.6001;stroke-linecap:round;stroke-linejoin:round;}
	.st35{fill:none;stroke:#000000;stroke-width:0.6001;stroke-linecap:round;}
	.st36{fill:none;stroke:#000000;stroke-width:0.5;stroke-miterlimit:10;}
	.st37{fill:#005EAD;}
</style>
<path class="st0" d="M498.7,196c0,0,5.3-8.6,0-17.6s0-15.3,0-15.3H268V196H498.7z"/>
<polyline class="st1" points="37.2,41.9 757.4,41.9 757.4,88.1 37.2,88.1 "/>
<g>
	<line class="st2" x1="37.2" y1="47.6" x2="757.4" y2="47.6"/>
	<line class="st3" x1="37.2" y1="41.6" x2="757.4" y2="41.6"/>
	<path class="st3" d="M36.2,59.3"/>
	<line class="st2" x1="37.2" y1="58.9" x2="757.4" y2="58.9"/>
	<line class="st2" x1="37.2" y1="70.6" x2="757.4" y2="70.6"/>
	<line class="st2" x1="37.2" y1="82.3" x2="757.4" y2="82.3"/>
	<line class="st3" x1="37.2" y1="88.1" x2="757.4" y2="88.1"/>
</g>
<text transform="matrix(1 0 0 1 761.5206 49.6299)" class="st4 st5">30</text>
<text transform="matrix(1 0 0 1 761.5206 60.7959)" class="st4 st5">IG1</text>
<text transform="matrix(1 0 0 1 761.5206 72.4209)" class="st4 st5">IG3</text>
<text transform="matrix(1 0 0 1 761.5206 83.9248)" class="st4 st5">ACC</text>
<text transform="matrix(1 0 0 1 26.4776 49.7119)" class="st4 st5">30</text>
<text transform="matrix(1 0 0 1 25.0626 60.8779)" class="st4 st5">IG1</text>
<text transform="matrix(1 0 0 1 25.0626 72.5029)" class="st4 st5">IG3</text>
<text transform="matrix(1 0 0 1 20.5782 84.0029)" class="st4 st5">ACC</text>
<g id="FB55">
</g>
<polyline class="st6" points="421.7,526.1 500.4,526.1 500.4,786.3 "/>
<line class="st7" x1="111.2" y1="207.4" x2="111.3" y2="431.6"/>
<line class="st8" x1="111.2" y1="207.4" x2="111.3" y2="431.6"/>
<g id="接地">
</g>
<line class="st9" x1="530.8" y1="485.2" x2="530.8" y2="701.6"/>
<line class="st10" x1="588.3" y1="485.2" x2="588.3" y2="702.4"/>
<g>
	<rect x="579.9" y="505.5" class="st11" width="13.9" height="6"/>
	<g>
		<text transform="matrix(1 0 0 1 578.1578 510.6078)" class="st4 st5">V 0.35</text>
	</g>
</g>
<g>
	<rect x="525.9" y="505.5" class="st11" width="13.9" height="6"/>
	<g>
		<text transform="matrix(1 0 0 1 522.2509 510.6078)" class="st4 st5">P 0.35</text>
	</g>
</g>
<g>
	<text transform="matrix(1 0 0 1 504.2996 718.9)" class="st4 st5">See Body Network System - Circuit Diagram</text>
</g>
<path class="st12" d="M526.5,703.2l0.5,2.1c0,0,0.5,2.5,2.7,2.6H558l0,0l1.6,2.7l1.6-2.7c7.4,0,28.2,0,28.2,0
	c2.2-0.1,2.7-2.6,2.7-2.6l0.5-2.1"/>
<line class="st6" x1="111.3" y1="481.9" x2="111.3" y2="786.1"/>
<rect x="108.1" y="759.9" class="st11" width="6.4" height="6"/>
<g>
	<text transform="matrix(1 0 0 1 103.6924 764.8696)" class="st4 st5">B 1.0</text>
</g>
<rect x="497.5" y="759.9" class="st11" width="6.4" height="6"/>
<g>
	<text transform="matrix(1 0 0 1 493.1502 764.8696)" class="st4 st5">B 1.0</text>
</g>
<g id="GB031_1_">
	<g>
		<g>
			<line class="st13" x1="111.3" y1="783.8" x2="111.3" y2="786.4"/>
		</g>
		<g>
			<line class="st13" x1="104.2" y1="786.4" x2="118" y2="786.4"/>
		</g>
		<g>
			<line class="st13" x1="107" y1="788.7" x2="115.2" y2="788.7"/>
		</g>
		<g>
			<line class="st13" x1="113.6" y1="790.8" x2="108.7" y2="790.8"/>
		</g>
	</g>
	<g>
		<rect x="100.8" y="793.2" class="st11" width="20.3" height="8.2"/>
		<rect x="101.1" y="793.6" class="st14" width="19.7" height="7.6"/>
	</g>
</g>
<g id="GB031_3_">
	<g>
		<g>
			<line class="st13" x1="500.3" y1="783.8" x2="500.3" y2="786.4"/>
		</g>
		<g>
			<line class="st13" x1="493.3" y1="786.4" x2="507.1" y2="786.4"/>
		</g>
		<g>
			<line class="st13" x1="496.1" y1="788.7" x2="504.3" y2="788.7"/>
		</g>
		<g>
			<line class="st13" x1="502.6" y1="790.8" x2="497.8" y2="790.8"/>
		</g>
	</g>
	<g>
		<rect x="489.9" y="793.2" class="st11" width="20.3" height="8.2"/>
		<rect x="490.2" y="793.6" class="st14" width="19.7" height="7.6"/>
	</g>
</g>
<g>
	<g>
		<line class="st15" x1="111.3" y1="481.9" x2="111.3" y2="473.7"/>
	</g>
	<g>
		<path class="st11" d="M111.4,485c-1.7,0-3-1.4-3-3c0-1.8,1.4-3.2,3-3.2c1.8,0,3.2,1.4,3.2,3.2C114.6,483.6,113.2,485,111.4,485z"
			/>
		<path d="M111.4,485.6c-2,0-3.7-1.6-3.7-3.7c0-2.2,1.7-3.8,3.7-3.8v1.1c-1.4,0-2.5,1.1-2.5,2.7c0,1.4,1.1,2.5,2.5,2.5V485.6
			L111.4,485.6z M111.4,478.1v1.1c1.5,0,2.7,1.1,2.7,2.7c0,1.4-1.1,2.5-2.7,2.5v1.1c2.2,0,3.8-1.6,3.8-3.7
			C115.2,479.8,113.5,478.1,111.4,478.1z"/>
	</g>
	<rect x="107.2" y="477.7" class="st11" width="8.5" height="4.1"/>
	<rect x="110.8" y="478.6" width="1" height="4.2"/>
	<rect x="110.8" y="478.6" class="st16" width="1" height="4.2"/>
</g>
<rect x="117.8" y="601.5" class="st17" width="25.3" height="5.6"/>
<text transform="matrix(1 0 0 1 118.538 606.3334)" class="st4 st5">SP5429</text>
<path class="st18" d="M114.4,604.3c0,1.7-1.3,2.9-2.8,2.9c-1.6,0-2.9-1.2-2.9-2.9c0-1.5,1.3-2.7,2.9-2.7
	C113.1,601.6,114.4,602.8,114.4,604.3z"/>
<polygon class="st0" points="703.2,473.7 94,473.7 94,473.6 94,441.4 703.2,441.4 "/>
<polygon class="st0" points="282.6,751.3 179,751.3 179,751.3 179,719.1 282.6,719.1 "/>
<g>
	<text transform="matrix(1 0 0 1 103.5171 445.8604)" class="st4 st19">IG1 power supply</text>
</g>
<g>
	<text transform="matrix(1 0 0 1 106.9338 471.8604)" class="st4 st19">Ground</text>
</g>
<g>
	<text transform="matrix(1 0 0 1 180.007 471.8604)" class="st4 st19"> Speaker output +</text>
</g>
<g>
	<text transform="matrix(1 0 0 1 183.0695 723.4366)" class="st4 st19">Speaker +</text>
</g>
<g>
	<text transform="matrix(1 0 0 1 245.1945 723.4366)" class="st4 st19">Speaker -</text>
</g>
<g>
	<text transform="matrix(1 0 0 1 238.4445 471.8604)" class="st4 st19"> Speaker output -</text>
</g>
<g>
	<text transform="matrix(1 0 0 1 332.7778 471.8604)" class="st4 st19">Microphone input +</text>
</g>
<g>
	<text transform="matrix(1 0 0 1 395.1112 471.8604)" class="st4 st19">Microphone input ground</text>
</g>
<g>
	<text transform="matrix(1 0 0 1 520.8611 471.8604)" class="st4 st19">CAN_H</text>
</g>
<g>
	<text transform="matrix(1 0 0 1 580.6945 471.8604)" class="st4 st19">CAN_L</text>
</g>
<g>
	<text transform="matrix(1 0 0 1 640.6945 471.8604)" class="st4 st19">Mute signal /MUTE</text>
</g>
<g>
	<text transform="matrix(1 0 0 1 187.058 445.8604)" class="st4 st19">Constant power</text>
</g>
<g>
	<text transform="matrix(1 0 0 1 274.2004 445.8604)" class="st4 st19">ECALL button</text>
</g>
<g>
	<text transform="matrix(1 0 0 1 334.3876 445.8604)" class="st4 st19">ECALL button indicator +</text>
</g>
<g>
	<text transform="matrix(1 0 0 1 448.1376 445.8604)" class="st4 st19">ECALL button indicator -</text>
</g>
<g>
	<text transform="matrix(1 0 0 1 394.1793 445.8604)" class="st4 st19">ECALL button ground</text>
</g>
<g>
	<text transform="matrix(1 0 0 1 274.2004 193.8292)" class="st4 st19">ECALL button</text>
</g>
<g>
	<text transform="matrix(1 0 0 1 334.3876 193.8292)" class="st4 st19">ECALL button indicator +</text>
</g>
<g>
	<text transform="matrix(1 0 0 1 448.1376 193.8292)" class="st4 st19">ECALL button indicator -</text>
</g>
<g>
	<text transform="matrix(1 0 0 1 394.1793 193.8292)" class="st4 st19">ECALL button ground</text>
</g>
<g>
	<text transform="matrix(1 0 0 1 550.1376 445.8604)" class="st4 st19">GPS antenna</text>
</g>
<g>
	<text transform="matrix(1 0 0 1 656.4089 445.8604)" class="st4 st19">4G main antenna</text>
</g>
<g>
	<g>
		<line class="st15" x1="111.5" y1="433.1" x2="111.5" y2="441.3"/>
	</g>
	<g>
		<path class="st11" d="M111.4,430c1.7,0,3,1.4,3,3c0,1.8-1.4,3.2-3,3.2c-1.8,0-3.2-1.4-3.2-3.2C108.2,431.4,109.6,430,111.4,430z"
			/>
		<path d="M111.4,429.4c2,0,3.7,1.7,3.7,3.7c0,2.2-1.7,3.8-3.7,3.8v-1.1c1.4,0,2.5-1.1,2.5-2.7c0-1.4-1.1-2.5-2.5-2.5V429.4
			L111.4,429.4z M111.4,436.9v-1.1c-1.5,0-2.7-1.1-2.7-2.7c0-1.4,1.1-2.5,2.7-2.5v-1.1c-2.2,0-3.8,1.7-3.8,3.7
			C107.6,435.3,109.2,436.9,111.4,436.9z"/>
	</g>
	<rect x="107.1" y="433.2" class="st11" width="8.5" height="4.1"/>
	<rect x="111" y="432.2" width="1" height="4.2"/>
	<rect x="111" y="432.2" class="st16" width="1" height="4.2"/>
</g>
<rect x="108.2" y="231.2" class="st11" width="6.2" height="6"/>
<g>
	<text transform="matrix(1 0 0 1 97.7073 236.1704)" class="st4 st5">R/W 0.35</text>
</g>
<rect x="108.2" y="404.6" class="st11" width="6.2" height="6"/>
<g>
	<text transform="matrix(1 0 0 1 97.7073 409.4983)" class="st4 st5">R/W 0.35</text>
</g>
<rect x="108.2" y="505.5" class="st11" width="6.2" height="6"/>
<g>
	<text transform="matrix(1 0 0 1 101.9108 510.3793)" class="st4 st5">B 0.35</text>
</g>
<rect x="108.2" y="316.5" class="st11" width="6.2" height="6"/>
<g>
	<text transform="matrix(1 0 0 1 97.7073 321.4736)" class="st4 st5">R/W 0.35</text>
</g>
<g>
	<g>
		<line class="st15" x1="111.2" y1="204.4" x2="111.2" y2="196.1"/>
	</g>
	<g>
		<path class="st11" d="M111.3,207.4c-1.7,0-3-1.4-3-3c0-1.8,1.4-3.2,3-3.2c1.8,0,3.2,1.4,3.2,3.2
			C114.5,206,113.1,207.4,111.3,207.4z"/>
		<path d="M111.3,208.1c-2,0-3.7-1.6-3.7-3.7c0-2.2,1.7-3.8,3.7-3.8v1.1c-1.4,0-2.5,1.1-2.5,2.7c0,1.4,1.1,2.5,2.5,2.5V208.1
			L111.3,208.1z M111.3,200.6v1.1c1.5,0,2.7,1.1,2.7,2.7c0,1.4-1.1,2.5-2.7,2.5v1.1c2.2,0,3.8-1.6,3.8-3.7
			C115.1,202.2,113.4,200.6,111.3,200.6z"/>
	</g>
	<rect x="107.1" y="200.2" class="st11" width="8.5" height="4.1"/>
	<rect x="110.7" y="201.1" width="1" height="4.2"/>
	<rect x="110.7" y="201.1" class="st16" width="1" height="4.2"/>
</g>
<g id="REB_x2C_A3_1_">
	<rect x="89.2" y="139.7" class="st20" width="48.4" height="56.3"/>
</g>
<g id="RF22_x2C_A3_1_">
	<g>
		<g>
			<path class="st21" d="M111.2,171c-1.2,0-2.2,1-2.2,2.2s1,2.2,2.2,2.2s2.2-1,2.2-2.2C113.4,172,112.4,171,111.2,171"/>
		</g>
		<g>
			<path class="st21" d="M111.2,155.2c-1.2,0-2.2,1-2.2,2.1c0,1.2,1,2.2,2.2,2.2s2.2-0.9,2.2-2.2
				C113.4,156.2,112.4,155.2,111.2,155.2"/>
		</g>
		<g>
			<path class="st21" d="M109.7,159c-0.1,2.5,0.2,3.2,1.3,4.3c1.2,1.2,2.4,1.7,2.8,3.7c0.4,1.6-0.1,3.5-1.1,4.5"/>
		</g>
		<g>
			<path class="st21" d="M112.6,171.6c0.2-0.8,0-2.9-0.6-3.7c-0.9-1.2-2.7-2.1-3.3-4c-0.9-2.8,0.7-4.6,1.1-5"/>
		</g>
	</g>
</g>
<g>
	<g>
		<polyline class="st15" points="111.2,175.4 111.2,179.4 111.2,196 		"/>
	</g>
</g>
<g>
	<g>
		<polyline class="st15" points="111.2,154.9 111.2,150.8 111.2,59.3 		"/>
	</g>
</g>
<g>
	<path class="st22" d="M108,59c0-1.7,1.3-2.9,2.8-2.9c1.6,0,2.9,1.2,2.9,2.9c0,1.5-1.3,2.7-2.9,2.7C109.3,61.7,108,60.5,108,59z"/>
	<g>
		<path class="st23" d="M108,59c0-1.7,1.3-2.9,2.8-2.9c1.6,0,2.9,1.2,2.9,2.9c0,1.5-1.3,2.7-2.9,2.7C109.3,61.7,108,60.5,108,59"/>
	</g>
</g>
<g>
	<g>
		<text transform="matrix(1 0 0 1 115.5234 170.5938)" class="st4 st5">7.5A</text>
	</g>
</g>
<line class="st7" x1="191.2" y1="207.4" x2="191.2" y2="431.6"/>
<line class="st24" x1="191.2" y1="207.4" x2="191.2" y2="431.6"/>
<g>
	<g>
		<line class="st15" x1="191.5" y1="433.1" x2="191.5" y2="441.3"/>
	</g>
	<g>
		<path class="st11" d="M191.4,430c1.7,0,3,1.4,3,3c0,1.8-1.4,3.2-3,3.2c-1.8,0-3.2-1.4-3.2-3.2C188.2,431.4,189.6,430,191.4,430z"
			/>
		<path d="M191.4,429.4c2,0,3.7,1.7,3.7,3.7c0,2.2-1.7,3.8-3.7,3.8v-1.1c1.4,0,2.5-1.1,2.5-2.7c0-1.4-1.1-2.5-2.5-2.5V429.4
			L191.4,429.4z M191.4,436.9v-1.1c-1.5,0-2.7-1.1-2.7-2.7c0-1.4,1.1-2.5,2.7-2.5v-1.1c-2.2,0-3.8,1.7-3.8,3.7
			C187.6,435.3,189.2,436.9,191.4,436.9z"/>
	</g>
	<rect x="187.1" y="433.2" class="st11" width="8.5" height="4.1"/>
	<rect x="191" y="432.2" width="1" height="4.2"/>
	<rect x="191" y="432.2" class="st16" width="1" height="4.2"/>
</g>
<line class="st7" x1="284" y1="207.4" x2="284.1" y2="431.6"/>
<g>
	<g>
		<line class="st15" x1="284.3" y1="433.1" x2="284.3" y2="441.3"/>
	</g>
	<g>
		<path class="st11" d="M284.2,430c1.7,0,3,1.4,3,3c0,1.8-1.4,3.2-3,3.2c-1.8,0-3.2-1.4-3.2-3.2C281,431.4,282.4,430,284.2,430z"/>
		<path d="M284.2,429.4c2,0,3.7,1.7,3.7,3.7c0,2.2-1.7,3.8-3.7,3.8v-1.1c1.4,0,2.5-1.1,2.5-2.7c0-1.4-1.1-2.5-2.5-2.5V429.4
			L284.2,429.4z M284.2,436.9v-1.1c-1.5,0-2.7-1.1-2.7-2.7c0-1.4,1.1-2.5,2.7-2.5v-1.1c-2.2,0-3.8,1.7-3.8,3.7
			C280.4,435.3,282,436.9,284.2,436.9z"/>
	</g>
	<rect x="279.9" y="433.2" class="st11" width="8.5" height="4.1"/>
	<rect x="283.8" y="432.2" width="1" height="4.2"/>
	<rect x="283.8" y="432.2" class="st16" width="1" height="4.2"/>
</g>
<line class="st25" x1="345.1" y1="207.4" x2="345.1" y2="431.6"/>
<g>
	<g>
		<line class="st15" x1="345.3" y1="433.1" x2="345.3" y2="441.3"/>
	</g>
	<g>
		<path class="st11" d="M345.3,430c1.7,0,3,1.4,3,3c0,1.8-1.4,3.2-3,3.2c-1.8,0-3.2-1.4-3.2-3.2C342.1,431.4,343.5,430,345.3,430z"
			/>
		<path d="M345.3,429.4c2,0,3.7,1.7,3.7,3.7c0,2.2-1.7,3.8-3.7,3.8v-1.1c1.4,0,2.5-1.1,2.5-2.7c0-1.4-1.1-2.5-2.5-2.5V429.4
			L345.3,429.4z M345.3,436.9v-1.1c-1.5,0-2.7-1.1-2.7-2.7c0-1.4,1.1-2.5,2.7-2.5v-1.1c-2.2,0-3.8,1.7-3.8,3.7
			C341.5,435.3,343.1,436.9,345.3,436.9z"/>
	</g>
	<rect x="340.9" y="433.2" class="st11" width="8.5" height="4.1"/>
	<rect x="344.9" y="432.2" width="1" height="4.2"/>
	<rect x="344.9" y="432.2" class="st16" width="1" height="4.2"/>
</g>
<line class="st26" x1="406.1" y1="207.4" x2="406.2" y2="431.6"/>
<g>
	<g>
		<line class="st15" x1="406.4" y1="433.1" x2="406.4" y2="441.3"/>
	</g>
	<g>
		<path class="st11" d="M406.3,430c1.7,0,3,1.4,3,3c0,1.8-1.4,3.2-3,3.2c-1.8,0-3.2-1.4-3.2-3.2C403.1,431.4,404.5,430,406.3,430z"
			/>
		<path d="M406.3,429.4c2,0,3.7,1.7,3.7,3.7c0,2.2-1.7,3.8-3.7,3.8v-1.1c1.4,0,2.5-1.1,2.5-2.7c0-1.4-1.1-2.5-2.5-2.5V429.4
			L406.3,429.4z M406.3,436.9v-1.1c-1.5,0-2.7-1.1-2.7-2.7c0-1.4,1.1-2.5,2.7-2.5v-1.1c-2.2,0-3.8,1.7-3.8,3.7
			C402.5,435.3,404.2,436.9,406.3,436.9z"/>
	</g>
	<rect x="402" y="433.2" class="st11" width="8.5" height="4.1"/>
	<rect x="405.9" y="432.2" width="1" height="4.2"/>
	<rect x="405.9" y="432.2" class="st16" width="1" height="4.2"/>
</g>
<line class="st26" x1="467.2" y1="207.4" x2="467.2" y2="431.6"/>
<g>
	<g>
		<line class="st15" x1="467.5" y1="433.1" x2="467.5" y2="441.3"/>
	</g>
	<g>
		<path class="st11" d="M467.4,430c1.7,0,3,1.4,3,3c0,1.8-1.4,3.2-3,3.2c-1.8,0-3.2-1.4-3.2-3.2C464.2,431.4,465.6,430,467.4,430z"
			/>
		<path d="M467.4,429.4c2,0,3.7,1.7,3.7,3.7c0,2.2-1.7,3.8-3.7,3.8v-1.1c1.4,0,2.5-1.1,2.5-2.7c0-1.4-1.1-2.5-2.5-2.5V429.4
			L467.4,429.4z M467.4,436.9v-1.1c-1.5,0-2.7-1.1-2.7-2.7c0-1.4,1.1-2.5,2.7-2.5v-1.1c-2.2,0-3.8,1.7-3.8,3.7
			C463.6,435.3,465.2,436.9,467.4,436.9z"/>
	</g>
	<rect x="463" y="433.2" class="st11" width="8.5" height="4.1"/>
	<rect x="467" y="432.2" width="1" height="4.2"/>
	<rect x="467" y="432.2" class="st16" width="1" height="4.2"/>
</g>
<g>
	<g>
		<line class="st15" x1="191.2" y1="204.4" x2="191.2" y2="196.1"/>
	</g>
	<g>
		<path class="st11" d="M191.3,207.4c-1.7,0-3-1.4-3-3c0-1.8,1.4-3.2,3-3.2c1.8,0,3.2,1.4,3.2,3.2C194.4,206,193,207.4,191.3,207.4z
			"/>
		<path d="M191.3,208.1c-2,0-3.7-1.6-3.7-3.7c0-2.2,1.7-3.8,3.7-3.8v1.1c-1.4,0-2.5,1.1-2.5,2.7c0,1.4,1.1,2.5,2.5,2.5V208.1
			L191.3,208.1z M191.3,200.6v1.1c1.5,0,2.7,1.1,2.7,2.7c0,1.4-1.1,2.5-2.7,2.5v1.1c2.2,0,3.8-1.6,3.8-3.7
			C195.1,202.2,193.4,200.6,191.3,200.6z"/>
	</g>
	<rect x="187.1" y="200.2" class="st11" width="8.5" height="4.1"/>
	<rect x="190.6" y="201.1" width="1" height="4.2"/>
	<rect x="190.6" y="201.1" class="st16" width="1" height="4.2"/>
</g>
<g>
	<g>
		<line class="st15" x1="284" y1="204.6" x2="284" y2="196.3"/>
	</g>
	<g>
		<path class="st11" d="M284.1,207.6c-1.7,0-3-1.4-3-3c0-1.8,1.4-3.2,3-3.2c1.8,0,3.2,1.4,3.2,3.2
			C287.3,206.2,285.9,207.6,284.1,207.6z"/>
		<path d="M284.1,208.3c-2,0-3.7-1.6-3.7-3.7c0-2.2,1.7-3.8,3.7-3.8v1.1c-1.4,0-2.5,1.1-2.5,2.7c0,1.4,1.1,2.5,2.5,2.5V208.3
			L284.1,208.3z M284.1,200.8v1.1c1.5,0,2.7,1.1,2.7,2.7c0,1.4-1.1,2.5-2.7,2.5v1.1c2.2,0,3.8-1.6,3.8-3.7
			C287.9,202.4,286.2,200.8,284.1,200.8z"/>
	</g>
	<rect x="279.9" y="200.4" class="st11" width="8.5" height="4.1"/>
	<rect x="283.5" y="201.3" width="1" height="4.2"/>
	<rect x="283.5" y="201.3" class="st16" width="1" height="4.2"/>
</g>
<g>
	<g>
		<line class="st15" x1="345" y1="204.6" x2="345" y2="196.3"/>
	</g>
	<g>
		<path class="st11" d="M345.1,207.6c-1.7,0-3-1.4-3-3c0-1.8,1.4-3.2,3-3.2c1.8,0,3.2,1.4,3.2,3.2
			C348.3,206.2,346.9,207.6,345.1,207.6z"/>
		<path d="M345.1,208.3c-2,0-3.7-1.6-3.7-3.7c0-2.2,1.7-3.8,3.7-3.8v1.1c-1.4,0-2.5,1.1-2.5,2.7c0,1.4,1.1,2.5,2.5,2.5V208.3
			L345.1,208.3z M345.1,200.8v1.1c1.5,0,2.7,1.1,2.7,2.7c0,1.4-1.1,2.5-2.7,2.5v1.1c2.2,0,3.8-1.6,3.8-3.7
			C348.9,202.4,347.3,200.8,345.1,200.8z"/>
	</g>
	<rect x="340.9" y="200.4" class="st11" width="8.5" height="4.1"/>
	<rect x="344.5" y="201.3" width="1" height="4.2"/>
	<rect x="344.5" y="201.3" class="st16" width="1" height="4.2"/>
</g>
<g>
	<g>
		<line class="st15" x1="405.9" y1="204.6" x2="405.9" y2="196.3"/>
	</g>
	<g>
		<path class="st11" d="M406,207.6c-1.7,0-3-1.4-3-3c0-1.8,1.4-3.2,3-3.2c1.8,0,3.2,1.4,3.2,3.2C409.2,206.2,407.8,207.6,406,207.6z
			"/>
		<path d="M406,208.3c-2,0-3.7-1.6-3.7-3.7c0-2.2,1.7-3.8,3.7-3.8v1.1c-1.4,0-2.5,1.1-2.5,2.7c0,1.4,1.1,2.5,2.5,2.5V208.3
			L406,208.3z M406,200.8v1.1c1.5,0,2.7,1.1,2.7,2.7c0,1.4-1.1,2.5-2.7,2.5v1.1c2.2,0,3.8-1.6,3.8-3.7
			C409.8,202.4,408.2,200.8,406,200.8z"/>
	</g>
	<rect x="401.8" y="200.4" class="st11" width="8.5" height="4.1"/>
	<rect x="405.4" y="201.3" width="1" height="4.2"/>
	<rect x="405.4" y="201.3" class="st16" width="1" height="4.2"/>
</g>
<g>
	<g>
		<line class="st15" x1="467.2" y1="204.6" x2="467.2" y2="196.3"/>
	</g>
	<g>
		<path class="st11" d="M467.3,207.6c-1.7,0-3-1.4-3-3c0-1.8,1.4-3.2,3-3.2c1.8,0,3.2,1.4,3.2,3.2
			C470.4,206.2,469,207.6,467.3,207.6z"/>
		<path d="M467.3,208.3c-2,0-3.7-1.6-3.7-3.7c0-2.2,1.7-3.8,3.7-3.8v1.1c-1.4,0-2.5,1.1-2.5,2.7c0,1.4,1.1,2.5,2.5,2.5V208.3
			L467.3,208.3z M467.3,200.8v1.1c1.5,0,2.7,1.1,2.7,2.7c0,1.4-1.1,2.5-2.7,2.5v1.1c2.2,0,3.8-1.6,3.8-3.7
			C471.1,202.4,469.4,200.8,467.3,200.8z"/>
	</g>
	<rect x="463.1" y="200.4" class="st11" width="8.5" height="4.1"/>
	<rect x="466.6" y="201.3" width="1" height="4.2"/>
	<rect x="466.6" y="201.3" class="st16" width="1" height="4.2"/>
</g>
<line class="st27" x1="191.5" y1="485" x2="191.6" y2="709.2"/>
<g>
	<g>
		<line class="st15" x1="191.8" y1="710.7" x2="191.8" y2="718.9"/>
	</g>
	<g>
		<path class="st11" d="M191.7,707.6c1.7,0,3,1.4,3,3c0,1.8-1.4,3.2-3,3.2c-1.8,0-3.2-1.4-3.2-3.2
			C188.5,709,189.9,707.6,191.7,707.6z"/>
		<path d="M191.7,707c2,0,3.7,1.7,3.7,3.7c0,2.2-1.7,3.8-3.7,3.8v-1.1c1.4,0,2.5-1.1,2.5-2.7c0-1.4-1.1-2.5-2.5-2.5V707L191.7,707z
			 M191.7,714.5v-1.1c-1.5,0-2.7-1.1-2.7-2.7c0-1.4,1.1-2.5,2.7-2.5V707c-2.2,0-3.8,1.7-3.8,3.7
			C187.9,712.8,189.5,714.5,191.7,714.5z"/>
	</g>
	<rect x="187.4" y="710.8" class="st11" width="8.5" height="4.1"/>
	<rect x="191.3" y="709.8" width="1" height="4.2"/>
	<rect x="191.3" y="709.8" class="st16" width="1" height="4.2"/>
</g>
<line class="st28" x1="252.6" y1="485" x2="252.6" y2="709.2"/>
<g>
	<g>
		<line class="st15" x1="252.8" y1="710.7" x2="252.8" y2="718.9"/>
	</g>
	<g>
		<path class="st11" d="M252.7,707.6c1.7,0,3,1.4,3,3c0,1.8-1.4,3.2-3,3.2c-1.8,0-3.2-1.4-3.2-3.2C249.6,709,251,707.6,252.7,707.6z
			"/>
		<path d="M252.7,707c2,0,3.7,1.7,3.7,3.7c0,2.2-1.7,3.8-3.7,3.8v-1.1c1.4,0,2.5-1.1,2.5-2.7c0-1.4-1.1-2.5-2.5-2.5V707L252.7,707z
			 M252.7,714.5v-1.1c-1.5,0-2.7-1.1-2.7-2.7c0-1.4,1.1-2.5,2.7-2.5V707c-2.2,0-3.8,1.7-3.8,3.7
			C248.9,712.8,250.6,714.5,252.7,714.5z"/>
	</g>
	<rect x="248.4" y="710.8" class="st11" width="8.5" height="4.1"/>
	<rect x="252.4" y="709.8" width="1" height="4.2"/>
	<rect x="252.4" y="709.8" class="st16" width="1" height="4.2"/>
</g>
<g>
	<g>
		<line class="st15" x1="191.3" y1="482.2" x2="191.3" y2="473.9"/>
	</g>
	<g>
		<path class="st11" d="M191.4,485.2c-1.7,0-3-1.4-3-3c0-1.8,1.4-3.2,3-3.2c1.8,0,3.2,1.4,3.2,3.2
			C194.5,483.8,193.2,485.2,191.4,485.2z"/>
		<path d="M191.4,485.9c-2,0-3.7-1.6-3.7-3.7c0-2.2,1.7-3.8,3.7-3.8v1.1c-1.4,0-2.5,1.1-2.5,2.7c0,1.4,1.1,2.5,2.5,2.5V485.9
			L191.4,485.9z M191.4,478.4v1.1c1.5,0,2.7,1.1,2.7,2.7c0,1.4-1.1,2.5-2.7,2.5v1.1c2.2,0,3.8-1.6,3.8-3.7S193.5,478.4,191.4,478.4z
			"/>
	</g>
	<rect x="187.2" y="478" class="st11" width="8.5" height="4.1"/>
	<rect x="190.7" y="478.9" width="1" height="4.2"/>
	<rect x="190.7" y="478.9" class="st16" width="1" height="4.2"/>
</g>
<g>
	<g>
		<line class="st15" x1="252.5" y1="482.2" x2="252.5" y2="473.9"/>
	</g>
	<g>
		<path class="st11" d="M252.6,485.2c-1.7,0-3-1.4-3-3c0-1.8,1.4-3.2,3-3.2c1.8,0,3.2,1.4,3.2,3.2
			C255.8,483.8,254.4,485.2,252.6,485.2z"/>
		<path d="M252.6,485.9c-2,0-3.7-1.6-3.7-3.7c0-2.2,1.7-3.8,3.7-3.8v1.1c-1.4,0-2.5,1.1-2.5,2.7c0,1.4,1.1,2.5,2.5,2.5V485.9
			L252.6,485.9z M252.6,478.4v1.1c1.5,0,2.7,1.1,2.7,2.7c0,1.4-1.1,2.5-2.7,2.5v1.1c2.2,0,3.8-1.6,3.8-3.7S254.8,478.4,252.6,478.4z
			"/>
	</g>
	<rect x="248.4" y="478" class="st11" width="8.5" height="4.1"/>
	<rect x="252" y="478.9" width="1" height="4.2"/>
	<rect x="252" y="478.9" class="st16" width="1" height="4.2"/>
</g>
<polygon class="st0" points="437.5,751.3 333.9,751.3 333.9,751.3 333.9,719.1 437.5,719.1 "/>
<line class="st29" x1="346.5" y1="485" x2="346.5" y2="709.2"/>
<line class="st30" x1="346.5" y1="485" x2="346.5" y2="709.2"/>
<g>
	<g>
		<line class="st15" x1="346.7" y1="710.7" x2="346.7" y2="718.9"/>
	</g>
	<g>
		<path class="st11" d="M346.6,707.6c1.7,0,3,1.4,3,3c0,1.8-1.4,3.2-3,3.2c-1.8,0-3.2-1.4-3.2-3.2
			C343.5,709,344.9,707.6,346.6,707.6z"/>
		<path d="M346.6,707c2,0,3.7,1.7,3.7,3.7c0,2.2-1.7,3.8-3.7,3.8v-1.1c1.4,0,2.5-1.1,2.5-2.7c0-1.4-1.1-2.5-2.5-2.5V707L346.6,707z
			 M346.6,714.5v-1.1c-1.5,0-2.7-1.1-2.7-2.7c0-1.4,1.1-2.5,2.7-2.5V707c-2.2,0-3.8,1.7-3.8,3.7
			C342.8,712.8,344.5,714.5,346.6,714.5z"/>
	</g>
	<rect x="342.3" y="710.8" class="st11" width="8.5" height="4.1"/>
	<rect x="346.2" y="709.8" width="1" height="4.2"/>
	<rect x="346.2" y="709.8" class="st16" width="1" height="4.2"/>
</g>
<line class="st31" x1="407.5" y1="485" x2="407.5" y2="709.2"/>
<polyline class="st26" points="423.6,569.8 453.7,569.8 453.7,667.8 421.4,667.8 "/>
<g>
	<g>
		<line class="st15" x1="407.8" y1="710.7" x2="407.8" y2="718.9"/>
	</g>
	<g>
		<path class="st11" d="M407.7,707.6c1.7,0,3,1.4,3,3c0,1.8-1.4,3.2-3,3.2c-1.8,0-3.2-1.4-3.2-3.2
			C404.5,709,405.9,707.6,407.7,707.6z"/>
		<path d="M407.7,707c2,0,3.7,1.7,3.7,3.7c0,2.2-1.7,3.8-3.7,3.8v-1.1c1.4,0,2.5-1.1,2.5-2.7c0-1.4-1.1-2.5-2.5-2.5V707L407.7,707z
			 M407.7,714.5v-1.1c-1.5,0-2.7-1.1-2.7-2.7c0-1.4,1.1-2.5,2.7-2.5V707c-2.2,0-3.8,1.7-3.8,3.7
			C403.9,712.8,405.5,714.5,407.7,714.5z"/>
	</g>
	<rect x="403.4" y="710.8" class="st11" width="8.5" height="4.1"/>
	<rect x="407.3" y="709.8" width="1" height="4.2"/>
	<rect x="407.3" y="709.8" class="st16" width="1" height="4.2"/>
</g>
<g>
	<g>
		<line class="st15" x1="346.2" y1="482.2" x2="346.2" y2="473.9"/>
	</g>
	<g>
		<path class="st11" d="M346.3,485.2c-1.7,0-3-1.4-3-3c0-1.8,1.4-3.2,3-3.2c1.8,0,3.2,1.4,3.2,3.2
			C349.5,483.8,348.1,485.2,346.3,485.2z"/>
		<path d="M346.3,485.9c-2,0-3.7-1.6-3.7-3.7c0-2.2,1.7-3.8,3.7-3.8v1.1c-1.4,0-2.5,1.1-2.5,2.7c0,1.4,1.1,2.5,2.5,2.5V485.9
			L346.3,485.9z M346.3,478.4v1.1c1.5,0,2.7,1.1,2.7,2.7c0,1.4-1.1,2.5-2.7,2.5v1.1c2.2,0,3.8-1.6,3.8-3.7
			C350.1,480,348.5,478.4,346.3,478.4z"/>
	</g>
	<rect x="342.1" y="478" class="st11" width="8.5" height="4.1"/>
	<rect x="345.7" y="478.9" width="1" height="4.2"/>
	<rect x="345.7" y="478.9" class="st16" width="1" height="4.2"/>
</g>
<g>
	<g>
		<line class="st15" x1="407.5" y1="482.2" x2="407.5" y2="473.9"/>
	</g>
	<g>
		<path class="st11" d="M407.6,485.2c-1.7,0-3-1.4-3-3c0-1.8,1.4-3.2,3-3.2c1.8,0,3.2,1.4,3.2,3.2
			C410.8,483.8,409.4,485.2,407.6,485.2z"/>
		<path d="M407.6,485.9c-2,0-3.7-1.6-3.7-3.7c0-2.2,1.7-3.8,3.7-3.8v1.1c-1.4,0-2.5,1.1-2.5,2.7c0,1.4,1.1,2.5,2.5,2.5V485.9
			L407.6,485.9z M407.6,478.4v1.1c1.5,0,2.7,1.1,2.7,2.7c0,1.4-1.1,2.5-2.7,2.5v1.1c2.2,0,3.8-1.6,3.8-3.7S409.7,478.4,407.6,478.4z
			"/>
	</g>
	<rect x="403.4" y="478" class="st11" width="8.5" height="4.1"/>
	<rect x="406.9" y="478.9" width="1" height="4.2"/>
	<rect x="406.9" y="478.9" class="st16" width="1" height="4.2"/>
</g>
<g>
	<g>
		<line class="st15" x1="530.7" y1="482.1" x2="530.7" y2="473.9"/>
	</g>
	<g>
		<path class="st11" d="M530.8,485.2c-1.7,0-3-1.4-3-3c0-1.8,1.4-3.2,3-3.2c1.8,0,3.2,1.4,3.2,3.2
			C533.9,483.8,532.5,485.2,530.8,485.2z"/>
		<path d="M530.8,485.8c-2,0-3.7-1.6-3.7-3.7c0-2.2,1.7-3.8,3.7-3.8v1.1c-1.4,0-2.5,1.1-2.5,2.7c0,1.4,1.1,2.5,2.5,2.5V485.8
			L530.8,485.8z M530.8,478.3v1.1c1.5,0,2.7,1.1,2.7,2.7c0,1.4-1.1,2.5-2.7,2.5v1.1c2.2,0,3.8-1.6,3.8-3.7S532.9,478.3,530.8,478.3z
			"/>
	</g>
	<rect x="526.6" y="477.9" class="st11" width="8.5" height="4.1"/>
	<rect x="530.1" y="478.8" width="1" height="4.2"/>
	<rect x="530.1" y="478.8" class="st16" width="1" height="4.2"/>
</g>
<g>
	<g>
		<line class="st15" x1="588.1" y1="482.1" x2="588.1" y2="473.9"/>
	</g>
	<g>
		<path class="st11" d="M588.2,485.2c-1.7,0-3-1.4-3-3c0-1.8,1.4-3.2,3-3.2c1.8,0,3.2,1.4,3.2,3.2
			C591.4,483.8,590,485.2,588.2,485.2z"/>
		<path d="M588.2,485.8c-2,0-3.7-1.6-3.7-3.7c0-2.2,1.7-3.8,3.7-3.8v1.1c-1.4,0-2.5,1.1-2.5,2.7c0,1.4,1.1,2.5,2.5,2.5V485.8
			L588.2,485.8z M588.2,478.3v1.1c1.5,0,2.7,1.1,2.7,2.7c0,1.4-1.1,2.5-2.7,2.5v1.1c2.2,0,3.8-1.6,3.8-3.7S590.4,478.3,588.2,478.3z
			"/>
	</g>
	<rect x="584" y="477.9" class="st11" width="8.5" height="4.1"/>
	<rect x="587.6" y="478.8" width="1" height="4.2"/>
	<rect x="587.6" y="478.8" class="st16" width="1" height="4.2"/>
</g>
<line class="st32" x1="653.3" y1="485.2" x2="653.3" y2="702.4"/>
<line class="st33" x1="653.3" y1="485.2" x2="653.3" y2="702.4"/>
<rect x="646.3" y="505.5" class="st11" width="13.9" height="6"/>
<g>
	<text transform="matrix(1 0 0 1 639.7994 510.6078)" class="st4 st5">R/W 0.22</text>
</g>
<g>
	<g>
		<line class="st15" x1="653.1" y1="482.1" x2="653.1" y2="473.9"/>
	</g>
	<g>
		<path class="st11" d="M653.2,485.2c-1.7,0-3-1.4-3-3c0-1.8,1.4-3.2,3-3.2c1.8,0,3.2,1.4,3.2,3.2
			C656.4,483.8,655,485.2,653.2,485.2z"/>
		<path d="M653.2,485.8c-2,0-3.7-1.6-3.7-3.7c0-2.2,1.7-3.8,3.7-3.8v1.1c-1.4,0-2.5,1.1-2.5,2.7c0,1.4,1.1,2.5,2.5,2.5V485.8
			L653.2,485.8z M653.2,478.3v1.1c1.5,0,2.7,1.1,2.7,2.7c0,1.4-1.1,2.5-2.7,2.5v1.1c2.2,0,3.8-1.6,3.8-3.7S655.4,478.3,653.2,478.3z
			"/>
	</g>
	<rect x="649" y="477.9" class="st11" width="8.5" height="4.1"/>
	<rect x="652.6" y="478.8" width="1" height="4.2"/>
	<rect x="652.6" y="478.8" class="st16" width="1" height="4.2"/>
</g>
<g id="REB_x2C_A3_2_">
	<rect x="169.2" y="139.7" class="st20" width="48.4" height="56.3"/>
</g>
<g id="RF22_x2C_A3_5_">
	<g>
		<g>
			<path class="st21" d="M191.1,171c-1.2,0-2.2,1-2.2,2.2s1,2.2,2.2,2.2s2.2-1,2.2-2.2C193.4,172,192.4,171,191.1,171"/>
		</g>
		<g>
			<path class="st21" d="M191.1,155.2c-1.2,0-2.2,1-2.2,2.1c0,1.2,1,2.2,2.2,2.2s2.2-0.9,2.2-2.2
				C193.4,156.2,192.4,155.2,191.1,155.2"/>
		</g>
		<g>
			<path class="st21" d="M189.7,159c-0.1,2.5,0.2,3.2,1.3,4.3c1.2,1.2,2.4,1.7,2.8,3.7c0.4,1.6-0.1,3.5-1.1,4.5"/>
		</g>
		<g>
			<path class="st21" d="M192.6,171.6c0.2-0.8,0-2.9-0.6-3.7c-0.9-1.2-2.7-2.1-3.3-4c-0.9-2.8,0.7-4.6,1.1-5"/>
		</g>
	</g>
</g>
<g>
	<g>
		<polyline class="st15" points="191.1,175.4 191.1,179.4 191.1,196 		"/>
	</g>
</g>
<g>
	<g>
		<polyline class="st15" points="191.1,154.9 191.1,150.8 191.1,48 		"/>
	</g>
</g>
<g>
	<path class="st22" d="M188,47.7c0-1.7,1.3-2.9,2.8-2.9c1.6,0,2.9,1.2,2.9,2.9c0,1.5-1.3,2.7-2.9,2.7C189.3,50.5,188,49.2,188,47.7z
		"/>
	<g>
		<path class="st23" d="M188,47.7c0-1.7,1.3-2.9,2.8-2.9c1.6,0,2.9,1.2,2.9,2.9c0,1.5-1.3,2.7-2.9,2.7C189.3,50.5,188,49.2,188,47.7
			"/>
	</g>
</g>
<g>
	<g>
		<text transform="matrix(1 0 0 1 195.4937 170.5938)" class="st4 st5">5A</text>
	</g>
</g>
<line class="st6" x1="558.1" y1="205.2" x2="558.1" y2="430.8"/>
<g>
	<g>
		<line class="st15" x1="558.2" y1="204.3" x2="558.2" y2="196.1"/>
	</g>
	<g>
		<path class="st11" d="M558.1,207.4c1.7,0,3-1.4,3-3c0-1.8-1.4-3.2-3-3.2c-1.8,0-3.2,1.4-3.2,3.2C555,206,556.3,207.4,558.1,207.4z
			"/>
		<path d="M558.1,208v-1.1c1.4,0,2.5-1.1,2.5-2.5c0-1.5-1.1-2.7-2.5-2.7v-1.1c2,0,3.7,1.7,3.7,3.8C561.8,206.4,560.2,208,558.1,208
			L558.1,208z M554.3,204.3c0,2,1.6,3.7,3.8,3.7v-1.1c-1.5,0-2.7-1.1-2.7-2.5c0-1.5,1.1-2.7,2.7-2.7v-1.1
			C556,200.5,554.3,202.2,554.3,204.3z"/>
	</g>
	<rect x="553.8" y="200.1" class="st11" width="8.5" height="4.1"/>
	<rect x="557.7" y="201" width="1" height="4.2"/>
	<rect x="557.7" y="201" class="st16" width="1" height="4.2"/>
</g>
<g>
	<g>
		<line class="st15" x1="558.2" y1="433" x2="558.2" y2="441.2"/>
	</g>
	<g>
		<path class="st11" d="M558.1,429.9c1.7,0,3,1.4,3,3c0,1.8-1.4,3.2-3,3.2c-1.8,0-3.2-1.4-3.2-3.2
			C555,431.3,556.3,429.9,558.1,429.9z"/>
		<path d="M558.1,429.3c2,0,3.7,1.7,3.7,3.7c0,2.2-1.7,3.8-3.7,3.8v-1.1c1.4,0,2.5-1.1,2.5-2.7c0-1.4-1.1-2.5-2.5-2.5V429.3
			L558.1,429.3z M558.1,436.8v-1.1c-1.5,0-2.7-1.1-2.7-2.7c0-1.4,1.1-2.5,2.7-2.5v-1.1c-2.2,0-3.8,1.7-3.8,3.7
			C554.3,435.1,556,436.8,558.1,436.8z"/>
	</g>
	<rect x="553.8" y="433.1" class="st11" width="8.5" height="4.1"/>
	<rect x="557.7" y="432.1" width="1" height="4.2"/>
	<rect x="557.7" y="432.1" class="st16" width="1" height="4.2"/>
</g>
<g>
	<rect x="107" y="271" class="st11" width="8.5" height="18.8"/>
	<g>
		<g>
			<line class="st34" x1="111.1" y1="279.7" x2="111.1" y2="271.5"/>
		</g>
		<g>
			<line class="st35" x1="111.2" y1="282.9" x2="111.2" y2="289.4"/>
		</g>
		<g>
			<g>
				<g>
					<path class="st11" d="M111.2,282.8c-1.7,0-3.2-1.4-3.2-3.2c0-1.8,1.5-3.2,3.2-3.2c1.8,0,3.2,1.4,3.2,3.2
						C114.3,281.4,112.9,282.8,111.2,282.8z"/>
					<path d="M111.2,283.4c-2,0-3.7-1.8-3.7-3.8h1.1c0,1.4,1.1,2.5,2.5,2.5c1.5,0,2.7-1.1,2.7-2.5h1.1
						C115,281.6,113.3,283.4,111.2,283.4L111.2,283.4z M107.5,279.6h1.1c0-1.4,1.1-2.5,2.5-2.5c1.5,0,2.7,1.1,2.7,2.5h1.1
						c0-2.2-1.6-3.8-3.8-3.8C109.1,275.8,107.5,277.4,107.5,279.6z"/>
				</g>
				<rect x="107" y="275.4" class="st11" width="8.5" height="4.1"/>
				<rect x="110.5" y="276.3" width="1" height="4.2"/>
				<rect x="110.5" y="276.3" class="st16" width="1" height="4.2"/>
			</g>
		</g>
	</g>
</g>
<g>
	<rect x="279.6" y="271" class="st11" width="8.5" height="18.8"/>
	<g>
		<g>
			<line class="st34" x1="283.7" y1="279.7" x2="283.7" y2="271.5"/>
		</g>
		<g>
			<line class="st35" x1="283.8" y1="282.9" x2="283.8" y2="289.4"/>
		</g>
		<g>
			<g>
				<g>
					<path class="st11" d="M283.8,282.8c-1.7,0-3.2-1.4-3.2-3.2c0-1.8,1.5-3.2,3.2-3.2c1.8,0,3.2,1.4,3.2,3.2
						S285.6,282.8,283.8,282.8z"/>
					<path d="M283.8,283.4c-2,0-3.7-1.8-3.7-3.8h1.1c0,1.4,1.1,2.5,2.5,2.5c1.5,0,2.7-1.1,2.7-2.5h1.1
						C287.6,281.6,285.9,283.4,283.8,283.4L283.8,283.4z M280.1,279.6h1.1c0-1.4,1.1-2.5,2.5-2.5c1.5,0,2.7,1.1,2.7,2.5h1.1
						c0-2.2-1.6-3.8-3.8-3.8C281.8,275.8,280.1,277.4,280.1,279.6z"/>
				</g>
				<rect x="279.6" y="275.4" class="st11" width="8.5" height="4.1"/>
				<rect x="283.1" y="276.3" width="1" height="4.2"/>
				<rect x="283.1" y="276.3" class="st16" width="1" height="4.2"/>
			</g>
		</g>
	</g>
</g>
<g>
	<rect x="341.1" y="271" class="st11" width="8.5" height="18.8"/>
	<g>
		<g>
			<line class="st34" x1="345.2" y1="279.7" x2="345.2" y2="271.5"/>
		</g>
		<g>
			<line class="st35" x1="345.3" y1="282.9" x2="345.3" y2="289.4"/>
		</g>
		<g>
			<g>
				<g>
					<path class="st11" d="M345.3,282.8c-1.7,0-3.2-1.4-3.2-3.2c0-1.8,1.5-3.2,3.2-3.2c1.8,0,3.2,1.4,3.2,3.2
						S347.1,282.8,345.3,282.8z"/>
					<path d="M345.3,283.4c-2,0-3.7-1.8-3.7-3.8h1.1c0,1.4,1.1,2.5,2.5,2.5c1.5,0,2.7-1.1,2.7-2.5h1.1
						C349.1,281.6,347.4,283.4,345.3,283.4L345.3,283.4z M341.6,279.6h1.1c0-1.4,1.1-2.5,2.5-2.5c1.5,0,2.7,1.1,2.7,2.5h1.1
						c0-2.2-1.6-3.8-3.8-3.8C343.3,275.8,341.6,277.4,341.6,279.6z"/>
				</g>
				<rect x="341.1" y="275.4" class="st11" width="8.5" height="4.1"/>
				<rect x="344.6" y="276.3" width="1" height="4.2"/>
				<rect x="344.6" y="276.3" class="st16" width="1" height="4.2"/>
			</g>
		</g>
	</g>
</g>
<g>
	<rect x="402.2" y="271" class="st11" width="8.5" height="18.8"/>
	<g>
		<g>
			<line class="st34" x1="406.3" y1="279.7" x2="406.3" y2="271.5"/>
		</g>
		<g>
			<line class="st35" x1="406.5" y1="282.9" x2="406.5" y2="289.4"/>
		</g>
		<g>
			<g>
				<g>
					<path class="st11" d="M406.4,282.8c-1.7,0-3.2-1.4-3.2-3.2c0-1.8,1.5-3.2,3.2-3.2c1.8,0,3.2,1.4,3.2,3.2
						S408.2,282.8,406.4,282.8z"/>
					<path d="M406.4,283.4c-2,0-3.7-1.8-3.7-3.8h1.1c0,1.4,1.1,2.5,2.5,2.5c1.5,0,2.7-1.1,2.7-2.5h1.1
						C410.2,281.6,408.5,283.4,406.4,283.4L406.4,283.4z M402.7,279.6h1.1c0-1.4,1.1-2.5,2.5-2.5c1.5,0,2.7,1.1,2.7,2.5h1.1
						c0-2.2-1.6-3.8-3.8-3.8C404.4,275.8,402.7,277.4,402.7,279.6z"/>
				</g>
				<rect x="402.2" y="275.4" class="st11" width="8.5" height="4.1"/>
				<rect x="405.8" y="276.3" width="1" height="4.2"/>
				<rect x="405.8" y="276.3" class="st16" width="1" height="4.2"/>
			</g>
		</g>
	</g>
</g>
<g>
	<rect x="462.8" y="271" class="st11" width="8.5" height="18.8"/>
	<g>
		<g>
			<line class="st34" x1="466.9" y1="279.7" x2="466.9" y2="271.5"/>
		</g>
		<g>
			<line class="st35" x1="467.1" y1="282.9" x2="467.1" y2="289.4"/>
		</g>
		<g>
			<g>
				<g>
					<path class="st11" d="M467,282.8c-1.7,0-3.2-1.4-3.2-3.2c0-1.8,1.5-3.2,3.2-3.2c1.8,0,3.2,1.4,3.2,3.2S468.8,282.8,467,282.8z"
						/>
					<path d="M467,283.4c-2,0-3.7-1.8-3.7-3.8h1.1c0,1.4,1.1,2.5,2.5,2.5c1.5,0,2.7-1.1,2.7-2.5h1.1
						C470.8,281.6,469.2,283.4,467,283.4L467,283.4z M463.3,279.6h1.1c0-1.4,1.1-2.5,2.5-2.5c1.5,0,2.7,1.1,2.7,2.5h1.1
						c0-2.2-1.6-3.8-3.8-3.8C465,275.8,463.3,277.4,463.3,279.6z"/>
				</g>
				<rect x="462.8" y="275.4" class="st11" width="8.5" height="4.1"/>
				<rect x="466.4" y="276.3" width="1" height="4.2"/>
				<rect x="466.4" y="276.3" class="st16" width="1" height="4.2"/>
			</g>
		</g>
	</g>
</g>
<g>
	<rect x="403.2" y="615.6" class="st11" width="8.5" height="18.8"/>
	<g>
		<g>
			<line class="st34" x1="407.7" y1="625.7" x2="407.7" y2="633.9"/>
		</g>
		<g>
			<line class="st35" x1="407.5" y1="622.5" x2="407.5" y2="616"/>
		</g>
		<g>
			<g>
				<g>
					<path class="st11" d="M407.6,622.6c1.7,0,3.2,1.4,3.2,3.2s-1.5,3.2-3.2,3.2c-1.8,0-3.2-1.4-3.2-3.2S405.8,622.6,407.6,622.6z"
						/>
					<path d="M407.6,622c2,0,3.7,1.8,3.7,3.8h-1.1c0-1.4-1.1-2.5-2.5-2.5c-1.5,0-2.7,1.1-2.7,2.5h-1.1
						C403.8,623.8,405.4,622,407.6,622L407.6,622z M411.2,625.8h-1.1c0,1.4-1.1,2.5-2.5,2.5c-1.5,0-2.7-1.1-2.7-2.5h-1.1
						c0,2.2,1.6,3.8,3.8,3.8C409.6,629.6,411.2,628,411.2,625.8z"/>
				</g>
				<rect x="403.2" y="625.9" class="st11" width="8.5" height="4.1"/>
				<rect x="407.2" y="624.9" width="1" height="4.2"/>
				<rect x="407.2" y="624.9" class="st16" width="1" height="4.2"/>
			</g>
		</g>
	</g>
</g>
<g>
	<rect x="449.5" y="615.6" class="st11" width="8.5" height="18.8"/>
	<g>
		<g>
			<line class="st34" x1="454" y1="625.7" x2="454" y2="633.9"/>
		</g>
		<g>
			<line class="st35" x1="453.8" y1="622.5" x2="453.8" y2="616"/>
		</g>
		<g>
			<g>
				<g>
					<path class="st11" d="M453.9,622.6c1.7,0,3.2,1.4,3.2,3.2s-1.5,3.2-3.2,3.2c-1.8,0-3.2-1.4-3.2-3.2
						C450.7,624,452.1,622.6,453.9,622.6z"/>
					<path d="M453.9,622c2,0,3.7,1.8,3.7,3.8h-1.1c0-1.4-1.1-2.5-2.5-2.5c-1.5,0-2.7,1.1-2.7,2.5h-1.1
						C450.1,623.8,451.7,622,453.9,622L453.9,622z M457.5,625.8h-1.1c0,1.4-1.1,2.5-2.5,2.5c-1.5,0-2.7-1.1-2.7-2.5h-1.1
						c0,2.2,1.6,3.8,3.8,3.8C455.9,629.6,457.5,628,457.5,625.8z"/>
				</g>
				<rect x="449.5" y="625.9" class="st11" width="8.5" height="4.1"/>
				<rect x="453.5" y="624.9" width="1" height="4.2"/>
				<rect x="453.5" y="624.9" class="st16" width="1" height="4.2"/>
			</g>
		</g>
	</g>
</g>
<g>
	<rect x="342.2" y="615.6" class="st11" width="8.5" height="18.8"/>
	<g>
		<g>
			<line class="st34" x1="346.6" y1="625.7" x2="346.6" y2="633.9"/>
		</g>
		<g>
			<line class="st35" x1="346.4" y1="622.5" x2="346.4" y2="616"/>
		</g>
		<g>
			<g>
				<g>
					<path class="st11" d="M346.5,622.6c1.7,0,3.2,1.4,3.2,3.2s-1.5,3.2-3.2,3.2c-1.8,0-3.2-1.4-3.2-3.2S344.7,622.6,346.5,622.6z"
						/>
					<path d="M346.5,622c2,0,3.7,1.8,3.7,3.8H349c0-1.4-1.1-2.5-2.5-2.5c-1.5,0-2.7,1.1-2.7,2.5h-1.1
						C342.7,623.8,344.3,622,346.5,622L346.5,622z M350.2,625.8H349c0,1.4-1.1,2.5-2.5,2.5c-1.5,0-2.7-1.1-2.7-2.5h-1.1
						c0,2.2,1.6,3.8,3.8,3.8C348.5,629.6,350.2,628,350.2,625.8z"/>
				</g>
				<rect x="342.2" y="625.9" class="st11" width="8.5" height="4.1"/>
				<rect x="346.1" y="624.9" width="1" height="4.2"/>
				<rect x="346.1" y="624.9" class="st16" width="1" height="4.2"/>
			</g>
		</g>
	</g>
</g>
<polygon class="st0" points="585.9,196.1 531.5,196.1 531.5,196 531.5,163.8 585.9,163.8 "/>
<g>
	<polygon class="st36" points="558.3,181.3 568.9,172 547.6,172 	"/>
	<line class="st36" x1="558.3" y1="172" x2="558.3" y2="189.7"/>
</g>
<line class="st6" x1="664.8" y1="205.2" x2="664.8" y2="430.8"/>
<g>
	<g>
		<line class="st15" x1="664.9" y1="204.3" x2="664.9" y2="196.1"/>
	</g>
	<g>
		<path class="st11" d="M664.8,207.4c1.7,0,3-1.4,3-3c0-1.8-1.4-3.2-3-3.2c-1.8,0-3.2,1.4-3.2,3.2C661.6,206,663,207.4,664.8,207.4z
			"/>
		<path d="M664.8,208v-1.1c1.4,0,2.5-1.1,2.5-2.5c0-1.5-1.1-2.7-2.5-2.7v-1.1c2,0,3.7,1.7,3.7,3.8C668.5,206.4,666.8,208,664.8,208
			L664.8,208z M661,204.3c0,2,1.6,3.7,3.8,3.7v-1.1c-1.5,0-2.7-1.1-2.7-2.5c0-1.5,1.1-2.7,2.7-2.7v-1.1
			C662.6,200.5,661,202.2,661,204.3z"/>
	</g>
	<rect x="660.5" y="200.1" class="st11" width="8.5" height="4.1"/>
	<rect x="664.4" y="201" width="1" height="4.2"/>
	<rect x="664.4" y="201" class="st16" width="1" height="4.2"/>
</g>
<g>
	<g>
		<line class="st15" x1="664.9" y1="433" x2="664.9" y2="441.2"/>
	</g>
	<g>
		<path class="st11" d="M664.8,429.9c1.7,0,3,1.4,3,3c0,1.8-1.4,3.2-3,3.2c-1.8,0-3.2-1.4-3.2-3.2
			C661.6,431.3,663,429.9,664.8,429.9z"/>
		<path d="M664.8,429.3c2,0,3.7,1.7,3.7,3.7c0,2.2-1.7,3.8-3.7,3.8v-1.1c1.4,0,2.5-1.1,2.5-2.7c0-1.4-1.1-2.5-2.5-2.5V429.3
			L664.8,429.3z M664.8,436.8v-1.1c-1.5,0-2.7-1.1-2.7-2.7c0-1.4,1.1-2.5,2.7-2.5v-1.1c-2.2,0-3.8,1.7-3.8,3.7
			C661,435.1,662.6,436.8,664.8,436.8z"/>
	</g>
	<rect x="660.5" y="433.1" class="st11" width="8.5" height="4.1"/>
	<rect x="664.4" y="432.1" width="1" height="4.2"/>
	<rect x="664.4" y="432.1" class="st16" width="1" height="4.2"/>
</g>
<polygon class="st0" points="692.6,196.1 638.1,196.1 638.1,196 638.1,163.8 692.6,163.8 "/>
<g>
	<polygon class="st36" points="664.9,181.3 675.6,172 654.2,172 	"/>
	<line class="st36" x1="665" y1="172" x2="665" y2="189.7"/>
</g>
<rect x="117.6" y="356.7" class="st17" width="25.3" height="5.6"/>
<text transform="matrix(1 0 0 1 118.3164 361.5665)" class="st4 st5">SP4695</text>
<path class="st18" d="M114.2,359.6c0,1.7-1.3,2.9-2.8,2.9c-1.6,0-2.9-1.2-2.9-2.9c0-1.5,1.3-2.7,2.9-2.7
	C112.9,356.8,114.2,358,114.2,359.6z"/>
<rect x="197.2" y="356.7" class="st17" width="13.9" height="5.6"/>
<text transform="matrix(1 0 0 1 197.9507 361.5665)" class="st4 st5">SP7</text>
<path class="st18" d="M193.8,359.6c0,1.7-1.3,2.9-2.8,2.9c-1.6,0-2.9-1.2-2.9-2.9c0-1.5,1.3-2.7,2.9-2.7
	C192.5,356.8,193.8,358,193.8,359.6z"/>
<rect x="188.1" y="404.6" class="st11" width="6.2" height="6"/>
<g>
	<text transform="matrix(1 0 0 1 178.6034 409.4983)" class="st4 st5">R/B 0.35</text>
</g>
<rect x="188.1" y="316.5" class="st11" width="6.2" height="6"/>
<g>
	<text transform="matrix(1 0 0 1 178.6034 321.4736)" class="st4 st5">R/B 0.35</text>
</g>
<rect x="281" y="404.6" class="st11" width="6.2" height="6"/>
<g>
	<text transform="matrix(1 0 0 1 274.5424 409.4983)" class="st4 st5">R 0.22</text>
</g>
<rect x="342" y="404.6" class="st11" width="6.2" height="6"/>
<g>
	<text transform="matrix(1 0 0 1 335.3936 409.4983)" class="st4 st5">O 0.22</text>
</g>
<rect x="403.1" y="404.6" class="st11" width="6.2" height="6"/>
<g>
	<text transform="matrix(1 0 0 1 396.8188 409.4983)" class="st4 st5">B 0.22</text>
</g>
<rect x="464.1" y="404.6" class="st11" width="6.2" height="6"/>
<g>
	<text transform="matrix(1 0 0 1 457.8695 409.4983)" class="st4 st5">B 0.22</text>
</g>
<rect x="281" y="231.2" class="st11" width="6.2" height="6"/>
<g>
	<text transform="matrix(1 0 0 1 274.5424 236.1704)" class="st4 st5">R 0.22</text>
</g>
<rect x="342" y="231.2" class="st11" width="6.2" height="6"/>
<g>
	<text transform="matrix(1 0 0 1 335.3936 236.1704)" class="st4 st5">O 0.22</text>
</g>
<rect x="403.1" y="231.2" class="st11" width="6.2" height="6"/>
<g>
	<text transform="matrix(1 0 0 1 396.8188 236.1704)" class="st4 st5">B 0.22</text>
</g>
<rect x="464.1" y="231.2" class="st11" width="6.2" height="6"/>
<g>
	<text transform="matrix(1 0 0 1 457.8695 236.1704)" class="st4 st5">B 0.22</text>
</g>
<rect x="188.1" y="231.2" class="st11" width="6.2" height="6"/>
<g>
	<text transform="matrix(1 0 0 1 178.6034 236.1704)" class="st4 st5">R/B 0.35</text>
</g>
<rect x="188.4" y="505.5" class="st11" width="6.2" height="6"/>
<g>
	<text transform="matrix(1 0 0 1 182.815 510.3793)" class="st4 st5">Br 0.5</text>
</g>
<rect x="249.5" y="505.5" class="st11" width="6.2" height="6"/>
<g>
	<text transform="matrix(1 0 0 1 243.5257 510.3793)" class="st4 st5">Lg 0.5</text>
</g>
<rect x="343.4" y="505.5" class="st11" width="6.2" height="6"/>
<g>
	<text transform="matrix(1 0 0 1 334.3876 510.3793)" class="st4 st5">P/L 0.35</text>
</g>
<rect x="404.4" y="505.5" class="st11" width="6.2" height="6"/>
<g>
	<text transform="matrix(1 0 0 1 397.7933 510.3793)" class="st4 st5">G 0.35</text>
</g>
<rect x="343.4" y="592" class="st11" width="6.2" height="6"/>
<g>
	<text transform="matrix(1 0 0 1 334.3876 596.8962)" class="st4 st5">P/L 0.35</text>
</g>
<rect x="404.4" y="592" class="st11" width="6.2" height="6"/>
<g>
	<text transform="matrix(1 0 0 1 397.7933 596.8962)" class="st4 st5">G 0.35</text>
</g>
<rect x="343.4" y="645.4" class="st11" width="6.2" height="6"/>
<g>
	<text transform="matrix(1 0 0 1 334.3876 650.3625)" class="st4 st5">P/L 0.35</text>
</g>
<rect x="404.4" y="645.4" class="st11" width="6.2" height="6"/>
<g>
	<text transform="matrix(1 0 0 1 397.7933 650.3625)" class="st4 st5">G 0.35</text>
</g>
<rect x="343.4" y="682.5" class="st11" width="6.2" height="6"/>
<g>
	<text transform="matrix(1 0 0 1 334.3876 687.4041)" class="st4 st5">P/L 0.35</text>
</g>
<rect x="404.4" y="682.5" class="st11" width="6.2" height="6"/>
<g>
	<text transform="matrix(1 0 0 1 397.7933 687.4041)" class="st4 st5">G 0.35</text>
</g>
<rect x="450.3" y="592" class="st11" width="6.2" height="6"/>
<g>
	<text transform="matrix(1 0 0 1 443.6744 596.8962)" class="st4 st5">B 0.35</text>
</g>
<rect x="497.3" y="592" class="st11" width="6.2" height="6"/>
<g>
	<text transform="matrix(1 0 0 1 490.6383 596.8962)" class="st4 st5">B 0.35</text>
</g>
<rect x="450.3" y="645.4" class="st11" width="6.2" height="6"/>
<g>
	<text transform="matrix(1 0 0 1 443.6744 650.3625)" class="st4 st5">B 0.35</text>
</g>
<rect x="188.4" y="682.1" class="st11" width="6.2" height="6"/>
<g>
	<text transform="matrix(1 0 0 1 182.815 687.0748)" class="st4 st5">Br 0.5</text>
</g>
<rect x="249.5" y="682.1" class="st11" width="6.2" height="6"/>
<g>
	<text transform="matrix(1 0 0 1 243.5257 687.0748)" class="st4 st5">Lg 0.5</text>
</g>
<rect x="416.7" y="658.3" class="st17" width="25.3" height="5.6"/>
<text transform="matrix(1 0 0 1 417.4185 663.1365)" class="st4 st5">SP6003</text>
<rect x="416.7" y="558.2" class="st17" width="25.3" height="5.6"/>
<text transform="matrix(1 0 0 1 417.4185 563.0386)" class="st4 st5">SP6004</text>
<path class="st36" d="M190.5,534.2c-1.8,0-3.2-1.5-3.2-3.5c0-1.9,1.4-3.5,3.2-3.5l63.9,6.9c1.8,0,3.2-1.5,3.2-3.5
	c0-1.9-1.4-3.5-3.2-3.5L190.5,534.2z"/>
<path class="st36" d="M190.5,668c-1.8,0-3.2-1.5-3.2-3.5c0-1.9,1.4-3.5,3.2-3.5l63.9,6.9c1.8,0,3.2-1.5,3.2-3.5
	c0-1.9-1.4-3.5-3.2-3.5L190.5,668z"/>
<path class="st36" d="M529.5,534.2c-1.8,0-3.2-1.5-3.2-3.5c0-1.9,1.4-3.5,3.2-3.5l59.9,6.9c1.8,0,3.2-1.5,3.2-3.5
	c0-1.9-1.4-3.5-3.2-3.5L529.5,534.2z"/>
<ellipse class="st36" cx="379.8" cy="570.3" rx="41.5" ry="3.1"/>
<ellipse class="st36" cx="379.8" cy="526.4" rx="41.5" ry="3.1"/>
<ellipse class="st36" cx="379.8" cy="667.9" rx="41.5" ry="3.1"/>
<path class="st18" d="M423.6,667.8c0,1.7-1.3,2.9-2.8,2.9c-1.6,0-2.9-1.2-2.9-2.9c0-1.5,1.3-2.7,2.9-2.7
	C422.3,665.1,423.6,666.3,423.6,667.8z"/>
<rect x="469.7" y="665" class="st17" width="25.3" height="5.6"/>
<text transform="matrix(1 0 0 1 470.3768 669.8381)" class="st4 st5">SP4866</text>
<path class="st18" d="M503.6,667.8c0,1.7-1.3,2.9-2.8,2.9c-1.6,0-2.9-1.2-2.9-2.9c0-1.5,1.3-2.7,2.9-2.7
	C502.3,665.1,503.6,666.3,503.6,667.8z"/>
<path class="st18" d="M423.6,569.7c0,1.7-1.3,2.9-2.8,2.9c-1.6,0-2.9-1.2-2.9-2.9c0-1.5,1.3-2.7,2.9-2.7
	C422.3,567,423.6,568.2,423.6,569.7z"/>
<rect x="416.7" y="514.4" class="st17" width="25.3" height="5.6"/>
<text transform="matrix(1 0 0 1 417.4185 519.2886)" class="st4 st5">SP5500</text>
<path class="st18" d="M423.6,526c0,1.7-1.3,2.9-2.8,2.9c-1.6,0-2.9-1.2-2.9-2.9c0-1.5,1.3-2.7,2.9-2.7
	C422.3,523.3,423.6,524.5,423.6,526z"/>
<g>
	<text transform="matrix(1 0 0 1 338.3442 723.4366)" class="st4 st19">Microphone +</text>
</g>
<g>
	<text transform="matrix(1 0 0 1 399.5942 723.4366)" class="st4 st19">Microphone-</text>
</g>
<g>
	<text transform="matrix(1 0 0 1 103.517 799.229)" class="st37 st4 st5">Eg03</text>
</g>
<g>
	<text transform="matrix(1 0 0 1 492.5897 799.229)" class="st37 st4 st5">Eg04</text>
</g>
<g>
	<text transform="matrix(1 0 0 1 115.8511 163.9756)" class="st37 st4 st5">F1/37</text>
</g>
<g>
	<text transform="matrix(1 0 0 1 19.472 135.5166)" class="st37 st4 st5">Front compartment fuse box</text>
</g>
<g>
	<text transform="matrix(1 0 0 1 205.6556 135.5164)" class="st37 st4 st5">Instrument fuse box</text>
</g>
<g>
	<text transform="matrix(1 0 0 1 195.8214 163.9756)" class="st37 st4 st5">F2/07</text>
</g>
<g>
	<text transform="matrix(1 0 0 1 589.2257 181.7605)" class="st37 st4 st5">GPS antenna</text>
</g>
<g>
	<text transform="matrix(1 0 0 1 359.5497 181.7252)" class="st37 st4 st5">Emergency button group</text>
</g>
<g>
	<text transform="matrix(1 0 0 1 694.7258 181.7605)" class="st37 st4 st5">4G main antenna</text>
</g>
<g>
	<text transform="matrix(1 0 0 1 115.8506 481.9727)" class="st37 st4 st5">G117(A)</text>
</g>
<g>
	<text transform="matrix(1 0 0 1 140.1006 481.9727)" class="st37 st4 st5">-40</text>
</g>
<g>
	<text transform="matrix(1 0 0 1 116.7989 438.6088)" class="st37 st4 st5">G117(A)</text>
</g>
<g>
	<text transform="matrix(1 0 0 1 141.0992 438.6094)" class="st37 st4 st5">-1</text>
</g>
<g>
	<text transform="matrix(1 0 0 1 116.7989 203.9102)" class="st37 st4 st5">B1C</text>
</g>
<g>
	<text transform="matrix(1 0 0 1 129.2989 203.9102)" class="st37 st4 st5">-11</text>
</g>
<g>
	<text transform="matrix(1 0 0 1 196.7691 438.6088)" class="st37 st4 st5">G117(A)</text>
</g>
<g>
	<text transform="matrix(1 0 0 1 221.0694 438.6094)" class="st37 st4 st5">-20</text>
</g>
<g>
	<text transform="matrix(1 0 0 1 289.6026 438.6088)" class="st37 st4 st5">G117(A)</text>
</g>
<g>
	<text transform="matrix(1 0 0 1 313.9029 438.6094)" class="st37 st4 st5">-30</text>
</g>
<g>
	<text transform="matrix(1 0 0 1 350.6529 438.6088)" class="st37 st4 st5">G117(A)</text>
</g>
<g>
	<text transform="matrix(1 0 0 1 374.9532 438.6094)" class="st37 st4 st5">-34</text>
</g>
<g>
	<text transform="matrix(1 0 0 1 411.7037 438.6088)" class="st37 st4 st5">G117(A)</text>
</g>
<g>
	<text transform="matrix(1 0 0 1 436.004 438.6094)" class="st37 st4 st5">-10</text>
</g>
<g>
	<text transform="matrix(1 0 0 1 472.754 438.6088)" class="st37 st4 st5">G117(A)</text>
</g>
<g>
	<text transform="matrix(1 0 0 1 497.0543 438.6094)" class="st37 st4 st5">-12</text>
</g>
<g>
	<text transform="matrix(1 0 0 1 196.7691 203.9102)" class="st37 st4 st5">G82</text>
</g>
<g>
	<text transform="matrix(1 0 0 1 209.1441 203.9102)" class="st37 st4 st5">-8</text>
</g>
<g>
	<text transform="matrix(1 0 0 1 291.6241 203.9102)" class="st37 st4 st5">P09</text>
</g>
<g>
	<text transform="matrix(1 0 0 1 302.9576 203.9102)" class="st37 st4 st5">-1</text>
</g>
<g>
	<text transform="matrix(1 0 0 1 352.6646 203.9102)" class="st37 st4 st5">P09</text>
</g>
<g>
	<text transform="matrix(1 0 0 1 363.9981 203.9102)" class="st37 st4 st5">-2</text>
</g>
<g>
	<text transform="matrix(1 0 0 1 413.5396 203.9102)" class="st37 st4 st5">P09</text>
</g>
<g>
	<text transform="matrix(1 0 0 1 424.8731 203.9102)" class="st37 st4 st5">-3</text>
</g>
<g>
	<text transform="matrix(1 0 0 1 474.7974 203.9102)" class="st37 st4 st5">P09</text>
</g>
<g>
	<text transform="matrix(1 0 0 1 486.1309 203.9102)" class="st37 st4 st5">-4</text>
</g>
<g>
	<text transform="matrix(1 0 0 1 197.0782 716.5829)" class="st37 st4 st5">GK28</text>
</g>
<g>
	<text transform="matrix(1 0 0 1 213.4913 716.5834)" class="st37 st4 st5">-4</text>
</g>
<g>
	<text transform="matrix(1 0 0 1 258.129 716.5829)" class="st37 st4 st5">GK28</text>
</g>
<g>
	<text transform="matrix(1 0 0 1 274.5421 716.5834)" class="st37 st4 st5">-1</text>
</g>
<g>
	<text transform="matrix(1 0 0 1 197.0782 481.9716)" class="st37 st4 st5">G117(A)</text>
</g>
<g>
	<text transform="matrix(1 0 0 1 221.3282 481.9727)" class="st37 st4 st5">-9</text>
</g>
<g>
	<text transform="matrix(1 0 0 1 258.129 481.9716)" class="st37 st4 st5">G117(A)</text>
</g>
<g>
	<text transform="matrix(1 0 0 1 282.379 481.9727)" class="st37 st4 st5">-29</text>
</g>
<g>
	<text transform="matrix(1 0 0 1 352.6651 481.9716)" class="st37 st4 st5">G117(A)</text>
</g>
<g>
	<text transform="matrix(1 0 0 1 376.9151 481.9727)" class="st37 st4 st5">-6</text>
</g>
<g>
	<text transform="matrix(1 0 0 1 413.5396 481.9716)" class="st37 st4 st5">G117(A)</text>
</g>
<g>
	<text transform="matrix(1 0 0 1 437.7896 481.9727)" class="st37 st4 st5">-26</text>
</g>
<g>
	<text transform="matrix(1 0 0 1 352.0255 716.5829)" class="st37 st4 st5">P01_1</text>
</g>
<g>
	<text transform="matrix(1 0 0 1 370.4034 716.5829)" class="st37 st4 st5">-1</text>
</g>
<g>
	<text transform="matrix(1 0 0 1 413.0762 716.5829)" class="st37 st4 st5">P01_1</text>
</g>
<g>
	<text transform="matrix(1 0 0 1 431.4542 716.5829)" class="st37 st4 st5">-2</text>
</g>
<g>
	<text transform="matrix(1 0 0 1 536.6461 481.9727)" class="st37 st4 st5">G117(A)</text>
</g>
<g>
	<text transform="matrix(1 0 0 1 561.169 481.9727)" class="st37 st4 st5">-19</text>
</g>
<g>
	<text transform="matrix(1 0 0 1 594.2515 481.9727)" class="st37 st4 st5">G117(A)</text>
</g>
<g>
	<text transform="matrix(1 0 0 1 618.7745 481.9727)" class="st37 st4 st5">-39</text>
</g>
<g>
	<text transform="matrix(1 0 0 1 658.8047 481.9727)" class="st37 st4 st5">G117(A)</text>
</g>
<g>
	<text transform="matrix(1 0 0 1 683.3277 481.9727)" class="st37 st4 st5">-32</text>
</g>
<g>
	<text transform="matrix(1 0 0 1 202.1519 761.247)" class="st37 st4 st5">Speaker (emergency)</text>
</g>
<g>
	<text transform="matrix(1 0 0 1 377.5987 459.374)" class="st37 st4 st5">Emergency control module</text>
</g>
<g>
	<text transform="matrix(1 0 0 1 351.5914 761.2469)" class="st37 st4 st5">Microphone (emergency)</text>
</g>
<g>
	<text transform="matrix(1 0 0 1 584.4996 203.9102)" class="st37 st4 st5">-1</text>
</g>
<g>
	<text transform="matrix(1 0 0 1 563.6275 203.9102)" class="st37 st4 st5"> G41_4</text>
</g>
<g>
	<text transform="matrix(1 0 0 1 689.8497 203.9102)" class="st37 st4 st5">-1</text>
</g>
<g>
	<text transform="matrix(1 0 0 1 668.9781 203.9102)" class="st37 st4 st5"> G41_5</text>
</g>
<g>
	<text transform="matrix(1 0 0 1 117.4835 276.4219)" class="st37 st4 st5">BJG01</text>
</g>
<g>
	<text transform="matrix(1 0 0 1 117.4835 282.4219)" class="st37 st4 st5">GJB01</text>
</g>
<g>
	<text transform="matrix(1 0 0 1 136.4835 282.4219)" class="st37 st4 st5">-10</text>
</g>
<g>
	<text transform="matrix(1 0 0 1 290.0914 276.4219)" class="st37 st4 st5">PJG01</text>
</g>
<g>
	<text transform="matrix(1 0 0 1 290.0914 282.4219)" class="st37 st4 st5">GJP01</text>
</g>
<g>
	<text transform="matrix(1 0 0 1 308.9039 282.4219)" class="st37 st4 st5">-7</text>
</g>
<g>
	<text transform="matrix(1 0 0 1 351.5914 276.4219)" class="st37 st4 st5">PJG01</text>
</g>
<g>
	<text transform="matrix(1 0 0 1 351.5914 282.4219)" class="st37 st4 st5">GJP01</text>
</g>
<g>
	<text transform="matrix(1 0 0 1 370.4039 282.4219)" class="st37 st4 st5">-9</text>
</g>
<g>
	<text transform="matrix(1 0 0 1 412.7007 276.4219)" class="st37 st4 st5">PJG01</text>
</g>
<g>
	<text transform="matrix(1 0 0 1 412.7007 282.4219)" class="st37 st4 st5">GJP01</text>
</g>
<g>
	<text transform="matrix(1 0 0 1 431.5132 282.4219)" class="st37 st4 st5">-17</text>
</g>
<g>
	<text transform="matrix(1 0 0 1 473.3287 276.4219)" class="st37 st4 st5">PJG01</text>
</g>
<g>
	<text transform="matrix(1 0 0 1 473.3287 282.4219)" class="st37 st4 st5">GJP01</text>
</g>
<g>
	<text transform="matrix(1 0 0 1 492.1412 282.4219)" class="st37 st4 st5">-24</text>
</g>
<g>
	<text transform="matrix(1 0 0 1 413.7457 621.001)" class="st37 st4 st5">GJP01</text>
</g>
<g>
	<text transform="matrix(1 0 0 1 413.7457 627.001)" class="st37 st4 st5">PJG01</text>
</g>
<g>
	<text transform="matrix(1 0 0 1 432.8082 627.001)" class="st37 st4 st5">-16</text>
</g>
<g>
	<text transform="matrix(1 0 0 1 460.0435 621.001)" class="st37 st4 st5">GJP01</text>
</g>
<g>
	<text transform="matrix(1 0 0 1 460.0435 627.001)" class="st37 st4 st5">PJG01</text>
</g>
<g>
	<text transform="matrix(1 0 0 1 479.0435 627.001)" class="st37 st4 st5">-1</text>
</g>
<g>
	<text transform="matrix(1 0 0 1 352.6651 621.001)" class="st37 st4 st5">GJP01</text>
</g>
<g>
	<text transform="matrix(1 0 0 1 352.6651 627.001)" class="st37 st4 st5">PJG01</text>
</g>
<g>
	<text transform="matrix(1 0 0 1 371.7276 627.001)" class="st37 st4 st5">-8</text>
</g>
<g>
	<text transform="matrix(1 0 0 1 564.5792 438.6088)" class="st37 st4 st5">G117(C)</text>
</g>
<g>
	<text transform="matrix(1 0 0 1 588.8795 438.6094)" class="st37 st4 st5">-1</text>
</g>
<g>
	<text transform="matrix(1 0 0 1 671.2457 438.6088)" class="st37 st4 st5">G117(D)</text>
</g>
<g>
	<text transform="matrix(1 0 0 1 695.8707 438.6088)" class="st37 st4 st5">-1</text>
</g>
<g>
	<text transform="matrix(1 0 0 1 659.837 709.874)" class="st37 st4 st5">-23</text>
</g>
<g>
	<text transform="matrix(1 0 0 1 638.9986 709.874)" class="st37 st4 st5">G07(A)</text>
</g>
<g>
	<text transform="matrix(1 0 0 1 635.3004 718.2822)" class="st37 st4 st5">Central Control Large Screen Host</text>
</g>
</svg>
